<svg id="fa536543-256c-4bf3-be1b-8afbeeaf29dc" data-name="Layer 1" xmlns="http://www.w3.org/2000/svg" viewBox="0 0 41.94186 40.50975"><defs><style>.b0b77419-034d-44f8-bddf-2859115842a7{fill:#e6e7e8;}.e8160b20-d5ed-4daf-ad04-cf7049260c7b{fill:#d1d3d4;}.bb37fb40-289e-4030-a96d-44872c6344ca{fill:#fff;}.e6a69665-6937-494a-850f-7287174fd47e{fill:#414042;}</style></defs><title>Artboard 230 copy 4</title><path class="b0b77419-034d-44f8-bddf-2859115842a7" d="M11.23487.12981S4.32413.26892,1.11744,6.16509C-1.90011,11.71348,8.46179,5.441,8.46179,5.441Z"/><rect class="b0b77419-034d-44f8-bddf-2859115842a7" x="4.22068" y="0.10737" width="37.65273" height="37.65273" rx="7.52857"/><path class="e8160b20-d5ed-4daf-ad04-cf7049260c7b" d="M38.501,37.6724l-1.01769.64877C35.56365,39.545,27.28816,41.166,27.28816,39.36984L36.92348,6.93451,40.923,4.31339A3.60505,3.60505,0,0,1,41.84,6.93756l.1369,25.26681C41.97686,34.0005,40.42066,36.44862,38.501,37.6724Z"/><rect class="bb37fb40-289e-4030-a96d-44872c6344ca" x="0.08302" y="2.79685" width="37.65273" height="37.65273" rx="7.52857"/><circle class="e6a69665-6937-494a-850f-7287174fd47e" cx="8.03696" cy="13.406" r="2.68948"/><circle class="e6a69665-6937-494a-850f-7287174fd47e" cx="27.9088" cy="13.406" r="2.68948"/><circle class="e6a69665-6937-494a-850f-7287174fd47e" cx="27.9088" cy="31.92204" r="2.68948"/><circle class="e6a69665-6937-494a-850f-7287174fd47e" cx="8.03696" cy="31.92204" r="2.68948"/></svg>