<svg id="b03a5fc0-49a0-47e8-8ca6-b835124a4e36" data-name="Layer 1" xmlns="http://www.w3.org/2000/svg" viewBox="0 0 41.94186 40.50975"><defs><style>.af74a7a6-a796-4edb-b67c-40db06f19030{fill:#e6e7e8;}.bdd67eef-3e56-4dcf-82d1-008f0d33f884{fill:#d1d3d4;}.e85b0ff8-6b6c-420c-9b30-ba1553bd1275{fill:#fff;}.e2eb76f6-7b1c-4e9a-bca5-2d341d4d94c0{fill:#414042;}</style></defs><title>Artboard 230 copy 6</title><path class="af74a7a6-a796-4edb-b67c-40db06f19030" d="M11.23487.12981S4.32413.26892,1.11744,6.16509C-1.90011,11.71348,8.46179,5.441,8.46179,5.441Z"/><rect class="af74a7a6-a796-4edb-b67c-40db06f19030" x="4.22068" y="0.10737" width="37.65273" height="37.65273" rx="7.52857"/><path class="bdd67eef-3e56-4dcf-82d1-008f0d33f884" d="M38.501,37.6724l-1.01769.64877C35.56365,39.545,27.28816,41.166,27.28816,39.36984L36.92348,6.93451,40.923,4.31339A3.60505,3.60505,0,0,1,41.84,6.93756l.1369,25.26681C41.97686,34.0005,40.42066,36.44862,38.501,37.6724Z"/><rect class="e85b0ff8-6b6c-420c-9b30-ba1553bd1275" x="0.08302" y="2.79685" width="37.65273" height="37.65273" rx="7.52857"/><circle class="e2eb76f6-7b1c-4e9a-bca5-2d341d4d94c0" cx="8.25491" cy="13.406" r="2.68948"/><circle class="e2eb76f6-7b1c-4e9a-bca5-2d341d4d94c0" cx="27.91448" cy="13.406" r="2.68948"/><circle class="e2eb76f6-7b1c-4e9a-bca5-2d341d4d94c0" cx="27.91448" cy="32.16393" r="2.68948"/><circle class="e2eb76f6-7b1c-4e9a-bca5-2d341d4d94c0" cx="27.91448" cy="22.78497" r="2.68948"/><circle class="e2eb76f6-7b1c-4e9a-bca5-2d341d4d94c0" cx="8.25491" cy="32.16393" r="2.68948"/><circle class="e2eb76f6-7b1c-4e9a-bca5-2d341d4d94c0" cx="8.25491" cy="22.78497" r="2.68948"/></svg>