<svg id="afeab9be-d8c8-4ef4-8927-b7e7e7ac5781" data-name="Layer 1" xmlns="http://www.w3.org/2000/svg" viewBox="0 0 41.94186 40.50975"><defs><style>.b46a6fe5-1d54-4d0b-b6a8-0ea7ecfe0a04{fill:#e6e7e8;}.e7c84b4f-ea04-4d29-b97c-38aeeda2b616{fill:#d1d3d4;}.ed96d187-fd95-42ab-ab4b-62f17ba23e64{fill:#fff;}.ab5e846b-5c96-4374-87fa-abcaea3cfd85{fill:#414042;}</style></defs><title>Artboard 230 copy 5</title><path class="b46a6fe5-1d54-4d0b-b6a8-0ea7ecfe0a04" d="M11.23487.12981S4.32413.26892,1.11744,6.16509C-1.90011,11.71348,8.46179,5.441,8.46179,5.441Z"/><rect class="b46a6fe5-1d54-4d0b-b6a8-0ea7ecfe0a04" x="4.22068" y="0.10737" width="37.65273" height="37.65273" rx="7.52857"/><path class="e7c84b4f-ea04-4d29-b97c-38aeeda2b616" d="M38.501,37.6724l-1.01769.64877C35.56365,39.545,27.28816,41.166,27.28816,39.36984L36.92348,6.93451,40.923,4.31339A3.60505,3.60505,0,0,1,41.84,6.93756l.1369,25.26681C41.97686,34.0005,40.42066,36.44862,38.501,37.6724Z"/><rect class="ed96d187-fd95-42ab-ab4b-62f17ba23e64" x="0.08302" y="2.79685" width="37.65273" height="37.65273" rx="7.52857"/><circle class="ab5e846b-5c96-4374-87fa-abcaea3cfd85" cx="8.03696" cy="13.406" r="2.68948"/><circle class="ab5e846b-5c96-4374-87fa-abcaea3cfd85" cx="27.9088" cy="13.406" r="2.68948"/><circle class="ab5e846b-5c96-4374-87fa-abcaea3cfd85" cx="27.9088" cy="31.92204" r="2.68948"/><circle class="ab5e846b-5c96-4374-87fa-abcaea3cfd85" cx="8.03696" cy="31.92204" r="2.68948"/><circle class="ab5e846b-5c96-4374-87fa-abcaea3cfd85" cx="17.85285" cy="21.88821" r="2.68948"/></svg>