<svg id="f4e0dcbc-088a-4ed0-9486-757f92404314" data-name="Layer 1" xmlns="http://www.w3.org/2000/svg" viewBox="0 0 41.94186 40.50975"><defs><style>.ae3bb415-f674-4251-8a3a-2f02984084a0{fill:#e6e7e8;}.e174dc25-0951-4dca-a6ed-1c60cfd3f845{fill:#d1d3d4;}.ab4807df-913d-460f-b641-4f8ac8eb6d92{fill:#fff;}.b9296c2f-30b0-44a6-9793-d9ef4178c71b{fill:#414042;}</style></defs><title>Artboard 230 copy 3</title><path class="ae3bb415-f674-4251-8a3a-2f02984084a0" d="M11.23487.12981S4.32413.26892,1.11744,6.16509C-1.90011,11.71348,8.46179,5.441,8.46179,5.441Z"/><rect class="ae3bb415-f674-4251-8a3a-2f02984084a0" x="4.22068" y="0.10737" width="37.65273" height="37.65273" rx="7.52857"/><path class="e174dc25-0951-4dca-a6ed-1c60cfd3f845" d="M38.501,37.6724l-1.01769.64877C35.56365,39.545,27.28816,41.166,27.28816,39.36984L36.92348,6.93451,40.923,4.31339A3.60505,3.60505,0,0,1,41.84,6.93756l.1369,25.26681C41.97686,34.0005,40.42066,36.44862,38.501,37.6724Z"/><rect class="ab4807df-913d-460f-b641-4f8ac8eb6d92" x="0.08302" y="2.79685" width="37.65273" height="37.65273" rx="7.52857"/><circle class="b9296c2f-30b0-44a6-9793-d9ef4178c71b" cx="27.9088" cy="13.406" r="2.68948"/><circle class="b9296c2f-30b0-44a6-9793-d9ef4178c71b" cx="7.81902" cy="31.92204" r="2.68948"/><circle class="b9296c2f-30b0-44a6-9793-d9ef4178c71b" cx="17.72519" cy="22.0797" r="2.68948"/></svg>