<svg id="abce8092-a4b1-4ae8-9617-da7ba9c035df" data-name="Layer 1" xmlns="http://www.w3.org/2000/svg" xmlns:xlink="http://www.w3.org/1999/xlink" viewBox="0 0 67.43434 115.31381"
preserveAspectRatio="none" ><defs><style>.b8ff7b2b-cede-4cdd-9a58-b1d405f8be76{fill:none;}.ebfc2441-5a84-4c01-ac7f-ea5d176826d3{fill:#f6d2ba;}.e946a88c-f39b-45f8-b0e5-3051ecd1d880{fill:#566345;}.ed5e4b2e-780c-4b50-a7f6-54a1ee7fab24{fill:#1a242d;}.f0bb4186-5045-43c9-9156-5a31272567bd{clip-path:url(#f8145527-c959-4f74-9303-9ff74cd5c5f7);}.b626adf4-864d-4fe1-b862-1f054355e89f{fill:#4c5939;}.adfd69d5-3b94-492a-a120-a98c874c6145{fill:#63774e;}.ac545c0e-5326-4e35-b83f-b47c7a98b9bd{fill:#fff;}.a8d2533d-7062-407a-ab4a-a0744e04268d{fill:#6f825a;}.a9b1d8d2-18c0-4b49-a0d4-e2b27b3b45ae{clip-path:url(#ec543096-a6eb-4b57-9797-5e357958e980);}.a4e78df4-775f-4e20-82b7-3a00720fd8a5{fill:#938c6c;}.ef6bc573-1d0e-415e-8601-83c0310f6290{clip-path:url(#b98396e6-855a-42bd-95a2-4ae1adc8fc94);}.ef57f6f6-6f34-4c1d-804d-f4c6be7ea2c9{fill:#e0bba6;}.b59e6c8d-758d-413d-9ed4-32764f104ddd{fill:#3c2415;}.a7b3db8e-6136-42ce-817c-8f8962cb6d46{fill:#754c29;}.e282fb55-0640-491b-8e74-6bfd124d12c6{fill:#603913;}.aa9a06cd-679c-4fde-94e5-067500bd1569{fill:#281910;}.b7f60ac1-6567-4e9e-92ce-286ea34a1d35{fill:#758c58;}.b9344f56-c6e4-4fba-9bb8-cc91508f69ab{fill:#81975e;}.fda74ceb-4d49-44c2-b852-b78f46a73160{fill:#424143;}</style><clipPath id="f8145527-c959-4f74-9303-9ff74cd5c5f7"><path class="b8ff7b2b-cede-4cdd-9a58-b1d405f8be76" d="M40.098,52.24633c-.82458.68108,5.85765,6.98638,6.19711,8.0627.79618,2.52449.054,6.30438-.13429,8.89453A42.81588,42.81588,0,0,1,43.796,81.463c3.436,3.1825,7.36895,5.68748,10.50388,9.25155,3.47873,3.95492,6.15785,8.569,9.96446,12.2443.406.392-2.59137,4.08915-3.09309,4.20885-3.241.77321-7.28984-5.6723-9.6967-7.30555a86.21393,86.21393,0,0,1-12.26837-9.62009,24.1585,24.1585,0,0,1-2.30039-2.53628C32.73431,82.19723,33.90553,75.00091,32.85154,68.6a27.65458,27.65458,0,0,0-1.03531-4.35431c-.38045-1.12807-1.90469-2.75168-2.07865-3.6604-.496-2.59106,2.434-2.95947,4.31679-3.83517C36.33735,55.688,38.1774,53.83269,40.098,52.24633Z"/></clipPath><clipPath id="ec543096-a6eb-4b57-9797-5e357958e980"><path class="b8ff7b2b-cede-4cdd-9a58-b1d405f8be76" d="M40.40052,21.10973c-2.75994-.84258-3.50772,2.12637-5.14723,3.82974-.40812.424-.83513.82933-1.262,1.23448-.49252.46749-2.96,2.23467-2.85734,3.03832a12.84763,12.84763,0,0,1-.09878-3.89311c.24732-1.37341.93933-2.64912,1.07846-4.03766-2.50877.22844-4.80017,4.94321-5.52936,7.01619a18.21539,18.21539,0,0,0-.54612,7.01405c.28115,5.3697.56,10.74582.72658,16.10309a15.1739,15.1739,0,0,0,.85784,5.4627.49086.49086,0,0,1-.48306-.32412l.13828,1.15513a6.23211,6.23211,0,0,1,2.18528-.30139,29.57027,29.57027,0,0,1,3.71976.69918c2.07255.35532,2.71333-.51826,4.37882-1.24682,1.69431-.74117,4.29075-.49685,6.13948-.82612-.66773-4.23219-1.35861-7.80321.16056-11.97774,1.04869-2.88168,1.405-5.84187,2.382-8.67484a27.296,27.296,0,0,0,1.43076-9.408C47.60629,22.75318,43.042,21.91616,40.40052,21.10973Z"/></clipPath><clipPath id="b98396e6-855a-42bd-95a2-4ae1adc8fc94"><path class="b8ff7b2b-cede-4cdd-9a58-b1d405f8be76" d="M34.92418,31.36577a.65821.65821,0,0,0,.32288.27737.60668.60668,0,0,0,.38959-.06157,4.83374,4.83374,0,0,0,1.7882-1.48211c.89985-1.10973,2.03888-2.67575,2.13173-4.14972.05408-.85844-.45283-1.25348-.65341-1.97276-.11355-.4072-.0578-.95317-.15559-1.39293-.10822-.48665-.21986-.97256-.32979-1.45883a10.20578,10.20578,0,0,1-.356-2.59107,3.091,3.091,0,0,1,.74263-2.13512c.4395-.35821,1.03973-.32827,1.36994-.89193,1.362-2.32489,1.01528-5.96575.30306-8.44417a6.99841,6.99841,0,0,0-2.029-3.45893,6.99825,6.99825,0,0,0-2.81321-1.34771,8.878,8.878,0,0,0-5.57561.21234C26.65406,3.87387,25.83065,6.6433,25.63531,9.759c-.04436.7074-.05633,1.43265-.0588,2.16384-.00811,2.40529-.193,7.50688,3.22586,7.68253L31.404,19.739c.22231.01142.5269.10309.60927.32521a2.17121,2.17121,0,0,1,.08485.98869c-.02873.23186-.23149.37816-.34641.58966a2.15056,2.15056,0,0,0-.20484.77177,10.1707,10.1707,0,0,0,.22013,3.96544c.30582,1.05718,1.32708,1.54345,1.816,2.4582A18.79056,18.79056,0,0,0,34.92418,31.36577Z"/></clipPath></defs><path class="ebfc2441-5a84-4c01-ac7f-ea5d176826d3" d="M2.06005,27.75932A3.97649,3.97649,0,0,1,.00534,24.78274a1.8359,1.8359,0,0,1,1.52788-1.88,3.98653,3.98653,0,0,1,1.8174.06759,10.79523,10.79523,0,0,1,2.757,1.49315c-.08825-.58582.12326-2.12957,1.17317-1.65861.19194.08611.21613.34286.2239.55309a5.6856,5.6856,0,0,0,.69893,2.52275,5.24677,5.24677,0,0,1,.06318,4.1818,1.30676,1.30676,0,0,1-.7553.92175c-.57807.16761-1.093-.36726-1.51351-.7979C4.85734,29.01818,3.42463,28.55861,2.06005,27.75932Z"/><path class="e946a88c-f39b-45f8-b0e5-3051ecd1d880" d="M24.64584,27.83248A24.81135,24.81135,0,0,1,28.458,23.02229c1.34721-1.15405,3.45384-1.82567,4.31391.19064.65025,1.52452-.00387,3.2656-.70253,4.76854a25.57075,25.57075,0,0,1-2.87494,5.23158,46.41681,46.41681,0,0,1-4.03478,4.613c-1.45084,1.40033-2.89793,3.7527-5.12231,3.85544-2.28641.1056-5.65071-1.41345-7.37268-2.94552a31.96368,31.96368,0,0,1-4.19215-4.74458c-.68671-.91266-3.24461-3.36167-2.823-4.60038A4.109,4.109,0,0,1,8.6934,26.95871c1.13513-.05823,2.81322,2.63072,3.66485,3.37575,1.60077,1.4004,3.28634,2.49559,5.00371,3.748,1.03443.75436,1.13495,1.25183,2.20436.55961.5736-.37129,1.13556-1.645,1.56285-2.21009C22.2933,30.89225,23.55071,29.42419,24.64584,27.83248Z"/><path class="ed5e4b2e-780c-4b50-a7f6-54a1ee7fab24" d="M30.469,94.54177a4.35816,4.35816,0,0,1,2.42742-.88142A3.25771,3.25771,0,0,1,35.405,95.43872a1.96867,1.96867,0,0,1,.406,1.16055,2.63539,2.63539,0,0,1-.40695,1.13434,12.18251,12.18251,0,0,1-4.08534,4.24493,6.64182,6.64182,0,0,1-3.64347,1.19271,2.49473,2.49473,0,0,1-2.54658-1.9557c-.13917-1.25279.90195-2.4738,1.87-3.50561a5.8174,5.8174,0,0,0,1.31935-1.61457,2.06811,2.06811,0,0,1,.20455-.431c.17649-.24615.61519-.31455.8797-.46806C29.76284,94.987,30.10859,94.75192,30.469,94.54177Z"/><path class="e946a88c-f39b-45f8-b0e5-3051ecd1d880" d="M40.09215,53.17119c-.82459.68108,5.85764,6.98638,6.1971,8.0627.79618,2.52449.054,6.30438-.13428,8.89453a42.81629,42.81629,0,0,1-2.36486,12.25944c3.436,3.1825,7.36894,5.68748,10.50388,9.25155,3.47872,3.95492,6.15784,8.569,9.96446,12.2443.406.392-2.59137,4.08914-3.09309,4.20885-3.241.77321-7.28985-5.6723-9.69671-7.30555a86.21327,86.21327,0,0,1-12.26836-9.62009,24.1574,24.1574,0,0,1-2.30039-2.53628c-4.17147-5.50855-3.00025-12.70487-4.05423-19.10578a27.655,27.655,0,0,0-1.03532-4.35432c-.38045-1.12806-1.90468-2.75167-2.07865-3.66039-.496-2.59106,2.434-2.95947,4.3168-3.83518C36.33147,56.61284,38.17152,54.75754,40.09215,53.17119Z"/><g class="f0bb4186-5045-43c9-9156-5a31272567bd"><path class="b626adf4-864d-4fe1-b862-1f054355e89f" d="M34.21207,67.121a3.95026,3.95026,0,0,0-1.69627,1.58973,4.2992,4.2992,0,0,0-.22561,2.05477q.16344,2.95575.42049,5.90532c.04143.47536.15952,1.05037.61281,1.1994a1.243,1.243,0,0,0,1.07874-.3759A42.80169,42.80169,0,0,0,43.74447,67.324c.53236-.81043,3.54048-4.87854,2.94668-5.754-.5776-.85158-4.51992,1.8729-5.37627,2.25832A70.77337,70.77337,0,0,0,34.21207,67.121Z"/></g><path class="adfd69d5-3b94-492a-a120-a98c874c6145" d="M45.55573,54.57256a6.72554,6.72554,0,0,0-1.66649-1.85322,2.8588,2.8588,0,0,0-2.20423-.68919c-.73723.11963-1.36341,1.21757-1.83352,1.27851-1.36642.17714-2.24894,1.3109-3.359,2.12732-2.38252,1.75223-5.0171,1.52456-7.80964,1.54315-3.28948.02189-5.59987,2.96564-8.07724,4.69858l-3.59082,2.51178c-3.76748,2.63536-5.71254,6.20518-4.14682,10.68819,1.20606,3.45322,2.387,7.02256,4.90035,9.7217l5.71014,6.13229,2.85507,3.06614c.47438.50946.94466,1.02313,1.42354,1.52836.05173.05458.96685.90518.71936.94774a4.9534,4.9534,0,0,0,1.70341-.77043c.88021-.54177,2.97245-1.33744,2.42982-2.63809a81.50081,81.50081,0,0,0-11.15937-19.0001c1.57643-.914,3.35531-.90717,5.0862-1.303a47.48323,47.48323,0,0,0,5.47865-1.61109,52.085,52.085,0,0,0,10.2361-5.02563,11.0948,11.0948,0,0,0,3.55646-3.14833c2.29462-3.56278.18531-7.70749-1.391-11.06793a1.52175,1.52175,0,0,0-.61288-.78467,1.39511,1.39511,0,0,0-.57729-.1066,9.11984,9.11984,0,0,0-1.94843.15138c-.36515.7542-.29853,1.05249-.99538,1.51784-.31631.86231-.43521,1.23207-1.27055,1.61394"/><path class="ebfc2441-5a84-4c01-ac7f-ea5d176826d3" d="M34.92418,31.36577a.65821.65821,0,0,0,.32288.27737.60668.60668,0,0,0,.38959-.06157,4.83374,4.83374,0,0,0,1.7882-1.48211c.89985-1.10973,2.03888-2.67575,2.13173-4.14972.05408-.85844-.45283-1.25348-.65341-1.97276-.11355-.4072-.0578-.95317-.15559-1.39293-.10822-.48665-.21986-.97256-.32979-1.45883a10.20578,10.20578,0,0,1-.356-2.59107,3.091,3.091,0,0,1,.74263-2.13512c.4395-.35821,1.03973-.32827,1.36994-.89193,1.362-2.32489,1.01528-5.96575.30306-8.44417a6.99841,6.99841,0,0,0-2.029-3.45893,6.99825,6.99825,0,0,0-2.81321-1.34771,8.878,8.878,0,0,0-5.57561.21234C26.65406,3.87387,25.83065,6.6433,25.63531,9.759c-.04436.7074-.05633,1.43265-.0588,2.16384-.00811,2.40529-.193,7.50688,3.22586,7.68253L31.404,19.739c.5841.03.68041.48851.72275.97694a1.50811,1.50811,0,0,1,.00154.29839,6.85776,6.85776,0,0,1-.49563,1.25054,4.49809,4.49809,0,0,0-.17384,1.24823,9.15607,9.15607,0,0,0,.30818,2.86667c.30582,1.05718,1.32708,1.54345,1.816,2.4582A18.79056,18.79056,0,0,0,34.92418,31.36577Z"/><path class="ac545c0e-5326-4e35-b83f-b47c7a98b9bd" d="M38.896,25.958q-.04743,1.873-.12488,3.745c-.1012,2.47054-.23826,4.9395-.39773,7.40693-.15954,2.4687-.34171,4.93587-.53159,7.4024-.05038.65442-.34538,7.32107-.57585,7.35214a29.31181,29.31181,0,0,1-9.98838-.37747q.10049-3.26308.32508-6.52076.59082-8.57077,2.0352-17.05407a20.40922,20.40922,0,0,1,.952-3.87214c.18108-.47457.3544-.93606.51886-1.4175a3.046,3.046,0,0,1,.43387-.91878,2.85559,2.85559,0,0,1,.284-.29935c.06656-.06333.17349-.1276.23982-.064a.18368.18368,0,0,1,.042.11068,8.45069,8.45069,0,0,0,.28,1.43556c.10751.33205.08786.80907.3385,1.07758.61555.65927,1.56082.3704,2.27249-.024.98649-.54673,1.99749-1.6649,3.012-2.05648.66173-.25542.59068-.44217.9093.38167C39.32631,23.31436,38.92349,24.87128,38.896,25.958Z"/><path class="adfd69d5-3b94-492a-a120-a98c874c6145" d="M40.40052,21.10973c-2.75994-.84258-3.50772,2.12637-5.14723,3.82974-.40812.424-.83513.82933-1.262,1.23448-.49252.46749-2.96,2.23467-2.85734,3.03832a12.84763,12.84763,0,0,1-.09878-3.89311c.24732-1.37341.93933-2.64912,1.07846-4.03766-2.50877.22844-4.80017,4.94321-5.52936,7.01619a18.21539,18.21539,0,0,0-.54612,7.01405c.28115,5.3697.56,10.74582.72658,16.10309a15.1739,15.1739,0,0,0,.85784,5.4627.49086.49086,0,0,1-.48306-.32412l.13828,1.15513a6.23211,6.23211,0,0,1,2.18528-.30139,29.57027,29.57027,0,0,1,3.71976.69918c2.07255.35532,2.71333-.51826,4.37882-1.24682,1.69431-.74117,4.29075-.49685,6.13948-.82612-.66773-4.23219-1.35861-7.80321.16056-11.97774,1.04869-2.88168,1.405-5.84187,2.382-8.67484a27.296,27.296,0,0,0,1.43076-9.408C47.60629,22.75318,43.042,21.91616,40.40052,21.10973Z"/><path class="a8d2533d-7062-407a-ab4a-a0744e04268d" d="M30.85977,32.07048q.0226-.12785.04583-.25459a10.8379,10.8379,0,0,0-.09656-4.10167,1.05777,1.05777,0,0,0-.28333-.66615c-.07826,2.39906-.82233,4.63849-1.097,6.9918-.79431,6.80458-.37982,13.648-1.51535,20.416a.25193.25193,0,0,0,.01468.17736.26738.26738,0,0,0,.17886.09455,2.20258,2.20258,0,0,0,.92665-.00227.36023.36023,0,0,0,.20847-.1014.34982.34982,0,0,0,.06032-.18514c.16724-1.38528.0401-2.86077.10087-4.26191.09508-2.19233.19017-4.38485.33213-6.57479.14331-2.21051.33447-4.41772.54947-6.62253a26.1051,26.1051,0,0,1,1.49867-7.53861,4.53439,4.53439,0,0,0,.31514-1.28377,3.52845,3.52845,0,0,0-1.29259,1.751A8.43461,8.43461,0,0,0,30.57612,27.35"/><g class="a9b1d8d2-18c0-4b49-a0d4-e2b27b3b45ae"><path class="e946a88c-f39b-45f8-b0e5-3051ecd1d880" d="M44.24944,25.82045c-.50077-.16681-1.01417-.42034-1.48952-.573a1.29851,1.29851,0,0,0-.99218-.04512c-1.44315.76915.30007,5.47186.57493,6.59729A79.41079,79.41079,0,0,0,44.745,39.78919c.05086.14167.17657.31578.31.246a30.45884,30.45884,0,0,0,3.00759-10.40575c.07116-.88024-.10673-1.81254.00349-2.67331.099-.77313.34243-1.38792-.16831-2.112-.5713-.80989-1.42421.26847-1.78595.68493A1.577,1.577,0,0,1,44.24944,25.82045Z"/></g><path class="a4e78df4-775f-4e20-82b7-3a00720fd8a5" d="M43.42164,50.47884a9.96955,9.96955,0,0,0,.3161,1.32865c.07133.17092.47057.68882.24174.83759a8.95477,8.95477,0,0,1-.82673.50233,12.96463,12.96463,0,0,1-2.88239.89882q-1.76014.42114-3.56694.67559a38.83169,38.83169,0,0,1-7.11293.34209c-.77754-.03428-1.90675.16282-2.42364-.48195-.46646-.58185-.19577-2.86507-.17157-3.60174a8.2101,8.2101,0,0,0,1.85515.64384,18.255,18.255,0,0,0,2.7395.18576,28.67859,28.67859,0,0,0,10.5515-2.19037c.25566-.09785.55889-.42211.84863-.31233C43.28132,49.41749,43.36564,50.24921,43.42164,50.47884Z"/><g class="ef6bc573-1d0e-415e-8601-83c0310f6290"><path class="ef57f6f6-6f34-4c1d-804d-f4c6be7ea2c9" d="M27.70834,8.28934a5.57207,5.57207,0,0,0,1.8715-.68706,11.29151,11.29151,0,0,0-2.13779-.76252,4.542,4.542,0,0,0-1.25372-.22995,1.53224,1.53224,0,0,0-1.15125.46338,2.1073,2.1073,0,0,0-.40334,1.14114,7.70919,7.70919,0,0,0-.06668,2.33946A5.4568,5.4568,0,0,1,27.70834,8.28934Z"/><path class="ef57f6f6-6f34-4c1d-804d-f4c6be7ea2c9" d="M30.7999,20.05938c.16248-.31106,1.55394-.4848,1.91064-.61105a14.2141,14.2141,0,0,0,3.727-1.98264,7.07337,7.07337,0,0,1-1.89523,3.36611,10.36732,10.36732,0,0,1-1.27587.94669c-.21576.14109-.62835.45214-.8425.214a.95886.95886,0,0,1-.14334-.24127c-.12953-.27661-.10587-.44183-.41524-.50837-.10726-.02307-.75371-.20727-.72008-.38055C30.97008,20.6851,30.65622,20.3347,30.7999,20.05938Z"/></g><path class="b59e6c8d-758d-413d-9ed4-32764f104ddd" d="M27.27463,2.76466A8.70934,8.70934,0,0,1,30.34917.57891C30.67731.45009,34.273-.46121,34.01061.30044a.577.577,0,0,1-.16582.20529,1.22077,1.22077,0,0,0-.34451.64314A2.80538,2.80538,0,0,1,35.79587.30219c-.05623,2.12,2.81817,2.14137,3.99614,3.273a7.17055,7.17055,0,0,1,2.06674,3.69627c.68143,3.33823-.92833,6.43966-2.125,9.4785a4.20867,4.20867,0,0,1-.64893,1.30746,1.09615,1.09615,0,0,1-1.57.14477c-.71138-.63922-.05407.60742-.75691-.04087a1.644,1.644,0,0,1-.28732-.39713c-.45335-.78058-.87455-1.59559-1.39379-2.33439-.43175-.61431-.45336-.83393.15187-1.40789a2.78035,2.78035,0,0,0,.85936-1.91061.9058.9058,0,0,0-.13571-.57718c-.25633-.34274-.80291-.27627-1.18383-.07754-1.13769.59354-1.18516.83718-1.46378-.58672-.15791-.807-2.57709-1.99808-3.31056-2.59183-.93626-.75735-2.46084-.4763-3.46782-1.15358C25.042,6.12613,26.36079,3.75248,27.27463,2.76466Z"/><path class="a8d2533d-7062-407a-ab4a-a0744e04268d" d="M21.79055,62.44984a27.85775,27.85775,0,0,0-3.63312,1.016,17.44755,17.44755,0,0,0,3.86079-2.4277,35.00447,35.00447,0,0,1,3.96571-2.42234A73.80621,73.80621,0,0,1,35.73246,54.355c2.33929-.83093,5.00491-2.09969,7.45574-.93129a5.0164,5.0164,0,0,1,2.61353,6.02207c-.48667,1.53566-1.43469,3.11767-3.12724,3.43882-2.09467.39745-4.49987-.66316-6.55741-.96053a38.48143,38.48143,0,0,0-8.47382-.2791A45.228,45.228,0,0,0,21.79055,62.44984Z"/><path class="a7b3db8e-6136-42ce-817c-8f8962cb6d46" d="M30.205,1.49889C31.25227,1.13478,32.34537.8962,33.35653.44125A8.1081,8.1081,0,0,0,30.8183,3.0667c-.577,1.15488-1.959,5.03283-3.94082,3.06956C25.11444,4.38972,28.87536,1.96114,30.205,1.49889Z"/><path class="e282fb55-0640-491b-8e74-6bfd124d12c6" d="M34.80377,1.48255a11.946,11.946,0,0,0-1.50145,1.39509,6.6744,6.6744,0,0,0-1.43063,4.04508c-.11441,1.238-1.28027,1.14819-1.59664.0361C29.60321,4.59676,32.808,1.91123,34.80377,1.48255Z"/><path class="aa9a06cd-679c-4fde-94e5-067500bd1569" d="M36.1845,2.98344c.50275.97938,1.31018,1.76439,2.4406,1.49364a.646.646,0,0,0,.52316-.63624c-.09542-.88763-1.54967-.61484-2.1288-.83641A2.51515,2.51515,0,0,1,35.564.86973,6.07736,6.07736,0,0,0,36.1845,2.98344Z"/><path class="a7b3db8e-6136-42ce-817c-8f8962cb6d46" d="M34.03765,1.137a2.27242,2.27242,0,0,0-.302.767A3.274,3.274,0,0,0,35.39685,5.1052a4.39947,4.39947,0,0,1-.68162-1.90389,2.8666,2.8666,0,0,1,.27968-1.66911c.16059-.26033.77185-.74913.31168-1.05745C34.82807.15424,34.34094.62347,34.03765,1.137Z"/><path class="aa9a06cd-679c-4fde-94e5-067500bd1569" d="M40.75049,13.98546a4.31808,4.31808,0,0,0-1.2279.9321,4.12921,4.12921,0,0,0-1.37,2.069c-.03861.30836.19209,1.16039.65326.96676.34933-.14667.50668-1.66591.66149-2.03327C39.68867,15.39488,40.19483,14.23537,40.75049,13.98546Z"/><path class="e282fb55-0640-491b-8e74-6bfd124d12c6" d="M38.7391,14.343c.16063-.08234.32456-.16037.48865-.25111a3.27025,3.27025,0,0,0,1.24352-1.32709,8.3422,8.3422,0,0,0,.64569-1.72248,1.37651,1.37651,0,0,0,.07663-.53035.4797.4797,0,0,0-.29979-.41255.64937.64937,0,0,0-.60231.24467,9.17742,9.17742,0,0,0-1.35343,2.63441,18.895,18.895,0,0,1-1.2676,2.05c-.10092.14868-.28535.33945-.28379.50624-.00233-.2483.61264-.70413.79431-.84772A3.31386,3.31386,0,0,1,38.7391,14.343Z"/><path class="ed5e4b2e-780c-4b50-a7f6-54a1ee7fab24" d="M61.72231,106.26852a4.15716,4.15716,0,0,1,2.00753-1.52261,3.29562,3.29562,0,0,1,2.9067.965,2.01113,2.01113,0,0,1,.74043.98,2.58382,2.58382,0,0,1-.03134,1.18653,11.644,11.644,0,0,1-2.52432,5.16924,6.34174,6.34174,0,0,1-3.05353,2.16242,2.52386,2.52386,0,0,1-2.99717-1.12157c-.51831-1.143.08193-2.59172.67207-3.8411a5.57869,5.57869,0,0,0,.73984-1.89942,2.01207,2.01207,0,0,1,.0588-.46505c.08963-.28257.48057-.47195.68154-.69211C61.19678,106.88971,61.44882,106.56941,61.72231,106.26852Z"/><path class="ebfc2441-5a84-4c01-ac7f-ea5d176826d3" d="M45.58393,48.36347a3.86867,3.86867,0,0,0-.5959-.80275,4.66963,4.66963,0,0,0-1.95444-.96275c-.64937-.24972-1.12417-.49974-1.81845-.12387a3.19918,3.19918,0,0,0-1.22758,1.3923,7.13214,7.13214,0,0,0-.6338,1.72933,1.37453,1.37453,0,0,0-.01347.75165.54.54,0,0,0,.58162.3815,4.562,4.562,0,0,0,1.68177,4.0624,1.92337,1.92337,0,0,0,1.99744.41032,1.803,1.803,0,0,0,.61853-.60332,3.62523,3.62523,0,0,0,.6282-1.91848,11.1041,11.1041,0,0,0-.2346-1.5897c-.0513-.4166-.295-.95489-.13387-1.35478C44.75809,49.04373,46.12275,49.307,45.58393,48.36347Z"/><path class="a8d2533d-7062-407a-ab4a-a0744e04268d" d="M45.46086,31.36973a24.81072,24.81072,0,0,1-3.85953-4.77225c-.83133-1.56708-1.02574-3.76962,1.1299-4.16768,1.62984-.30093,3.18562.71829,4.49928,1.72887a25.57017,25.57017,0,0,1,4.47578,3.94994,46.41766,46.41766,0,0,1,3.61838,4.94633c1.049,1.72209,3.02772,3.64882,2.64125,5.84179-.34254,1.94376-1.68372,3.55815-3.30519,5.08817-1.404,1.32484-3.14876,2.08839-4.56557,3.38021a11.83815,11.83815,0,0,1-3.008,1.808c-.812.406-1.38434,1.11084-2.31318.79339a6.23433,6.23433,0,0,1-2.09593-1.83857,2.041,2.041,0,0,1-.08619-.45572c-.12481-.65608-.8288-1.00469-1.448-1.25492.69543-1.1058,2.16468-.857,3.13865-1.58652,1.99565-1.49481,3.80787-3.34093,5.683-4.986.96248-.84442,1.47-.83361,1.02847-2.02862-.23678-.64094-1.35662-1.468-1.81459-2.00855C47.93175,34.33475,46.77439,32.7866,45.46086,31.36973Z"/><path class="b7f60ac1-6567-4e9e-92ce-286ea34a1d35" d="M39.96448,21.94981a3.32985,3.32985,0,0,1,.46821-.51953,7.66772,7.66772,0,0,0-1.62721,2.66845.14818.14818,0,0,0,.00622.12751.23542.23542,0,0,0,.0898.06578,3.99831,3.99831,0,0,0,2.158.22027,3.84548,3.84548,0,0,0,.87493-.15519,3.1389,3.1389,0,0,0,1.17711-.86319,2.60843,2.60843,0,0,1,1.23935-.79829,1.09469,1.09469,0,0,1,.42106-.04262,2.52067,2.52067,0,0,1,.69228.21605,4.97145,4.97145,0,0,1,.50856.37472,1.04731,1.04731,0,0,0,.57457.23929c.12852.00366-.05236-.46617-.06667-.4942a1.86461,1.86461,0,0,0-.38471-.5849c-.16257-.14611-.32577-.289-.50113-.41992a5.99365,5.99365,0,0,0-1.19173-.69139,5.32346,5.32346,0,0,0-2.74488-.43134,2.2336,2.2336,0,0,0-.70079.18011,1.95759,1.95759,0,0,0-.46268.33525q-.17081.156-.32873.32072c-.01557.01624-.03056.04038-.01163.0567s.04594-.02358.01977-.02031"/><path class="b9344f56-c6e4-4fba-9bb8-cc91508f69ab" d="M42.89758,22.57235a3.64092,3.64092,0,0,1-1.44287-.2752.79729.79729,0,0,1-.424-.35734.39372.39372,0,0,1-.00121-.27882.86916.86916,0,0,1,.57014-.48333,2.48569,2.48569,0,0,1,.87088-.0984,8.94706,8.94706,0,0,1,1.38675.18726,3.67587,3.67587,0,0,1,2.57152,1.82458c.01534.03422.02726.07711-.00522.09932a7.2295,7.2295,0,0,0-1.3428-.748,2.06172,2.06172,0,0,0-.99278.04691A6.81459,6.81459,0,0,1,42.89758,22.57235Z"/><path class="fda74ceb-4d49-44c2-b852-b78f46a73160" d="M43.05037,23.06827a2.60842,2.60842,0,0,0-1.23328,1.47889.55263.55263,0,0,0,.28493-.12442c.71627-.52049,1.16577-1.29213,2.06465-1.607a1.29109,1.29109,0,0,1,1.23942.14555c.20994.14957.45234.23758.65365.3972a.29579.29579,0,0,0,.194.09265.06247.06247,0,0,0,.04632-.02191c.0213-.02975-.00486-.06964-.03-.09623a2.45288,2.45288,0,0,0-1.02939-.75943,2.51118,2.51118,0,0,0-1.09675.06137A3.99624,3.99624,0,0,0,43.05037,23.06827Z"/><path class="a8d2533d-7062-407a-ab4a-a0744e04268d" d="M44.62074,24.11311a.54212.54212,0,0,0,.1748.004c.13812-.02812.18864-.15485.21985-.265a.86577.86577,0,0,0,.01828-.61525c-.14532-.31086-.58322-.47426-.97679-.58989-1.139-.33464-4.95554-1.44612-5.58273-.10679-.44856.95787,1.50823.96534,2.19215,1.05492Z"/><path class="adfd69d5-3b94-492a-a120-a98c874c6145" d="M42.717,23.83465a1.42393,1.42393,0,0,0,.84286.01341,1.24181,1.24181,0,0,0,.84169-.47709,1.16007,1.16007,0,0,0,.09794-.378.06984.06984,0,0,1,.03176-.05745c.04111-.02081.09573.01457.12985.04647a1.71667,1.71667,0,0,1,.28909.32114.4411.4411,0,0,1,.06984.37113.563.563,0,0,1-.41755.306,2.43428,2.43428,0,0,1-.60591.04262l-.8345-.01035a.14635.14635,0,0,1-.07347-.01386c-.02084-.01266-.02708-.04168-.00521-.05021"/></svg>