<svg id="ae5ee59e-55b9-4e1a-878c-f4e705eb057e" data-name="Layer 1" xmlns="http://www.w3.org/2000/svg" xmlns:xlink="http://www.w3.org/1999/xlink" viewBox="0 0 74.05328 124.29269"
preserveAspectRatio="none" ><defs><style>.b16425e9-08cc-4018-b259-429b3553adb2{fill:none;}.f30dbb6b-84dc-409a-af18-ab0da8151416{fill:#414042;opacity:0.48;}.aa339a8d-d128-4e22-9c43-a74ce96f2fc2{fill:#f6d2ba;}.f7504368-2b10-4a6b-9ccf-32cd79be6fb7{fill:#566345;}.a619174b-420d-47ed-a64c-4677509856d0{clip-path:url(#ea34fbb8-d890-4be4-839c-11290e449204);}.e2d0b77d-5bfd-49d7-b003-36d769a29176{fill:#4c5939;}.b70eff71-1e78-45ed-93a7-2d2ab626c6f8{fill:#1a242d;}.aca853a1-a2b5-4af2-a09f-ebbcb967f749{clip-path:url(#f87486e3-a146-4863-8fb1-258827e48666);}.ff22aff1-c43c-4ae8-a48d-087234a0ad4f{fill:#e0bba6;}.ac045c8b-51fb-4de0-ad4e-48873f7b5054{fill:#fff;}.abaa161f-2781-474d-8631-4236480f94dc{fill:#63774e;}.a6b25705-f791-431c-b152-d2438093d76d{clip-path:url(#bc310e60-44c2-438f-bf4e-f642d66958e8);}.a737e4be-517a-4591-ae65-5bc1435ad94a{fill:#6f825a;}.a592813f-0377-4414-aca1-e1f89d8c0574{fill:#938c6c;}.f2b33c7a-fcc3-49fd-a203-60d5c421f283{clip-path:url(#b2fb2068-eb5c-4303-b004-aa1168e57fc1);}.ae4f3006-f9c0-4ae3-96ca-deb3d1f7208a{fill:#3c2415;}.b320dd93-f309-457f-8508-c007eb3c8999{clip-path:url(#a4f9d122-1256-4dc3-84d4-cdf63057f4a6);}.b713614f-7832-44db-a48e-5c4f39dfb090{fill:#281910;}.a678a477-8260-4cbb-a5d5-d2f466d26c4a{fill:#754c29;}.e845abb6-bb1c-4b86-b757-e26a1bd31670{fill:#603913;}.b7d45bb1-4890-40eb-8541-8ae83aa6167e{fill:#231f20;}.b118a6ec-ebb5-4f50-b3ea-0c3e2061e447{clip-path:url(#f0dc1eda-ab29-45f9-851c-849c58485859);}.f5cd34eb-e63d-4fa0-a548-5d91fc232f53{clip-path:url(#bb8aaefc-0302-4614-8941-cfa0ce7ae815);}.a30b3164-af7e-4b37-a931-f1d80031d584{fill:#758c58;}.bda34235-aeda-48f4-ab6b-aaf936c02fa3{fill:#81975e;}.b04b771e-96fa-4435-9ff1-c22be3400208{fill:#424143;}</style><clipPath id="ea34fbb8-d890-4be4-839c-11290e449204"><path class="b16425e9-08cc-4018-b259-429b3553adb2" d="M45.579,31.14221a24.91487,24.91487,0,0,1-4.56438-4.14169c-1.06611-1.42712-1.598-3.58285.47985-4.3096,1.571-.54945,3.27174.22252,4.73085,1.02318A25.67778,25.67778,0,0,1,51.27465,26.945a46.6104,46.6104,0,0,1,4.35185,4.35154c1.306,1.54745,3.566,3.15489,3.52,5.39051-.04078,1.98158-1.12322,3.79-2.49679,5.55781-1.18938,1.53076-2.80322,2.557-4.01033,4.05688-1.34354,1.66943-2.95634,2.22051-4.49723,3.56559-.63027.55019-.96091,1.391-1.53174,1.95592.59735-.65215-3.16611-4.7181-3.676-5.15843,1.29565-.73516,2.42611-.837,3.54657-1.98315,1.75041-1.79053,3.26469-3.9015,4.87235-5.82267.82515-.98607,1.33039-1.05344.70839-2.17134-.33361-.59958-1.57214-1.24792-2.10979-1.71389C48.48724,33.70423,47.1005,32.34606,45.579,31.14221Z"/></clipPath><clipPath id="f87486e3-a146-4863-8fb1-258827e48666"><path class="b16425e9-08cc-4018-b259-429b3553adb2" d="M43.55986,24.48848a2.04874,2.04874,0,0,1-1.3352-2.14488,13.25226,13.25226,0,0,1,.23339-2.63552c.21618-1.21121,1.407-1.1943,2.02791-2.12122.31811-.4749.69524-.90819,1.01119-1.38454a17.16975,17.16975,0,0,0,1.56576-4.20686,7.10994,7.10994,0,0,0-.12864-3.77923A7.4174,7.4174,0,0,0,45.033,4.415,7.41721,7.41721,0,0,0,42.1532,2.791a9.40951,9.40951,0,0,0-5.91128-.16946c-3.70065,1.2454-4.76713,4.11592-5.19387,7.397-.09689.74494-.16081,1.51105-.21508,2.2841a14.172,14.172,0,0,0,.272,5.20747,4.96081,4.96081,0,0,0,2.01166,2.7494c1.08453.69058,2.12166.57776,3.32737.72077.31963.038.62781.11438.95486.14386-.09573.44161-.02965.89735-.14366,1.32788-.11193.42266-.2551.84389-.40173,1.25656a18.109,18.109,0,0,0-.65975,1.79286,5.97851,5.97851,0,0,0,.16422,2.5271c.24869,1.13959,1.29433,1.726,1.74667,2.7279a19.91455,19.91455,0,0,0,1.2397,2.768.69762.69762,0,0,0,.32184.31614.643.643,0,0,0,.41635-.03759,5.1232,5.1232,0,0,0,1.99578-1.441c1.03-1.11,2.34522-2.68556,2.54757-4.23774.11785-.904-.39029-1.35756-.55158-2.13239-.07888-.379.19847-1.17657-.20186-1.41353A1.14708,1.14708,0,0,0,43.55986,24.48848Z"/></clipPath><clipPath id="bc310e60-44c2-438f-bf4e-f642d66958e8"><path class="b16425e9-08cc-4018-b259-429b3553adb2" d="M30.87307,29.81605A8.29245,8.29245,0,0,0,28.605,35.12254a7.57109,7.57109,0,0,0,.17988,2.32257c.18578.60532.55655,1.13671.72223,1.77542.5247,2.02279.13628,4.00075.13622,6.029-.00006,2.27371-.02382,4.54767-.10485,6.82007-.07531,2.112.10592,4.21808.17,6.33047-.01414-.46642,1.90649-.17026,2.13246-.14574a29.6926,29.6926,0,0,1,3.68024.9496c2.05283.49478,2.75335-.3376,4.47089-.95609.17358-.6566,4.17406-.34834,4.72605-.353.91056-.00777,1.06871-.01959,1.46661-.80742.43066-.85269.78986-1.75024,1.18282-2.62109a2.69132,2.69132,0,0,0,.18267-2.44748c-.62936-2.14079-1.1942-4.26664-1.79229-6.39572a8.25141,8.25141,0,0,1-.28541-2.97172,11.17482,11.17482,0,0,1,.57041-2.85528q.88221-2.315,1.98319-4.53856c.36547-.73805.80546-1.44831,1.15243-2.19354a12.24106,12.24106,0,0,0,.63044-2.00766c.61695-2.13355,1.14878-4.51213.04664-6.27235-.88207-1.40874-3.13954-1.6015-4.62569-2.16594-2.70883-1.02888-3.65686,1.89575-5.41361,3.49266-.4373.39752-.89229.77505-1.3471,1.15241-.52478.43543-3.11539,2.04086-3.06637,2.853a12.90182,12.90182,0,0,1,.1617-3.9074A11.84408,11.84408,0,0,1,37.385,22.35654c.05283-.07788-.733-.14883-.79893-.13908a3.63541,3.63541,0,0,0-.59176.17842,3.396,3.396,0,0,0-1.02941.58016,6.89555,6.89555,0,0,0-1.60348,2.08369C32.50661,26.60844,31.99255,28.42615,30.87307,29.81605Z"/></clipPath><clipPath id="b2fb2068-eb5c-4303-b004-aa1168e57fc1"><path class="b16425e9-08cc-4018-b259-429b3553adb2" d="M42.77436,54.72169c-.8718.6272,5.40136,7.39226,5.66942,8.49342.62872,2.58274-.368,6.32035-.73007,8.903a42.99556,42.99556,0,0,1-3.19032,12.12513c3.22968,3.41879,7.00259,6.192,9.905,9.973,3.22075,4.19558,5.59619,8.998,9.16419,12.93545.38056.42-2.87024,3.92366-3.38095,4.01-3.29912.55773-6.92436-6.1715-9.22658-7.96911a86.57544,86.57544,0,0,1-11.6483-10.46035A24.259,24.259,0,0,1,37.2017,90.0369c-3.81082-5.79865-2.15548-12.93065-2.783-19.41468a27.76977,27.76977,0,0,0-.7458-4.43216c-.30567-1.15575-1.72418-2.88459-1.83764-3.80674-.32352-2.62935,2.63688-2.80231,4.582-3.55367C38.77588,57.91829,40.74376,56.18256,42.77436,54.72169Z"/></clipPath><clipPath id="a4f9d122-1256-4dc3-84d4-cdf63057f4a6"><path class="b16425e9-08cc-4018-b259-429b3553adb2" d="M53.05885,1.95372a4.46353,4.46353,0,0,1,3.92106,3.0545A33.18648,33.18648,0,0,1,58.738,11.5663a24.8384,24.8384,0,0,0,.905,3.71327,7.46622,7.46622,0,0,0,.853,1.68336c.245.35152,1.51525,1.17672.95722,1.6711-.60161.53266-1.87906.34813-2.591.2039a13.82275,13.82275,0,0,1-1.51107-.39629c-.37464-.12124-.99612-.52562-1.38833-.4773-.73337.09035-.65933,1.1585-1.60675.77049a7.408,7.408,0,0,1-4.63052-6.64529,3.08325,3.08325,0,0,0-.41313-1.61537c-.348-.4754-.926-.71076-1.3-1.165.4305-.18247-.28576-1.79835-.37883-2.24778a3.94545,3.94545,0,0,1,.18141-2.61329C48.68591,2.73151,50.99678,1.80185,53.05885,1.95372Z"/></clipPath><clipPath id="f0dc1eda-ab29-45f9-851c-849c58485859"><path class="b16425e9-08cc-4018-b259-429b3553adb2" d="M40.61849,18.9106a5.29689,5.29689,0,0,1-1.72049-2.232c-.286-.84789-.20481-2.32136.595-2.88091a2.83536,2.83536,0,0,0,1.2354-1.70308,1.04038,1.04038,0,0,0-.60812-1.20375c-.72424-.20863-1.15657.49322-1.664.83573-1.17135.7906-1.67667-.60051-2.338-1.21718a3.30144,3.30144,0,0,0-.79743-.49915c-.68356-.34188-1.39845-.62547-2.09927-.92941a5.383,5.383,0,0,0-1.02207-.46432.74542.74542,0,0,0-.49459.11291c-.0791.0475-.35992.42726-.40249.42656-.39579-.00647-.37381-1.67181-.36473-1.96741a6.28709,6.28709,0,0,1,.39178-2.025,4.72616,4.72616,0,0,1,2.80529-2.84015c.98611-.34943,3.3996.15365,4.386-.23848,1.97128-.78365,5.12906.20695,6.72713,1.50385,2.49947,2.02844,3.232,5.3501,3.01352,8.4266A10.39021,10.39021,0,0,1,47.289,16.055a6.64715,6.64715,0,0,1-3.25277,2.56907c-.43789.1579-.9007.24882-1.32138.44808a3.18184,3.18184,0,0,1-.81476.34634,1.36519,1.36519,0,0,1-1.01171-.29712Q40.754,19.02078,40.61849,18.9106Z"/></clipPath><clipPath id="bb8aaefc-0302-4614-8941-cfa0ce7ae815"><path class="b16425e9-08cc-4018-b259-429b3553adb2" d="M49.93547,58.74586a16.295,16.295,0,0,0-.503-2.85,9.9595,9.9595,0,0,0-.7712-2.05357,8.62469,8.62469,0,0,0-.77052-1.15086.403.403,0,0,0-.40288-.189,6.4321,6.4321,0,0,1-.65326.011c-.2133-.02408-.43039-.077-.64745-.09951a9.61835,9.61835,0,0,0-2.78155.2515c-2.929.64519-5.55006,2.03164-8.392,2.84847-4.49531,1.292-8.38255,4.0381-12.33355,6.42622l-3.766,2.27629c-3.95131,2.38827-6.13921,5.83485-4.87057,10.43148.97722,3.54074,1.9215,7.19615,4.259,10.06886l5.31075,6.52662,2.65538,3.26331c.4412.54222.878,1.08839,1.324,1.62666.04818.05816.90815.9717.65732.99777a4.97417,4.97417,0,0,0,1.75833-.65789c.91821-.4839,3.06783-1.141,2.61121-2.48057a81.84267,81.84267,0,0,0-9.9091-19.78451c1.64071-.81023,3.42262-.68429,5.18341-.96506a47.6817,47.6817,0,0,0,5.59726-1.24743,52.30364,52.30364,0,0,0,10.59264-4.35013C47.47038,65.803,50.38847,62.88933,49.93547,58.74586Z"/></clipPath></defs><ellipse class="f30dbb6b-84dc-409a-af18-ab0da8151416" cx="37.02664" cy="112.43515" rx="6.93804" ry="38.25379" transform="translate(-81.13752 119.49677) rotate(-75.19248)"/><path class="aa339a8d-d128-4e22-9c43-a74ce96f2fc2" d="M7.53661,29.03967a3.89923,3.89923,0,0,1-2.01479-2.91876A1.80023,1.80023,0,0,1,7.02,24.27745a3.90886,3.90886,0,0,1,1.7821.06628,10.5852,10.5852,0,0,1,2.70346,1.46414c-.08654-.57445.12087-2.08821,1.15038-1.62639.18822.08443.21194.33619.21956.54234a5.57508,5.57508,0,0,0,.68535,2.47375,5.14485,5.14485,0,0,1,.06195,4.10057,1.28136,1.28136,0,0,1-.74063.90384c-.56684.16436-1.07179-.36013-1.48411-.7824C10.27957,30.27407,8.87468,29.82343,7.53661,29.03967Z"/><path class="aa339a8d-d128-4e22-9c43-a74ce96f2fc2" d="M45.47,47.12476c-1.54-.40246-2.71506.44868-4.32636.92108-1.27808.3746-2.50085,1.07585-.5963,1.60934-.02179-.00612-1.04288.89175-1.21152.98844-.51971.298-1.13226.42951-1.48887.95175a1.68912,1.68912,0,0,0-.00307,1.83735,2.31656,2.31656,0,0,0,2.53422,1.0112c1.58632-.43724,8.55225-4.17045,6.6526-6.45555a2.06559,2.06559,0,0,0-.58652-.45865A4.08205,4.08205,0,0,0,45.47,47.12476Z"/><path class="f7504368-2b10-4a6b-9ccf-32cd79be6fb7" d="M29.5324,28.57937A24.91449,24.91449,0,0,1,33.283,23.68856c1.33421-1.18034,3.43865-1.88843,4.33451.12231.67731,1.52029.04843,3.27894-.629,4.79918a25.67766,25.67766,0,0,1-2.80282,5.2989,46.61164,46.61164,0,0,1-3.9773,4.69635c-1.43432,1.42928-2.84962,3.81441-5.08141,3.95317-1.97817.123-3.8698-.8064-5.745-2.0293-2.56322-1.67157-4.56831-4.06607-6.71968-6.14412a14.36774,14.36774,0,0,1-1.90589-2.61724c-.5933-.914-.3561-1.03382.38725-1.72125a20.47668,20.47668,0,0,0,2.70084-2.82078c.83964,1.23051,1.0345,2.3487,2.26925,3.37068,1.929,1.59657,4.15779,2.93135,6.20515,4.37486,1.05085.7409,1.15971,1.23886,2.22243.52666.57-.382,1.11382-1.66982,1.5338-2.24411C27.21931,31.68926,28.45831,30.19509,29.5324,28.57937Z"/><g class="a619174b-420d-47ed-a64c-4677509856d0"><path class="e2d0b77d-5bfd-49d7-b003-36d769a29176" d="M22.31889,33.75587a2.45219,2.45219,0,0,1,.12762-.98182,6.59116,6.59116,0,0,1,1.49385-3.13417c1.09873-1.06006,2.69834-1.13957,4.07284-1.56655a6.894,6.894,0,0,1,4.5889-.11581A4.63279,4.63279,0,0,1,34.027,29.02081a4.38673,4.38673,0,0,1,1.22514,2.75177c.03265,1.26442-.96139,1.6786-1.95877,2.21466a14.57154,14.57154,0,0,1-3.231,1.2635C28.23729,35.725,22.75725,36.79461,22.31889,33.75587Z"/></g><path class="b70eff71-1e78-45ed-93a7-2d2ab626c6f8" d="M60.89184,109.3713a4.17463,4.17463,0,0,1,2.1134-1.39118,3.30943,3.30943,0,0,1,2.84779,1.16146,2.01958,2.01958,0,0,1,.67628,1.03148,2.59482,2.59482,0,0,1-.11085,1.18675,11.69293,11.69293,0,0,1-2.87537,5.01036,6.36841,6.36841,0,0,1-3.20429,1.96221,2.53444,2.53444,0,0,1-2.928-1.32444c-.4428-1.1799.25562-2.59131.93057-3.80363a5.60215,5.60215,0,0,0,.86846-1.8536,2.02031,2.02031,0,0,1,.09-.462c.10873-.27712.51311-.44069.72922-.64782C60.32368,109.95853,60.59767,109.65447,60.89184,109.3713Z"/><path class="b70eff71-1e78-45ed-93a7-2d2ab626c6f8" d="M30.36238,95.529a4.37636,4.37636,0,0,1,2.49119-.72062,3.27136,3.27136,0,0,1,2.39452,1.94981,1.97693,1.97693,0,0,1,.32911,1.19,2.64657,2.64657,0,0,1-.4837,1.10932,12.23368,12.23368,0,0,1-4.37756,3.97972,6.66964,6.66964,0,0,1-3.73047.9511,2.50518,2.50518,0,0,1-2.42062-2.13c-.05557-1.26456,1.06934-2.41825,2.10838-3.38727a5.842,5.842,0,0,0,1.43005-1.5294,2.07644,2.07644,0,0,1,.2338-.41818c.19332-.23482.63746-.274.91277-.41008C29.62507,95.9279,29.98724,95.71547,30.36238,95.529Z"/><path class="f7504368-2b10-4a6b-9ccf-32cd79be6fb7" d="M42.77436,54.72169c-.8718.6272,5.40136,7.39226,5.66942,8.49342.62872,2.58274-.368,6.32035-.73007,8.903a42.99556,42.99556,0,0,1-3.19032,12.12513c3.22968,3.41879,7.00259,6.192,9.905,9.973,3.22075,4.19558,5.59619,8.998,9.16419,12.93545.38056.42-2.87024,3.92366-3.38095,4.01-3.29912.55773-6.92436-6.1715-9.22658-7.96911a86.57544,86.57544,0,0,1-11.6483-10.46035A24.259,24.259,0,0,1,37.2017,90.0369c-3.81082-5.79865-2.15548-12.93065-2.783-19.41468a27.76977,27.76977,0,0,0-.7458-4.43216c-.30567-1.15575-1.72418-2.88459-1.83764-3.80674-.32352-2.62935,2.63688-2.80231,4.582-3.55367C38.77588,57.91829,40.74376,56.18256,42.77436,54.72169Z"/><path class="aa339a8d-d128-4e22-9c43-a74ce96f2fc2" d="M43.55986,24.48848a2.04874,2.04874,0,0,1-1.3352-2.14488,13.25226,13.25226,0,0,1,.23339-2.63552c.21618-1.21121,1.407-1.1943,2.02791-2.12122.31811-.4749.69524-.90819,1.01119-1.38454a17.16975,17.16975,0,0,0,1.56576-4.20686,7.10994,7.10994,0,0,0-.12864-3.77923A7.4174,7.4174,0,0,0,45.033,4.415,7.41721,7.41721,0,0,0,42.1532,2.791a9.40951,9.40951,0,0,0-5.91128-.16946c-3.70065,1.2454-4.76713,4.11592-5.19387,7.397-.09689.74494-.16081,1.51105-.21508,2.2841a14.172,14.172,0,0,0,.272,5.20747,4.96081,4.96081,0,0,0,2.01166,2.7494c1.08453.69058,2.12166.57776,3.32737.72077.31963.038.62781.11438.95486.14386-.09573.44161-.02965.89735-.14366,1.32788-.11193.42266-.2551.84389-.40173,1.25656a18.109,18.109,0,0,0-.65975,1.79286,5.97851,5.97851,0,0,0,.16422,2.5271c.24869,1.13959,1.29433,1.726,1.74667,2.7279a19.91455,19.91455,0,0,0,1.2397,2.768.69762.69762,0,0,0,.32184.31614.643.643,0,0,0,.41635-.03759,5.1232,5.1232,0,0,0,1.99578-1.441c1.03-1.11,2.34522-2.68556,2.54757-4.23774.11785-.904-.39029-1.35756-.55158-2.13239-.07888-.379.19847-1.17657-.20186-1.41353A1.14708,1.14708,0,0,0,43.55986,24.48848Z"/><g class="aca853a1-a2b5-4af2-a09f-ebbcb967f749"><path class="ff22aff1-c43c-4ae8-a48d-087234a0ad4f" d="M41.3376,19.02267a7.10307,7.10307,0,0,1-2.12432,3.2458,10.40817,10.40817,0,0,1-1.34168.86308c-.206.11591-.86226.30474-.93.56021a7.2117,7.2117,0,0,0,.18173-.784c-.03771-.11433-.39324.11594-.50489.0686a1.68761,1.68761,0,0,1-.67665-.673c-.14872-.21937-.60429-.768-.42656-1.05935.18363-.3008,1.58944-.38172,1.9553-.48432A14.2742,14.2742,0,0,0,41.3376,19.02267Z"/><path class="ff22aff1-c43c-4ae8-a48d-087234a0ad4f" d="M34.27783,9.56831c.13961-.00547.31969-.04425.33686-.18292a.27708.27708,0,0,0-.07272-.18945,3.15134,3.15134,0,0,0-1.47692-.95461,1.69484,1.69484,0,0,0-1.59155-.01194,1.61135,1.61135,0,0,0-.48672.79011,2.25875,2.25875,0,0,0-.129,1.66393,3.405,3.405,0,0,1,1.50293-.87716A9.12074,9.12074,0,0,1,34.27783,9.56831Z"/></g><path class="ac045c8b-51fb-4de0-ad4e-48873f7b5054" d="M35.20389,24.89726a4.97826,4.97826,0,0,1,.97658-1.47587,3.62906,3.62906,0,0,0,.39461-.42c.071-.09413.527-.46243.53759-.51943a3.31046,3.31046,0,0,0,.04707,1.7117,2.26881,2.26881,0,0,0,.4004,1.00028c.53914.48544,1.51615.15822,2.06878-.10154,1.025-.4818,2.11275-1.53436,3.15539-1.85876.68013-.21162.62144-.40349.88552.4433.33623,1.07816-.17162,2.61117-.272,3.69819q-.17292,1.87347-.37586,3.744-.40023,3.70292-.89444,7.39482c-.32515,2.46285-.67286,4.92266-1.02826,7.38132-.09429.65232-.83622,7.31229-1.06923,7.328a29.43471,29.43471,0,0,1-9.98268-1.047q.31915-3.26274.76231-6.51177,1.16583-8.548,3.181-16.95123A20.49406,20.49406,0,0,1,35.20389,24.89726Z"/><path class="abaa161f-2781-474d-8631-4236480f94dc" d="M36.85543,23.18183c.1349-.22417.59372-.81036.25721-.98289-.27109-.139-.86588.11016-1.11834.19694a3.396,3.396,0,0,0-1.02941.58016,6.89555,6.89555,0,0,0-1.60348,2.08369c-.8548,1.54871-1.36886,3.36642-2.48834,4.75632A8.29245,8.29245,0,0,0,28.605,35.12254a7.57109,7.57109,0,0,0,.17988,2.32257c.18578.60532.55655,1.13671.72223,1.77543.30948,1.1931.34526,2.44072.56648,3.65256a22.32384,22.32384,0,0,1,.524,3.77739,12.7161,12.7161,0,0,1-.57824,3.33846c-.74258,2.828-.398,5.538-.31093,8.41108-.01414-.46642,1.90649-.17026,2.13246-.14574a29.6926,29.6926,0,0,1,3.68024.9496c2.05283.49478,2.75335-.3376,4.47089-.95609.17358-.6566,4.17406-.34834,4.72605-.353.91056-.00777,1.06871-.01959,1.46661-.80742.43066-.85269.78986-1.75024,1.18282-2.62109a2.69132,2.69132,0,0,0,.18267-2.44748c-.62936-2.14079-1.1942-4.26664-1.79229-6.39572a8.25141,8.25141,0,0,1-.28541-2.97172,11.17482,11.17482,0,0,1,.57041-2.85528q.88221-2.315,1.98319-4.53856c.36547-.73805.80546-1.44831,1.15243-2.19354a12.24106,12.24106,0,0,0,.63044-2.00766c.61695-2.13355,1.14878-4.51213.04664-6.27235-.88207-1.40874-3.13954-1.6015-4.62569-2.16594-2.70883-1.02888-3.65686,1.89575-5.41361,3.49266-.4373.39752-.89229.77505-1.3471,1.15241-.52478.43543-3.11539,2.04086-3.06637,2.853a12.90174,12.90174,0,0,1,.1617-3.90739,10.326,10.326,0,0,1,.73568-2.00876,12.41563,12.41563,0,0,0,.90425-1.8902"/><g class="a6b25705-f791-431c-b152-d2438093d76d"><path class="f7504368-2b10-4a6b-9ccf-32cd79be6fb7" d="M45.51632,34.73636c-.01983.30071-.04954.60294-.09165.90716a5.34762,5.34762,0,0,1-1.20023,2.69888c-1.10235,1.26107-3.20446,1.81485-4.80678,1.99214-.50024.05535-1.811-.12038-.99629.5548a7.55172,7.55172,0,0,0,2.93173,1.19383,10.7265,10.7265,0,0,0,4.17754.1814c1.44612-.288,1.31-1.70306,2.25637-2.65388,1.02353-1.02838,2.33955-1.64695,2.84373-3.11229.43832-1.27393.46289-2.57506.79018-3.85429.353-1.37953,1.91356-3.36311,1.00314-4.856-.55365-.90789-2.83493.09806-3.78028-.28447-.63824-.25861-.95586-.857-1.73569-.95253a1.39405,1.39405,0,0,0-.81106.11721c-.67706.35208-.74648,1.2738-.75085,2.03692C45.33436,30.74583,45.6502,32.70666,45.51632,34.73636Z"/></g><path class="a737e4be-517a-4591-ae65-5bc1435ad94a" d="M32.2649,51.00605c-.1547,1.39981-.1261,2.88671-.38642,4.2635a.35123.35123,0,0,1-.07283.18147.36178.36178,0,0,1-.21567.08764,2.21187,2.21187,0,0,1-.92862-.05976.26859.26859,0,0,1-.17288-.10671.253.253,0,0,1-.00283-.1787,70.4171,70.4171,0,0,0,1.33917-8.085c.3-2.56331-.10234-5.12961.0009-7.71429a17.38277,17.38277,0,0,1,.49257-3.79245,31.79836,31.79836,0,0,1,1.25392-3.9096c.36434-.88808,1.79987-2.845,1.37892-3.77386a2.59733,2.59733,0,0,1,.11819,2.41651,3.44357,3.44357,0,0,1,1.13789-.85748c.10876-.05076.25445-.08927.33512-.00041.09411.10367.00546.26548-.08031.37615a16.26,16.26,0,0,0-2.953,7.90464c-.259,1.98345-.32547,4.11638-.41259,6.13527C32.99458,46.25285,32.52471,48.65512,32.2649,51.00605Z"/><path class="a592813f-0377-4414-aca1-e1f89d8c0574" d="M47.7175,51.95745q.01779.09033.034.181a2.61069,2.61069,0,0,1,.02688,1.04091,2.00081,2.00081,0,0,1-.80588,1.12218,9.40457,9.40457,0,0,1-4.07817,1.30886c-1.19452.20274-2.40322.349-3.61916.4381A38.99538,38.99538,0,0,1,32.1254,55.915c-.77677-.08641-1.92139.03547-2.39613-.64517-.42841-.61422-.00432-2.88379.06925-3.62029a8.244,8.244,0,0,0,1.81568.76932,18.33129,18.33129,0,0,0,2.7324.36954,25.625,25.625,0,0,0,6.4109-.40116c1.03658-.1929,2.06214-.44148,3.07746-.72506a13.30951,13.30951,0,0,0,2.84437-1.426.46857.46857,0,0,1,.438-.07547.45288.45288,0,0,1,.17257.25841A10.44178,10.44178,0,0,1,47.7175,51.95745Z"/><g class="f2b33c7a-fcc3-49fd-a203-60d5c421f283"><path class="e2d0b77d-5bfd-49d7-b003-36d769a29176" d="M35.881,69.23145a3.96688,3.96688,0,0,0-1.806,1.47928,4.31735,4.31735,0,0,0-.36362,2.0437q-.03414,2.97248.02593,5.945c.00968.47907.08951,1.06311.53371,1.24278a1.24819,1.24819,0,0,0,1.106-.30441,42.9811,42.9811,0,0,0,10.0415-9.56477c.58767-.77637,3.87406-4.651,3.33771-5.568-.52172-.89192-4.65417,1.57395-5.538,1.90279A71.07,71.07,0,0,0,35.881,69.23145Z"/></g><path class="abaa161f-2781-474d-8631-4236480f94dc" d="M49.93547,58.74586a16.295,16.295,0,0,0-.503-2.85,9.9595,9.9595,0,0,0-.7712-2.05357,8.62469,8.62469,0,0,0-.77052-1.15086.403.403,0,0,0-.40288-.189,6.4321,6.4321,0,0,1-.65326.011c-.2133-.02408-.43039-.077-.64745-.09951a9.61835,9.61835,0,0,0-2.78155.2515c-2.929.64519-5.55006,2.03164-8.392,2.84847-4.49531,1.292-8.38255,4.0381-12.33355,6.42622l-3.766,2.27629c-3.95131,2.38827-6.13921,5.83485-4.87057,10.43148.97722,3.54074,1.9215,7.19615,4.259,10.06886l5.31075,6.52662,2.65538,3.26331c.4412.54222.878,1.08839,1.324,1.62666.04818.05816.90815.9717.65732.99777a4.97417,4.97417,0,0,0,1.75833-.65789c.91821-.4839,3.06783-1.141,2.61121-2.48057a81.84267,81.84267,0,0,0-9.9091-19.78451c1.64071-.81023,3.42262-.68429,5.18341-.96506a47.6817,47.6817,0,0,0,5.59726-1.24743,52.30364,52.30364,0,0,0,10.59264-4.35013C47.47038,65.803,50.38847,62.88933,49.93547,58.74586Z"/><path class="ff22aff1-c43c-4ae8-a48d-087234a0ad4f" d="M36.96425,11.141a.19644.19644,0,0,0-.06175.20085.65966.65966,0,0,0,.09632.1993c.18067.29418.23173.71236.49151.93321a.48646.48646,0,0,0,.60878-.0516,1.70912,1.70912,0,0,0,.43854-.59634c.105-.23918.03218-.38145-.1218-.58537a1.4934,1.4934,0,0,0-1.16511-.57786C37.10827,10.66587,37.00327,11.004,36.96425,11.141Z"/><path class="ff22aff1-c43c-4ae8-a48d-087234a0ad4f" d="M39.277,11.88748a.45046.45046,0,0,1,.33011-.22392.47789.47789,0,0,1,.511.099.35618.35618,0,0,1-.033.41039.94679.94679,0,0,1-.3555.254,2.249,2.249,0,0,0-.89449.59712c-.065.0892-.1075.22928-.0211.298a.18624.18624,0,0,0,.18129.01129c.22209-.0868.28479-.33843.40243-.52064.14407-.22313.38911-.31623.54358-.54181"/><path class="b16425e9-08cc-4018-b259-429b3553adb2" d="M34.49156,2.0003a6.314,6.314,0,0,1,2.43268-.79774,8.93841,8.93841,0,0,1,3.00067-.11946c.76749.19047,1.58354.36214,2.34131.61363a8.45529,8.45529,0,0,1,4.28029,3.19093,4.44936,4.44936,0,0,1,.78427,1.44452,19.7559,19.7559,0,0,1,.52487,4.52991,8.90767,8.90767,0,0,1-.58834,2.76037,13.26763,13.26763,0,0,1-1.59672,3.58359c-.38312.54707-.85088,1.02433-1.28148,1.53272-.66787.78852-1.02046,2.35341-2.1601.9412a5.06728,5.06728,0,0,1-.5845-1.04175c-.31795-.66174-.63107-1.32734-1.01271-1.95559-.41317-.68015-.42051-.91392.26009-1.47813a2.94678,2.94678,0,0,0,1.0438-1.95976.96012.96012,0,0,0-.10273-.62c-.24654-.38007-.82807-.349-1.24484-.16635-2.03283.89076-.67955-.57212-2.05736-1.26962-.78211-.39593-1.919-.38312-2.76616-.70255a7.22373,7.22373,0,0,1-1.59347-.871A2.87034,2.87034,0,0,0,32.57654,9.059c-.42192-.03949-1.31133.74569-1.60174.45895a.57548.57548,0,0,1-.13609-.373,6.8373,6.8373,0,0,1,.46953-2.26056C31.87956,4.99515,32.71509,3.02373,34.49156,2.0003Z"/><path class="ae4f3006-f9c0-4ae3-96ca-deb3d1f7208a" d="M40.61849,18.9106a5.29689,5.29689,0,0,1-1.72049-2.232c-.286-.84789-.20481-2.32136.595-2.88091a2.83536,2.83536,0,0,0,1.2354-1.70308,1.04038,1.04038,0,0,0-.60812-1.20375c-.72424-.20863-1.15657.49322-1.664.83573-1.17135.7906-1.67667-.60051-2.338-1.21718a3.30144,3.30144,0,0,0-.79743-.49915c-.68356-.34188-1.39845-.62547-2.09927-.92941a5.383,5.383,0,0,0-1.02207-.46432.74542.74542,0,0,0-.49459.11291c-.0791.0475-.35992.42726-.40249.42656-.39579-.00647-.37381-1.67181-.36473-1.96741a6.28709,6.28709,0,0,1,.39178-2.025,4.72616,4.72616,0,0,1,2.80529-2.84015c.98611-.34943,3.3996.15365,4.386-.23848,1.97128-.78365,5.12906.20695,6.72713,1.50385,2.49947,2.02844,3.232,5.3501,3.01352,8.4266A10.39021,10.39021,0,0,1,47.289,16.055a6.64715,6.64715,0,0,1-3.25277,2.56907c-.43789.1579-.9007.24882-1.32138.44808a3.18184,3.18184,0,0,1-.81476.34634,1.36519,1.36519,0,0,1-1.01171-.29712Q40.754,19.02078,40.61849,18.9106Z"/><path class="ae4f3006-f9c0-4ae3-96ca-deb3d1f7208a" d="M53.05885,1.95372a4.46353,4.46353,0,0,1,3.92106,3.0545A33.18648,33.18648,0,0,1,58.738,11.5663a24.8384,24.8384,0,0,0,.905,3.71327,7.46622,7.46622,0,0,0,.853,1.68336c.245.35152,1.51525,1.17672.95722,1.6711-.60161.53266-1.87906.34813-2.591.2039a13.82275,13.82275,0,0,1-1.51107-.39629c-.37464-.12124-.99612-.52562-1.38833-.4773-.73337.09035-.65933,1.1585-1.60675.77049a7.408,7.408,0,0,1-4.63052-6.64529,3.08325,3.08325,0,0,0-.41313-1.61537c-.348-.4754-.926-.71076-1.3-1.165.4305-.18247-.28576-1.79835-.37883-2.24778a3.94545,3.94545,0,0,1,.18141-2.61329C48.68591,2.73151,50.99678,1.80185,53.05885,1.95372Z"/><g class="b320dd93-f309-457f-8508-c007eb3c8999"><path class="b713614f-7832-44db-a48e-5c4f39dfb090" d="M54.5704,9.90321a1.86876,1.86876,0,0,0-.52077-.607,1.38521,1.38521,0,0,0-1.70257.2719,2.45826,2.45826,0,0,0-.59046,1.72871A12.9004,12.9004,0,0,0,51.997,13.1525a7.94958,7.94958,0,0,0,.279,1.455,5.17648,5.17648,0,0,0,1.01317,1.59118A7.6048,7.6048,0,0,0,54.814,17.64211a7.21169,7.21169,0,0,0,1.68716.78438,5.43491,5.43491,0,0,0,3.694.21487,4.71174,4.71174,0,0,1-2.70356-1.74454,7.85245,7.85245,0,0,1-1.93533-5.24409,1.30706,1.30706,0,0,0-.4207-.8557A6.7242,6.7242,0,0,1,54.5704,9.90321Z"/></g><path class="a678a477-8260-4cbb-a5d5-d2f466d26c4a" d="M47.587,7.39a2.57533,2.57533,0,0,0,.77427,1.58516,4.31673,4.31673,0,0,1,1.33646,1.77051,6.8592,6.8592,0,0,0,2.11745,3.5389,7.48882,7.48882,0,0,0,3.91728,1.8,2.53544,2.53544,0,0,1-.55916-2.02006,9.4175,9.4175,0,0,1,.5578-1.59744,8.37129,8.37129,0,0,0,.00343-4.73058c-.4701-1.96954-1.95185-4.14912-3.951-4.78239a3.38828,3.38828,0,0,0-3.57221.88846A4.1287,4.1287,0,0,0,47.587,7.39Z"/><path class="e845abb6-bb1c-4b86-b757-e26a1bd31670" d="M49.714,5.50252A2.82391,2.82391,0,0,1,51.94755,6.888a17.32763,17.32763,0,0,1,.78335,2.29876,4.122,4.122,0,0,0,1.68886,1.98449,3.19478,3.19478,0,0,1-2.69083-.7691c-.5854-.53419-.98751-1.30171-1.71095-1.62526-.766-.34258-1.76068-.11729-2.39613-.66528C46.0929,6.793,48.5472,5.43071,49.714,5.50252Z"/><path class="b7d45bb1-4890-40eb-8541-8ae83aa6167e" d="M46.66748,5.70878a1.055,1.055,0,0,0-.07222.36631,6.13235,6.13235,0,0,0,.50026,2.84708,1.12566,1.12566,0,0,0,.44181.52779.47834.47834,0,0,0,.622-.12434.66.66,0,0,0,.02528-.47969,15.32943,15.32943,0,0,0-.49406-1.47507,2.9997,2.9997,0,0,1-.1737-1.52887c.05489-.27052.06867-.55027-.26712-.56447A.60284.60284,0,0,0,46.66748,5.70878Z"/><path class="b713614f-7832-44db-a48e-5c4f39dfb090" d="M46.88571,9.55814a2.44691,2.44691,0,0,1-.81347,2.12664,8.89978,8.89978,0,0,1-3.11783,1.71177,3.43738,3.43738,0,0,0-.73155.3763,2.497,2.497,0,0,0-.63323.73792,4.54781,4.54781,0,0,0-.639,2.03387,8.14069,8.14069,0,0,0,2.94177-.96993,8.77558,8.77558,0,0,0,1.79682-1.74142c.84353-1.09617,1.93786-3.07885,1.18346-4.23613"/><path class="a678a477-8260-4cbb-a5d5-d2f466d26c4a" d="M40.91439,6.0208a5.57967,5.57967,0,0,0-3.80265,1.67685,2.64907,2.64907,0,0,1-1.79682.89153c-.68478-.04536-1.4985-.44746-1.40618-1.18661a2.9782,2.9782,0,0,1,1.3356-2.00565,5.743,5.743,0,0,1,3.07936-.95708c2.5086-.07414,4.9443,1.24688,7.436.94714a3.02937,3.02937,0,0,1-1.343.39266A33.43881,33.43881,0,0,1,40.91439,6.0208Z"/><g class="b118a6ec-ebb5-4f50-b3ea-0c3e2061e447"><path class="e845abb6-bb1c-4b86-b757-e26a1bd31670" d="M44.73556,8.894c-1.94706.59135-6.52943-1.65586-7.23021,1.33331a.72207.72207,0,0,0,.07543.56231c.46953.70271,1.72324-.22,2.27692-.40059,1.90959-.62294,4.18641.28711,5.70945-1.353a3.75331,3.75331,0,0,0,1.06933-1.7835A3.62307,3.62307,0,0,1,44.73556,8.894Z"/><path class="b713614f-7832-44db-a48e-5c4f39dfb090" d="M43.4347,19.43434a3.71082,3.71082,0,0,1,.28218-1.898,4.47517,4.47517,0,0,1,1.08977-1.141A10.65828,10.65828,0,0,0,47.43742,12.935c-.09859.51942-.24109,1.02935-.38341,1.53853a10.21272,10.21272,0,0,1-.99618,2.61269c-.62186,1.01912-1.80991,1.43262-2.53129,2.37117"/><path class="a678a477-8260-4cbb-a5d5-d2f466d26c4a" d="M31.15392,2.12331A7.0808,7.0808,0,0,1,32.981,1.09361,12.77449,12.77449,0,0,1,36.2346.07211,10.277,10.277,0,0,1,42.093,1.239a8.32118,8.32118,0,0,1,4.07742,3.73823,11.73158,11.73158,0,0,0-3.487-1.95224,7.4725,7.4725,0,0,0-3.95794-.27153c-.45095.10007-.89192.25007-1.35017.30826a8.80412,8.80412,0,0,1-1.29366.01831,4.29336,4.29336,0,0,0-2.89806.74557c-.73236.61769-.86385,1.59761-1.65945,2.1618a1.35292,1.35292,0,0,1-1.30411.15657c-.40757-.23852-.43735-.98462-.50439-1.43658C29.581,3.79947,30.50966,2.67061,31.15392,2.12331Z"/></g><path class="a737e4be-517a-4591-ae65-5bc1435ad94a" d="M34.66093,60.1921a3.994,3.994,0,0,1-.08469-.49277c-.13922-1.08929-.53055-3.10172.45773-3.78654.92419-.64041,2.85512-.93824,3.96155-1.30218,2.36809-.77892,5.07412-1.98966,7.507-.75878a5.03745,5.03745,0,0,1,2.48148,6.1074c-.52486,1.53018-1.514,3.096-3.22074,3.3784-2.11226.34952-4.50182-.77207-6.5604-1.11923-1.378-.23238-3.90225-.2351-4.49307-1.8673C34.69083,60.29886,34.67479,60.24578,34.66093,60.1921Z"/><g class="f5cd34eb-e63d-4fa0-a548-5d91fc232f53"><path class="f7504368-2b10-4a6b-9ccf-32cd79be6fb7" d="M28.96733,80.465a36.1166,36.1166,0,0,0-1.98283-4.07587,10.16706,10.16706,0,0,0-1.29574-1.86221c.1555-.42322-1.45342-.40615-1.59713-.3963a16.7044,16.7044,0,0,1-3.342-.14871.17916.17916,0,0,0-.16438.03278.16649.16649,0,0,0-.011.1517,1.20146,1.20146,0,0,0,.33427.55113c.94408.88363,1.72237,2.04933,2.62206,3.02488.95752,1.03826,1.93485,2.05967,2.83735,3.147,1.27288,1.53362,2.32855,3.28383,3.62873,4.77784a1.1667,1.1667,0,0,0,.32322-1.24471A18.95185,18.95185,0,0,0,28.96733,80.465Z"/></g><path class="aa339a8d-d128-4e22-9c43-a74ce96f2fc2" d="M50.20674,47.932a4.08191,4.08191,0,0,0-.6288-.84708A4.92759,4.92759,0,0,0,47.51558,46.069c-.68522-.26351-1.18624-.52733-1.91887-.13071a3.37583,3.37583,0,0,0-1.29536,1.46918,7.52621,7.52621,0,0,0-.66879,1.82482,1.45035,1.45035,0,0,0-.01422.79315.56976.56976,0,0,0,.61374.40257,4.81392,4.81392,0,0,0,1.77463,4.28672,2.02958,2.02958,0,0,0,2.10773.433,1.9024,1.9024,0,0,0,.65269-.63664A3.82536,3.82536,0,0,0,49.43,52.48669a11.71662,11.71662,0,0,0-.24756-1.67748c-.05412-.4396-.3113-1.00761-.14125-1.42958C49.33531,48.64985,50.77532,48.92761,50.20674,47.932Z"/><path class="a737e4be-517a-4591-ae65-5bc1435ad94a" d="M53.59261,47.787c-1.30221.93674-2.97407,1.0935-4.33826,2.01027a.51154.51154,0,0,1-.41046.12916.42584.42584,0,0,1-.189-.145c-.27251-.32315-.355-.69744-.63231-1.0186a9.81722,9.81722,0,0,1-2.18824-2.77568.45457.45457,0,0,1-.02522-.3296c.212-.488,1.669-.79048,2.12574-.99794a15.68592,15.68592,0,0,0,2.37741-1.5062c1.3548-.93953,2.66332-1.94389,4.01982-2.881,2.34583-1.62063.11148-2.78888-1.26018-4.2933-2.26489-2.4841-4.875-4.43334-6.931-7.17355-1.16123-1.54772-1.73292-5.14009.99116-5.32265,2.76791-.18522,5.27542,2.487,7.0207,4.29564,2.09705,2.17321,4.72951,3.65656,6.31165,6.33747,1.005,1.70289,2.57626,4.07277,1.96042,6.136-.56693,1.89918-2.09182,3.35409-3.88651,4.69236C56.98434,46.10324,55.15552,46.66269,53.59261,47.787Z"/><path class="a30b3164-af7e-4b37-a931-f1d80031d584" d="M44.1485,23.1082a3.33035,3.33035,0,0,1,.46821-.51953,7.66784,7.66784,0,0,0-1.6272,2.66845.14815.14815,0,0,0,.00621.12751.23558.23558,0,0,0,.0898.06578,3.99832,3.99832,0,0,0,2.158.22027,3.84566,3.84566,0,0,0,.87494-.15519,3.13878,3.13878,0,0,0,1.1771-.86319A2.60853,2.60853,0,0,1,48.5349,23.854a1.09475,1.09475,0,0,1,.42107-.04262,2.52077,2.52077,0,0,1,.69228.216,4.97145,4.97145,0,0,1,.50856.37472,1.04731,1.04731,0,0,0,.57457.23929c.12852.00366-.05236-.46617-.06667-.4942a1.86478,1.86478,0,0,0-.38471-.5849c-.16257-.14611-.32577-.289-.50114-.41992a5.99329,5.99329,0,0,0-1.19172-.69139,5.32358,5.32358,0,0,0-2.74488-.43135,2.23374,2.23374,0,0,0-.70079.18012,1.95739,1.95739,0,0,0-.46268.33525q-.1708.156-.32873.32072c-.01558.01624-.03057.04038-.01164.0567s.04594-.02358.01978-.02031"/><path class="bda34235-aeda-48f4-ab6b-aaf936c02fa3" d="M47.08161,23.73074a3.64088,3.64088,0,0,1-1.44287-.2752.79735.79735,0,0,1-.424-.35734.39367.39367,0,0,1-.0012-.27882.86916.86916,0,0,1,.57014-.48333,2.48566,2.48566,0,0,1,.87087-.0984,8.94719,8.94719,0,0,1,1.38676.18726,3.67585,3.67585,0,0,1,2.57152,1.82458c.01534.03422.02726.07711-.00522.09932a7.22959,7.22959,0,0,0-1.34281-.748,2.06173,2.06173,0,0,0-.99278.04691A6.81455,6.81455,0,0,1,47.08161,23.73074Z"/><path class="b04b771e-96fa-4435-9ff1-c22be3400208" d="M47.23439,24.22666a2.60844,2.60844,0,0,0-1.23327,1.47889.55263.55263,0,0,0,.28493-.12442c.71627-.52049,1.16577-1.29213,2.06465-1.607a1.29107,1.29107,0,0,1,1.23941.14555c.20995.14956.45235.23758.65366.3972a.29579.29579,0,0,0,.194.09265.06244.06244,0,0,0,.04631-.02191c.02131-.02975-.00485-.06964-.03-.09623A2.45294,2.45294,0,0,0,49.4247,23.732a2.51118,2.51118,0,0,0-1.09675.06137A3.99643,3.99643,0,0,0,47.23439,24.22666Z"/><path class="a737e4be-517a-4591-ae65-5bc1435ad94a" d="M48.80477,25.2715a.54211.54211,0,0,0,.1748.004c.13811-.02812.18864-.15485.21985-.265a.86583.86583,0,0,0,.01828-.61525c-.14533-.31087-.58323-.47426-.97679-.58989-1.139-.33464-4.95554-1.44612-5.58273-.10679-.44857.95787,1.50822.96534,2.19215,1.05492Z"/><path class="abaa161f-2781-474d-8631-4236480f94dc" d="M46.90107,24.993a1.4239,1.4239,0,0,0,.84285.01341,1.24179,1.24179,0,0,0,.84169-.47709,1.15957,1.15957,0,0,0,.09794-.37805.06982.06982,0,0,1,.03177-.05745c.0411-.02081.09573.01457.12985.04647a1.717,1.717,0,0,1,.28909.32114.44106.44106,0,0,1,.06983.37113.563.563,0,0,1-.41755.306,2.43421,2.43421,0,0,1-.60591.04261l-.83449-.01034a.14651.14651,0,0,1-.07348-.01386c-.02083-.01266-.02708-.04168-.00521-.05021"/></svg>