<svg id="ba7261bd-0d76-4ff5-b6a3-26fb5d35cdb2" data-name="Layer 1" xmlns="http://www.w3.org/2000/svg" xmlns:xlink="http://www.w3.org/1999/xlink" viewBox="0 0 62.78755 105.38403" 
preserveAspectRatio="none" ><defs><style>.bb7099b8-98e3-45de-b0f7-224b4c7a9176{fill:none;}.faa52105-391a-4ddf-a94a-5539abe916d6{fill:#cc4031;}.a8be5df0-226a-4779-9f78-a7826b723ea7{fill:#414042;opacity:0.48;}.ac299e92-e437-4b76-baf8-5d821de9a07a{fill:#f6d2ba;}.a81104f6-4e0b-425d-a94e-9acfc237be7c{fill:#566345;}.a6e20628-5b6f-487c-be0b-6e031a0462c1{clip-path:url(#b4f620e5-6c78-4832-b609-92cd9d923eaa);}.bce89c67-5876-4c31-ae66-68ca61553b62{fill:#4c5939;}.a52f1a1f-e682-429b-ae39-c23ac398e95b{fill:#1a242d;}.b2f2bfa6-b7d0-4866-a357-1f72c12162a1{clip-path:url(#a136a037-8f22-47c1-93b2-f87e46a645de);}.aea86d77-342a-4067-9704-19a55d662368{fill:#e0bba6;}.a31de975-9e96-4a08-a659-1713f29ec318{fill:#fff;}.fef5abe2-6b71-4496-a256-8fd352d56427{fill:#63774e;}.b959c548-9523-4e29-991f-a769a3da942f{clip-path:url(#f78895a9-1280-430a-9928-d06b4b102c60);}.eeee5481-4d52-47f5-bb41-20568a29413f{fill:#6f825a;}.b5533a84-9a02-42ec-820d-25e195a150ea{fill:#938c6c;}.bce82e2e-7717-448c-9fc3-3222b6dea3f9{clip-path:url(#a606b0a6-290f-4448-85e3-53b256fbb11d);}.bdd38a6e-5392-4b31-a5ec-3adcd137c4a7{fill:#3c2415;}.b40cdd28-e1a4-447f-9a84-5bb50c76ef67{clip-path:url(#a30f19ce-3cab-43de-a2aa-b6d462926464);}.a58ebbdf-11ff-4e8b-9064-5c1371a2e724{fill:#a94439;}.b078c675-b4c7-4a90-85a0-44491bce00a5{fill:#f37764;}.bc76c887-e4c5-4621-8458-5035af05be75{fill:#e45d32;}.a0ce1d01-19f4-4705-a68b-28c4ad18c238{fill:#231f20;}.b5f38747-21f2-445c-9885-965d8d3a90fb{clip-path:url(#a19e2a14-236b-4e4e-b314-0c65d6cb0e1a);}.b081866f-6f35-4616-a29d-21df3729e131{clip-path:url(#bdbd953c-081c-44b3-b0dc-4e1201f01794);}.ebfa8979-091b-49cd-b31f-a966d06c0256{fill:#758c58;}.eba38776-ccba-4a60-8e78-8287ab6c9841{fill:#81975e;}.b4ed0877-f17e-447e-9816-7dd9fc0a1a23{fill:#424143;}</style><clipPath id="b4f620e5-6c78-4832-b609-92cd9d923eaa"><path class="bb7099b8-98e3-45de-b0f7-224b4c7a9176" d="M38.64505,26.40454a21.1242,21.1242,0,0,1-3.87-3.51161c-.90393-1.21-1.3549-3.03779.40684-3.654,1.332-.46585,2.774.18868,4.01115.86754a21.77107,21.77107,0,0,1,4.28118,2.73933A39.52,39.52,0,0,1,47.164,26.53535c1.10727,1.312,3.02354,2.67494,2.98453,4.57046a8.243,8.243,0,0,1-2.117,4.71229c-1.00844,1.29789-2.37677,2.168-3.40024,3.43971-1.13914,1.41546-2.5066,1.8827-3.81306,3.02316-.5344.46649-.81473,1.1794-1.29872,1.65836.50648-.55293-2.68445-4.00033-3.11673-4.37368,1.09853-.62331,2.057-.70967,3.007-1.68145,1.48412-1.51814,2.768-3.308,4.13112-4.93687.69962-.83605,1.128-.89317.60062-1.841-.28286-.50837-1.333-1.05807-1.78882-1.45315C41.11087,28.5768,39.93509,27.42525,38.64505,26.40454Z"/></clipPath><clipPath id="a136a037-8f22-47c1-93b2-f87e46a645de"><path class="bb7099b8-98e3-45de-b0f7-224b4c7a9176" d="M36.93309,20.763A1.73707,1.73707,0,0,1,35.801,18.94447a11.23625,11.23625,0,0,1,.19788-2.23458c.18329-1.027,1.193-1.01261,1.7194-1.79852.26972-.40265.58948-.77.85737-1.17391a14.55789,14.55789,0,0,0,1.32756-3.56687,6.02835,6.02835,0,0,0-.10908-3.2043,6.28908,6.28908,0,0,0-1.61205-3.223,6.28885,6.28885,0,0,0-2.44167-1.37695,7.978,7.978,0,0,0-5.012-.14368c-3.13768,1.05594-4.04191,3.48977-4.40373,6.27165-.08216.63162-.13635,1.28117-.18237,1.93662a12.01639,12.01639,0,0,0,.23059,4.41526,4.20615,4.20615,0,0,0,1.70563,2.33113,5.9304,5.9304,0,0,0,2.82118.61112c.271.0322.5323.097.80959.122-.08116.37443-.02514.76083-.1218,1.12587-.0949.35836-.21629.7155-.34061,1.0654a15.35025,15.35025,0,0,0-.55938,1.5201,5.06877,5.06877,0,0,0,.13923,2.14265c.21086.96623,1.09742,1.46342,1.481,2.31291a16.88513,16.88513,0,0,0,1.0511,2.34687.59149.59149,0,0,0,.27288.268.54521.54521,0,0,0,.353-.03187,4.34381,4.34381,0,0,0,1.69216-1.22176,7.52143,7.52143,0,0,0,2.16-3.59305c.09992-.76646-.33091-1.151-.46766-1.808-.06689-.32132.16827-.99758-.17115-1.19849A.973.973,0,0,0,36.93309,20.763Z"/></clipPath><clipPath id="f78895a9-1280-430a-9928-d06b4b102c60"><path class="bb7099b8-98e3-45de-b0f7-224b4c7a9176" d="M26.17635,25.28013a7.03092,7.03092,0,0,0-1.92307,4.49921,6.41937,6.41937,0,0,0,.15252,1.96924c.15751.51323.47188.96379.61236,1.50533.44488,1.71506.11555,3.39211.1155,5.11177-.00006,1.92781-.0202,3.85583-.0889,5.78253-.06386,1.79069.0898,3.57639.14409,5.36742-.012-.39547,1.61646-.14436,1.80805-.12357a25.17752,25.17752,0,0,1,3.12037.80513c1.74052.41952,2.33448-.28624,3.79073-.81063.14717-.55672,3.53906-.29535,4.00707-.29935.772-.00658.90613-.01661,1.2435-.68458.36514-.723.6697-1.484,1.00287-2.22234a2.28184,2.28184,0,0,0,.15488-2.07515c-.53361-1.81511-1.01252-3.61756-1.51962-5.42273a6.99609,6.99609,0,0,1-.242-2.51964,9.47466,9.47466,0,0,1,.48363-2.4209q.748-1.96284,1.68148-3.84812c.30988-.62576.68293-1.228.97712-1.85983a10.37861,10.37861,0,0,0,.53453-1.70223c.52309-1.809.974-3.8257.03954-5.31814-.74788-1.19443-2.66192-1.35787-3.922-1.83644-2.29674-.87236-3.10054,1.60736-4.59,2.96133-.37078.337-.75655.65713-1.14217.97709-.44495.36918-2.64145,1.73039-2.59988,2.41894a10.939,10.939,0,0,1,.13709-3.313,10.04236,10.04236,0,0,1,1.54357-3.26606c.04479-.066-.62148-.12619-.67739-.11793a3.08419,3.08419,0,0,0-.50174.15128,2.87942,2.87942,0,0,0-.8728.49191,5.84643,5.84643,0,0,0-1.35954,1.76669A26.47828,26.47828,0,0,1,26.17635,25.28013Z"/></clipPath><clipPath id="a606b0a6-290f-4448-85e3-53b256fbb11d"><path class="bb7099b8-98e3-45de-b0f7-224b4c7a9176" d="M36.26709,46.39687c-.73917.53179,4.57966,6.26768,4.80693,7.20132.53308,2.18983-.312,5.35883-.619,7.54856a36.45487,36.45487,0,0,1-2.705,10.28054c2.73835,2.89868,5.93728,5.25,8.39818,8.45576,2.73077,3.55731,4.74484,7.62918,7.77,10.96759.32267.356-2.43359,3.32675-2.86661,3.4-2.79722.47288-5.871-5.23263-7.82293-6.75676a73.40475,73.40475,0,0,1-9.87625-8.869,20.56929,20.56929,0,0,1-1.81028-2.28524c-3.23107-4.9165-1.82757-10.96351-2.35959-16.46112a23.54662,23.54662,0,0,0-.63234-3.7579c-.25917-.97992-1.46189-2.44576-1.55809-3.22762-.2743-2.22935,2.23574-2.376,3.885-3.013A25.41752,25.41752,0,0,0,36.26709,46.39687Z"/></clipPath><clipPath id="a30f19ce-3cab-43de-a2aa-b6d462926464"><path class="faa52105-391a-4ddf-a94a-5539abe916d6" d="M44.987,1.6565a3.7845,3.7845,0,0,1,3.32455,2.58982,28.13821,28.13821,0,0,1,1.49065,5.5604,21.06147,21.06147,0,0,0,.76735,3.14837,6.33049,6.33049,0,0,0,.72326,1.42726c.20773.298,1.28473.99771.81159,1.41688-.51008.45163-1.5932.29517-2.19682.17288a11.71827,11.71827,0,0,1-1.2812-.336c-.31764-.1028-.84458-.44567-1.17712-.4047-.6218.07661-.559.98226-1.36231.65328a6.281,6.281,0,0,1-3.92609-5.63435,2.61409,2.61409,0,0,0-.35028-1.36961c-.29506-.40309-.7851-.60264-1.10219-.98781.365-.15471-.24228-1.52477-.3212-1.90582A3.34531,3.34531,0,0,1,40.541,3.77137,4.67863,4.67863,0,0,1,44.987,1.6565Z"/></clipPath><clipPath id="a19e2a14-236b-4e4e-b314-0c65d6cb0e1a"><path class="bb7099b8-98e3-45de-b0f7-224b4c7a9176" d="M34.4392,16.03373a4.49108,4.49108,0,0,1-1.45876-1.89246,2.35829,2.35829,0,0,1,.50451-2.44264,2.404,2.404,0,0,0,1.04745-1.444A.88212.88212,0,0,0,34.0168,9.234c-.61406-.17688-.98063.41819-1.41089.70859-.99315.67033-1.4216-.50915-1.98231-1.032a2.79866,2.79866,0,0,0-.67612-.42321c-.57956-.28988-1.1857-.53032-1.7799-.788a4.56472,4.56472,0,0,0-.86658-.39368.63209.63209,0,0,0-.41935.09573c-.06707.04028-.30517.36226-.34127.36167-.33557-.00548-.31694-1.41748-.30924-1.66811a5.33077,5.33077,0,0,1,.33219-1.71691A4.00713,4.00713,0,0,1,28.94185,1.97c.83609-.29626,2.88241.13028,3.71876-.2022,1.67139-.66443,4.34878.17547,5.70373,1.27507,2.11922,1.71985,2.74033,4.53619,2.55507,7.14467a8.80935,8.80935,0,0,1-.82449,3.425A5.636,5.636,0,0,1,37.337,15.7908c-.37127.13388-.76367.211-1.12036.37991a2.69754,2.69754,0,0,1-.6908.29365,1.15749,1.15749,0,0,1-.8578-.25192Q34.55407,16.12715,34.4392,16.03373Z"/></clipPath><clipPath id="bdbd953c-081c-44b3-b0dc-4e1201f01794"><path class="bb7099b8-98e3-45de-b0f7-224b4c7a9176" d="M42.33879,49.80885a13.81754,13.81754,0,0,0-.42649-2.4164,8.44454,8.44454,0,0,0-.65388-1.74116,7.31359,7.31359,0,0,0-.6533-.97578.3417.3417,0,0,0-.34159-.16024,5.45445,5.45445,0,0,1-.55388.00934c-.18086-.02042-.36492-.06527-.549-.08437a8.15551,8.15551,0,0,0-2.3584.21323c-2.48344.547-4.70572,1.72258-7.11532,2.41514-3.81144,1.09549-7.10731,3.42378-10.45725,5.44859l-3.19311,1.93c-3.35019,2.02495-5.20524,4.9472-4.1296,8.84454.82855,3.00209,1.62918,6.1014,3.61111,8.53709L20.021,77.36255l2.25141,2.76686c.37409.45973.74444.92281,1.12258,1.3792.04086.04931.77.82387.55732.846a4.21764,4.21764,0,0,0,1.49084-.5578c.77852-.41029,2.60112-.96746,2.214-2.10321A69.39168,69.39168,0,0,0,19.25545,62.9189c1.3911-.687,2.90193-.5802,4.39485-.81826A40.42571,40.42571,0,0,0,28.39605,61.043a44.34581,44.34581,0,0,0,8.98118-3.68835C40.24871,55.79236,42.72286,53.322,42.33879,49.80885Z"/></clipPath></defs><ellipse class="a8be5df0-226a-4779-9f78-a7826b723ea7" cx="31.39377" cy="95.33038" rx="5.88255" ry="32.43424" transform="translate(-68.79407 101.31772) rotate(-75.19248)"/><path class="ac299e92-e437-4b76-baf8-5d821de9a07a" d="M6.39006,24.62186a3.306,3.306,0,0,1-1.70828-2.47472,1.52636,1.52636,0,0,1,1.27027-1.563,3.31439,3.31439,0,0,1,1.511.05619,8.97479,8.97479,0,0,1,2.29218,1.24141c-.07338-.48706.10248-1.77053.97537-1.379.15959.07159.1797.28505.18615.45984A4.72712,4.72712,0,0,0,11.49784,23.06a4.36216,4.36216,0,0,1,.05253,3.47675,1.08643,1.08643,0,0,1-.628.76634c-.4806.13935-.90873-.30534-1.25833-.66337A13.809,13.809,0,0,0,6.39006,24.62186Z"/><path class="ac299e92-e437-4b76-baf8-5d821de9a07a" d="M38.5526,39.95566c-1.3057-.34123-2.302.38043-3.66819.781-1.08364.3176-2.1204.91218-.50558,1.3645-.01848-.00519-.88423.75609-1.02722.83807-.44064.25265-.96.36417-1.26236.807a1.43215,1.43215,0,0,0-.00261,1.55783,1.96415,1.96415,0,0,0,2.14869.85737c1.345-.37072,7.2512-3.536,5.64054-5.47346a1.75121,1.75121,0,0,0-.49729-.38888A3.46128,3.46128,0,0,0,38.5526,39.95566Z"/><path class="a81104f6-4e0b-425d-a94e-9acfc237be7c" d="M25.03964,24.23159a21.12418,21.12418,0,0,1,3.18-4.14678c1.13123-1.00076,2.91552-1.60113,3.6751.10371.57427,1.289.041,2.78011-.53332,4.06908A21.77122,21.77122,0,0,1,28.985,28.75038a39.51808,39.51808,0,0,1-3.37222,3.98189c-1.21612,1.21184-2.41611,3.23412-4.30838,3.35178a8.243,8.243,0,0,1-4.871-1.72058c-2.17328-1.41728-3.87333-3.4475-5.69741-5.20942A12.18216,12.18216,0,0,1,9.12,26.935c-.503-.77493-.30193-.87654.32834-1.45939a17.36206,17.36206,0,0,0,2.29-2.39166c.7119,1.04331.87712,1.99139,1.924,2.8579,1.63552,1.35368,3.52526,2.4854,5.26116,3.70931.891.62819.98328,1.05039,1.88432.44654.48328-.32387.94439-1.4158,1.30047-1.90272C23.07843,26.86837,24.129,25.60151,25.03964,24.23159Z"/><g class="a6e20628-5b6f-487c-be0b-6e031a0462c1"><path class="bce89c67-5876-4c31-ae66-68ca61553b62" d="M18.92352,28.62059a2.07914,2.07914,0,0,1,.1082-.83246,5.5885,5.5885,0,0,1,1.26659-2.65737c.93158-.89879,2.28784-.96621,3.45324-1.32822a5.84513,5.84513,0,0,1,3.89079-.0982,3.928,3.928,0,0,1,1.20811.90153A3.71939,3.71939,0,0,1,29.88921,26.939c.02769,1.07206-.81513,1.42323-1.66078,1.87774A12.3546,12.3546,0,0,1,25.489,29.888C23.94155,30.29013,19.29519,31.19705,18.92352,28.62059Z"/></g><path class="a52f1a1f-e682-429b-ae39-c23ac398e95b" d="M51.62836,92.73263a3.53957,3.53957,0,0,1,1.79189-1.17953,2.806,2.806,0,0,1,2.41456.98476,1.7124,1.7124,0,0,1,.57339.87456,2.2,2.2,0,0,1-.094,1.00621,9.91406,9.91406,0,0,1-2.438,4.24813,5.39938,5.39938,0,0,1-2.71682,1.6637,2.14884,2.14884,0,0,1-2.48252-1.123c-.37544-1.0004.21673-2.19709.789-3.225a4.74971,4.74971,0,0,0,.73635-1.57161,1.71288,1.71288,0,0,1,.07635-.39174c.09218-.235.43505-.37365.61828-.54927C51.14664,93.23053,51.37894,92.97273,51.62836,92.73263Z"/><path class="a52f1a1f-e682-429b-ae39-c23ac398e95b" d="M25.74335,80.99619a3.7107,3.7107,0,0,1,2.11221-.611,2.77371,2.77371,0,0,1,2.03023,1.65319,1.67621,1.67621,0,0,1,.27905,1.009,2.24382,2.24382,0,0,1-.41012.94055,10.37246,10.37246,0,0,1-3.7116,3.37429,5.65506,5.65506,0,0,1-3.16295.80641,2.12407,2.12407,0,0,1-2.05237-1.806c-.04712-1.07218.90666-2.05036,1.78763-2.872a4.953,4.953,0,0,0,1.21249-1.29673,1.76083,1.76083,0,0,1,.19824-.35455c.16391-.1991.54048-.2323.77391-.3477C25.11821,81.33438,25.42528,81.15427,25.74335,80.99619Z"/><path class="a81104f6-4e0b-425d-a94e-9acfc237be7c" d="M36.26709,46.39687c-.73917.53179,4.57966,6.26768,4.80693,7.20132.53308,2.18983-.312,5.35883-.619,7.54856a36.45487,36.45487,0,0,1-2.705,10.28054c2.73835,2.89868,5.93728,5.25,8.39818,8.45576,2.73077,3.55731,4.74484,7.62918,7.77,10.96759.32267.356-2.43359,3.32675-2.86661,3.4-2.79722.47288-5.871-5.23263-7.82293-6.75676a73.40475,73.40475,0,0,1-9.87625-8.869,20.56929,20.56929,0,0,1-1.81028-2.28524c-3.23107-4.9165-1.82757-10.96351-2.35959-16.46112a23.54662,23.54662,0,0,0-.63234-3.7579c-.25917-.97992-1.46189-2.44576-1.55809-3.22762-.2743-2.22935,2.23574-2.376,3.885-3.013A25.41752,25.41752,0,0,0,36.26709,46.39687Z"/><path class="ac299e92-e437-4b76-baf8-5d821de9a07a" d="M36.93309,20.763A1.73707,1.73707,0,0,1,35.801,18.94447a11.23625,11.23625,0,0,1,.19788-2.23458c.18329-1.027,1.193-1.01261,1.7194-1.79852.26972-.40265.58948-.77.85737-1.17391a14.55789,14.55789,0,0,0,1.32756-3.56687,6.02835,6.02835,0,0,0-.10908-3.2043,6.28908,6.28908,0,0,0-1.61205-3.223,6.28885,6.28885,0,0,0-2.44167-1.37695,7.978,7.978,0,0,0-5.012-.14368c-3.13768,1.05594-4.04191,3.48977-4.40373,6.27165-.08216.63162-.13635,1.28117-.18237,1.93662a12.01639,12.01639,0,0,0,.23059,4.41526,4.20615,4.20615,0,0,0,1.70563,2.33113,5.9304,5.9304,0,0,0,2.82118.61112c.271.0322.5323.097.80959.122-.08116.37443-.02514.76083-.1218,1.12587-.0949.35836-.21629.7155-.34061,1.0654a15.35025,15.35025,0,0,0-.55938,1.5201,5.06877,5.06877,0,0,0,.13923,2.14265c.21086.96623,1.09742,1.46342,1.481,2.31291a16.88513,16.88513,0,0,0,1.0511,2.34687.59149.59149,0,0,0,.27288.268.54521.54521,0,0,0,.353-.03187,4.34381,4.34381,0,0,0,1.69216-1.22176,7.52143,7.52143,0,0,0,2.16-3.59305c.09992-.76646-.33091-1.151-.46766-1.808-.06689-.32132.16827-.99758-.17115-1.19849A.973.973,0,0,0,36.93309,20.763Z"/><g class="b2f2bfa6-b7d0-4866-a357-1f72c12162a1"><path class="aea86d77-342a-4067-9704-19a55d662368" d="M35.04891,16.12875a6.02255,6.02255,0,0,1-1.80115,2.752,8.82543,8.82543,0,0,1-1.13757.73178c-.17471.09827-.73108.25838-.7885.475a6.11438,6.11438,0,0,0,.15409-.66473c-.032-.09694-.33343.0983-.42809.05816a1.43082,1.43082,0,0,1-.57371-.57064c-.1261-.186-.51236-.65114-.36167-.89819.15569-.255,1.34764-.32364,1.65784-.41064A12.10279,12.10279,0,0,0,35.04891,16.12875Z"/><path class="aea86d77-342a-4067-9704-19a55d662368" d="M29.06314,8.11268c.11837-.00463.271-.03752.28561-.15509A.23493.23493,0,0,0,29.2871,7.797a2.67192,2.67192,0,0,0-1.25224-.80938,1.437,1.437,0,0,0-1.34942-.01013,1.36624,1.36624,0,0,0-.41269.66991,1.91516,1.91516,0,0,0-.10936,1.4108,2.887,2.887,0,0,1,1.27429-.74372A7.73331,7.73331,0,0,1,29.06314,8.11268Z"/></g><path class="a31de975-9e96-4a08-a659-1713f29ec318" d="M29.84832,21.10964a4.22092,4.22092,0,0,1,.828-1.25135,3.07667,3.07667,0,0,0,.33458-.35614c.06018-.0798.44684-.39208.45581-.4404a2.8068,2.8068,0,0,0,.0399,1.45129,1.92372,1.92372,0,0,0,.3395.84811c.45711.41159,1.28549.13415,1.754-.0861a26.23467,26.23467,0,0,1,2.67536-1.576c.57666-.17942.5269-.34211.75081.37586.28508.91414-.14552,2.21393-.23059,3.13559q-.14663,1.58846-.31868,3.17443-.33935,3.13959-.75837,6.26984c-.27568,2.08818-.5705,4.17378-.87183,6.2584-.08.55308-.709,6.19987-.90657,6.21318a24.9563,24.9563,0,0,1-8.464-.8877q.2706-2.76638.64634-5.52113.98846-7.24759,2.6971-14.37244A17.37572,17.37572,0,0,1,29.84832,21.10964Z"/><path class="fef5abe2-6b71-4496-a256-8fd352d56427" d="M31.24861,19.65518c.11438-.19007.5034-.68708.21808-.83337-.22985-.11784-.73415.09341-.94821.167a2.87942,2.87942,0,0,0-.8728.49191,5.84643,5.84643,0,0,0-1.35954,1.76669,26.47828,26.47828,0,0,1-2.10979,4.03274,7.03092,7.03092,0,0,0-1.92307,4.49921,6.41937,6.41937,0,0,0,.15252,1.96924c.15751.51323.47188.96379.61236,1.50534.2624,1.01159.29273,2.06941.4803,3.09689a18.92777,18.92777,0,0,1,.44429,3.20273,10.78143,10.78143,0,0,1-.49027,2.83059c-.62961,2.39777-.33745,4.6955-.26363,7.1315-.012-.39547,1.61646-.14436,1.80805-.12357a25.17752,25.17752,0,0,1,3.12037.80513c1.74052.41952,2.33448-.28624,3.79073-.81063.14717-.55672,3.53906-.29535,4.00707-.29935.772-.00658.90613-.01661,1.2435-.68458.36514-.723.6697-1.484,1.00287-2.22234a2.28184,2.28184,0,0,0,.15488-2.07515c-.53361-1.81511-1.01252-3.61756-1.51962-5.42273a6.99609,6.99609,0,0,1-.242-2.51964,9.47466,9.47466,0,0,1,.48363-2.4209q.748-1.96284,1.68148-3.84812c.30988-.62576.68293-1.228.97712-1.85983a10.37861,10.37861,0,0,0,.53453-1.70223c.52309-1.809.974-3.8257.03954-5.31814-.74788-1.19443-2.66192-1.35787-3.922-1.83644-2.29674-.87236-3.10054,1.60736-4.59,2.96133-.37078.337-.75655.65713-1.14217.97709-.44495.36918-2.64145,1.73039-2.59988,2.41894a10.939,10.939,0,0,1,.13709-3.313,8.75553,8.75553,0,0,1,.62377-1.70317,10.527,10.527,0,0,0,.76668-1.60265"/><g class="b959c548-9523-4e29-991f-a769a3da942f"><path class="a81104f6-4e0b-425d-a94e-9acfc237be7c" d="M38.59192,29.45191c-.01682.255-.042.51122-.07771.76916a4.53418,4.53418,0,0,1-1.01764,2.2883,6.60517,6.60517,0,0,1-4.07552,1.68907c-.42414.04693-1.53554-.10207-.84473.4704a6.403,6.403,0,0,0,2.48573,1.01222,9.09472,9.09472,0,0,0,3.542.1538c1.22612-.24419,1.11074-1.444,1.91311-2.25015.86782-.87193,1.98363-1.3964,2.41111-2.63881.37164-1.08013.39247-2.18332.67-3.26794.29926-1.16966,1.62244-2.85148.85052-4.11728-.46942-.76976-2.40365.08315-3.20518-.24119-.54115-.21927-.81045-.72665-1.47164-.80762a1.182,1.182,0,0,0-.68768.09938c-.57406.29852-.63291,1.08-.63662,1.727C38.43764,26.06847,38.70543,27.731,38.59192,29.45191Z"/></g><path class="eeee5481-4d52-47f5-bb41-20568a29413f" d="M27.35644,43.24649c-.13117,1.18687-.10692,2.44756-.32763,3.6149a.29787.29787,0,0,1-.06176.15386.30669.30669,0,0,1-.18286.07431,1.87531,1.87531,0,0,1-.78734-.05067.22763.22763,0,0,1-.14658-.09048.21448.21448,0,0,1-.0024-.15151,59.70738,59.70738,0,0,0,1.13544-6.85506c.25433-2.17335-.08678-4.34924.00076-6.54071a14.73814,14.73814,0,0,1,.41764-3.2155,26.95978,26.95978,0,0,1,1.06315-3.31484c.30892-.753,1.52606-2.41221,1.16916-3.19974a2.20223,2.20223,0,0,1,.1002,2.04889,2.91973,2.91973,0,0,1,.96478-.727c.09222-.043.21574-.0757.28414-.00035.07979.0879.00463.22509-.06809.31893a13.78653,13.78653,0,0,0-2.50378,6.7021c-.2196,1.68171-.27595,3.49016-.34982,5.20191C27.97511,39.2164,27.57672,41.25321,27.35644,43.24649Z"/><path class="b5533a84-9a02-42ec-820d-25e195a150ea" d="M40.45823,44.05316q.01509.07659.02883.15344a2.21347,2.21347,0,0,1,.02279.88256,1.69647,1.69647,0,0,1-.68328.95146,7.97387,7.97387,0,0,1-3.45775,1.10974c-1.01281.1719-2.03763.29587-3.06858.37145a33.06281,33.06281,0,0,1-6.06208-.11318c-.6586-.07326-1.62909.03008-2.0316-.547-.36324-.52078-.00367-2.44507.05871-3.06953a6.98972,6.98972,0,0,0,1.53946.65228,15.54305,15.54305,0,0,0,2.31672.31333,21.72662,21.72662,0,0,0,5.43561-.34013c.87888-.16356,1.74843-.37432,2.60928-.61476A11.285,11.285,0,0,0,39.578,42.59371a.39727.39727,0,0,1,.37138-.064.384.384,0,0,1,.14632.2191A8.8525,8.8525,0,0,1,40.45823,44.05316Z"/><g class="bce82e2e-7717-448c-9fc3-3222b6dea3f9"><path class="bce89c67-5876-4c31-ae66-68ca61553b62" d="M30.42238,58.69927A3.36334,3.36334,0,0,0,28.8911,59.9535a3.6604,3.6604,0,0,0-.30831,1.73279q-.02895,2.52027.022,5.04063c.00821.40618.07588.90137.45251,1.05371a1.05834,1.05834,0,0,0,.93776-.2581,36.44231,36.44231,0,0,0,8.51388-8.10968c.49827-.65826,3.2847-3.94349,2.82994-4.72093-.44235-.75623-3.94613,1.3345-4.69551,1.61331A60.25884,60.25884,0,0,0,30.42238,58.69927Z"/></g><path class="fef5abe2-6b71-4496-a256-8fd352d56427" d="M42.33879,49.80885a13.81754,13.81754,0,0,0-.42649-2.4164,8.44454,8.44454,0,0,0-.65388-1.74116,7.31359,7.31359,0,0,0-.6533-.97578.3417.3417,0,0,0-.34159-.16024,5.45445,5.45445,0,0,1-.55388.00934c-.18086-.02042-.36492-.06527-.549-.08437a8.15551,8.15551,0,0,0-2.3584.21323c-2.48344.547-4.70572,1.72258-7.11532,2.41514-3.81144,1.09549-7.10731,3.42378-10.45725,5.44859l-3.19311,1.93c-3.35019,2.02495-5.20524,4.9472-4.1296,8.84454.82855,3.00209,1.62918,6.1014,3.61111,8.53709L20.021,77.36255l2.25141,2.76686c.37409.45973.74444.92281,1.12258,1.3792.04086.04931.77.82387.55732.846a4.21764,4.21764,0,0,0,1.49084-.5578c.77852-.41029,2.60112-.96746,2.214-2.10321A69.39168,69.39168,0,0,0,19.25545,62.9189c1.3911-.687,2.90193-.5802,4.39485-.81826A40.42571,40.42571,0,0,0,28.39605,61.043a44.34581,44.34581,0,0,0,8.98118-3.68835C40.24871,55.79236,42.72286,53.322,42.33879,49.80885Z"/><path class="aea86d77-342a-4067-9704-19a55d662368" d="M31.34088,9.44613a.16656.16656,0,0,0-.05236.1703.559.559,0,0,0,.08167.169c.15318.24942.19647.604.41673.79124a.41245.41245,0,0,0,.51617-.04375,1.44928,1.44928,0,0,0,.37183-.50562c.089-.20279.02728-.32341-.10328-.49631a1.26618,1.26618,0,0,0-.98786-.49C31.463,9.04327,31.374,9.32994,31.34088,9.44613Z"/><path class="aea86d77-342a-4067-9704-19a55d662368" d="M33.3018,10.079a.3819.3819,0,0,1,.27989-.18986.40518.40518,0,0,1,.43329.08391.302.302,0,0,1-.028.348.80246.80246,0,0,1-.30142.21539,1.907,1.907,0,0,0-.75841.50629c-.05511.07563-.09114.1944-.01788.25263a.15789.15789,0,0,0,.15371.00958c.1883-.0736.24146-.28694.34121-.44143.12214-.18919.32991-.26813.46088-.45939"/><path class="bb7099b8-98e3-45de-b0f7-224b4c7a9176" d="M29.24436,1.696A5.35363,5.35363,0,0,1,31.307,1.01961,7.57865,7.57865,0,0,1,33.85113.91833c.65073.16149,1.34263.307,1.98513.52027a7.169,7.169,0,0,1,3.62913,2.7055,3.77241,3.77241,0,0,1,.66495,1.22477,16.74947,16.74947,0,0,1,.445,3.84077,7.55234,7.55234,0,0,1-.49883,2.34044,11.24957,11.24957,0,0,1-1.35381,3.03842c-.32483.46384-.72144.86849-1.08653,1.29954-.56627.66856-.86521,1.99538-1.83148.798a4.29593,4.29593,0,0,1-.49558-.88326c-.26958-.56107-.53507-1.12541-.85865-1.65809-.35031-.57668-.35653-.77489.22053-1.25326a2.49849,2.49849,0,0,0,.885-1.66163.81407.81407,0,0,0-.0871-.52565c-.209-.32225-.7021-.29588-1.05546-.141-1.72358.75525-.57617-.48508-1.74438-1.07647-.66313-.3357-1.62708-.32484-2.34534-.59567a6.12515,6.12515,0,0,1-1.35106-.73849,2.43372,2.43372,0,0,0-1.352-.47168c-.35773-.03348-1.11184.63225-1.35807.38913a.48791.48791,0,0,1-.11538-.31622,5.79732,5.79732,0,0,1,.39809-1.91666A6.71514,6.71514,0,0,1,29.24436,1.696Z"/><path class="faa52105-391a-4ddf-a94a-5539abe916d6" d="M34.4392,16.03373a4.49108,4.49108,0,0,1-1.45876-1.89246,2.35829,2.35829,0,0,1,.50451-2.44264,2.404,2.404,0,0,0,1.04745-1.444A.88212.88212,0,0,0,34.0168,9.234c-.61406-.17688-.98063.41819-1.41089.70859-.99315.67033-1.4216-.50915-1.98231-1.032a2.79866,2.79866,0,0,0-.67612-.42321c-.57956-.28988-1.1857-.53032-1.7799-.788a4.56472,4.56472,0,0,0-.86658-.39368.63209.63209,0,0,0-.41935.09573c-.06707.04028-.30517.36226-.34127.36167-.33557-.00548-.31694-1.41748-.30924-1.66811a5.33077,5.33077,0,0,1,.33219-1.71691A4.00713,4.00713,0,0,1,28.94185,1.97c.83609-.29626,2.88241.13028,3.71876-.2022,1.67139-.66443,4.34878.17547,5.70373,1.27507,2.11922,1.71985,2.74033,4.53619,2.55507,7.14467a8.80935,8.80935,0,0,1-.82449,3.425A5.636,5.636,0,0,1,37.337,15.7908c-.37127.13388-.76367.211-1.12036.37991a2.69754,2.69754,0,0,1-.6908.29365,1.15749,1.15749,0,0,1-.8578-.25192Q34.55407,16.12715,34.4392,16.03373Z"/><path class="bdd38a6e-5392-4b31-a5ec-3adcd137c4a7" d="M44.987,1.6565a3.7845,3.7845,0,0,1,3.32455,2.58982,28.13821,28.13821,0,0,1,1.49065,5.5604,21.06147,21.06147,0,0,0,.76735,3.14837,6.33049,6.33049,0,0,0,.72326,1.42726c.20773.298,1.28473.99771.81159,1.41688-.51008.45163-1.5932.29517-2.19682.17288a11.71827,11.71827,0,0,1-1.2812-.336c-.31764-.1028-.84458-.44567-1.17712-.4047-.6218.07661-.559.98226-1.36231.65328a6.281,6.281,0,0,1-3.92609-5.63435,2.61409,2.61409,0,0,0-.35028-1.36961c-.29506-.40309-.7851-.60264-1.10219-.98781.365-.15471-.24228-1.52477-.3212-1.90582A3.34531,3.34531,0,0,1,40.541,3.77137,4.67863,4.67863,0,0,1,44.987,1.6565Z"/><path class="faa52105-391a-4ddf-a94a-5539abe916d6" d="M44.987,1.6565a3.7845,3.7845,0,0,1,3.32455,2.58982,28.13821,28.13821,0,0,1,1.49065,5.5604,21.06147,21.06147,0,0,0,.76735,3.14837,6.33049,6.33049,0,0,0,.72326,1.42726c.20773.298,1.28473.99771.81159,1.41688-.51008.45163-1.5932.29517-2.19682.17288a11.71827,11.71827,0,0,1-1.2812-.336c-.31764-.1028-.84458-.44567-1.17712-.4047-.6218.07661-.559.98226-1.36231.65328a6.281,6.281,0,0,1-3.92609-5.63435,2.61409,2.61409,0,0,0-.35028-1.36961c-.29506-.40309-.7851-.60264-1.10219-.98781.365-.15471-.24228-1.52477-.3212-1.90582A3.34531,3.34531,0,0,1,40.541,3.77137,4.67863,4.67863,0,0,1,44.987,1.6565Z"/><g class="b40cdd28-e1a4-447f-9a84-5bb50c76ef67"><path class="a58ebbdf-11ff-4e8b-9064-5c1371a2e724" d="M46.2686,8.39663a1.58466,1.58466,0,0,0-.44154-.51469,1.17448,1.17448,0,0,0-1.44356.23054,2.08426,2.08426,0,0,0-.50064,1.46572,10.93791,10.93791,0,0,0,.2038,1.57341,6.73971,6.73971,0,0,0,.23658,1.23362,4.38915,4.38915,0,0,0,.859,1.34911,6.44769,6.44769,0,0,0,1.29285,1.22387,6.115,6.115,0,0,0,1.4305.66506,4.60809,4.60809,0,0,0,3.132.18217,3.99489,3.99489,0,0,1-2.29227-1.47913A6.6579,6.6579,0,0,1,47.10451,9.88a1.10819,1.10819,0,0,0-.3567-.72552A5.70109,5.70109,0,0,1,46.2686,8.39663Z"/></g><path class="b078c675-b4c7-4a90-85a0-44491bce00a5" d="M40.34762,6.26574a2.18347,2.18347,0,0,0,.65648,1.344,3.66011,3.66011,0,0,1,1.13315,1.50116,5.81575,5.81575,0,0,0,1.79531,3.00053,6.34962,6.34962,0,0,0,3.32135,1.52621,2.1497,2.1497,0,0,1-.47409-1.71275,7.98389,7.98389,0,0,1,.47294-1.35442,7.09773,7.09773,0,0,0,.0029-4.01092,5.68034,5.68034,0,0,0-3.34993-4.05485A2.87286,2.87286,0,0,0,40.877,3.258,3.50063,3.50063,0,0,0,40.34762,6.26574Z"/><path class="bc76c887-e4c5-4621-8458-5035af05be75" d="M42.151,4.66542a2.39429,2.39429,0,0,1,1.89373,1.17467,14.69392,14.69392,0,0,1,.66419,1.949,3.49487,3.49487,0,0,0,1.43193,1.68259,2.70874,2.70874,0,0,1-2.28148-.6521c-.49634-.45292-.83728-1.10367-1.45066-1.378-.64945-.29047-1.49283-.09945-2.0316-.56408C39.08078,5.75962,41.16171,4.60454,42.151,4.66542Z"/><path class="a0ce1d01-19f4-4705-a68b-28c4ad18c238" d="M39.568,4.8403a.89465.89465,0,0,0-.06123.31058,5.1994,5.1994,0,0,0,.42415,2.414.95439.95439,0,0,0,.3746.44749.40554.40554,0,0,0,.52741-.10542.55955.55955,0,0,0,.02144-.40671,13.00084,13.00084,0,0,0-.4189-1.25067,2.54332,2.54332,0,0,1-.14728-1.29628c.04654-.22937.05823-.46656-.22648-.4786A.51114.51114,0,0,0,39.568,4.8403Z"/><path class="a58ebbdf-11ff-4e8b-9064-5c1371a2e724" d="M39.753,8.10406a2.07463,2.07463,0,0,1-.68972,1.80312,7.54575,7.54575,0,0,1-2.64351,1.45135,2.91463,2.91463,0,0,0-.62026.31906,2.11712,2.11712,0,0,0-.5369.62566,3.85587,3.85587,0,0,0-.54181,1.72445,6.90213,6.90213,0,0,0,2.49423-.82237,7.44075,7.44075,0,0,0,1.52347-1.4765c.71521-.92941,1.643-2.61046,1.00342-3.59169"/><path class="b078c675-b4c7-4a90-85a0-44491bce00a5" d="M34.69008,5.10486A4.73081,4.73081,0,0,0,31.46593,6.5266a2.24608,2.24608,0,0,1-1.52347.75591c-.5806-.03846-1.27053-.37939-1.19226-1.0061a2.52514,2.52514,0,0,1,1.13241-1.70053,4.86931,4.86931,0,0,1,2.6109-.81147c2.127-.06286,4.19213,1.05719,6.30479.803a2.56843,2.56843,0,0,1-1.13871.33292A28.352,28.352,0,0,1,34.69008,5.10486Z"/><g class="b5f38747-21f2-445c-9885-965d8d3a90fb"><path class="bc76c887-e4c5-4621-8458-5035af05be75" d="M37.92994,7.54094c-1.65086.50139-5.53611-1.404-6.13028,1.13047a.61217.61217,0,0,0,.064.47677c.39809.59581,1.46108-.1865,1.93052-.33965,1.61909-.52817,3.54954.24343,4.84087-1.14716a3.18233,3.18233,0,0,0,.90666-1.51218A3.07191,3.07191,0,0,1,37.92994,7.54094Z"/><path class="a58ebbdf-11ff-4e8b-9064-5c1371a2e724" d="M36.827,16.47779a3.14634,3.14634,0,0,1,.23926-1.60922,3.79438,3.79438,0,0,1,.924-.96743,9.03658,9.03658,0,0,0,2.23055-2.93392c-.08359.44041-.20441.87276-.32508,1.30448a8.6589,8.6589,0,0,1-.84463,2.21522c-.52726.86408-1.53457,1.21468-2.14621,2.01044"/><path class="b078c675-b4c7-4a90-85a0-44491bce00a5" d="M26.41447,1.80029a6.00387,6.00387,0,0,1,1.54911-.873,10.83111,10.83111,0,0,1,2.75864-.8661,8.71361,8.71361,0,0,1,4.9672.98938,7.05531,7.05531,0,0,1,3.45712,3.16954A9.94673,9.94673,0,0,0,36.19,2.56482a6.33561,6.33561,0,0,0-3.35581-.23023c-.38236.08485-.75624.212-1.14477.26137a7.46382,7.46382,0,0,1-1.09687.01552,3.64021,3.64021,0,0,0-2.45717.63214c-.62094.52373-.73243,1.35458-1.407,1.83293a1.14707,1.14707,0,0,1-1.10572.13275c-.34557-.20223-.37082-.83482-.42766-1.218C25.08084,3.22146,25.86822,2.26433,26.41447,1.80029Z"/></g><path class="eeee5481-4d52-47f5-bb41-20568a29413f" d="M29.388,51.03507a3.38816,3.38816,0,0,1-.07181-.4178c-.118-.92358-.44983-2.62986.3881-3.2105a15.427,15.427,0,0,1,3.35888-1.10408c2.00783-.66042,4.30219-1.687,6.36491-.64334a4.2711,4.2711,0,0,1,2.104,5.17828,3.85963,3.85963,0,0,1-2.73077,2.86444c-1.79093.29634-3.817-.65461-5.56237-.949-1.16837-.197-3.3086-.19933-3.80953-1.58323C29.41331,51.12559,29.39971,51.08058,29.388,51.03507Z"/><g class="b081866f-6f35-4616-a29d-21df3729e131"><path class="a81104f6-4e0b-425d-a94e-9acfc237be7c" d="M24.56053,68.22387a30.6218,30.6218,0,0,0-1.68119-3.45581,8.62,8.62,0,0,0-1.09861-1.57891c.13184-.35883-1.23231-.34437-1.35416-.336a14.16363,14.16363,0,0,1-2.83357-.12609.1519.1519,0,0,0-.13937.0278.14115.14115,0,0,0-.00934.12862,1.01862,1.01862,0,0,0,.28342.46728c.80045.7492,1.46034,1.73757,2.22316,2.56471.81185.88031,1.64051,1.74633,2.4057,2.66827,1.07924,1.30031,1.97431,2.78426,3.07669,4.051a.98923.98923,0,0,0,.27406-1.05536A16.06938,16.06938,0,0,0,24.56053,68.22387Z"/></g><path class="ac299e92-e437-4b76-baf8-5d821de9a07a" d="M42.56879,40.64012a3.46184,3.46184,0,0,0-.53314-.71821,4.17806,4.17806,0,0,0-1.74862-.86136c-.581-.22342-1.00578-.44711-1.627-.11082a2.86227,2.86227,0,0,0-1.0983,1.24567,6.38089,6.38089,0,0,0-.567,1.54721,1.22968,1.22968,0,0,0-.01206.67249.48309.48309,0,0,0,.52037.34133A4.08156,4.08156,0,0,0,39.00771,46.391a1.72082,1.72082,0,0,0,1.78708.36711,1.613,1.613,0,0,0,.55339-.53979,3.24342,3.24342,0,0,0,.562-1.71644,9.93451,9.93451,0,0,0-.2099-1.42229c-.04589-.37272-.264-.85432-.11977-1.2121C41.82992,41.24874,43.05087,41.48425,42.56879,40.64012Z"/><path class="eeee5481-4d52-47f5-bb41-20568a29413f" d="M45.43956,40.51719c-1.10411.79424-2.52162.92715-3.67828,1.70445a.43372.43372,0,0,1-.348.10951.361.361,0,0,1-.16024-.12293c-.23106-.274-.301-.59134-.53612-.86364a8.3238,8.3238,0,0,1-1.85534-2.35342.38545.38545,0,0,1-.02139-.27946c.17976-.41373,1.41515-.67022,1.80236-.84612a13.29908,13.29908,0,0,0,2.01573-1.27706c1.14869-.7966,2.25815-1.64817,3.40828-2.44274,1.989-1.37408.09452-2.3646-1.06847-3.64015-1.92033-2.1062-4.13339-3.7589-5.87654-6.08224-.98457-1.31227-1.46929-4.35813.84038-4.51292,2.34682-.157,4.47287,2.10863,5.95264,3.64215,1.778,1.84259,4.01,3.10028,5.35145,5.37334.85208,1.44383,2.18434,3.45319,1.66219,5.20257A8.24294,8.24294,0,0,1,49.63293,38.107C48.31531,39.08955,46.76471,39.56389,45.43956,40.51719Z"/><path class="ebfa8979-091b-49cd-b31f-a966d06c0256" d="M37.20514,19.86413a3.3299,3.3299,0,0,1,.46821-.51953,7.66784,7.66784,0,0,0-1.6272,2.66845.14815.14815,0,0,0,.00621.12751.23553.23553,0,0,0,.0898.06578,3.99832,3.99832,0,0,0,2.158.22027,3.84621,3.84621,0,0,0,.87494-.15519,3.13878,3.13878,0,0,0,1.1771-.86319,2.60843,2.60843,0,0,1,1.23935-.79829,1.09471,1.09471,0,0,1,.42106-.04262,2.52073,2.52073,0,0,1,.69229.21605,4.97145,4.97145,0,0,1,.50856.37472,1.04731,1.04731,0,0,0,.57457.23929c.12851.00366-.05236-.46617-.06667-.4942a1.86478,1.86478,0,0,0-.38471-.5849c-.16257-.14611-.32577-.289-.50114-.41992a5.99329,5.99329,0,0,0-1.19172-.69139,5.32348,5.32348,0,0,0-2.74488-.43135,2.23374,2.23374,0,0,0-.70079.18012,1.95739,1.95739,0,0,0-.46268.33525q-.1708.156-.32874.32072c-.01557.01624-.03056.04038-.01163.0567s.04594-.02358.01978-.02031"/><path class="eba38776-ccba-4a60-8e78-8287ab6c9841" d="M40.13824,20.48667a3.641,3.641,0,0,1-1.44287-.27521.79727.79727,0,0,1-.424-.35733.39367.39367,0,0,1-.0012-.27882.86914.86914,0,0,1,.57014-.48333,2.48564,2.48564,0,0,1,.87087-.0984,8.94837,8.94837,0,0,1,1.38676.18725,3.67589,3.67589,0,0,1,2.57152,1.82459c.01534.03422.02726.07711-.00522.09932a7.229,7.229,0,0,0-1.34281-.748,2.06173,2.06173,0,0,0-.99278.04691A6.81459,6.81459,0,0,1,40.13824,20.48667Z"/><path class="b4ed0877-f17e-447e-9816-7dd9fc0a1a23" d="M40.291,20.98259a2.6084,2.6084,0,0,0-1.23327,1.47889.55263.55263,0,0,0,.28493-.12442c.71627-.52049,1.16576-1.29213,2.06465-1.607a1.29107,1.29107,0,0,1,1.23941.14555c.20995.14956.45235.23758.65366.3972a.29579.29579,0,0,0,.194.09265.06244.06244,0,0,0,.04631-.02191c.0213-.02975-.00486-.06964-.03-.09623a2.45294,2.45294,0,0,0-1.02939-.75943,2.51108,2.51108,0,0,0-1.09676.06137A3.99637,3.99637,0,0,0,40.291,20.98259Z"/><path class="eeee5481-4d52-47f5-bb41-20568a29413f" d="M41.8614,22.02743a.54218.54218,0,0,0,.17481.004c.13811-.02812.18863-.15485.21985-.265a.86582.86582,0,0,0,.01827-.61525c-.14532-.31087-.58322-.47426-.97678-.58989-1.139-.33464-4.95555-1.44612-5.58274-.1068-.44856.95788,1.50823.96535,2.19216,1.05493Z"/><path class="fef5abe2-6b71-4496-a256-8fd352d56427" d="M39.95771,21.749a1.42381,1.42381,0,0,0,.84285.0134,1.24177,1.24177,0,0,0,.84169-.47708,1.15957,1.15957,0,0,0,.09794-.378.06981.06981,0,0,1,.03177-.05745c.0411-.02081.09573.01457.12985.04647a1.71661,1.71661,0,0,1,.28908.32114.44106.44106,0,0,1,.06984.37113.563.563,0,0,1-.41755.306,2.43421,2.43421,0,0,1-.60591.04261l-.83449-.01034a.14651.14651,0,0,1-.07348-.01386c-.02083-.01266-.02708-.04168-.00521-.05021"/></svg>