<svg id="b75025a1-9b5e-479b-9c3d-cf27aa566cd9" data-name="Layer 1" xmlns="http://www.w3.org/2000/svg" xmlns:xlink="http://www.w3.org/1999/xlink" viewBox="0 0 68.03015 97.5687" preserveAspectRatio="none" ><defs><style>.b0ab7051-8c9b-4ad9-aac4-45390a41a926{fill:none;}.b13e8a45-632d-4f31-96a3-f25bb960b2cb{fill:#414042;opacity:0.48;}.b05c17c2-0683-4225-8af3-0aeb1942026a{fill:#f6d2ba;}.b0e0c3bc-4f33-4be6-88d3-d4ba4172efaa{fill:#566345;}.a833d2c3-fec9-4fd8-b8ad-21b5b1ec77b0{clip-path:url(#ff68f582-0fe5-4b7d-bcc8-58eb8a351eaa);}.a1ea214d-7667-4ff4-bbe1-365f5e8d4ce4{fill:#4c5939;}.ec7a287c-0b04-40d7-8abc-d09f4538825a{fill:#1a242d;}.e8ac9fe4-dd33-4010-921a-cc54b091711d{clip-path:url(#a7691b36-495b-40e2-b6f2-d12efaea2e87);}.a03e84a5-c9ca-4bd9-aca1-74e611866610{fill:#e0bba6;}.b06e61f6-d5e0-4133-bf05-12e1a5dab09e{fill:#fff;}.a1fa307a-80d0-42d8-b9bc-58e4d9f99098{fill:#63774e;}.ab6b40bb-d512-43ff-8b2f-4e363bd60a84{clip-path:url(#a2648f33-2852-483f-b138-8b2788fb7dd8);}.b3a95fc7-1167-4bfb-9e5b-3a704392d57e{fill:#6f825a;}.f922eef0-890e-4429-bb58-65fa1c5d41a7{fill:#938c6c;}.b70c81dc-9397-4709-8607-130b3d1c1e27{clip-path:url(#bf51aaaa-d985-4ee6-8081-5890cca7f010);}.be3019ef-60bd-4695-bfc5-a80f8f2b3892{fill:#3c2415;}.a83f75b6-b497-4c73-9b5d-64ba1195237f{clip-path:url(#fbe35f48-c460-48d8-b5b0-5cb29f89fe22);}.aa8f0671-8ffd-44e8-82c8-b2edb50b03e7{fill:#281910;}.edb8439f-3c04-484d-af7e-fb83d55cb9ec{fill:#754c29;}.f8514415-e47d-413d-a4bf-7d6c333ac9d6{fill:#603913;}.aff34c13-6112-4c30-8ecb-8f46c22f777e{fill:#231f20;}.e5c65555-5919-42a8-ba8a-211e319d9a42{clip-path:url(#e418402e-17f6-4650-ad85-b7be3d76df69);}.ace9aeed-c2b1-4e97-b660-3bec0377de89{clip-path:url(#b32c345b-3fbb-4af8-a456-3e3e2b049bc0);}.a315b30d-8d5c-48ff-bd4e-3135f12d6698{fill:#758c58;}.f39ddee0-61b1-4043-a0bf-4de7375e4320{fill:#81975e;}.af321691-6932-4c7c-b3a9-55805d379068{fill:#424143;}</style><clipPath id="ff68f582-0fe5-4b7d-bcc8-58eb8a351eaa"><path class="b0ab7051-8c9b-4ad9-aac4-45390a41a926" d="M27.07617,25.43584a20.97286,20.97286,0,0,1-4.60562-2.38865c-1.17466-.93207-2.07129-2.572-.53664-3.61049,1.16034-.78515,2.71049-.52278,4.0702-.18509a21.61545,21.61545,0,0,1,4.80435,1.54305,39.23645,39.23645,0,0,1,4.47782,2.60515c1.39572.9784,3.58087,1.80034,4.02438,3.62964a8.18372,8.18372,0,0,1-.83626,5.06023c-.63863,1.50165-1.73124,2.684-2.39093,4.16436-.73424,1.64767-1.92823,2.44312-2.89286,3.86928-.39457.58335-.48275,1.33877-.82578,1.9213.34584-.65924-3.59169-3.15855-4.10135-3.40722.89627-.877,1.79435-1.20312,2.45963-2.37693,1.03933-1.83376,1.81754-3.87749,2.71257-5.78685.45939-.98.85608-1.14353.10938-1.91949a8.95564,8.95564,0,0,0-2.08571-.94091C29.99416,26.8952,28.57341,26.08823,27.07617,25.43584Z"/></clipPath><clipPath id="a7691b36-495b-40e2-b6f2-d12efaea2e87"><path class="b0ab7051-8c9b-4ad9-aac4-45390a41a926" d="M24.0015,20.45525c-.85912.00883-1.3385-.73515-1.54806-1.4583a11.15568,11.15568,0,0,1-.37706-2.19506c-.08464-1.03223.88812-1.27465,1.194-2.16258.15673-.45492.37043-.88868.52508-1.34432a14.45364,14.45364,0,0,0,.3692-3.76049,5.98505,5.98505,0,0,0-.91774-3.048A6.24386,6.24386,0,0,0,20.88182,3.802a6.24378,6.24378,0,0,0-2.693-.70213,7.92069,7.92069,0,0,0-4.8472,1.13382c-2.74375,1.80968-2.99412,4.37522-2.63555,7.13721.08141.6271.19421,1.26432.31635,1.90513a11.92985,11.92985,0,0,0,1.34164,4.17946,4.176,4.176,0,0,0,2.22864,1.80475,5.88791,5.88791,0,0,0,2.863-.12926c.26829-.03786.53553-.042.808-.08835.0171.38.16892.73667.16876,1.11157-.00016.36805-.02606.74166-.05661,1.109a15.24294,15.24294,0,0,0-.15121,1.601,5.03281,5.03281,0,0,0,.67731,2.02129c.44757.87392,1.42468,1.12619,2.00836,1.84426a16.76342,16.76342,0,0,0,1.60438,1.98593.58726.58726,0,0,0,.32994.188.54127.54127,0,0,0,.33075-.12016,4.31257,4.31257,0,0,0,1.31421-1.60207,7.46736,7.46736,0,0,0,1.16158-3.99684c-.09857-.761-.60969-1.02086-.90764-1.61673-.14573-.29145-.0916-1.00022-.46838-1.10694A.96568.96568,0,0,0,24.0015,20.45525Z"/></clipPath><clipPath id="a2648f33-2852-483f-b138-8b2788fb7dd8"><path class="b0ab7051-8c9b-4ad9-aac4-45390a41a926" d="M14.82283,27.52035a6.98045,6.98045,0,0,0-.70423,4.8065,6.37364,6.37364,0,0,0,.64607,1.85147c.28141.45265.69748.80535.96972,1.2895.86219,1.53331.97162,3.22658,1.40791,4.8772.4891,1.85042.959,3.70614,1.38191,5.57291.39308,1.735.99366,3.41,1.50022,5.11533-.11185-.37655,1.51493-.54872,1.7041-.57739a24.99546,24.99546,0,0,1,3.19936-.01894c1.77708-.039,2.16811-.86709,3.43283-1.73993,0-.57171,3.322-1.18148,3.77022-1.30407.73937-.20222.86553-.24587,1.01986-.97262.167-.78659.26627-1.59431.39871-2.38757a2.26553,2.26553,0,0,0-.37787-2.03112c-.97275-1.60683-1.88978-3.21538-2.83456-4.81941a6.94572,6.94572,0,0,1-.8716-2.35706,9.40685,9.40685,0,0,1-.15006-2.4464q.21991-2.07382.63756-4.12026c.13865-.67926.34392-1.35194.466-2.03308a10.305,10.305,0,0,0,.08114-1.76951c.04309-1.86907-.03581-3.91923-1.31145-5.11463-1.02092-.9567-2.89957-.62791-4.23047-.76754-2.42586-.25456-2.5682,2.32953-3.65433,4.00708-.27037.41759-.55943.82271-.84838,1.22767-.3334.46725-2.09632,2.33113-1.88171,2.98149a10.86039,10.86039,0,0,1-.709-3.21472,9.96994,9.96994,0,0,1,.65287-3.52658c.02623-.07475-.62855.03657-.68012.05869a3.06052,3.06052,0,0,0-.4432.27251,2.85894,2.85894,0,0,0-.71295.69361,5.80464,5.80464,0,0,0-.85667,2.04073A26.28794,26.28794,0,0,1,14.82283,27.52035Z"/></clipPath><clipPath id="bf51aaaa-d985-4ee6-8081-5890cca7f010"><path class="b0ab7051-8c9b-4ad9-aac4-45390a41a926" d="M29.8665,45.22877c-.57457.698,5.9861,4.854,6.44115,5.69246,1.06731,1.96663,1.06027,5.22281,1.3212,7.40251a36.19318,36.19318,0,0,1,.0122,10.55409c3.36389,2.08747,7.031,3.53269,10.2065,5.9853,3.52374,2.72157,6.49012,6.11889,10.24092,8.55564.40006.25989-1.49175,3.81066-1.8888,3.99081-2.56492,1.16365-6.96292-3.53284-9.22326-4.50048a72.87657,72.87657,0,0,1-11.73007-6.00693A20.41974,20.41974,0,0,1,32.9289,75.168c-4.34883-3.89924-4.536-10.05956-6.44164-15.20142a23.37724,23.37724,0,0,0-1.56047-3.44656c-.49741-.87481-2.02376-1.97661-2.31449-2.70267-.829-2.07023,1.54309-2.84788,2.96445-3.87782A25.23591,25.23591,0,0,0,29.8665,45.22877Z"/></clipPath><clipPath id="fbe35f48-c460-48d8-b5b0-5cb29f89fe22"><path class="b0ab7051-8c9b-4ad9-aac4-45390a41a926" d="M26.884.07234a3.75731,3.75731,0,0,1,3.84819,1.64227A27.93644,27.93644,0,0,1,33.57384,6.6735a20.90823,20.90823,0,0,0,1.53539,2.82724,6.2853,6.2853,0,0,0,1.05636,1.18644c.275.23337,1.4863.63166,1.13853,1.15406-.375.56291-1.45433.68757-2.06475.72335a11.63532,11.63532,0,0,1-1.315.00258c-.331-.01807-.92375-.21346-1.23254-.08976-.57739.23131-.28735,1.08466-1.14185.97271a6.23593,6.23593,0,0,1-5.19808-4.41191,2.59529,2.59529,0,0,0-.68374-1.22574c-.38548-.312-.90648-.37923-1.30857-.66847.3111-.24112-.61944-1.40207-.79188-1.7478a3.32125,3.32125,0,0,1-.41458-2.16579A4.645,4.645,0,0,1,26.884.07234Z"/></clipPath><clipPath id="e418402e-17f6-4650-ad85-b7be3d76df69"><path class="b0ab7051-8c9b-4ad9-aac4-45390a41a926" d="M20.40774,16.54864a4.45887,4.45887,0,0,1-1.88037-1.44634,2.34135,2.34135,0,0,1-.13554-2.47256,2.38679,2.38679,0,0,0,.639-1.65179.87579.87579,0,0,0-.75387-.84882c-.63429-.014-.83514.65022-1.17444,1.03813-.78318.89541-1.4937-.128-2.16457-.48758a2.779,2.779,0,0,0-.75635-.23466c-.62984-.13118-1.27265-.20817-1.90839-.30475a4.5309,4.5309,0,0,0-.93167-.158.62745.62745,0,0,0-.37822.19829c-.05416.05568-.201.42515-.23579.43374-.32349.07988-.66388-1.28014-.72009-1.52267a5.29229,5.29229,0,0,1-.1168-1.73225,3.97837,3.97837,0,0,1,1.672-2.91491c.72734-.49651,2.79973-.60632,3.51813-1.13766,1.43568-1.06185,4.21868-.935,5.79823-.22338,2.47052,1.11307,3.7813,3.65872,4.26535,6.20946a8.74622,8.74622,0,0,1,.07767,3.49671,5.59544,5.59544,0,0,1-2.09448,2.79057c-.32239.22271-.67948.39627-.979.64893a2.67808,2.67808,0,0,1-.58856.45715,1.14917,1.14917,0,0,1-.88727-.02415C20.58538,16.6268,20.49682,16.589,20.40774,16.54864Z"/></clipPath><clipPath id="b32c345b-3fbb-4af8-a456-3e3e2b049bc0"><path class="b0ab7051-8c9b-4ad9-aac4-45390a41a926" d="M36.56013,46.96312A13.7187,13.7187,0,0,0,35.53764,44.752a8.38416,8.38416,0,0,0-1.06943-1.50533,7.25952,7.25952,0,0,0-.87466-.77083.33923.33923,0,0,0-.36853-.06713,5.41674,5.41674,0,0,1-.52927.1495c-.17877.02629-.36682.02994-.54831.0583a8.097,8.097,0,0,0-2.2096.80309c-2.24491,1.15521-4.07968,2.84742-6.2168,4.12358-3.38043,2.0186-5.95318,5.08969-8.65484,7.8832L12.491,58.08906c-2.70187,2.79371-3.74094,6.06932-1.7196,9.53724,1.557,2.6713,3.11192,5.443,5.63229,7.278l5.72613,4.169,2.86306,2.0845c.47572.34635.9487.69686,1.42746,1.039.05173.037.94812.59541.7496.67059a4.18731,4.18731,0,0,0,1.28944-.91368c.64316-.59136,2.25119-1.58861,1.59141-2.58052A68.89373,68.89373,0,0,0,17.73019,65.40385c1.16093-1.01236,2.63819-1.29322,4.01076-1.90053A40.13729,40.13729,0,0,0,26.02777,61.284a44.02765,44.02765,0,0,0,7.68468-5.81911C36.07221,53.2367,37.82019,50.23772,36.56013,46.96312Z"/></clipPath></defs><ellipse class="b13e8a45-632d-4f31-96a3-f25bb960b2cb" cx="45.5043" cy="93.48322" rx="22.52585" ry="4.08548"/><path class="b05c17c2-0683-4225-8af3-0aeb1942026a" d="M30.42586,38.46628c-1.33986.00378-2.11306.94926-3.32274,1.68036-.95955.57982-1.8038,1.41358-.13905,1.438-.01906-.00029-.65688.95009-.77332,1.06506-.35885.35432-.82906.59314-1.00693,1.09486a1.42188,1.42188,0,0,0,.39278,1.496,1.95,1.95,0,0,0,2.28.27774c1.19692-.69711,6.06282-5.23392,4.02523-6.6849a1.73893,1.73893,0,0,0-.576-.24708A3.4365,3.4365,0,0,0,30.42586,38.46628Z"/><path class="b0e0c3bc-4f33-4be6-88d3-d4ba4172efaa" d="M27.07617,25.50717a20.97286,20.97286,0,0,1-4.60562-2.38865c-1.17466-.93206-2.07129-2.572-.53664-3.61049,1.16034-.78514,2.71049-.52277,4.0702-.18508a21.61491,21.61491,0,0,1,4.80435,1.543,39.23794,39.23794,0,0,1,4.47782,2.60515c1.39572.9784,3.58087,1.80034,4.02438,3.62965A8.18373,8.18373,0,0,1,38.4744,32.161c-.63863,1.50165-1.73124,2.684-2.39093,4.16435-.73424,1.64767-1.92823,2.44312-2.89286,3.86929-.39457.58335-.48275,1.33876-.82578,1.9213.34584-.65924-3.59169-3.15856-4.10135-3.40723.89627-.877,1.79435-1.20312,2.45963-2.37692,1.03933-1.83376,1.81754-3.8775,2.71257-5.78685.45939-.98.85608-1.14353.10938-1.91949a8.95525,8.95525,0,0,0-2.08571-.94092C29.99416,26.96653,28.57341,26.15956,27.07617,25.50717Z"/><g class="a833d2c3-fec9-4fd8-b8ad-21b5b1ec77b0"><path class="a1ea214d-7667-4ff4-bbe1-365f5e8d4ce4" d="M32.80361,30.22541a2.0641,2.0641,0,0,1-.83043.07061,5.54838,5.54838,0,0,1-2.84521-.66831c-1.06845-.7142-1.41992-2.01577-2.01693-3.07a5.8032,5.8032,0,0,1-.9159-3.754,3.89966,3.89966,0,0,1,.61982-1.3622,3.69268,3.69268,0,0,1,2.04441-1.49986c1.03423-.253,1.55268.49062,2.172,1.21517a12.266,12.266,0,0,1,1.61711,2.43175C33.36494,25.005,35.22478,29.32142,32.80361,30.22541Z"/></g><path class="ec7a287c-0b04-40d7-8abc-d09f4538825a" d="M56.36805,85.80624a3.51409,3.51409,0,0,1,1.42064-1.58685,2.78583,2.78583,0,0,1,2.56747.33256,1.70009,1.70009,0,0,1,.77228.694,2.18415,2.18415,0,0,1,.1651.98966,9.8428,9.8428,0,0,1-1.26214,4.69615A5.36068,5.36068,0,0,1,57.84581,93.218,2.13342,2.13342,0,0,1,55.178,92.77c-.6142-.865-.34946-2.16387-.061-3.29569a4.71586,4.71586,0,0,0,.308-1.69534,1.70035,1.70035,0,0,1-.02612-.39539c.02887-.24892.32278-.469.45409-.6841C56.032,86.40637,56.18956,86.1,56.36805,85.80624Z"/><path class="ec7a287c-0b04-40d7-8abc-d09f4538825a" d="M28.54445,81.10905a3.684,3.684,0,0,1,1.87237-1.1224A2.75379,2.75379,0,0,1,32.785,81.05831a1.66415,1.66415,0,0,1,.52385.89765,2.2279,2.2279,0,0,1-.155,1.00685,10.298,10.298,0,0,1-2.70639,4.18057A5.61447,5.61447,0,0,1,27.61615,88.72a2.10883,2.10883,0,0,1-2.42821-1.21272c-.31727-1.01717.35-2.19809.98713-3.21024a4.91766,4.91766,0,0,0,.83478-1.55231,1.74711,1.74711,0,0,1,.10031-.39062c.10681-.23269.45984-.36011.65461-.53011C28.03023,81.59228,28.27927,81.34148,28.54445,81.10905Z"/><path class="b0e0c3bc-4f33-4be6-88d3-d4ba4172efaa" d="M29.8665,45.22877c-.57457.698,5.9861,4.854,6.44115,5.69246,1.06731,1.96663,1.06027,5.22281,1.3212,7.40251a36.19318,36.19318,0,0,1,.0122,10.55409c3.36389,2.08747,7.031,3.53269,10.2065,5.9853,3.52374,2.72157,6.49012,6.11889,10.24092,8.55564.40006.25989-1.49175,3.81066-1.8888,3.99081-2.56492,1.16365-6.96292-3.53284-9.22326-4.50048a72.87657,72.87657,0,0,1-11.73007-6.00693A20.41974,20.41974,0,0,1,32.9289,75.168c-4.34883-3.89924-4.536-10.05956-6.44164-15.20142a23.37724,23.37724,0,0,0-1.56047-3.44656c-.49741-.87481-2.02376-1.97661-2.31449-2.70267-.829-2.07023,1.54309-2.84788,2.96445-3.87782A25.23591,25.23591,0,0,0,29.8665,45.22877Z"/><path class="b05c17c2-0683-4225-8af3-0aeb1942026a" d="M24.0015,20.45525c-.85912.00883-1.3385-.73515-1.54806-1.4583a11.15568,11.15568,0,0,1-.37706-2.19506c-.08464-1.03223.88812-1.27465,1.194-2.16258.15673-.45492.37043-.88868.52508-1.34432a14.45364,14.45364,0,0,0,.3692-3.76049,5.98505,5.98505,0,0,0-.91774-3.048A6.24386,6.24386,0,0,0,20.88182,3.802a6.24378,6.24378,0,0,0-2.693-.70213,7.92069,7.92069,0,0,0-4.8472,1.13382c-2.74375,1.80968-2.99412,4.37522-2.63555,7.13721.08141.6271.19421,1.26432.31635,1.90513a11.92985,11.92985,0,0,0,1.34164,4.17946,4.176,4.176,0,0,0,2.22864,1.80475,5.88791,5.88791,0,0,0,2.863-.12926c.26829-.03786.53553-.042.808-.08835.0171.38.16892.73667.16876,1.11157-.00016.36805-.02606.74166-.05661,1.109a15.24294,15.24294,0,0,0-.15121,1.601,5.03281,5.03281,0,0,0,.67731,2.02129c.44757.87392,1.42468,1.12619,2.00836,1.84426a16.76342,16.76342,0,0,0,1.60438,1.98593.58726.58726,0,0,0,.32994.188.54127.54127,0,0,0,.33075-.12016,4.31257,4.31257,0,0,0,1.31421-1.60207,7.46736,7.46736,0,0,0,1.16158-3.99684c-.09857-.761-.60969-1.02086-.90764-1.61673-.14573-.29145-.0916-1.00022-.46838-1.10694A.96568.96568,0,0,0,24.0015,20.45525Z"/><g class="e8ac9fe4-dd33-4010-921a-cc54b091711d"><path class="a03e84a5-c9ca-4bd9-aca1-74e611866610" d="M21.01708,16.48513a5.97925,5.97925,0,0,1-1.03053,3.09853,8.76241,8.76241,0,0,1-.90622.99105c-.14275.13865-.63617.4335-.63632.656a6.06948,6.06948,0,0,0-.02076-.67713c-.05529-.08493-.2951.179-.39615.16445a1.42051,1.42051,0,0,1-.69546-.40216c-.16822-.14653-.657-.495-.57505-.77036.08473-.2843,1.21141-.65259,1.48707-.8148A12.01569,12.01569,0,0,0,21.01708,16.48513Z"/><path class="a03e84a5-c9ca-4bd9-aca1-74e611866610" d="M13.23769,10.30975c.11245-.03448.25065-.10479.23479-.22133a.23321.23321,0,0,0-.09994-.13853,2.6527,2.6527,0,0,0-1.40732-.45915,1.42668,1.42668,0,0,0-1.29781.33268,1.35643,1.35643,0,0,0-.22613.74772,1.9014,1.9014,0,0,0,.253,1.3819,2.86626,2.86626,0,0,1,1.03441-1.03719A7.67842,7.67842,0,0,1,13.23769,10.30975Z"/></g><path class="b06e61f6-d5e0-4133-bf05-12e1a5dab09e" d="M17.28915,22.5856a4.19079,4.19079,0,0,1,.47725-1.4112,3.05341,3.05341,0,0,0,.23078-.42673c.03752-.09187.32941-.48972.32576-.53838a2.78655,2.78655,0,0,0,.40655,1.3829c.13333.22489.30226.60522.54106.72791.54319.27907,1.26791-.19742,1.66177-.52771.7305-.61261,1.38932-1.70322,2.16805-2.19154.508-.31854.41894-.46206.816.17026.50558.8051.42208,2.162.57428,3.06819q.26232,1.56187.49959,3.12783.47091,3.09961.863,6.2105c.26523,2.07429.51145,4.151.75116,6.22832.0636.55116.8926,6.13082.70635,6.19373a24.77746,24.77746,0,0,1-8.34939,1.29558q-.4422-2.724-.78053-5.46344-.89022-7.20739-1.058-14.47968A17.25083,17.25083,0,0,1,17.28915,22.5856Z"/><path class="a1fa307a-80d0-42d8-b9bc-58e4d9f99098" d="M18.26416,20.83424c.06156-.21146.30885-.78722-.00213-.85524-.25052-.05479-.681.27594-.86776.40087a2.85894,2.85894,0,0,0-.71295.69361,5.80464,5.80464,0,0,0-.85667,2.04073,26.28794,26.28794,0,0,1-1.00182,4.40614,6.98045,6.98045,0,0,0-.70423,4.8065,6.37364,6.37364,0,0,0,.64607,1.85147c.28141.45265.69748.80535.96972,1.28951.50855.90439.80607,1.912,1.24682,2.85067a18.7917,18.7917,0,0,1,1.2391,2.96139,10.70444,10.70444,0,0,1,.24764,2.84133c.00407,2.46125.86752,4.59258,1.55648,6.912-.11185-.37655,1.51493-.54872,1.7041-.57739a24.99546,24.99546,0,0,1,3.19936-.01894c1.77708-.039,2.16811-.86709,3.43283-1.73993,0-.57171,3.322-1.18148,3.77022-1.30407.73937-.20222.86553-.24587,1.01986-.97262.167-.78659.26627-1.59431.39871-2.38757a2.26553,2.26553,0,0,0-.37787-2.03112c-.97275-1.60683-1.88978-3.21538-2.83456-4.81941a6.94572,6.94572,0,0,1-.8716-2.35706,9.40685,9.40685,0,0,1-.15006-2.4464q.21991-2.07382.63756-4.12026c.13865-.67926.34392-1.35194.466-2.03308a10.305,10.305,0,0,0,.08114-1.76951c.04309-1.86907-.03581-3.91923-1.31145-5.11463-1.02092-.9567-2.89957-.62791-4.23047-.76754-2.42586-.25456-2.5682,2.32953-3.65433,4.00708-.27037.41759-.55943.82271-.84838,1.22767-.3334.46725-2.09632,2.33113-1.88171,2.98149a10.86039,10.86039,0,0,1-.709-3.21472,8.69255,8.69255,0,0,1,.16656-1.79305,10.44981,10.44981,0,0,0,.32925-1.73283"/><g class="ab6b40bb-d512-43ff-8b2f-4e363bd60a84"><path class="b0e0c3bc-4f33-4be6-88d3-d4ba4172efaa" d="M28.82722,24.60047a17.04143,17.04143,0,0,1-2.06808,2.60642,11.61122,11.61122,0,0,0-1.18754,1.75569c-1.17033,1.98545-1.95249,4.15689-3.16937,6.1178a2.37855,2.37855,0,0,1-.92285.96619c-.86254.41311-2.12743.00227-3.02029-.13307-.75792-.11489-1.028-.09352-.41108.46573,1.46563,1.32864,3.3726,2.82081,5.47769,3.073a6.72453,6.72453,0,0,0,3.75674-.71938A4.753,4.753,0,0,0,28.92973,37.374a4.32557,4.32557,0,0,1,1.166-.90443c.69761-.45.66086-.51552.46223-1.30338a4.44965,4.44965,0,0,1,.13705-3.31357c.61173-1.05712,1.54967-1.84365,1.64473-3.14465.08265-1.13106-.17728-2.19523-.18612-3.30671-.00954-1.19864.83377-3.14867-.22834-4.16777-.60453-.58-1.13861.45218-1.37171.856C30.04681,22.96751,29.33845,23.72146,28.82722,24.60047Z"/></g><path class="b3a95fc7-1167-4bfb-9e5b-3a704392d57e" d="M20.51427,44.46585c.17525,1.17249.51841,2.37641.60276,3.55288a.29566.29566,0,0,1-.02024.16335.30446.30446,0,0,1-.15666.11772,1.86183,1.86183,0,0,1-.76859.15115.2261.2261,0,0,1-.16365-.04965.213.213,0,0,1-.04075-.14483,59.27568,59.27568,0,0,0-.64953-6.86789c-.30734-2.15062-1.18685-4.15259-1.65889-6.27828a14.633,14.633,0,0,1-.415-3.19235,26.76712,26.76712,0,0,1,.17938-3.45149c.10545-.80113.8527-2.70258.31031-3.36792a2.18637,2.18637,0,0,1,.61605,1.94119,2.89884,2.89884,0,0,1,.74158-.94264c.07759-.06471.18787-.12739.27263-.07243.0989.06412.06157.21488.01557.3234a13.68745,13.68745,0,0,0-.70266,7.06829c.21592,1.6699.6207,3.42.98414,5.08179C20.08552,40.4406,20.21994,42.49671,20.51427,44.46585Z"/><path class="f922eef0-890e-4429-bb58-65fa1c5d41a7" d="M33.29466,41.91572q.03392.06969.0666.14a2.19759,2.19759,0,0,1,.24581.84134,1.68428,1.68428,0,0,1-.41442,1.08663,7.91665,7.91665,0,0,1-3.03733,1.94254q-1.39278.633-2.85111,1.13514a32.82419,32.82419,0,0,1-5.84738,1.42955c-.65074.09679-1.556.44223-2.08882-.00956-.4808-.4077-.62393-2.346-.7225-2.96118a6.93946,6.93946,0,0,0,1.64315.23547,15.43187,15.43187,0,0,0,2.3032-.28709,21.57072,21.57072,0,0,0,5.131-1.70569c.80209-.38,1.58324-.80293,2.34852-1.25215a11.20355,11.20355,0,0,0,2.008-1.77247c.09418-.09056.21376-.18844.34023-.15565a.38123.38123,0,0,1,.196.17317A8.79053,8.79053,0,0,1,33.29466,41.91572Z"/><g class="b70c81dc-9397-4709-8607-130b3d1c1e27"><path class="a1ea214d-7667-4ff4-bbe1-365f5e8d4ce4" d="M27.37805,58.52019a3.33924,3.33924,0,0,0-1.15156,1.59241,3.63422,3.63422,0,0,0,.14375,1.74144q.6117,2.42643,1.3001,4.83265c.11094.38779.30155.84593.7017.89658.33337.0422.61449-.23178.83462-.48568A36.18065,36.18065,0,0,0,35.321,57.15326c.31123-.75825,2.15219-4.61858,1.51843-5.24942-.61647-.61363-3.44907,2.28219-4.09761,2.74A59.82561,59.82561,0,0,0,27.37805,58.52019Z"/></g><path class="a1fa307a-80d0-42d8-b9bc-58e4d9f99098" d="M36.56013,46.96312A13.7187,13.7187,0,0,0,35.53764,44.752a8.38416,8.38416,0,0,0-1.06943-1.50533,7.25952,7.25952,0,0,0-.87466-.77083.33923.33923,0,0,0-.36853-.06713,5.41674,5.41674,0,0,1-.52927.1495c-.17877.02629-.36682.02994-.54831.0583a8.097,8.097,0,0,0-2.2096.80309c-2.24491,1.15521-4.07968,2.84742-6.2168,4.12358-3.38043,2.0186-5.95318,5.08969-8.65484,7.8832L12.491,58.08906c-2.70187,2.79371-3.74094,6.06932-1.7196,9.53724,1.557,2.6713,3.11192,5.443,5.63229,7.278l5.72613,4.169,2.86306,2.0845c.47572.34635.9487.69686,1.42746,1.039.05173.037.94812.59541.7496.67059a4.18731,4.18731,0,0,0,1.28944-.91368c.64316-.59136,2.25119-1.58861,1.59141-2.58052A68.89373,68.89373,0,0,0,17.73019,65.40385c1.16093-1.01236,2.63819-1.29322,4.01076-1.90053A40.13729,40.13729,0,0,0,26.02777,61.284a44.02765,44.02765,0,0,0,7.68468-5.81911C36.07221,53.2367,37.82019,50.23772,36.56013,46.96312Z"/><path class="a03e84a5-c9ca-4bd9-aca1-74e611866610" d="M15.76231,11.01172a.16537.16537,0,0,0-.007.17674.55532.55532,0,0,0,.12127.14147c.21032.20054.34184.52988.60077.65373a.40949.40949,0,0,0,.48434-.173,1.43868,1.43868,0,0,0,.2286-.57967c.034-.21722-.05587-.31735-.22506-.45018a1.25706,1.25706,0,0,0-1.07251-.21961C15.7773,10.59405,15.76459,10.89179,15.76231,11.01172Z"/><path class="a03e84a5-c9ca-4bd9-aca1-74e611866610" d="M17.80508,11.12165a.37923.37923,0,0,1,.22048-.25326.4023.4023,0,0,1,.43719-.0294.29981.29981,0,0,1,.06146.34108.79677.79677,0,0,1-.23466.28322,1.89322,1.89322,0,0,0-.59949.67839c-.03372.08658-.03816.20972.04693.247a.15678.15678,0,0,0,.15-.02981c.16207-.11842.159-.33669.2155-.51028.06924-.21259.24863-.34108.32581-.55789"/><path class="b0ab7051-8c9b-4ad9-aac4-45390a41a926" d="M11.78348,4.10474a5.315,5.315,0,0,1,1.80815-1.17258,7.52444,7.52444,0,0,1,2.41631-.74277c.66559-.0101,1.36664-.046,2.03744-.00431a7.11756,7.11756,0,0,1,4.16989,1.676,3.74544,3.74544,0,0,1,.949,1.00686A16.62993,16.62993,0,0,1,24.566,8.44159a7.49826,7.49826,0,0,1,.11505,2.373,11.16868,11.16868,0,0,1-.52849,3.25993c-.19409.52763-.4721,1.01667-.71316,1.523-.37389.7854-.32417,2.1348-1.55545,1.23068a4.26589,4.26589,0,0,1-.6998-.722c-.40112-.47014-.79914-.94445-1.24489-1.37363-.48257-.46464-.53883-.65331-.10632-1.2589a2.48056,2.48056,0,0,0,.42785-1.81946.80818.80818,0,0,0-.217-.48244c-.28241-.25627-.749-.10585-1.04887.13243-1.46273,1.16225-.67612-.31941-1.94748-.59064-.72168-.154-1.64416.10106-2.40231.02335a6.08071,6.08071,0,0,1-1.48418-.366,2.41622,2.41622,0,0,0-1.4174-.10969c-.35187.05864-.90677.889-1.2048.7181a.48443.48443,0,0,1-.191-.27424,5.75554,5.75554,0,0,1-.10421-1.94071A6.66689,6.66689,0,0,1,11.78348,4.10474Z"/><path class="be3019ef-60bd-4695-bfc5-a80f8f2b3892" d="M20.40774,16.54864a4.45887,4.45887,0,0,1-1.88037-1.44634,2.34135,2.34135,0,0,1-.13554-2.47256,2.38679,2.38679,0,0,0,.639-1.65179.87579.87579,0,0,0-.75387-.84882c-.63429-.014-.83514.65022-1.17444,1.03813-.78318.89541-1.4937-.128-2.16457-.48758a2.779,2.779,0,0,0-.75635-.23466c-.62984-.13118-1.27265-.20817-1.90839-.30475a4.5309,4.5309,0,0,0-.93167-.158.62745.62745,0,0,0-.37822.19829c-.05416.05568-.201.42515-.23579.43374-.32349.07988-.66388-1.28014-.72009-1.52267a5.29229,5.29229,0,0,1-.1168-1.73225,3.97837,3.97837,0,0,1,1.672-2.91491c.72734-.49651,2.79973-.60632,3.51813-1.13766,1.43568-1.06185,4.21868-.935,5.79823-.22338,2.47052,1.11307,3.7813,3.65872,4.26535,6.20946a8.74622,8.74622,0,0,1,.07767,3.49671,5.59544,5.59544,0,0,1-2.09448,2.79057c-.32239.22271-.67948.39627-.979.64893a2.67808,2.67808,0,0,1-.58856.45715,1.14917,1.14917,0,0,1-.88727-.02415C20.58538,16.6268,20.49682,16.589,20.40774,16.54864Z"/><path class="be3019ef-60bd-4695-bfc5-a80f8f2b3892" d="M26.884.07234a3.75731,3.75731,0,0,1,3.84819,1.64227A27.93644,27.93644,0,0,1,33.57384,6.6735a20.90823,20.90823,0,0,0,1.53539,2.82724,6.2853,6.2853,0,0,0,1.05636,1.18644c.275.23337,1.4863.63166,1.13853,1.15406-.375.56291-1.45433.68757-2.06475.72335a11.63532,11.63532,0,0,1-1.315.00258c-.331-.01807-.92375-.21346-1.23254-.08976-.57739.23131-.28735,1.08466-1.14185.97271a6.23593,6.23593,0,0,1-5.19808-4.41191,2.59529,2.59529,0,0,0-.68374-1.22574c-.38548-.312-.90648-.37923-1.30857-.66847.3111-.24112-.61944-1.40207-.79188-1.7478a3.32125,3.32125,0,0,1-.41458-2.16579A4.645,4.645,0,0,1,26.884.07234Z"/><g class="a83f75b6-b497-4c73-9b5d-64ba1195237f"><path class="aa8f0671-8ffd-44e8-82c8-b2edb50b03e7" d="M29.82433,6.21664a1.5731,1.5731,0,0,0-.55441-.382,1.16606,1.16606,0,0,0-1.3271.58757,2.06931,2.06931,0,0,0-.10862,1.5339A10.8588,10.8588,0,0,0,28.429,9.41463a6.69128,6.69128,0,0,0,.5401,1.12406,4.3576,4.3576,0,0,0,1.16686,1.077,6.40111,6.40111,0,0,0,1.55149.84668,6.07013,6.07013,0,0,0,1.5418.27538,4.575,4.575,0,0,0,3.05251-.61986,3.96615,3.96615,0,0,1-2.57553-.83811,6.61,6.61,0,0,1-2.70321-3.85141,1.10029,1.10029,0,0,0-.52647-.60588A5.6604,5.6604,0,0,1,29.82433,6.21664Z"/></g><path class="edb8439f-3c04-484d-af7e-fb83d55cb9ec" d="M23.60041,5.67368a2.16786,2.16786,0,0,0,.97115,1.12348,3.63363,3.63363,0,0,1,1.46855,1.15336,5.77388,5.77388,0,0,0,2.48457,2.4245,6.30391,6.30391,0,0,0,3.57523.62218,2.13425,2.13425,0,0,1-.88964-1.52368,7.92726,7.92726,0,0,1,.11028-1.42,7.04676,7.04676,0,0,0-1.01493-3.8506,5.63951,5.63951,0,0,0-4.24428-3.042,2.85221,2.85221,0,0,0-2.716,1.49157A3.47544,3.47544,0,0,0,23.60041,5.67368Z"/><path class="f8514415-e47d-413d-a4bf-7d6c333ac9d6" d="M24.92535,3.68a2.37707,2.37707,0,0,1,2.11575.647,14.58694,14.58694,0,0,1,1.13206,1.70225A3.46978,3.46978,0,0,0,29.97453,7.281a2.68932,2.68932,0,0,1-2.35533-.047c-.59133-.3088-1.0837-.84691-1.74206-.95459-.69708-.114-1.45812.28333-2.09316-.02593C22.256,5.50933,23.96031,3.87262,24.92535,3.68Z"/><path class="aff34c13-6112-4c30-8ecb-8f46c22f777e" d="M22.49037,4.50331a.88818.88818,0,0,0,.02.31365A5.162,5.162,0,0,0,23.53,7.02636a.94754.94754,0,0,0,.4731.33448.40264.40264,0,0,0,.47948-.235A.55552.55552,0,0,0,24.4,6.73a12.90761,12.90761,0,0,0-.71942-1.09416A2.52515,2.52515,0,0,1,23.21029,4.429c-.01352-.232-.06249-.46259-.33882-.4019A.50744.50744,0,0,0,22.49037,4.50331Z"/><path class="aa8f0671-8ffd-44e8-82c8-b2edb50b03e7" d="M23.4961,7.58907a2.05974,2.05974,0,0,1-.2045,1.90572,7.49176,7.49176,0,0,1-2.1691,2.06384,2.89336,2.89336,0,0,0-.5144.46362,2.10189,2.10189,0,0,0-.35659.73677,3.82824,3.82824,0,0,0-.0825,1.79269,6.85282,6.85282,0,0,0,2.18542-1.42223,7.3873,7.3873,0,0,0,1.08765-1.80378c.45066-1.07356.9147-2.92254.05178-3.70207"/><path class="edb8439f-3c04-484d-af7e-fb83d55cb9ec" d="M17.87549,5.99494a4.69685,4.69685,0,0,0-2.73394,2.18275,2.22994,2.22994,0,0,1-1.2705,1.11211c-.567.11041-1.31577-.04177-1.39966-.66318A2.507,2.507,0,0,1,13.12684,6.707,4.83435,4.83435,0,0,1,15.427,5.26567c2.02561-.6,4.292-.049,6.25539-.82895a2.55,2.55,0,0,1-1.00851.60848A28.14764,28.14764,0,0,1,17.87549,5.99494Z"/><g class="e5c65555-5919-42a8-ba8a-211e319d9a42"><path class="f8514415-e47d-413d-a4bf-7d6c333ac9d6" d="M21.60338,7.51113c-1.45735.90014-5.67005.05714-5.59728,2.64057a.6078.6078,0,0,0,.18236.44139c.53329.47087,1.35509-.54975,1.76683-.81586,1.42-.91778,3.46877-.667,4.35541-2.3294a3.15948,3.15948,0,0,0,.48655-1.68151A3.04981,3.04981,0,0,1,21.60338,7.51113Z"/><path class="aa8f0671-8ffd-44e8-82c8-b2edb50b03e7" d="M22.81231,16.369a3.12377,3.12377,0,0,1-.17867-1.60531,3.76707,3.76707,0,0,1,.64141-1.163,8.97174,8.97174,0,0,0,1.39654-3.38208c.03151.44393.02525.88958.019,1.33458a8.597,8.597,0,0,1-.24864,2.34059c-.28683.96317-1.16474,1.55528-1.5499,2.47429"/><path class="edb8439f-3c04-484d-af7e-fb83d55cb9ec" d="M9.09369,4.92289a5.96067,5.96067,0,0,1,1.26538-1.23106,10.753,10.753,0,0,1,2.42811-1.53128A8.65093,8.65093,0,0,1,17.806,1.84984,7.00458,7.00458,0,0,1,21.9285,4.01491a9.87516,9.87516,0,0,0-3.2578-.8386,6.29008,6.29008,0,0,0-3.27947.63051c-.34547.17846-.67207.3954-1.03249.54134a7.40977,7.40977,0,0,1-1.04888.29321,3.614,3.614,0,0,0-2.1981,1.23024c-.46313.66025-.35933,1.486-.88542,2.11633a1.13888,1.13888,0,0,1-1.02764.408c-.383-.10643-.56775-.70722-.71955-1.06062A3.00138,3.00138,0,0,1,9.09369,4.92289Z"/></g><path class="b05c17c2-0683-4225-8af3-0aeb1942026a" d="M12.70508,29.4673c-.00378-1.33986-.94926-2.11305-1.68036-3.32274-.57982-.95954-1.41358-1.8038-1.438-.139.00029-.01905-.95009-.65687-1.06506-.77332-.35432-.35884-.59314-.82906-1.09486-1.00692a1.42188,1.42188,0,0,0-1.49595.39278,1.95,1.95,0,0,0-.27774,2.28c.69711,1.19691,5.23392,6.06281,6.6849,4.02522a1.73879,1.73879,0,0,0,.24708-.576A3.43663,3.43663,0,0,0,12.70508,29.4673Z"/><path class="b3a95fc7-1167-4bfb-9e5b-3a704392d57e" d="M20.62391,32.476c2.17324,1.01855,2.07524-1.1016,2.58752-2.737.84589-2.70036,1.15643-5.425,2.27716-8.082.633-1.50074,3.00281-3.43984,4.29075-1.53642,1.30845,1.93418.42869,4.89072-.1464,6.92682-.691,2.44646-.65329,4.98972-1.93182,7.27707-.81211,1.45291-1.86906,3.60047-3.63055,4.02762a8.18367,8.18367,0,0,1-5.06023-.83627c-1.50164-.63862-2.684-1.73123-4.16435-2.39092a10.139,10.139,0,0,1-2.34388-1.62436A21.74488,21.74488,0,0,1,10.083,31.53068c-.61522-.69173.23281-1.06215.672-1.642.39214-.51828.67421-1.11368,1.07214-1.63026.39363-.511.89815-.71977,1.42328-.27044a2.679,2.679,0,0,1,.45516.68113,6.85919,6.85919,0,0,0,3.11871,2.10549C18.082,31.36138,19.36721,31.887,20.62391,32.476Z"/><path class="b3a95fc7-1167-4bfb-9e5b-3a704392d57e" d="M16.89838,55.34913a23.54713,23.54713,0,0,0-2.78687,1.55006,14.749,14.749,0,0,0,2.69628-2.75541,29.588,29.588,0,0,1,2.78359-2.77165,62.387,62.387,0,0,1,7.17591-5.42079c1.75963-1.14337,3.70139-2.71087,5.94609-2.23253a4.24039,4.24039,0,0,1,3.33341,4.43649,3.83188,3.83188,0,0,1-1.8943,3.44232c-1.64382.73887-3.82979.34018-5.5798.50053a32.52842,32.52842,0,0,0-7.02119,1.43778A38.23107,38.23107,0,0,0,16.89838,55.34913Z"/><g class="ace9aeed-c2b1-4e97-b660-3bec0377de89"><path class="b0e0c3bc-4f33-4be6-88d3-d4ba4172efaa" d="M24.16832,69.14971a30.40326,30.40326,0,0,0-2.49055-2.89046,8.558,8.558,0,0,0-1.45513-1.23676c.0355-.37787-1.27021-.01785-1.385.02109a14.06166,14.06166,0,0,1-2.75178.59795c-.04882.00608-.10561.01761-.12672.062a.14011.14011,0,0,0,.02366.12582,1.01134,1.01134,0,0,0,.39061.37661c.95841.516,1.84259,1.29725,2.78465,1.89762,1.00263.639,2.01775,1.26,2.98615,1.95072,1.36584.97425,2.6015,2.1715,3.981,3.10765a.98209.98209,0,0,0-.00473-1.08251A15.954,15.954,0,0,0,24.16832,69.14971Z"/></g><path class="a315b30d-8d5c-48ff-bd4e-3135f12d6698" d="M24.09194,19.35861a3.81239,3.81239,0,0,1,.3104-.63017,9.64772,9.64772,0,0,0-.95856,3.09731.194.194,0,0,0,.02284.133.18354.18354,0,0,0,.08258.05306,2.62071,2.62071,0,0,0,1.795-.15525,2.76771,2.76771,0,0,0,.69369-.32,3.1291,3.1291,0,0,0,.84208-1.11857,2.488,2.488,0,0,1,.902-1.0615,1.40071,1.40071,0,0,1,1.14478-.0432,1.46969,1.46969,0,0,1,.52688.2915,3.69677,3.69677,0,0,1,.93934,1.78354c.11724.52941.0077,1.09835.10682,1.60019.27536-.09142.22087-.95965.21882-1.20387a3.28375,3.28375,0,0,0-.25722-1.34155,4.99967,4.99967,0,0,0-1.25124-1.66969,3.86455,3.86455,0,0,0-3.88512-.86282,1.68685,1.68685,0,0,0-.54785.315,1.94489,1.94489,0,0,0-.33156.43543q-.1179.19467-.22407.39614c-.01047.01986-.01936.04793-.00161.06169s.03427-.033.01333-.0249"/><path class="f39ddee0-61b1-4043-a0bf-4de7375e4320" d="M26.8082,19.60411a2.36458,2.36458,0,0,1-1.218-.0307.65508.65508,0,0,1-.39644-.29968.524.524,0,0,1-.03983-.29294.90878.90878,0,0,1,.39878-.61038,1.73324,1.73324,0,0,1,.69828-.25958,5.78437,5.78437,0,0,1,1.15984-.05171,2.86861,2.86861,0,0,1,2.35656,1.45739c.01731.03323.033.07619.00957.10536a5.18369,5.18369,0,0,0-1.202-.54571,1.40115,1.40115,0,0,0-.80512.22729A4.64278,4.64278,0,0,1,26.8082,19.60411Z"/><path class="af321691-6932-4c7c-b3a9-55805d379068" d="M26.77064,19.98137a3.03273,3.03273,0,0,0-.80223,1.776.46825.46825,0,0,0,.21561-.1819c.51308-.67563.77307-1.56752,1.46409-2.05968a1.27345,1.27345,0,0,1,1.36527-.04745,1.6486,1.6486,0,0,1,.52344.27183,2.23181,2.23181,0,0,1,.50777.98129,15.757,15.757,0,0,1,.37468,1.72913,1.417,1.417,0,0,0,.08517.37775,1.97367,1.97367,0,0,0-.007-1.11394,5.76248,5.76248,0,0,0-.47409-1.56757,1.94453,1.94453,0,0,0-1.21272-1.03352,1.66752,1.66752,0,0,0-1.23913.23139A3.47175,3.47175,0,0,0,26.77064,19.98137Z"/><path class="b3a95fc7-1167-4bfb-9e5b-3a704392d57e" d="M28.20008,20.7984a.35819.35819,0,0,0,.14346-.02714c.109-.05432.13265-.19662.14283-.318a1.15908,1.15908,0,0,0-.07077-.65015,1.12976,1.12976,0,0,0-.88076-.44511c-.97784-.14766-4.25291-.63211-4.57908.88849-.23327,1.08753,1.36755.74459,1.93918.71618Z"/><path class="a1fa307a-80d0-42d8-b9bc-58e4d9f99098" d="M26.6049,20.8469a.95174.95174,0,0,0,.691-.137,1.141,1.141,0,0,0,.62166-.65249,1.57947,1.57947,0,0,0,.02741-.415.08782.08782,0,0,1,.018-.0661c.03071-.02924.0803-.00184.11264.02559a1.55036,1.55036,0,0,1,.28108.28582.55375.55375,0,0,1,.1088.37768.56152.56152,0,0,1-.29874.39658,1.6608,1.6608,0,0,1-.48943.15343l-.68368.13871a.09546.09546,0,0,1-.062-.0014c-.0188-.00957-.028-.039-.01126-.05186"/></svg>