<svg id="bf5a4695-f1c8-4d59-8229-acc0109208bc" data-name="Layer 1" xmlns="http://www.w3.org/2000/svg" xmlns:xlink="http://www.w3.org/1999/xlink" viewBox="0 0 72.57169 96.1287" preserveAspectRatio="none" ><defs><style>.b001fe77-edec-4cce-9e68-a60e6a1076c8{fill:none;}.fcfcdfd3-724b-4d4d-8b5b-7a35081ec855{fill:#414042;opacity:0.48;}.ba69b8f7-5728-49fc-84f6-f61570f8b196{fill:#4c3423;}.bbd7f4ec-77b4-4e93-8a4d-bf483f9c09c9{fill:#566345;}.ab68a413-e85a-4ed8-9f5c-36a71876aa00{clip-path:url(#e83b92fe-6592-4495-ab50-9e2a4a5c918d);}.a08ec946-0841-4083-ab82-c4d8e608d076{fill:#4c5939;}.a65e0fd9-8005-4461-8e47-a8a8158fc40a{fill:#1a242d;}.bfb228d7-4c00-4389-bd98-de0592a110f7{clip-path:url(#eaceb2c5-e9bb-4d68-9e4e-40aeb57f6dce);}.bc4fbb5e-2551-43bb-a1d1-d6ce6c09c15e{fill:#63774e;}.a091b513-330d-4a3b-9ea4-104d6ec0d921{fill:#fff;}.f250957c-eaa1-4cd2-bda7-ff10c49e4540{fill:#6f825a;}.a785f212-74b7-4d23-b534-8f78776380e8{clip-path:url(#ad34ce90-e36b-48df-a77e-091a99d8d0b4);}.bbe1a7c3-651e-4306-b0ab-7ee39a4ae3fd{fill:#938c6c;}.a0c9f51c-c55a-48e9-9c29-4486cff754fb{clip-path:url(#b33809b5-8a57-4b95-b975-27e59b979566);}.bf77bf02-57bf-4f45-aff8-a2cced63ea39{fill:#2b1a12;}.b8febb50-23c2-4cbf-aa4a-132f9afc3798{fill:#211915;}.b890966a-05d3-4afa-b918-c2f49f7e8e31{fill:#331e11;}.f9055918-23f3-4f38-850e-1b0d6ae78cc2{fill:#0c0a09;}.b1c49c1a-76ed-4831-aec6-5d6893f2cff6{fill:#758c58;}.efd92f92-12aa-4e15-853c-b11aad42bdac{fill:#81975e;}.eaf5bf85-23bb-44dd-a645-4148109e0689{fill:#424143;}</style><clipPath id="e83b92fe-6592-4495-ab50-9e2a4a5c918d"><path class="b001fe77-edec-4cce-9e68-a60e6a1076c8" d="M27.25646,23.54275a21.11255,21.11255,0,0,1-4.63629-2.40456c-1.18248-.93827-2.08509-2.58914-.54022-3.63453,1.16807-.79037,2.72855-.52625,4.09731-.18631a21.75889,21.75889,0,0,1,4.83634,1.55332,39.49874,39.49874,0,0,1,4.50763,2.62249c1.405.98491,3.60471,1.81233,4.05118,3.65382a8.2382,8.2382,0,0,1-.84183,5.09392c-.64288,1.51164-1.74276,2.70186-2.40685,4.19208-.73913,1.65864-1.94107,2.45939-2.91212,3.895-.3972.58723-.486,1.34768-.83128,1.93409.34814-.66363-3.61561-3.17958-4.12866-3.42991.90224-.88287,1.8063-1.21113,2.476-2.39275,1.04625-1.846,1.82964-3.90331,2.73063-5.82538.46245-.98654.86178-1.15115.11011-1.93227a9.01481,9.01481,0,0,0-2.0996-.94718C30.19388,25.01183,28.76366,24.19948,27.25646,23.54275Z"/></clipPath><clipPath id="eaceb2c5-e9bb-4d68-9e4e-40aeb57f6dce"><path class="b001fe77-edec-4cce-9e68-a60e6a1076c8" d="M29.92031,42.69394c-.57839.70263,6.026,4.88629,6.484,5.73036,1.07442,1.97973,1.06733,5.25759,1.33,7.4518a36.43406,36.43406,0,0,1,.01228,10.62436c3.38629,2.10137,7.07782,3.55622,10.27446,6.02516,3.5472,2.73969,6.53333,6.15963,10.30911,8.61261.40272.26162-1.50168,3.836-1.90138,4.01737-2.582,1.17141-7.00928-3.55636-9.28467-4.53044A73.36324,73.36324,0,0,1,35.336,74.57824a20.55855,20.55855,0,0,1-2.33286-1.74569c-4.37779-3.9252-4.56624-10.12654-6.48453-15.30264a23.53256,23.53256,0,0,0-1.57087-3.46951c-.50071-.88064-2.03723-1.98977-2.32989-2.72067-.83448-2.084,1.55336-2.86683,2.98418-3.90364A25.40331,25.40331,0,0,0,29.92031,42.69394Z"/></clipPath><clipPath id="ad34ce90-e36b-48df-a77e-091a99d8d0b4"><path class="b001fe77-edec-4cce-9e68-a60e6a1076c8" d="M25.12447,16.635c-2.44213-.25635-2.5854,2.345-3.67878,4.03375-.27217.42037-.56315.82819-.854,1.23584-.33562.47037-2.11027,2.34666-1.89424,3.00134a10.933,10.933,0,0,1-.71375-3.23608c-.01608-1.18738.35514-2.36524.24623-3.54772-2.05866.5976-3.20832,4.90761-3.48133,6.75751a15.50023,15.50023,0,0,0,.68106,5.94772c1.10551,4.44,2.21016,8.88571,3.21793,13.3339a12.9118,12.9118,0,0,0,1.60232,4.42416.41769.41769,0,0,1-.45608-.19243l.30281.94252a5.30323,5.30323,0,0,1,1.7766-.60609,25.16174,25.16174,0,0,1,3.22066-.01907c1.78892-.03923,2.18255-.87287,3.45569-1.75152,1.29516-.89385,3.50371-1.11074,4.99466-1.68556-1.244-3.42708-2.40014-6.29811-1.808-10.03162.40878-2.57725.22644-5.10781.58325-7.63274a23.22731,23.22731,0,0,0-.33024-8.091C31.41027,16.83946,27.46181,16.88031,25.12447,16.635Z"/></clipPath><clipPath id="b33809b5-8a57-4b95-b975-27e59b979566"><path class="b001fe77-edec-4cce-9e68-a60e6a1076c8" d="M22.21275,26.09027a.56012.56012,0,0,0,.31468.17935.51623.51623,0,0,0,.31547-.11461,4.11328,4.11328,0,0,0,1.25346-1.528,7.12222,7.12222,0,0,0,1.10789-3.81211c-.094-.72586-.58151-.97367-.86569-1.542-.16087-.32174-.20283-.78686-.35582-1.13835-.16931-.389-.34135-.77678-.512-1.16516a8.68466,8.68466,0,0,1-.7175-2.10673,2.63025,2.63025,0,0,1,.27416-1.904c.30906-.37049.81532-.4428.99976-.9672.76075-2.16292-.11918-5.14809-1.116-7.103a5.9552,5.9552,0,0,0-2.2558-2.56042,5.95486,5.95486,0,0,0-2.56853-.66967,7.5545,7.5545,0,0,0-4.62315,1.08141c-2.61693,1.726-2.85573,4.173-2.51374,6.80731.07765.59812.18524,1.2059.30174,1.8171.38322,2.01058,1.05591,6.30216,3.94037,5.89455l2.195-.31018a.57723.57723,0,0,1,.56168.17287,1.84769,1.84769,0,0,1,.23119.81215c.01359.19835-.13206.35343-.19377.54875a1.82979,1.82979,0,0,0-.046.6779,8.65468,8.65468,0,0,0,.82684,3.27683c.42688.83353,1.35883,1.07415,1.91553,1.759A15.98842,15.98842,0,0,0,22.21275,26.09027Z"/></clipPath></defs><ellipse class="fcfcdfd3-724b-4d4d-8b5b-7a35081ec855" cx="50.04584" cy="92.04322" rx="22.52585" ry="4.08548"/><path class="ba69b8f7-5728-49fc-84f6-f61570f8b196" d="M30.62845,36.58815c-1.34878.0038-2.12713.95557-3.34487,1.69154-.96593.58368-1.81581,1.423-.14,1.44758-.01918-.0003-.66124.95641-.77846,1.07215-.36124.35668-.83458.59709-1.01363,1.10215a1.43135,1.43135,0,0,0,.39539,1.50591,1.963,1.963,0,0,0,2.29514.27959c1.20489-.70176,6.10319-5.26877,4.052-6.72941a1.7502,1.7502,0,0,0-.57983-.24873A3.45958,3.45958,0,0,0,30.62845,36.58815Z"/><path class="bbd7f4ec-77b4-4e93-8a4d-bf483f9c09c9" d="M27.25646,23.54275a21.11255,21.11255,0,0,1-4.63629-2.40456c-1.18248-.93827-2.08509-2.58914-.54022-3.63453,1.16807-.79037,2.72855-.52625,4.09731-.18631a21.75889,21.75889,0,0,1,4.83634,1.55332,39.49874,39.49874,0,0,1,4.50763,2.62249c1.405.98491,3.60471,1.81233,4.05118,3.65382a8.2382,8.2382,0,0,1-.84183,5.09392c-.64288,1.51164-1.74276,2.70186-2.40685,4.19208-.73913,1.65864-1.94107,2.45939-2.91212,3.895-.3972.58723-.486,1.34768-.83128,1.93409.34814-.66363-3.61561-3.17958-4.12866-3.42991.90224-.88287,1.8063-1.21113,2.476-2.39275,1.04625-1.846,1.82964-3.90331,2.73063-5.82538.46245-.98654.86178-1.15115.11011-1.93227a9.01481,9.01481,0,0,0-2.0996-.94718C30.19388,25.01183,28.76366,24.19948,27.25646,23.54275Z"/><g class="ab68a413-e85a-4ed8-9f5c-36a71876aa00"><path class="a08ec946-0841-4083-ab82-c4d8e608d076" d="M33.91138,27.77956a1.54443,1.54443,0,0,1-1.09108.78509,3.41005,3.41005,0,0,1-1.666-.72742c-.96861-.73791-1.30813-1.96839-1.88454-2.98627a5.84177,5.84177,0,0,1-.922-3.779,3.92565,3.92565,0,0,1,.62394-1.37127,3.71731,3.71731,0,0,1,2.058-1.50983c1.36665-.33432,2.589,1.45388,2.88808,2.59028.5585,2.12224,1.3493,4.47138.27363,6.53127A4.43514,4.43514,0,0,1,33.91138,27.77956Z"/></g><path class="a65e0fd9-8005-4461-8e47-a8a8158fc40a" d="M28.73452,79.58666a3.70845,3.70845,0,0,1,1.88482-1.12988,2.77211,2.77211,0,0,1,2.384,1.0788,1.67514,1.67514,0,0,1,.52734.90363,2.24245,2.24245,0,0,1-.156,1.01355,10.36657,10.36657,0,0,1-2.7244,4.2084A5.65176,5.65176,0,0,1,27.8,87.24825a2.12286,2.12286,0,0,1-2.44438-1.22079c-.31938-1.02394.35234-2.21272.99371-3.23161a4.95013,4.95013,0,0,0,.84033-1.56265,1.75962,1.75962,0,0,1,.101-.39322c.10752-.23425.4629-.36251.659-.53364C28.21686,80.0731,28.46756,79.82064,28.73452,79.58666Z"/><path class="bbd7f4ec-77b4-4e93-8a4d-bf483f9c09c9" d="M30.06536,43.46747c-.57839.70263,6.026,4.8863,6.484,5.73036,1.07442,1.97973,1.06733,5.25759,1.33,7.45181A36.43434,36.43434,0,0,1,37.89168,67.274c3.38629,2.10137,7.07782,3.55622,10.27446,6.02516,3.5472,2.73969,6.53333,6.15963,10.30911,8.61261.40272.26162-1.50168,3.836-1.90138,4.01738-2.582,1.1714-7.00928-3.55636-9.28467-4.53045A73.36324,73.36324,0,0,1,35.481,75.35177a20.55766,20.55766,0,0,1-2.33286-1.74569c-4.37779-3.9252-4.56624-10.12654-6.48454-15.30264a23.53193,23.53193,0,0,0-1.57086-3.4695c-.50071-.88064-2.03723-1.98978-2.3299-2.72067-.83447-2.084,1.55336-2.86684,2.98419-3.90365A25.40331,25.40331,0,0,0,30.06536,43.46747Z"/><g class="bfb228d7-4c00-4389-bd98-de0592a110f7"><path class="a08ec946-0841-4083-ab82-c4d8e608d076" d="M27.41529,56.07386a3.36144,3.36144,0,0,0-1.15922,1.603,3.65829,3.65829,0,0,0,.14471,1.753q.61578,2.44259,1.30875,4.86483c.11168.39037.30356.85155.70638.90255.33559.04248.61858-.23333.84017-.48892a36.42145,36.42145,0,0,0,6.155-10.01054c.31331-.7633,2.16653-4.64934,1.52855-5.28438-.62058-.61771-3.472,2.29739-4.1249,2.7582A60.22507,60.22507,0,0,0,27.41529,56.07386Z"/></g><path class="bc4fbb5e-2551-43bb-a1d1-d6ce6c09c15e" d="M34.85658,43.75223A5.723,5.723,0,0,0,33.164,42.47435a2.43266,2.43266,0,0,0-1.953-.21832c-.59644.21947-.9415,1.23816-1.32432,1.3653-1.11272.36952-1.6661,1.45969-2.461,2.32169-1.70613,1.85-3.94384,2.087-6.27357,2.55533-2.74431.55165-4.197,3.38532-5.98548,5.2346L12.5742,56.41339c-2.71986,2.81231-3.76585,6.10973-1.731,9.60074,1.5674,2.68909,3.13264,5.47926,5.66979,7.32647l5.76426,4.19675,2.88213,2.09837c.47888.34866.955.7015,1.437,1.0459.05207.0372.95443.59938.75459.67506a4.21508,4.21508,0,0,0,1.298-.91977c.64744-.5953,2.26619-1.59919,1.602-2.5977A69.35216,69.35216,0,0,0,17.84824,63.77688c1.16867-1.0191,2.65576-1.30183,4.03747-1.91318a40.40577,40.40577,0,0,0,4.31536-2.23414,44.32091,44.32091,0,0,0,7.73585-5.85785,9.441,9.441,0,0,0,2.46042-3.2066c1.33914-3.34822-1.09491-6.46849-2.95654-9.02a1.29485,1.29485,0,0,0-.6392-.5561,1.18721,1.18721,0,0,0-.49952.00455,7.761,7.761,0,0,0-1.60307.44238c-.18274.68923-.07873.9276-.58539,1.42932-.12441.77161-.16379,1.09978-.79967,1.55422"/><path class="ba69b8f7-5728-49fc-84f6-f61570f8b196" d="M22.21275,26.09027a.56012.56012,0,0,0,.31468.17935.51623.51623,0,0,0,.31547-.11461,4.11328,4.11328,0,0,0,1.25346-1.528,7.12222,7.12222,0,0,0,1.10789-3.81211c-.094-.72586-.58151-.97367-.86569-1.542-.16087-.32174-.20283-.78686-.35582-1.13835-.16931-.389-.34135-.77678-.512-1.16516a8.68466,8.68466,0,0,1-.7175-2.10673,2.63025,2.63025,0,0,1,.27416-1.904c.30906-.37049.81532-.4428.99976-.9672.76075-2.16292-.11918-5.14809-1.116-7.103a5.9552,5.9552,0,0,0-2.2558-2.56042,5.95486,5.95486,0,0,0-2.56853-.66967,7.5545,7.5545,0,0,0-4.62315,1.08141c-2.61693,1.726-2.85573,4.173-2.51374,6.80731.07765.59812.18524,1.2059.30174,1.8171.38322,2.01058,1.05591,6.30216,3.94037,5.89455l2.195-.31018c.49279-.06963.64759.29776.76215.6989a1.28421,1.28421,0,0,1,.04967.249,5.836,5.836,0,0,1-.21126,1.125,3.82732,3.82732,0,0,0,.05717,1.07089,7.79133,7.79133,0,0,0,.72224,2.3447c.42688.83353,1.35883,1.07415,1.91553,1.759A15.98842,15.98842,0,0,0,22.21275,26.09027Z"/><path class="a091b513-330d-4a3b-9ea4-104d6ec0d921" d="M24.65376,20.92892q.26406,1.57228.50291,3.14866.474,3.12025.86872,6.25185c.267,2.0881.51486,4.17859.75617,6.26979.064.55483.89854,6.17165.71105,6.235a24.94261,24.94261,0,0,1-8.405,1.30421q-.44514-2.7421-.78573-5.49982-.89613-7.25538-1.06506-14.57609a17.3658,17.3658,0,0,1,.16744-3.389c.07432-.4258.14427-.8394.20359-1.26824a2.592,2.592,0,0,1,.21346-.83785,2.43235,2.43235,0,0,1,.18871-.29611c.04534-.0637.12424-.13472.19-.09238a.15636.15636,0,0,1,.053.08566,7.19122,7.19122,0,0,0,.46666,1.15379c.14364.25995.20457.66161.45748.84528.62109.45091,1.36389.05634,1.89442-.38853.73542-.61667,1.39866-1.71465,2.18263-2.20625.51136-.32066.42173-.46514.82146.17139C24.5846,18.65076,24.50054,20.01665,24.65376,20.92892Z"/><path class="bc4fbb5e-2551-43bb-a1d1-d6ce6c09c15e" d="M25.12447,16.635c-2.44213-.25635-2.5854,2.345-3.67878,4.03375-.27217.42037-.56315.82819-.854,1.23584-.33562.47037-2.11027,2.34666-1.89424,3.00134a10.933,10.933,0,0,1-.71375-3.23608c-.01608-1.18738.35514-2.36524.24623-3.54772-2.05866.5976-3.20832,4.90761-3.48133,6.75751a15.50023,15.50023,0,0,0,.68106,5.94772c1.10551,4.44,2.21016,8.88571,3.21793,13.3339a12.9118,12.9118,0,0,0,1.60232,4.42416.41769.41769,0,0,1-.45608-.19243l.30281.94252a5.30323,5.30323,0,0,1,1.7766-.60609,25.16174,25.16174,0,0,1,3.22066-.01907c1.78892-.03923,2.18255-.87287,3.45569-1.75152,1.29516-.89385,3.50371-1.11074,4.99466-1.68556-1.244-3.42708-2.40014-6.29811-1.808-10.03162.40878-2.57725.22644-5.10781.58325-7.63274a23.22731,23.22731,0,0,0-.33024-8.091C31.41027,16.83946,27.46181,16.88031,25.12447,16.635Z"/><path class="f250957c-eaa1-4cd2-bda7-ff10c49e4540" d="M18.93181,27.338q-.00184-.11046-.003-.22011a9.22225,9.22225,0,0,0-.74571-3.41066.90014.90014,0,0,0-.34469-.51053c.32361,2.01674.06516,4.00809.21725,6.01847.43977,5.813,1.89563,11.46246,2.04444,17.3002a.2144.2144,0,0,0,.041.14579.22758.22758,0,0,0,.16475.05,1.87429,1.87429,0,0,0,.7737-.15215.30661.30661,0,0,0,.15771-.1185.29778.29778,0,0,0,.02037-.16444c-.08491-1.18431-.43036-2.39624-.60678-3.57654-.276-1.84678-.5521-3.69371-.78859-5.54609-.23871-1.86979-.4369-3.74457-.61479-5.62122a22.21393,22.21393,0,0,1,.02959-6.54036,3.85838,3.85838,0,0,0,.0551-1.1235,3.0025,3.0025,0,0,0-.79585,1.6723,7.17741,7.17741,0,0,0-.60685-2.09993"/><g class="a785f212-74b7-4d23-b534-8f78776380e8"><path class="bbd7f4ec-77b4-4e93-8a4d-bf483f9c09c9" d="M28.87412,21.92829a17.15633,17.15633,0,0,1-2.08185,2.62377,11.6898,11.6898,0,0,0-1.19545,1.76737C24.4187,28.31811,23.63133,30.504,22.40634,32.478a2.39433,2.39433,0,0,1-.929.97262c-.86829.41586-2.1416.00228-3.0404-.134-.763-.11565-1.03483-.09414-.41382.46884,1.47539,1.33748,3.39506,2.83959,5.51416,3.09342a6.76918,6.76918,0,0,0,3.78176-.72417,5.02046,5.02046,0,0,0,1.39115-1.12868c.4257-.44056.95018-.783,1.37651-1.23254a9.41055,9.41055,0,0,0,2.00518-3.2238,17.75273,17.75273,0,0,0,.81446-8.06014c-.08328-.74684-.383-1.4968-.43054-2.23371-.04267-.66188.061-1.21492-.483-1.73692-.60855-.58392-1.14619.45519-1.38084.86173C30.10182,20.28445,29.38875,21.04342,28.87412,21.92829Z"/></g><path class="bbe1a7c3-651e-4306-b0ab-7ee39a4ae3fd" d="M32.41011,40.67856a8.4816,8.4816,0,0,0,.47948,1.05864c.0873.13121.50477.4991.33775.66048a7.61894,7.61894,0,0,1-.60916.55367,11.03243,11.03243,0,0,1-2.26207,1.21819q-1.402.63719-2.8701,1.1427A33.04385,33.04385,0,0,1,21.5997,46.7513c-.65507.09744-1.5664.44517-2.10273-.00963-.484-.41041-.62808-2.36158-.72731-2.98089a6.98611,6.98611,0,0,0,1.65409.237,15.5339,15.5339,0,0,0,2.31856-.289,24.4037,24.4037,0,0,0,8.459-3.54056c.19771-.12319.39843-.44323.65827-.3985C32.1208,39.81472,32.3261,40.49583,32.41011,40.67856Z"/><path class="ba69b8f7-5728-49fc-84f6-f61570f8b196" d="M12.64359,27.7518c-.0038-1.34878-.95558-2.12713-1.69155-3.34487-.58367-.96593-1.423-1.81581-1.44757-.14.00029-.01919-.95642-.66125-1.07216-.77847-.35667-.36124-.59708-.83458-1.10215-1.01363a1.43132,1.43132,0,0,0-1.5059.3954,1.963,1.963,0,0,0-.27959,2.29513c.70175,1.20489,5.26876,6.10319,6.72941,4.052a1.75029,1.75029,0,0,0,.24872-.57983A3.45912,3.45912,0,0,0,12.64359,27.7518Z"/><path class="f250957c-eaa1-4cd2-bda7-ff10c49e4540" d="M25.689,24.37981a21.113,21.113,0,0,1,2.40455-4.63629c.93827-1.18248,2.58915-2.08509,3.63454-.54022.79036,1.16807.52625,2.72855.18631,4.09731A21.75889,21.75889,0,0,1,30.36107,28.137a39.49647,39.49647,0,0,1-2.6225,4.50763c-.98491,1.405-1.81232,3.60471-3.65381,4.05118a8.2382,8.2382,0,0,1-5.09392-.84183c-1.51165-.64288-2.70186-1.74276-4.19208-2.40684-1.65864-.73914-2.45939-1.94108-3.895-2.91213-.58724-.3972-1.34768-.486-1.93409-.83128.66363.34814,3.17958-3.61561,3.42991-4.12866.88286.90224,1.21113,1.8063,2.39275,2.476,1.846,1.04625,3.90331,1.82964,5.82538,2.73064.98653.46245,1.15115.86177,1.93227.1101a9.01481,9.01481,0,0,0,.94718-2.0996C24.21991,27.31723,25.03225,25.887,25.689,24.37981Z"/><g class="a0c9f51c-c55a-48e9-9c29-4486cff754fb"><path class="bf77bf02-57bf-4f45-aff8-a2cced63ea39" d="M12.44336,7.98338a4.74147,4.74147,0,0,0,1.452-.87738,9.60818,9.60818,0,0,0-1.90944-.29034,3.86452,3.86452,0,0,0-1.08457.01119,1.30387,1.30387,0,0,0-.88657.57374,1.79338,1.79338,0,0,0-.1519,1.01866,6.56,6.56,0,0,0,.32362,1.96508A4.64339,4.64339,0,0,1,12.44336,7.98338Z"/><path class="bf77bf02-57bf-4f45-aff8-a2cced63ea39" d="M16.9343,17.31421c.08529-.2862,1.21947-.65694,1.497-.82023a12.09536,12.09536,0,0,0,2.79188-2.2605,6.019,6.019,0,0,1-1.03739,3.11916,8.82178,8.82178,0,0,1-.9123.9977c-.15736.15284-.45158.47957-.66908.31538a.81632.81632,0,0,1-.15886-.17831c-.15306-.21007-.16008-.35192-.4293-.35734-.09334-.00188-.66322-.05093-.66322-.20114C17.17792,17.80931,16.85892,17.56749,16.9343,17.31421Z"/></g><path class="b8febb50-23c2-4cbf-aa4a-132f9afc3798" d="M11.18528,3.43867A7.41092,7.41092,0,0,1,13.39919,1.1143C13.65242.95348,16.50829-.39078,16.41262.288a.49108.49108,0,0,1-.10523.19837,1.03879,1.03879,0,0,0-.18351.5931C16.40868.417,17.20352.17046,17.90422,0c.29677,1.78006,2.70136,1.33185,3.86886,2.08615a6.10168,6.10168,0,0,1,2.32576,2.75257c1.1105,2.6781.26866,5.52989-.23828,8.26241a3.58112,3.58112,0,0,1-.33008,1.1974.93276.93276,0,0,1-1.288.3755c-.69789-.41863.05332.51618-.63891.08859a1.3992,1.3992,0,0,1-.3044-.28516c-.50527-.57855-.98927-1.19108-1.5428-1.724-.46027-.44316-.51393-.62311-.10142-1.20071A2.36589,2.36589,0,0,0,20.063,9.81735a.7708.7708,0,0,0-.207-.46014c-.2697-.24474-.71551-.10059-1.00149.12718-.85412.68028-.85428.8915-1.3179-.25278C17.27393,8.58308,15.06,7.98037,14.351,7.6033c-.9049-.48084-2.13289.00113-3.08389-.40136C9.8653,6.60867,10.58207,4.412,11.18528,3.43867Z"/><path class="f250957c-eaa1-4cd2-bda7-ff10c49e4540" d="M16.28159,54.18583a23.70444,23.70444,0,0,0-2.87018,1.43778,14.84682,14.84682,0,0,0,2.83147-2.654,29.78514,29.78514,0,0,1,2.92-2.66651,62.80248,62.80248,0,0,1,7.45258-5.13988c1.81939-1.07342,3.84039-2.56548,6.07714-1.98684a4.26866,4.26866,0,0,1,3.15964,4.60677,3.85743,3.85743,0,0,1-2.05477,3.37967c-1.68533.67164-3.86648.17565-5.63347.26084a32.74588,32.74588,0,0,0-7.12385,1.14081A38.48629,38.48629,0,0,0,16.28159,54.18583Z"/><path class="b890966a-05d3-4afa-b918-c2f49f7e8e31" d="M13.4279,1.90618c.81582-.474,1.69026-.85051,2.46117-1.39449a6.8994,6.8994,0,0,0-1.69462,2.60472c-.29478,1.05829-.82043,4.5218-2.79426,3.20312C9.64426,5.14641,12.39216,2.50791,13.4279,1.90618Z"/><path class="bf77bf02-57bf-4f45-aff8-a2cced63ea39" d="M17.26686,1.14687a10.1656,10.1656,0,0,0-1.028,1.40884,5.67958,5.67958,0,0,0-.5392,3.611c.10515,1.05268-.8833,1.16672-1.3279.289C13.42752,4.59155,15.66916,1.82858,17.26686,1.14687Z"/><path class="f9055918-23f3-4f38-850e-1b0d6ae78cc2" d="M18.6636,2.17677a1.88724,1.88724,0,0,0,2.28093.852.54973.54973,0,0,0,.33387-.61631c-.22363-.726-1.39421-.26234-1.91392-.35353A2.14023,2.14023,0,0,1,17.80258.51169,5.17134,5.17134,0,0,0,18.6636,2.17677Z"/><path class="b890966a-05d3-4afa-b918-c2f49f7e8e31" d="M16.57086.98249a1.93331,1.93331,0,0,0-.12792.6897,2.78592,2.78592,0,0,0,1.90673,2.4047A3.74357,3.74357,0,0,1,17.47158,2.597a2.43934,2.43934,0,0,1-.037-1.43964c.09194-.2435.5233-.75094.08891-.93388C17.07178.03334,16.74094.50429,16.57086.98249Z"/><path class="f9055918-23f3-4f38-850e-1b0d6ae78cc2" d="M24.26168,10.627a3.67424,3.67424,0,0,0-.87459.97772,3.51366,3.51366,0,0,0-.80893,1.95044c.01774.26384.34861.93818.70245.70166.268-.17917.15314-1.47378.2229-1.80575C23.60322,11.97648,23.838,10.92582,24.26168,10.627Z"/><path class="bf77bf02-57bf-4f45-aff8-a2cced63ea39" d="M22.63944,11.25177c.12083-.09483.24512-.1866.36748-.289a2.78277,2.78277,0,0,0,.8236-1.3102A7.09872,7.09872,0,0,0,24.09061,8.109a1.17148,1.17148,0,0,0-.022-.45546.40821.40821,0,0,0-.31732-.296c-.19292-.02122-.354.14178-.46347.30205a7.80929,7.80929,0,0,0-.70344,2.42009,16.08,16.08,0,0,1-.72649,1.918c-.0602.14056-.18333.32982-.155.4689-.0422-.207.3976-.68753.52608-.83694A2.82035,2.82035,0,0,1,22.63944,11.25177Z"/><path class="a65e0fd9-8005-4461-8e47-a8a8158fc40a" d="M56.74337,84.31512a3.53743,3.53743,0,0,1,1.43011-1.59741,2.80434,2.80434,0,0,1,2.58456.33478,1.71138,1.71138,0,0,1,.77742.69857,2.1988,2.1988,0,0,1,.16621.99624,9.90847,9.90847,0,0,1-1.27055,4.72742A5.39644,5.39644,0,0,1,58.231,91.77619a2.14763,2.14763,0,0,1-2.68554-.45093c-.61829-.87073-.35178-2.17827-.06139-3.31763a4.74707,4.74707,0,0,0,.31-1.70663,1.71246,1.71246,0,0,1-.02629-.398c.02906-.25058.32493-.47216.45711-.68866C56.40509,84.91925,56.56369,84.61082,56.74337,84.31512Z"/><path class="bf77bf02-57bf-4f45-aff8-a2cced63ea39" d="M18.79865,10.25a.38176.38176,0,0,1,.222-.25494.405.405,0,0,1,.4401-.0296.30183.30183,0,0,1,.06187.34335.80217.80217,0,0,1-.23623.28511,1.9058,1.9058,0,0,0-.60348.68291c-.03394.08715-.03841.21111.04724.24867a.15778.15778,0,0,0,.151-.03c.16315-.11921.16-.33893.21694-.51368.0697-.214.25028-.34334.328-.5616"/><path class="b1c49c1a-76ed-4831-aec6-5d6893f2cff6" d="M25.54051,17.82008a3.23308,3.23308,0,0,1,.32-.5693,7.791,7.791,0,0,0-.97782,2.79812.1556.1556,0,0,0,.02517.1201.20067.20067,0,0,0,.08713.04794,3.15361,3.15361,0,0,0,1.88206-.14026,3.11037,3.11037,0,0,0,.725-.28909,2.86933,2.86933,0,0,0,.87349-1.01052,2.34206,2.34206,0,0,1,.9369-.959,1.68525,1.68525,0,0,1,1.20083-.039,1.64646,1.64646,0,0,1,.55549.26334,3.25929,3.25929,0,0,1,1.00179,1.61126c.12781.47826.018.99225.12655,1.44561.2881-.08258.22309-.86695.21872-1.08758a2.62709,2.62709,0,0,0-.282-1.212,4.71438,4.71438,0,0,0-1.328-1.5084,4.56821,4.56821,0,0,0-4.08448-.77947,1.83608,1.83608,0,0,0-.572.28456,1.78675,1.78675,0,0,0-.344.39337q-.12195.17586-.23154.35787c-.0108.01795-.01988.0433-.00113.05573s.03567-.02983.01377-.02249"/><path class="efd92f92-12aa-4e15-853c-b11aad42bdac" d="M28.39291,18.04186a2.87039,2.87039,0,0,1-1.27829-.02773.694.694,0,0,1-.4187-.27074.41615.41615,0,0,1-.04445-.26464.81209.81209,0,0,1,.41293-.55142,1.99112,1.99112,0,0,1,.73036-.2345,7.03016,7.03016,0,0,1,1.21656-.04671,3.13391,3.13391,0,0,1,2.48592,1.31661c.01846.03.03534.06882.011.09518a5.95926,5.95926,0,0,0-1.26622-.493,1.63954,1.63954,0,0,0-.84276.20534A5.4196,5.4196,0,0,1,28.39291,18.04186Z"/><path class="eaf5bf85-23bb-44dd-a645-4148109e0689" d="M28.35692,18.38268a2.55385,2.55385,0,0,0-.82573,1.60443.47371.47371,0,0,0,.22459-.16432c.53227-.61038.797-1.41611,1.51765-1.86073a1.51859,1.51859,0,0,1,1.43216-.04286,1.8636,1.8636,0,0,1,.55171.24557,1.96129,1.96129,0,0,1,.54166.8865,12.63671,12.63671,0,0,1,.40879,1.5621,1.14072,1.14072,0,0,0,.09279.34126,1.54645,1.54645,0,0,0-.0174-1.00633,4.73028,4.73028,0,0,0-.51164-1.41615,2.01431,2.01431,0,0,0-1.28185-.93369,1.97835,1.97835,0,0,0-1.29813.209A3.559,3.559,0,0,0,28.35692,18.38268Z"/><path class="f250957c-eaa1-4cd2-bda7-ff10c49e4540" d="M29.86421,19.12079a.42736.42736,0,0,0,.15029-.02453.31071.31071,0,0,0,.147-.28726.91683.91683,0,0,0-.08014-.58734,1.26925,1.26925,0,0,0-.92821-.40212c-1.02738-.13339-4.4683-.571-4.79681.80267-.23494.98247,1.44171.67267,2.04127.647Z"/><path class="bc4fbb5e-2551-43bb-a1d1-d6ce6c09c15e" d="M28.19083,19.1646a1.12794,1.12794,0,0,0,.72377-.12376,1.09946,1.09946,0,0,0,.64642-.58947,1.231,1.231,0,0,0,.025-.37494.07108.07108,0,0,1,.01825-.05972c.032-.02642.08424-.00166.11842.02312a1.55208,1.55208,0,0,1,.29753.25821.456.456,0,0,1,.11758.3412.51579.51579,0,0,1-.30988.35827,1.93668,1.93668,0,0,1-.51218.1386l-.71614.12532a.11549.11549,0,0,1-.06507-.00127c-.01981-.00864-.02967-.03519-.01228-.04684"/></svg>