<svg id="bfdf0230-5ab6-4f0d-9530-3220dffb6b28" data-name="Layer 1" xmlns="http://www.w3.org/2000/svg" xmlns:xlink="http://www.w3.org/1999/xlink" viewBox="0 0 70.89862 98.19115" preserveAspectRatio="none" ><defs><style>.b875b7a6-062c-4425-af21-84db49bdad24{fill:none;}.b4bf8937-d56b-408c-8b5a-857dad3ba38c,.e8140a72-f204-4902-8013-f30c18d9af2b{fill:#414042;}.e8140a72-f204-4902-8013-f30c18d9af2b{opacity:0.48;}.f643339c-4954-4d36-a111-1f6235171737{fill:#f6d2ba;}.a56baca9-5b2e-4c70-9df7-d665e3d177e6{fill:#566345;}.e2d1d603-db9b-4633-a611-31a20b3a3b44{clip-path:url(#fb1a341f-4fb6-475f-9b4c-1e6d864c6faa);}.b4457cd0-ad9a-44af-b288-b563e6309055{fill:#4c5939;}.bb541afa-566b-46cb-acca-ce36550edabc{fill:#1a242d;}.a47bffa2-96ad-4fb4-8a38-fb5aaf1504cc{clip-path:url(#faeb1033-f643-40ee-834b-88403750c2c8);}.ae04b1a6-ecac-4055-b00b-043dda7286fd{fill:#e0bba6;}.b738bb1b-dd8e-4f9d-8cdf-eb4fb203704c{fill:#fff;}.b5de04d9-1cc7-4746-9e4a-84ed98495987{fill:#63774e;}.bf0aff64-70fb-48b5-b3c3-3ade8cdc6e9e{clip-path:url(#e1e62a2b-9214-4a5b-a87c-eaf0d8ad44b5);}.b68490f3-3dac-4d67-ac52-ce50b7b65b8a{fill:#6f825a;}.ec2c7d07-700e-4480-9f92-2456918ebaf8{fill:#938c6c;}.b43a5f0d-6fed-49c7-a10e-b06901b23542{clip-path:url(#a1a3c683-aff5-4723-9354-922789a21508);}.aa824924-2ae5-427f-a35f-54c08c1e8619{fill:#ce955a;}.a3a1aafb-6118-44db-a31d-045dad148913{clip-path:url(#b1fcf1f4-ce0e-495a-a6d8-510423e09b07);}.a0e7714e-f829-4cb6-ae6a-1078a5dcafa8{fill:#aa7d57;}.bee42b72-f35a-4630-93ff-fe7a5fb5a7a8{fill:#fcc184;}.a44d8c5f-22af-4f1d-b6c6-ac686b855514{fill:#e8a664;}.b5833c7a-c103-4dbb-99d6-cf47fbf29246{clip-path:url(#ebbcdeb7-4788-4283-84d2-53167b93d5b7);}.e831149e-5f1d-44b9-ba42-07738f61431b{clip-path:url(#ae4be7e0-fe8d-4b40-968c-f3d2b29779d4);}.f06296d6-caa3-4c16-b1c9-15edc4ececf7{fill:#758c58;}.b8032e7d-f08d-41a3-8988-d16043902537{fill:#81975e;}.a441e085-b883-4823-92fa-bf2c5aa80085{fill:#424143;}</style><clipPath id="fb1a341f-4fb6-475f-9b4c-1e6d864c6faa"><path class="b875b7a6-062c-4425-af21-84db49bdad24" d="M27.25646,25.6052a21.113,21.113,0,0,1-4.63629-2.40455c-1.18248-.93827-2.08509-2.58915-.54022-3.63454,1.16807-.79036,2.72855-.52625,4.09731-.18631a21.75889,21.75889,0,0,1,4.83634,1.55332,39.49733,39.49733,0,0,1,4.50763,2.6225c1.405.98491,3.60471,1.81232,4.05118,3.65381a8.2382,8.2382,0,0,1-.84183,5.09392c-.64288,1.51165-1.74276,2.70186-2.40685,4.19208-.73913,1.65864-1.94107,2.45939-2.91212,3.895-.3972.58724-.486,1.34768-.83128,1.9341.34814-.66363-3.61561-3.17959-4.12866-3.42992.90224-.88286,1.8063-1.21113,2.476-2.39275,1.04625-1.846,1.82964-3.90331,2.73063-5.82538.46245-.98653.86178-1.15115.11011-1.93227a9.01522,9.01522,0,0,0-2.0996-.94718C30.19388,27.07428,28.76366,26.26194,27.25646,25.6052Z"/></clipPath><clipPath id="faeb1033-f643-40ee-834b-88403750c2c8"><path class="b875b7a6-062c-4425-af21-84db49bdad24" d="M24.16131,20.59145c-.86484.00889-1.34741-.74-1.55836-1.468a11.22949,11.22949,0,0,1-.37957-2.20968c-.08521-1.03909.894-1.28313,1.202-2.177.15777-.45795.37289-.8946.52857-1.35327A14.54988,14.54988,0,0,0,24.32557,9.598a6.02495,6.02495,0,0,0-.92385-3.06826,6.28549,6.28549,0,0,0-2.38086-2.70238,6.28539,6.28539,0,0,0-2.71094-.7068,7.97345,7.97345,0,0,0-4.87947,1.14137c-2.762,1.82173-3.01406,4.40435-2.6531,7.18473.08195.63128.1955,1.27275.31845,1.91782a12.00936,12.00936,0,0,0,1.35058,4.20728,4.20375,4.20375,0,0,0,2.24347,1.81677,5.927,5.927,0,0,0,2.882-.13012c.27008-.03811.53909-.04226.81342-.08893.01721.38252.17.74157.16988,1.119-.00016.3705-.02623.74659-.057,1.11643a15.34576,15.34576,0,0,0-.15222,1.61166,5.06613,5.06613,0,0,0,.68182,2.03475c.45054.87974,1.43417,1.13369,2.02173,1.85654A16.87657,16.87657,0,0,0,22.66459,28.907a.59124.59124,0,0,0,.33214.1893.54492.54492,0,0,0,.333-.121,4.34118,4.34118,0,0,0,1.323-1.61273A7.51707,7.51707,0,0,0,25.822,23.33911c-.09923-.76611-.61375-1.02765-.91368-1.62749-.1467-.29339-.09222-1.00688-.4715-1.11431A.97226.97226,0,0,0,24.16131,20.59145Z"/></clipPath><clipPath id="e1e62a2b-9214-4a5b-a87c-eaf0d8ad44b5"><path class="b875b7a6-062c-4425-af21-84db49bdad24" d="M14.92153,27.70359a7.02688,7.02688,0,0,0-.70892,4.83851,6.41561,6.41561,0,0,0,.65037,1.86379c.28328.45567.70212.81071.97618,1.29809.86793,1.54352.97808,3.24807,1.41728,4.90968.49236,1.86274.96537,3.73081,1.39111,5.61.3957,1.74653,1.00028,3.43269,1.51022,5.14939-.1126-.37906,1.525-.55237,1.71544-.58123a25.16356,25.16356,0,0,1,3.22066-.01907c1.78892-.03923,2.18255-.87286,3.45569-1.75152,0-.57551,3.34413-1.18934,3.79532-1.31275.74429-.20356.8713-.2475,1.02665-.97909.16815-.79183.26805-1.60493.40137-2.40347a2.28061,2.28061,0,0,0-.38039-2.04465c-.97923-1.61752-1.90237-3.23679-2.85343-4.85149a6.99223,6.99223,0,0,1-.87741-2.37276,9.46921,9.46921,0,0,1-.15105-2.46269q.22139-2.08763.6418-4.14769c.13957-.68378.34621-1.361.46907-2.04662a10.37289,10.37289,0,0,0,.08169-1.78129c.04337-1.88151-.03606-3.94532-1.32019-5.14868-1.02772-.96308-2.91888-.6321-4.25864-.77266-2.442-.25626-2.5853,2.34505-3.67866,4.03376-.27217.42037-.56315.82819-.854,1.23584-.33562.47037-2.11027,2.34666-1.89424,3.00135a10.933,10.933,0,0,1-.71375-3.23613,10.03667,10.03667,0,0,1,.65721-3.55006c.02641-.07524-.63272.03681-.68464.05908a3.08171,3.08171,0,0,0-.44616.27433,2.87765,2.87765,0,0,0-.71768.69823A5.8431,5.8431,0,0,0,15.93,23.26811,26.462,26.462,0,0,1,14.92153,27.70359Z"/></clipPath><clipPath id="a1a3c683-aff5-4723-9354-922789a21508"><path class="b875b7a6-062c-4425-af21-84db49bdad24" d="M30.06536,45.52992c-.57839.70264,6.026,4.8863,6.484,5.73036,1.07442,1.97974,1.06733,5.2576,1.33,7.45181a36.43441,36.43441,0,0,1,.01228,10.62436c3.38629,2.10137,7.07782,3.55622,10.27446,6.02515,3.5472,2.73969,6.53333,6.15964,10.30911,8.61262.40272.26161-1.50168,3.836-1.90138,4.01737-2.582,1.1714-7.00928-3.55636-9.28467-4.53045A73.36242,73.36242,0,0,1,35.481,77.41422a20.55528,20.55528,0,0,1-2.33286-1.74569c-4.37779-3.9252-4.56624-10.12654-6.48454-15.30264a23.53287,23.53287,0,0,0-1.57086-3.4695c-.50071-.88064-2.03723-1.98978-2.3299-2.72067-.83447-2.084,1.55336-2.86684,2.98419-3.90364A25.40368,25.40368,0,0,0,30.06536,45.52992Z"/></clipPath><clipPath id="b1fcf1f4-ce0e-495a-a6d8-510423e09b07"><path class="b875b7a6-062c-4425-af21-84db49bdad24" d="M27.063.07283A3.78233,3.78233,0,0,1,30.93679,1.726a28.12235,28.12235,0,0,1,2.8606,4.99192A21.04835,21.04835,0,0,0,35.343,9.564a6.32731,6.32731,0,0,0,1.0634,1.19434c.27685.23493,1.4962.63587,1.1461,1.16174-.3775.56666-1.464.69215-2.07849.72817a11.71289,11.71289,0,0,1-1.32377.0026c-.33317-.0182-.92989-.21489-1.24074-.09036-.58124.23285-.28926,1.09188-1.14945.97919a6.27745,6.27745,0,0,1-5.23269-4.44129,2.61261,2.61261,0,0,0-.6883-1.2339c-.388-.31411-.91252-.38176-1.31728-.67293.31317-.24271-.62357-1.4114-.79715-1.75943a3.3433,3.3433,0,0,1-.41734-2.18021A4.67594,4.67594,0,0,1,27.063.07283Z"/></clipPath><clipPath id="ebbcdeb7-4788-4283-84d2-53167b93d5b7"><path class="b875b7a6-062c-4425-af21-84db49bdad24" d="M20.54363,16.65882a4.48848,4.48848,0,0,1-1.89289-1.456,2.35694,2.35694,0,0,1-.13645-2.489,2.40266,2.40266,0,0,0,.64326-1.66278.88161.88161,0,0,0-.75889-.85447c-.63851-.01407-.8407.65454-1.18226,1.045-.7884.90137-1.50365-.12885-2.179-.49083a2.79766,2.79766,0,0,0-.76139-.23622c-.634-.13205-1.28113-.20955-1.92109-.30678a4.56236,4.56236,0,0,0-.93789-.159.63174.63174,0,0,0-.38073.19962c-.05452.05605-.20234.428-.23736.43663-.32565.08041-.6683-1.28867-.72488-1.53281A5.3273,5.3273,0,0,1,9.9565,7.40839a4.00484,4.00484,0,0,1,1.68313-2.93431c.73219-.49982,2.81837-.61037,3.54155-1.14524C16.62643,2.25992,19.428,2.38758,21.018,3.104c2.487,1.12048,3.80648,3.68308,4.29375,6.25081a8.80438,8.80438,0,0,1,.07819,3.52,5.63274,5.63274,0,0,1-2.10843,2.80915c-.32454.22419-.684.39891-.98549.65325a2.69587,2.69587,0,0,1-.59248.46019,1.1568,1.1568,0,0,1-.89318-.02431C20.72245,16.73751,20.6333,16.69943,20.54363,16.65882Z"/></clipPath><clipPath id="ae4be7e0-fe8d-4b40-968c-f3d2b29779d4"><path class="b875b7a6-062c-4425-af21-84db49bdad24" d="M36.80356,47.27583A13.80758,13.80758,0,0,0,35.77426,45.05a8.43954,8.43954,0,0,0-1.07654-1.51535,7.30848,7.30848,0,0,0-.88048-.776.3415.3415,0,0,0-.371-.06758,5.44887,5.44887,0,0,1-.53279.1505c-.18.02647-.36927.03014-.552.05869a8.15091,8.15091,0,0,0-2.22431.80844c-2.25985,1.1629-4.10685,2.86638-6.25819,4.151-3.40294,2.032-5.99283,5.12358-8.71247,7.9357L12.5742,58.47585c-2.71986,2.8123-3.76585,6.10972-1.731,9.60073,1.5674,2.6891,3.13264,5.47926,5.66979,7.32647L22.2772,79.5998l2.88213,2.09837c.47888.34866.955.70151,1.437,1.0459.05207.03721.95443.59938.75459.67506a4.21508,4.21508,0,0,0,1.298-.91977c.64744-.59529,2.26619-1.59919,1.602-2.5977A69.35211,69.35211,0,0,0,17.84824,65.83934c1.16867-1.01911,2.65576-1.30184,4.03747-1.91319A40.40393,40.40393,0,0,0,26.20107,61.692a44.32036,44.32036,0,0,0,7.73585-5.85784C36.3124,53.59118,38.072,50.57223,36.80356,47.27583Z"/></clipPath></defs><ellipse class="e8140a72-f204-4902-8013-f30c18d9af2b" cx="48.37277" cy="94.10567" rx="22.52585" ry="4.08548"/><path class="f643339c-4954-4d36-a111-1f6235171737" d="M30.62845,38.72241c-1.34878.0038-2.12713.95558-3.34487,1.69155-.96593.58367-1.81581,1.423-.14,1.44757-.01918-.00029-.66124.95642-.77846,1.07216-.36124.35667-.83458.59708-1.01363,1.10215a1.43133,1.43133,0,0,0,.39539,1.5059,1.963,1.963,0,0,0,2.29514.27959c1.20489-.70175,6.10319-5.26876,4.052-6.72941a1.75,1.75,0,0,0-.57983-.24872A3.45918,3.45918,0,0,0,30.62845,38.72241Z"/><path class="a56baca9-5b2e-4c70-9df7-d665e3d177e6" d="M27.25646,25.677a21.113,21.113,0,0,1-4.63629-2.40455c-1.18248-.93828-2.08509-2.58915-.54022-3.63454,1.16807-.79037,2.72855-.52625,4.09731-.18631a21.75889,21.75889,0,0,1,4.83634,1.55332,39.49733,39.49733,0,0,1,4.50763,2.6225c1.405.98491,3.60471,1.81232,4.05118,3.65381a8.2382,8.2382,0,0,1-.84183,5.09392c-.64288,1.51165-1.74276,2.70186-2.40685,4.19208-.73913,1.65864-1.94107,2.45939-2.91212,3.89505-.3972.58723-.486,1.34768-.83128,1.93409.34814-.66363-3.61561-3.17958-4.12866-3.42991.90224-.88286,1.8063-1.21113,2.476-2.39275,1.04625-1.846,1.82964-3.90331,2.73063-5.82538.46245-.98653.86178-1.15115.11011-1.93227a9.01481,9.01481,0,0,0-2.0996-.94718C30.19388,27.14609,28.76366,26.33375,27.25646,25.677Z"/><g class="e2d1d603-db9b-4633-a611-31a20b3a3b44"><path class="b4457cd0-ad9a-44af-b288-b563e6309055" d="M33.022,30.42667a2.078,2.078,0,0,1-.836.07108,5.58535,5.58535,0,0,1-2.86415-.67276c-1.07557-.719-1.42937-2.02919-2.03036-3.09047a5.84182,5.84182,0,0,1-.922-3.779,3.92583,3.92583,0,0,1,.62394-1.37127,3.71732,3.71732,0,0,1,2.058-1.50985c1.04112-.25466,1.563.49389,2.18645,1.22327a12.34727,12.34727,0,0,1,1.62788,2.44794C33.58709,25.17151,35.45933,29.51665,33.022,30.42667Z"/></g><path class="bb541afa-566b-46cb-acca-ce36550edabc" d="M56.74337,86.37757a3.53748,3.53748,0,0,1,1.43011-1.59741,2.80437,2.80437,0,0,1,2.58456.33478,1.71138,1.71138,0,0,1,.77742.69857,2.19882,2.19882,0,0,1,.16621.99625,9.90843,9.90843,0,0,1-1.27055,4.72741A5.39646,5.39646,0,0,1,58.231,93.83865a2.14763,2.14763,0,0,1-2.68554-.45094c-.61829-.87073-.35178-2.17827-.06139-3.31763a4.74707,4.74707,0,0,0,.31-1.70663,1.71242,1.71242,0,0,1-.02629-.398c.02906-.25057.32493-.47215.45711-.68865C56.40509,86.9817,56.56369,86.67327,56.74337,86.37757Z"/><path class="bb541afa-566b-46cb-acca-ce36550edabc" d="M28.73452,81.64911a3.70845,3.70845,0,0,1,1.88482-1.12988,2.77211,2.77211,0,0,1,2.384,1.0788,1.67518,1.67518,0,0,1,.52734.90363,2.24249,2.24249,0,0,1-.156,1.01356,10.36664,10.36664,0,0,1-2.7244,4.2084A5.65184,5.65184,0,0,1,27.8,89.31071a2.12287,2.12287,0,0,1-2.44438-1.2208c-.31938-1.02394.35234-2.21272.99371-3.23161a4.95013,4.95013,0,0,0,.84033-1.56265,1.75962,1.75962,0,0,1,.101-.39322c.10752-.23424.4629-.36251.659-.53364C28.21686,82.13556,28.46756,81.88309,28.73452,81.64911Z"/><path class="a56baca9-5b2e-4c70-9df7-d665e3d177e6" d="M30.06536,45.52992c-.57839.70264,6.026,4.8863,6.484,5.73036,1.07442,1.97974,1.06733,5.2576,1.33,7.45181a36.43441,36.43441,0,0,1,.01228,10.62436c3.38629,2.10137,7.07782,3.55622,10.27446,6.02515,3.5472,2.73969,6.53333,6.15964,10.30911,8.61262.40272.26161-1.50168,3.836-1.90138,4.01737-2.582,1.1714-7.00928-3.55636-9.28467-4.53045A73.36242,73.36242,0,0,1,35.481,77.41422a20.55528,20.55528,0,0,1-2.33286-1.74569c-4.37779-3.9252-4.56624-10.12654-6.48454-15.30264a23.53287,23.53287,0,0,0-1.57086-3.4695c-.50071-.88064-2.03723-1.98978-2.3299-2.72067-.83447-2.084,1.55336-2.86684,2.98419-3.90364A25.40368,25.40368,0,0,0,30.06536,45.52992Z"/><path class="f643339c-4954-4d36-a111-1f6235171737" d="M24.16131,20.59145c-.86484.00889-1.34741-.74-1.55836-1.468a11.22949,11.22949,0,0,1-.37957-2.20968c-.08521-1.03909.894-1.28313,1.202-2.177.15777-.45795.37289-.8946.52857-1.35327A14.54988,14.54988,0,0,0,24.32557,9.598a6.02495,6.02495,0,0,0-.92385-3.06826,6.28549,6.28549,0,0,0-2.38086-2.70238,6.28539,6.28539,0,0,0-2.71094-.7068,7.97345,7.97345,0,0,0-4.87947,1.14137c-2.762,1.82173-3.01406,4.40435-2.6531,7.18473.08195.63128.1955,1.27275.31845,1.91782a12.00936,12.00936,0,0,0,1.35058,4.20728,4.20375,4.20375,0,0,0,2.24347,1.81677,5.927,5.927,0,0,0,2.882-.13012c.27008-.03811.53909-.04226.81342-.08893.01721.38252.17.74157.16988,1.119-.00016.3705-.02623.74659-.057,1.11643a15.34576,15.34576,0,0,0-.15222,1.61166,5.06613,5.06613,0,0,0,.68182,2.03475c.45054.87974,1.43417,1.13369,2.02173,1.85654A16.87657,16.87657,0,0,0,22.66459,28.907a.59124.59124,0,0,0,.33214.1893.54492.54492,0,0,0,.333-.121,4.34118,4.34118,0,0,0,1.323-1.61273A7.51707,7.51707,0,0,0,25.822,23.33911c-.09923-.76611-.61375-1.02765-.91368-1.62749-.1467-.29339-.09222-1.00688-.4715-1.11431A.97226.97226,0,0,0,24.16131,20.59145Z"/><g class="a47bffa2-96ad-4fb4-8a38-fb5aaf1504cc"><path class="ae04b1a6-ecac-4055-b00b-043dda7286fd" d="M21.157,16.5949a6.019,6.019,0,0,1-1.03739,3.11916,8.82124,8.82124,0,0,1-.91225.99764c-.14371.13958-.64041.43639-.64056.66035a6.11044,6.11044,0,0,0-.0209-.68165c-.05566-.0855-.29706.18015-.39878.16555a1.43009,1.43009,0,0,1-.7001-.40484c-.16934-.1475-.66138-.49828-.57887-.77548.08529-.2862,1.21947-.65694,1.497-.82024A12.09574,12.09574,0,0,0,21.157,16.5949Z"/><path class="ae04b1a6-ecac-4055-b00b-043dda7286fd" d="M13.32583,10.3784c.1132-.03471.25232-.10549.23636-.2228a.23473.23473,0,0,0-.10061-.13946,2.67031,2.67031,0,0,0-1.41669-.4622,1.43618,1.43618,0,0,0-1.30645.33489,1.3655,1.3655,0,0,0-.22764.7527,1.914,1.914,0,0,0,.25469,1.3911,2.88525,2.88525,0,0,1,1.0413-1.04409A7.72885,7.72885,0,0,1,13.32583,10.3784Z"/></g><path class="b738bb1b-dd8e-4f9d-8cdf-eb4fb203704c" d="M17.40427,22.736a4.2184,4.2184,0,0,1,.48043-1.4206,3.0734,3.0734,0,0,0,.23231-.42958c.03777-.09248.33161-.493.32793-.542A2.80516,2.80516,0,0,0,18.8542,21.736c.13422.22639.30427.60925.54466.73275.54681.28094,1.27636-.19872,1.67284-.53122.73536-.61668,1.39856-1.71456,2.18248-2.20613.51136-.32066.42173-.46514.82146.17139.509.81047.4249,2.17636.57812,3.08863q.26406,1.57227.50291,3.14865.474,3.12025.86872,6.25186c.267,2.08809.51486,4.17858.75617,6.26978.064.55484.89854,6.17165.71105,6.235a24.94236,24.94236,0,0,1-8.405,1.30421q-.44514-2.74211-.78573-5.49981-.89613-7.25539-1.06506-14.5761A17.36583,17.36583,0,0,1,17.40427,22.736Z"/><path class="b5de04d9-1cc7-4746-9e4a-84ed98495987" d="M18.38577,20.973c.062-.21287.31091-.79246-.00214-.86093-.25219-.05515-.68551.27777-.87355.40354a2.87765,2.87765,0,0,0-.71768.69823A5.8431,5.8431,0,0,0,15.93,23.26811a26.462,26.462,0,0,1-1.00849,4.43548,7.02688,7.02688,0,0,0-.70892,4.83851,6.41561,6.41561,0,0,0,.65037,1.86379c.28328.45567.70212.81071.97618,1.2981.51193.91041.81143,1.92477,1.25511,2.86965a18.916,18.916,0,0,1,1.24736,2.98112,10.77543,10.77543,0,0,1,.24929,2.86024c.0041,2.47763.87329,4.62316,1.56685,6.95806-.1126-.37906,1.525-.55237,1.71544-.58123a25.16356,25.16356,0,0,1,3.22066-.01907c1.78892-.03923,2.18255-.87286,3.45569-1.75152,0-.57551,3.34413-1.18934,3.79532-1.31275.74429-.20356.8713-.2475,1.02665-.97909.16815-.79183.26805-1.60493.40137-2.40347a2.28061,2.28061,0,0,0-.38039-2.04465c-.97923-1.61752-1.90237-3.23679-2.85343-4.85149a6.99223,6.99223,0,0,1-.87741-2.37276,9.46921,9.46921,0,0,1-.15105-2.46269q.22139-2.08763.6418-4.14769c.13957-.68378.34621-1.361.46907-2.04662a10.37289,10.37289,0,0,0,.08169-1.78129c.04337-1.88151-.03606-3.94532-1.32019-5.14868-1.02772-.96308-2.91888-.6321-4.25864-.77266-2.442-.25626-2.5853,2.34505-3.67866,4.03376-.27217.42037-.56315.82819-.854,1.23584-.33562.47037-2.11027,2.34666-1.89424,3.00135a10.933,10.933,0,0,1-.71375-3.23612,8.75035,8.75035,0,0,1,.16767-1.805,10.51959,10.51959,0,0,0,.33144-1.74436"/><g class="bf0aff64-70fb-48b5-b3c3-3ade8cdc6e9e"><path class="a56baca9-5b2e-4c70-9df7-d665e3d177e6" d="M29.01917,24.76427A17.15536,17.15536,0,0,1,26.93732,27.388a11.68865,11.68865,0,0,0-1.19545,1.76738C24.56375,31.15409,23.77638,33.34,22.55139,35.314a2.39436,2.39436,0,0,1-.929.97263c-.86829.41586-2.1416.00228-3.0404-.134-.763-.11565-1.03484-.09414-.41382.46883,1.47539,1.33749,3.39505,2.83959,5.51416,3.09343a6.76926,6.76926,0,0,0,3.78176-.72417,4.78484,4.78484,0,0,0,1.65826-1.36781,4.35393,4.35393,0,0,1,1.17374-.91045c.70225-.453.66526-.519.46531-1.31207a4.47931,4.47931,0,0,1,.138-3.33563c.6158-1.06416,1.56-1.85593,1.65569-3.16559.08319-1.13858-.17847-2.20985-.18737-3.32873-.0096-1.20661.83933-3.16963-.22986-4.19552-.60856-.58391-1.14619.4552-1.38084.86174C30.24687,23.12044,29.53379,23.8794,29.01917,24.76427Z"/></g><path class="b68490f3-3dac-4d67-ac52-ce50b7b65b8a" d="M20.65086,44.76193c.17642,1.18029.52187,2.39223.60678,3.57653a.29777.29777,0,0,1-.02037.16444.30655.30655,0,0,1-.15771.1185,1.874,1.874,0,0,1-.7737.15215.22754.22754,0,0,1-.16475-.05.21438.21438,0,0,1-.041-.14578,59.67392,59.67392,0,0,0-.65386-6.91363c-.30939-2.16494-1.19476-4.18024-1.66994-6.32008a14.73028,14.73028,0,0,1-.41779-3.21361,26.94554,26.94554,0,0,1,.18057-3.47447c.10615-.80646.85838-2.72057.31237-3.39034a2.20091,2.20091,0,0,1,.62016,1.95411,2.91825,2.91825,0,0,1,.74651-.94891c.07811-.06514.18912-.12825.27446-.07291.09955.06455.062.2163.01567.32555a13.77843,13.77843,0,0,0-.70735,7.11535c.21737,1.681.62484,3.44281.9907,5.11563C20.21926,40.70987,20.35457,42.77968,20.65086,44.76193Z"/><path class="ec2c7d07-700e-4480-9f92-2456918ebaf8" d="M33.51635,42.19481q.03414.07016.067.1409a2.21207,2.21207,0,0,1,.24745.84693,1.69547,1.69547,0,0,1-.41718,1.09387A7.96929,7.96929,0,0,1,30.35611,46.232q-1.402.63718-2.8701,1.1427a33.043,33.043,0,0,1-5.88631,1.43906c-.65507.09744-1.5664.44518-2.10273-.00962-.484-.41042-.62808-2.36159-.72731-2.98089a6.98663,6.98663,0,0,0,1.65409.237,15.53494,15.53494,0,0,0,2.31854-.289,21.71388,21.71388,0,0,0,5.1652-1.71705c.80744-.38253,1.59379-.80827,2.36416-1.26048a11.27827,11.27827,0,0,0,2.0214-1.78427c.0948-.09117.21518-.1897.3425-.1567a.38381.38381,0,0,1,.19734.17434A8.84766,8.84766,0,0,1,33.51635,42.19481Z"/><g class="b43a5f0d-6fed-49c7-a10e-b06901b23542"><path class="b4457cd0-ad9a-44af-b288-b563e6309055" d="M27.56034,58.90984a3.36151,3.36151,0,0,0-1.15922,1.603,3.65842,3.65842,0,0,0,.1447,1.753q.6158,2.44257,1.30876,4.86482c.11168.39038.30356.85156.70638.90255.33559.04248.61858-.23332.84017-.48891a36.4216,36.4216,0,0,0,6.155-10.01054c.31331-.76331,2.16653-4.64934,1.52854-5.28438-.62057-.61772-3.472,2.29739-4.12489,2.7582A60.225,60.225,0,0,0,27.56034,58.90984Z"/></g><path class="b5de04d9-1cc7-4746-9e4a-84ed98495987" d="M36.80356,47.27583A13.80758,13.80758,0,0,0,35.77426,45.05a8.43954,8.43954,0,0,0-1.07654-1.51535,7.30848,7.30848,0,0,0-.88048-.776.3415.3415,0,0,0-.371-.06758,5.44887,5.44887,0,0,1-.53279.1505c-.18.02647-.36927.03014-.552.05869a8.15091,8.15091,0,0,0-2.22431.80844c-2.25985,1.1629-4.10685,2.86638-6.25819,4.151-3.40294,2.032-5.99283,5.12358-8.71247,7.9357L12.5742,58.47585c-2.71986,2.8123-3.76585,6.10972-1.731,9.60073,1.5674,2.6891,3.13264,5.47926,5.66979,7.32647L22.2772,79.5998l2.88213,2.09837c.47888.34866.955.70151,1.437,1.0459.05207.03721.95443.59938.75459.67506a4.21508,4.21508,0,0,0,1.298-.91977c.64744-.59529,2.26619-1.59919,1.602-2.5977A69.35211,69.35211,0,0,0,17.84824,65.83934c1.16867-1.01911,2.65576-1.30184,4.03747-1.91319A40.40393,40.40393,0,0,0,26.20107,61.692a44.32036,44.32036,0,0,0,7.73585-5.85784C36.3124,53.59118,38.072,50.57223,36.80356,47.27583Z"/><path class="ae04b1a6-ecac-4055-b00b-043dda7286fd" d="M15.86727,11.085a.16647.16647,0,0,0-.0071.17792.55893.55893,0,0,0,.12208.14241c.21172.20188.34411.53341.60476.65808a.41221.41221,0,0,0,.48757-.17411,1.44849,1.44849,0,0,0,.23013-.58353c.03417-.21866-.05625-.31946-.22656-.45317a1.26547,1.26547,0,0,0-1.07966-.22108C15.88235,10.66459,15.86956,10.96431,15.86727,11.085Z"/><path class="ae04b1a6-ecac-4055-b00b-043dda7286fd" d="M17.92364,11.1957a.38171.38171,0,0,1,.22195-.25494.405.405,0,0,1,.44009-.0296.30181.30181,0,0,1,.06187.34335.802.802,0,0,1-.23622.28511,1.90583,1.90583,0,0,0-.60349.68291c-.03393.08715-.03841.21111.04725.24867a.1578.1578,0,0,0,.151-.03c.16314-.11921.16-.33893.21693-.51368.0697-.214.25029-.34334.328-.5616"/><path class="b875b7a6-062c-4425-af21-84db49bdad24" d="M11.86194,4.13207a5.35047,5.35047,0,0,1,1.82018-1.18038A7.57448,7.57448,0,0,1,16.11453,2.204c.67-.01017,1.37574-.04627,2.051-.00434A7.165,7.165,0,0,1,22.36319,3.8868a3.77013,3.77013,0,0,1,.95534,1.01357,16.7405,16.7405,0,0,1,1.411,3.59742,7.54813,7.54813,0,0,1,.11582,2.38884,11.24288,11.24288,0,0,1-.532,3.28163c-.19539.53115-.47524,1.02344-.71791,1.5332-.37637.79062-.32632,2.149-1.56581,1.23887a4.29372,4.29372,0,0,1-.70445-.72685c-.4038-.47327-.80447-.95075-1.25318-1.38279-.48579-.46773-.54242-.65765-.107-1.26727a2.49708,2.49708,0,0,0,.4307-1.83158.81352.81352,0,0,0-.21842-.48565c-.28429-.258-.754-.10656-1.05585.13331-1.47248,1.17-.68063-.32154-1.96045-.59457-.72648-.155-1.65511.10173-2.4183.0235A6.12127,6.12127,0,0,1,13.24859,10.44a2.43231,2.43231,0,0,0-1.42683-.11041c-.35421.059-.91281.89489-1.21283.72288a.48768.48768,0,0,1-.19226-.27607,5.79412,5.79412,0,0,1-.10491-1.95364A6.71128,6.71128,0,0,1,11.86194,4.13207Z"/><path class="aa824924-2ae5-427f-a35f-54c08c1e8619" d="M20.54363,16.65882a4.48848,4.48848,0,0,1-1.89289-1.456,2.35694,2.35694,0,0,1-.13645-2.489,2.40266,2.40266,0,0,0,.64326-1.66278.88161.88161,0,0,0-.75889-.85447c-.63851-.01407-.8407.65454-1.18226,1.045-.7884.90137-1.50365-.12885-2.179-.49083a2.79766,2.79766,0,0,0-.76139-.23622c-.634-.13205-1.28113-.20955-1.92109-.30678a4.56236,4.56236,0,0,0-.93789-.159.63174.63174,0,0,0-.38073.19962c-.05452.05605-.20234.428-.23736.43663-.32565.08041-.6683-1.28867-.72488-1.53281A5.3273,5.3273,0,0,1,9.9565,7.40839a4.00484,4.00484,0,0,1,1.68313-2.93431c.73219-.49982,2.81837-.61037,3.54155-1.14524C16.62643,2.25992,19.428,2.38758,21.018,3.104c2.487,1.12048,3.80648,3.68308,4.29375,6.25081a8.80438,8.80438,0,0,1,.07819,3.52,5.63274,5.63274,0,0,1-2.10843,2.80915c-.32454.22419-.684.39891-.98549.65325a2.69587,2.69587,0,0,1-.59248.46019,1.1568,1.1568,0,0,1-.89318-.02431C20.72245,16.73751,20.6333,16.69943,20.54363,16.65882Z"/><path class="aa824924-2ae5-427f-a35f-54c08c1e8619" d="M27.063.07283A3.78233,3.78233,0,0,1,30.93679,1.726a28.12235,28.12235,0,0,1,2.8606,4.99192A21.04835,21.04835,0,0,0,35.343,9.564a6.32731,6.32731,0,0,0,1.0634,1.19434c.27685.23493,1.4962.63587,1.1461,1.16174-.3775.56666-1.464.69215-2.07849.72817a11.71289,11.71289,0,0,1-1.32377.0026c-.33317-.0182-.92989-.21489-1.24074-.09036-.58124.23285-.28926,1.09188-1.14945.97919a6.27745,6.27745,0,0,1-5.23269-4.44129,2.61261,2.61261,0,0,0-.6883-1.2339c-.388-.31411-.91252-.38176-1.31728-.67293.31317-.24271-.62357-1.4114-.79715-1.75943a3.3433,3.3433,0,0,1-.41734-2.18021A4.67594,4.67594,0,0,1,27.063.07283Z"/><g class="a3a1aafb-6118-44db-a31d-045dad148913"><path class="a0e7714e-f829-4cb6-ae6a-1078a5dcafa8" d="M30.02292,6.258a1.58384,1.58384,0,0,0-.55811-.38453,1.17381,1.17381,0,0,0-1.33593.59148,2.08305,2.08305,0,0,0-.10935,1.54411,10.93114,10.93114,0,0,0,.59881,1.46823,6.736,6.736,0,0,0,.54369,1.13154A4.38635,4.38635,0,0,0,30.33666,11.693a6.44382,6.44382,0,0,0,1.56182.85232,6.11107,6.11107,0,0,0,1.55207.27722,4.60554,4.60554,0,0,0,3.07284-.624,3.99264,3.99264,0,0,1-2.59269-.84369A6.65409,6.65409,0,0,1,31.20949,7.4778a1.10756,1.10756,0,0,0-.53-.60991A5.69717,5.69717,0,0,1,30.02292,6.258Z"/></g><path class="bee42b72-f35a-4630-93ff-fe7a5fb5a7a8" d="M23.75756,5.71146a2.18225,2.18225,0,0,0,.97761,1.131,3.658,3.658,0,0,1,1.47832,1.161,5.81235,5.81235,0,0,0,2.50112,2.44065,6.346,6.346,0,0,0,3.599.62632,2.14847,2.14847,0,0,1-.89557-1.53382,7.98,7.98,0,0,1,.111-1.42949,7.0937,7.0937,0,0,0-1.02169-3.87625,5.67708,5.67708,0,0,0-4.27254-3.06228,2.8712,2.8712,0,0,0-2.7341,1.5015A3.49863,3.49863,0,0,0,23.75756,5.71146Z"/><path class="a44d8c5f-22af-4f1d-b6c6-ac686b855514" d="M25.09131,3.70454a2.39292,2.39292,0,0,1,2.12984.6513,14.68355,14.68355,0,0,1,1.1396,1.71359,3.49292,3.49292,0,0,0,1.81337,1.26,2.70722,2.70722,0,0,1-2.371-.04733c-.59527-.31086-1.09091-.85255-1.75366-.961-.70172-.11477-1.46783.28522-2.10709-.0261C22.40421,5.546,24.11985,3.8984,25.09131,3.70454Z"/><path class="b4bf8937-d56b-408c-8b5a-857dad3ba38c" d="M22.64012,4.5333a.89429.89429,0,0,0,.02016.31574A5.19655,5.19655,0,0,0,23.6867,7.07315a.95393.95393,0,0,0,.47625.3367.40532.40532,0,0,0,.48268-.23657.55927.55927,0,0,0-.08317-.39846,12.99052,12.99052,0,0,0-.72421-1.10144,2.54193,2.54193,0,0,1-.47341-1.21491c-.01362-.2335-.06291-.46567-.34108-.40458A.51084.51084,0,0,0,22.64012,4.5333Z"/><path class="a0e7714e-f829-4cb6-ae6a-1078a5dcafa8" d="M23.65255,7.6396A2.07346,2.07346,0,0,1,23.44669,9.558a7.54172,7.54172,0,0,1-2.18355,2.07758,2.91313,2.91313,0,0,0-.51783.46671,2.11614,2.11614,0,0,0-.359.74168,3.85386,3.85386,0,0,0-.08305,1.80462,6.89827,6.89827,0,0,0,2.2-1.4317,7.43654,7.43654,0,0,0,1.0949-1.81578c.45366-1.08071.92079-2.942.05212-3.72673"/><path class="bee42b72-f35a-4630-93ff-fe7a5fb5a7a8" d="M17.99451,6.03486a4.72809,4.72809,0,0,0-2.75214,2.19728,2.24481,2.24481,0,0,1-1.279,1.11952c-.57082.11114-1.32454-.04205-1.409-.6676a2.52368,2.52368,0,0,1,.65982-1.93236,4.8665,4.8665,0,0,1,2.31547-1.451c2.0391-.604,4.32062-.04928,6.297-.83447a2.56707,2.56707,0,0,1-1.01523.61254A28.33489,28.33489,0,0,1,17.99451,6.03486Z"/><g class="b5833c7a-c103-4dbb-99d6-cf47fbf29246"><path class="a44d8c5f-22af-4f1d-b6c6-ac686b855514" d="M21.74722,7.56115c-1.46705.90613-5.7078.05751-5.63454,2.65814a.61181.61181,0,0,0,.18357.44433c.53684.474,1.36411-.5534,1.77859-.82129,1.42951-.92389,3.49187-.67143,4.38441-2.34491a3.18058,3.18058,0,0,0,.4898-1.69271A3.0702,3.0702,0,0,1,21.74722,7.56115Z"/><path class="a0e7714e-f829-4cb6-ae6a-1078a5dcafa8" d="M22.96421,16.478a3.14449,3.14449,0,0,1-.17986-1.616A3.7922,3.7922,0,0,1,23.43,13.69121a9.03153,9.03153,0,0,0,1.40584-3.4046c.03173.44689.02542.8955.0191,1.34347a8.65429,8.65429,0,0,1-.25029,2.35617c-.28875.96958-1.1725,1.56563-1.56022,2.49076"/><path class="bee42b72-f35a-4630-93ff-fe7a5fb5a7a8" d="M9.15424,4.95567A6.00057,6.00057,0,0,1,10.428,3.71642a10.8248,10.8248,0,0,1,2.44428-1.54149,8.70856,8.70856,0,0,1,5.05221-.31277,7.05127,7.05127,0,0,1,4.15,2.17948A9.94068,9.94068,0,0,0,18.795,3.19746a6.33209,6.33209,0,0,0-3.30131.6347c-.34777.17965-.67655.398-1.03936.545a7.461,7.461,0,0,1-1.05586.29517A3.63809,3.63809,0,0,0,11.18574,5.9107c-.46621.66465-.36171,1.49592-.89131,2.13043A1.14643,1.14643,0,0,1,9.26,8.45183c-.38556-.10714-.57153-.71192-.72434-1.06768A3.0213,3.0213,0,0,1,9.15424,4.95567Z"/></g><path class="f643339c-4954-4d36-a111-1f6235171737" d="M12.78967,29.66351c-.0038-1.34878-.95557-2.12713-1.69154-3.34486-.58368-.96594-1.423-1.81581-1.44758-.14.0003-.01918-.95641-.66125-1.07215-.77847-.35668-.36124-.59709-.83458-1.10215-1.01363a1.43134,1.43134,0,0,0-1.50591.3954,1.963,1.963,0,0,0-.27959,2.29513c.70176,1.20489,5.26877,6.10319,6.72941,4.052a1.75015,1.75015,0,0,0,.24873-.57982A3.4596,3.4596,0,0,0,12.78967,29.66351Z"/><path class="b68490f3-3dac-4d67-ac52-ce50b7b65b8a" d="M20.76124,32.6922C22.949,33.71753,22.85029,31.58327,23.366,29.937c.85151-2.71833,1.16412-5.46107,2.29232-8.13577.63723-1.51073,3.0228-3.46275,4.31932-1.54664,1.31716,1.94705.43154,4.92328-.14738,6.97293-.69559,2.46276-.65764,5.02295-1.94468,7.32553-.81752,1.46258-1.88151,3.62445-3.65473,4.05444a8.23828,8.23828,0,0,1-5.09392-.84184c-1.51164-.64288-2.70186-1.74276-4.19208-2.40684a10.20639,10.20639,0,0,1-2.35948-1.63518,21.89023,21.89023,0,0,1-2.4352-1.983c-.61932-.69634.23436-1.06923.67642-1.6529.39476-.52173.6787-1.12109,1.07928-1.64111.39625-.51441.90413-.72456,1.43275-.27225a2.69717,2.69717,0,0,1,.4582.68567,6.90481,6.90481,0,0,0,3.13948,2.11951C18.20238,31.5702,19.49617,32.09929,20.76124,32.6922Z"/><path class="b68490f3-3dac-4d67-ac52-ce50b7b65b8a" d="M17.01089,55.71767a23.70587,23.70587,0,0,0-2.80542,1.56038,14.84693,14.84693,0,0,0,2.71424-2.77376,29.78476,29.78476,0,0,1,2.80212-2.7901,62.80321,62.80321,0,0,1,7.22369-5.45689c1.77135-1.151,3.726-2.72891,5.98568-2.24739a4.26864,4.26864,0,0,1,3.35561,4.466,3.8574,3.8574,0,0,1-1.90691,3.46524c-1.65477.74379-3.8553.34245-5.617.50386A32.7459,32.7459,0,0,0,21.695,53.89239,38.48682,38.48682,0,0,0,17.01089,55.71767Z"/><g class="e831149e-5f1d-44b9-ba42-07738f61431b"><path class="a56baca9-5b2e-4c70-9df7-d665e3d177e6" d="M24.32924,69.61014a30.60443,30.60443,0,0,0-2.50713-2.90971,8.6152,8.6152,0,0,0-1.46482-1.245c.03574-.38039-1.27866-.018-1.39427.02123a14.15551,14.15551,0,0,1-2.7701.60194c-.04914.00611-.1063.01772-.12756.06245a.14109.14109,0,0,0,.02382.12667,1.0182,1.0182,0,0,0,.39321.37911c.96479.51945,1.85486,1.30589,2.8032,1.91026,1.0093.64322,2.03117,1.26834,3.006,1.9637,1.37494.98075,2.61882,2.186,4.00755,3.12834a.98864.98864,0,0,0-.00477-1.08972A16.05965,16.05965,0,0,0,24.32924,69.61014Z"/></g><path class="f06296d6-caa3-4c16-b1c9-15edc4ececf7" d="M24.41492,19.75968a3.81166,3.81166,0,0,1,.31041-.63017,9.64761,9.64761,0,0,0-.95857,3.0973.19391.19391,0,0,0,.02285.133.18359.18359,0,0,0,.08258.05307,2.62062,2.62062,0,0,0,1.795-.15526,2.7672,2.7672,0,0,0,.69369-.32,3.12907,3.12907,0,0,0,.84209-1.11857,2.4879,2.4879,0,0,1,.902-1.06149,1.40071,1.40071,0,0,1,1.14478-.04321,1.46967,1.46967,0,0,1,.52688.2915,3.69678,3.69678,0,0,1,.93935,1.78355c.11724.5294.0077,1.09835.10682,1.60018.27535-.09141.22087-.95965.21881-1.20387a3.28377,3.28377,0,0,0-.25721-1.34155,4.99994,4.99994,0,0,0-1.25124-1.66969,3.86461,3.86461,0,0,0-3.88513-.86282,1.68672,1.68672,0,0,0-.54784.315,1.94476,1.94476,0,0,0-.33156.43542q-.1179.19467-.22408.39614c-.01047.01987-.01936.04794-.00161.0617s.03428-.033.01334-.0249"/><path class="b8032e7d-f08d-41a3-8988-d16043902537" d="M27.13119,20.00518a2.36479,2.36479,0,0,1-1.218-.0307.65515.65515,0,0,1-.39645-.29969.524.524,0,0,1-.03983-.29294.90879.90879,0,0,1,.39879-.61038,1.73312,1.73312,0,0,1,.69828-.25957,5.78289,5.78289,0,0,1,1.15984-.05171,2.8686,2.8686,0,0,1,2.35656,1.45739c.0173.03322.033.07618.00956.10535a5.18358,5.18358,0,0,0-1.202-.5457,1.40111,1.40111,0,0,0-.80512.22728A4.64239,4.64239,0,0,1,27.13119,20.00518Z"/><path class="a441e085-b883-4823-92fa-bf2c5aa80085" d="M27.09363,20.38243a3.03264,3.03264,0,0,0-.80223,1.776.46823.46823,0,0,0,.21561-.18189c.51308-.67564.77306-1.56753,1.46409-2.05969a1.27345,1.27345,0,0,1,1.36527-.04745,1.649,1.649,0,0,1,.52344.27183,2.2319,2.2319,0,0,1,.50776.98129,15.75517,15.75517,0,0,1,.37468,1.72913,1.418,1.418,0,0,0,.08517.37776,1.97362,1.97362,0,0,0-.007-1.11395,5.76178,5.76178,0,0,0-.47409-1.56757,1.94448,1.94448,0,0,0-1.21272-1.03352,1.66753,1.66753,0,0,0-1.23912.23139A3.47133,3.47133,0,0,0,27.09363,20.38243Z"/><path class="b68490f3-3dac-4d67-ac52-ce50b7b65b8a" d="M28.52306,21.19947a.35842.35842,0,0,0,.14347-.02715c.109-.05432.13265-.19662.14283-.318a1.15908,1.15908,0,0,0-.07078-.65015,1.12982,1.12982,0,0,0-.88076-.44511c-.97783-.14766-4.2529-.6321-4.57907.8885-.23328,1.08752,1.36755.74459,1.93918.71618Z"/><path class="b5de04d9-1cc7-4746-9e4a-84ed98495987" d="M26.92789,21.248a.9517.9517,0,0,0,.69095-.137,1.141,1.141,0,0,0,.62166-.65249,1.57989,1.57989,0,0,0,.0274-.415.08779.08779,0,0,1,.018-.06609c.0307-.02925.08029-.00185.11263.02558a1.551,1.551,0,0,1,.28109.28582.55388.55388,0,0,1,.1088.37769.56154.56154,0,0,1-.29874.39658,1.66088,1.66088,0,0,1-.48943.15342l-.68369.13872a.09546.09546,0,0,1-.062-.00141c-.0188-.00956-.02794-.039-.01125-.05185"/></svg>