<svg id="e01914e7-bae3-452b-a4b3-3c9aefa8bc19" data-name="Layer 1" xmlns="http://www.w3.org/2000/svg" viewBox="0 0 118.21277 43.24857"><defs><style>.a500b416-e0e6-4481-8475-5f7b999b0167{fill:#537435;}.b0d753d1-be76-4551-8749-d9aa705ab74f{fill:none;stroke:#678e3d;stroke-linecap:round;stroke-linejoin:round;stroke-width:7.90488px;}.f5b2f5f0-1765-4df8-90b2-74ae9e8dd13a{fill:#678e3d;}.a0e5e175-75df-421a-a870-7c342a0f61e2{fill:#86c66b;}</style></defs><title>Artboard 191</title><rect class="a500b416-e0e6-4481-8475-5f7b999b0167" width="118.21277" height="43.24857" rx="21.62426"/><path class="b0d753d1-be76-4551-8749-d9aa705ab74f" d="M18.1644,34.62289c3.591,0,3.591,2.25853,7.182,2.25853,3.59141,0,3.59141-2.25853,7.18282-2.25853,3.592,0,3.592,2.25853,7.18394,2.25853,3.58957,0,3.58957-2.25853,7.17913-2.25853,3.59113,0,3.59113,2.25853,7.18225,2.25853s3.59112-2.25853,7.18223-2.25853,3.59118,2.25853,7.18236,2.25853c3.59211,0,3.59211-2.25853,7.18422-2.25853,3.59016,0,3.59016,2.25853,7.18032,2.25853,3.59328,0,3.59328-2.25853,7.18656-2.25853,3.59575,0,3.59575,2.25853,7.1915,2.25853s3.59575-2.25853,7.1915-2.25853"/><path class="f5b2f5f0-1765-4df8-90b2-74ae9e8dd13a" d="M10.12357,13.99846a1.98628,1.98628,0,0,1-.83252,1.02514,8.67172,8.67172,0,0,1-1.0293.5044c-.28662.12573-.45507.27026-.45507.36621.00146.096.02929.14111.04931.33276l.00244.02759a.23025.23025,0,0,0,.0293-.05835.5154.5154,0,0,0,.02588-.14014c.0293-.04.00488-.12548.03467-.11206.01172-.01538.02441-.01147.06152.01685l.104.0835.66455.56884a6.87613,6.87613,0,0,1,.856.86939,3.31315,3.31315,0,0,1,.77344,1.86328,2.89034,2.89034,0,0,1-.0835.84595,3.9732,3.9732,0,0,1-.22363.61792,5.86554,5.86554,0,0,1-.44726.78442l-.67432.9624a1.66432,1.66432,0,0,0-.2998.57837c-.00635.02857.00048.0437.02783.03l.0249-.01147a.45883.45883,0,0,0,.05908-.07178A1.0341,1.0341,0,0,0,8.90531,22.82a1.593,1.593,0,0,0,.05518-.46265,1.88671,1.88671,0,0,0-.14844-.65185,2.43742,2.43742,0,0,0-.188-.36646.6787.6787,0,0,0-.07178-.10009c-.01318-.02124-.00781-.02784-.01513-.04126-.021-.03028-.01123-.03565.01855-.02979a4.923,4.923,0,0,1,.64551.23511,7.8905,7.8905,0,0,1,1.18994.59009,4.836,4.836,0,0,1,.85156.65649,4.17689,4.17689,0,0,1,.98047,1.44263,4.286,4.286,0,0,1,.27246,1.16211,4.98238,4.98238,0,0,1-.00683.8728,5.78265,5.78265,0,0,1-.09229.62744c-.03516.17944-.07519.354-.10791.4773-.14111.55786-.24316.93872-.30811,1.24511-.05859.2876-.05957.52173.02442.49536.01269.00977.043-.03051.07324-.09912a.66643.66643,0,0,0,.03565-.09863,1.44761,1.44761,0,0,0,.041-.19434,2.56963,2.56963,0,0,0-.22656-1.377,3.39633,3.39633,0,0,0-1.11865-1.33935,2.07031,2.07031,0,0,0-.19043-.1167.785.785,0,0,0-.084-.05909c-.08008-.04077-.08447-.0559-.0874-.06445-.01416-.0376.23145-.0022.55762.05664a8.62574,8.62574,0,0,1,1.418.38257,6.65952,6.65952,0,0,1,1.17334.55859A5.45174,5.45174,0,0,1,15.189,28.09a4.89388,4.89388,0,0,1,.623,1.28247,4.50465,4.50465,0,0,1,.189.98413l.02149.40088-.01221.30347-.02148.29565-.03711.22852a5.33662,5.33662,0,0,1-.39112,1.26587c-.14209.27954-.24511.477-.36718.48779-.03272.02173-.0586-.01563-.09229-.04541-.03613-.0044-.06787-.09717-.12549-.16724a2.84047,2.84047,0,0,0-.62793-.70215,1.146,1.146,0,0,0-.92236-.3457c-.0918.01831-.11133.05371-.11377.0896-.02441.03662.00781.083.03711.125a2.52115,2.52115,0,0,0,.78125.51441c.34473.19775.74756.36181,1.166.62915a4.8007,4.8007,0,0,1,.62842.468,2.02434,2.02434,0,0,1,.478.7024.38888.38888,0,0,1-.228.50073l-.01758.0061-.27587.08692a1.07348,1.07348,0,0,0-.40332.25927l-.35157.3086a9.72279,9.72279,0,0,1-.82275.64575,3.9034,3.9034,0,0,1-1.207.55127,2.104,2.104,0,0,1-.4585.07983,2.49451,2.49451,0,0,1-.6001-.00757,3.13618,3.13618,0,0,1-1.78564-.81445,4.33617,4.33617,0,0,1-1.0708-1.5813,5.16443,5.16443,0,0,1-.2124-.656c-.05079-.19483-.09473-.39722-.12207-.54151-.13086-.65283-.1543-1.11645-.21192-1.49438-.05176-.36109-.09033-.65113-.17724-.71167l-.02442-.01978-.02685.04688a.22332.22332,0,0,0-.01954.05493,1.159,1.159,0,0,0-.01025.15405,1.91176,1.91176,0,0,0,.07715.50073,3.2001,3.2001,0,0,0,.14941.40674,2.94239,2.94239,0,0,0,.25.43457,3.22621,3.22621,0,0,0,.82862.843c.189.12988.25146.15356.25634.17676a1.54261,1.54261,0,0,1-.51757-.07349,9.812,9.812,0,0,1-1.38086-.38745,5.54131,5.54131,0,0,1-.55616-.23022l-.314-.15381c-.12842-.06861-.2749-.15479-.40723-.23828a4.987,4.987,0,0,1-1.81982-2.02271,4.72206,4.72206,0,0,1-.41113-2.34326c.01318-.14868.03076-.29663.05273-.44287.02246-.1333.04883-.22876.07666-.34375a3.79841,3.79841,0,0,1,.18311-.58374,6.73506,6.73506,0,0,1,.72949-1.36328,4.04053,4.04053,0,0,1,.45605-.59156c.02686-.03149.03174-.01684.03955.00245.01856-.00611.00733.0686.01172.1416.01319.02954-.00732.24365.02442.37744a2.33323,2.33323,0,0,0,.17724.677c.37305.752.605.68945.53809.62524a2.12682,2.12682,0,0,0-.49951-.45971c-.26758-.2085-.59473-.43286-1.04395-.81323-.10644-.0896-.22705-.19678-.36963-.34083l-.1997-.20776-.23487-.28735a3.967,3.967,0,0,1-.46484-.77808A3.49162,3.49162,0,0,1,3.729,22.87126a3.36866,3.36866,0,0,1,.08105-.95679,3.144,3.144,0,0,1,.25635-.73657l.1543-.301.15039-.22657a3.18177,3.18177,0,0,1,.29932-.38623,6.6046,6.6046,0,0,1,1.0083-.91821c.28662-.21484.53125-.38648.686-.48877.07959-.04907.12549-.07861.12744-.02637.02246-.00122-.0332.11035-.0205.165a1.001,1.001,0,0,0-.01612.3562c.08057.304.17774.19068.12207.0105a3.33852,3.33852,0,0,0-.31836-.73535c-.15381-.29224-.33789-.60376-.53906-1.01489-.04932-.10181-.09961-.20752-.15185-.34253a2.86544,2.86544,0,0,1-.14454-.43482,2.63486,2.63486,0,0,1-.08105-.594A1.82949,1.82949,0,0,1,5.46488,15.58a2.73979,2.73979,0,0,1,1.07178-1.32959,2.67861,2.67861,0,0,1,1.37744-.36084c.74365-.00317,1.12549.09863,1.51709-.27246l.03418-.03247a.40134.40134,0,0,1,.6582.41382Z"/><path class="a0e5e175-75df-421a-a870-7c342a0f61e2" d="M44.25634,15.25055a5.9204,5.9204,0,0,1,1.65039,4.58789v7.57519a.60548.60548,0,0,1-.16211.42481.57076.57076,0,0,1-.4375.1748h-2a.5952.5952,0,0,1-.59961-.59961V19.96344q0-3.54931-3.57617-3.54981H37.43212a17.49871,17.49871,0,0,0-.34961,2.07422,18.6858,18.6858,0,0,0-.07617,2.22559l.125,6.70019a.5952.5952,0,0,1-.59961.59961l-4.40039-.02539a.59848.59848,0,0,1-.59961-.59961v-1.375a.56662.56662,0,0,1,.17578-.4375.5972.5972,0,0,1,.42383-.16211l1.97656.02442V20.78863a20.90252,20.90252,0,0,1,.0625-2.26269,13.95932,13.95932,0,0,1,.36133-2.11231H33.1079a.60015.60015,0,0,1-.60156-.60058V14.33844a.56659.56659,0,0,1,.17578-.4375.6027.6027,0,0,1,.42578-.16309h6.17383A7.15,7.15,0,0,1,44.25634,15.25055Z"/><path class="a0e5e175-75df-421a-a870-7c342a0f61e2" d="M49.38134,27.83844a.57719.57719,0,0,1-.17578-.42481V14.33844a.56655.56655,0,0,1,.17578-.4375.60268.60268,0,0,1,.42578-.16309h2.09961a.56035.56035,0,0,1,.59961.60059V27.41363a.60548.60548,0,0,1-.16211.42481.57076.57076,0,0,1-.4375.1748H49.80712A.58071.58071,0,0,1,49.38134,27.83844Z"/><path class="a0e5e175-75df-421a-a870-7c342a0f61e2" d="M67.03173,13.91363a.58143.58143,0,0,1,.17383.42481v1.47461a.58142.58142,0,0,1-.17383.4248.61079.61079,0,0,1-.45117.17578H65.25634a3.12167,3.12167,0,0,0-.5,1.22461,8.286,8.286,0,0,0-.17578,1.77539v8.04981a.48765.48765,0,0,1-.19922.38769.69257.69257,0,0,1-.44922.16211h-2a.51731.51731,0,0,1-.55078-.5498V19.18805a4.88,4.88,0,0,1,.57422-2.77442H55.65673a.59685.59685,0,0,1-.59961-.60058V14.33844a.56524.56524,0,0,1,.17383-.4375.60268.60268,0,0,1,.42578-.16309H66.58056A.61079.61079,0,0,1,67.03173,13.91363Z"/><path class="a0e5e175-75df-421a-a870-7c342a0f61e2" d="M70.05712,27.83844a.57723.57723,0,0,1-.17578-.42481V14.33844a.56659.56659,0,0,1,.17578-.4375.598.598,0,0,1,.42383-.16309h2.09961a.56316.56316,0,0,1,.60156.60059V27.41363a.59857.59857,0,0,1-.16406.42481.5679.5679,0,0,1-.4375.1748H70.481A.57635.57635,0,0,1,70.05712,27.83844Z"/><path class="a0e5e175-75df-421a-a870-7c342a0f61e2" d="M88.981,27.48785a.48585.48585,0,0,1-.16406.375.51639.51639,0,0,1-.36133.15039H86.356a.78308.78308,0,0,1-.41406-.09961,1.16228,1.16228,0,0,1-.26172-.21289c-.06641-.07519-.10938-.12109-.125-.13769l-5.05078-7.17481A3.49316,3.49316,0,0,0,79.356,22.00055a6.29917,6.29917,0,0,0-.30078,1.9873v3.40039a.63821.63821,0,0,1-.16211.4502.57078.57078,0,0,1-.4375.1748H76.75439a.57632.57632,0,0,1-.42383-.1748.607.607,0,0,1-.17578-.4502v-3.4248a8.54614,8.54614,0,0,1,.57617-3.35059,5.94152,5.94152,0,0,1,2.19922-2.47461L76.481,14.66363a.83944.83944,0,0,1-.125-.40039.50781.50781,0,0,1,.14844-.375.48526.48526,0,0,1,.35156-.15039h2.02344a.99651.99651,0,0,1,.80078.47559l4.65039,6.52441a2.75736,2.75736,0,0,0,1.23633-1.3125,5.28369,5.28369,0,0,0,.26367-1.8125v-3.25a.62876.62876,0,0,1,.16211-.44922.56515.56515,0,0,1,.4375-.17578H88.231a.55912.55912,0,0,1,.42383.1875.62064.62064,0,0,1,.17578.4375v3.375a6.64986,6.64986,0,0,1-.59961,2.90039,5.93742,5.93742,0,0,1-2.32617,2.3252l2.92578,4.125A.66866.66866,0,0,1,88.981,27.48785Z"/></svg>