<svg preserveAspectRatio="none" id="bfbf89bc-82d9-418d-b8f8-059d81e3f1da" data-name="Layer 1" xmlns="http://www.w3.org/2000/svg" xmlns:xlink="http://www.w3.org/1999/xlink" viewBox="0 0 144 134.42553"><defs><style>.ff31f39d-a0a3-4777-85fb-4c010cd26f32{fill:none;}.e23c2d62-441d-4ea1-ab16-581612855662{fill:#6d6e71;}.e145ca67-34b1-4232-95d3-2562bd2a1485{clip-path:url(#b66d89a7-e3e7-41aa-a581-bdc3788ac31c);}.bf95b50f-d0c1-471a-b0e6-793e764ed30c{fill:#58595b;}.bf68b65f-752a-4812-bcc0-e2f6f69a0aca{fill:#939598;}.e5e9f04f-b09c-4b1a-9a8c-2e7f31217c50{fill:#bcbec0;}.bae6d2bc-cc88-4408-a04a-bef1180e9ac3{clip-path:url(#a8731f4d-92f8-465e-a9fd-fefb42426f0a);}.a3e345f7-6933-44c4-a64e-6d51e2b07f86{fill:#808285;}</style><clipPath id="b66d89a7-e3e7-41aa-a581-bdc3788ac31c"><path class="ff31f39d-a0a3-4777-85fb-4c010cd26f32" d="M30.88933,107.12078c1.679.6923,3.49519,1.29493,5.418,2.038,2.75128,1.06326,5.6518,2.23488,7.35746,4.49881,1.02729,1.36353,1.54671,3.04151,2.75528,4.27107,3.82275,3.88913,11.60047,1.03716,15.948,4.421,1.246.96978,2.05214,2.35844,3.31623,3.30792,3.244,2.43658,8.16,1.14733,11.63835-.99416s6.58047-5.08128,10.64927-5.95671a6.91806,6.91806,0,0,0,5.19572,1.5309,32.9706,32.9706,0,0,1,11.29126-9.54694c2.88645-1.57985,9.50812-5.32716,10.18958-8.70321-.36759,1.82109,2.34531,3.38663,4.30067,2.93089s3.16785-2.0848,4.22911-3.61064C127.85961,94.577,132.72139,86.85,130.42165,78.616c-2.30176-8.24125-11.10456-14.05882-19.76348-17.48607a110.01712,110.01712,0,0,0-29.32443-6.67277C66.96329,52.984,52.42408,53.4063,39.02834,56.98885c-6.89086,1.8429-13.70525,4.70258-17.8129,9.93444-4.03918,5.14465-6.93265,14.375-4.5773,21.06268a58.38871,58.38871,0,0,0,7.19694,13.93809A14.92613,14.92613,0,0,0,30.88933,107.12078Z"/></clipPath><clipPath id="a8731f4d-92f8-465e-a9fd-fefb42426f0a"><path class="ff31f39d-a0a3-4777-85fb-4c010cd26f32" d="M17.568,39.80557c-2.2324,2.85-5.43647,4.73454-7.59568,7.6463s-2.81644,7.741.02443,9.91065c.8141.62176,1.82113.94329,2.57348,1.64585,2.77762,2.59382.46235,28.60136,3.33955,31.07218,1.85971,1.597,4.58209.69851,6.97623.51007,7.92294-.62359,14.72172,7.43513,22.64151,6.76879,2.16545-.18219,4.23149-1.02,6.37518-1.39,6.3696-1.09943,16.40854.98422,21.59949,5.04024,3.616,2.8256,7.5,7.30518,11.78134,8.92052,3.18694,1.202,7.37257.53518,10.56367-.39345,3.95614-1.15125,3.07192-1.13438,5.30419-4.5364,2.53183-3.85854,4.71968-4.3641,9.208-4.88419,3.6371-.42145,7.42-.92853,10.47731-3.04319,3.15264-2.18061,5.65576-6.53463,8.26892-9.36567,2.30146-2.49335,2.87775-26.43913,3.34352-29.87957.7725-5.70616.8127-12.98071-4.10744-15.5182a10.185,10.185,0,0,1-2.90625-1.58579c-2.3138-2.39044.27165-7.02675-1.6428-9.78035a5.51236,5.51236,0,0,0-2.34227-1.72586c-8.15713-3.72683-17.6329-1.16365-26.38686-2.81388C80.79908,23.71456,69.68056,10.14213,55.23338,8.9479a7.55555,7.55555,0,0,0-3.94864.49189c-1.59014.77258-2.61787,2.39313-3.74233,3.80571a21.01122,21.01122,0,0,1-18.526,7.82881c-1.85177-.21448-3.73674-.68471-5.55219-.245s-3.533,2.20563-3.17721,4.12942c.90174,4.87288,4.64915,3.59222,1.068,7.45143-1.22856,1.324-3.27975,1.03315-4.13837,3.09067C16.91487,36.22408,17.33943,40.09731,17.568,39.80557Z"/></clipPath></defs><title>Artboard 87</title><path class="e23c2d62-441d-4ea1-ab16-581612855662" d="M30.88933,107.12078c1.679.6923,3.49519,1.29493,5.418,2.038,2.75128,1.06326,5.6518,2.23488,7.35746,4.49881,1.02729,1.36353,1.54671,3.04151,2.75528,4.27107,3.82275,3.88913,11.60047,1.03716,15.948,4.421,1.246.96978,2.05214,2.35844,3.31623,3.30792,3.244,2.43658,8.16,1.14733,11.63835-.99416s6.58047-5.08128,10.64927-5.95671a6.91806,6.91806,0,0,0,5.19572,1.5309,32.9706,32.9706,0,0,1,11.29126-9.54694c2.88645-1.57985,9.50812-5.32716,10.18958-8.70321-.36759,1.82109,2.34531,3.38663,4.30067,2.93089s3.16785-2.0848,4.22911-3.61064C127.85961,94.577,132.72139,86.85,130.42165,78.616c-2.30176-8.24125-11.10456-14.05882-19.76348-17.48607a110.01712,110.01712,0,0,0-29.32443-6.67277C66.96329,52.984,52.42408,53.4063,39.02834,56.98885c-6.89086,1.8429-13.70525,4.70258-17.8129,9.93444-4.03918,5.14465-6.93265,14.375-4.5773,21.06268a58.38871,58.38871,0,0,0,7.19694,13.93809A14.92613,14.92613,0,0,0,30.88933,107.12078Z"/><g class="e145ca67-34b1-4232-95d3-2562bd2a1485"><path class="bf95b50f-d0c1-471a-b0e6-793e764ed30c" d="M15.90973,86.37222S22.56352,111.472,24.602,112.7438s19.939,2.31014,19.939,2.31014L39.50851,90.32008S21.35949,82.6383,15.90973,86.37222Z"/><polygon class="bf95b50f-d0c1-471a-b0e6-793e764ed30c" points="60.53 121.265 51.739 84.765 65.929 92.728 63.97 130.803 60.53 121.265"/><path class="bf95b50f-d0c1-471a-b0e6-793e764ed30c" d="M80.02359,126.97905c.12741-.50005,6.62511-36.659,6.62511-36.659l1.40147,33.48819Z"/><polygon class="bf95b50f-d0c1-471a-b0e6-793e764ed30c" points="92.892 123.172 101.683 87.563 114.933 90.869 114.296 105.367 92.892 123.172"/></g><path class="bf68b65f-752a-4812-bcc0-e2f6f69a0aca" d="M128.3415,42.30936c-3.88233-2.0021-4.5158-3.71313-3.176-7.73063,1.47471-4.422-1.08258-5.25185-3.63453-8.45076a3.8497,3.8497,0,0,0-1.66274-1.41308c-1.08631-.356-2.431.26608-3.34533-.42011-.79375-.59572-.73371-1.81439-.38843-2.74482a7.29769,7.29769,0,0,0,.84674-2.82634c-.1244-2.20348-2.90095-3.03494-5.09342-3.28765a17.34682,17.34682,0,0,0-5.31634-.06361c-1.7892.3513-3.42234,1.257-5.184,1.72746-5.71113,1.52527-11.5255-1.669-17.39849-2.341-5.06536-.57959-9.94635,1.94572-14.46417-.60947-4.50651-2.5488-9.03677-4.76708-14.2915-5.20144a7.55556,7.55556,0,0,0-3.94859.4919c-1.59014.77258-2.61787,2.39313-3.74233,3.80571a21.01122,21.01122,0,0,1-18.526,7.82881c-1.85177-.21448-3.73674-.68471-5.55219-.245s-3.533,2.20563-3.17721,4.12942c.90174,4.87288,4.64915,3.59222,1.068,7.45143-1.22856,1.324-3.27975,1.03315-4.13837,3.09067-.30183.72329.12273,4.59652.35125,4.30478-2.2324,2.85-5.43647,4.73454-7.59568,7.6463s-2.81644,7.741.02443,9.91065c.8121.62023,1.81619.94171,2.56793,1.64068,2.0121,1.87087-1.22456,10.2617-1.67174,12.7876a6.50223,6.50223,0,0,0-.10884,2.48779,6.62521,6.62521,0,0,0,.761,1.76655c1.44179,2.61387,2.67059,4.54165,2.94134,7.45468.161,1.73222-.07708,5.29221,1.42336,6.58073,1.85971,1.597,4.58209.69851,6.97623.51007,7.92294-.62359,14.72172,7.43513,22.64151,6.76879,2.16545-.18219,4.23149-1.02,6.37518-1.39,6.3696-1.09943,16.40854.98422,21.59949,5.04024,3.616,2.8256,7.5,7.30518,11.78134,8.92052,3.18694,1.202,7.37257.53518,10.56367-.39345,3.95614-1.15125,3.07192-1.13438,5.30419-4.5364,2.53183-3.85854,4.71968-4.3641,9.208-4.88419,3.6371-.42145,7.42-.92853,10.47731-3.04319,3.40066-2.35252,6.05309-6.43209,8.55039-9.67946,2.8766-3.7406,1.14573-7.3354-1.2865-11.07132a35.25892,35.25892,0,0,1,7.61923-8.89005,1.07419,1.07419,0,0,0,.41145-.52229,1.05519,1.05519,0,0,0-.07325-.56369c-1.52217-4.71483-3.3537-9.033-3.23947-13.92119C132.90526,48.71422,131.93255,44.16124,128.3415,42.30936Z"/><path class="e5e9f04f-b09c-4b1a-9a8c-2e7f31217c50" d="M27.49944,33.88717q-2.96337,1.86767-5.9768,3.63378l.42993-.90673c-.031-.13037.09521.11963.18384.21826l.31592.41553.67919.875a7.41246,7.41246,0,0,1,.69556,1.043,1.52586,1.52586,0,0,1,.09619.21534l.04688.12841a1.54048,1.54048,0,0,1,.04907.26221,1.57132,1.57132,0,0,1,.00049.3457c-.00391.07569-.01758.14893-.02808.22315a3.0366,3.0366,0,0,1-.26025.80713,10.53993,10.53993,0,0,1-1.50513,2.02295c-.50635.57617-1.03564,1.13525-1.58984,1.66211-1.11133,1.05078-2.27149,1.99414-3.32569,2.937a31.98316,31.98316,0,0,0-2.92431,2.95117l.28491-.437a10.20691,10.20691,0,0,0-.57666,2.03027,1.66654,1.66654,0,0,0-.01685.61279c.02906.02247-.06054-.17919-.10913-.25048-.07031-.08106-.05322-.06055.012-.03272a11.17011,11.17011,0,0,0,1.95532.56836,14.36365,14.36365,0,0,1,1.38452.39649A4.60818,4.60818,0,0,1,19.082,54.63717a5.74087,5.74087,0,0,1,1.65186,3.26562,9.03549,9.03549,0,0,1-.09961,3.12207,36.722,36.722,0,0,1-1.49243,5.04785c-.23291.689-.4773,1.5503-.66455,2.27637a13.1004,13.1004,0,0,0-.37281,2.13818,6.23337,6.23337,0,0,0,.17164,1.999,20.22489,20.22489,0,0,0,.72558,2.20654,26.55045,26.55045,0,0,1,.87525,2.52637,13.92438,13.92438,0,0,1,.41577,2.72949,27.51084,27.51084,0,0,1-.26758,5.24756l-.667-.978c.74975.25781,1.36987.55518,2.009.75391a3.7621,3.7621,0,0,0,1.69189.24463c1.33374-.33887,2.77588-.73438,4.19971-1.02344a37.12932,37.12932,0,0,1,8.71485-.51709l.52392.02051.11084.53759a25.17885,25.17885,0,0,0,1.29883,4.08106c.26343.67187.56152,1.33154.87183,1.98l.23706.4834.12109.23877c.03271.07666.01465-.0044-.011-.03809a.212.212,0,0,0-.04492-.04932l.019.00782a5.15635,5.15635,0,0,0,.74952.36181,20.85592,20.85592,0,0,0,2.0061.66846l1.03516.28125.49755.11865c.00928,0,.137.03321.02173-.00293-.05713-.02148-.18237-.00683-.11987-.01709l.16284-.03857a38.03361,38.03361,0,0,0,3.9834-1.38672l.218-.09424.15063-.07959.52613-.26953a10.75878,10.75878,0,0,1,1.09228-.50928,8.99125,8.99125,0,0,1,2.52051-.70312,7.96736,7.96736,0,0,1,2.67578.19922,6.99535,6.99535,0,0,0,1.80469.19092,8.99506,8.99506,0,0,0,1.77636-.3042c.303-.05957.62549-.19141.93726-.28321a3.36371,3.36371,0,0,1,1.001-.21582,7.72226,7.72226,0,0,1,.77221.02c1.64746.13135,3.0647.36133,4.56421.61035.74414.12744,1.47339.25586,2.24927.41748l.30664.06788c.12915.0332.16553.03173.3916.10156l.58057.19238,1.04394.34424c1.41138.4707,2.80176.91992,4.27124,1.48584l.585.24121c.09765.042.20263.0874.34716.16162l.19825.10205a3.32846,3.32846,0,0,1,.45336.313l.89209.82568,1.60767,1.46387c1.08008.97168,2.17847,1.92725,3.26831,2.86133a14.28528,14.28528,0,0,0,3.02759,2.25342c1.29834.61816,2.604,1.17431,3.87085,1.66064a8.70148,8.70148,0,0,0,3.29468.77637,4.13927,4.13927,0,0,0,1.42114-.42383c.6189-.27295,1.38037-.62109,2.16138-.9082l-1.03809.83545a29.81176,29.81176,0,0,1,2.19311-2.874c.75953-.88867,1.4314-1.6709,2.0586-2.53222l.46557-.65088a4.13551,4.13551,0,0,1,.36036-.44336,3.49129,3.49129,0,0,1,.34008-.30078,5.83827,5.83827,0,0,1,.51343-.35547,17.59765,17.59765,0,0,1,1.68091-.89258l1.5918-.7168.75317-.334.40479-.189a3.14549,3.14549,0,0,1,.39941-.14843c.106-.02832.14526-.03077.22144-.04639a3.11878,3.11878,0,0,1,.36377-.04932,14.03891,14.03891,0,0,1,1.95263.02051l1.74219.14014c.55835.04345,1.16992.12646,1.56323.13183.54956.00977,1.09644.00879,1.64038-.00634a21.30575,21.30575,0,0,0,6.30786-1.00538l-.46264.36719c1.29736-1.59814,2.62964-3.1709,3.96094-4.74414,1.32739-1.57617,2.654-3.15332,4.02294-4.69922l.34351.25049c-1.05151,1.77686-2.14575,3.52344-3.239,5.27-1.08936,1.74951-2.178,3.5-3.301,5.22461l-.13476.207-.32837.16065a21.71,21.71,0,0,1-6.94629,1.8833c-.58814.07324-1.1753.13086-1.7605.17675-.74219.05176-1.26392.01758-1.83936.01514l-1.66064-.0083a11.13121,11.13121,0,0,0-1.4502.085c-.05786.00586-.05688.01563-.05688.01563.00708-.00049-.02466.00488.01343-.00342a.78532.78532,0,0,0,.20044-.07227.43778.43778,0,0,0,.06567-.03955l-.06689.04-.13477.07813-.21631.1206-.77539.41651-1.46045.79492c-.46509.2622-.93945.53174-1.28686.77588a1.81673,1.81673,0,0,0-.17847.13964c.01367-.00683-.04468.04151.02246-.01806a.673.673,0,0,0,.0979-.11426.34508.34508,0,0,0,.0271-.04492l-.03.04785-.48486.76221c-.65479,1.01416-1.41211,1.99951-2.08179,2.875-.67236.87549-1.24414,1.72363-1.81982,2.62646l-.35718.56006-.6814.27588c-.5935.24023-1.16406.51953-1.88135.8623a8.5204,8.5204,0,0,1-2.77856.855,8.79891,8.79891,0,0,1-2.9021-.20459,19.4977,19.4977,0,0,1-2.39429-.69824c-1.488-.54834-2.88086-1.1748-4.23925-1.82129l-.5127-.24072a6.72,6.72,0,0,1-.76367-.45605c-.4021-.27442-.70215-.51661-1.02173-.76807-.62085-.49561-1.18848-.98828-1.76245-1.48438-1.12915-.99951-2.20923-2.02343-3.28906-3.05029l-1.60913-1.56006-.70142-.69922a1.12059,1.12059,0,0,0,.12988.10254c.0315.02393.12915.07471.09448.05664l-.04687-.02441a1.38955,1.38955,0,0,0-.15088-.07568l-.42944-.19287c-1.25977-.53663-2.64893-1.0586-4.01123-1.57129-.67237-.23291-1.46363-.58789-1.86939-.66553-.65869-.16553-1.37353-.32227-2.0747-.4707-1.39332-.28711-2.87452-.58936-4.155-.76075l-.32935-.03662c.57031-.10107.05688-.02051-.07056.03369-.39892.09717-.76977.22364-1.19262.292a10.84584,10.84584,0,0,1-2.593.24658,10.40936,10.40936,0,0,1-2.55054-.44727,5.53579,5.53579,0,0,0-1.687-.30224,6.03531,6.03531,0,0,0-1.75439.3247,8.41732,8.41732,0,0,0-.94556.33545l-.478.189-.35547.14013-.2998.09717A39.93728,39.93728,0,0,1,43.851,94.52242c-.09668.0166-.24.03125-.38282.0415a1.917,1.917,0,0,1-.395-.01465,1.09527,1.09527,0,0,1-.24755-.05712l-.562-.18995-1.06494-.39794c-.70532-.27784-1.40185-.56788-2.1145-.91211a5.43116,5.43116,0,0,1-1.16284-.72559,1.67962,1.67962,0,0,1-.37573-.50781l-.10913-.26221-.21143-.52539c-.27466-.70166-.52466-1.4082-.77368-2.11572a28.18644,28.18644,0,0,1-1.17749-4.38282l.63476.55762c-1.41528-.0791-2.82763-.11621-4.22827-.06494a22.58333,22.58333,0,0,0-4.1438.54883,37.6552,37.6552,0,0,0-4.09033,1.18994,5.08938,5.08938,0,0,1-2.5354-.12451c-.739-.187-1.45-.42285-2.071-.5752l-.70191-.17236.03491-.80615a22.22167,22.22167,0,0,0-.24023-4.81006,11.48993,11.48993,0,0,0-.58936-2.19873c-.248-.64844-.64453-1.38672-1.02392-2.13672a18.56266,18.56266,0,0,1-1.09961-2.48486,9.61934,9.61934,0,0,1-.52881-2.96827,13.07715,13.07715,0,0,1,.28564-2.84765c.18506-.91113.35572-1.67822.60743-2.59717a45.50408,45.50408,0,0,0,1.29663-4.625,6.93419,6.93419,0,0,0,.103-1.88965,1.95282,1.95282,0,0,0-.5254-1.18164c.053.019-.11816-.10058-.40869-.20654-.28491-.1084-.636-.21436-1.02954-.31934a12.274,12.274,0,0,1-2.82031-.98926,3.52193,3.52193,0,0,1-.967-.81,2.92014,2.92014,0,0,1-.62329-1.38038,5.06793,5.06793,0,0,1,.0813-1.88916,13.3968,13.3968,0,0,1,.94629-2.76171l.11767-.26172.16748-.1753a26.99591,26.99591,0,0,1,3.46558-3.06738c1.21167-.9126,2.39917-1.72412,3.49487-2.60058.54273-.44288,1.08838-.87989,1.602-1.355a10.40691,10.40691,0,0,0,1.30567-1.33594,1.0104,1.0104,0,0,0,.11572-.22022c.00366-.01611.01318-.03222.01514-.04785.0061-.00732.00732-.07812.00634.07276a.51625.51625,0,0,0,.02735.127l.00048-.00049c.00513.00391.0066-.00537-.00854-.03857a7.5686,7.5686,0,0,0-.4248-.84375l-.54493-.94922-.283-.50489a3.21892,3.21892,0,0,1-.32251-.75341l-.19238-.64844.62256-.2583q3.226-1.33814,6.50879-2.562Z"/><g class="bae6d2bc-cc88-4408-a04a-bef1180e9ac3"><polygon class="a3e345f7-6933-44c4-a64e-6d51e2b07f86" points="83.311 93.62 98.535 108.165 114.214 99.464 83.311 93.62"/><polygon class="a3e345f7-6933-44c4-a64e-6d51e2b07f86" points="25.685 17.283 55.265 25.289 46.516 7.53 25.685 17.283"/><polygon class="a3e345f7-6933-44c4-a64e-6d51e2b07f86" points="38.489 98.44 47.147 88.463 22.245 95.406 38.489 98.44"/><polygon class="a3e345f7-6933-44c4-a64e-6d51e2b07f86" points="123.793 30.943 110.346 49.607 126.59 38.088 123.793 30.943"/></g></svg>