<svg preserveAspectRatio="none" id="ec1e7cc0-d6ec-489f-8330-e99302ce860e" data-name="Layer 1" xmlns="http://www.w3.org/2000/svg" xmlns:xlink="http://www.w3.org/1999/xlink" viewBox="0 0 144 134.42553"><defs><style>.b9b0f694-a242-4962-8f23-d6bebb427d65{fill:none;}.b96f3174-4c39-44c0-af5b-18378eee63b7{fill:#6d6e71;}.e817f56b-3bf9-4c63-83d5-808aacf8d33f{clip-path:url(#bc45e77f-85e9-4c4f-aec3-f14a94802d89);}.b730b801-7d42-4e01-a9ea-2643c3a66dc6{fill:#58595b;}.a9f2d33c-98e7-4dd5-9067-948e2dcfd6ff{fill:#939598;}.b007531a-c403-4448-8beb-276ae01757aa{fill:#bcbec0;}.a7b75ff4-fa44-4e14-9d6c-dae65984f6a6{clip-path:url(#b5e2ce2f-08af-4bb8-91df-7f5768b5ee6f);}.a9ec791c-7fe3-4239-94b1-41dfefe5e348{fill:#808285;}.eea8e376-7c2e-4060-b2db-b47e5359c098{fill:#d5bdab;}</style><clipPath id="bc45e77f-85e9-4c4f-aec3-f14a94802d89"><path class="b9b0f694-a242-4962-8f23-d6bebb427d65" d="M30.80727,107.18486c1.679.69231,3.49519,1.29494,5.418,2.038,2.75128,1.06325,5.6518,2.23487,7.35745,4.4988,1.0273,1.36354,1.54672,3.04152,2.75528,4.27107,3.82276,3.88914,11.60048,1.03716,15.948,4.421,1.246.96979,2.05214,2.35844,3.31623,3.30792,3.244,2.43659,8.16,1.14733,11.63835-.99416s6.58046-5.08128,10.64927-5.95671a6.91808,6.91808,0,0,0,5.19572,1.53091,32.97044,32.97044,0,0,1,11.29126-9.54695c2.88644-1.57984,9.50811-5.32716,10.18958-8.7032-.36759,1.82108,2.34531,3.38663,4.30067,2.93088s3.16785-2.08479,4.22911-3.61064c4.68134-6.73068,9.54312-14.45773,7.24338-22.69176C128.03783,70.43879,119.235,64.62122,110.57611,61.194a110.01713,110.01713,0,0,0-29.32443-6.67278c-14.37045-1.47311-28.90966-1.0508-42.3054,2.53175-6.89086,1.84289-13.70525,4.70258-17.8129,9.93443-4.03919,5.14466-6.93266,14.375-4.5773,21.06269A58.38853,58.38853,0,0,0,23.753,101.98815,14.92611,14.92611,0,0,0,30.80727,107.18486Z"/></clipPath><clipPath id="b5e2ce2f-08af-4bb8-91df-7f5768b5ee6f"><path class="b9b0f694-a242-4962-8f23-d6bebb427d65" d="M17.48588,39.86966c-2.23239,2.85-5.43646,4.73454-7.59567,7.64629s-2.81644,7.741.02443,9.91066c.81409.62176,1.82113.94329,2.57347,1.64585,2.77763,2.59382.46236,28.60135,3.33955,31.07218,1.85972,1.59705,4.5821.6985,6.97623.51007,7.92294-.6236,14.72172,7.43512,22.64152,6.76879,2.16544-.18219,4.23149-1.02,6.37518-1.39005,6.3696-1.09943,16.40854.98423,21.59949,5.04024,3.616,2.8256,7.5,7.30519,11.78133,8.92053,3.18694,1.202,7.37258.53517,10.56368-.39345,3.95614-1.15125,3.07192-1.13439,5.30419-4.5364,2.53183-3.85855,4.71968-4.36411,9.208-4.8842,3.6371-.42145,7.42-.92853,10.47731-3.04318,3.15264-2.18062,5.65576-6.53463,8.26892-9.36567,2.30145-2.49335,2.87775-26.43914,3.34352-29.87957.77249-5.70617.8127-12.98072-4.10745-15.51821a10.18468,10.18468,0,0,1-2.90624-1.58579c-2.3138-2.39043.27165-7.02675-1.6428-9.78034a5.51216,5.51216,0,0,0-2.34228-1.72586c-8.15712-3.72684-17.6329-1.16366-26.38685-2.81388C80.717,23.77865,69.5985,10.20622,55.15132,9.012a7.55562,7.55562,0,0,0-3.94864.49189c-1.59014.77259-2.61787,2.39313-3.74233,3.80572a21.01121,21.01121,0,0,1-18.526,7.8288c-1.85177-.21448-3.73674-.6847-5.5522-.245s-3.533,2.20563-3.1772,4.12942c.90174,4.87287,4.64915,3.59222,1.068,7.45142-1.22856,1.324-3.27976,1.03316-4.13837,3.09068C16.8328,36.28817,17.25737,40.1614,17.48588,39.86966Z"/></clipPath></defs><title>Artboard 87 copy 4</title><path class="b96f3174-4c39-44c0-af5b-18378eee63b7" d="M30.80727,107.18486c1.679.69231,3.49519,1.29494,5.418,2.038,2.75128,1.06325,5.6518,2.23487,7.35745,4.4988,1.0273,1.36354,1.54672,3.04152,2.75528,4.27107,3.82276,3.88914,11.60048,1.03716,15.948,4.421,1.246.96979,2.05214,2.35844,3.31623,3.30792,3.244,2.43659,8.16,1.14733,11.63835-.99416s6.58046-5.08128,10.64927-5.95671a6.91808,6.91808,0,0,0,5.19572,1.53091,32.97044,32.97044,0,0,1,11.29126-9.54695c2.88644-1.57984,9.50811-5.32716,10.18958-8.7032-.36759,1.82108,2.34531,3.38663,4.30067,2.93088s3.16785-2.08479,4.22911-3.61064c4.68134-6.73068,9.54312-14.45773,7.24338-22.69176C128.03783,70.43879,119.235,64.62122,110.57611,61.194a110.01713,110.01713,0,0,0-29.32443-6.67278c-14.37045-1.47311-28.90966-1.0508-42.3054,2.53175-6.89086,1.84289-13.70525,4.70258-17.8129,9.93443-4.03919,5.14466-6.93266,14.375-4.5773,21.06269A58.38853,58.38853,0,0,0,23.753,101.98815,14.92611,14.92611,0,0,0,30.80727,107.18486Z"/><g class="e817f56b-3bf9-4c63-83d5-808aacf8d33f"><path class="b730b801-7d42-4e01-a9ea-2643c3a66dc6" d="M15.82766,86.43631s6.6538,25.09979,8.69229,26.37157S44.459,115.118,44.459,115.118L39.42645,90.38417S21.27743,82.70238,15.82766,86.43631Z"/><polygon class="b730b801-7d42-4e01-a9ea-2643c3a66dc6" points="60.448 121.329 51.657 84.829 65.847 92.792 63.888 130.867 60.448 121.329"/><path class="b730b801-7d42-4e01-a9ea-2643c3a66dc6" d="M79.94153,127.04314c.12741-.5,6.62511-36.659,6.62511-36.659l1.40146,33.48818Z"/><polygon class="b730b801-7d42-4e01-a9ea-2643c3a66dc6" points="92.81 123.236 101.601 87.627 114.851 90.933 114.214 105.432 92.81 123.236"/></g><path class="a9f2d33c-98e7-4dd5-9067-948e2dcfd6ff" d="M128.25944,42.37344c-3.88234-2.00209-4.5158-3.71312-3.176-7.73062,1.47471-4.422-1.08258-5.25186-3.63453-8.45076a3.84952,3.84952,0,0,0-1.66274-1.41308c-1.0863-.356-2.431.26607-3.34532-.42011-.79375-.59572-.73371-1.8144-.38843-2.74483a7.29751,7.29751,0,0,0,.84673-2.82633c-.12439-2.20348-2.90094-3.03494-5.09341-3.28766a17.347,17.347,0,0,0-5.31637-.0636c-3.22064.63237-3.4019,2.2118-5.70493,3.64713-.24144.15048-5.7054,1.40555-4.97781,2.21185l-1.15021-1.27464c-.67746.961-2.06952,1.04686-3.22846.84853a7.452,7.452,0,0,0-3.48039-.22561c-1.16.36963-2.01753,1.48215-3.221,1.66643,1.08746.48342.53171,2.53473-.651,2.40309,1.89226,1.67355,1.52726,4.70934.69443,7.09425s-1.98825,4.93882-1.17065,7.329c-.9132,1.12641-2.91025.00277-3.1278-1.43089s.57916-2.79544,1.11238-4.14392.71709-3.11667-.39951-4.04183a2.72722,2.72722,0,0,0-1.03771-.50567c-1.38747-.37461-3.05149-.06709-4.11731-1.03115a3.38791,3.38791,0,0,1-.72267-3.2156c.23542-1.12648.74477-2.18788.90994-3.32679.70906-4.88949-3.64152-5.45584-6.77386-7.22721C64.93626,11.66461,60.406,9.44633,55.15127,9.012a7.55555,7.55555,0,0,0-3.94859.49189c-1.59014.77259-2.61787,2.39313-3.74233,3.80572a21.01121,21.01121,0,0,1-18.526,7.8288c-1.85177-.21448-3.73674-.6847-5.5522-.245s-3.533,2.20563-3.17669,4.13215c.42942,2.31672,2.20895,3.67738,3.47176,5.57448a7.50411,7.50411,0,0,0,4.26852,3.06084c2.92229.77955,6.58993-.06514,8.58031,2.21211,1.34985,1.54442,1.45415,4.15861,3.29135,5.07076a5.72936,5.72936,0,0,0-6.64309,1.1132l.9552.98705c-.81716-.16552-.99732,1.25226-.366,1.79687s1.56475.64861,2.16434,1.228c.9709.93812.53275,2.69644-.52228,3.53884a7.21309,7.21309,0,0,1-3.8196,1.16317c.46494-2.0164.84368-4.39778-.54652-5.93056a6.47254,6.47254,0,0,0-2.09629-1.35546L26.43347,42.2905a5.16925,5.16925,0,0,0-1.95336-.62677c-1.32268-.05638-2.7683.87112-3.8743.14347-.64207-.42242-.97405-1.328-1.73051-1.46387a2.00389,2.00389,0,0,0-1.27839.36905c-2.55519,1.42608-6.37037,4.13091-7.7067,6.80357-2.15921,2.91176-2.81644,7.741.02443,9.91066.8121.62023,1.81619.94171,2.56793,1.64068,2.0121,1.87086-1.22457,10.26169-1.67174,12.78759a6.50224,6.50224,0,0,0-.10884,2.48779,6.62527,6.62527,0,0,0,.761,1.76656c1.44179,2.61387,2.67059,4.54165,2.94134,7.45468.161,1.73221-.07708,5.29221,1.42335,6.58073,1.85972,1.59705,4.5821.6985,6.97623.51007,7.92294-.6236,14.72172,7.43512,22.64152,6.76879,2.16544-.18219,4.23149-1.02,6.37518-1.39005,6.3696-1.09943,16.40854.98423,21.59949,5.04024,3.616,2.8256,7.5,7.30519,11.78133,8.92053,3.18694,1.202,7.37258.53517,10.56368-.39345,3.95614-1.15125,3.07192-1.13439,5.30419-4.5364,2.53183-3.85855,4.71968-4.36411,9.208-4.8842,3.6371-.42145,7.42-.92853,10.47731-3.04318,3.40066-2.35252,6.05309-6.4321,8.55038-9.67946,2.87661-3.7406,1.14573-7.3354-1.2865-11.07132a35.25878,35.25878,0,0,1,7.61923-8.89005,1.07425,1.07425,0,0,0,.41146-.52229,1.05526,1.05526,0,0,0-.07325-.56369c-1.52218-4.71484-3.3537-9.033-3.23947-13.9212C132.82319,48.77831,131.85048,44.22533,128.25944,42.37344Z"/><path class="b007531a-c403-4448-8beb-276ae01757aa" d="M31.53114,53.43844q-2.44738-2.44629-4.80713-4.96387l1.41968-.68946a.88486.88486,0,0,1-.09814.61622.75336.75336,0,0,1-.31983.30908.92822.92822,0,0,1-.35962.10693.83337.83337,0,0,1-.11181.00049,1.49206,1.49206,0,0,1-.17725-.01953l-.08423-.019c-.12622-.0293-.17944-.05127-.26514-.07813l-.39379-.148-.71265-.30273-1.36768-.6167-1.342-.59766-.65088-.26953-.29638-.10742c-.064-.03174-.23755-.04737-.03736-.02149a.95113.95113,0,0,0,.22461-.02246.86676.86676,0,0,0,.22559-.08349l.10962-.06836a.968.968,0,0,0,.20654-.18555.98079.98079,0,0,0,.22168-.53467c.00537-.07177.00024-.00976-.00195.00684l-.01075.07324a1.27591,1.27591,0,0,1-.03491.145,1.16158,1.16158,0,0,1-.252.438,1.34,1.34,0,0,1-.68359.39111,2.877,2.877,0,0,1-.59864.07862,6.94931,6.94931,0,0,1-.88623-.03223,11.043,11.043,0,0,1-1.6289-.28223,6.25864,6.25864,0,0,1-1.69141-.65967,2.04363,2.04363,0,0,1-.98755-1.227,1.63069,1.63069,0,0,1,.16773-1.1792,2.20289,2.20289,0,0,1,.49633-.59472,4.16766,4.16766,0,0,1,.86621-.55664l.74195-.37061c.1289-.05957.26489-.11865.42041-.17724a2.325,2.325,0,0,1,.70508-.16016c.06909-.00147.13891,0,.208.00537a1.59606,1.59606,0,0,1,.33423.07227,1.34458,1.34458,0,0,1,.53052.34423,1.31716,1.31716,0,0,1,.33984.66309,1.37237,1.37237,0,0,1,.009.48145,1.75647,1.75647,0,0,1-.062.25488,1.98677,1.98677,0,0,1-.11719.27588,3.68681,3.68681,0,0,1-.33545.51953,29.98517,29.98517,0,0,1-2.136,2.31592c-1.38965,1.41992-2.78857,2.81543-4.00366,4.2163l.28491-.437a10.15269,10.15269,0,0,0-.57812,2.03174,1.71906,1.71906,0,0,0-.0166.61817.17289.17289,0,0,0-.01954-.08106.8232.8232,0,0,0-.10009-.18066c-.05982-.07666-.052-.0586.01684-.02881a11.15529,11.15529,0,0,0,1.96021.56836c.42407.105.875.21582,1.38232.39355a4.65379,4.65379,0,0,1,1.76587,1.0293A5.74781,5.74781,0,0,1,20.651,57.96285a9.05057,9.05057,0,0,1-.09521,3.12549,36.8887,36.8887,0,0,1-1.49609,5.04736c-.23389.68945-.47535,1.54785-.66382,2.27539a13.108,13.108,0,0,0-.37329,2.13867,6.23932,6.23932,0,0,0,.17114,1.999,20.32241,20.32241,0,0,0,.72558,2.207,26.497,26.497,0,0,1,.87549,2.52637,13.93052,13.93052,0,0,1,.416,2.72949,27.52824,27.52824,0,0,1-.26758,5.249l-.667-.979c.74951.2583,1.36987.55566,2.009.75439a3.76054,3.76054,0,0,0,1.69165.24463c1.33374-.33887,2.77588-.73437,4.19971-1.02344a37.12941,37.12941,0,0,1,8.71484-.5166l.52393.02051.11084.53711a25.20218,25.20218,0,0,0,1.29858,4.08105c.26367.67237.56153,1.33155.87207,1.98047l.23706.48291.1211.23926c.04638.09277-.0149-.04346-.03858-.06494-.01562-.02246-.02368-.0293-.00879-.02a4.8438,4.8438,0,0,0,.759.36719,20.64091,20.64091,0,0,0,2.00634.66845l1.0354.28125.50123.11963c.01342.00147.13134.03125.01953-.0039-.05591-.022-.18384-.00684-.1211-.01709l.1626-.03858a38.07564,38.07564,0,0,0,3.98364-1.38672l.21778-.09472.15063-.0791.52612-.26954a10.75676,10.75676,0,0,1,1.09229-.50927,8.99092,8.99092,0,0,1,2.52051-.70313,7.95545,7.95545,0,0,1,2.67578.19873,6.97513,6.97513,0,0,0,1.80493.19092,8.95953,8.95953,0,0,0,1.77637-.3042c.303-.05908.62549-.19141.93725-.2832l.2356-.0752a2.51615,2.51615,0,0,1,.31738-.08691l.19116-.0332.08814-.00831.175-.01269a7.362,7.362,0,0,1,.772.01953c1.637.13184,3.06006.3623,4.55786.61084.74365.127,1.47339.25586,2.24683.417.2019.04346.38037.07959.6626.15723l.6184.20557,1.04395.34423c1.41138.47071,2.802.91993,4.27148,1.48536l.58472.24169c.0979.042.20264.08692.34692.16163l.19849.10156a3.36941,3.36941,0,0,1,.45239.312l.89331.82715L78.3202,95.2651c1.08008.97167,2.17823,1.92724,3.26807,2.86132a14.31467,14.31467,0,0,0,3.02783,2.25342c1.29834.61817,2.604,1.17432,3.87085,1.66065a8.71316,8.71316,0,0,0,3.29492.77685,4.161,4.161,0,0,0,1.42115-.42383c.61889-.273,1.38037-.62158,2.16137-.90869l-1.03808.83594a29.81733,29.81733,0,0,1,2.19311-2.87451c.75952-.88819,1.4314-1.67041,2.0586-2.53223l.46557-.65088a4.18706,4.18706,0,0,1,.36035-.44336A3.49375,3.49375,0,0,1,99.744,95.519a5.84044,5.84044,0,0,1,.51343-.35547,17.479,17.479,0,0,1,1.68091-.89209l1.59179-.71728.75318-.3335.40478-.18945a3.14472,3.14472,0,0,1,.39942-.14844c.10595-.02832.14526-.03076.22143-.0459a3.032,3.032,0,0,1,.36377-.0498,14.11552,14.11552,0,0,1,1.95264.02051l1.74219.14013c.55835.04346,1.16992.12647,1.56323.13233.54956.00927,1.09643.0083,1.64038-.00684a21.30607,21.30607,0,0,0,6.30786-1.00537l-.46265.36719c1.29737-1.59815,2.62964-3.17041,3.96094-4.74414,1.32739-1.57618,2.65406-3.15284,4.02295-4.69873l.34351.25c-1.05152,1.77734-2.14575,3.52343-3.239,5.27-1.08935,1.74951-2.17773,3.5-3.301,5.22509l-.13477.20655-.32837.16064a21.72321,21.72321,0,0,1-6.94629,1.88379q-.88183.10912-1.76049.17676c-.74219.05127-1.26392.01709-1.83936.01465l-1.66064-.0083a11.12768,11.12768,0,0,0-1.4502.085c-.05762.00586-.05688.01562-.05688.01562.00708-.00049-.02466.00488.01342-.00293a.78671.78671,0,0,0,.20044-.07275.43864.43864,0,0,0,.06568-.03955l-.0669.04-.13476.07861-.21607.12012-.77563.4165-1.46045.79492c-.46509.2627-.93921.53174-1.28687.77637a1.7432,1.7432,0,0,0-.17846.13965c.01367-.00733-.04468.041.02246-.01856a.65454.65454,0,0,0,.0979-.11425.34377.34377,0,0,0,.0271-.04493l-.03.04785-.48486.7627c-.65479,1.01367-1.41211,1.999-2.08179,2.87451-.67212.87549-1.24414,1.72363-1.81983,2.62647l-.35717.56006-.6814.27587c-.59351.24024-1.16406.51954-1.88135.8628a8.523,8.523,0,0,1-2.77856.85449,8.80072,8.80072,0,0,1-2.90235-.20459,19.58651,19.58651,0,0,1-2.39428-.69775c-1.488-.54883-2.88062-1.1753-4.23926-1.82178l-.5127-.24072a6.60724,6.60724,0,0,1-.76391-.45655c-.4021-.27441-.70215-.51611-1.02149-.76758-.62085-.4956-1.18847-.98828-1.76245-1.48486-1.12915-.999-2.20947-2.02295-3.2893-3.05029l-1.60914-1.55957-.7-.69824a1.33327,1.33327,0,0,0,.22315.1582l-.04688-.02442a1.44329,1.44329,0,0,0-.15088-.07568l-.42968-.19336c-1.26-.53613-2.64893-1.0581-4.01123-1.5708l-1.03809-.38867-.27417-.104-.17358-.06788c-.06275-.02148.08886.02881.02636.00733-.07129-.02442-.25073-.07324-.40722-.11231-.66138-.166-1.37574-.32275-2.0774-.47119-1.3955-.28711-2.8706-.58886-4.16162-.76269l-.32983-.03418.03735-.00391.14282-.02392c.25708-.07032.06543-.02295.05079-.01709l-.29444.07861c-.39868.09766-.76953.22412-1.19262.292a10.84413,10.84413,0,0,1-2.593.24658,10.38543,10.38543,0,0,1-2.55054-.44775,5.54588,5.54588,0,0,0-1.68677-.30176,6.02277,6.02277,0,0,0-1.75464.3252,8.22763,8.22763,0,0,0-.94555.33545l-.478.189-.35547.14014-.2998.09668a39.837,39.837,0,0,1-4.4856,1.08886c-.09668.01661-.24048.03125-.38306.04151a1.86828,1.86828,0,0,1-.39624-.01514,1.09656,1.09656,0,0,1-.24975-.05762l-.55835-.18945-1.06494-.39746c-.70532-.27832-1.40161-.56641-2.11426-.91211a5.40734,5.40734,0,0,1-1.15625-.7168,1.6298,1.6298,0,0,1-.20386-.21435,1.387,1.387,0,0,1-.17773-.30225l-.10913-.2622-.21143-.5254c-.27466-.70117-.5249-1.4082-.77392-2.11523a28.19182,28.19182,0,0,1-1.17725-4.3833l.63452.55762c-1.41528-.0791-2.82764-.11621-4.22827-.06446a22.54137,22.54137,0,0,0-4.1438.54834A37.77012,37.77012,0,0,0,23.36415,86.768a5.084,5.084,0,0,1-2.5354-.124c-.73926-.1875-1.45-.42285-2.071-.57519l-.70215-.17237.03492-.80664A22.19725,22.19725,0,0,0,17.85,80.27926a11.49814,11.49814,0,0,0-.58936-2.19874c-.24829-.64843-.645-1.3872-1.02441-2.1372A18.5393,18.5393,0,0,1,15.13685,73.458a9.61362,9.61362,0,0,1-.52832-2.96924,13.061,13.061,0,0,1,.28638-2.84766c.1853-.90918.35523-1.68115.60742-2.59912a45.66276,45.66276,0,0,0,1.3003-4.625,6.929,6.929,0,0,0,.09887-1.88721,1.96419,1.96419,0,0,0-.52392-1.18115,1.09967,1.09967,0,0,0-.40625-.20605c-.28223-.10889-.64453-.21338-1.033-.31885-.39014-.10645-.812-.21289-1.26953-.352A7.34259,7.34259,0,0,1,12.12,55.83883a3.61592,3.61592,0,0,1-.96778-.80323,2.83822,2.83822,0,0,1-.43261-.71191,3.06049,3.06049,0,0,1-.19556-.68408,5.13248,5.13248,0,0,1,.084-1.88575,13.32318,13.32318,0,0,1,.947-2.75976l.11816-.2627.167-.1748A57.59719,57.59719,0,0,1,16.362,44.47506c.73584-.625,1.53711-1.3042,2.09619-1.86231.05835-.05566.116-.13135.09619-.085a.78776.78776,0,0,0-.03906.10742.849.849,0,0,0-.03808.165,1.07549,1.07549,0,0,0,.00854.38965,1.18548,1.18548,0,0,0,.29981.581,1.1063,1.1063,0,0,0,.45385.294.92471.92471,0,0,0,.24317.05371.64608.64608,0,0,0,.115.00244c.15649-.02.04052-.01953-.01929-.00195-.08032.01855-.17676.0459-.27783.07861a3.739,3.739,0,0,0-1.01563.45117c-.031.02149-.03174.03516.00977-.03711a.69281.69281,0,0,0,.05-.46484c-.13306-.33545-.14234-.19385-.021-.14307a4.21066,4.21066,0,0,0,1.06348.43653,8.88662,8.88662,0,0,0,1.292.26758,5.0454,5.0454,0,0,0,.59839.04443c.07983.00146.16138-.01025.13916-.00391-.02564.02735-.06812-.0332-.35254.23243a.94953.94953,0,0,0-.20581.35839.877.877,0,0,0-.02954.12256l-.00806.062c-.001.0127-.00586.07081.002-.0039a1.13629,1.13629,0,0,1,.46241-.78125.94261.94261,0,0,1,.1311-.0752,1.23719,1.23719,0,0,1,.27051-.0957.95049.95049,0,0,1,.3164-.02539,2.06626,2.06626,0,0,1,.67774.17334c.14526.05762.26929.11426.39258.17236.24487.11475.47534.23242.70019.353l1.32227.72559,1.29248.7163.63183.3335.292.13965.08789.03808.00561.00489a.32155.32155,0,0,0-.085-.00879l-.06567.0039a.71336.71336,0,0,0-.31494.09327.844.844,0,0,0-.28931.2832.75859.75859,0,0,0-.08862.57031l1.41967-.68945q1.98927,2.81909,3.87915,5.71875Z"/><g class="a7b75ff4-fa44-4e14-9d6c-dae65984f6a6"><polygon class="a9ec791c-7fe3-4239-94b1-41dfefe5e348" points="83.229 93.684 98.453 108.229 114.132 99.528 83.229 93.684"/><polygon class="a9ec791c-7fe3-4239-94b1-41dfefe5e348" points="25.603 17.347 55.183 25.353 46.434 7.595 25.603 17.347"/><polygon class="a9ec791c-7fe3-4239-94b1-41dfefe5e348" points="38.407 98.504 47.065 88.527 22.163 95.47 38.407 98.504"/><polygon class="a9ec791c-7fe3-4239-94b1-41dfefe5e348" points="123.711 31.007 110.264 49.671 126.508 38.152 123.711 31.007"/></g><path class="a9f2d33c-98e7-4dd5-9067-948e2dcfd6ff" d="M82.563,116.82781a5.93537,5.93537,0,0,0-6.43333,2.05787,1.845,1.845,0,0,0-.42279,1.73557,2.15522,2.15522,0,0,0,.81961.84014l5.88966,4.13931c.22409.15749.47084.35471.48026.62844a.89149.89149,0,0,1-.379.6296,26.14285,26.14285,0,0,1-2.27224,1.83866c4.63076,1.10639,9.20338-1.69477,13.14361-4.36734,1.95779-1.32792,4.17976-3.32634,3.51521-5.59674a1.55476,1.55476,0,0,0-.68288-.95986,1.96691,1.96691,0,0,0-1.2706-.08838,12.55343,12.55343,0,0,0-5.5217,2.42278,4.68634,4.68634,0,0,0-2.40946-1.73851,3.45626,3.45626,0,0,0-2.5815-2.12872,10.19374,10.19374,0,0,0-3.48244-.00447c-.26088.02973-.56458.08821-.6796.32425s.24782.56208.39247.343"/><path class="b007531a-c403-4448-8beb-276ae01757aa" d="M89.10643,118.13115c.40561-.27553.13565-.98715-.33318-1.1308a1.99306,1.99306,0,0,0-1.40509.28973l-4.12649,2.0029a20.59241,20.59241,0,0,0,6.12619.68966l-4.09894,4.78884a11.216,11.216,0,0,0,4.66243.42817,3.66637,3.66637,0,0,1-.06907,1.72159,34.77194,34.77194,0,0,0,6.97345-7.03436,11.853,11.853,0,0,1-8.87308-1.98048"/><path class="b96f3174-4c39-44c0-af5b-18378eee63b7" d="M83.16014,120.09814c-.98971,1.35725-.31769,2.953.22747,4.4142s.86412,3.17254-.619,4.32077l-4.81033-4.799c-1.14889-1.14618-1.89277-1.77867-.57657-2.83626C78.3097,120.45219,82.65953,120.78467,83.16014,120.09814Z"/><path class="b730b801-7d42-4e01-a9ea-2643c3a66dc6" d="M26.1639,118.74a5.0638,5.0638,0,0,1,1.41679,1.218c.77958,1.11058.54956,2.60312.45406,3.95665s.13681,2.97978,1.35248,3.5825a16.72038,16.72038,0,0,0,5.72625-11.037c.264-2.83229-1.81545-1.61895-2.58848-3.21549-1.16038-2.39652.15816-3.19152.149-5.76048-.0126-3.54438-1.57092-5.00372-5.0913-4.44473-3.03095.48127-6.90417,3.565-8.47741,6.112C16.02046,114.14582,22.29919,116.17465,26.1639,118.74Z"/><path class="a9f2d33c-98e7-4dd5-9067-948e2dcfd6ff" d="M28.57322,103.56845a1.22955,1.22955,0,0,0-1.35173-.86544,3.58059,3.58059,0,0,0-1.5936.71171l-3.11681,2.06475c-.54038.358-1.13756.81025-1.17249,1.45751-.05394.99956,1.19451,1.48916,2.18965,1.59741s2.24077.32674,2.49382,1.29524c.40507,1.5503-2.28461,3.20678-1.13565,4.32364a3.769,3.769,0,0,0,1.08094.51639,1.8779,1.8779,0,0,1,1.03678,1.73957c3.00762-.77765,4.61249-4.194,4.68854-7.29962a5.49984,5.49984,0,0,0-.6188-2.99425,2.58623,2.58623,0,0,0-2.59364-1.31252l1.04647-.45154"/><path class="b96f3174-4c39-44c0-af5b-18378eee63b7" d="M22.49453,107.80445a7.03839,7.03839,0,0,0-5.0078,1.76666c-.342.3066-.67866.75635-.51537,1.18567a1.25672,1.25672,0,0,0,.399.47479l4.51622,3.84023a2.73047,2.73047,0,0,1,.92122,1.12772,2.87593,2.87593,0,0,1,.06894,1.06082,4.17015,4.17015,0,0,0,.321,2.20722,1.60715,1.60715,0,0,0,1.87826.85577,2.21851,2.21851,0,0,0,1.06524-1.32987,7.89284,7.89284,0,0,0,.66441-2.81248c.05033-2.59613-1.74138-4.94725-1.76111-7.54379"/><path class="eea8e376-7c2e-4060-b2db-b47e5359c098" d="M96.65769,79.20164c1.04831,3.22584,3.428,5.809,5.597,8.41673,2.17481,2.61475,3.9919,5.36842,4.58014,8.76312,2.07776-3.10319,7.58233-8.05234,4.39191-11.72558C108.17753,81.14522,100.94071,80.0795,96.65769,79.20164Z"/><path class="a9ec791c-7fe3-4239-94b1-41dfefe5e348" d="M107.84207,85.73444c-2.66392-1.204-5.18192-1.48618-7.95818-2.12494-1.51671-.349-1.36686-.0589-2.42267-1.51341-.31231-.43025-1.45313-3.07739-1.859-3.143q4.35242.70329,8.63944,1.75241a15.70961,15.70961,0,0,1,4.86369,1.82472,6.96722,6.96722,0,0,1,2.90578,7.73885,4.04,4.04,0,0,0-1.39235-2.8499A10.08768,10.08768,0,0,0,107.84207,85.73444Z"/><path class="a9f2d33c-98e7-4dd5-9067-948e2dcfd6ff" d="M116.36419,111.83363a15.32031,15.32031,0,0,0-8.40979,4.16292,1.21417,1.21417,0,0,0-.46783.82714,1.13113,1.13113,0,0,0,.29926.64612c1.55846,1.96526,4.47814,3.035,4.91414,5.505a17.22917,17.22917,0,0,1-.25293,3.465,5.2984,5.2984,0,0,0,1.98985,4.25032l6.97457-9.348a3.8215,3.8215,0,0,0,.81051-1.526,4.88474,4.88474,0,0,0-.11627-1.61064c-.20866-1.36208-.0909-2.75563-.25837-4.12339a4.87157,4.87157,0,0,0-1.84049-3.557c-1.201-.79906-2.941-.78709-3.80429-1.94272l.97016.35615C116.01345,110.04964,116.8216,110.29439,116.36419,111.83363Z"/><path class="b007531a-c403-4448-8beb-276ae01757aa" d="M113.62446,124.879c.55776.95339,1.56182,1.77108,1.51691,2.87472a38.59582,38.59582,0,0,0,3.89238-7.22532c.79659-2.13011,2.43073-7.43825-.06853-9.00918-1.45416-.914-4.06923-.01223-5.3627.81165-1.86186,1.18593-2.05772,2.09375-.70381,3.64275,1.40064,1.60247,2.27781,1.51247,1.4196,3.86137C113.65993,121.63694,112.445,122.86293,113.62446,124.879Z"/><path class="a9ec791c-7fe3-4239-94b1-41dfefe5e348" d="M107.9199,121.77592a2.89541,2.89541,0,0,1,3.1247,1.44448,11.92219,11.92219,0,0,0,1.62082-3.38235c.56776-2.36609-.84935-3.93875-2.48342-5.307A34.4923,34.4923,0,0,0,107.9199,121.77592Z"/><path class="eea8e376-7c2e-4060-b2db-b47e5359c098" d="M56.10049,107.36021a8.85479,8.85479,0,0,0-7.00886,2.62521,30.935,30.935,0,0,0,8.76548,8.48272L53.9187,105.657"/></svg>