<svg id="aed8d581-6e4d-4e69-adad-ace6dd1303dd" data-name="Layer 1" xmlns="http://www.w3.org/2000/svg" viewBox="0 0 260 362.49089"><defs><style>.f2cf1fe3-9782-4148-ae6d-5491df165ec7{fill:#fff;stroke:#000;stroke-miterlimit:10;}</style></defs><title>Artboard 3</title><path class="f2cf1fe3-9782-4148-ae6d-5491df165ec7" d="M134,.5H259.27424V162.44364a275.45715,275.45715,0,0,1-5.60869,66.338q-.21852,1.0603-.44771,2.12827C242.24324,282.03444,212.63091,345.754,134,362"/><path class="f2cf1fe3-9782-4148-ae6d-5491df165ec7" d="M134.5.5H.74105V162.44364s-2.08147,29.66355,5.98856,66.338q.23332,1.0603.478,2.12827C18.92554,282.03444,50.54349,345.754,134.5,362"/><path d="M96.35742,205.4834c-5.34765-3.917-7.876-4.91113-11.71972.33642l-6.95118,9.49024a51.158,51.158,0,0,1-4.99218,6.208l-3.59082-4.08887a88.29215,88.29215,0,0,0,5.835-7.5625l5.60254-7.648c5.80664-7.92676,9.08984-8.26709,16.98925-2.48047l16.32911,11.96094-3.14844,4.29834ZM81.84668,226.50586l3.18945-4.35449,13.77539,10.09082-3.18945,4.35449Z"/><path d="M106.3916,190.875c-4.24414-4.30957-7.75781-3.45312-11.05664-.46533l-3.74414-4.28613c3.89746-4.00733,8.31641-4.88721,12.39453-2.67286a14.13106,14.13106,0,0,1,1.18848-15.77c6.3789-8.70849,14.82129-5.78418,24.11719,1.02539l6.166,4.51661c.4336.31787,3.16211,3.26074,3.71387,3.92138l-8.05567,10.99756c-1.63574,2.23291-3.71386,5.1709-4.47558,6.41406l-3.5918-4.08935a75.8917,75.8917,0,0,1,4.83692-7.00781l4.29394-5.86133c-1.98242-1.53809-3.957-2.98389-5.88476-4.39551-6.06836-4.4458-12.64649-7.89209-17.43165-1.36084-4.53906,6.19629-.83593,12.25439,1.82618,15.49121,2.57226,3.25684,7.543,8.69873,11.43066,13.09082l-3.18945,4.35449C114.78711,200.02686,109.50586,194.09961,106.3916,190.875Z"/><path d="M139.36035,167.58984c3.291-4.79492,4.8457-12.57617-1.50488-17.14257l-1.87891-1.376c-3.99023-2.83789-5.92285-2.624-9.90527.89258-1.14844.96045-3.46191,3.21093-4.41211,3.80127l-3.50293-4.10938a54.9417,54.9417,0,0,0,4.23535-3.76025c6.835-6.40137,10.06055-5.75391,16.48633-1.39063l7.19629,4.92871a49.14867,49.14867,0,0,0,9.4541,5.38086l-3.18945,4.3545c-1.42774-.27344-5.0791-2.26221-7.73535-4.29346,3.26074,5.04736,2.92773,11.665-1.08008,17.13574Z"/><path d="M150.38867,130.20605c-4.14258-3.03417-6.04492-3.56933-10.14941.11426a44.26354,44.26354,0,0,1-3.69629,3.125l-3.54395-4.05322a29.26,29.26,0,0,0,3.5918-3.2876c5.73633-5.40527,8.99121-6.10937,16.3125-.74658l15.751,11.5376-3.18946,4.354Z"/><path d="M149.69336,116.40234l-3.5918-4.08886a89.83409,89.83409,0,0,0,5.877-7.61817L164.001,88.28271l3.64648,4.21534-1.55371,2.12109c-1.22754,1.67481-.665,3.03027,2.80273,5.57031,5.78028,4.23438,12.82422,8.96534,17.668,12.25537l-3.18945,4.3545c-3.17187-2.23731-11.50977-7.83057-16.75977-11.67627-3.32324-2.43457-4.10449-3.69239-4.48828-5.08887l-7.60644,10.3833A46.65536,46.65536,0,0,1,149.69336,116.40234Z"/></svg>