<svg preserveAspectRatio="none" id="baadfdb1-8728-4815-a5c9-fd6db10eb4bc" data-name="Layer 1" xmlns="http://www.w3.org/2000/svg" xmlns:xlink="http://www.w3.org/1999/xlink" viewBox="0 0 530.04289 298.14894"><defs><style>.a89156c9-7368-479b-a0b8-4dc6bc01f1eb,.ae8d803c-7f60-4ab4-8322-80fa379c8cfd{fill:none;}.af1e7730-f50b-4557-921f-2fa0e70194bf{clip-path:url(#b6190ed2-45f6-438b-8119-87a345d41151);}.e413bf00-c713-49c0-af0c-f860a1efa36b{fill:#decda8;}.a9f6afe6-0dbf-452e-97e9-f2a3887a64a1{fill:#c59f74;}.a259325d-d7d4-4ab0-ae39-48940e91f330{fill:#ddc09b;}.fa96e30e-49f6-4e1e-9276-e6855aa2a6ca{fill:#6d6e71;}.ae8d803c-7f60-4ab4-8322-80fa379c8cfd{stroke:#bcbec0;stroke-linejoin:round;stroke-width:7.44593px;stroke-dasharray:23.00651 7.43202;}</style><clipPath id="b6190ed2-45f6-438b-8119-87a345d41151"><rect class="a89156c9-7368-479b-a0b8-4dc6bc01f1eb" width="530.04255" height="298.14894"/></clipPath></defs><title>Artboard 394</title><g class="af1e7730-f50b-4557-921f-2fa0e70194bf"><rect class="e413bf00-c713-49c0-af0c-f860a1efa36b" x="115.94681" y="-115.94681" width="298.14894" height="530.04255" transform="translate(115.94681 414.09574) rotate(-90)"/><path class="a9f6afe6-0dbf-452e-97e9-f2a3887a64a1" d="M85.45618,162.207a.81233.81233,0,0,1-.83618-.48274,6.40415,6.40415,0,0,1-.31457-.98957,7.62225,7.62225,0,0,0-1.17846-1.85137,2.514,2.514,0,0,1-.5623-2.05449c-.97252.03427-2.05352.712-2.82487.1187a1.67566,1.67566,0,0,1-.36653-1.80353,6.17836,6.17836,0,0,0,.53728-1.686,6.83281,6.83281,0,0,1-1.1218.4783c-.562.06975-1.03415-.48075-1.52393-.37983a.81154.81154,0,0,0-.39294.27323l-.91232.95611a.52875.52875,0,0,1-.22574.1644c-.31225.08619-.46595-.38823-.3788-.70021s.23839-.6943.00536-.9193c-.27168-.26232-.7052.01108-.99746.25027s-.8234.39575-.96836.047l-1.28.0352a.3609.3609,0,0,0-.23241.06086.38486.38486,0,0,0-.09231.25769,3.04162,3.04162,0,0,1-1.49919,2.2632.61943.61943,0,0,1-.65094.06264.64558.64558,0,0,1-.19025-.297c-.21567-.5465-.19575-1.92042-.52375-2.31272-.35-.41864-1.57735-.58545-2.11516-.82761a5.565,5.565,0,0,0-.64378,3.40036c.0126,1.20058-.95261,2.6996-.88163,3.71523a3.62463,3.62463,0,0,0-2.08146-2.98763,7.38446,7.38446,0,0,0,.69665,3.22621,3.09278,3.09278,0,0,1-1.09966-1.66512,4.81178,4.81178,0,0,0-.36408,2.98168,1.53078,1.53078,0,0,1,.0523.60549.43374.43374,0,0,1-.41737.37147,2.43881,2.43881,0,0,1-1.484,1.71936c.0295.44657.71188.35569,1.11381.15886,1.06686-.52245,2.50271-.71377,3.32244.146a23.93382,23.93382,0,0,1,2.72445-2.24933l-.46658.26053c3.35855,1.77976,7.13755,3.38188,10.85819,2.60455a2.18948,2.18948,0,0,0-.82138-2.73113,3.37066,3.37066,0,0,0,4.18025.67935l-.27776-.47251c.10538-.61491.98913-.68607,1.55839-.43082A5.94261,5.94261,0,0,0,85.45618,162.207Z"/><path class="a259325d-d7d4-4ab0-ae39-48940e91f330" d="M72.42411,165.30329a12.68062,12.68062,0,0,0,1.12667-7.37434,10.42339,10.42339,0,0,0,.76841,2.28163,1.58636,1.58636,0,0,0,.60364.7669c.70641.38372,1.49044-.33212,1.976-.97283l.08762,2.64625a7.23366,7.23366,0,0,0,4.36348-1.20534,8.0508,8.0508,0,0,1-5.66137,5.17688.73062.73062,0,0,0-.08264-1.123,1.142,1.142,0,0,0-.55419-.14016,10.20541,10.20541,0,0,0-2.62818.49889,2.85291,2.85291,0,0,1-2.54865-.40815c-1.12493-1.03232-.4997-3.06108-1.45244-4.25416a3.0148,3.0148,0,0,0-2.306-.93572c-.85614-.02659-1.71475.11831-2.5674.03664.15125.607.9635.85858,1.12777,1.46219.19335.71049-.653,1.29082-1.38824,1.33032a8.24454,8.24454,0,0,0-2.19548.03873,6.44624,6.44624,0,0,0,3.33267,1.34287,2.95732,2.95732,0,0,1,1.4343.33435c.408.28379.55055.99238.12457,1.24844"/><path class="a9f6afe6-0dbf-452e-97e9-f2a3887a64a1" d="M474.73942,216.676a.33344.33344,0,0,1-.34324-.19816,2.62926,2.62926,0,0,1-.12912-.40619,3.12885,3.12885,0,0,0-.48373-.76,1.03194,1.03194,0,0,1-.23082-.84332c-.3992.01406-.84292.29225-1.15955.04872a.68784.68784,0,0,1-.15045-.74031,2.53606,2.53606,0,0,0,.22054-.69208,2.80379,2.80379,0,0,1-.46047.19633c-.23071.02863-.4245-.19734-.62554-.15591a.33306.33306,0,0,0-.16129.11215l-.37449.39247a.217.217,0,0,1-.09266.06748c-.12817.03538-.19127-.15936-.15549-.28742s.09785-.285.0022-.37735c-.11152-.10768-.28947.00455-.40944.10272s-.338.16245-.39749.01931l-.52541.01444a.14815.14815,0,0,0-.0954.025.158.158,0,0,0-.03789.10577,1.24852,1.24852,0,0,1-.61538.929.25427.25427,0,0,1-.2672.02571.265.265,0,0,1-.07809-.1219c-.08853-.22433-.08035-.7883-.215-.94932-.14368-.17185-.64747-.24032-.86823-.33972a2.28433,2.28433,0,0,0-.26426,1.39577c.00518.49282-.391,1.10813-.36189,1.525a1.48782,1.48782,0,0,0-.85439-1.22636,3.03115,3.03115,0,0,0,.286,1.32429,1.26956,1.26956,0,0,1-.45139-.6835,1.97517,1.97517,0,0,0-.14945,1.22391.6283.6283,0,0,1,.02148.24855.17806.17806,0,0,1-.17133.15248,1.00108,1.00108,0,0,1-.60913.70576c.01211.1833.29221.146.4572.0652a1.1929,1.1929,0,0,1,1.36379.05993,9.82286,9.82286,0,0,1,1.11832-.9233l-.19152.10694a6.83165,6.83165,0,0,0,4.457,1.06911.89873.89873,0,0,0-.33716-1.12107,1.38357,1.38357,0,0,0,1.7159.27886l-.114-.194c.04326-.25241.406-.28162.63969-.17685A2.43925,2.43925,0,0,0,474.73942,216.676Z"/><path class="a259325d-d7d4-4ab0-ae39-48940e91f330" d="M469.39,217.9469a5.20508,5.20508,0,0,0,.46247-3.027,4.279,4.279,0,0,0,.31542.93656.65121.65121,0,0,0,.24778.3148c.29.15751.61179-.13633.8111-.39933l.036,1.08623a2.96927,2.96927,0,0,0,1.79111-.49476,3.30467,3.30467,0,0,1-2.32387,2.125.2999.2999,0,0,0-.03392-.461.46879.46879,0,0,0-.22748-.05753,4.189,4.189,0,0,0-1.07881.20478,1.17111,1.17111,0,0,1-1.04617-.16753c-.46176-.42375-.20511-1.25651-.59619-1.74625a1.23753,1.23753,0,0,0-.94658-.38409c-.35142-.01091-.70387.04857-1.05386.015.06209.24916.3955.35243.46292.6002.07937.29164-.268.52985-.56984.54607a3.38369,3.38369,0,0,0-.90119.0159,2.646,2.646,0,0,0,1.368.55121,1.214,1.214,0,0,1,.58875.13725c.16749.11649.226.40735.05114.51245"/><path class="a9f6afe6-0dbf-452e-97e9-f2a3887a64a1" d="M420.652,78.43007l2.92007-.91028a.75485.75485,0,0,0,.61762.75894,1.97092,1.97092,0,0,0,1.05184-.12845,12.47253,12.47253,0,0,0,2.90731-1.39853c.33944.89247,1.618.80136,2.5377.54488L434.467,76.2424a3.7734,3.7734,0,0,0-.99879,3.59,13.47779,13.47779,0,0,0-7.12645,1.00936,2.75722,2.75722,0,0,0-1.50194,1.20934c-.57056,1.23279.62874,2.517,1.70233,3.34926a9.74988,9.74988,0,0,1-2.42931,1.2843,1.66261,1.66261,0,0,1-.9876.12226c-.81775-.226-.87605-1.45022-.36211-2.12522a12.98536,12.98536,0,0,1,1.97956-1.58447c-.76628-1.17072-2.4423-1.21739-3.83313-1.06325-1.76316.19542-3.53047,4.77778-5.20749,2.17427-1.17056-1.81725,1.48623-5.50308,2.68024-6.5896C418.63,78.80235,419.70334,78.72581,420.652,78.43007Z"/><path class="a259325d-d7d4-4ab0-ae39-48940e91f330" d="M422.42859,84.05525c.223.06891.3185-.2658.3505-.497a2.82209,2.82209,0,0,1,1.50063-1.76917A31.188,31.188,0,0,1,428.134,79.697a8.52324,8.52324,0,0,0-4.12742,1.689c-.41758.32053-.84231.78023-.74741,1.298.05238.28582.2593.52784.29729.81592.07424.56291-.55992,1.01174-1.12632.97214a2.912,2.912,0,0,1-1.49969-.75068.52756.52756,0,0,1-.1792.7871.797.797,0,0,1-.86587-.16308,1.71111,1.71111,0,0,1-.44864-.80907,4.222,4.222,0,0,1,.05984-2.54709,4.95093,4.95093,0,0,1-1.60294,5.17.28284.28284,0,0,1,.25664-.32917,9.19414,9.19414,0,0,0-.52768-3.99245,5.535,5.535,0,0,0,1.64714,1.31556.48554.48554,0,0,0,.41345.06922c.15221-.07027.19251-.264.21371-.43029l.15862-1.24428,1.0848,1.07352a.26825.26825,0,0,0,.47643-.026l2.32672-2.6964c-.41247,1.78745-2.51266,3.04729-2.32691,4.87228,1.70181-1.90851,3.50119-3.8855,5.89583-4.7823a11.23977,11.23977,0,0,0-.35271,1.46453.87046.87046,0,0,0,.01214.47942.90774.90774,0,0,0,.4121.38381l1.56874.93533a10.55488,10.55488,0,0,0-2.45815-.18253.91189.91189,0,0,0-.62119.19177.7903.7903,0,0,0-.0709.8349,2.80006,2.80006,0,0,1,.28589.83485l-1.98036.20226a.84211.84211,0,0,0-.61314.24034c-.13669.18025-.00392.52621.21576.47225"/><path class="a259325d-d7d4-4ab0-ae39-48940e91f330" d="M299.86383,92.56853a16.82907,16.82907,0,0,1,2.60324-5.72652,1.76687,1.76687,0,0,0,.82476,2.3187,1.54412,1.54412,0,0,0,2.06017-1.17c0,2.63344,1.97841,5.2084,1.14814,7.70753a9.84946,9.84946,0,0,0,4.18024-2.61835,9.59811,9.59811,0,0,0,.51,1.87778"/><path class="a259325d-d7d4-4ab0-ae39-48940e91f330" d="M156.28251,269.147a5.38993,5.38993,0,0,1-3.84309-3.0198c.79576-.65735,1.97-.51636,2.93769-.87553s1.55459-1.95933.57767-2.29245a6.62252,6.62252,0,0,0,3.76166,1.26635,2.85809,2.85809,0,0,0,2.22908,3.83165"/><polygon class="fa96e30e-49f6-4e1e-9276-e6855aa2a6ca" points="0 298.147 0 227.51 530.043 227.51 530.043 262.828 530.043 298.147 0 298.147"/><polygon class="fa96e30e-49f6-4e1e-9276-e6855aa2a6ca" points="0 70.637 0 0 530.043 0 530.043 35.319 530.043 70.637 0 70.637"/><polygon class="fa96e30e-49f6-4e1e-9276-e6855aa2a6ca" points="70.637 298.149 0 298.149 0 0 35.319 0 70.637 0 70.637 298.149"/><polygon class="fa96e30e-49f6-4e1e-9276-e6855aa2a6ca" points="530.043 298.149 459.405 298.149 459.405 0 494.724 0 530.043 0 530.043 298.149"/><path class="ae8d803c-7f60-4ab4-8322-80fa379c8cfd" d="M35.43914,262.82878H494.60407V35.319H35.43914Z"/></g></svg>