<svg id="fcb29cdb-2e5d-4d14-9a16-1d002bcb9a5b" data-name="Layer 1" xmlns="http://www.w3.org/2000/svg" xmlns:xlink="http://www.w3.org/1999/xlink" viewBox="0 0 530.02331 298.14894" preserveAspectRatio="none"><defs><style>.a45daf31-9172-44ff-9e94-31b720e67222,.ac025d07-3a05-49a6-b841-9e2028a22b83{fill:none;}.ab6091be-48f7-4fb1-b6c0-58dc7d2670dd{clip-path:url(#ad8c0196-985e-42f2-8b4d-12d1a6c82d74);}.a94ba20f-c7d7-43c9-ae75-5bc965310559{fill:#decda8;}.a4f08924-ff3f-4a5a-bfae-1fdc22fecab2{fill:#6d6e71;}.a45daf31-9172-44ff-9e94-31b720e67222{stroke:#bcbec0;stroke-miterlimit:10;stroke-width:8px;stroke-dasharray:25 8.076;}.adf3647f-82b3-4173-9c20-6dec0b88b96f{fill:#3f3027;}.a86911c2-373c-4189-8ec7-98ccab811184{fill:#f6dac6;}.ae74ca7c-1966-460f-9afa-c1acbafcb37e{fill:#c59f74;}.a17a96d5-db52-4ebd-8f6c-be72faf890bc{fill:#ddc09b;}.b8cc3f0a-26d5-46ca-bdab-48a99020ff63{fill:#4c4c4d;}.edf52eec-d888-42f4-932b-076c5ea145e3{clip-path:url(#af5360f7-8e73-419d-962d-67f0d3c53347);}.abbd161a-083e-4242-9cd4-96a2029c5ffb{fill:url(#f67a6d04-290d-4480-9fc6-f85683fa02a1);}.af26120b-3a05-4c30-a3dd-e9f8f70388d1{fill:url(#bcee4953-4dd2-4dab-98d7-2c1d775e688a);}.a0f88e23-0755-41bb-a4b8-78a32b3b92e5{fill:#939598;}.f6ad5cd9-1a70-4823-91db-e5e29a9df4ce{fill:url(#a09893c7-17ab-4f35-83fc-fcddb0519b34);}.af981eb6-8fb6-4b38-bce9-f979eda68dc0{fill:url(#ba674bf1-4045-479f-914c-44acf183c7b0);}.ea7dfec7-0edd-4826-8045-13e61d511e71{fill:#ffefd6;}.a0c86ce1-6a0a-4f93-bf21-b4351043aa7a{fill:#414042;}.a4f470b3-b0dc-4220-80b3-59550a0e33fc{fill:#808285;opacity:0.5;}</style><clipPath id="ad8c0196-985e-42f2-8b4d-12d1a6c82d74"><rect class="ac025d07-3a05-49a6-b841-9e2028a22b83" y="0.13302" width="530.04255" height="298.14894"/></clipPath><clipPath id="af5360f7-8e73-419d-962d-67f0d3c53347"><polygon class="ac025d07-3a05-49a6-b841-9e2028a22b83" points="551.313 179.565 482.632 157.169 332.505 179.565 235.483 165.42 110.377 179.565 -22.468 179.565 -22.468 63.311 39.909 63.311 97.1 45.778 183.398 63.311 292.675 63.311 398.888 56.976 472.419 63.311 551.313 63.311 551.313 179.565"/></clipPath><linearGradient id="f67a6d04-290d-4480-9fc6-f85683fa02a1" x1="264.4468" y1="112.60734" x2="264.4468" y2="42.90521" gradientUnits="userSpaceOnUse"><stop offset="0" stop-color="#3f3027"/><stop offset="0.52206" stop-color="#60493d"/><stop offset="1" stop-color="#916f59"/></linearGradient><linearGradient id="bcee4953-4dd2-4dab-98d7-2c1d775e688a" x1="170.47264" y1="110.69245" x2="170.47264" y2="45.77755" gradientUnits="userSpaceOnUse"><stop offset="0.0049" stop-color="#3f3027"/><stop offset="1" stop-color="#98745d"/></linearGradient><linearGradient id="a09893c7-17ab-4f35-83fc-fcddb0519b34" x1="509.86785" y1="108.96644" x2="509.86785" y2="63.26951" gradientUnits="userSpaceOnUse"><stop offset="0.0049" stop-color="#3f3027"/><stop offset="0.3799" stop-color="#4b392f"/><stop offset="1" stop-color="#60493d"/></linearGradient><linearGradient id="ba674bf1-4045-479f-914c-44acf183c7b0" x1="293.37692" y1="104.56479" x2="293.37692" y2="59.95036" gradientUnits="userSpaceOnUse"><stop offset="0.0049" stop-color="#3f3027"/><stop offset="1" stop-color="#60493d"/></linearGradient></defs><title>Artboard 71 copy 4</title><g class="ab6091be-48f7-4fb1-b6c0-58dc7d2670dd"><rect class="a94ba20f-c7d7-43c9-ae75-5bc965310559" x="115.94681" y="-115.81378" width="298.14894" height="530.04255" transform="translate(115.81378 414.22877) rotate(-90)"/><polygon class="a4f08924-ff3f-4a5a-bfae-1fdc22fecab2" points="354.097 298.282 180.224 298.282 180.224 194.274 267.16 194.274 354.097 194.274 354.097 298.282"/><line class="a45daf31-9172-44ff-9e94-31b720e67222" x1="267.16045" y1="298.28196" x2="267.16045" y2="194.27383"/><polygon class="a4f08924-ff3f-4a5a-bfae-1fdc22fecab2" points="354.097 104.141 180.224 104.141 180.224 0.133 267.16 0.133 354.097 0.133 354.097 104.141"/><line class="a45daf31-9172-44ff-9e94-31b720e67222" x1="267.16045" y1="104.14115" x2="267.16045" y2="0.13302"/><polygon class="adf3647f-82b3-4173-9c20-6dec0b88b96f" points="551.125 200.602 482.444 177.41 332.317 200.602 292.487 195.744 237.132 193.482 226.802 199.735 219.143 192.65 207.845 191.309 193.43 190.856 110.189 200.602 -22.656 200.602 -22.656 62.816 39.721 62.816 96.912 44.659 183.21 62.816 292.487 62.816 398.7 56.255 472.232 62.816 551.125 62.816 551.125 200.602"/><path class="a86911c2-373c-4189-8ec7-98ccab811184" d="M551.45141,201.05692c-11.27-3.49829-22.71435-6.88428-34.40576-10.30518-11.689-3.39062-23.59082-7.023-35.501-10.67725l1.32862.11475c-12.45948,2.26172-24.90821,4.59424-37.3794,6.783L408.094,193.625c-12.46973,2.19824-24.92627,4.47974-37.40723,6.60571l-37.42822,6.469-.76416.13208-.9248-.105L291.7,202.19608l.52148.04248-55.36963-1.88745,3.84082-.9878-10.29883,6.30445-4.4292,2.71167L222.093,204.8262l-7.6875-7.05493,3.915,1.8064-11.30469-1.27857.60791.04566-14.41552-.41919,1.04443-.04444-83.22461,9.88794-.272.03223-.56738.0166-33.21094.97339c-5.53516.14673-11.07031.35913-16.60547.45166l-16.606.29419-33.21093.58789-8.30274.144-8.30322.04883-16.60547.09766-9.793.05737-.02051-9.87085-.14209-68.89306-.07129-34.44654-.02441-34.44629-.00684-10.075,10.05811.02368,62.37695.14649-2.99707.46435,57.2378-18.01123,2.48-.78027,2.47851.53223c14.37061,3.08569,28.76123,6.074,43.11475,9.24l43.07959,9.40966-1.9043-.198,53.78906.42846,26.89893.21509,26.90625.343c1.12207.04248,2.24121-.0127,3.35986-.07886l3.35694-.17041,6.71435-.34033,13.4292-.68066,26.86133-1.36109,53.73779-2.72143.62061-.0315.44336.0459,73.4375,7.61621-.5337-.02368,19.72315.50342c6.57471.14868,13.14892.377,19.72363.59033l39.44678,1.283,3.69629.12012-.06592,3.51049c-.44092,23.4585-1.05469,46.82544-1.648,69.9104l-.92529,34.36621Q551.7495,184.16043,551.45141,201.05692Zm-.65283-.90943-.31641-137.3313.64307.64283-78.89356.0913-.03222.00025-.03321-.00318L398.63012,57.0347l.11768.00146L344.91674,60.399l-26.91552,1.68139-13.458.84082-6.729.42017-3.36474.2102c-1.1211.07935-2.24268.14771-3.36719.12208l-107.87207.08959-.09766.00025-.09716-.02051L96.70288,45.6553l.51757-.02587L40.0437,63.83206l-.15674.04981h-.166L-22.656,63.928l1.11182-1.11182-.07471,137.78589L-22.656,199.565l132.84473.24512-.0918.00537,83.24219-9.73682.05761-.00683.05811.00171,14.41455.45508.03418.001.03369.00415,11.29736,1.343.25147.03.18555.17163,7.6582,7.08643-.92969-.09424,10.33154-6.25073.19971-.12085.23242.00952,55.354,2.27954.03076.00122.02978.00366,39.82813,4.8728-.20313.00318,150.14649-23.07007.14941-.02295.14307.04834C505.37231,184.50711,528.00854,192.30228,550.79858,200.14749Z"/><path class="ae74ca7c-1966-460f-9afa-c1acbafcb37e" d="M44.21267,267.71018a.83165.83165,0,0,1-.85607-.49423,6.55591,6.55591,0,0,1-.322-1.01311,7.80376,7.80376,0,0,0-1.20649-1.8954,2.5738,2.5738,0,0,1-.57568-2.10335c-.99565.03507-2.10236.72891-2.89206.12152a1.71553,1.71553,0,0,1-.37524-1.84643,6.32582,6.32582,0,0,0,.55006-1.72613,6.99514,6.99514,0,0,1-1.14849.48968c-.57541.0714-1.05874-.49219-1.56017-.38887a.83071.83071,0,0,0-.40229.27973l-.934.97885a.54115.54115,0,0,1-.23111.1683c-.31967.08825-.477-.39745-.38781-.71686s.24406-.71081.00549-.94116c-.27814-.26856-.722.01135-1.02118.25622s-.843.40516-.99139.04814l-1.31044.036a.36952.36952,0,0,0-.23794.0623.394.394,0,0,0-.0945.26383,3.114,3.114,0,0,1-1.53485,2.317.63416.63416,0,0,1-.66643.06413.6609.6609,0,0,1-.19476-.304c-.22081-.5595-.20041-1.9661-.53622-2.36772-.35836-.42861-1.61486-.59939-2.16547-.8473a5.69731,5.69731,0,0,0-.65909,3.48123c.0129,1.22915-.97526,2.76382-.9026,3.80361a3.71083,3.71083,0,0,0-2.131-3.0587,7.56,7.56,0,0,0,.71322,3.303,3.16636,3.16636,0,0,1-1.12582-1.70473,4.92626,4.92626,0,0,0-.37274,3.0526,1.56737,1.56737,0,0,1,.05355.61989.44407.44407,0,0,1-.4273.38031,2.49682,2.49682,0,0,1-1.51926,1.76025c.0302.45719.72881.36415,1.14031.16264,1.09223-.53488,2.56223-.73074,3.40146.14947a24.50312,24.50312,0,0,1,2.78925-2.30284l-.47767.26673c3.43843,1.8221,7.3073,3.46231,11.11644,2.6665a2.24155,2.24155,0,0,0-.84092-2.79609,3.45082,3.45082,0,0,0,4.27968.6955l-.28437-.48374c.10789-.62953,1.01266-.70239,1.59546-.44107A6.08413,6.08413,0,0,0,44.21267,267.71018Z"/><path class="a17a96d5-db52-4ebd-8f6c-be72faf890bc" d="M30.88485,270.58435A12.68065,12.68065,0,0,0,32.01152,263.21a10.423,10.423,0,0,0,.76841,2.28163,1.58631,1.58631,0,0,0,.60364.7669c.70641.38373,1.49044-.33211,1.976-.97282l.08762,2.64625a7.23366,7.23366,0,0,0,4.36348-1.20534,8.05082,8.05082,0,0,1-5.66137,5.17688.73062.73062,0,0,0-.08264-1.123,1.14189,1.14189,0,0,0-.55419-.14016,10.20541,10.20541,0,0,0-2.62818.49889,2.85291,2.85291,0,0,1-2.54865-.40815c-1.12493-1.03232-.4997-3.06108-1.45244-4.25416a3.0148,3.0148,0,0,0-2.306-.93572c-.85614-.02659-1.71475.11831-2.5674.03663.15125.607.9635.85859,1.12777,1.4622.19335.71049-.653,1.29082-1.38824,1.33032a8.24454,8.24454,0,0,0-2.19548.03873,6.44624,6.44624,0,0,0,3.33267,1.34287,2.9572,2.9572,0,0,1,1.4343.33435c.408.28379.55055.99238.12457,1.24843"/><polygon class="a4f08924-ff3f-4a5a-bfae-1fdc22fecab2" points="183.526 204.139 201.526 191.501 227.951 196.863 241.739 189.203 332.888 200.948 354.59 197.629 354.079 204.522 333.909 208.607 277.739 206.437 224.632 211.288 183.526 204.139"/><polygon class="a4f08924-ff3f-4a5a-bfae-1fdc22fecab2" points="180.27 46.926 180.653 59.182 280.802 61.48 345.334 58.033 352.994 55.735 353.185 46.161 272.951 54.299 180.27 46.926"/><path class="ae74ca7c-1966-460f-9afa-c1acbafcb37e" d="M497.42292,198.21154l2.92007-.91029a.75485.75485,0,0,0,.61762.75894,1.97088,1.97088,0,0,0,1.05183-.12845,12.4726,12.4726,0,0,0,2.90732-1.39853c.33944.89248,1.61794.80137,2.5377.54488l3.78039-1.05423a3.77335,3.77335,0,0,0-.99879,3.59,13.47779,13.47779,0,0,0-7.12645,1.00936,2.75727,2.75727,0,0,0-1.50194,1.20934c-.57056,1.23279.62874,2.517,1.70233,3.34926a9.75006,9.75006,0,0,1-2.42931,1.2843,1.66264,1.66264,0,0,1-.98761.12226c-.81774-.22595-.876-1.45022-.36211-2.12521a12.9855,12.9855,0,0,1,1.97957-1.58448c-.76628-1.17072-2.44231-1.21739-3.83313-1.06324-1.76317.19541-3.53047,4.77778-5.20749,2.17426-1.17056-1.81725,1.48622-5.50308,2.68024-6.5896C495.40087,198.58381,496.47423,198.50727,497.42292,198.21154Z"/><path class="a17a96d5-db52-4ebd-8f6c-be72faf890bc" d="M499.19948,203.83672c.223.0689.3185-.26581.3505-.497a2.82206,2.82206,0,0,1,1.50063-1.76917,31.18657,31.18657,0,0,1,3.85429-2.09209,8.52331,8.52331,0,0,0-4.12743,1.689c-.41757.32053-.8423.78023-.7474,1.298.05238.28582.2593.52784.29729.81593.07423.5629-.55992,1.01173-1.12632.97214a2.91221,2.91221,0,0,1-1.4997-.75068.52756.52756,0,0,1-.17919.78709.797.797,0,0,1-.86587-.16308,1.71107,1.71107,0,0,1-.44864-.80907,4.222,4.222,0,0,1,.05984-2.54709,4.951,4.951,0,0,1-1.60294,5.17.28284.28284,0,0,1,.25664-.32917,9.19426,9.19426,0,0,0-.52768-3.99244,5.53528,5.53528,0,0,0,1.64713,1.31556.48559.48559,0,0,0,.41346.06921c.15221-.07027.19251-.264.21371-.43029l.15861-1.24428,1.0848,1.07353a.26827.26827,0,0,0,.47644-.026l2.32672-2.6964c-.41248,1.78744-2.51266,3.04728-2.32692,4.87227,1.70182-1.9085,3.5012-3.8855,5.89584-4.7823a11.23854,11.23854,0,0,0-.35271,1.46453.87036.87036,0,0,0,.01214.47942.90759.90759,0,0,0,.4121.38381l1.56874.93533a10.55488,10.55488,0,0,0-2.45815-.18253.91189.91189,0,0,0-.62119.19177.79028.79028,0,0,0-.0709.8349,2.79976,2.79976,0,0,1,.28588.83485l-1.98035.20226a.84206.84206,0,0,0-.61314.24035c-.13669.18024-.00393.5262.21576.47224"/><path class="a17a96d5-db52-4ebd-8f6c-be72faf890bc" d="M148.1375,274.77421a16.82912,16.82912,0,0,1,2.60324-5.72653,1.7669,1.7669,0,0,0,.82477,2.31871,1.54411,1.54411,0,0,0,2.06016-1.17c0,2.63344,1.97842,5.20839,1.14814,7.70752a9.84934,9.84934,0,0,0,4.18024-2.61834,9.59823,9.59823,0,0,0,.51005,1.87777"/><path class="a17a96d5-db52-4ebd-8f6c-be72faf890bc" d="M144.43742,227.976a5.38986,5.38986,0,0,1-3.84308-3.01979c.79576-.65735,1.97-.51637,2.93768-.87553s1.55459-1.95933.57767-2.29245a6.62252,6.62252,0,0,0,3.76166,1.26635,2.8581,2.8581,0,0,0,2.22909,3.83165"/><path class="b8cc3f0a-26d5-46ca-bdab-48a99020ff63" d="M185.76231,74.83477a21.12065,21.12065,0,0,1-2.36408-7.04648c-.64334-4.40223-2.33017-9.08962-2.564-13.3792a13.0917,13.0917,0,0,0,10.06674,3.3131c4.78185-.30521,9.40626-.35067,14.14716-.33555,3.71228.01183,8.75661,1.80367,12.31825.75085,1.90916-.56435,3.59993-2.127,5.57978-1.91857,3.14338.331,5.57475,2.64382,9.00014,2.8176A43.19613,43.19613,0,0,0,244.021,57.85105c6.33594-1.554,10.7975-4.49678,17.6803-3.36086l15.31551,2.52764L291.8253,38.68809l-2.55319,18.9618,18.89361-9.4809L303.57,24.15072l13.78723,32.23505,36.766-3.79236-4.34043,15.98284L251.48487,102.5337A160.48151,160.48151,0,0,1,220.718,96.58647c-7.98982-2.33828-15.98852-5.31526-23.0241-9.8344-6.2787-4.033-14.75883-11.76367-16.60036-19.20719a20.63753,20.63753,0,0,1-.44248-4.28442L180.34537,54.04"/><g class="edf52eec-d888-42f4-932b-076c5ea145e3"><polygon class="abbd161a-083e-4242-9cd4-96a2029c5ffb" points="530.043 50.373 99.653 42.905 0 50.373 -1.149 98.537 41.824 107.428 112.802 90.595 263.872 112.607 403.356 97.069 477.015 108.075 530.043 92.537 530.043 50.373"/></g><polygon class="af26120b-3a05-4c30-a3dd-e9f8f70388d1" points="97.1 45.778 106.567 92.444 243.845 110.692 181.91 62.631 97.1 45.778"/><path class="a0f88e23-0755-41bb-a4b8-78a32b3b92e5" d="M354.13866,52.73367l-36.645,4.96314a1.26948,1.26948,0,0,1-1.32031-.72l-.03613-.07813-.00049-.00122L309.63085,40.615l-6.58594-16.24853,1.08594-.33179.00049.0022,5.436,23.855a1.36084,1.36084,0,0,1-.67285,1.49536l-.08887.04834-.00293.00146q-4.73144,2.35327-9.50048,4.62964l-9.54053,4.54981-.042.01977a1.07812,1.07812,0,0,1-1.5293-1.14087l2.978-18.90454,1.18359.491-3.82715,4.81592-3.76758,4.86108c-2.50781,3.2439-5.03808,6.47046-7.4917,9.75562a.46665.46665,0,0,1-.4873.17309l-.00635-.00171c-6.0039-1.51636-12.0459-2.88428-18.08886-4.248l.46923-.01685-4.43115,1.60767-2.21777.80249c-.8125.26562-1.52344.44555-2.29053.66967-3.0166.8501-6.03174,1.70484-9.0835,2.45118-1.52441.37841-3.05029.76123-4.60888,1.07666-.79395.15722-1.5376.31836-2.43848.42382l-.33545.03907a3.7362,3.7362,0,0,1-.64258-.02881,2.85182,2.85182,0,0,1-.31152-.05347l-.13769-.052-.27588-.10449-1.10352-.418-8.79883-3.41553.8916.01758c-1.45019.49683-2.92138,1.05591-4.31445,1.65649a14.999,14.999,0,0,0-1.93066.96924,1.30023,1.30023,0,0,0-.17725.12036l-.21045.158a2.3581,2.3581,0,0,1-1.10547.46289,6.00588,6.00588,0,0,1-1.47656.02588,28.90533,28.90533,0,0,1-4.85107-1.00488c-1.55176-.44165-3.061-.93433-4.5835-1.47461l.40137.05151c-4.21875.2544-8.44385.46631-12.6753.66748-1.082.0354-2.06494.10279-3.229.11182a7.8966,7.8966,0,0,1-3.24853-.92212,22.67781,22.67781,0,0,1-5.23145-3.74536.15006.15006,0,0,1,.19092-.231l.00586.0044a25.70164,25.70164,0,0,0,5.39209,3.17016,6.95168,6.95168,0,0,0,2.86865.59912c.95215-.07763,2.07861-.2373,3.10986-.3518,4.21826-.47168,8.44239-.93213,12.67237-1.35059a.88475.88475,0,0,1,.34375.03345l.05859.01831c1.47656.45605,2.99512.8728,4.49853,1.241a27.006,27.006,0,0,0,4.44336.802,3.80618,3.80618,0,0,0,.88721-.02783c.06348-.01075.16113-.07227-.01416.0332l-.01758.01977.0376-.03149.07861-.06519.1587-.12915a3.02132,3.02132,0,0,1,.30468-.22265,16.94468,16.94468,0,0,1,2.2627-1.23023c1.49219-.68994,2.97607-1.25879,4.50683-1.81152a1.23779,1.23779,0,0,1,.85889.00513l.03272.01245,8.729,3.28613,1.08789.41992.272.105.13623.05249c.02149.00171-.01318-.02734-.0205-.0332-.01514-.02344-.08936-.01636-.05713-.01343l.24707-.02978c.65332-.0708,1.44336-.22681,2.18359-.37158l4.54932-.9585,9.13574-2.04492c.74414-.176,1.56006-.34351,2.24365-.53125l2.23242-.68067,4.47071-1.35962.043-.01318a.7479.7479,0,0,1,.42626-.00366c5.957,1.7,11.915,3.39575,17.91114,4.94336l-.49317.17138c2.52442-3.23095,4.97315-6.52,7.44385-9.792l3.7002-4.91284,3.64111-4.95776a.65948.65948,0,0,1,1.187.46264l-.00293.02832-2.1289,19.0188-1.57081-1.12109,9.3501-4.92969q4.67432-2.4657,9.38965-4.84961l.00342-.00146-.76172,1.54345-3.75488-24.17651-.00049-.00244a.57021.57021,0,0,1,1.07764-.3523l.00878.02027,7.20069,15.98535,7.28076,15.95117.00049.00122-1.356-.79809,36.88672-2.62159a.15.15,0,0,1,.03076.29834Z"/><polyline class="b8cc3f0a-26d5-46ca-bdab-48a99020ff63" points="181.094 63.515 204.889 59.95 227.102 66.078 257.74 60.333 284.549 66.461 308.293 57.652 329.357 66.078 354.251 59.95 351.953 54.972"/><polygon class="f6ad5cd9-1a70-4823-91db-e5e29a9df4ce" points="477.015 108.966 475.655 63.27 544.081 63.78 543.57 91.161 477.015 108.966"/><path class="af981eb6-8fb6-4b38-bce9-f979eda68dc0" d="M183.39823,63.93444l31.6595,24.16226,35.02289-10.9123,53.234,9.57447,36.0835,17.80592,63.95744-7.49545-49.10477-37.119L329.35721,66.078s-9.19149-4.21276-10.91489-4.40425-25.76754,1.63757-25.76754,1.63757L284.5487,66.461l-14.17021-3.06383-27.57447.383L227.10189,66.078l-10.34042-2.68085Z"/><path class="ea7dfec7-0edd-4826-8045-13e61d511e71" d="M352.40258,203.147q8.10206-1.73877,16.23975-3.26391,8.12841-1.57838,16.28271-3.00586c5.436-.95264,10.87061-1.91333,16.32764-2.74146l16.38477-2.40454q8.198-1.16931,16.35156-2.60034l8.15283-1.43628,8.13672-1.53q16.259-3.15015,32.5708-5.98535l.2168-.03809.22851.06446q7.87647,2.2108,15.72364,4.5227c5.22412,1.56519,10.45263,3.117,15.6582,4.74561,5.209,1.6167,10.42822,3.20068,15.61767,4.88428q7.79883,2.4763,15.55762,5.08935l-.05615.1919q-7.94678-1.96986-15.84668-4.10206c-5.27832-1.38012-10.52783-2.8601-15.78662-4.30737-5.26221-1.43506-10.50195-2.947-15.74561-4.4458q-7.85448-2.28844-15.68115-4.6687l.44531.02612q-16.3418,2.65541-32.72705,5.05762l-8.188,1.23047-8.17138,1.32422q-8.17017,1.33374-16.29737,2.9209L401.533,195.79178c-5.42627,1.01221-10.87451,1.89185-16.32128,2.77978q-8.17238,1.32276-16.36622,2.51539-8.18774,1.22716-16.40918,2.25732Z"/><path class="ea7dfec7-0edd-4826-8045-13e61d511e71" d="M-8.43091,208.82913l30.75049-.70776,30.75244-.55713,30.75341-.48437,30.7544-.39234-.09326.00586c5.47119-.69775,11.03222-.6189,16.50439-1.30713,5.48194-.60766,10.90039-1.761,16.36768-2.49438l8.1997-1.10889c2.73633-.34082,5.4795-.62549,8.2251-.885,5.501-.44238,10.998-.91626,16.53955-1.00708l.023.19873c-5.416,1.17529-10.87646,1.96729-16.333,2.791-2.73291.37329-5.46875.72168-8.21093,1.01367l-8.23633.79028c-5.49024.53247-11.0293.645-16.50488,1.30347-5.48536.57764-10.88184,1.92261-16.36768,2.49072l-.05371.00537-.04.00049L83.844,208.764l-30.75684.187-30.75732.11426L-8.429,209.02908Z"/><path class="ea7dfec7-0edd-4826-8045-13e61d511e71" d="M354.24413,59.85062q5.55542-.73023,11.12549-1.24951c3.71094-.38086,7.42529-.70508,11.14258-.99366,3.71728-.28149,7.43457-.57055,11.15966-.73193,3.72559-.1626,7.45508-.2644,11.18262-.39209l.05371-.002.01953.00244c3.18848.38843,6.38331.69971,9.58057.97583,3.20117.23413,6.3999.49512,9.60547.66894l9.61914.50391,9.61279.582c6.40284.45606,12.80957.86694,19.20508,1.41455,6.39453.55737,12.7793,1.23438,19.165,1.90015l-.06152-.00269,30.63867.23487,30.63867.34423v.2l-30.63769.40795-30.63819.29859-.01709.00024-.04443-.00268c-6.40869-.3833-12.81836-.75513-19.21875-1.24707-6.39893-.50122-12.78711-1.13941-19.17871-1.73218l-9.5791-.99146-9.57276-1.06958c-3.1914-.35058-6.38965-.61425-9.58594-.90454-3.20019-.24829-6.40283-.46167-9.61181-.59765l.07324.00048c-3.71191.36792-7.42187.76221-11.13574,1.09522-3.71387.33447-7.43653.54126-11.15869.75537-3.72217.20752-7.44727.37891-11.17578.4939q-5.58986.21862-11.19288.23779Z"/><path class="a0c86ce1-6a0a-4f93-bf21-b4351043aa7a" d="M181.91259,62.53128c2.90771-.10156,5.814-.114,8.7207-.17334l8.71777-.02807c5.81153-.01709,11.62061.07568,17.43018.16894l.10156.00171.10449.02686c3.44727.89135,6.88916,1.80395,10.31446,2.77929l-.34326-.01245L242.73436,62.825l.04346-.00683.02637.00048q3.54273.067,7.085.07837c2.36182.02369,4.72363-.02539,7.085-.03442,4.72363-.00952,9.44678-.15869,14.17041-.25684l.05811-.001.08349.01806,6.74024,1.47022,6.72851,1.519-.522.03418,8.09277-3.23535.13037-.052.15772-.01123,12.87744-.91822c4.293-.29174,8.58936-.53613,12.88672-.77026l.21875-.012.19043.07031c3.88379,1.43189,7.74463,2.92725,11.61768,4.38794l-.48-.02515L335.98485,63.71l6.07178-1.321c4.04541-.89136,8.10547-1.72315,12.17041-2.53565l.04785.19409c-3.978,1.16626-7.96045,2.31324-11.95752,3.40064l-5.9917,1.647-6.0039,1.59766-.23.06128-.25049-.08643c-3.91358-1.3479-7.84033-2.66113-11.74365-4.0376l.40918.05835c-4.292.31177-8.585.61328-12.88086.86744l-12.88965.71948.2876-.06348-8.15918,3.064-.26807.10058-.25439-.06616-6.6753-1.73633-6.66406-1.78515.1416.01684c-4.72363-.0979-9.44678-.24707-14.17041-.25659-2.36133-.009-4.72314-.05835-7.085-.03442q-3.54273.00659-7.085.07836l.06934-.00634L227.2456,66.86185l-.15332.032-.19043-.04443c-3.46778-.81177-6.91944-1.68653-10.36573-2.58252l.20557.02856c-5.80762-.16186-11.61572-.32446-17.4209-.59692l-8.708-.41089c-2.90136-.187-5.8042-.32715-8.70459-.5564Z"/><path class="ea7dfec7-0edd-4826-8045-13e61d511e71" d="M-.25733,62.14822c3.35205-.08593,6.70214-.08813,10.05273-.12109l10.04834.032,10.04541.13111c3.34766.0747,6.69629.11743,10.043.22924l-.28467.03882c4.76514-1.46435,9.5708-2.79443,14.37354-4.137,4.80078-1.34717,9.61132-2.66235,14.38867-4.08594,4.78174-1.41089,9.5249-2.94531,14.28076-4.44043L96.894,45.10428l.1543-.051.18945.0337q10.64428,1.88781,21.25733,3.938c7.08105,1.33643,14.15869,2.689,21.21338,4.157,7.06347,1.42627,14.09814,2.99609,21.14648,4.49487,7.03418,1.57373,14.06885,3.1438,21.07471,4.85644l-.03858.196c-7.1289-1.09644-14.22949-2.33521-21.33056-3.57031-7.08594-1.31031-14.18653-2.54932-21.2583-3.93213-7.08008-1.34107-14.13721-2.79712-21.19141-4.26978q-10.5857-2.18334-21.14746-4.48877l.34326-.01758L82.91454,50.52713c-4.77637,1.42725-9.56445,2.81494-14.31494,4.32642-4.75488,1.49853-9.47607,3.106-14.207,4.68091-4.72949,1.57983-9.45508,3.17187-14.22217,4.62988l-.13672.04175-.14844-.00293c-3.34814-.06543-6.69433-.2-10.0415-.30225l-10.03857-.40063L9.76952,63.00076c-3.34424-.21-6.68945-.3894-10.03174-.65258Z"/><polygon class="ac025d07-3a05-49a6-b841-9e2028a22b83" points="180.345 193.117 181.683 196.016 182.623 192.556 180.345 193.117"/><path class="b8cc3f0a-26d5-46ca-bdab-48a99020ff63" d="M351.84741,189.80057l1.585,6.08423c-.335-2.011-.84815-4.0708-1.33057-6.12232Z"/><path class="b8cc3f0a-26d5-46ca-bdab-48a99020ff63" d="M354.58965,196.47968l-24.88238,2.57346-28.09635-4.04155-21.19149-1.91489-31.97872-7.7234-21,11.04255-8.55319-5.74468-24.44681-1.08511-11.68085.89362-1.07652,4.57926.96,2.07935-.96-2.07935-1.349,4.93138,36.90468-4.26609,13.78711,32.23486-4.5957-24.01807,18.89355-9.481L242.77075,213.422l14.80859-18.32984s11.3375.38566,11.606.43009l17.234,4.85107,19.2766-.383,8.80851,2.68085,18.383,4.21276,13.5-2.17021,8.20213-1.14893Z"/><path class="a0f88e23-0755-41bb-a4b8-78a32b3b92e5" d="M180.323,199.8909l9.19483-1.33618c3.06494-.44751,6.13427-.85571,9.2041-1.25879l9.208-1.22119,9.21728-1.14551a.79166.79166,0,0,1,.82276.46826l.00488.01221,3.50195,8.03491c1.16406,2.67993,2.34863,5.35083,3.46826,8.04956l3.40235,8.07764c1.14941,2.686,2.21728,5.407,3.33008,8.10864l-1.34717.41162-2.08448-12.0498c-.67675-4.02-1.41552-8.02808-2.15771-12.03565a.351.351,0,0,1,.186-.37695l4.74023-2.33643c1.585-.76953,3.14648-1.58545,4.71924-2.3789l9.41943-4.79468a.37975.37975,0,0,1,.54932.38355l-.001.00781-2.26172,19.001-1.19385-.5144,7.28418-9.26172,7.32325-9.23047a.91761.91761,0,0,1,.78125-.34546l.01953.00171,12.50586.92578a.9612.9612,0,0,1,.15869.02539l.0166.0044,8.18262,2.09106,8.165,2.158-.28418-.03369,9.63867-.16821c3.21338-.04688,6.42529-.13281,9.63916-.14746l.02637-.00025a.92493.92493,0,0,1,.23242.03l13.55713,3.59961c4.522,1.18726,9.03271,2.41944,13.54248,3.65552l-.23828-.01148c3.62841-.47924,7.25048-.99853,10.88379-1.44506l10.894-1.3794a.10007.10007,0,0,1,.03027.19776l-10.8081,1.93994c-3.60059.65991-7.21241,1.24682-10.81836,1.874a.54134.54134,0,0,1-.21289-.00537l-.02539-.0061c-4.5542-1.062-9.10694-2.12769-13.64893-3.238l-13.63428-3.29395.2583.02979c-3.21142.11279-6.4248.15454-9.6372.23535l-9.6377.21484a1.03382,1.03382,0,0,1-.2749-.031l-.00928-.00269-8.17529-2.11865L269.823,197.0762l.17481.02954-12.49317-1.083.80079-.34375-7.48536,9.09912-7.52392,9.06811-.01221.01465a.67218.67218,0,0,1-1.18213-.52905l2.84473-18.92236.54834.39111-9.47412,4.68628c-1.57617.78662-3.16358,1.55078-4.72754,2.36157l-4.70654,2.404.186-.37671c.78955,3.99829,1.583,7.9961,2.438,11.98194l2.51123,11.96826a.70718.70718,0,0,1-1.33838.43213l-.00879-.02051c-1.18506-2.67065-2.415-5.32227-3.56348-8.00879l-3.49121-8.03955c-1.17822-2.67358-2.2915-5.37524-3.42529-8.06787l-3.3916-8.08228.82764.48023-9.23536.98755-9.24414.91162c-3.08056.30786-6.16211.61084-9.248.87451l-9.25733.79663a.10006.10006,0,0,1-.023-.19873Z"/></g><rect class="a4f470b3-b0dc-4220-80b3-59550a0e33fc" y="0.00277" width="530.04255" height="298.14894"/></svg>