<svg id="b4b3064c-93f5-4c5f-8b9e-ecb3f7c7ff5a" data-name="Layer 1" xmlns="http://www.w3.org/2000/svg" xmlns:xlink="http://www.w3.org/1999/xlink" viewBox="0 0 530.04255 298.14122" preserveAspectRatio="none"><defs><style>.abc9ef46-d9be-468e-9c61-232b2f234ebd,.e97519d0-ebff-44e8-8efe-9010cbf3a8ae{fill:none;}.a4aa1860-ec96-4326-a1fd-2f68674bb740{clip-path:url(#b9cadb4e-2e93-4dca-8410-de932bd5001e);}.ecbbf252-d14c-4770-9911-6c20e34401f4{fill:#decda8;}.b711d9c6-d11e-4498-b0fd-1f39f8cb2979{fill:#6d6e71;}.e97519d0-ebff-44e8-8efe-9010cbf3a8ae{stroke:#bcbec0;stroke-miterlimit:10;stroke-width:8px;stroke-dasharray:25 8.076;}.fcb7f316-0b3f-4068-9b01-698e0336a355{fill:#3f3027;}.b080a20b-ee0d-4015-99db-edf7908be39f{fill:#f6dac6;}.ee3f29cd-ba38-4a62-b734-b322a92c3cf2{fill:#c59f74;}.e786e0af-c32b-4635-9a9e-76ad5d2d1c74{fill:#ddc09b;}.aa3e09be-a6fd-40eb-ae61-f86886093407{fill:#4c4c4d;}.f19c0702-0c2e-433e-8bcf-befdb3bcda9b{clip-path:url(#b98e7dc7-431f-4482-82ea-1c08a9faa07d);}.f78b75e3-32b2-4208-a02b-efabc26c348a{fill:url(#b8455cfe-3398-40dd-bf1d-3f1c51148d6c);}.aa894a7d-ce38-45fe-b3f4-23328b36fd19{fill:url(#f0eab9ee-35ae-4aeb-9948-e2e9a95e1d5d);}.b024272d-b530-4b99-8158-642d4097eb84{fill:#939598;}.ff602d5e-31f0-4664-83a9-c4adf5c2559b{fill:url(#b22b1256-295d-4df3-b373-e5f5b392c744);}.a55efe5d-aa06-4d15-b1e3-bfa797d0c477{fill:url(#a743bb91-a947-4350-be99-af99a21619f8);}.a4be9498-ea14-4dc4-b3b6-a310837aeeae{fill:#ffefd6;}.a5ab198b-2372-488b-98bc-766549d02d39{fill:#414042;}</style><clipPath id="b9cadb4e-2e93-4dca-8410-de932bd5001e"><rect class="abc9ef46-d9be-468e-9c61-232b2f234ebd" width="530.04255" height="298.14894"/></clipPath><clipPath id="b98e7dc7-431f-4482-82ea-1c08a9faa07d"><polygon class="abc9ef46-d9be-468e-9c61-232b2f234ebd" points="551.313 179.432 482.632 157.036 332.505 179.432 235.483 165.287 110.377 179.432 -22.468 179.432 -22.468 63.178 39.909 63.178 97.1 45.645 183.398 63.178 292.675 63.178 398.888 56.843 472.419 63.178 551.313 63.178 551.313 179.432"/></clipPath><linearGradient id="b8455cfe-3398-40dd-bf1d-3f1c51148d6c" x1="264.4468" y1="112.47431" x2="264.4468" y2="42.77219" gradientUnits="userSpaceOnUse"><stop offset="0" stop-color="#3f3027"/><stop offset="0.52206" stop-color="#60493d"/><stop offset="1" stop-color="#916f59"/></linearGradient><linearGradient id="f0eab9ee-35ae-4aeb-9948-e2e9a95e1d5d" x1="170.47264" y1="110.55942" x2="170.47264" y2="45.64453" gradientUnits="userSpaceOnUse"><stop offset="0.0049" stop-color="#3f3027"/><stop offset="1" stop-color="#98745d"/></linearGradient><linearGradient id="b22b1256-295d-4df3-b373-e5f5b392c744" x1="509.86785" y1="108.83342" x2="509.86785" y2="63.13649" gradientUnits="userSpaceOnUse"><stop offset="0.0049" stop-color="#3f3027"/><stop offset="0.3799" stop-color="#4b392f"/><stop offset="1" stop-color="#60493d"/></linearGradient><linearGradient id="a743bb91-a947-4350-be99-af99a21619f8" x1="293.37692" y1="104.43176" x2="293.37692" y2="59.81734" gradientUnits="userSpaceOnUse"><stop offset="0.0049" stop-color="#3f3027"/><stop offset="1" stop-color="#60493d"/></linearGradient></defs><title>Artboard 71 copy 3</title><g class="a4aa1860-ec96-4326-a1fd-2f68674bb740"><rect class="ecbbf252-d14c-4770-9911-6c20e34401f4" x="115.94681" y="-115.94681" width="298.14894" height="530.04255" transform="translate(115.94681 414.09574) rotate(-90)"/><polygon class="b711d9c6-d11e-4498-b0fd-1f39f8cb2979" points="354.097 298.149 180.224 298.149 180.224 194.141 267.16 194.141 354.097 194.141 354.097 298.149"/><line class="e97519d0-ebff-44e8-8efe-9010cbf3a8ae" x1="267.16045" y1="298.14894" x2="267.16045" y2="194.14081"/><polygon class="b711d9c6-d11e-4498-b0fd-1f39f8cb2979" points="354.097 104.008 180.224 104.008 180.224 0 267.16 0 354.097 0 354.097 104.008"/><line class="e97519d0-ebff-44e8-8efe-9010cbf3a8ae" x1="267.16045" y1="104.00813" x2="267.16045"/><polygon class="fcb7f316-0b3f-4068-9b01-698e0336a355" points="551.125 200.469 482.444 177.277 332.317 200.469 292.487 195.611 237.132 193.349 226.802 199.602 219.143 192.517 207.845 191.176 193.43 190.723 110.189 200.469 -22.656 200.469 -22.656 62.683 39.721 62.683 96.912 44.526 183.21 62.683 292.487 62.683 398.7 56.122 472.232 62.683 551.125 62.683 551.125 200.469"/><path class="b080a20b-ee0d-4015-99db-edf7908be39f" d="M551.45141,200.92389c-11.27-3.49829-22.71435-6.88428-34.40576-10.30517-11.689-3.39063-23.59082-7.023-35.501-10.67725l1.32862.11475c-12.45948,2.26171-24.90821,4.59423-37.3794,6.783L408.094,193.492c-12.46973,2.19824-24.92627,4.47973-37.40723,6.60571l-37.42822,6.469-.76416.13208-.9248-.105L291.7,202.06305l.52148.04248-55.36963-1.88745,3.84082-.98779-10.29883,6.30444-4.4292,2.71167-3.87158-3.55322-7.6875-7.05493,3.915,1.80639-11.30469-1.27856.60791.04565-14.41552-.41919,1.04443-.04443-83.22461,9.88794-.272.03223-.56738.0166-33.21094.97339c-5.53516.14672-11.07031.35913-16.60547.45166l-16.606.29419-33.21093.58789-8.30274.144-8.30322.04883-16.60547.09765-9.793.05738-.02051-9.87085-.14209-68.89307-.07129-34.44653-.02441-34.44629-.00684-10.07495,10.05811.02368,62.37695.14648-2.99707.46436,57.2378-18.01123,2.48-.78027,2.47851.53222c14.37061,3.08569,28.76123,6.074,43.11475,9.24l43.07959,9.40967-1.9043-.198,53.78906.42847,26.89893.21509,26.90625.343c1.12207.04248,2.24121-.01269,3.35986-.07885l3.35694-.17041,6.71435-.34034,13.4292-.68066,26.86133-1.36108,53.73779-2.72144.62061-.03149.44336.0459,73.4375,7.61621-.5337-.02369,19.72315.50342c6.57471.14868,13.14892.377,19.72363.59033l39.44678,1.283,3.69629.12012-.06592,3.5105c-.44092,23.45849-1.05469,46.82544-1.648,69.9104l-.92529,34.36621Q551.7495,184.02741,551.45141,200.92389Zm-.65283-.90942-.31641-137.3313.64307.64282-78.89356.09131-.03222.00024-.03321-.00317-73.53613-6.5127.11768.00147-53.83106,3.36279-26.91552,1.6814-13.458.84082-6.729.42017-3.36474.2102c-1.1211.07935-2.24268.14771-3.36719.12207l-107.87207.0896-.09766.00024-.09716-.0205L96.70288,45.52228l.51757-.02588L40.0437,63.699l-.15674.0498h-.166L-22.656,63.795l1.11182-1.11182-.07471,137.78589L-22.656,199.432l132.84473.24512-.0918.00537,83.24219-9.73682.05761-.00684.05811.00171,14.41455.45508.03418.001.03369.00415,11.29736,1.343.25147.03.18555.17164,7.6582,7.08642-.92969-.09424,10.33154-6.25073.19971-.12085.23242.00952,55.354,2.27954.03076.00122.02978.00367,39.82813,4.8728-.20313.00317,150.14649-23.07007.14941-.02294.14307.04834C505.37231,184.37409,528.00854,192.16925,550.79858,200.01447Z"/><path class="ee3f29cd-ba38-4a62-b734-b322a92c3cf2" d="M44.21267,267.57715a.83164.83164,0,0,1-.85607-.49423,6.55579,6.55579,0,0,1-.322-1.0131,7.80357,7.80357,0,0,0-1.20649-1.8954,2.57381,2.57381,0,0,1-.57568-2.10336c-.99565.03508-2.10236.72891-2.89206.12153a1.71555,1.71555,0,0,1-.37524-1.84644,6.32575,6.32575,0,0,0,.55006-1.72612,6.996,6.996,0,0,1-1.14849.48967c-.57541.07141-1.05874-.49218-1.56017-.38886a.83075.83075,0,0,0-.40229.27972l-.934.97885a.54117.54117,0,0,1-.23111.16831c-.31967.08824-.477-.39746-.38781-.71686s.24406-.71081.00549-.94117c-.27814-.26856-.722.01135-1.02118.25622s-.843.40517-.99139.04815l-1.31044.036a.36946.36946,0,0,0-.23794.06231.394.394,0,0,0-.0945.26382,3.114,3.114,0,0,1-1.53485,2.317.63418.63418,0,0,1-.66643.06413.66088.66088,0,0,1-.19476-.304c-.22081-.55949-.20041-1.96609-.53622-2.36772-.35836-.4286-1.61486-.59938-2.16547-.8473a5.69734,5.69734,0,0,0-.65909,3.48124c.0129,1.22914-.97526,2.76381-.9026,3.8036a3.71084,3.71084,0,0,0-2.131-3.0587,7.55994,7.55994,0,0,0,.71322,3.303,3.16633,3.16633,0,0,1-1.12582-1.70472,4.92623,4.92623,0,0,0-.37274,3.05259,1.56742,1.56742,0,0,1,.05355.6199.44408.44408,0,0,1-.4273.38031,2.49679,2.49679,0,0,1-1.51926,1.76024c.0302.4572.72881.36416,1.14031.16264,1.09223-.53488,2.56223-.73074,3.40146.14947a24.502,24.502,0,0,1,2.78925-2.30283l-.47767.26673c3.43843,1.82209,7.3073,3.46231,11.11644,2.6665a2.24156,2.24156,0,0,0-.84092-2.7961,3.45082,3.45082,0,0,0,4.27968.69551l-.28437-.48375c.10789-.62953,1.01266-.70239,1.59546-.44107A6.084,6.084,0,0,0,44.21267,267.57715Z"/><path class="e786e0af-c32b-4635-9a9e-76ad5d2d1c74" d="M30.88485,270.45133a12.68066,12.68066,0,0,0,1.12667-7.37435,10.42321,10.42321,0,0,0,.76841,2.28163,1.58636,1.58636,0,0,0,.60364.7669c.70641.38372,1.49044-.33212,1.976-.97282l.08762,2.64625a7.23367,7.23367,0,0,0,4.36348-1.20535,8.0508,8.0508,0,0,1-5.66137,5.17688.73061.73061,0,0,0-.08264-1.123,1.1419,1.1419,0,0,0-.55419-.14017,10.20541,10.20541,0,0,0-2.62818.49889,2.85288,2.85288,0,0,1-2.54865-.40815c-1.12493-1.03231-.4997-3.06107-1.45244-4.25416a3.01487,3.01487,0,0,0-2.306-.93572c-.85614-.02658-1.71475.11831-2.5674.03664.15125.607.9635.85859,1.12777,1.46219.19335.71049-.653,1.29082-1.38824,1.33033a8.24371,8.24371,0,0,0-2.19548.03873,6.44614,6.44614,0,0,0,3.33267,1.34286,2.95732,2.95732,0,0,1,1.4343.33435c.408.28379.55055.99238.12457,1.24844"/><polygon class="b711d9c6-d11e-4498-b0fd-1f39f8cb2979" points="183.526 204.006 201.526 191.368 227.951 196.73 241.739 189.07 332.888 200.815 354.59 197.496 354.079 204.389 333.909 208.474 277.739 206.304 224.632 211.155 183.526 204.006"/><polygon class="b711d9c6-d11e-4498-b0fd-1f39f8cb2979" points="180.27 46.793 180.653 59.049 280.802 61.347 345.334 57.9 352.994 55.602 353.185 46.028 272.951 54.166 180.27 46.793"/><path class="ee3f29cd-ba38-4a62-b734-b322a92c3cf2" d="M497.42292,198.07851l2.92007-.91029a.75486.75486,0,0,0,.61762.75895,1.97088,1.97088,0,0,0,1.05183-.12845,12.473,12.473,0,0,0,2.90732-1.39853c.33944.89247,1.61794.80136,2.5377.54487l3.78039-1.05422a3.77334,3.77334,0,0,0-.99879,3.59,13.4778,13.4778,0,0,0-7.12645,1.00937,2.75722,2.75722,0,0,0-1.50194,1.20934c-.57056,1.23279.62874,2.517,1.70233,3.34926a9.75039,9.75039,0,0,1-2.42931,1.2843,1.66263,1.66263,0,0,1-.98761.12225c-.81774-.22594-.876-1.45021-.36211-2.12521a12.98544,12.98544,0,0,1,1.97957-1.58447c-.76628-1.17073-2.44231-1.21739-3.83313-1.06325-1.76317.19541-3.53047,4.77778-5.20749,2.17427-1.17056-1.81725,1.48622-5.50308,2.68024-6.58961C495.40087,198.45079,496.47423,198.37425,497.42292,198.07851Z"/><path class="e786e0af-c32b-4635-9a9e-76ad5d2d1c74" d="M499.19948,203.70369c.223.06891.3185-.2658.3505-.497a2.82206,2.82206,0,0,1,1.50063-1.76917,31.18664,31.18664,0,0,1,3.85429-2.0921,8.52333,8.52333,0,0,0-4.12743,1.689c-.41757.32052-.8423.78022-.7474,1.298.05238.28581.2593.52784.29729.81592.07423.56291-.55992,1.01174-1.12632.97214a2.912,2.912,0,0,1-1.4997-.75068.52757.52757,0,0,1-.17919.7871.797.797,0,0,1-.86587-.16308,1.71111,1.71111,0,0,1-.44864-.80907,4.222,4.222,0,0,1,.05984-2.54709,4.95093,4.95093,0,0,1-1.60294,5.17.28285.28285,0,0,1,.25664-.32917,9.19426,9.19426,0,0,0-.52768-3.99244,5.535,5.535,0,0,0,1.64713,1.31556.48556.48556,0,0,0,.41346.06922c.15221-.07027.19251-.264.21371-.43029l.15861-1.24428,1.0848,1.07352a.26826.26826,0,0,0,.47644-.026l2.32672-2.6964c-.41248,1.78744-2.51266,3.04729-2.32692,4.87228,1.70182-1.90851,3.5012-3.8855,5.89584-4.7823a11.23776,11.23776,0,0,0-.35271,1.46453.87032.87032,0,0,0,.01214.47941.90753.90753,0,0,0,.4121.38381l1.56874.93534a10.55434,10.55434,0,0,0-2.45815-.18253.91189.91189,0,0,0-.62119.19176.7903.7903,0,0,0-.0709.83491,2.79966,2.79966,0,0,1,.28588.83485l-1.98035.20225a.84214.84214,0,0,0-.61314.24035c-.13669.18024-.00393.52621.21576.47225"/><path class="e786e0af-c32b-4635-9a9e-76ad5d2d1c74" d="M148.1375,274.64119a16.829,16.829,0,0,1,2.60324-5.72653,1.76689,1.76689,0,0,0,.82477,2.3187,1.5441,1.5441,0,0,0,2.06016-1.17c0,2.63344,1.97842,5.2084,1.14814,7.70753a9.84946,9.84946,0,0,0,4.18024-2.61835,9.59813,9.59813,0,0,0,.51005,1.87778"/><path class="e786e0af-c32b-4635-9a9e-76ad5d2d1c74" d="M144.43742,227.84294a5.38989,5.38989,0,0,1-3.84308-3.0198c.79576-.65735,1.97-.51636,2.93768-.87553s1.55459-1.95933.57767-2.29245a6.62237,6.62237,0,0,0,3.76166,1.26635,2.8581,2.8581,0,0,0,2.22909,3.83165"/><path class="aa3e09be-a6fd-40eb-ae61-f86886093407" d="M185.76231,74.70174a21.12052,21.12052,0,0,1-2.36408-7.04647c-.64334-4.40224-2.33017-9.08963-2.564-13.3792a13.0917,13.0917,0,0,0,10.06674,3.3131c4.78185-.30521,9.40626-.35067,14.14716-.33556,3.71228.01184,8.75661,1.80368,12.31825.75086,1.90916-.56435,3.59993-2.127,5.57978-1.91857,3.14338.331,5.57475,2.64382,9.00014,2.81759A43.19576,43.19576,0,0,0,244.021,57.718c6.33594-1.554,10.7975-4.49677,17.6803-3.36085l15.31551,2.52764L291.8253,38.55507l-2.55319,18.9618,18.89361-9.4809L303.57,24.01769l13.78723,32.23506,36.766-3.79236-4.34043,15.98283-98.29787,33.95745A160.48151,160.48151,0,0,1,220.718,96.45344c-7.98982-2.33828-15.98852-5.31526-23.0241-9.83439-6.2787-4.033-14.75883-11.76368-16.60036-19.2072a20.63744,20.63744,0,0,1-.44248-4.28441l-.30572-9.22043"/><g class="f19c0702-0c2e-433e-8bcf-befdb3bcda9b"><polygon class="f78b75e3-32b2-4208-a02b-efabc26c348a" points="530.043 50.24 99.653 42.772 0 50.24 -1.149 98.404 41.824 107.295 112.802 90.462 263.872 112.474 403.356 96.936 477.015 107.942 530.043 92.404 530.043 50.24"/></g><polygon class="aa894a7d-ce38-45fe-b3f4-23328b36fd19" points="97.1 45.645 106.567 92.311 243.845 110.559 181.91 62.498 97.1 45.645"/><path class="b024272d-b530-4b99-8158-642d4097eb84" d="M354.13866,52.60065l-36.645,4.96313a1.26946,1.26946,0,0,1-1.32031-.72l-.03613-.07812-.00049-.00122L309.63085,40.482l-6.58594-16.24854,1.08594-.33179.00049.0022,5.436,23.855a1.36084,1.36084,0,0,1-.67285,1.49536l-.08887.04834-.00293.00147q-4.73144,2.35327-9.50048,4.62964l-9.54053,4.5498-.042.01978a1.07813,1.07813,0,0,1-1.5293-1.14087l2.978-18.90454,1.18359.491-3.82715,4.81592-3.76758,4.86109c-2.50781,3.24389-5.03808,6.47045-7.4917,9.75561a.46666.46666,0,0,1-.4873.1731l-.00635-.00171c-6.0039-1.51636-12.0459-2.88428-18.08886-4.248l.46923-.01685-4.43115,1.60767-2.21777.80249c-.8125.26563-1.52344.44556-2.29053.66968-3.0166.8501-6.03174,1.70483-9.0835,2.45117-1.52441.37842-3.05029.76123-4.60888,1.07666-.79395.15723-1.5376.31836-2.43848.42383l-.33545.03906a3.73519,3.73519,0,0,1-.64258-.02881,2.852,2.852,0,0,1-.31152-.05346l-.13769-.052-.27588-.10449-1.10352-.418-8.79883-3.41552.8916.01757c-1.45019.49683-2.92138,1.05591-4.31445,1.6565a14.99771,14.99771,0,0,0-1.93066.96924,1.29931,1.29931,0,0,0-.17725.12036l-.21045.158a2.3581,2.3581,0,0,1-1.10547.46289,6.00588,6.00588,0,0,1-1.47656.02588,28.90533,28.90533,0,0,1-4.85107-1.00489c-1.55176-.44165-3.061-.93432-4.5835-1.47461l.40137.05152c-4.21875.25439-8.44385.46631-12.6753.66748-1.082.0354-2.06494.10278-3.229.11181a7.89644,7.89644,0,0,1-3.24853-.92211,22.67755,22.67755,0,0,1-5.23145-3.74537.15006.15006,0,0,1,.19092-.23095l.00586.00439A25.70212,25.70212,0,0,0,186.3247,57.324a6.95184,6.95184,0,0,0,2.86865.59912c.95215-.07764,2.07861-.23731,3.10986-.35181,4.21826-.47168,8.44239-.93213,12.67237-1.35058a.88494.88494,0,0,1,.34375.03344l.05859.01831c1.47656.45606,2.99512.87281,4.49853,1.241a27.006,27.006,0,0,0,4.44336.802,3.80618,3.80618,0,0,0,.88721-.02783c.06348-.01074.16113-.07226-.01416.0332l-.01758.01978.0376-.03149.07861-.06519.1587-.12915a3.02153,3.02153,0,0,1,.30468-.22266,16.94457,16.94457,0,0,1,2.2627-1.23022c1.49219-.68994,2.97607-1.25879,4.50683-1.81153a1.23785,1.23785,0,0,1,.85889.00513l.03272.01245,8.729,3.28614,1.08789.41992.272.105.13623.05249c.02149.00171-.01318-.02735-.0205-.0332-.01514-.02344-.08936-.01636-.05713-.01343l.24707-.02979c.65332-.0708,1.44336-.2268,2.18359-.37158l4.54932-.9585,9.13574-2.04492c.74414-.176,1.56006-.3435,2.24365-.53125l2.23242-.68066,4.47071-1.35962.043-.01318a.7479.7479,0,0,1,.42626-.00367c5.957,1.7,11.915,3.39576,17.91114,4.94336l-.49317.17139c2.52442-3.231,4.97315-6.52,7.44385-9.792l3.7002-4.91284,3.64111-4.95777a.65948.65948,0,0,1,1.187.46265l-.00293.02832-2.1289,19.0188-1.57081-1.1211,9.3501-4.92968q4.67432-2.4657,9.38965-4.84961l.00342-.00147-.76172,1.54346-3.75488-24.17651-.00049-.00245a.57021.57021,0,0,1,1.07764-.35229l.00878.02026,7.20069,15.98535,7.28076,15.95118.00049.00122-1.356-.7981,36.88672-2.62158a.15.15,0,0,1,.03076.29834Z"/><polyline class="aa3e09be-a6fd-40eb-ae61-f86886093407" points="181.094 63.382 204.889 59.817 227.102 65.945 257.74 60.2 284.549 66.328 308.293 57.519 329.357 65.945 354.251 59.817 351.953 54.839"/><polygon class="ff602d5e-31f0-4664-83a9-c4adf5c2559b" points="477.015 108.833 475.655 63.136 544.081 63.647 543.57 91.028 477.015 108.833"/><path class="a55efe5d-aa06-4d15-b1e3-bfa797d0c477" d="M183.39823,63.80141l31.6595,24.16227,35.02289-10.9123,53.234,9.57447,36.0835,17.80591,63.95744-7.49544-49.10477-37.119L329.35721,65.945s-9.19149-4.21277-10.91489-4.40426-25.76754,1.63758-25.76754,1.63758L284.5487,66.328l-14.17021-3.06382-27.57447.383L227.10189,65.945l-10.34042-2.68085Z"/><path class="a4be9498-ea14-4dc4-b3b6-a310837aeeae" d="M352.40258,203.014q8.10206-1.73877,16.23975-3.26392,8.12841-1.57836,16.28271-3.00586c5.436-.95263,10.87061-1.91333,16.32764-2.74145l16.38477-2.40454q8.198-1.16931,16.35156-2.60034l8.15283-1.43628,8.13672-1.53q16.259-3.15015,32.5708-5.98535l.2168-.03809.22851.06445q7.87647,2.21082,15.72364,4.52271c5.22412,1.56518,10.45263,3.11694,15.6582,4.7456,5.209,1.6167,10.42822,3.20069,15.61767,4.88428q7.79883,2.47632,15.55762,5.08936l-.05615.19189q-7.94678-1.96984-15.84668-4.102c-5.27832-1.38013-10.52783-2.86011-15.78662-4.30737-5.26221-1.43506-10.50195-2.947-15.74561-4.4458q-7.85448-2.28846-15.68115-4.6687l.44531.02612q-16.3418,2.65539-32.72705,5.05762l-8.188,1.23046-8.17138,1.32422q-8.17017,1.33374-16.29737,2.9209L401.533,195.65875c-5.42627,1.01221-10.87451,1.89185-16.32128,2.77979q-8.17238,1.32276-16.36622,2.51538-8.18774,1.22718-16.40918,2.25732Z"/><path class="a4be9498-ea14-4dc4-b3b6-a310837aeeae" d="M-8.43091,208.69611l30.75049-.70777,30.75244-.55712,30.75341-.48438,30.7544-.39233-.09326.00586c5.47119-.69776,11.03222-.6189,16.50439-1.30713,5.48194-.60767,10.90039-1.761,16.36768-2.49439l8.1997-1.10888c2.73633-.34082,5.4795-.62549,8.2251-.885,5.501-.44239,10.998-.91626,16.53955-1.00708l.023.19873c-5.416,1.17529-10.87646,1.96728-16.333,2.791-2.73291.37329-5.46875.72168-8.21093,1.01367l-8.23633.79029c-5.49024.53247-11.0293.645-16.50488,1.30346-5.48536.57764-10.88184,1.92261-16.36768,2.49073l-.05371.00537-.04.00049-30.75537.27929-30.75684.187-30.75732.11426L-8.429,208.89606Z"/><path class="a4be9498-ea14-4dc4-b3b6-a310837aeeae" d="M354.24413,59.71759q5.55542-.73022,11.12549-1.24951c3.71094-.38086,7.42529-.70508,11.14258-.99365,3.71728-.2815,7.43457-.57056,11.15966-.73194,3.72559-.16259,7.45508-.2644,11.18262-.39209l.05371-.002.01953.00244c3.18848.38843,6.38331.69971,9.58057.97583,3.20117.23413,6.3999.49512,9.60547.66895l9.61914.5039,9.61279.582c6.40284.45605,12.80957.86694,19.20508,1.41455,6.39453.55737,12.7793,1.23437,19.165,1.90014l-.06152-.00268,30.63867.23486,30.63867.34424v.19995l-30.63769.408-30.63819.29858-.01709.00025-.04443-.00269c-6.40869-.3833-12.81836-.75512-19.21875-1.24707-6.39893-.50122-12.78711-1.1394-19.17871-1.73218l-9.5791-.99145-9.57276-1.06958c-3.1914-.35059-6.38965-.61426-9.58594-.90454-3.20019-.24829-6.40283-.46167-9.61181-.59766l.07324.00049c-3.71191.36792-7.42187.76221-11.13574,1.09521-3.71387.33448-7.43653.54126-11.15869.75538-3.72217.20752-7.44727.3789-11.17578.49389q-5.58986.21863-11.19288.2378Z"/><path class="a5ab198b-2372-488b-98bc-766549d02d39" d="M181.91259,62.39826c2.90771-.10157,5.814-.114,8.7207-.17334l8.71777-.02808c5.81153-.01709,11.62061.07568,17.43018.16895l.10156.0017.10449.02686c3.44727.89136,6.88916,1.804,10.31446,2.7793l-.34326-.01245L242.73436,62.692l.04346-.00684.02637.00049q3.54273.067,7.085.07837c2.36182.02368,4.72363-.02539,7.085-.03442,4.72363-.00953,9.44678-.1587,14.17041-.25684l.05811-.001.08349.01807L278.02636,63.96l6.72851,1.519-.522.03418,8.09277-3.23535.13037-.052.15772-.01123,12.87744-.91821c4.293-.29175,8.58936-.53613,12.88672-.77026l.21875-.012.19043.07032c3.88379,1.43188,7.74463,2.92724,11.61768,4.38794l-.48-.02515,6.06006-1.37036,6.07178-1.321c4.04541-.89135,8.10547-1.72314,12.17041-2.53564l.04785.19409c-3.978,1.16626-7.96045,2.31323-11.95752,3.40063l-5.9917,1.647-6.0039,1.59765-.23.06128-.25049-.08642c-3.91358-1.3479-7.84033-2.66114-11.74365-4.0376l.40918.05835c-4.292.31177-8.585.61328-12.88086.86743l-12.88965.71948.2876-.06347-8.15918,3.064-.26807.10059-.25439-.06616-6.6753-1.73633-6.66406-1.78516.1416.01685c-4.72363-.0979-9.44678-.24707-14.17041-.2566-2.36133-.009-4.72314-.05834-7.085-.03442q-3.54273.0066-7.085.07837l.06934-.00635L227.2456,66.72882l-.15332.032-.19043-.04444c-3.46778-.81177-6.91944-1.68652-10.36573-2.58252l.20557.02857c-5.80762-.16187-11.61572-.32447-17.4209-.59693l-8.708-.41089c-2.90136-.187-5.8042-.32714-8.70459-.55639Z"/><path class="a4be9498-ea14-4dc4-b3b6-a310837aeeae" d="M-.25733,62.0152c3.35205-.08594,6.70214-.08813,10.05273-.12109l10.04834.032,10.04541.1311c3.34766.07471,6.69629.11743,10.043.22925l-.28467.03882c4.76514-1.46436,9.5708-2.79444,14.37354-4.137,4.80078-1.34717,9.61132-2.66236,14.38867-4.08594,4.78174-1.41089,9.5249-2.94531,14.28076-4.44043L96.894,44.97125l.1543-.051.18945.03369q10.64428,1.88783,21.25733,3.938c7.08105,1.33642,14.15869,2.689,21.21338,4.157,7.06347,1.42627,14.09814,2.9961,21.14648,4.49487,7.03418,1.57373,14.06885,3.1438,21.07471,4.85645l-.03858.196c-7.1289-1.09643-14.22949-2.3352-21.33056-3.57031-7.08594-1.3103-14.18653-2.54931-21.2583-3.93213-7.08008-1.34106-14.13721-2.79712-21.19141-4.26977q-10.5857-2.18335-21.14746-4.48877l.34326-.01758L82.91454,50.39411c-4.77637,1.42724-9.56445,2.81494-14.31494,4.32641-4.75488,1.49854-9.47607,3.106-14.207,4.68091-4.72949,1.57983-9.45508,3.17188-14.22217,4.62988l-.13672.04175-.14844-.00293c-3.34814-.06543-6.69433-.2-10.0415-.30224l-10.03857-.40064L9.76952,62.86774c-3.34424-.21-6.68945-.38941-10.03174-.65259Z"/><polygon class="abc9ef46-d9be-468e-9c61-232b2f234ebd" points="180.345 192.984 181.683 195.883 182.623 192.423 180.345 192.984"/><path class="aa3e09be-a6fd-40eb-ae61-f86886093407" d="M351.84741,189.66754l1.585,6.08423c-.335-2.011-.84815-4.0708-1.33057-6.12231Z"/><path class="aa3e09be-a6fd-40eb-ae61-f86886093407" d="M354.58965,196.34665l-24.88238,2.57347-28.09635-4.04155-21.19149-1.91489-31.97872-7.72341-21,11.04255-8.55319-5.74468-24.44681-1.0851-11.68085.89361-1.07652,4.57927.96,2.07934-.96-2.07934-1.349,4.93137L217.239,195.5912l13.78711,32.23486-4.5957-24.01806,18.89355-9.481L242.77075,213.289l14.80859-18.32983s11.3375.38565,11.606.43009l17.234,4.85106,19.2766-.383,8.80851,2.68085,18.383,4.21277,13.5-2.17021,8.20213-1.14894Z"/><path class="b024272d-b530-4b99-8158-642d4097eb84" d="M180.323,199.75788l9.19483-1.33619c3.06494-.44751,6.13427-.85571,9.2041-1.25879l9.208-1.22119,9.21728-1.1455a.79166.79166,0,0,1,.82276.46826l.00488.0122,3.50195,8.03492c1.16406,2.67993,2.34863,5.35083,3.46826,8.04956l3.40235,8.07763c1.14941,2.686,2.21728,5.407,3.33008,8.10865l-1.34717.41162-2.08448-12.04981c-.67675-4.02-1.41552-8.02807-2.15771-12.03564a.351.351,0,0,1,.186-.377l4.74023-2.33643c1.585-.76953,3.14648-1.58545,4.71924-2.37891l9.41943-4.79467a.37974.37974,0,0,1,.54932.38354l-.001.00781-2.26172,19.001-1.19385-.5144,7.28418-9.26172,7.32325-9.23047a.91756.91756,0,0,1,.78125-.34546l.01953.00171,12.50586.92578a.96015.96015,0,0,1,.15869.02539l.0166.00439,8.18262,2.09107,8.165,2.158-.28418-.03369,9.63867-.16822c3.21338-.04687,6.42529-.13281,9.63916-.14746l.02637-.00024a.924.924,0,0,1,.23242.03l13.55713,3.59961c4.522,1.18725,9.03271,2.41943,13.54248,3.65551l-.23828-.01147c3.62841-.47925,7.25048-.99854,10.88379-1.44507l10.894-1.37939a.10006.10006,0,0,1,.03027.19775l-10.8081,1.93994c-3.60059.65991-7.21241,1.24683-10.81836,1.874a.54134.54134,0,0,1-.21289-.00538l-.02539-.0061c-4.5542-1.062-9.10694-2.12768-13.64893-3.238l-13.63428-3.29394.2583.02978c-3.21142.1128-6.4248.15454-9.6372.23536l-9.6377.21484a1.03382,1.03382,0,0,1-.2749-.031l-.00928-.00268-8.17529-2.11865-8.15772-2.18555.17481.02954-12.49317-1.083.80079-.34375-7.48536,9.09912-7.52392,9.06812-.01221.01465a.67218.67218,0,0,1-1.18213-.52906l2.84473-18.92236.54834.39111-9.47412,4.68628c-1.57617.78662-3.16358,1.55078-4.72754,2.36158l-4.70654,2.40405.186-.37671c.78955,3.99829,1.583,7.99609,2.438,11.98193l2.51123,11.96826a.70718.70718,0,0,1-1.33838.43213l-.00879-.0205c-1.18506-2.67066-2.415-5.32227-3.56348-8.00879l-3.49121-8.03955c-1.17822-2.67359-2.2915-5.37525-3.42529-8.06788l-3.3916-8.08227.82764.48022-9.23536.98755-9.24414.91162c-3.08056.30786-6.16211.61084-9.248.87452l-9.25733.79663a.10006.10006,0,0,1-.023-.19873Z"/></g></svg>