<svg preserveAspectRatio="none" id="f1e4ee34-d300-4aeb-a9a5-b7eabb8c1533" data-name="Layer 1" xmlns="http://www.w3.org/2000/svg" xmlns:xlink="http://www.w3.org/1999/xlink" viewBox="0 0 530.04255 298.14894"><defs><style>.b6ef5dea-e10b-46f4-915b-492a02e4f10a,.ed9370af-b86f-45f3-9635-115d101c30df{fill:none;}.a7624513-9e1c-47bf-a959-c68434bd203d{clip-path:url(#bc02cdd0-7665-43c7-afba-528f740e0a0c);}.bc1db708-c6d0-463b-a1a9-95cf984fd7ae{fill:#decda8;}.a5c5f72b-1f15-43d1-ab8d-eb4032f1b453{fill:#6d6e71;}.b6ef5dea-e10b-46f4-915b-492a02e4f10a{stroke:#bcbec0;stroke-miterlimit:10;stroke-width:8px;stroke-dasharray:25 8.076;}.bff6c6ba-58ac-4494-a25e-fcf0f8904eb8{fill:#d5bdab;}.bda1f30c-1aba-4bbc-b151-28ad776be54a{fill:#f6dac6;}.b936509b-7660-489e-a079-6ffd7ad74322{fill:#ead9ca;}.e3866c0b-cb74-4546-a4e0-9bed6d84279c{fill:#b2cfe7;}.ededd57d-4453-4e71-9584-3a894de2bc41{clip-path:url(#fe0f937a-3794-43c5-9e82-2ef868432e64);}.a148bba8-ba19-426e-9caf-ff0ed4e2349a{fill:#bedcf2;}.b9464104-994c-44fb-a7bc-4da9095df529{fill:#fff;}</style><clipPath id="bc02cdd0-7665-43c7-afba-528f740e0a0c"><rect class="ed9370af-b86f-45f3-9635-115d101c30df" width="530.04255" height="298.14894"/></clipPath><clipPath id="fe0f937a-3794-43c5-9e82-2ef868432e64"><path class="ed9370af-b86f-45f3-9635-115d101c30df" d="M551.66366,138.549c-23.549,4.1127-24.25605-4.0453-48.16152-4.04529-23.90594,0-23.90593,4.07568-47.81187,4.07568-23.9072,0-23.9072-4.07569-47.8144-4.07568-23.90762,0-23.90762,4.07568-47.81524,4.07568-23.90686,0-23.90686-4.07569-47.81373-4.07568-23.90785,0-23.90785,4.07568-47.8157,4.07568-23.90651,0-23.90651-4.07569-47.813-4.07568-23.90688,0-23.90688,4.07568-47.81376,4.07568-23.908,0-23.908-4.07569-47.816-4.07568-23.90723,0-23.90723,4.07568-47.81446,4.07568-23.91052,0-23.91053-4.07569-47.82105-4.07568s-24.61639,8.15424-48.17123,4.04536c-4.10887-.71674,2.388-6.17844,2.388-10.34937,0-4.1714-4.07569-4.1714-4.07569-8.3428,0-4.172,4.07569-4.172,4.07569-8.3441,0-4.17135-4.07569-4.17135-4.07569-8.3427,0-4.1708,4.07569-4.1708,4.07569-8.34161s-4.07569-4.1708-4.07569-8.3416,4.07569-4.17087,4.07569-8.34175c0-4.172-4.07569-4.172-4.07569-8.3439,0-4.1734,4.07569-4.1734,4.07569-8.3468,0-4.17208-4.07569-4.17208-4.07569-8.34416,0-4.17494,4.07569-4.17494,4.07569-8.34989s-6.50113-9.63908-2.38844-10.35734c23.549-4.1127,24.25606,4.0453,48.16152,4.0453,23.90594,0,23.90594-4.07569,47.81188-4.07569,23.9072,0,23.9072,4.07569,47.8144,4.07569,23.90762,0,23.90762-4.07569,47.81524-4.07569,23.90686,0,23.90686,4.07569,47.81373,4.07569,23.90785,0,23.90785-4.07569,47.8157-4.07569,23.90651,0,23.90651,4.07569,47.813,4.07569,23.90688,0,23.90688-4.07569,47.81376-4.07569,23.908,0,23.908,4.07569,47.816,4.07569,23.90723,0,23.90723-4.07569,47.81446-4.07569,23.91052,0,23.91052,4.07569,47.821,4.07569s24.6164-8.15425,48.17123-4.04537c4.10888.71674-2.388,6.17845-2.388,10.34937,0,4.1714,4.07569,4.1714,4.07568,8.3428,0,4.17205-4.07568,4.17205-4.07568,8.34411,0,4.17134,4.07569,4.17134,4.07568,8.34269,0,4.17081-4.07568,4.17081-4.07568,8.34161s4.07569,4.1708,4.07568,8.3416-4.07568,4.17088-4.07568,8.34175c0,4.172,4.07569,4.172,4.07568,8.3439,0,4.1734-4.07568,4.1734-4.07568,8.3468,0,4.17208,4.07569,4.17208,4.07568,8.34416,0,4.17494-5.02108,4.78854-4.01571,8.84062C550.7234,134.27741,555.77636,137.83073,551.66366,138.549Z"/></clipPath></defs><title>Artboard 56</title><g class="a7624513-9e1c-47bf-a959-c68434bd203d"><rect class="bc1db708-c6d0-463b-a1a9-95cf984fd7ae" x="115.94681" y="-115.94681" width="298.14894" height="530.04255" transform="translate(115.94681 414.09574) rotate(-90)"/><polygon class="a5c5f72b-1f15-43d1-ab8d-eb4032f1b453" points="132.234 299.729 17.553 299.729 17.553 -34.229 74.893 -34.229 132.234 -34.229 132.234 299.729"/><line class="b6ef5dea-e10b-46f4-915b-492a02e4f10a" x1="74.89349" y1="299.72879" x2="74.89349" y2="-34.22866"/><path class="bff6c6ba-58ac-4494-a25e-fcf0f8904eb8" d="M551.72149,133.28831c-23.46883,4.54812-24.31388-4.25412-48.21935-4.25412-23.90594,0-23.90593,4.29332-47.81187,4.29332-23.9072,0-23.9072-4.29332-47.8144-4.29332-23.90762,0-23.90762,4.29332-47.81524,4.29332-23.90686,0-23.90686-4.29332-47.81373-4.29332-23.90785,0-23.90785,4.29332-47.8157,4.29332-23.90651,0-23.90651-4.29332-47.813-4.29332-23.90688,0-23.90688,4.29332-47.81376,4.29332-23.908,0-23.908-4.29332-47.816-4.29332-23.90723,0-23.90723,4.29332-47.81446,4.29332-23.91052,0-23.91053-4.29332-47.82105-4.29332s-24.7542,8.79814-48.229,4.25421c-4.54393-.87956,2.55462-6.73583,2.55462-11.36411,0-4.62881-4.29333-4.62881-4.29333-9.25762,0-4.62953,4.29333-4.62953,4.29333-9.25907,0-4.62875-4.29333-4.62875-4.29333-9.2575,0-4.62815,4.29333-4.62815,4.29333-9.2563s-4.29333-4.62815-4.29333-9.25629,4.29333-4.62823,4.29333-9.25645c0-4.62942-4.29333-4.62942-4.29333-9.25884,0-4.631,4.29333-4.631,4.29333-9.26206,0-4.62957-4.29333-4.62957-4.29333-9.25913,0-4.63274,4.29333-4.63274,4.29333-9.26548s-7.1032-10.49154-2.55508-11.373C.59233,13.41448,1.43738,22.21672,25.34284,22.21672c23.90594,0,23.90594-4.29333,47.81188-4.29333,23.9072,0,23.9072,4.29333,47.8144,4.29333,23.90762,0,23.90762-4.29333,47.81524-4.29333,23.90686,0,23.90686,4.29333,47.81373,4.29333,23.90785,0,23.90785-4.29333,47.8157-4.29333,23.90651,0,23.90651,4.29333,47.813,4.29333,23.90688,0,23.90688-4.29333,47.81376-4.29333,23.908,0,23.908,4.29333,47.816,4.29333,23.90723,0,23.90723-4.29333,47.81446-4.29333,23.91052,0,23.91052,4.29333,47.821,4.29333s24.75421-8.79814,48.229-4.25421c4.54394.87956-2.55461,6.73583-2.55461,11.36411,0,4.62881,4.29333,4.62881,4.29333,9.25762,0,4.62953-4.29333,4.62953-4.29333,9.25907,0,4.62875,4.29333,4.62875,4.29333,9.2575,0,4.62815-4.29333,4.62815-4.29333,9.2563s4.29333,4.62815,4.29333,9.25629-4.29333,4.62823-4.29333,9.25645c0,4.62942,4.29333,4.62942,4.29333,9.25884,0,4.631-4.29333,4.631-4.29333,9.26206,0,4.62957,4.29333,4.62957,4.29333,9.25913,0,4.63274-5.35611,5.29435-4.22881,9.78784C550.77149,128.57844,556.26961,132.40691,551.72149,133.28831Z"/><path class="bda1f30c-1aba-4bbc-b151-28ad776be54a" d="M551.77184,133.5481a73.0082,73.0082,0,0,1-11.05371,1.31684,41.88872,41.88872,0,0,1-11.07373-1.21161c-3.61426-.86988-7.1377-1.99066-10.74317-2.74146a70.10117,70.10117,0,0,0-10.93847-1.41156c-3.67774-.12689-7.37451-.13269-11.06006.04138a106.763,106.763,0,0,0-11.00781.99469c-3.64795.52137-7.26709,1.275-10.9336,1.86048a106.38085,106.38085,0,0,1-11.0747,1.1665c-3.707.17053-7.415.25769-11.12354.18817-3.70752-.04944-7.42236-.17675-11.12256-.55981-3.70312-.35376-7.375-.99158-11.01269-1.62494-3.63867-.6347-7.27442-1.1618-10.94239-1.436-3.6665-.277-7.34765-.38813-11.0332-.38019-3.68359.0224-7.37012.09314-11.03174.38843a106.35279,106.35279,0,0,0-10.92187,1.40618c-3.62061.65094-7.28028,1.379-10.98584,1.83667a150.441,150.441,0,0,1-22.31055.86585,108.2423,108.2423,0,0,1-11.16943-.88281c-3.71045-.48835-7.35791-1.20465-10.9751-1.739a125.8109,125.8109,0,0,0-21.90479-1.082c-3.66406.10266-7.31933.28516-10.93359.715-3.62012.40161-7.188,1.077-10.83838,1.76922-3.64648.69336-7.38672,1.2937-11.13183,1.6297-3.74512.33979-7.49268.50843-11.22754.55658a122.21152,122.21152,0,0,1-22.46241-1.50165c-3.69775-.60821-7.2666-1.26123-10.86328-1.64953-3.59375-.4-7.21484-.59143-10.85791-.65674a133.89318,133.89318,0,0,0-21.72607,1.24c-3.56592.537-7.15479,1.31281-10.89063,1.93836a108.73144,108.73144,0,0,1-11.29882,1.27368c-3.773.2016-7.52344.31689-11.28321.27447-3.75976-.03454-7.54394-.15155-11.33789-.52978-3.79394-.34858-7.57226-.99176-11.1875-1.607-3.62158-.6167-7.13916-1.111-10.7251-1.36523-3.58105-.2558-7.19531-.35163-10.832-.32935-3.63134.03632-7.26562.12073-10.83789.42389a103.71064,103.71064,0,0,0-10.6582,1.41644c-3.55859.65369-7.30566,1.4137-11.10889,1.89734a147.5562,147.5562,0,0,1-22.74511.93177,110.93038,110.93038,0,0,1-11.44288-.90723c-3.811-.50336-7.4873-1.22546-11.01416-1.74457-3.53369-.52045-7.04589-.83881-10.62548-1.00806-1.79493-.05639-3.582-.14245-5.39356-.13348l-2.70605-.011-2.64356.07764a64.29118,64.29118,0,0,0-10.3667,1.15827c-3.40869.65557-6.72851,1.68371-10.477,2.69934a48.36757,48.36757,0,0,1-11.959,1.7929,61.59425,61.59425,0,0,1-11.85059-1.01226l-1.44043-.23652a5.31686,5.31686,0,0,1-.52734-.10711,6.39761,6.39761,0,0,1-.77735-.22229,6.13632,6.13632,0,0,1-2.00927-1.13159,5.50121,5.50121,0,0,1-1.06006-1.19153,5.651,5.651,0,0,1-.69385-1.50781,5.72377,5.72377,0,0,1-.22217-1.39179,6.097,6.097,0,0,1,.0503-1.10193,9.04938,9.04938,0,0,1,.77539-2.56433c.5542-1.20428,1.06347-2.03271,1.51757-2.83649.44922-.78509.85352-1.50146,1.14454-2.12823a5.7674,5.7674,0,0,0,.50488-1.41962,1.77009,1.77009,0,0,0-.06494-.567,2.42059,2.42059,0,0,0-.563-.75385,17.24919,17.24919,0,0,1-2.292-2.837,9.87136,9.87136,0,0,1-1.40235-4.77246,8.12368,8.12368,0,0,1,.01123-1.16382,7.40658,7.40658,0,0,1,.13672-1.19672,9.29379,9.29379,0,0,1,.77-2.45825,13.23553,13.23553,0,0,1,2.41211-3.38068,4.63083,4.63083,0,0,0,.82715-1.02942.48845.48845,0,0,0,.04541-.17688c.022-.02533.00977-.11163.01465-.18249a.59865.59865,0,0,0,0-.21668c-.02637-.33661-.03027-.29974-.11817-.46215a13.21045,13.21045,0,0,0-1.2666-1.45386,11.1029,11.1029,0,0,1-2.39843-3.97205A11.01507,11.01507,0,0,1-29.108,92.615a9.97467,9.97467,0,0,1,1.91064-4.63471c.90283-1.19409,1.65918-1.88373,1.95117-2.26977.28565-.38318.22657-.346.27-.48828a1.98427,1.98427,0,0,0-.00537-.69214c-.0376-.10266.0083-.09186-.36279-.5412a29.3953,29.3953,0,0,1-2.07275-2.43134,10.129,10.129,0,0,1-1.77051-4.74243c-.03076-.39056-.05323-.78277-.06739-1.174.0127-.39117.03418-.78345.064-1.17425a10.347,10.347,0,0,1,.57568-2.49225,10.49648,10.49648,0,0,1,1.18311-2.25843,16.50715,16.50715,0,0,1,1.25-1.53668,9.805,9.805,0,0,0,1.11865-1.31036c.043-.11548.06836-.08777.07568-.45539a1.0914,1.0914,0,0,0-.0791-.491,2.04676,2.04676,0,0,0-.22216-.32251c-.1709-.20111-.39356-.44794-.74366-.824a12.44324,12.44324,0,0,1-2.46142-3.59009c-.17188-.40417-.30274-.83184-.43457-1.25323-.10938-.418-.18067-.83313-.2544-1.25311a11.59337,11.59337,0,0,1-.07373-2.36621,10.10841,10.10841,0,0,1,1.58057-4.81128,21.18136,21.18136,0,0,1,2.18945-2.66846c.41895-.49347.39453-.53864.42236-.6059a2.1966,2.1966,0,0,0,.01123-.645c-.04638-.17035.01417-.08051-.21484-.40607-.21582-.31531-.88135-.918-1.79687-2.05408a10.28167,10.28167,0,0,1-2.08741-4.55743,11.15931,11.15931,0,0,1,.19873-4.85492,10.85437,10.85437,0,0,1,2.3418-4.20789,20.66273,20.66273,0,0,0,1.42481-1.63775c.103-.19239.07128-.10749.10839-.36927-.00634-.05041.02149-.17114.01075-.16327.00341.00653-.00489-.02807-.0083-.06988a3.67662,3.67662,0,0,0-.14551-.51373,12.96211,12.96211,0,0,0-.86231-1.79957l-1.36572-2.37347c-.25977-.46515-.53174-.96374-.81689-1.57861a9.39572,9.39572,0,0,1-.81836-2.615,6.59729,6.59729,0,0,1-.06836-1.14008,5.84429,5.84429,0,0,1,.20605-1.45672A6.05754,6.05754,0,0,1-28.254,16.1789a5.99523,5.99523,0,0,1,1.10742-1.29968,5.77882,5.77882,0,0,1,1.14746-.805,6.2049,6.2049,0,0,1,.98975-.44519,6.37473,6.37473,0,0,1,.8252-.2461c.29248-.07281.502-.11334.57421-.12176a76.47982,76.47982,0,0,1,11.82276-1.331A46.1865,46.1865,0,0,1,.39245,13.35133c3.85986.95684,7.24853,2.04834,10.62109,2.75238a67.085,67.085,0,0,0,10.24463,1.34051c1.76367.03119,3.46875.13153,5.28564.09534,1.80371-.00635,3.60059-.03528,5.3833-.11341A102.67665,102.67665,0,0,0,42.50768,16.496c3.49658-.48743,7.07666-1.22485,10.89453-1.81146a112.40361,112.40361,0,0,1,11.51026-1.15479,153.64621,153.64621,0,0,1,22.88232.5871c3.84717.41925,7.66748,1.13617,11.25537,1.7995,3.59522.66711,7.03906,1.20056,10.582,1.50146a153.67266,153.67266,0,0,0,21.50586.21234,103.53535,103.53535,0,0,0,10.59863-1.25769c3.56153-.6026,7.34473-1.30566,11.17627-1.73071,3.83106-.43866,7.6626-.64252,11.45752-.72882,3.79151-.02441,7.5542-.01685,11.36084.19458A111.34541,111.34541,0,0,1,187.162,15.24256c3.79736.57611,7.45068,1.37122,10.96924,1.94946a103.94611,103.94611,0,0,0,10.64257,1.19129c3.58838.18762,7.22315.292,10.84619.25378,3.61915-.03564,7.21778-.15857,10.769-.50885,3.55566-.33349,7.06787-.93561,10.751-1.55975,3.67676-.62726,7.50635-1.16406,11.30372-1.42737,3.80078-.26953,7.58349-.35748,11.34228-.33893,3.7627.04474,7.52637.127,11.31738.45185A110.88148,110.88148,0,0,1,286.39,16.76313c3.69532.68359,7.2251,1.39307,10.792,1.84283,3.5625.46241,7.16552.71021,10.79687.848a133.39063,133.39063,0,0,0,21.7168-.85187c3.57764-.47186,7.186-1.18683,10.93115-1.733a110.11834,110.11834,0,0,1,11.28662-1.04865,157.36211,157.36211,0,0,1,22.5083.69556c3.75537.42377,7.47364,1.13562,11.08545,1.8175,3.61524.68543,7.17822,1.25153,10.80274,1.57227a156.03493,156.03493,0,0,0,21.89795.29834,106.20055,106.20055,0,0,0,10.85986-1.24725c3.61719-.59858,7.313-1.27009,11.04687-1.66968a145.87807,145.87807,0,0,1,22.38721-.47412,108.56068,108.56068,0,0,1,11.15772,1.10907c3.6997.56079,7.32617,1.35009,10.93945,1.9447a117.911,117.911,0,0,0,21.93555,1.39,68.51921,68.51921,0,0,0,10.89306-1.1159c3.59571-.65741,7.10791-1.71381,10.72412-2.63959a44.38718,44.38718,0,0,1,11.13721-1.51709l1.40918-.00659,1.40381.0813c.93506.05914,1.87353.08606,2.79834.22174l2.78271.33459,2.75391.48108,1.37646.24079a2.8766,2.8766,0,0,1,1.57862.775,1.8463,1.8463,0,0,1,.44043.94421,2.64083,2.64083,0,0,1-.03809.9018,6.42283,6.42283,0,0,1-.52246,1.44519c-.86133,1.73053-1.91895,3.22772-2.68115,4.85364a8.71524,8.71524,0,0,0-.81446,2.46081,5.25516,5.25516,0,0,0,.25489,2.46283c.51318,1.59186,2.18261,2.6142,3.19922,4.39a5.95948,5.95948,0,0,1,.72314,2.90534,6.24242,6.24242,0,0,1-.65283,2.90924c-.95215,1.82532-2.665,2.81189-3.28906,4.39941a5.396,5.396,0,0,0-.3667,2.50885,4.8855,4.8855,0,0,0,.77832,2.39368,18.19746,18.19746,0,0,0,1.74218,2.07129,6.62129,6.62129,0,0,1,1.479,2.53784,6.94242,6.94242,0,0,1,.144,2.94013,5.86242,5.86242,0,0,1-1.21484,2.68683c-.59571.77117-1.28809,1.39715-1.82617,2.09069a5.04288,5.04288,0,0,0-1.06983,2.30487,6.13414,6.13414,0,0,0,.09961,2.56464,5.69675,5.69675,0,0,0,1.28858,2.22607,20.25082,20.25082,0,0,1,1.81835,2.15961,5.75817,5.75817,0,0,1,.93555,2.78357,6.24734,6.24734,0,0,1-.40625,2.90131,8.13378,8.13378,0,0,1-1.65869,2.37091,9.76829,9.76829,0,0,0-1.645,2.0982,5.35863,5.35863,0,0,0-.56885,2.49994,5.2096,5.2096,0,0,0,.6045,2.49335,11.26832,11.26832,0,0,0,1.66992,2.09717,7.44371,7.44371,0,0,1,1.6084,2.398,6.32768,6.32768,0,0,1,.34619,2.89074,5.74525,5.74525,0,0,1-.9917,2.74067,25.83342,25.83342,0,0,1-1.8291,2.13049,5.59337,5.59337,0,0,0-1.27539,2.26416,6.249,6.249,0,0,0-.06153,2.604,5.23444,5.23444,0,0,0,1.12061,2.33228c.5542.69763,1.24511,1.33154,1.82178,2.10376a5.96483,5.96483,0,0,1,.88769,5.54651c-.65967,1.89917-2.31055,3.06671-3.313,4.504a3.77507,3.77507,0,0,0-.74658,2.41839,9.52931,9.52931,0,0,0,.65527,2.58948,32.24044,32.24044,0,0,0,2.51856,4.88385,9.01061,9.01061,0,0,1,1.1709,2.61017,1.69758,1.69758,0,0,1-.05274.81439,1.456,1.456,0,0,1-.50635.66956A3.55444,3.55444,0,0,1,551.77184,133.5481Zm-.10059-.51959a3.0794,3.0794,0,0,0,1.17774-.44073.92258.92258,0,0,0,.34912-.975,8.71792,8.71792,0,0,0-1.10986-2.42,32.66431,32.66431,0,0,1-2.56836-4.95905,9.9999,9.9999,0,0,1-.69776-2.7608,4.35193,4.35193,0,0,1,.83887-2.76514c1.10791-1.55963,2.66553-2.67816,3.23438-4.37689a5.38027,5.38027,0,0,0-.81446-4.99726c-.53467-.71594-1.21777-1.34051-1.81543-2.08453a5.8436,5.8436,0,0,1-1.24707-2.59,6.83827,6.83827,0,0,1,.063-2.87512,6.20872,6.20872,0,0,1,1.397-2.51129,25.95659,25.95659,0,0,0,1.78467-2.08246,5.11091,5.11091,0,0,0,.87891-2.44842,5.703,5.703,0,0,0-.313-2.60095,6.8204,6.8204,0,0,0-1.48926-2.19391,11.806,11.806,0,0,1-1.76416-2.21765,5.87158,5.87158,0,0,1-.69092-2.80072,6.01709,6.01709,0,0,1,.6377-2.812,10.34813,10.34813,0,0,1,1.73926-2.24365,7.49684,7.49684,0,0,0,1.52685-2.1756,5.5721,5.5721,0,0,0,.35156-2.59051,5.05735,5.05735,0,0,0-.83056-2.45923,19.92766,19.92766,0,0,0-1.76856-2.08325,6.39038,6.39038,0,0,1-1.438-2.49072,6.8154,6.8154,0,0,1-.12158-2.87891,5.76923,5.76923,0,0,1,1.2041-2.62018c.58887-.757,1.27735-1.38257,1.81836-2.09119a5.57583,5.57583,0,0,0,.9375-4.98168,5.88752,5.88752,0,0,0-1.332-2.25721,18.55727,18.55727,0,0,1-1.81152-2.15234,5.6452,5.6452,0,0,1-.90283-2.7442,6.14887,6.14887,0,0,1,.418-2.85742c.772-1.85621,2.52441-2.89142,3.28613-4.46357a5.43884,5.43884,0,0,0,.5498-2.53881,5.13737,5.13737,0,0,0-.63525-2.51624c-.83643-1.52716-2.59668-2.5813-3.28223-4.49091a6.09289,6.09289,0,0,1-.31836-2.87988,9.52819,9.52819,0,0,1,.87354-2.71948c.791-1.70825,1.86035-3.24786,2.65332-4.87262.36328-.77576.73291-1.7561.25928-2.26544-.49121-.51557-1.54444-.52429-2.42774-.70752l-2.7251-.45972-2.74316-.31305c-.9126-.1289-1.832-.14868-2.74951-.20148l-1.37647-.07208-1.37695.015A43.3091,43.3091,0,0,0,528.42321,18.554c-3.5625.93384-7.12012,2.02753-10.77588,2.71924A69.698,69.698,0,0,1,506.577,22.476a122.66345,122.66345,0,0,1-22.19092-1.2417c-3.66748-.5672-7.28858-1.31848-10.93946-1.83526a107.00271,107.00271,0,0,0-11.0122-.98688,144.29991,144.29991,0,0,0-22.10352.67914c-3.66211.42749-7.28564,1.12152-10.93506,1.76275a108.29106,108.29106,0,0,1-11.0415,1.37842,158.06367,158.06367,0,0,1-22.23145-.08429c-3.70068-.28992-7.38232-.83777-11.02587-1.49219-3.64454-.65106-7.272-1.309-10.939-1.68737a154.86214,154.86214,0,0,0-22.10791-.46833,107.3373,107.3373,0,0,0-10.99365,1.12708c-3.6416.56531-7.26953,1.3211-10.94629,1.84485a136.21665,136.21665,0,0,1-22.20752,1.09723c-3.707-.10358-7.4165-.32062-11.105-.76172-3.69092-.4281-7.34131-1.12464-10.97559-1.76032a119.575,119.575,0,0,0-22.02343-1.69574c-3.69092.01715-7.37891.13941-11.05176.43463-3.67432.29077-7.31592.83521-10.95166,1.49085-3.63526.65216-7.29541,1.319-10.99219,1.70331-3.69482.40185-7.40674.5653-11.11377.63861-3.708.07556-7.41553.00708-11.12353-.15021a108.21852,108.21852,0,0,1-11.08057-1.12769c-3.67139-.56756-7.2915-1.319-10.93848-1.83532a106.848,106.848,0,0,0-11.001-.98651,144.2034,144.2034,0,0,0-22.08643.6781c-3.6582.42688-7.27783,1.12-10.92969,1.76178a108.39971,108.39971,0,0,1-11.05224,1.37994,158.16457,158.16457,0,0,1-22.24756-.08392c-3.70459-.2901-7.39112-.83869-11.03565-1.49329-3.6455-.65131-7.269-1.30847-10.93164-1.68658a154.75417,154.75417,0,0,0-22.09131-.46814,107.24869,107.24869,0,0,0-10.98291,1.12591c-3.63769.56464-7.2666,1.32068-10.94726,1.84509a127.72805,127.72805,0,0,1-22.23682,1.04548,72.32056,72.32056,0,0,1-11.07568-1.423c-3.65137-.75787-7.19727-1.88812-10.76074-2.758a40.83891,40.83891,0,0,0-10.86036-1.25135A71.36428,71.36428,0,0,0-22.6139,18.454a2.15581,2.15581,0,0,0-1.02.38153c-.21289.168-.25586.4201-.21338.794A8.18926,8.18926,0,0,0-22.84,21.99085a33.86356,33.86356,0,0,1,2.58838,4.99988,6.37546,6.37546,0,0,1-.55127,5.77942,20.96413,20.96413,0,0,1-1.833,2.16583,5.559,5.559,0,0,0-1.26368,2.18134,6.0402,6.0402,0,0,0-.09619,2.516,4.94833,4.94833,0,0,0,1.04932,2.25989c.52978.68554,1.22217,1.31463,1.82178,2.09674a5.94343,5.94343,0,0,1,1.22119,2.73266,7.03267,7.03267,0,0,1-.15869,2.97718,6.72193,6.72193,0,0,1-1.50342,2.56207,17.91765,17.91765,0,0,0-1.73877,2.05945,4.81856,4.81856,0,0,0-.77,2.36236,5.33934,5.33934,0,0,0,.35937,2.48169,7.47234,7.47234,0,0,0,1.49952,2.105,10.09389,10.09389,0,0,1,1.7622,2.30555,6.26394,6.26394,0,0,1,.63477,2.922,5.92284,5.92284,0,0,1-.74365,2.90058,12.72893,12.72893,0,0,1-1.80225,2.24816,6.35854,6.35854,0,0,0-1.42578,2.13044,5.57739,5.57739,0,0,0-.28125,2.50226,4.89668,4.89668,0,0,0,.86572,2.33477c.49317.70209,1.15723,1.3288,1.78174,2.06378a6.23933,6.23933,0,0,1,1.4165,2.61652,6.90286,6.90286,0,0,1,.042,2.9751,6.13,6.13,0,0,1-1.31983,2.67309c-.61865.75043-1.293,1.37677-1.80615,2.07245a5.33712,5.33712,0,0,0-.7666,4.81977A5.999,5.999,0,0,0-22.51185,97.997a15.14781,15.14781,0,0,1,1.81836,2.20721,5.80245,5.80245,0,0,1,.84668,2.86188,6.28732,6.28732,0,0,1-.52295,2.9317c-.87158,1.88483-2.61035,2.90863-3.28223,4.44611a5.30033,5.30033,0,0,0-.458,2.46887,4.79079,4.79079,0,0,0,.68213,2.40521,13.6643,13.6643,0,0,0,1.7002,2.063,7.05351,7.05351,0,0,1,1.56592,2.49786,6.45782,6.45782,0,0,1,.24511,2.97248,10.52417,10.52417,0,0,1-.93945,2.74542c-.812,1.71075-1.894,3.25592-2.65039,4.861-.36963.78217-.61035,1.69141-.14453,2.00494a6.70315,6.70315,0,0,0,2.41553.61585,56.73913,56.73913,0,0,0,10.94189,1.00732A43.54181,43.54181,0,0,0,.54381,132.512c3.55518-.93854,7.126-2.02026,10.79053-2.7016A68.974,68.974,0,0,1,22.42956,128.638,122.58714,122.58714,0,0,1,44.641,129.92554c3.669.58033,7.28906,1.32789,10.93555,1.843a106.72055,106.72055,0,0,0,11.00293.9762,143.47208,143.47208,0,0,0,22.08789-.688c3.65869-.42963,7.27881-1.12714,10.93262-1.76141a107.57845,107.57845,0,0,1,11.05175-1.35437c3.7041-.27564,7.41455-.32434,11.1211-.32428,3.707.0144,7.41748.14868,11.11816.451,3.70215.29919,7.38428.85626,11.02686,1.51452,3.64355.65711,7.27,1.309,10.93652,1.68146a154.4285,154.4285,0,0,0,22.104.459,105.55476,105.55476,0,0,0,10.9917-1.1322c3.64063-.57239,7.27051-1.31952,10.94873-1.83685a136.75506,136.75506,0,0,1,22.209-1.05048c3.70654.10315,7.41455.33582,11.10107.78382,3.689.436,7.33643,1.14178,10.97119,1.77539a119.82882,119.82882,0,0,0,22.03125,1.68371c3.6919-.01159,7.38086-.14257,11.05518-.43988,3.67578-.29449,7.32031-.84283,10.957-1.49707,3.63623-.653,7.29639-1.30835,10.9917-1.68091,3.69189-.40136,7.40234-.54943,11.10742-.61651a127.4631,127.4631,0,0,1,22.186,1.3194c3.665.57934,7.28662,1.32757,10.937,1.84344a106.81282,106.81282,0,0,0,11.01367.97784,143.58257,143.58257,0,0,0,22.10547-.68829c3.6626-.43,7.28662-1.12817,10.9375-1.762a107.50616,107.50616,0,0,1,11.041-1.35334c3.70069-.27551,7.4087-.32415,11.11329-.32421,3.70507.0144,7.41259.14843,11.10986.45044,3.69824.29882,7.375.855,11.01709,1.51306,3.64258.65686,7.27344,1.30987,10.94385,1.6828a154.533,154.533,0,0,0,22.12109.45965,105.68778,105.68778,0,0,0,11.00244-1.1333c3.64453-.57306,7.27344-1.32,10.94727-1.83673a107.44452,107.44452,0,0,1,11.07763-.97534c3.70313-.16614,7.4087-.15228,11.11914-.01556a70.71216,70.71216,0,0,1,11.0337,1.44989c3.63574.76641,7.17236,1.9,10.75048,2.76928a41.3101,41.3101,0,0,0,10.92725,1.2215A72.49379,72.49379,0,0,0,551.67125,133.02851Z"/><path class="b936509b-7660-489e-a079-6ffd7ad74322" d="M551.66366,144.82089c-23.549,4.11269-24.25605-4.0453-48.16152-4.0453-23.90594,0-23.90593,4.07568-47.81187,4.07568-23.9072,0-23.9072-4.07568-47.8144-4.07568-23.90762,0-23.90762,4.07568-47.81524,4.07568-23.90686,0-23.90686-4.07568-47.81373-4.07568-23.90785,0-23.90785,4.07568-47.8157,4.07568-23.90651,0-23.90651-4.07568-47.813-4.07568-23.90688,0-23.90688,4.07568-47.81376,4.07568-23.908,0-23.908-4.07568-47.816-4.07568-23.90723,0-23.90723,4.07568-47.81446,4.07568-23.91052,0-23.91053-4.07568-47.82105-4.07568S.73656,148.92983-22.81828,144.821c-4.10887-.71675,2.388-6.17845,2.388-10.34937,0-4.1714-4.07569-4.1714-4.07569-8.3428,0-4.172,4.07569-4.172,4.07569-8.34411,0-4.17134-4.07569-4.17134-4.07569-8.34269,0-4.17081,4.07569-4.17081,4.07569-8.34162s-4.07569-4.1708-4.07569-8.3416,4.07569-4.17087,4.07569-8.34174c0-4.17195-4.07569-4.17195-4.07569-8.3439,0-4.1734,4.07569-4.1734,4.07569-8.3468,0-4.17208-4.07569-4.17208-4.07569-8.34416,0-4.175,4.07569-4.175,4.07569-8.34989s-6.50113-9.63909-2.38844-10.35735c23.549-4.11269,24.25606,4.0453,48.16152,4.0453,23.90594,0,23.90594-4.07568,47.81188-4.07568,23.9072,0,23.9072,4.07568,47.8144,4.07568,23.90762,0,23.90762-4.07568,47.81524-4.07568,23.90686,0,23.90686,4.07568,47.81373,4.07568,23.90785,0,23.90785-4.07568,47.8157-4.07568,23.90651,0,23.90651,4.07568,47.813,4.07568,23.90688,0,23.90688-4.07568,47.81376-4.07568,23.908,0,23.908,4.07568,47.816,4.07568,23.90723,0,23.90723-4.07568,47.81446-4.07568,23.91052,0,23.91052,4.07568,47.821,4.07568s24.6164-8.15424,48.17123-4.04537c4.10888.71675-2.388,6.17845-2.388,10.34937,0,4.1714,4.07569,4.1714,4.07568,8.3428,0,4.17206-4.07568,4.17206-4.07568,8.34411,0,4.17135,4.07569,4.17135,4.07568,8.34269,0,4.17081-4.07568,4.17081-4.07568,8.34162s4.07569,4.1708,4.07568,8.3416-4.07568,4.17087-4.07568,8.34174c0,4.172,4.07569,4.172,4.07568,8.34391,0,4.1734-4.07568,4.1734-4.07568,8.3468,0,4.17208,4.07569,4.17208,4.07568,8.34415,0,4.17495-5.02108,4.78854-4.01571,8.84063C550.7234,140.54931,555.77636,144.10263,551.66366,144.82089Z"/><path class="e3866c0b-cb74-4546-a4e0-9bed6d84279c" d="M551.66366,138.549c-23.549,4.1127-24.25605-4.0453-48.16152-4.04529-23.90594,0-23.90593,4.07568-47.81187,4.07568-23.9072,0-23.9072-4.07569-47.8144-4.07568-23.90762,0-23.90762,4.07568-47.81524,4.07568-23.90686,0-23.90686-4.07569-47.81373-4.07568-23.90785,0-23.90785,4.07568-47.8157,4.07568-23.90651,0-23.90651-4.07569-47.813-4.07568-23.90688,0-23.90688,4.07568-47.81376,4.07568-23.908,0-23.908-4.07569-47.816-4.07568-23.90723,0-23.90723,4.07568-47.81446,4.07568-23.91052,0-23.91053-4.07569-47.82105-4.07568s-24.61639,8.15424-48.17123,4.04536c-4.10887-.71674,2.388-6.17844,2.388-10.34937,0-4.1714-4.07569-4.1714-4.07569-8.3428,0-4.172,4.07569-4.172,4.07569-8.3441,0-4.17135-4.07569-4.17135-4.07569-8.3427,0-4.1708,4.07569-4.1708,4.07569-8.34161s-4.07569-4.1708-4.07569-8.3416,4.07569-4.17087,4.07569-8.34175c0-4.172-4.07569-4.172-4.07569-8.3439,0-4.1734,4.07569-4.1734,4.07569-8.3468,0-4.17208-4.07569-4.17208-4.07569-8.34416,0-4.17494,4.07569-4.17494,4.07569-8.34989s-6.50113-9.63908-2.38844-10.35734c23.549-4.1127,24.25606,4.0453,48.16152,4.0453,23.90594,0,23.90594-4.07569,47.81188-4.07569,23.9072,0,23.9072,4.07569,47.8144,4.07569,23.90762,0,23.90762-4.07569,47.81524-4.07569,23.90686,0,23.90686,4.07569,47.81373,4.07569,23.90785,0,23.90785-4.07569,47.8157-4.07569,23.90651,0,23.90651,4.07569,47.813,4.07569,23.90688,0,23.90688-4.07569,47.81376-4.07569,23.908,0,23.908,4.07569,47.816,4.07569,23.90723,0,23.90723-4.07569,47.81446-4.07569,23.91052,0,23.91052,4.07569,47.821,4.07569s24.6164-8.15425,48.17123-4.04537c4.10888.71674-2.388,6.17845-2.388,10.34937,0,4.1714,4.07569,4.1714,4.07568,8.3428,0,4.17205-4.07568,4.17205-4.07568,8.34411,0,4.17134,4.07569,4.17134,4.07568,8.34269,0,4.17081-4.07568,4.17081-4.07568,8.34161s4.07569,4.1708,4.07568,8.3416-4.07568,4.17088-4.07568,8.34175c0,4.172,4.07569,4.172,4.07568,8.3439,0,4.1734-4.07568,4.1734-4.07568,8.3468,0,4.17208,4.07569,4.17208,4.07568,8.34416,0,4.17494-5.02108,4.78854-4.01571,8.84062C550.7234,134.27741,555.77636,137.83073,551.66366,138.549Z"/><g class="ededd57d-4453-4e71-9584-3a894de2bc41"><path class="a148bba8-ba19-426e-9caf-ff0ed4e2349a" d="M327.95,6.7287c2.6894-7.90963,24.54973-14.49668,17.9381-19.60369-6.61333-5.10832-31.0653,26.54767-37.67864,21.43934-6.61563-5.1101,17.83634-36.76608,11.2207-41.87618-6.61353-5.10848-31.0655,26.54751-37.679,21.439-6.61808-5.112,17.83388-36.768,11.2158-41.88S285.49409-36.0526,278.512-31.45021c-20.36425,13.42354-41.74506-9.62193-56.65492,9.68067C206.947-2.46664,238.603,21.98531,223.69289,41.28821,208.78211,60.592,177.12611,36.14,162.21533,55.44384,147.305,74.747,178.961,99.199,164.05069,118.50216,149.13833,137.808,117.48233,113.356,102.57,132.66188s12.79162,34.18,4.93863,57.276c-2.68939,7.90963-24.54972,14.49669-17.93809,19.60369,6.61333,5.10832,31.06529-26.54766,37.67863-21.43934,6.61563,5.1101-17.83633,36.76609-11.2207,41.87619,6.61354,5.10847,31.0655-26.54751,37.679-21.439,6.61808,5.112-17.83389,36.768-11.2158,41.88s7.47285-17.70017,14.45493-22.30256c20.36426-13.42353,41.74506,9.62193,56.65492-9.68066,14.9101-19.3029-16.74589-43.75486-1.83579-63.05776,14.91078-19.30379,46.56677,5.14817,61.47755-14.15562,14.91032-19.30318-16.74567-43.75514-1.83536-63.05833,14.91237-19.30583,51.59824,4.59406,63.23192-16.84776C345.70577,40.92122,320.097,29.82469,327.95,6.7287Z"/><path class="a148bba8-ba19-426e-9caf-ff0ed4e2349a" d="M492.8217,8.57425c3.13671-6.33112,38.12158-14.39538,32.52991-18.71455-5.59552-4.32214-41.05087,41.579-46.64639,37.25691s-7.14357-58.12489-12.48132-53.48818c-26.62378,23.12714,20.41047,67.53048-1.14759,95.44-21.561,27.91334-67.46223-7.542-89.02326,20.37134s21.47238,54.82411,5.8141,86.42871c-3.1367,6.33112-38.12158,14.39539-32.5299,18.71455,5.59552,4.32214,41.05087-41.579,46.64639-37.25691s7.14356,58.1249,12.48131,53.48818c26.62379-23.12714-20.41047-67.53049,1.1476-95.44,21.561-27.91334,76.95513,6.24741,92.21714-25.55045C517.24544,57.70568,477.16343,40.17886,492.8217,8.57425Z"/></g><path class="b9464104-994c-44fb-a7bc-4da9095df529" d="M-.00013,39.10888A47.31049,47.31049,0,0,0,12.17614,41.522a111.03348,111.03348,0,0,0,12.41308.39209c2.06934-.00244,4.14014-.15881,6.207-.22089,2.0669-.12524,4.13233-.28595,6.19532-.44445l6.17968-.64783,6.165-.7749.04-.005a1.47915,1.47915,0,0,1,.36914,2.93518l-.05029.00543-6.26318.57074-6.28077.36219c-2.09716.0617-4.19384.12493-6.29.15222-2.09961-.02832-4.19532.01947-6.293-.11371a99.0693,99.0693,0,0,1-12.522-1.19818A43.96191,43.96191,0,0,1-.00013,39.10888Z"/><path class="b9464104-994c-44fb-a7bc-4da9095df529" d="M69.23522,37.16723l3.0293-.24463a1.799,1.799,0,0,1,.28955,3.58643l-.02784.00208-.04541.00274-2.96337.17786-.03418.00207a1.76772,1.76772,0,0,1-.24805-3.52655Z"/><path class="b9464104-994c-44fb-a7bc-4da9095df529" d="M82.45934,36.68481a59.19081,59.19081,0,0,1,6.42578.61377c2.13379.32117,4.23291.788,6.25879,1.24744a60.0191,60.0191,0,0,0,11.998,1.72583c4.02441.16888,8.20312.06286,12.31933-.08661,4.13233-.16284,8.27-.42072,12.40918-.72449a1.918,1.918,0,0,1,.29541,3.82465c-4.16748.33477-8.34521.62433-12.53711.81854-4.20654.17181-8.36572.33783-12.66748.15546a64.09307,64.09307,0,0,1-12.68847-1.90589c-2.03272-.47571-4.001-.92584-5.98584-1.23846-1.98291-.3216-3.98535-.50067-6.00391-.63l-.02393-.00158a1.90208,1.90208,0,0,1,.2002-3.79865Z"/><path class="b9464104-994c-44fb-a7bc-4da9095df529" d="M151.79039,37.913l2.99854-.23016a1.68685,1.68685,0,0,1,.29541,3.36053l-.00928.00092-2.97949.29162-.00635.00061a1.71833,1.71833,0,1,1-.33447-3.42035Z"/><path class="b9464104-994c-44fb-a7bc-4da9095df529" d="M164.84752,37.16363a108.074,108.074,0,0,1,12.63672.55683c4.16651.3753,8.31641.80218,12.4624,1.25586l12.4253,1.4c4.14062.46033,8.27978.91431,12.437,1.21484a.07916.07916,0,0,1,.07422.084.08068.08068,0,0,1-.07715.0747c-4.17627.09363-8.353-.05572-12.52246-.21844-4.16992-.1734-8.3335-.41321-12.49609-.62433-4.16065-.22827-8.31836-.47565-12.46827-.64447-2.07519-.08984-4.14648-.14374-6.20849-.19489-2.0586-.05426-4.09815.04932-6.1377.123l-.03515.00128a1.51487,1.51487,0,0,1-.10938-3.02777Z"/><path class="b9464104-994c-44fb-a7bc-4da9095df529" d="M381.54674,114.62818a52.59039,52.59039,0,0,0,12.14746,2.09168,121.58405,121.58405,0,0,0,12.356.30059c2.05908.01783,4.124-.13134,6.18262-.19494l6.17969-.38959,6.17187-.564,6.1709-.63379.04883-.005a1.76476,1.76476,0,0,1,.37988,3.509l-6.25781.7118c-2.09326.17321-4.19239.29608-6.2876.4461-2.10156.08893-4.20264.18811-6.30664.207-2.10742-.02978-4.209.02521-6.31641-.08777a92.47424,92.47424,0,0,1-12.5791-1.28967,40.66765,40.66765,0,0,1-12.07519-3.74725.19884.19884,0,0,1,.15673-.36383Z"/><path class="b9464104-994c-44fb-a7bc-4da9095df529" d="M450.74938,113.61591l3.02344-.093a.89358.89358,0,0,1,.12988,1.78088l-.02246.00244-2.96924.32953-.01855.00207a1.01432,1.01432,0,0,1-.22413-2.01623C450.69469,113.61866,450.723,113.61677,450.74938,113.61591Z"/><path class="b9464104-994c-44fb-a7bc-4da9095df529" d="M463.85485,113.64539c2.1001.1258,4.19482.35218,6.28027.65119,2.085.30591,4.14014.76672,6.17969,1.1831a56.08108,56.08108,0,0,0,12.23926,1.41864c4.09326.023,8.25537-.30163,12.3789-.59881q6.19776-.47946,12.39795-1.05957a1.83515,1.83515,0,1,1,.34033,3.65448l-.05761.00445c-4.17285.25568-8.35645.44617-12.54883.48346-4.19922.02411-8.37451-.0285-12.60742-.35675a56.6772,56.6772,0,0,1-6.29639-.81775c-2.07959-.39532-4.12891-.89532-6.15137-1.39526a54.0969,54.0969,0,0,0-12.21386-1.89539.63668.63668,0,0,1,.03711-1.27282Z"/></g></svg>