<svg preserveAspectRatio="none" id="e59ee1c9-a24c-43d8-a11a-b7b417de2b92" data-name="Layer 1" xmlns="http://www.w3.org/2000/svg" xmlns:xlink="http://www.w3.org/1999/xlink" viewBox="0 0 530.36885 296.84555"><defs><style>.a290ccbe-4b3d-4b08-b989-565760cf398d,.bcbad222-10e7-4c16-9d01-bf2c24b900f3{fill:none;}.e2589e3c-17b9-4f27-b8c6-5135fe3253a9{clip-path:url(#e011a481-39af-441f-9432-4d96cf21d9c6);}.f801efad-feab-40ee-b798-c5292de1e891{fill:#decda8;}.a5740494-8c9e-4939-877c-5612c4a9e8b0{fill:#6d6e71;}.bcbad222-10e7-4c16-9d01-bf2c24b900f3{stroke:#bcbec0;stroke-miterlimit:10;stroke-width:8px;stroke-dasharray:25 8.076;}.ab2dea97-b63b-4dce-a3ea-49207964d0a7{fill:#d5bdab;}.b266b343-575d-4cba-82e9-d9efe2e6190b{fill:#f6dac6;}.a02cbe24-b43f-4b27-9265-79459a8cc9a1{fill:#ead9ca;}.b17ccdd3-4c5e-4a2e-b106-e58c53fc0747{fill:#b2cfe7;}.a7c3d65d-2480-47b5-991f-77f221832aa1{clip-path:url(#a7a60b41-47a9-4f12-b3db-3a34366757c2);}.ab0fd21d-7435-413e-82b2-dc36596a59b6{fill:#bedcf2;}.b81e1295-4ad3-481e-85ef-22140c7f0057{fill:#fff;}.b9dc74f3-a9a9-4ffe-8491-90613a0134f3{fill:#808285;opacity:0.5;}</style><clipPath id="e011a481-39af-441f-9432-4d96cf21d9c6"><rect class="a290ccbe-4b3d-4b08-b989-565760cf398d" x="0.3263" width="530.04255" height="298.14894"/></clipPath><clipPath id="a7a60b41-47a9-4f12-b3db-3a34366757c2"><path class="a290ccbe-4b3d-4b08-b989-565760cf398d" d="M551.99,138.549c-23.549,4.1127-24.256-4.0453-48.16152-4.04529-23.90594,0-23.90594,4.07568-47.81188,4.07568-23.90719,0-23.90719-4.07569-47.81439-4.07568-23.90762,0-23.90762,4.07568-47.81524,4.07568-23.90686,0-23.90687-4.07569-47.81373-4.07568-23.90785,0-23.90785,4.07568-47.81571,4.07568-23.9065,0-23.9065-4.07569-47.813-4.07568-23.90688,0-23.90688,4.07568-47.81376,4.07568-23.908,0-23.908-4.07569-47.816-4.07568-23.90724,0-23.90723,4.07568-47.81447,4.07568-23.91052,0-23.91052-4.07569-47.821-4.07568S1.06286,142.65793-22.492,138.54905c-4.10887-.71674,2.388-6.17844,2.388-10.34937,0-4.1714-4.07568-4.1714-4.07568-8.3428,0-4.172,4.07568-4.172,4.07568-8.3441,0-4.17135-4.07568-4.17135-4.07568-8.3427,0-4.1708,4.07568-4.1708,4.07568-8.34161s-4.07568-4.1708-4.07568-8.3416,4.07568-4.17087,4.07568-8.34175c0-4.172-4.07568-4.172-4.07568-8.3439,0-4.1734,4.07568-4.1734,4.07568-8.3468,0-4.17208-4.07568-4.17208-4.07568-8.34416,0-4.17494,4.07568-4.17494,4.07568-8.34989s-6.50112-9.63908-2.38843-10.35734c23.549-4.1127,24.25606,4.0453,48.16152,4.0453,23.90594,0,23.90594-4.07569,47.81188-4.07569,23.9072,0,23.9072,4.07569,47.8144,4.07569,23.90762,0,23.90762-4.07569,47.81524-4.07569,23.90686,0,23.90686,4.07569,47.81372,4.07569,23.90786,0,23.90786-4.07569,47.81571-4.07569,23.90651,0,23.90651,4.07569,47.813,4.07569,23.90688,0,23.90688-4.07569,47.81376-4.07569,23.908,0,23.908,4.07569,47.816,4.07569,23.90723,0,23.90723-4.07569,47.81446-4.07569,23.91052,0,23.91052,4.07569,47.821,4.07569s24.6164-8.15425,48.17123-4.04537c4.10888.71674-2.388,6.17845-2.388,10.34937,0,4.1714,4.07568,4.1714,4.07568,8.3428,0,4.17205-4.07568,4.17205-4.07568,8.34411,0,4.17134,4.07568,4.17134,4.07568,8.34269,0,4.17081-4.07568,4.17081-4.07568,8.34161s4.07568,4.1708,4.07568,8.3416-4.07568,4.17088-4.07568,8.34175c0,4.172,4.07568,4.172,4.07568,8.3439,0,4.1734-4.07568,4.1734-4.07568,8.3468,0,4.17208,4.07568,4.17208,4.07568,8.34416,0,4.17494-5.02108,4.78854-4.01571,8.84062C551.0497,134.27741,556.10266,137.83073,551.99,138.549Z"/></clipPath></defs><title>Artboard 62</title><g class="e2589e3c-17b9-4f27-b8c6-5135fe3253a9"><rect class="f801efad-feab-40ee-b798-c5292de1e891" x="116.27311" y="-115.94681" width="298.14894" height="530.04255" transform="translate(116.27311 414.42204) rotate(-90)"/><polygon class="a5740494-8c9e-4939-877c-5612c4a9e8b0" points="132.56 299.729 17.879 299.729 17.879 -34.229 75.22 -34.229 132.56 -34.229 132.56 299.729"/><line class="bcbad222-10e7-4c16-9d01-bf2c24b900f3" x1="75.21978" y1="299.72879" x2="75.21978" y2="-34.22866"/><path class="ab2dea97-b63b-4dce-a3ea-49207964d0a7" d="M552.04779,133.28831c-23.46883,4.54812-24.31388-4.25412-48.21935-4.25412-23.90594,0-23.90594,4.29332-47.81188,4.29332-23.90719,0-23.90719-4.29332-47.81439-4.29332-23.90762,0-23.90762,4.29332-47.81524,4.29332-23.90686,0-23.90687-4.29332-47.81373-4.29332-23.90785,0-23.90785,4.29332-47.81571,4.29332-23.9065,0-23.9065-4.29332-47.813-4.29332-23.90688,0-23.90688,4.29332-47.81376,4.29332-23.908,0-23.908-4.29332-47.816-4.29332-23.90724,0-23.90723,4.29332-47.81447,4.29332-23.91052,0-23.91052-4.29332-47.821-4.29332s-24.7542,8.79814-48.229,4.25421c-4.54393-.87956,2.55462-6.73583,2.55462-11.36411,0-4.62881-4.29333-4.62881-4.29333-9.25762,0-4.62953,4.29333-4.62953,4.29333-9.25907,0-4.62875-4.29333-4.62875-4.29333-9.2575,0-4.62815,4.29333-4.62815,4.29333-9.2563s-4.29333-4.62815-4.29333-9.25629,4.29333-4.62823,4.29333-9.25645c0-4.62942-4.29333-4.62942-4.29333-9.25884,0-4.631,4.29333-4.631,4.29333-9.26206,0-4.62957-4.29333-4.62957-4.29333-9.25913,0-4.63274,4.29333-4.63274,4.29333-9.26548s-7.1032-10.49154-2.55508-11.373C.91863,13.41448,1.76368,22.21672,25.66914,22.21672c23.90594,0,23.90594-4.29332,47.81188-4.29332,23.9072,0,23.9072,4.29332,47.8144,4.29332,23.90762,0,23.90762-4.29332,47.81524-4.29332,23.90686,0,23.90686,4.29332,47.81372,4.29332,23.90786,0,23.90786-4.29332,47.81571-4.29332,23.90651,0,23.90651,4.29332,47.813,4.29332,23.90688,0,23.90688-4.29332,47.81376-4.29332,23.908,0,23.908,4.29332,47.816,4.29332,23.90723,0,23.90723-4.29332,47.81446-4.29332,23.91052,0,23.91052,4.29332,47.821,4.29332s24.75421-8.79814,48.229-4.25421c4.54394.87956-2.55461,6.73583-2.55461,11.36411,0,4.62881,4.29333,4.62881,4.29333,9.25762,0,4.62953-4.29333,4.62953-4.29333,9.25907,0,4.62875,4.29333,4.62875,4.29333,9.2575,0,4.62815-4.29333,4.62815-4.29333,9.2563s4.29333,4.62815,4.29333,9.25629-4.29333,4.62823-4.29333,9.25645c0,4.62942,4.29333,4.62942,4.29333,9.25884,0,4.631-4.29333,4.631-4.29333,9.26206,0,4.62957,4.29333,4.62957,4.29333,9.25913,0,4.63274-5.35611,5.29435-4.22881,9.78784C551.09778,128.57844,556.59591,132.40691,552.04779,133.28831Z"/><path class="b266b343-575d-4cba-82e9-d9efe2e6190b" d="M552.09822,133.5482a73.013,73.013,0,0,1-11.05371,1.31665,41.88863,41.88863,0,0,1-11.07373-1.21143c-3.61426-.87012-7.1377-1.99072-10.74316-2.74145a70.10231,70.10231,0,0,0-10.93872-1.41163c-3.6775-.12695-7.37452-.13281-11.06006.04126a106.70584,106.70584,0,0,0-11.00757.99488c-3.64795.52124-7.26734,1.2749-10.93384,1.86035a106.31827,106.31827,0,0,1-11.07446,1.1665c-3.707.17066-7.41529.25782-11.12354.18824-3.70752-.04956-7.42236-.17676-11.12256-.55982-3.70312-.35376-7.375-.9917-11.01269-1.625-3.63867-.63476-7.27442-1.16186-10.94263-1.436-3.66626-.27686-7.34765-.38794-11.0332-.38013-3.6836.02246-7.36987.09326-11.0315.38843a106.30612,106.30612,0,0,0-10.92163,1.40625c-3.62085.65088-7.28051,1.3789-10.98608,1.83667a150.45222,150.45222,0,0,1-22.31079.86572,108.18735,108.18735,0,0,1-11.16919-.88281c-3.71069-.48828-7.35791-1.20459-10.9751-1.739a125.80777,125.80777,0,0,0-21.905-1.082c-3.66406.10279-7.31933.28516-10.93359.71509-3.61987.40161-7.188,1.0769-10.83814,1.76929-3.64673.69336-7.387,1.2937-11.13208,1.62964-3.74511.33984-7.49267.5083-11.22754.55639a122.189,122.189,0,0,1-22.46215-1.50146c-3.69776-.6084-7.26685-1.26123-10.86353-1.64966-3.59375-.3999-7.2146-.59131-10.85767-.65674a133.90967,133.90967,0,0,0-21.72631,1.24c-3.56592.53711-7.15479,1.313-10.89063,1.93848a108.67683,108.67683,0,0,1-11.29858,1.27368c-3.77271.20166-7.52368.31689-11.283.27441-3.76-.03442-7.54419-.15161-11.33838-.52978-3.79395-.34863-7.572-.9917-11.1875-1.60694-3.62158-.61669-7.13892-1.11108-10.72461-1.36523-3.58154-.25586-7.1958-.35156-10.83252-.32935-3.63135.03638-7.26538.12061-10.83765.42383a103.69574,103.69574,0,0,0-10.65844,1.41651c-3.55835.65356-7.30542,1.41357-11.10865,1.89721a147.55953,147.55953,0,0,1-22.74536.93189,110.95244,110.95244,0,0,1-11.44287-.90723c-3.81079-.50342-7.4873-1.22558-11.01391-1.74463-3.5337-.52051-7.04615-.83886-10.62574-1.008-1.79467-.0564-3.58178-.14234-5.39306-.13355l-2.70655-.011-2.64331.07764a64.29615,64.29615,0,0,0-10.3667,1.15845c-3.40893.65552-6.72851,1.68359-10.4768,2.69922a48.373,48.373,0,0,1-11.95948,1.793A61.59957,61.59957,0,0,1-21.746,137.88267l-1.44043-.23657a5.30666,5.30666,0,0,1-.52734-.10718,6.3701,6.3701,0,0,1-.77734-.22217,6.13916,6.13916,0,0,1-2.00953-1.13159,5.50413,5.50413,0,0,1-1.05981-1.19165,5.661,5.661,0,0,1-.69409-1.50781,5.721,5.721,0,0,1-.22193-1.39185,6.0749,6.0749,0,0,1,.0503-1.10181,9.04255,9.04255,0,0,1,.77539-2.56445c.554-1.2041,1.06323-2.03271,1.51733-2.83642.44946-.78516.85376-1.50147,1.145-2.12818a5.769,5.769,0,0,0,.5044-1.41968,1.77645,1.77645,0,0,0-.0647-.56689,2.42852,2.42852,0,0,0-.56323-.75391,17.24755,17.24755,0,0,1-2.292-2.83691,9.8774,9.8774,0,0,1-1.40234-4.77246,8.15861,8.15861,0,0,1,.01123-1.16382,7.43491,7.43491,0,0,1,.13721-1.19678,9.2841,9.2841,0,0,1,.76953-2.45825,13.22884,13.22884,0,0,1,2.41235-3.38062,4.612,4.612,0,0,0,.82691-1.02954.4818.4818,0,0,0,.04565-.17675c.02173-.02539.00977-.11158.01441-.18262a.58209.58209,0,0,0,0-.21655c-.02613-.33667-.03028-.29981-.11792-.46216a13.1925,13.1925,0,0,0-1.26661-1.45386A11.09478,11.09478,0,0,1-28.37175,97.42a11.01142,11.01142,0,0,1-.41016-4.80493,9.97664,9.97664,0,0,1,1.91065-4.63476c.90283-1.1941,1.65918-1.88379,1.95141-2.26978.28565-.3833.22632-.346.27-.48828a1.9901,1.9901,0,0,0-.00537-.69214c-.03784-.10278.0083-.0918-.363-.54126a29.46047,29.46047,0,0,1-2.07251-2.4314A10.12791,10.12791,0,0,1-28.86125,76.815c-.031-.39038-.05347-.78271-.06763-1.17383q.01905-.587.06421-1.17431a10.3219,10.3219,0,0,1,.57568-2.49219,10.50444,10.50444,0,0,1,1.18287-2.25854,16.52036,16.52036,0,0,1,1.25-1.53663,9.79878,9.79878,0,0,0,1.11889-1.3103c.043-.11548.06836-.08789.07569-.45557a1.089,1.089,0,0,0-.07935-.491,2.05527,2.05527,0,0,0-.22168-.32251c-.17139-.20117-.39355-.448-.74365-.824a12.43922,12.43922,0,0,1-2.46192-3.59008c-.17163-.40406-.30249-.83179-.43432-1.25318-.10962-.418-.18067-.83325-.2544-1.25317a11.57526,11.57526,0,0,1-.07373-2.36621A10.10346,10.10346,0,0,1-27.35,51.5023a21.13246,21.13246,0,0,1,2.1897-2.66846c.41845-.49341.39428-.53857.42187-.606a2.187,2.187,0,0,0,.01123-.64477c-.04614-.17041.01465-.08057-.21484-.40625-.21582-.31519-.88135-.918-1.79688-2.054a10.28182,10.28182,0,0,1-2.08716-4.55737,11.15927,11.15927,0,0,1,.19849-4.855,10.85237,10.85237,0,0,1,2.342-4.208A20.63538,20.63538,0,0,0-24.861,29.86485c.10327-.19239.07129-.10743.10865-.36914-.0066-.05054.02148-.17115.01049-.16333.00367.00659-.00464-.02808-.00805-.06983a3.6846,3.6846,0,0,0-.14576-.51391,12.95675,12.95675,0,0,0-.86206-1.79956l-1.366-2.3733c-.25952-.46533-.53174-.96386-.81665-1.57861a9.3814,9.3814,0,0,1-.81812-2.615,6.57377,6.57377,0,0,1-.0686-1.14014,5.84544,5.84544,0,0,1,.2063-1.45678,6.03488,6.03488,0,0,1,.69311-1.60645,6.00581,6.00581,0,0,1,1.10718-1.29956,5.79292,5.79292,0,0,1,1.14746-.80493,6.16847,6.16847,0,0,1,.99024-.44531,6.40247,6.40247,0,0,1,.8247-.2461c.29273-.07275.502-.11328.57447-.12182a76.47506,76.47506,0,0,1,11.82275-1.33081A46.18261,46.18261,0,0,1,.71883,13.35142c3.85986.95679,7.24853,2.04834,10.62085,2.7522a67.07724,67.07724,0,0,0,10.24463,1.34057c1.76367.03125,3.46923.13159,5.28564.09546,1.80371-.00635,3.60083-.0354,5.38354-.11352A102.66588,102.66588,0,0,0,42.83382,16.496c3.49658-.4873,7.07666-1.22485,10.89453-1.81152a112.442,112.442,0,0,1,11.5105-1.15479,153.66406,153.66406,0,0,1,22.88232.58716c3.84717.41919,7.66748,1.13623,11.25513,1.79956,3.59521.667,7.03955,1.20044,10.58227,1.50147a153.683,153.683,0,0,0,21.50586.2124,103.52511,103.52511,0,0,0,10.59864-1.25781c3.56152-.60254,7.34472-1.30567,11.17626-1.73072,3.83082-.43872,7.6626-.64258,11.45752-.72876,3.79126-.02441,7.55445-.01684,11.3606.19458a111.36665,111.36665,0,0,1,11.43091,1.135c3.79761.57617,7.45068,1.37134,10.96948,1.94947a103.94735,103.94735,0,0,0,10.64209,1.1914c3.58887.1875,7.22314.292,10.84619.25366,3.61914-.03564,7.218-.15844,10.76929-.50879,3.55566-.33349,7.06787-.93554,10.751-1.55981,3.677-.6272,7.5061-1.16406,11.30371-1.42725,3.80078-.26953,7.58325-.35766,11.34228-.33911,3.76245.04492,7.52637.127,11.31714.45191a110.88457,110.88457,0,0,1,11.28662,1.509c3.69556.68359,7.22534,1.39307,10.792,1.843,3.56275.4624,7.166.7102,10.79712.8479a133.3879,133.3879,0,0,0,21.717-.85181c3.57715-.47192,7.18579-1.18677,10.93067-1.73315a110.21269,110.21269,0,0,1,11.28686-1.04859,157.38794,157.38794,0,0,1,22.50806.69556c3.75561.42383,7.47388,1.13574,11.08594,1.81763,3.61523.6853,7.178,1.25146,10.80224,1.57226a156.083,156.083,0,0,0,21.8982.29834,106.23336,106.23336,0,0,0,10.85986-1.24731c3.61719-.59863,7.31323-1.27,11.04663-1.66968a145.89518,145.89518,0,0,1,22.38721-.47412,108.525,108.525,0,0,1,11.158,1.10913c3.6997.56079,7.32617,1.34985,10.93945,1.94458a117.91567,117.91567,0,0,0,21.93555,1.39014,68.53142,68.53142,0,0,0,10.89282-1.116c3.596-.65747,7.10815-1.71387,10.72436-2.63965a44.3928,44.3928,0,0,1,11.13721-1.51709l1.40918-.00659,1.40357.0813c.93505.05908,1.87377.08618,2.79858.22168l2.78271.33472,2.75391.481,1.37647.241a2.87612,2.87612,0,0,1,1.57861.7749,1.85225,1.85225,0,0,1,.44067.94409,2.64046,2.64046,0,0,1-.03857.90186,6.41306,6.41306,0,0,1-.52222,1.44531c-.86133,1.73047-1.91919,3.22754-2.68115,4.85352a8.71009,8.71009,0,0,0-.8147,2.46093,5.25451,5.25451,0,0,0,.25513,2.46265c.51318,1.592,2.18237,2.61426,3.199,4.39014a5.95913,5.95913,0,0,1,.72339,2.90527,6.24235,6.24235,0,0,1-.65283,2.90918c-.95215,1.82544-2.66528,2.812-3.28931,4.39941a5.39677,5.39677,0,0,0-.3667,2.509,4.88585,4.88585,0,0,0,.77857,2.39355A18.12926,18.12926,0,0,0,552.492,52.7584a6.62439,6.62439,0,0,1,1.47876,2.53784,6.94264,6.94264,0,0,1,.1438,2.94019,5.85473,5.85473,0,0,1-1.21485,2.68677c-.5957.77124-1.28784,1.39721-1.82568,2.09082A5.03985,5.03985,0,0,0,550.004,65.3187a6.1346,6.1346,0,0,0,.09937,2.5647,5.69953,5.69953,0,0,0,1.28857,2.22608,20.18723,20.18723,0,0,1,1.81836,2.15966,5.75513,5.75513,0,0,1,.93555,2.78345,6.24429,6.24429,0,0,1-.40625,2.90137,8.12668,8.12668,0,0,1-1.65845,2.37085,9.76026,9.76026,0,0,0-1.645,2.09839A5.35822,5.35822,0,0,0,549.867,84.923a5.21478,5.21478,0,0,0,.60449,2.49341,11.29053,11.29053,0,0,0,1.67017,2.09717,7.44909,7.44909,0,0,1,1.6084,2.39795,6.3382,6.3382,0,0,1,.34643,2.89087,5.7508,5.7508,0,0,1-.99194,2.74072,25.83931,25.83931,0,0,1-1.82935,2.13037,5.59377,5.59377,0,0,0-1.27514,2.26416,6.245,6.245,0,0,0-.06153,2.604,5.22946,5.22946,0,0,0,1.12061,2.33228c.5542.69775,1.24512,1.33154,1.82178,2.10376a5.96437,5.96437,0,0,1,.88769,5.54663c-.65967,1.89917-2.31055,3.06665-3.313,4.50391a3.77559,3.77559,0,0,0-.74658,2.41845,9.51829,9.51829,0,0,0,.65527,2.58936,32.25072,32.25072,0,0,0,2.51856,4.884,9.0088,9.0088,0,0,1,1.17065,2.61011,1.69172,1.69172,0,0,1-.05273.81445,1.455,1.455,0,0,1-.50635.66944A3.5551,3.5551,0,0,1,552.09822,133.5482Zm-.10083-.51978a3.0788,3.0788,0,0,0,1.178-.44067.92215.92215,0,0,0,.34888-.9751,8.70307,8.70307,0,0,0-1.10962-2.41992,32.72157,32.72157,0,0,1-2.56861-4.959,10.00076,10.00076,0,0,1-.69751-2.761,4.35078,4.35078,0,0,1,.83887-2.76514c1.10791-1.55957,2.66528-2.678,3.23438-4.37671a5.379,5.379,0,0,0-.8147-4.99731c-.53442-.71607-1.21777-1.34058-1.81519-2.08448a5.84538,5.84538,0,0,1-1.24731-2.59008,6.83353,6.83353,0,0,1,.06348-2.875,6.20725,6.20725,0,0,1,1.39672-2.51148,25.94386,25.94386,0,0,0,1.78443-2.08227,5.10641,5.10641,0,0,0,.87915-2.44849,5.70686,5.70686,0,0,0-.31275-2.60107,6.823,6.823,0,0,0-1.48974-2.19385,11.8014,11.8014,0,0,1-1.76392-2.21753,5.87533,5.87533,0,0,1-.69116-2.80078,6.02078,6.02078,0,0,1,.63794-2.812,10.343,10.343,0,0,1,1.739-2.24366,7.48569,7.48569,0,0,0,1.5271-2.17553,5.57887,5.57887,0,0,0,.35157-2.59058,5.06086,5.06086,0,0,0-.83082-2.45923,19.8847,19.8847,0,0,0-1.76831-2.08325,6.393,6.393,0,0,1-1.43823-2.49072,6.819,6.819,0,0,1-.12134-2.87891,5.76441,5.76441,0,0,1,1.20411-2.62012c.58886-.75708,1.2771-1.38256,1.81811-2.0913a5.57434,5.57434,0,0,0,.93774-4.98169,5.88768,5.88768,0,0,0-1.33227-2.25708,18.58211,18.58211,0,0,1-1.81152-2.15235,5.64693,5.64693,0,0,1-.90259-2.74414,6.14827,6.14827,0,0,1,.41772-2.85742c.772-1.8562,2.52466-2.8916,3.28638-4.46362a5.44578,5.44578,0,0,0,.55-2.53882,5.14126,5.14126,0,0,0-.6355-2.51636c-.83667-1.5271-2.59644-2.5813-3.28247-4.49072a6.0929,6.0929,0,0,1-.31812-2.87989,9.53257,9.53257,0,0,1,.8733-2.71948c.79126-1.70825,1.86059-3.248,2.65332-4.8728.36352-.77563.73291-1.7561.25952-2.26538-.49146-.51563-1.54468-.52417-2.42774-.70752l-2.72534-.45972-2.74292-.313c-.9126-.1289-1.832-.14868-2.74951-.20141l-1.37671-.07227-1.37671.01514a43.29817,43.29817,0,0,0-10.8772,1.54932c-3.5625.93383-7.11987,2.02734-10.77563,2.71923a69.6897,69.6897,0,0,1-11.07056,1.20264,122.65109,122.65109,0,0,1-22.19067-1.2417c-3.66748-.56714-7.28882-1.31836-10.93945-1.8352a107.02608,107.02608,0,0,0-11.01221-.98682,144.28472,144.28472,0,0,0-22.10352.6792c-3.66211.42749-7.28564,1.12134-10.9353,1.76269a108.29951,108.29951,0,0,1-11.0415,1.37842,158.07346,158.07346,0,0,1-22.231-.08423c-3.70093-.29-7.38257-.83789-11.02588-1.49218-3.64477-.65113-7.27246-1.30909-10.93921-1.6875a154.8831,154.8831,0,0,0-22.10815-.46827,107.37749,107.37749,0,0,0-10.99365,1.127c-3.64161.56543-7.26929,1.32129-10.94629,1.845a136.20863,136.20863,0,0,1-22.20752,1.09717c-3.70679-.10352-7.41626-.32056-11.10474-.76172-3.69067-.428-7.34131-1.12476-10.97583-1.76026a119.565,119.565,0,0,0-22.02344-1.6958c-3.69067.01709-7.3789.13941-11.05151.43457-3.67432.29078-7.31616.83521-10.95191,1.491-3.63525.6521-7.29516,1.31909-10.99218,1.70337-3.69483.40185-7.40674.56519-11.11353.63843-3.70776.07568-7.41577.00708-11.12378-.15015a108.20172,108.20172,0,0,1-11.08056-1.12768c-3.67115-.56763-7.29126-1.31885-10.938-1.83521a106.86371,106.86371,0,0,0-11.00147-.98657,144.19917,144.19917,0,0,0-22.08618.678c-3.658.427-7.27783,1.12011-10.92969,1.762a108.46714,108.46714,0,0,1-11.05224,1.37988,158.16457,158.16457,0,0,1-22.24756-.084c-3.70435-.29-7.39111-.83863-11.03565-1.49317-3.64575-.65136-7.269-1.30859-10.93188-1.68676a154.78125,154.78125,0,0,0-22.09131-.468,107.2141,107.2141,0,0,0-10.98266,1.126c-3.6377.56445-7.26661,1.32055-10.94727,1.845A127.71409,127.71409,0,0,1,21.3304,22.62364a72.31664,72.31664,0,0,1-11.07568-1.42286c-3.65113-.75805-7.19727-1.88818-10.7605-2.75805a40.84571,40.84571,0,0,0-10.8606-1.25147A71.36812,71.36812,0,0,0-22.28777,18.454a2.15454,2.15454,0,0,0-1.02.38159c-.2129.168-.25562.41992-.21314.79395a8.18821,8.18821,0,0,0,1.00708,2.36132,33.84683,33.84683,0,0,1,2.58862,5,6.37521,6.37521,0,0,1-.55151,5.7793,20.93341,20.93341,0,0,1-1.833,2.16577,5.55877,5.55877,0,0,0-1.26318,2.1814,6.03672,6.03672,0,0,0-.09644,2.51611,4.94948,4.94948,0,0,0,1.04908,2.25977c.53.68554,1.22216,1.31469,1.822,2.09668a5.94076,5.94076,0,0,1,1.22094,2.73266,7.02907,7.02907,0,0,1-.15844,2.9773,6.72169,6.72169,0,0,1-1.50342,2.562,17.87284,17.87284,0,0,0-1.73877,2.05957,4.82066,4.82066,0,0,0-.77026,2.3623,5.33932,5.33932,0,0,0,.35961,2.48169,7.47043,7.47043,0,0,0,1.49927,2.105A10.09517,10.09517,0,0,1-20.12688,63.576a6.26011,6.26011,0,0,1,.63453,2.92187,5.92773,5.92773,0,0,1-.74317,2.90064,12.73676,12.73676,0,0,1-1.80273,2.24805,6.35771,6.35771,0,0,0-1.42554,2.13061,5.57,5.57,0,0,0-.28125,2.5022,4.89113,4.89113,0,0,0,.86572,2.33471c.49292.70215,1.157,1.32886,1.78174,2.06373a6.23687,6.23687,0,0,1,1.41626,2.61669,6.89894,6.89894,0,0,1,.042,2.9751,6.13052,6.13052,0,0,1-1.31958,2.6731c-.61865.75024-1.29321,1.37671-1.80615,2.07226a5.33653,5.33653,0,0,0-.7666,4.81983,5.99393,5.99393,0,0,0,1.34619,2.16211,15.13508,15.13508,0,0,1,1.81812,2.20727,5.79494,5.79494,0,0,1,.84667,2.86182,6.29342,6.29342,0,0,1-.52246,2.93188c-.87182,1.88477-2.61035,2.90845-3.28271,4.446a5.29387,5.29387,0,0,0-.45752,2.46875,4.78786,4.78786,0,0,0,.68164,2.40527,13.68174,13.68174,0,0,0,1.7002,2.063,7.05877,7.05877,0,0,1,1.56616,2.4978,6.4585,6.4585,0,0,1,.24487,2.97266,10.53385,10.53385,0,0,1-.939,2.74536c-.8125,1.71069-1.89429,3.25586-2.65088,4.86108-.36963.782-.61035,1.69141-.14429,2.00489a6.69841,6.69841,0,0,0,2.41528.61572,56.72507,56.72507,0,0,0,10.9419,1.00732A43.55181,43.55181,0,0,0,.87019,132.51206c3.55518-.93872,7.12574-2.02026,10.79078-2.70166A68.9542,68.9542,0,0,1,22.75569,128.638a122.57358,122.57358,0,0,1,22.21167,1.2876c3.6687.58032,7.28882,1.32788,10.93555,1.843a106.73042,106.73042,0,0,0,11.00268.97607,143.46018,143.46018,0,0,0,22.08814-.688c3.65869-.42969,7.27881-1.1272,10.93237-1.76147a107.56989,107.56989,0,0,1,11.05176-1.35425c3.7041-.27564,7.41455-.32446,11.12134-.32422,3.70678.0144,7.41723.14868,11.11841.45093,3.7019.29931,7.38379.8562,11.02661,1.51465,3.64355.657,7.27,1.30883,10.93628,1.68139a154.43328,154.43328,0,0,0,22.10424.459,105.51954,105.51954,0,0,0,10.9917-1.13233c3.64063-.57226,7.27051-1.31933,10.94873-1.83667a136.73065,136.73065,0,0,1,22.20874-1.05053c3.70655.103,7.4148.33569,11.10132.78369,3.689.436,7.33643,1.14184,10.97119,1.77539a119.8161,119.8161,0,0,0,22.03125,1.68384c3.69165-.01172,7.38086-.14258,11.05518-.43995,3.67578-.29443,7.32031-.84277,10.95728-1.49707,3.636-.65283,7.29614-1.30835,10.99121-1.6809,3.69214-.40137,7.40258-.54932,11.10766-.61646a127.46543,127.46543,0,0,1,22.186,1.31934c3.665.57934,7.28637,1.32763,10.937,1.8435a106.76084,106.76084,0,0,0,11.01343.97779,143.57626,143.57626,0,0,0,22.10547-.68824c3.66284-.42993,7.28662-1.12817,10.93774-1.762a107.47588,107.47588,0,0,1,11.041-1.35352c3.70068-.27539,7.40869-.324,11.11328-.32421,3.70483.0144,7.41235.14843,11.10962.45044,3.69848.29882,7.37524.855,11.01709,1.51318,3.64257.65674,7.27368,1.30981,10.94384,1.68286a154.53391,154.53391,0,0,0,22.1211.45947,105.67433,105.67433,0,0,0,11.00293-1.1333c3.644-.573,7.27295-1.31982,10.947-1.83667a107.47308,107.47308,0,0,1,11.07739-.97534c3.70313-.166,7.40869-.15234,11.11914-.01562a70.73371,70.73371,0,0,1,11.03394,1.44995c3.63574.76635,7.17212,1.90014,10.75024,2.76928a41.30614,41.30614,0,0,0,10.92725,1.22144A72.47077,72.47077,0,0,0,551.99739,133.02842Z"/><path class="a02cbe24-b43f-4b27-9265-79459a8cc9a1" d="M551.99,144.82089c-23.549,4.11269-24.256-4.0453-48.16152-4.0453-23.90594,0-23.90594,4.07568-47.81188,4.07568-23.90719,0-23.90719-4.07568-47.81439-4.07568-23.90762,0-23.90762,4.07568-47.81524,4.07568-23.90686,0-23.90687-4.07568-47.81373-4.07568-23.90785,0-23.90785,4.07568-47.81571,4.07568-23.9065,0-23.9065-4.07568-47.813-4.07568-23.90688,0-23.90688,4.07568-47.81376,4.07568-23.908,0-23.908-4.07568-47.816-4.07568-23.90724,0-23.90723,4.07568-47.81447,4.07568-23.91052,0-23.91052-4.07568-47.821-4.07568S1.06286,148.92983-22.492,144.821c-4.10887-.71675,2.388-6.17845,2.388-10.34937,0-4.1714-4.07568-4.1714-4.07568-8.3428,0-4.172,4.07568-4.172,4.07568-8.34411,0-4.17134-4.07568-4.17134-4.07568-8.34269,0-4.17081,4.07568-4.17081,4.07568-8.34162s-4.07568-4.1708-4.07568-8.3416,4.07568-4.17087,4.07568-8.34174c0-4.17195-4.07568-4.17195-4.07568-8.3439,0-4.1734,4.07568-4.1734,4.07568-8.3468,0-4.17208-4.07568-4.17208-4.07568-8.34416,0-4.175,4.07568-4.175,4.07568-8.34989s-6.50112-9.63909-2.38843-10.35735c23.549-4.11269,24.25606,4.0453,48.16152,4.0453,23.90594,0,23.90594-4.07568,47.81188-4.07568,23.9072,0,23.9072,4.07568,47.8144,4.07568,23.90762,0,23.90762-4.07568,47.81524-4.07568,23.90686,0,23.90686,4.07568,47.81372,4.07568,23.90786,0,23.90786-4.07568,47.81571-4.07568,23.90651,0,23.90651,4.07568,47.813,4.07568,23.90688,0,23.90688-4.07568,47.81376-4.07568,23.908,0,23.908,4.07568,47.816,4.07568,23.90723,0,23.90723-4.07568,47.81446-4.07568,23.91052,0,23.91052,4.07568,47.821,4.07568s24.6164-8.15424,48.17123-4.04537c4.10888.71675-2.388,6.17845-2.388,10.34937,0,4.1714,4.07568,4.1714,4.07568,8.3428,0,4.17206-4.07568,4.17206-4.07568,8.34411,0,4.17135,4.07568,4.17135,4.07568,8.34269,0,4.17081-4.07568,4.17081-4.07568,8.34162s4.07568,4.1708,4.07568,8.3416-4.07568,4.17087-4.07568,8.34174c0,4.172,4.07568,4.172,4.07568,8.34391,0,4.1734-4.07568,4.1734-4.07568,8.3468,0,4.17208,4.07568,4.17208,4.07568,8.34415,0,4.17495-5.02108,4.78854-4.01571,8.84063C551.0497,140.54931,556.10266,144.10263,551.99,144.82089Z"/><path class="b17ccdd3-4c5e-4a2e-b106-e58c53fc0747" d="M551.99,138.549c-23.549,4.1127-24.256-4.0453-48.16152-4.04529-23.90594,0-23.90594,4.07568-47.81188,4.07568-23.90719,0-23.90719-4.07569-47.81439-4.07568-23.90762,0-23.90762,4.07568-47.81524,4.07568-23.90686,0-23.90687-4.07569-47.81373-4.07568-23.90785,0-23.90785,4.07568-47.81571,4.07568-23.9065,0-23.9065-4.07569-47.813-4.07568-23.90688,0-23.90688,4.07568-47.81376,4.07568-23.908,0-23.908-4.07569-47.816-4.07568-23.90724,0-23.90723,4.07568-47.81447,4.07568-23.91052,0-23.91052-4.07569-47.821-4.07568S1.06286,142.65793-22.492,138.54905c-4.10887-.71674,2.388-6.17844,2.388-10.34937,0-4.1714-4.07568-4.1714-4.07568-8.3428,0-4.172,4.07568-4.172,4.07568-8.3441,0-4.17135-4.07568-4.17135-4.07568-8.3427,0-4.1708,4.07568-4.1708,4.07568-8.34161s-4.07568-4.1708-4.07568-8.3416,4.07568-4.17087,4.07568-8.34175c0-4.172-4.07568-4.172-4.07568-8.3439,0-4.1734,4.07568-4.1734,4.07568-8.3468,0-4.17208-4.07568-4.17208-4.07568-8.34416,0-4.17494,4.07568-4.17494,4.07568-8.34989s-6.50112-9.63908-2.38843-10.35734c23.549-4.1127,24.25606,4.0453,48.16152,4.0453,23.90594,0,23.90594-4.07569,47.81188-4.07569,23.9072,0,23.9072,4.07569,47.8144,4.07569,23.90762,0,23.90762-4.07569,47.81524-4.07569,23.90686,0,23.90686,4.07569,47.81372,4.07569,23.90786,0,23.90786-4.07569,47.81571-4.07569,23.90651,0,23.90651,4.07569,47.813,4.07569,23.90688,0,23.90688-4.07569,47.81376-4.07569,23.908,0,23.908,4.07569,47.816,4.07569,23.90723,0,23.90723-4.07569,47.81446-4.07569,23.91052,0,23.91052,4.07569,47.821,4.07569s24.6164-8.15425,48.17123-4.04537c4.10888.71674-2.388,6.17845-2.388,10.34937,0,4.1714,4.07568,4.1714,4.07568,8.3428,0,4.17205-4.07568,4.17205-4.07568,8.34411,0,4.17134,4.07568,4.17134,4.07568,8.34269,0,4.17081-4.07568,4.17081-4.07568,8.34161s4.07568,4.1708,4.07568,8.3416-4.07568,4.17088-4.07568,8.34175c0,4.172,4.07568,4.172,4.07568,8.3439,0,4.1734-4.07568,4.1734-4.07568,8.3468,0,4.17208,4.07568,4.17208,4.07568,8.34416,0,4.17494-5.02108,4.78854-4.01571,8.84062C551.0497,134.27741,556.10266,137.83073,551.99,138.549Z"/><g class="a7c3d65d-2480-47b5-991f-77f221832aa1"><path class="ab0fd21d-7435-413e-82b2-dc36596a59b6" d="M328.27632,6.7287C330.96572-1.18093,352.826-7.768,346.21442-12.875c-6.61334-5.10832-31.0653,26.54767-37.67864,21.43934-6.61563-5.1101,17.83634-36.76608,11.2207-41.87618-6.61353-5.10848-31.0655,26.54751-37.679,21.439-6.61808-5.112,17.83389-36.768,11.21581-41.88s-7.47286,17.70017-14.45494,22.30256c-20.36425,13.42354-41.74506-9.62193-56.65492,9.68067-14.91009,19.3029,16.74589,43.75485,1.8358,63.05775C209.10841,60.592,177.45241,36.14,162.54163,55.44384,147.63132,74.747,179.2873,99.199,164.377,118.50216c-14.91236,19.30584-46.56836-5.14612-61.48072,14.15972s12.79162,34.18,4.93863,57.276c-2.68939,7.90963-24.54972,14.49669-17.9381,19.60369,6.61334,5.10832,31.0653-26.54766,37.67864-21.43934,6.61563,5.1101-17.83633,36.76609-11.2207,41.87619,6.61354,5.10847,31.0655-26.54751,37.679-21.439,6.61808,5.112-17.83389,36.768-11.21581,41.88s7.47286-17.70017,14.45494-22.30256c20.36425-13.42353,41.74506,9.62193,56.65492-9.68066,14.9101-19.3029-16.74589-43.75486-1.83579-63.05776,14.91078-19.30379,46.56677,5.14817,61.47755-14.15562,14.91031-19.30318-16.74567-43.75514-1.83536-63.05833,14.91237-19.30583,51.59823,4.59406,63.23191-16.84776C346.03207,40.92122,320.42333,29.82469,328.27632,6.7287Z"/><path class="ab0fd21d-7435-413e-82b2-dc36596a59b6" d="M493.148,8.57425c3.13671-6.33112,38.12158-14.39538,32.52991-18.71455-5.59552-4.32214-41.05088,41.579-46.64639,37.25691S471.888-31.00828,466.5502-26.37157c-26.62378,23.12714,20.41047,67.53048-1.1476,95.44-21.561,27.91334-67.46222-7.542-89.02325,20.37134s21.47238,54.82411,5.8141,86.42871c-3.13671,6.33112-38.12158,14.39539-32.5299,18.71455,5.59552,4.32214,41.05087-41.579,46.64639-37.25691s7.14356,58.1249,12.48131,53.48818c26.62379-23.12714-20.41047-67.53049,1.1476-95.44,21.561-27.91334,76.95513,6.24741,92.21714-25.55045C517.57174,57.70568,477.48973,40.17886,493.148,8.57425Z"/></g><path class="b81e1295-4ad3-481e-85ef-22140c7f0057" d="M.32625,39.109a47.319,47.319,0,0,0,12.17627,2.41308,110.9904,110.9904,0,0,0,12.41308.39185c2.0691-.00244,4.1399-.15869,6.20679-.2207,2.0669-.12525,4.13257-.28589,6.1958-.44458l6.1792-.64771,6.165-.7749.04028-.00513a1.4792,1.4792,0,0,1,.3689,2.9353l-.05029.00538-6.26319.5708-6.28051.36206c-2.09742.06176-4.19385.125-6.29029.15234-2.09961-.02832-4.19507.01953-6.29248-.11377a99.01986,99.01986,0,0,1-12.52221-1.19824A43.95669,43.95669,0,0,1,.32625,39.109Z"/><path class="b81e1295-4ad3-481e-85ef-22140c7f0057" d="M69.56136,37.16709l3.02954-.24463a1.79917,1.79917,0,0,1,.28955,3.58667l-.02783.002-.04541.00268-2.96338.178-.03443.002a1.76776,1.76776,0,0,1-.248-3.52661Z"/><path class="b81e1295-4ad3-481e-85ef-22140c7f0057" d="M82.78572,36.68492a59.12958,59.12958,0,0,1,6.42554.61376c2.13379.321,4.23291.78785,6.259,1.24732a60.01218,60.01218,0,0,0,11.998,1.72583c4.02441.16894,8.20288.063,12.31933-.08667,4.13208-.16284,8.26978-.42065,12.40943-.72437a1.91805,1.91805,0,0,1,.29516,3.82471c-4.16772.33472-8.34521.62427-12.53735.81836-4.2063.17188-8.36548.33789-12.66724.15552A64.10232,64.10232,0,0,1,94.599,42.35362c-2.03247-.47583-4.001-.926-5.98584-1.23853-1.98266-.32178-3.98486-.50073-6.00366-.63013l-.02417-.00146a1.90205,1.90205,0,0,1,.20044-3.79858Z"/><path class="b81e1295-4ad3-481e-85ef-22140c7f0057" d="M152.11678,37.91294l2.99853-.23022a1.68688,1.68688,0,0,1,.29541,3.36059l-.00952.001-2.97925.2915-.00635.00074a1.71837,1.71837,0,0,1-.33471-3.42041Z"/><path class="b81e1295-4ad3-481e-85ef-22140c7f0057" d="M165.17366,37.16367a108.08711,108.08711,0,0,1,12.63672.55665c4.16675.37548,8.31665.80224,12.4624,1.2561l12.42529,1.3999c4.14087.46021,8.28.91431,12.437,1.21485a.07943.07943,0,0,1,.07446.084.08092.08092,0,0,1-.07739.07471c-4.176.0935-8.353-.05567-12.52222-.21851-4.16992-.17334-8.3335-.41309-12.49609-.62427-4.16089-.22827-8.31836-.47558-12.46851-.64453-2.07519-.08984-4.14624-.1438-6.2085-.19482-2.05859-.0542-4.0979.04931-6.1372.123l-.0354.00123a1.51491,1.51491,0,0,1-.10938-3.02784Z"/><path class="b81e1295-4ad3-481e-85ef-22140c7f0057" d="M381.87312,114.62827a52.59168,52.59168,0,0,0,12.14746,2.09156,121.54928,121.54928,0,0,0,12.356.30053c2.05908.01783,4.12378-.13134,6.18262-.19482l6.17969-.38965,6.17187-.564,6.1709-.63379.04858-.00488a1.76467,1.76467,0,0,1,.37989,3.50878l-6.25757.71192c-2.09351.17309-4.19263.29614-6.28784.446-2.10132.08887-4.20264.18824-6.3064.207-2.10742-.02978-4.209.02515-6.31641-.08764a92.48576,92.48576,0,0,1-12.57934-1.2898,40.66783,40.66783,0,0,1-12.0752-3.74731.19884.19884,0,0,1,.15674-.36377Z"/><path class="b81e1295-4ad3-481e-85ef-22140c7f0057" d="M451.07552,113.61582l3.02392-.093a.89364.89364,0,0,1,.1294,1.781l-.02222.00244-2.96924.32959-.0188.002a1.01424,1.01424,0,0,1-.22363-2.01612C451.02107,113.61875,451.04964,113.6168,451.07552,113.61582Z"/><path class="b81e1295-4ad3-481e-85ef-22140c7f0057" d="M464.181,113.64536c2.1001.12574,4.19507.3523,6.28028.65113,2.085.30591,4.14038.76684,6.17993,1.1831a56.06539,56.06539,0,0,0,12.239,1.4187c4.09351.02295,8.25586-.30151,12.37915-.59887q6.19776-.47937,12.39795-1.05957a1.83518,1.83518,0,1,1,.34034,3.65454l-.05787.00439c-4.17285.25586-8.3562.44629-12.54858.48364-4.19946.02393-8.37476-.02856-12.60742-.35693a56.66224,56.66224,0,0,1-6.29663-.81763c-2.07935-.39526-4.12842-.89526-6.15113-1.39526a54.11042,54.11042,0,0,0-12.21386-1.89551.63662.63662,0,1,1,.03711-1.2727Z"/></g><rect class="b9dc74f3-a9a9-4ffe-8491-90613a0134f3" x="0.3263" width="530.04255" height="298.14894"/></svg>