<svg preserveAspectRatio="none" id="ac2bc046-8430-4a3f-be0c-ed3d59b26989" data-name="Layer 1" xmlns="http://www.w3.org/2000/svg" xmlns:xlink="http://www.w3.org/1999/xlink" viewBox="0 0 530.04255 298.4232"><defs><style>.a01b5a15-43dc-4d69-a9a4-56b7ae74b927,.a575dbdc-c28c-4f83-84d9-aad68985b5d1,.ae225388-35c5-40c2-977f-6fff8b4f5919,.b22a04d5-4eef-4998-99e1-fd3464c33e14,.b38f7474-63fa-4c1e-940d-f398e17b6f51,.b83df586-5bbc-4ffe-9fae-e1a02a7743e4,.b86c6bca-29c6-411e-b535-2df06798e2d6,.b9aa0977-43b0-4473-8642-a0d05b044b7c,.bed45662-f2c9-43a7-ba93-e43eb035a2a9,.e4f85f18-a273-4d3e-8ffc-6fc158f28f12,.e95237cc-8c7c-4292-85e0-6d97ca778b71,.ff554e20-ba7c-41ed-9aa5-757eeebf6b64{fill:none;}.ee8f774c-9f78-481f-b586-994a6950a16d{clip-path:url(#b9d2c421-30d8-4c3f-a5b1-83128b754286);}.a8b49b58-a6c2-4f1e-bde9-8069cdff805d{fill:url(#a8f829f0-77ad-4821-854d-a3f1a6cfb950);}.b38f7474-63fa-4c1e-940d-f398e17b6f51,.b9aa0977-43b0-4473-8642-a0d05b044b7c{stroke:#d1d3d4;}.a575dbdc-c28c-4f83-84d9-aad68985b5d1,.ae225388-35c5-40c2-977f-6fff8b4f5919,.b38f7474-63fa-4c1e-940d-f398e17b6f51,.b86c6bca-29c6-411e-b535-2df06798e2d6,.b9aa0977-43b0-4473-8642-a0d05b044b7c,.bed45662-f2c9-43a7-ba93-e43eb035a2a9,.e95237cc-8c7c-4292-85e0-6d97ca778b71{stroke-miterlimit:10;}.b9aa0977-43b0-4473-8642-a0d05b044b7c{stroke-width:3.09385px;stroke-dasharray:30.93851 15.46926;}.a025e828-91f3-4515-bbe9-e6032432023e{fill:#ddc09b;}.aae27d63-ad1e-48a8-b829-3b0b40e52286{clip-path:url(#ab1893dc-0ff2-4127-8425-1853b95b783d);}.f970e5da-a1ad-4362-9fec-03721ace494f{fill:#c59f74;}.e0344608-404d-4da4-97b4-70d9e98e4575{fill:#fbd8b4;}.b414facc-bace-411d-93b6-5829f385dce3{clip-path:url(#bfb7a5ef-c8f8-4d63-9016-58fddb69fd8c);}.a5361af7-6360-4172-a8c9-250ea1015b50{fill:#6d6e71;}.b83df586-5bbc-4ffe-9fae-e1a02a7743e4,.ff554e20-ba7c-41ed-9aa5-757eeebf6b64{stroke:#537435;}.a01b5a15-43dc-4d69-a9a4-56b7ae74b927,.b38f7474-63fa-4c1e-940d-f398e17b6f51,.b83df586-5bbc-4ffe-9fae-e1a02a7743e4,.e4f85f18-a273-4d3e-8ffc-6fc158f28f12,.e95237cc-8c7c-4292-85e0-6d97ca778b71,.ff554e20-ba7c-41ed-9aa5-757eeebf6b64{stroke-linecap:round;}.a01b5a15-43dc-4d69-a9a4-56b7ae74b927,.b83df586-5bbc-4ffe-9fae-e1a02a7743e4,.e4f85f18-a273-4d3e-8ffc-6fc158f28f12,.ff554e20-ba7c-41ed-9aa5-757eeebf6b64{stroke-linejoin:round;}.b83df586-5bbc-4ffe-9fae-e1a02a7743e4{stroke-width:13.85344px;}.aad96ec2-2393-402b-b3de-97aea0addedf{fill:#537435;}.ff554e20-ba7c-41ed-9aa5-757eeebf6b64{stroke-width:11.26646px;}.a60f2e2d-88e8-4ad9-a702-8d4691f7e12d{fill:#678e3d;}.e4f85f18-a273-4d3e-8ffc-6fc158f28f12{stroke:#678e3d;stroke-width:3.46336px;}.ae225388-35c5-40c2-977f-6fff8b4f5919{stroke:#bcbec0;stroke-width:2px;stroke-dasharray:8.076 8.07635;}.e95237cc-8c7c-4292-85e0-6d97ca778b71{stroke:#808285;}.b38f7474-63fa-4c1e-940d-f398e17b6f51,.e95237cc-8c7c-4292-85e0-6d97ca778b71{stroke-width:11.52113px;}.bfffb49e-ddfc-4ded-9795-2e8e9b6f51eb{fill:#18a371;}.a01b5a15-43dc-4d69-a9a4-56b7ae74b927{stroke:#fff;stroke-width:2.71119px;}.a50f5f8c-20df-4659-9b30-90f9c1335e22,.a855ad78-af99-4209-8e3c-6841e3398377{fill:#fff;}.f630abc3-4a42-4caa-8a28-8726e636112d{clip-path:url(#aea116c7-fbce-442f-a88d-e6e918e9cceb);}.f7f07d05-0a8f-44b8-9a0b-57f6ed2c49f1{fill:#4c5939;}.a50f5f8c-20df-4659-9b30-90f9c1335e22{opacity:0.88;}.eeddad32-54f4-4ae4-a175-81b6cc699d72{fill:#010101;}.a575dbdc-c28c-4f83-84d9-aad68985b5d1,.b86c6bca-29c6-411e-b535-2df06798e2d6,.bed45662-f2c9-43a7-ba93-e43eb035a2a9{stroke:#010101;}.bed45662-f2c9-43a7-ba93-e43eb035a2a9{stroke-width:1.27887px;}.b86c6bca-29c6-411e-b535-2df06798e2d6{stroke-width:1.42191px;}.a575dbdc-c28c-4f83-84d9-aad68985b5d1{stroke-width:1.512px;}</style><clipPath id="b9d2c421-30d8-4c3f-a5b1-83128b754286"><rect class="b22a04d5-4eef-4998-99e1-fd3464c33e14" width="530.04255" height="298.14894"/></clipPath><linearGradient id="a8f829f0-77ad-4821-854d-a3f1a6cfb950" x1="265.02128" y1="298.14894" x2="265.02128" gradientTransform="translate(414.09574 -115.94681) rotate(90)" gradientUnits="userSpaceOnUse"><stop offset="0" stop-color="#ddcec8"/><stop offset="0.46324" stop-color="#fbd8b4"/><stop offset="0.70343" stop-color="#fff"/><stop offset="1" stop-color="#d9ecf5"/></linearGradient><clipPath id="ab1893dc-0ff2-4127-8425-1853b95b783d"><path class="b22a04d5-4eef-4998-99e1-fd3464c33e14" d="M633.98236,194.69725c0-38.49542-240.2542-77.87234-269.3617-77.87234-29.10638,0-187.40426,30.12766-271.40426,77.87234-33.46711,19.02234,121.05459,69.70212,270.383,69.70212S633.98236,233.19267,633.98236,194.69725Z"/></clipPath><clipPath id="bfb7a5ef-c8f8-4d63-9016-58fddb69fd8c"><path class="b22a04d5-4eef-4998-99e1-fd3464c33e14" d="M230.824,220.7808c0-38.49542-143.50495-77.87234-160.891-77.87234-17.38538,0-111.93743,30.12766-162.111,77.87234-19.99006,19.02235,72.30647,69.70213,161.501,69.70213S230.824,259.27623,230.824,220.7808Z"/></clipPath><clipPath id="aea116c7-fbce-442f-a88d-e6e918e9cceb"><path class="b22a04d5-4eef-4998-99e1-fd3464c33e14" d="M236.29334,206.24829c-5.34174-4.22648-11.7298-8.8746-15.8321-14.366-3.698-4.95015-5.54286-12.42755,1.6644-14.9484,5.44934-1.90582,11.34844.77186,16.40954,3.54906,6.02762,3.30756,12.46155,6.59535,17.51426,11.20658a161.67821,161.67821,0,0,1,15.09495,15.09386c4.52983,5.36753,12.36928,10.94311,12.20968,18.69766-.14146,6.87333-3.896,13.146-8.66043,19.27794-4.12552,5.30963-9.72332,8.86914-13.91033,14.07179-4.66022,5.79064-10.25444,7.70211-15.59919,12.36771-2.18618,1.90839-3.333,4.82491-5.313,6.78432,2.072-2.262-10.98206-16.36529-12.75052-17.89265,4.49411-2.55,8.41525-2.90327,12.30169-6.87878,6.07153-6.21069,11.324-13.53286,16.90035-20.19666,2.86214-3.4203,4.61465-3.654,2.45714-7.53156-1.15717-2.07972-5.45316-4.32857-7.318-5.94483C246.381,215.135,241.57088,210.424,236.29334,206.24829Z"/></clipPath></defs><title>Artboard 382</title><g class="ee8f774c-9f78-481f-b586-994a6950a16d"><rect class="a8b49b58-a6c2-4f1e-bde9-8069cdff805d" x="115.94681" y="-115.94681" width="298.14894" height="530.04255" transform="translate(115.94681 414.09574) rotate(-90)"/><line class="b9aa0977-43b0-4473-8642-a0d05b044b7c" x1="-19.12402" y1="282.53346" x2="530.04255" y2="282.53346"/><path class="a025e828-91f3-4515-bbe9-e6032432023e" d="M632.83342,194.69725c0-38.49542-240.25419-77.87234-269.3617-77.87234-29.10638,0-187.40425,30.12766-271.40425,77.87234-33.46712,19.02234,121.05458,69.70212,270.383,69.70212S632.83342,233.19267,632.83342,194.69725Z"/><g class="aae27d63-ad1e-48a8-b829-3b0b40e52286"><ellipse class="f970e5da-a1ad-4362-9fec-03721ace494f" cx="477.72704" cy="156.54754" rx="76.85106" ry="55.9354"/><path class="e0344608-404d-4da4-97b4-70d9e98e4575" d="M386.83342,150.71852c-5.3617-28.7234-23.74027-43.18939-177.95218-2.73291-40.12158,10.52563,115.47051-46.32645,156.24636-47.86884C399.28023,98.82491,389.09719,162.84584,386.83342,150.71852Z"/><path class="f970e5da-a1ad-4362-9fec-03721ace494f" d="M439.93962,146.55389c0-18.4635-18.99268-33.43115-42.4209-33.43115A51.40171,51.40171,0,0,0,377.466,117.1059,20.55718,20.55718,0,0,1,387.66325,134.856c.00035,9.16322-5.87891,16.06871-14.26916,19.098-5.02079,1.81274-10.573,1.41649-15.81885,2.2269-9.1437,1.41257-18.16962,3.75709-25.94392,8.91472C319.11375,173.3999,310.11005,186.9748,310.11,202.3114c0,26.20258,25.377,47.444,56.68066,47.444,31.3042,0,56.68116-21.24139,56.68116-47.444a41.75785,41.75785,0,0,0-8.68018-25.22046C429.61,171.878,439.93962,160.16864,439.93962,146.55389Z"/><rect class="f970e5da-a1ad-4362-9fec-03721ace494f" x="399.3132" y="123.06922" width="230.55319" height="153.95745"/></g><path class="a025e828-91f3-4515-bbe9-e6032432023e" d="M230.13772,220.7808c0-38.49542-143.50494-77.87234-160.891-77.87234-17.38537,0-111.93742,30.12766-162.111,77.87234-19.99006,19.02235,72.30646,69.70213,161.501,69.70213S230.13772,259.27623,230.13772,220.7808Z"/><g class="b414facc-bace-411d-93b6-5829f385dce3"><path class="f970e5da-a1ad-4362-9fec-03721ace494f" d="M-2.52828,153.59086s68.65779-35.98307,88.46809-12.383c14.68085,17.48936-43.8975,51.87807-91.02128,62.93617l-48.6893-22.97873Z"/><path class="e0344608-404d-4da4-97b4-70d9e98e4575" d="M70.11,140.56959c-2.29787-.383,24.12766,1.91489,9.57447,21.06383s30.6383,26.42553,52.85106,18,56.29787,21.06383,56.29787,21.06383,26.33638,14.17988,43.02128,15.68728c26.79843,2.42109,48.83574-7.4087,48.12766-7.64473-1.14894-.383-49.15837-60.51064-49.15837-60.51064Z"/></g><ellipse class="e0344608-404d-4da4-97b4-70d9e98e4575" cx="279.8547" cy="264.02986" rx="308.93617" ry="52.47512"/><rect class="a5361af7-6360-4172-a8c9-250ea1015b50" x="-11.84743" y="267.21432" width="541.88998" height="30.93462"/><path class="b83df586-5bbc-4ffe-9fae-e1a02a7743e4" d="M182.03089,192.83149h7.30677a13.385,13.385,0,0,0,13.385-13.385v-20.7564"/><path class="aad96ec2-2393-402b-b3de-97aea0addedf" d="M180.7045,130.36346h0c4.2312,0,7.6914,3.86077,7.80022,8.7032L190.40235,223.51c.05445,2.42334-.05939,7.69846-.05939,7.69846-1.424,1.76574-14.1482,2.82964-19.43564-.19613,0,0,.04677-5.16239.09935-7.50233l1.89761-84.44335C173.0131,134.22423,176.4733,130.36346,180.7045,130.36346Z"/><path class="ff554e20-ba7c-41ed-9aa5-757eeebf6b64" d="M178.92313,178.81205h-5.94231a10.88547,10.88547,0,0,1-10.88547-10.88547V151.04621"/><path class="a60f2e2d-88e8-4ad9-a702-8d4691f7e12d" d="M186.382,138.90237l-2.64087,4.09619-.06592-2.88183,2.89783,3.9209a2.54665,2.54665,0,0,1,.09607,2.88818l-.02893.04346-2.64075,4.09716-.06836-2.98193,2.8977,3.92041a2.63409,2.63409,0,0,1,.09961,2.98731l-.0299.04492-2.64075,4.09765-.07068-3.082,2.89783,3.92139a2.72141,2.72141,0,0,1,.10278,3.08594l-.03088.04638-2.64075,4.09766-.07312-3.18262,2.89771,3.92041a2.80829,2.80829,0,0,1,.10546,3.186l-.03186.04834-2.641,4.09326-.07458-3.28418,2.89782,3.92041a2.89546,2.89546,0,0,1,.10914,3.28418l-.033.0498-2.64075,4.09571-.077-3.3833,2.89783,3.92187a2.98263,2.98263,0,0,1,.1123,3.38233l-.03381.05126-2.64075,4.09668-.07971-3.48339,2.89783,3.92138a3.07051,3.07051,0,0,1,.11645,3.48047l-.03491.05274-2.64062,4.10058-.0824-3.582,2.898,3.92285a3.15745,3.15745,0,0,1,.11938,3.57862l-.03588.05419-2.64063,4.10108-.085-3.68311,2.89795,3.92237a3.24448,3.24448,0,0,1,.1228,3.67773l-.03686.05567-2.64063,4.10009-.08679-3.78271,2.89795,3.92383a3.33145,3.33145,0,0,1,.12732,3.77343l-.03784.05713-2.64039,4.10791-.08923-3.8789,2.89819,3.93017a3.46359,3.46359,0,0,1-5.57519,4.11133l-.03674-.05078L180.697,223.833l-.03589-.05079a3.38425,3.38425,0,0,1-.05334-3.82861l2.71435-4.05908.0896,3.83057-2.82641-3.97559-.03492-.04932a3.29667,3.29667,0,0,1-.05188-3.73388l2.7146-4.05176.08594,3.7334-2.82629-3.97412-.03406-.04786a3.20925,3.20925,0,0,1-.0509-3.63525l2.71447-4.05225.0835,3.63233-2.82629-3.9751-.03309-.04687a3.12132,3.12132,0,0,1-.04931-3.53565l2.71448-4.05224.08166,3.53222-2.82629-3.97314-.03223-.04541a3.03428,3.03428,0,0,1-.04748-3.43848l2.71447-4.04834.07849,3.43311-2.82629-3.97364-.03125-.04394a2.94708,2.94708,0,0,1-.04578-3.33985l2.71448-4.04736.0763,3.3335-2.8263-3.97217-.03039-.04248a2.85956,2.85956,0,0,1-.04432-3.2417l2.7146-4.04492.07361,3.23388-2.82629-3.97168-.02942-.0415a2.77215,2.77215,0,0,1-.04382-3.1416l2.7146-4.04932.07177,3.13233-2.82629-3.97315-.02844-.04a2.68419,2.68419,0,0,1-.04224-3.042l2.7146-4.04932.06958,3.03174-2.82629-3.97217-.02759-.03857a2.597,2.597,0,0,1-.04077-2.94336l2.71447-4.04883.06727,2.93164-2.8263-3.97216-.02661-.0376a2.51,2.51,0,0,1-.03931-2.84473l2.7146-4.04785a2.49177,2.49177,0,0,1,4.16358,2.73828Z"/><path class="a60f2e2d-88e8-4ad9-a702-8d4691f7e12d" d="M208.3358,159.20462q-.78735,1.55053-1.52978,3.1206l-.0105-1.51416,1.31116,3.21485.03.07324a1.74193,1.74193,0,0,1-.02039,1.35791l-1.40515,3.16992-.0094-1.39453,1.40906,3.17139a1.75465,1.75465,0,0,1,.00976,1.3955q-.68517,1.59448-1.329,3.20655l-.00976-1.42481,1.467,3.147a1.76134,1.76134,0,0,1,.04834,1.37891l-.0376.09717-1.25586,3.24365-.00525-1.55469,1.52442,3.18457a1.98439,1.98439,0,0,1-.37012,2.24317l-.13391.13574-2.40063,2.44678.71215-1.35645c-.092,1.09131-.20446,2.17969-.27429,3.27442a2.1204,2.1204,0,0,1-1.13037,1.74316l-.3147.16455-2.91,1.52246,1.33862-1.29492c-.41272,1.01514-.79565,2.04443-1.186,3.07031a2.49345,2.49345,0,0,1-1.8971,1.56934l-.5072.08838c-1.08093.189-2.16406.354-3.24341.563l1.99658-.918-2.10095,2.54052a2.87958,2.87958,0,0,1-2.60705,1.01954l-.79651-.10987c-1.092-.1499-2.17981-.3164-3.27552-.45263l2.772-.29q-1.37568.91919-2.72754,1.88525a4.47075,4.47075,0,1,1-5.18018-7.28809,4.59835,4.59835,0,0,1,1.2218-.6123c1.05433-.33887,2.1034-.688,3.14331-1.05566l.94507-.33448a2.5691,2.5691,0,0,1,1.82727.044c1.0221.418,2.05213.80566,3.07764,1.20947l-3.4032.90967,2.57044-2.06445.52136-.41846a2.2684,2.2684,0,0,1,1.47546-.49951c1.09912.02636,2.19458.0083,3.292.01465l-2.40405,1.65771c.55554-.94629,1.11841-1.88965,1.65161-2.84668l.16663-.29932a2.19265,2.19265,0,0,1,1.17224-.9956l3.0896-1.11377-1.4447,1.90723c.23474-1.07129.427-2.14844.6394-3.22266l.04737-.23975a1.938,1.938,0,0,1,.665-1.11718l2.63916-2.1875-.504,2.37841L203.38988,181.46l-.05054-.1294a1.82,1.82,0,0,1,.04529-1.42578L204.855,176.753l.01062,1.47558-1.34753-3.1997-.02967-.0708a1.69537,1.69537,0,0,1,.01978-1.3545q.72033-1.57909,1.39746-3.17724l.00964,1.3955-1.40552-3.17333a1.74242,1.74242,0,0,1-.02014-1.36866l.01075-.02588,1.321-3.20605.00964,1.43115-1.50341-3.12988a1.7564,1.7564,0,0,1-.05872-1.38867l.04822-.12549q.62256-1.62086,1.19665-3.2627a2.08255,2.08255,0,1,1,3.93006,1.3794A2.3123,2.3123,0,0,1,208.3358,159.20462Z"/><polyline class="e4f85f18-a273-4d3e-8ffc-6fc158f28f12" points="165.923 148.889 164.518 151.254 165.883 153.642 164.478 156.003 165.844 158.389 164.439 160.755 165.805 163.145 164.4 165.512 165.765 167.906 164.361 170.305 166.086 171.132 165.388 172.82 167.2 173.03 166.995 174.846 168.78 174.478 169.227 176.245 170.749 175.236 171.813 176.717 172.916 175.256"/><path class="a025e828-91f3-4515-bbe9-e6032432023e" d="M294.26143,227.51479c1.17065.16763,2.49738.561,2.95627,1.65095a.77941.77941,0,0,0,.75829,1.36066c-.12624.52806.4433.98082.97945,1.06641a14.23523,14.23523,0,0,1,1.62055.112c.52276.14665.98564.762.688,1.21609l1.83962-2.5106c.12681-.17307.284-.363.49846-.36927.24994-.00734.42635.23431.647.35194a1.40686,1.40686,0,0,0,.94892.02186c1.7414-.36912,3.51262-.68109,5.22667-1.1447-2.73255-.94-5.84149-2.60106-8.67582-3.11961-3.44082-.62952-6.99135.76495-10.61153.23572A5.1955,5.1955,0,0,0,294.26143,227.51479Z"/><path class="f970e5da-a1ad-4362-9fec-03721ace494f" d="M178.2235,233.27612a.81234.81234,0,0,1-.83618-.48275,6.4027,6.4027,0,0,1-.31456-.98957,7.62259,7.62259,0,0,0-1.17847-1.85137,2.514,2.514,0,0,1-.5623-2.05448c-.97252.03426-2.05352.712-2.82487.1187a1.67568,1.67568,0,0,1-.36653-1.80354,6.17841,6.17841,0,0,0,.53728-1.686,6.83239,6.83239,0,0,1-1.1218.47829c-.562.06975-1.03415-.48074-1.52393-.37982a.81145.81145,0,0,0-.39294.27322l-.91232.95611a.52867.52867,0,0,1-.22574.1644c-.31225.08619-.46595-.38823-.3788-.70021s.23839-.6943.00536-.9193c-.27168-.26232-.7052.01109-.99746.25027s-.8234.39575-.96836.047l-1.28.03519a.36091.36091,0,0,0-.23242.06086.38489.38489,0,0,0-.09231.2577A3.04162,3.04162,0,0,1,163.058,227.314a.61943.61943,0,0,1-.65094.06264.64543.64543,0,0,1-.19024-.297c-.21568-.5465-.19576-1.92042-.52376-2.31271-.35-.41865-1.57734-.58546-2.11516-.82762a5.565,5.565,0,0,0-.64378,3.40036c.0126,1.20059-.95261,2.6996-.88163,3.71524a3.62462,3.62462,0,0,0-2.08146-2.98764,7.38443,7.38443,0,0,0,.69665,3.22621,3.09275,3.09275,0,0,1-1.09966-1.66511,4.81174,4.81174,0,0,0-.36408,2.98167,1.53079,1.53079,0,0,1,.0523.60549.43376.43376,0,0,1-.41737.37148,2.4388,2.4388,0,0,1-1.484,1.71935c.0295.44657.71188.35569,1.11381.15886,1.06686-.52245,2.50272-.71377,3.32245.146a23.93187,23.93187,0,0,1,2.72444-2.24934l-.46657.26054c3.35854,1.77976,7.13754,3.38187,10.85818,2.60455a2.18948,2.18948,0,0,0-.82138-2.73114,3.37064,3.37064,0,0,0,4.18025.67935l-.27776-.47251c.10538-.61491.98913-.68607,1.55839-.43082A5.94261,5.94261,0,0,0,178.2235,233.27612Z"/><path class="a025e828-91f3-4515-bbe9-e6032432023e" d="M165.19143,236.37236a12.68061,12.68061,0,0,0,1.12667-7.37434,10.42321,10.42321,0,0,0,.76841,2.28163,1.58636,1.58636,0,0,0,.60364.7669c.70641.38372,1.49044-.33212,1.976-.97283l.08762,2.64626a7.23367,7.23367,0,0,0,4.36348-1.20535,8.0508,8.0508,0,0,1-5.66137,5.17688.73061.73061,0,0,0-.08264-1.123,1.1419,1.1419,0,0,0-.55419-.14017,10.20541,10.20541,0,0,0-2.62818.49889,2.85285,2.85285,0,0,1-2.54864-.40815c-1.12494-1.03232-.49971-3.06107-1.45245-4.25416a3.01487,3.01487,0,0,0-2.306-.93572c-.85614-.02658-1.71475.11831-2.5674.03664.15126.607.9635.85859,1.12777,1.46219.19335.71049-.653,1.29082-1.38824,1.33033a8.24371,8.24371,0,0,0-2.19548.03873,6.44623,6.44623,0,0,0,3.33267,1.34286,2.95732,2.95732,0,0,1,1.4343.33435c.408.28379.55055.99238.12457,1.24844"/><path class="f970e5da-a1ad-4362-9fec-03721ace494f" d="M195.00978,230.458l2.92007-.91029a.75484.75484,0,0,0,.61762.75894,1.97088,1.97088,0,0,0,1.05183-.12845,12.47234,12.47234,0,0,0,2.90731-1.39853c.33945.89248,1.618.80137,2.5377.54488l3.7804-1.05423a3.77335,3.77335,0,0,0-.99879,3.59005,13.47785,13.47785,0,0,0-7.12646,1.00936,2.75734,2.75734,0,0,0-1.50194,1.20934c-.57056,1.23279.62875,2.517,1.70234,3.34927a9.75024,9.75024,0,0,1-2.42932,1.28429,1.6626,1.6626,0,0,1-.9876.12226c-.81774-.22595-.87605-1.45022-.36211-2.12521a12.9859,12.9859,0,0,1,1.97956-1.58448c-.76627-1.17072-2.4423-1.21739-3.83312-1.06324-1.76317.19541-3.53047,4.77778-5.20749,2.17426-1.17056-1.81724,1.48622-5.50308,2.68023-6.5896C192.98773,230.83025,194.06109,230.75371,195.00978,230.458Z"/><path class="a025e828-91f3-4515-bbe9-e6032432023e" d="M196.78634,236.08316c.223.0689.3185-.26581.35049-.497a2.82211,2.82211,0,0,1,1.50063-1.76917,31.188,31.188,0,0,1,3.85429-2.09209,8.52328,8.52328,0,0,0-4.12742,1.689c-.41757.32053-.84231.78023-.74741,1.298.05239.28582.2593.52784.29729.81593.07424.5629-.55992,1.01173-1.12631.97214a2.91221,2.91221,0,0,1-1.4997-.75068.52755.52755,0,0,1-.1792.78709.797.797,0,0,1-.86587-.16308,1.71105,1.71105,0,0,1-.44863-.80907,4.222,4.222,0,0,1,.05983-2.54709,4.95093,4.95093,0,0,1-1.60293,5.17.28284.28284,0,0,1,.25664-.32917,9.19426,9.19426,0,0,0-.52768-3.99244,5.53512,5.53512,0,0,0,1.64713,1.31556.48559.48559,0,0,0,.41346.06921c.15221-.07027.1925-.264.2137-.43029l.15862-1.24428,1.0848,1.07353a.26826.26826,0,0,0,.47643-.026l2.32673-2.6964c-.41248,1.78744-2.51266,3.04728-2.32692,4.87227,1.70181-1.9085,3.5012-3.8855,5.89584-4.7823a11.2402,11.2402,0,0,0-.35272,1.46453.87045.87045,0,0,0,.01215.47942.90761.90761,0,0,0,.41209.38381l1.56875.93533a10.55488,10.55488,0,0,0-2.45815-.18253.91189.91189,0,0,0-.62119.19177.79028.79028,0,0,0-.0709.8349,2.8,2.8,0,0,1,.28588.83485l-1.98035.20226a.8421.8421,0,0,0-.61314.24035c-.13669.18024-.00393.5262.21575.47224"/><path class="a025e828-91f3-4515-bbe9-e6032432023e" d="M217.871,253.27242a16.82912,16.82912,0,0,1,2.60324-5.72653,1.7669,1.7669,0,0,0,.82477,2.31871,1.54411,1.54411,0,0,0,2.06016-1.17c0,2.63344,1.97842,5.2084,1.14814,7.70752a9.84934,9.84934,0,0,0,4.18024-2.61834,9.59832,9.59832,0,0,0,.51005,1.87778"/><path class="a025e828-91f3-4515-bbe9-e6032432023e" d="M95.29963,232.65123a5.3899,5.3899,0,0,1-3.84308-3.01979c.79576-.65735,1.97-.51637,2.93768-.87554s1.55459-1.95933.57767-2.29245a6.62245,6.62245,0,0,0,3.76166,1.26636,2.8581,2.8581,0,0,0,2.22909,3.83165"/><path class="a025e828-91f3-4515-bbe9-e6032432023e" d="M421.90894,247.92028l3.77317-9.49006a8.01019,8.01019,0,0,0-1.14787,6.43935,1.79942,1.79942,0,0,1,1.13226-.46667l2.4046,7.08219"/><line class="ae225388-35c5-40c2-977f-6fff8b4f5919" x1="530.04255" y1="283.85046" y2="282.85046"/><line class="e95237cc-8c7c-4292-85e0-6d97ca778b71" x1="-1.78024" y1="198.20011" x2="-0.90831" y2="295.91134"/><line class="b38f7474-63fa-4c1e-940d-f398e17b6f51" x1="-4.66052" y1="198.20011" x2="-3.7886" y2="295.91134"/><line class="e95237cc-8c7c-4292-85e0-6d97ca778b71" x1="180.58955" y1="196.57274" x2="181.46147" y2="294.28397"/><line class="b38f7474-63fa-4c1e-940d-f398e17b6f51" x1="177.70926" y1="196.57274" x2="178.58119" y2="294.28397"/><rect class="bfffb49e-ddfc-4ded-9795-2e8e9b6f51eb" x="-34.0097" y="48.18048" width="243.41452" height="149.28443" rx="4.2285" transform="translate(-1.09247 0.78742) rotate(-0.51126)"/><rect class="a01b5a15-43dc-4d69-a9a4-56b7ae74b927" x="-28.12657" y="53.32822" width="231.64826" height="138.98896" rx="7.72161" transform="translate(-1.09247 0.78742) rotate(-0.51126)"/><path class="a855ad78-af99-4209-8e3c-6841e3398377" d="M-3.66566,92.08743l-.60059-5.38672,6.63575-.05957.60058,5.38672.269,30.13867-6.63574.05957Z"/><path class="a855ad78-af99-4209-8e3c-6841e3398377" d="M8.26891,91.981l-.60059-5.38671,6.63575-.05957.60058,5.38671.18653,20.92188-6.63575.05957Z"/><path class="a855ad78-af99-4209-8e3c-6841e3398377" d="M30.78356,94.73q-.03-3.36328-3.11768-3.33692L18.68,91.47317l-.04443-4.97754,10.7832-.0957A7.97982,7.97982,0,0,1,35.267,88.44485q2.16137,2.07861,2.20117,6.54785l.15723,17.64942-6.68165.05957Z"/><path class="a855ad78-af99-4209-8e3c-6841e3398377" d="M64.038,108.0513q-5.5327,4.86621-17.23779,4.96972l-1.42871.0127L41.67614,86.29055l6.31347-.05664,1.438,11.3711A4.78207,4.78207,0,0,0,51.891,94.8179a17.15843,17.15843,0,0,0,.5498-5.53516l-.02685-3.042,6.31348-.05664.02587,2.90332a16.1476,16.1476,0,0,1-1.95458,8.24512q-1.90723,3.17284-6.77735,4.875l.69238,5.29394q6.58668-.47315,9.36719-3.88574,2.77955-3.41161,2.68067-9.44727L62.59752,86.104l6.68262-.05957.11426,7.69531Q69.57018,103.18656,64.038,108.0513Z"/><path class="a855ad78-af99-4209-8e3c-6841e3398377" d="M82.62731,99.65872l.894-3.09473,5.76026-.05176.13964,15.668-6.68164.05957ZM97.97057,94.1304q-.03-3.36328-3.11719-3.33594L82.826,90.90188l-.04443-4.97754,13.8247-.124a7.97939,7.97939,0,0,1,5.84766,2.04492q2.1621,2.07861,2.20166,6.54785l.15723,17.64942-6.68165.05957Z"/><path class="a855ad78-af99-4209-8e3c-6841e3398377" d="M108.68639,107.03079l6.72754-.06055-.11914-13.31738a3.49787,3.49787,0,0,0-.64307-2.34375,3.066,3.066,0,0,0-1.91992-.85938l-3.22949-.43164.78564-4.89257,5.7666.68652a6.07742,6.07742,0,0,1,4.33057,2.35742,8.6266,8.6266,0,0,1,1.54395,5.24121l.165,18.47852-13.36329.11914Z"/><path class="a855ad78-af99-4209-8e3c-6841e3398377" d="M147.20153,87.56106q2.1621,2.19288,2.20215,6.66407l.15527,17.41894-6.68164.05957-.1582-17.74121q-.0315-3.59472-3.11915-3.56738l-6.17529.05468.18994,21.33594-6.63574.05957-.20752-23.31738-.02685-2.99609,14.60791-.12989A7.73576,7.73576,0,0,1,147.20153,87.56106Z"/><path class="a855ad78-af99-4209-8e3c-6841e3398377" d="M176.69713,108.33743a10.16377,10.16377,0,0,1-8.33154,3.7373,18.23139,18.23139,0,0,1-4.24463-.51464l.55469-4.98243a13.90714,13.90714,0,0,0,2.86084.34278,4.8904,4.8904,0,0,0,4.45117-2.13672,11.65024,11.65024,0,0,0,1.28125-6.21q-.041-4.56153-1.32666-6.60059a4.26083,4.26083,0,0,0-3.91211-2.0166,4.56132,4.56132,0,0,0-3.10059,1.13477,4.91841,4.91841,0,0,0-1.56347,3.00879l-2.70166,17.44433-6.63574.05957,3.02148-17.76953L153.287,85.29544l6.91211-.0625,1.89062,5.23828a8.39862,8.39862,0,0,1,2.86524-4.28906,7.33726,7.33726,0,0,1,4.41113-1.44532,8.86814,8.86814,0,0,1,7.5415,3.32032q2.61108,3.36327,2.67237,10.18359Q179.63707,104.64652,176.69713,108.33743Z"/><polygon class="a855ad78-af99-4209-8e3c-6841e3398377" points="143.76 144.285 72.148 144.24 72.157 129.506 32.171 152.572 72.128 175.684 72.137 160.95 143.75 160.994 143.76 144.285"/><g class="f630abc3-4a42-4caa-8a28-8726e636112d"><path class="f7f07d05-0a8f-44b8-9a0b-57f6ed2c49f1" d="M155.61282,215.31408a8.5054,8.5054,0,0,1,.44264-3.40557c1.0667-3.9239,2.25521-8.04781,5.18162-10.87125,3.81109-3.67694,9.35953-3.95275,14.12714-5.43375,4.73031-1.46942,11.24855-2.57257,15.91718-.40172a16.06923,16.06923,0,0,1,4.94235,3.68816,15.216,15.216,0,0,1,4.24957,9.54485c.11325,4.38581-3.33469,5.82242-6.79425,7.68181a50.54131,50.54131,0,0,1-11.20709,4.38261C176.1415,222.14415,157.13332,225.85434,155.61282,215.31408Z"/></g><rect class="a50f5f8c-20df-4659-9b30-90f9c1335e22" x="284.95085" y="14.96012" width="230.55175" height="120.81032" rx="17.57284"/></g><path class="eeddad32-54f4-4ae4-a175-81b6cc699d72" d="M486.47561,232.53408a5.0706,5.0706,0,1,0,5.691,5.05153,3.11333,3.11333,0,0,0-.06394-.76732A23.458,23.458,0,0,1,486.47561,232.53408Z"/><path class="bed45662-f2c9-43a7-ba93-e43eb035a2a9" d="M484.74914,230.61578a7.35692,7.35692,0,1,0,9.71939,7.16166C488.77757,235.92308,484.74914,230.61578,484.74914,230.61578Z"/><path class="eeddad32-54f4-4ae4-a175-81b6cc699d72" d="M509.87889,232.53408a5.04063,5.04063,0,1,1-5.691,4.98759,3.11282,3.11282,0,0,1,.06395-.76732A23.01942,23.01942,0,0,0,509.87889,232.53408Z"/><path class="bed45662-f2c9-43a7-ba93-e43eb035a2a9" d="M511.60536,230.61578a7.35692,7.35692,0,1,1-9.7194,7.16166C507.57692,235.92308,511.60536,230.61578,511.60536,230.61578Z"/><path class="bed45662-f2c9-43a7-ba93-e43eb035a2a9" d="M484.74914,230.61578s5.81885,7.73715,13.42811,7.73715c6.45828,0,10.23094-4.60392,19.247-13.87571"/><path class="bed45662-f2c9-43a7-ba93-e43eb035a2a9" d="M498.04936,233.49324a3.56508,3.56508,0,0,0-3.58083,3.70871,1.67153,1.67153,0,0,0,.19183.51155,9.36512,9.36512,0,0,0,3.58083.57549,13.20647,13.20647,0,0,0,3.64477-.51155,1.77014,1.77014,0,0,0,.06395-.57549A3.88017,3.88017,0,0,0,498.04936,233.49324Z"/><path class="bed45662-f2c9-43a7-ba93-e43eb035a2a9" d="M490.95165,232.53408s6.65011-6.714,14.4512,0"/><path class="b86c6bca-29c6-411e-b535-2df06798e2d6" d="M488.39391,229.78452s9.20785-8.95207,19.56667,0"/><path class="a575dbdc-c28c-4f83-84d9-aad68985b5d1" d="M485.77224,227.35467s12.02135-11.44586,24.55425,0"/><polygon class="eeddad32-54f4-4ae4-a175-81b6cc699d72" points="496.259 241.742 500.223 241.742 498.177 244.939 496.259 241.742"/><path class="eeddad32-54f4-4ae4-a175-81b6cc699d72" d="M516.01745,223.96567l2.49379-.76732-.51155,2.55774C517.99969,225.82,517.4242,224.1575,516.01745,223.96567Z"/><path class="eeddad32-54f4-4ae4-a175-81b6cc699d72" d="M481.80775,257.02439a.94821.94821,0,0,1,.06394.44761v2.3659h-.4476V257.472q0-.76733-.95915-.76732h-1.087V256.321c.38366,0,.76732-.06394,1.151-.06394a2.838,2.838,0,0,1,.83126.12788A.98021.98021,0,0,1,481.80775,257.02439Zm-1.98225,2.81351h-.4476v-2.17407h.4476Z"/><path class="eeddad32-54f4-4ae4-a175-81b6cc699d72" d="M483.34239,256.385c.12788,0,.25577-.06394.4476-.06394a.69237.69237,0,0,1,.38366.06394c.12789.06394.25577.06394.31972.12789s.19183.12789.25577.19183.12789.19183.19183.25577.064.19183.12789.25578a1.408,1.408,0,0,1,.06394.51154v.89521a2.76933,2.76933,0,0,1-.06394.31972,1.08039,1.08039,0,0,1-.12789.31971.49928.49928,0,0,1-.25577.25578,1.39784,1.39784,0,0,1-.31972.19183,1.08823,1.08823,0,0,1-.4476.06394h-.44761c-.12788,0-.19183-.06394-.25577-.06394h-.06394v-.38366a3.20964,3.20964,0,0,0,.76732.12789.57638.57638,0,0,0,.31971-.06395c.06395,0,.19184-.06394.19184-.12788.06394-.064.12788-.12789.12788-.19183.064-.06394.064-.12789.12789-.19183a.23491.23491,0,0,0,.06394-.19183,2.769,2.769,0,0,1,.06395-.31972v-.51154a1.5875,1.5875,0,0,0-.06395-.5755c0-.06394-.06394-.12788-.12788-.19183s-.064-.12788-.12789-.19183-.12789-.06394-.25577-.12788a1.40784,1.40784,0,0,0-.51155-.06395.811.811,0,0,0-.38366.06394c-.12789,0-.19183.06394-.25578.06394l-.06394.06394v-.38365a.06263.06263,0,0,0,.06394-.064A.66145.66145,0,0,1,483.34239,256.385Z"/><path class="eeddad32-54f4-4ae4-a175-81b6cc699d72" d="M485.96407,256.385h.63943a1.24663,1.24663,0,0,1,.51155.06394.90894.90894,0,0,1,.38366.12789.88292.88292,0,0,1,.25577.19183.96162.96162,0,0,1,.25577.70338v2.3659h-.4476V257.472c0-.44761-.31972-.70338-.95915-.70338h-.63943Z"/><path class="eeddad32-54f4-4ae4-a175-81b6cc699d72" d="M491.59108,256.385v.31972a.75219.75219,0,0,0-.57549.76732v2.3659h-.4476V257.472a.57649.57649,0,0,1,.06394-.31972c0-.06394.06394-.12789.06394-.19183q.09592-.19183.19183-.19183h-1.79041v-.31971h2.49379Z"/><path class="eeddad32-54f4-4ae4-a175-81b6cc699d72" d="M495.108,257.02439a.94821.94821,0,0,1,.06394.44761v2.3659h-.4476V257.472c0-.44761-.31972-.70338-.95915-.70338h-1.087V256.385c.38366,0,.76732-.06394,1.151-.06394a2.83762,2.83762,0,0,1,.83126.12789A.847.847,0,0,1,495.108,257.02439Zm-1.98225,2.81351h-.4476v-2.17407h.4476Z"/><path class="eeddad32-54f4-4ae4-a175-81b6cc699d72" d="M499.00851,257.02439a.94821.94821,0,0,1,.06394.44761v2.3659h-.4476V257.472c0-.44761-.31972-.70338-.95915-.70338h-1.087V256.385c.38366,0,.76732-.06394,1.151-.06394a2.83769,2.83769,0,0,1,.83127.12789C498.75274,256.51285,498.88063,256.76862,499.00851,257.02439Zm-2.04619,2.81351h-.4476v-2.17407h.4476Z"/><path class="eeddad32-54f4-4ae4-a175-81b6cc699d72" d="M503.74032,259.8379a.38445.38445,0,0,1-.25577-.06394v-.38366h.19183c.25577,0,.38366-.12789.38366-.4476v-2.238l-.38366.06394V256.385a9.46411,9.46411,0,0,1,1.27887-.06394,2.38473,2.38473,0,0,1,.76732.12789.716.716,0,0,1,.4476.51154.94821.94821,0,0,1,.06394.44761v2.3659h-.4476v-2.3659c0-.44761-.31972-.70338-.95915-.70338h-.44761v2.238a.95462.95462,0,0,1-.19183.63943C504.25187,259.774,503.99609,259.8379,503.74032,259.8379Z"/><path class="eeddad32-54f4-4ae4-a175-81b6cc699d72" d="M507.70481,258.68692v-2.238h.4476v1.79042l-.31971.4476Z"/><path class="eeddad32-54f4-4ae4-a175-81b6cc699d72" d="M509.43128,258.68692v-2.238h.44761v1.79042l-.31972.4476Z"/><path class="eeddad32-54f4-4ae4-a175-81b6cc699d72" d="M510.902,256.385h.63943a1.24663,1.24663,0,0,1,.51155.06394.90889.90889,0,0,1,.38366.12789.88292.88292,0,0,1,.25577.19183.96163.96163,0,0,1,.25578.70338v2.3659h-.44761V257.472c0-.44761-.31971-.70338-.95915-.70338H510.902Z"/><path class="eeddad32-54f4-4ae4-a175-81b6cc699d72" d="M516.08139,259.71v.06394h-.4476V259.71a1.5892,1.5892,0,0,1,.06394-.51155,2.6068,2.6068,0,0,0,.12789-.4476c.06394-.19183.12789-.44761.19183-.70338l.38366-1.27887H514.291v-.31971h2.49379v.25577l-.38366,1.34281c-.06394.19183-.06394.31971-.12789.38366,0,.12788-.06394.19183-.06394.31971s-.06394.19183-.06394.25578-.06395.19183-.06395.25577Zm-1.27886,1.40675h-.44761v-3.325h.44761Z"/><path class="eeddad32-54f4-4ae4-a175-81b6cc699d72" d="M481.80775,257.02439a.94821.94821,0,0,1,.06394.44761v2.3659h-.4476V257.472q0-.76733-.95915-.76732h-1.087V256.321c.38366,0,.76732-.06394,1.151-.06394a2.838,2.838,0,0,1,.83126.12788A.98021.98021,0,0,1,481.80775,257.02439Zm-1.98225,2.81351h-.4476v-2.17407h.4476Z"/><path class="eeddad32-54f4-4ae4-a175-81b6cc699d72" d="M483.34239,256.385c.12788,0,.25577-.06394.4476-.06394a.69237.69237,0,0,1,.38366.06394c.12789.06394.25577.06394.31972.12789s.19183.12789.25577.19183.12789.19183.19183.25577.064.19183.12789.25578a1.408,1.408,0,0,1,.06394.51154v.89521a2.76933,2.76933,0,0,1-.06394.31972,1.08039,1.08039,0,0,1-.12789.31971.49928.49928,0,0,1-.25577.25578,1.39784,1.39784,0,0,1-.31972.19183,1.08823,1.08823,0,0,1-.4476.06394h-.44761c-.12788,0-.19183-.06394-.25577-.06394h-.06394v-.38366a3.20964,3.20964,0,0,0,.76732.12789.57638.57638,0,0,0,.31971-.06395c.06395,0,.19184-.06394.19184-.12788.06394-.064.12788-.12789.12788-.19183.064-.06394.064-.12789.12789-.19183a.23491.23491,0,0,0,.06394-.19183,2.769,2.769,0,0,1,.06395-.31972v-.51154a1.5875,1.5875,0,0,0-.06395-.5755c0-.06394-.06394-.12788-.12788-.19183s-.064-.12788-.12789-.19183-.12789-.06394-.25577-.12788a1.40784,1.40784,0,0,0-.51155-.06395.811.811,0,0,0-.38366.06394c-.12789,0-.19183.06394-.25578.06394l-.06394.06394v-.38365a.06263.06263,0,0,0,.06394-.064A.66145.66145,0,0,1,483.34239,256.385Z"/><path class="eeddad32-54f4-4ae4-a175-81b6cc699d72" d="M485.96407,256.385h.63943a1.24663,1.24663,0,0,1,.51155.06394.90894.90894,0,0,1,.38366.12789.88292.88292,0,0,1,.25577.19183.96162.96162,0,0,1,.25577.70338v2.3659h-.4476V257.472c0-.44761-.31972-.70338-.95915-.70338h-.63943Z"/><path class="eeddad32-54f4-4ae4-a175-81b6cc699d72" d="M491.59108,256.385v.31972a.75219.75219,0,0,0-.57549.76732v2.3659h-.4476V257.472a.57649.57649,0,0,1,.06394-.31972c0-.06394.06394-.12789.06394-.19183q.09592-.19183.19183-.19183h-1.79041v-.31971h2.49379Z"/><path class="eeddad32-54f4-4ae4-a175-81b6cc699d72" d="M495.108,257.02439a.94821.94821,0,0,1,.06394.44761v2.3659h-.4476V257.472c0-.44761-.31972-.70338-.95915-.70338h-1.087V256.385c.38366,0,.76732-.06394,1.151-.06394a2.83762,2.83762,0,0,1,.83126.12789A.847.847,0,0,1,495.108,257.02439Zm-1.98225,2.81351h-.4476v-2.17407h.4476Z"/><path class="eeddad32-54f4-4ae4-a175-81b6cc699d72" d="M499.00851,257.02439a.94821.94821,0,0,1,.06394.44761v2.3659h-.4476V257.472c0-.44761-.31972-.70338-.95915-.70338h-1.087V256.385c.38366,0,.76732-.06394,1.151-.06394a2.83769,2.83769,0,0,1,.83127.12789C498.75274,256.51285,498.88063,256.76862,499.00851,257.02439Zm-2.04619,2.81351h-.4476v-2.17407h.4476Z"/><path class="eeddad32-54f4-4ae4-a175-81b6cc699d72" d="M503.74032,259.8379a.38445.38445,0,0,1-.25577-.06394v-.38366h.19183c.25577,0,.38366-.12789.38366-.4476v-2.238l-.38366.06394V256.385a9.46411,9.46411,0,0,1,1.27887-.06394,2.38473,2.38473,0,0,1,.76732.12789.716.716,0,0,1,.4476.51154.94821.94821,0,0,1,.06394.44761v2.3659h-.4476v-2.3659c0-.44761-.31972-.70338-.95915-.70338h-.44761v2.238a.95462.95462,0,0,1-.19183.63943C504.25187,259.774,503.99609,259.8379,503.74032,259.8379Z"/><path class="eeddad32-54f4-4ae4-a175-81b6cc699d72" d="M507.70481,258.68692v-2.238h.4476v1.79042l-.31971.4476Z"/><path class="eeddad32-54f4-4ae4-a175-81b6cc699d72" d="M509.43128,258.68692v-2.238h.44761v1.79042l-.31972.4476Z"/><path class="eeddad32-54f4-4ae4-a175-81b6cc699d72" d="M510.902,256.385h.63943a1.24663,1.24663,0,0,1,.51155.06394.90889.90889,0,0,1,.38366.12789.88292.88292,0,0,1,.25577.19183.96163.96163,0,0,1,.25578.70338v2.3659h-.44761V257.472c0-.44761-.31971-.70338-.95915-.70338H510.902Z"/><path class="eeddad32-54f4-4ae4-a175-81b6cc699d72" d="M516.08139,259.71v.06394h-.4476V259.71a1.5892,1.5892,0,0,1,.06394-.51155,2.6068,2.6068,0,0,0,.12789-.4476c.06394-.19183.12789-.44761.19183-.70338l.38366-1.27887H514.291v-.31971h2.49379v.25577l-.38366,1.34281c-.06394.19183-.06394.31971-.12789.38366,0,.12788-.06394.19183-.06394.31971s-.06394.19183-.06394.25578-.06395.19183-.06395.25577Zm-1.27886,1.40675h-.44761v-3.325h.44761Z"/><path class="eeddad32-54f4-4ae4-a175-81b6cc699d72" d="M481.80775,257.02439a.94821.94821,0,0,1,.06394.44761v2.3659h-.4476V257.472q0-.76733-.95915-.76732h-1.087V256.321c.38366,0,.76732-.06394,1.151-.06394a2.838,2.838,0,0,1,.83126.12788A.98021.98021,0,0,1,481.80775,257.02439Zm-1.98225,2.81351h-.4476v-2.17407h.4476Z"/><path class="eeddad32-54f4-4ae4-a175-81b6cc699d72" d="M483.34239,256.385c.12788,0,.25577-.06394.4476-.06394a.69237.69237,0,0,1,.38366.06394c.12789.06394.25577.06394.31972.12789s.19183.12789.25577.19183.12789.19183.19183.25577.064.19183.12789.25578a1.408,1.408,0,0,1,.06394.51154v.89521a2.76933,2.76933,0,0,1-.06394.31972,1.08039,1.08039,0,0,1-.12789.31971.49928.49928,0,0,1-.25577.25578,1.39784,1.39784,0,0,1-.31972.19183,1.08823,1.08823,0,0,1-.4476.06394h-.44761c-.12788,0-.19183-.06394-.25577-.06394h-.06394v-.38366a3.20964,3.20964,0,0,0,.76732.12789.57638.57638,0,0,0,.31971-.06395c.06395,0,.19184-.06394.19184-.12788.06394-.064.12788-.12789.12788-.19183.064-.06394.064-.12789.12789-.19183a.23491.23491,0,0,0,.06394-.19183,2.769,2.769,0,0,1,.06395-.31972v-.51154a1.5875,1.5875,0,0,0-.06395-.5755c0-.06394-.06394-.12788-.12788-.19183s-.064-.12788-.12789-.19183-.12789-.06394-.25577-.12788a1.40784,1.40784,0,0,0-.51155-.06395.811.811,0,0,0-.38366.06394c-.12789,0-.19183.06394-.25578.06394l-.06394.06394v-.38365a.06263.06263,0,0,0,.06394-.064A.66145.66145,0,0,1,483.34239,256.385Z"/><path class="eeddad32-54f4-4ae4-a175-81b6cc699d72" d="M485.96407,256.385h.63943a1.24663,1.24663,0,0,1,.51155.06394.90894.90894,0,0,1,.38366.12789.88292.88292,0,0,1,.25577.19183.96162.96162,0,0,1,.25577.70338v2.3659h-.4476V257.472c0-.44761-.31972-.70338-.95915-.70338h-.63943Z"/><path class="eeddad32-54f4-4ae4-a175-81b6cc699d72" d="M491.59108,256.385v.31972a.75219.75219,0,0,0-.57549.76732v2.3659h-.4476V257.472a.57649.57649,0,0,1,.06394-.31972c0-.06394.06394-.12789.06394-.19183q.09592-.19183.19183-.19183h-1.79041v-.31971h2.49379Z"/><path class="eeddad32-54f4-4ae4-a175-81b6cc699d72" d="M495.108,257.02439a.94821.94821,0,0,1,.06394.44761v2.3659h-.4476V257.472c0-.44761-.31972-.70338-.95915-.70338h-1.087V256.385c.38366,0,.76732-.06394,1.151-.06394a2.83762,2.83762,0,0,1,.83126.12789A.847.847,0,0,1,495.108,257.02439Zm-1.98225,2.81351h-.4476v-2.17407h.4476Z"/><path class="eeddad32-54f4-4ae4-a175-81b6cc699d72" d="M499.00851,257.02439a.94821.94821,0,0,1,.06394.44761v2.3659h-.4476V257.472c0-.44761-.31972-.70338-.95915-.70338h-1.087V256.385c.38366,0,.76732-.06394,1.151-.06394a2.83769,2.83769,0,0,1,.83127.12789C498.75274,256.51285,498.88063,256.76862,499.00851,257.02439Zm-2.04619,2.81351h-.4476v-2.17407h.4476Z"/><path class="eeddad32-54f4-4ae4-a175-81b6cc699d72" d="M503.74032,259.8379a.38445.38445,0,0,1-.25577-.06394v-.38366h.19183c.25577,0,.38366-.12789.38366-.4476v-2.238l-.38366.06394V256.385a9.46411,9.46411,0,0,1,1.27887-.06394,2.38473,2.38473,0,0,1,.76732.12789.716.716,0,0,1,.4476.51154.94821.94821,0,0,1,.06394.44761v2.3659h-.4476v-2.3659c0-.44761-.31972-.70338-.95915-.70338h-.44761v2.238a.95462.95462,0,0,1-.19183.63943C504.25187,259.774,503.99609,259.8379,503.74032,259.8379Z"/><path class="eeddad32-54f4-4ae4-a175-81b6cc699d72" d="M507.70481,258.68692v-2.238h.4476v1.79042l-.31971.4476Z"/><path class="eeddad32-54f4-4ae4-a175-81b6cc699d72" d="M509.43128,258.68692v-2.238h.44761v1.79042l-.31972.4476Z"/><path class="eeddad32-54f4-4ae4-a175-81b6cc699d72" d="M510.902,256.385h.63943a1.24663,1.24663,0,0,1,.51155.06394.90889.90889,0,0,1,.38366.12789.88292.88292,0,0,1,.25577.19183.96163.96163,0,0,1,.25578.70338v2.3659h-.44761V257.472c0-.44761-.31971-.70338-.95915-.70338H510.902Z"/><path class="eeddad32-54f4-4ae4-a175-81b6cc699d72" d="M516.08139,259.71v.06394h-.4476V259.71a1.5892,1.5892,0,0,1,.06394-.51155,2.6068,2.6068,0,0,0,.12789-.4476c.06394-.19183.12789-.44761.19183-.70338l.38366-1.27887H514.291v-.31971h2.49379v.25577l-.38366,1.34281c-.06394.19183-.06394.31971-.12789.38366,0,.12788-.06394.19183-.06394.31971s-.06394.19183-.06394.25578-.06395.19183-.06395.25577Zm-1.27886,1.40675h-.44761v-3.325h.44761Z"/><path class="eeddad32-54f4-4ae4-a175-81b6cc699d72" d="M481.80775,257.02439a.94821.94821,0,0,1,.06394.44761v2.3659h-.4476V257.472q0-.76733-.95915-.76732h-1.087V256.321c.38366,0,.76732-.06394,1.151-.06394a2.838,2.838,0,0,1,.83126.12788A.98021.98021,0,0,1,481.80775,257.02439Zm-1.98225,2.81351h-.4476v-2.17407h.4476Z"/><path class="eeddad32-54f4-4ae4-a175-81b6cc699d72" d="M483.34239,256.385c.12788,0,.25577-.06394.4476-.06394a.69237.69237,0,0,1,.38366.06394c.12789.06394.25577.06394.31972.12789s.19183.12789.25577.19183.12789.19183.19183.25577.064.19183.12789.25578a1.408,1.408,0,0,1,.06394.51154v.89521a2.76933,2.76933,0,0,1-.06394.31972,1.08039,1.08039,0,0,1-.12789.31971.49928.49928,0,0,1-.25577.25578,1.39784,1.39784,0,0,1-.31972.19183,1.08823,1.08823,0,0,1-.4476.06394h-.44761c-.12788,0-.19183-.06394-.25577-.06394h-.06394v-.38366a3.20964,3.20964,0,0,0,.76732.12789.57638.57638,0,0,0,.31971-.06395c.06395,0,.19184-.06394.19184-.12788.06394-.064.12788-.12789.12788-.19183.064-.06394.064-.12789.12789-.19183a.23491.23491,0,0,0,.06394-.19183,2.769,2.769,0,0,1,.06395-.31972v-.51154a1.5875,1.5875,0,0,0-.06395-.5755c0-.06394-.06394-.12788-.12788-.19183s-.064-.12788-.12789-.19183-.12789-.06394-.25577-.12788a1.40784,1.40784,0,0,0-.51155-.06395.811.811,0,0,0-.38366.06394c-.12789,0-.19183.06394-.25578.06394l-.06394.06394v-.38365a.06263.06263,0,0,0,.06394-.064A.66145.66145,0,0,1,483.34239,256.385Z"/><path class="eeddad32-54f4-4ae4-a175-81b6cc699d72" d="M485.96407,256.385h.63943a1.24663,1.24663,0,0,1,.51155.06394.90894.90894,0,0,1,.38366.12789.88292.88292,0,0,1,.25577.19183.96162.96162,0,0,1,.25577.70338v2.3659h-.4476V257.472c0-.44761-.31972-.70338-.95915-.70338h-.63943Z"/><path class="eeddad32-54f4-4ae4-a175-81b6cc699d72" d="M491.59108,256.385v.31972a.75219.75219,0,0,0-.57549.76732v2.3659h-.4476V257.472a.57649.57649,0,0,1,.06394-.31972c0-.06394.06394-.12789.06394-.19183q.09592-.19183.19183-.19183h-1.79041v-.31971h2.49379Z"/><path class="eeddad32-54f4-4ae4-a175-81b6cc699d72" d="M495.108,257.02439a.94821.94821,0,0,1,.06394.44761v2.3659h-.4476V257.472c0-.44761-.31972-.70338-.95915-.70338h-1.087V256.385c.38366,0,.76732-.06394,1.151-.06394a2.83762,2.83762,0,0,1,.83126.12789A.847.847,0,0,1,495.108,257.02439Zm-1.98225,2.81351h-.4476v-2.17407h.4476Z"/><path class="eeddad32-54f4-4ae4-a175-81b6cc699d72" d="M499.00851,257.02439a.94821.94821,0,0,1,.06394.44761v2.3659h-.4476V257.472c0-.44761-.31972-.70338-.95915-.70338h-1.087V256.385c.38366,0,.76732-.06394,1.151-.06394a2.83769,2.83769,0,0,1,.83127.12789C498.75274,256.51285,498.88063,256.76862,499.00851,257.02439Zm-2.04619,2.81351h-.4476v-2.17407h.4476Z"/><path class="eeddad32-54f4-4ae4-a175-81b6cc699d72" d="M503.74032,259.8379a.38445.38445,0,0,1-.25577-.06394v-.38366h.19183c.25577,0,.38366-.12789.38366-.4476v-2.238l-.38366.06394V256.385a9.46411,9.46411,0,0,1,1.27887-.06394,2.38473,2.38473,0,0,1,.76732.12789.716.716,0,0,1,.4476.51154.94821.94821,0,0,1,.06394.44761v2.3659h-.4476v-2.3659c0-.44761-.31972-.70338-.95915-.70338h-.44761v2.238a.95462.95462,0,0,1-.19183.63943C504.25187,259.774,503.99609,259.8379,503.74032,259.8379Z"/><path class="eeddad32-54f4-4ae4-a175-81b6cc699d72" d="M507.70481,258.68692v-2.238h.4476v1.79042l-.31971.4476Z"/><path class="eeddad32-54f4-4ae4-a175-81b6cc699d72" d="M509.43128,258.68692v-2.238h.44761v1.79042l-.31972.4476Z"/><path class="eeddad32-54f4-4ae4-a175-81b6cc699d72" d="M510.902,256.385h.63943a1.24663,1.24663,0,0,1,.51155.06394.90889.90889,0,0,1,.38366.12789.88292.88292,0,0,1,.25577.19183.96163.96163,0,0,1,.25578.70338v2.3659h-.44761V257.472c0-.44761-.31971-.70338-.95915-.70338H510.902Z"/><path class="eeddad32-54f4-4ae4-a175-81b6cc699d72" d="M516.08139,259.71v.06394h-.4476V259.71a1.5892,1.5892,0,0,1,.06394-.51155,2.6068,2.6068,0,0,0,.12789-.4476c.06394-.19183.12789-.44761.19183-.70338l.38366-1.27887H514.291v-.31971h2.49379v.25577l-.38366,1.34281c-.06394.19183-.06394.31971-.12789.38366,0,.12788-.06394.19183-.06394.31971s-.06394.19183-.06394.25578-.06395.19183-.06395.25577Zm-1.27886,1.40675h-.44761v-3.325h.44761Z"/><path class="eeddad32-54f4-4ae4-a175-81b6cc699d72" d="M480.78465,249.543h2.238v.83126l-.57549,1.98225h0l-.38366,1.66253h-1.27887l.38366-1.72648.51155-1.72647h-2.238v-1.9183h1.34281Z"/><path class="eeddad32-54f4-4ae4-a175-81b6cc699d72" d="M484.55731,249.03147h.95915c-.12789.70338-.25577,1.34281-.31972,1.98225h-1.21492v-.064A8.81925,8.81925,0,0,1,484.55731,249.03147Zm1.72647,0h.95915c-.12788.70338-.25577,1.34281-.31971,1.98225h-1.151l-.064-.064Q486.092,249.607,486.28378,249.03147Z"/><path class="eeddad32-54f4-4ae4-a175-81b6cc699d72" d="M488.5218,252.6123V249.607h1.34281v2.04619l-.76732.95915Z"/><path class="eeddad32-54f4-4ae4-a175-81b6cc699d72" d="M493.25361,249.543c.19183,0,.38366-.06394.57549-.06394a1.408,1.408,0,0,1,.51155.06394,3.1175,3.1175,0,0,1,.4476.19183.9399.9399,0,0,1,.31972.38366,3.32169,3.32169,0,0,1,.25577,1.53464,2.64626,2.64626,0,0,1-.51155,1.72647,1.87142,1.87142,0,0,1-1.47069.63944,3.20964,3.20964,0,0,1-.76732-.12789,1.3924,1.3924,0,0,1-.57549-.44761,1.45853,1.45853,0,0,1-.38366-.76732,2.48537,2.48537,0,0,1-.12789-.95915V249.543H492.87v2.17407c0,.83127.19183,1.27887.57549,1.27887a.48085.48085,0,0,0,.4476-.31972,1.91049,1.91049,0,0,0,.12789-.95915,3.11492,3.11492,0,0,0-.12789-.95915.42812.42812,0,0,0-.4476-.25577h-.19183Z"/><path class="eeddad32-54f4-4ae4-a175-81b6cc699d72" d="M500.41527,249.607a8.5904,8.5904,0,0,1,1.21492-.06394,3.12562,3.12562,0,0,1,.83127.06394c.19183.064.38365.064.51154.19183a.6384.6384,0,0,1,.31972.25578,1.39762,1.39762,0,0,1,.19183.31972c.06394.12788.06394.25577.12789.38365V254.083h-1.34281v-2.81351c0-.4476-.25578-.63943-.70338-.63943a8.59054,8.59054,0,0,0-1.21493.06394v-1.087Z"/><path class="eeddad32-54f4-4ae4-a175-81b6cc699d72" d="M506.61777,254.01906H505.275v-4.476h1.34281Z"/><path class="eeddad32-54f4-4ae4-a175-81b6cc699d72" d="M511.60536,249.543v.95915a.63275.63275,0,0,0-.44761.31972,1.20462,1.20462,0,0,0-.12788.51154v2.68563h-1.34281v-2.68563a.91608.91608,0,0,1,.31971-.70337h-2.11013V249.607h3.70872Z"/><path class="eeddad32-54f4-4ae4-a175-81b6cc699d72" d="M513.90732,249.543a.92421.92421,0,0,1,.12788.4476h.06395l.19183-.19183c.06394-.06394.19183-.12788.25577-.19183s.19183-.06394.31972-.12788a1.24656,1.24656,0,0,1,.51154-.06394,1.2047,1.2047,0,0,1,.51155.12788,1.60269,1.60269,0,0,1,.4476.25578,1.03061,1.03061,0,0,1,.25578.4476,3.223,3.223,0,0,1,.19183,1.21493v2.49379h-2.11013V252.932h.76732v-1.4707a1.09935,1.09935,0,0,0-.06394-.51155c-.06395-.12789-.06395-.19183-.12789-.25577a.49782.49782,0,0,0-.4476-.19183.4834.4834,0,0,0-.25578.06394c-.06394,0-.12789.06394-.19183.12789-.12789.12788-.19183.19183-.19183.25577v.06394l-.12789,3.00534h-1.34281l.25578-2.81351v-.44761a3.62072,3.62072,0,0,0-.19183-1.151h1.151Z"/><path class="eeddad32-54f4-4ae4-a175-81b6cc699d72" d="M480.78465,249.543h2.238v.83126l-.57549,1.98225h0l-.38366,1.66253h-1.27887l.38366-1.72648.51155-1.72647h-2.238v-1.9183h1.34281Z"/><path class="eeddad32-54f4-4ae4-a175-81b6cc699d72" d="M484.55731,249.03147h.95915c-.12789.70338-.25577,1.34281-.31972,1.98225h-1.21492v-.064A8.81925,8.81925,0,0,1,484.55731,249.03147Zm1.72647,0h.95915c-.12788.70338-.25577,1.34281-.31971,1.98225h-1.151l-.064-.064Q486.092,249.607,486.28378,249.03147Z"/><path class="eeddad32-54f4-4ae4-a175-81b6cc699d72" d="M488.5218,252.6123V249.607h1.34281v2.04619l-.76732.95915Z"/><path class="eeddad32-54f4-4ae4-a175-81b6cc699d72" d="M493.25361,249.543c.19183,0,.38366-.06394.57549-.06394a1.408,1.408,0,0,1,.51155.06394,3.1175,3.1175,0,0,1,.4476.19183.9399.9399,0,0,1,.31972.38366,3.32169,3.32169,0,0,1,.25577,1.53464,2.64626,2.64626,0,0,1-.51155,1.72647,1.87142,1.87142,0,0,1-1.47069.63944,3.20964,3.20964,0,0,1-.76732-.12789,1.3924,1.3924,0,0,1-.57549-.44761,1.45853,1.45853,0,0,1-.38366-.76732,2.48537,2.48537,0,0,1-.12789-.95915V249.543H492.87v2.17407c0,.83127.19183,1.27887.57549,1.27887a.48085.48085,0,0,0,.4476-.31972,1.91049,1.91049,0,0,0,.12789-.95915,3.11492,3.11492,0,0,0-.12789-.95915.42812.42812,0,0,0-.4476-.25577h-.19183Z"/><path class="eeddad32-54f4-4ae4-a175-81b6cc699d72" d="M500.41527,249.607a8.5904,8.5904,0,0,1,1.21492-.06394,3.12562,3.12562,0,0,1,.83127.06394c.19183.064.38365.064.51154.19183a.6384.6384,0,0,1,.31972.25578,1.39762,1.39762,0,0,1,.19183.31972c.06394.12788.06394.25577.12789.38365V254.083h-1.34281v-2.81351c0-.4476-.25578-.63943-.70338-.63943a8.59054,8.59054,0,0,0-1.21493.06394v-1.087Z"/><path class="eeddad32-54f4-4ae4-a175-81b6cc699d72" d="M506.61777,254.01906H505.275v-4.476h1.34281Z"/><path class="eeddad32-54f4-4ae4-a175-81b6cc699d72" d="M511.60536,249.543v.95915a.63275.63275,0,0,0-.44761.31972,1.20462,1.20462,0,0,0-.12788.51154v2.68563h-1.34281v-2.68563a.91608.91608,0,0,1,.31971-.70337h-2.11013V249.607h3.70872Z"/><path class="eeddad32-54f4-4ae4-a175-81b6cc699d72" d="M513.90732,249.543a.92421.92421,0,0,1,.12788.4476h.06395l.19183-.19183c.06394-.06394.19183-.12788.25577-.19183s.19183-.06394.31972-.12788a1.24656,1.24656,0,0,1,.51154-.06394,1.2047,1.2047,0,0,1,.51155.12788,1.60269,1.60269,0,0,1,.4476.25578,1.03061,1.03061,0,0,1,.25578.4476,3.223,3.223,0,0,1,.19183,1.21493v2.49379h-2.11013V252.932h.76732v-1.4707a1.09935,1.09935,0,0,0-.06394-.51155c-.06395-.12789-.06395-.19183-.12789-.25577a.49782.49782,0,0,0-.4476-.19183.4834.4834,0,0,0-.25578.06394c-.06394,0-.12789.06394-.19183.12789-.12789.12788-.19183.19183-.19183.25577v.06394l-.12789,3.00534h-1.34281l.25578-2.81351v-.44761a3.62072,3.62072,0,0,0-.19183-1.151h1.151Z"/><path class="eeddad32-54f4-4ae4-a175-81b6cc699d72" d="M480.78465,249.543h2.238v.83126l-.57549,1.98225h0l-.38366,1.66253h-1.27887l.38366-1.72648.51155-1.72647h-2.238v-1.9183h1.34281Z"/><path class="eeddad32-54f4-4ae4-a175-81b6cc699d72" d="M484.55731,249.03147h.95915c-.12789.70338-.25577,1.34281-.31972,1.98225h-1.21492v-.064A8.81925,8.81925,0,0,1,484.55731,249.03147Zm1.72647,0h.95915c-.12788.70338-.25577,1.34281-.31971,1.98225h-1.151l-.064-.064Q486.092,249.607,486.28378,249.03147Z"/><path class="eeddad32-54f4-4ae4-a175-81b6cc699d72" d="M488.5218,252.6123V249.607h1.34281v2.04619l-.76732.95915Z"/><path class="eeddad32-54f4-4ae4-a175-81b6cc699d72" d="M493.25361,249.543c.19183,0,.38366-.06394.57549-.06394a1.408,1.408,0,0,1,.51155.06394,3.1175,3.1175,0,0,1,.4476.19183.9399.9399,0,0,1,.31972.38366,3.32169,3.32169,0,0,1,.25577,1.53464,2.64626,2.64626,0,0,1-.51155,1.72647,1.87142,1.87142,0,0,1-1.47069.63944,3.20964,3.20964,0,0,1-.76732-.12789,1.3924,1.3924,0,0,1-.57549-.44761,1.45853,1.45853,0,0,1-.38366-.76732,2.48537,2.48537,0,0,1-.12789-.95915V249.543H492.87v2.17407c0,.83127.19183,1.27887.57549,1.27887a.48085.48085,0,0,0,.4476-.31972,1.91049,1.91049,0,0,0,.12789-.95915,3.11492,3.11492,0,0,0-.12789-.95915.42812.42812,0,0,0-.4476-.25577h-.19183Z"/><path class="eeddad32-54f4-4ae4-a175-81b6cc699d72" d="M500.41527,249.607a8.5904,8.5904,0,0,1,1.21492-.06394,3.12562,3.12562,0,0,1,.83127.06394c.19183.064.38365.064.51154.19183a.6384.6384,0,0,1,.31972.25578,1.39762,1.39762,0,0,1,.19183.31972c.06394.12788.06394.25577.12789.38365V254.083h-1.34281v-2.81351c0-.4476-.25578-.63943-.70338-.63943a8.59054,8.59054,0,0,0-1.21493.06394v-1.087Z"/><path class="eeddad32-54f4-4ae4-a175-81b6cc699d72" d="M506.61777,254.01906H505.275v-4.476h1.34281Z"/><path class="eeddad32-54f4-4ae4-a175-81b6cc699d72" d="M511.60536,249.543v.95915a.63275.63275,0,0,0-.44761.31972,1.20462,1.20462,0,0,0-.12788.51154v2.68563h-1.34281v-2.68563a.91608.91608,0,0,1,.31971-.70337h-2.11013V249.607h3.70872Z"/><path class="eeddad32-54f4-4ae4-a175-81b6cc699d72" d="M513.90732,249.543a.92421.92421,0,0,1,.12788.4476h.06395l.19183-.19183c.06394-.06394.19183-.12788.25577-.19183s.19183-.06394.31972-.12788a1.24656,1.24656,0,0,1,.51154-.06394,1.2047,1.2047,0,0,1,.51155.12788,1.60269,1.60269,0,0,1,.4476.25578,1.03061,1.03061,0,0,1,.25578.4476,3.223,3.223,0,0,1,.19183,1.21493v2.49379h-2.11013V252.932h.76732v-1.4707a1.09935,1.09935,0,0,0-.06394-.51155c-.06395-.12789-.06395-.19183-.12789-.25577a.49782.49782,0,0,0-.4476-.19183.4834.4834,0,0,0-.25578.06394c-.06394,0-.12789.06394-.19183.12789-.12789.12788-.19183.19183-.19183.25577v.06394l-.12789,3.00534h-1.34281l.25578-2.81351v-.44761a3.62072,3.62072,0,0,0-.19183-1.151h1.151Z"/><path class="eeddad32-54f4-4ae4-a175-81b6cc699d72" d="M480.78465,249.543h2.238v.83126l-.57549,1.98225h0l-.38366,1.66253h-1.27887l.38366-1.72648.51155-1.72647h-2.238v-1.9183h1.34281Z"/><path class="eeddad32-54f4-4ae4-a175-81b6cc699d72" d="M484.55731,249.03147h.95915c-.12789.70338-.25577,1.34281-.31972,1.98225h-1.21492v-.064A8.81925,8.81925,0,0,1,484.55731,249.03147Zm1.72647,0h.95915c-.12788.70338-.25577,1.34281-.31971,1.98225h-1.151l-.064-.064Q486.092,249.607,486.28378,249.03147Z"/><path class="eeddad32-54f4-4ae4-a175-81b6cc699d72" d="M488.5218,252.6123V249.607h1.34281v2.04619l-.76732.95915Z"/><path class="eeddad32-54f4-4ae4-a175-81b6cc699d72" d="M493.25361,249.543c.19183,0,.38366-.06394.57549-.06394a1.408,1.408,0,0,1,.51155.06394,3.1175,3.1175,0,0,1,.4476.19183.9399.9399,0,0,1,.31972.38366,3.32169,3.32169,0,0,1,.25577,1.53464,2.64626,2.64626,0,0,1-.51155,1.72647,1.87142,1.87142,0,0,1-1.47069.63944,3.20964,3.20964,0,0,1-.76732-.12789,1.3924,1.3924,0,0,1-.57549-.44761,1.45853,1.45853,0,0,1-.38366-.76732,2.48537,2.48537,0,0,1-.12789-.95915V249.543H492.87v2.17407c0,.83127.19183,1.27887.57549,1.27887a.48085.48085,0,0,0,.4476-.31972,1.91049,1.91049,0,0,0,.12789-.95915,3.11492,3.11492,0,0,0-.12789-.95915.42812.42812,0,0,0-.4476-.25577h-.19183Z"/><path class="eeddad32-54f4-4ae4-a175-81b6cc699d72" d="M500.41527,249.607a8.5904,8.5904,0,0,1,1.21492-.06394,3.12562,3.12562,0,0,1,.83127.06394c.19183.064.38365.064.51154.19183a.6384.6384,0,0,1,.31972.25578,1.39762,1.39762,0,0,1,.19183.31972c.06394.12788.06394.25577.12789.38365V254.083h-1.34281v-2.81351c0-.4476-.25578-.63943-.70338-.63943a8.59054,8.59054,0,0,0-1.21493.06394v-1.087Z"/><path class="eeddad32-54f4-4ae4-a175-81b6cc699d72" d="M506.61777,254.01906H505.275v-4.476h1.34281Z"/><path class="eeddad32-54f4-4ae4-a175-81b6cc699d72" d="M511.60536,249.543v.95915a.63275.63275,0,0,0-.44761.31972,1.20462,1.20462,0,0,0-.12788.51154v2.68563h-1.34281v-2.68563a.91608.91608,0,0,1,.31971-.70337h-2.11013V249.607h3.70872Z"/><path class="eeddad32-54f4-4ae4-a175-81b6cc699d72" d="M513.90732,249.543a.92421.92421,0,0,1,.12788.4476h.06395l.19183-.19183c.06394-.06394.19183-.12788.25577-.19183s.19183-.06394.31972-.12788a1.24656,1.24656,0,0,1,.51154-.06394,1.2047,1.2047,0,0,1,.51155.12788,1.60269,1.60269,0,0,1,.4476.25578,1.03061,1.03061,0,0,1,.25578.4476,3.223,3.223,0,0,1,.19183,1.21493v2.49379h-2.11013V252.932h.76732v-1.4707a1.09935,1.09935,0,0,0-.06394-.51155c-.06395-.12789-.06395-.19183-.12789-.25577a.49782.49782,0,0,0-.4476-.19183.4834.4834,0,0,0-.25578.06394c-.06394,0-.12789.06394-.19183.12789-.12789.12788-.19183.19183-.19183.25577v.06394l-.12789,3.00534h-1.34281l.25578-2.81351v-.44761a3.62072,3.62072,0,0,0-.19183-1.151h1.151Z"/></svg>