<svg id="bc89f720-4beb-4354-af20-ab79aac42ce9" data-name="Layer 1" xmlns="http://www.w3.org/2000/svg" xmlns:xlink="http://www.w3.org/1999/xlink" viewBox="0 0 530.08011 298.15314" preserveAspectRatio="none"><defs><style>.adfe2010-90f7-4662-bf73-006f342bd14d,.b06818fd-de75-4098-8497-e2163bf94bff,.b0f49247-54d2-48fd-b06a-e1b9bc7a2cfc,.b43bb18f-234a-41b2-97a1-5588e0ecda0e,.b8d5ad40-f372-4ff8-b1aa-db2c978fb485,.b99e5aab-8838-465c-9a41-b4980551b7e8,.bbbb4193-8d2e-4d29-aaf3-87af1ebc9388,.bfdb2593-755f-453d-89ff-475523729549,.f4c746aa-87a3-443a-8d58-8485a0c52454,.f5f95e98-fee0-4eba-b12b-f289930bfff1{fill:none;}.be47cf8b-7a21-4d9d-b2fe-e62730a9e101{clip-path:url(#a5347011-96f1-41cb-b32b-edae04ce9808);}.a8c2bf0b-c99e-40fd-b2d7-af49374c0292{fill:#1a242d;}.bd20b9d3-76a5-4a6e-941d-d8f796edf11e{fill:#414042;opacity:0.48;}.a9012a97-3111-434b-bc14-e4aa0a1b9e30{clip-path:url(#f29204ec-4981-4b0e-8b73-2ffb71c01652);}.bd5367c6-0e6e-4f30-b1f1-68c2517afb60{fill:url(#e4b5a73c-b528-4c97-b59f-aec312bb7eca);}.b43bb18f-234a-41b2-97a1-5588e0ecda0e,.bbbb4193-8d2e-4d29-aaf3-87af1ebc9388{stroke:#d1d3d4;}.b06818fd-de75-4098-8497-e2163bf94bff,.b0f49247-54d2-48fd-b06a-e1b9bc7a2cfc,.b43bb18f-234a-41b2-97a1-5588e0ecda0e,.bbbb4193-8d2e-4d29-aaf3-87af1ebc9388,.f5f95e98-fee0-4eba-b12b-f289930bfff1{stroke-miterlimit:10;}.bbbb4193-8d2e-4d29-aaf3-87af1ebc9388{stroke-width:3.09385px;stroke-dasharray:30.93851 15.46926;}.acfa2dc1-ce66-4497-9556-03e329c1d3a2{fill:#ddc09b;}.b3e428bb-64d0-4975-84e8-36aaa46b57a9{clip-path:url(#a1367d87-2acb-44d5-a220-ca1ff420c8dd);}.ad723ae1-abf5-46f3-b2a2-286c44cff881,.f3cc7394-1512-4d7b-8197-f13eab2f5de5{fill:#c59f74;}.b8d90888-b26e-4525-8f88-9b7a77855fa8{fill:#fbd8b4;}.a1df24ae-dbe7-4c44-a4e5-d27707266662{clip-path:url(#ef8b506c-a899-4629-9837-b71b258d84bc);}.e4206620-04b9-4bfd-9219-e5758653d9ab{fill:#6d6e71;}.ad723ae1-abf5-46f3-b2a2-286c44cff881{opacity:0.35;}.b06818fd-de75-4098-8497-e2163bf94bff{stroke:#808285;}.adfe2010-90f7-4662-bf73-006f342bd14d,.b06818fd-de75-4098-8497-e2163bf94bff,.b43bb18f-234a-41b2-97a1-5588e0ecda0e,.b8d5ad40-f372-4ff8-b1aa-db2c978fb485,.b99e5aab-8838-465c-9a41-b4980551b7e8,.f4c746aa-87a3-443a-8d58-8485a0c52454,.f5f95e98-fee0-4eba-b12b-f289930bfff1{stroke-linecap:round;}.b06818fd-de75-4098-8497-e2163bf94bff,.b43bb18f-234a-41b2-97a1-5588e0ecda0e{stroke-width:4.10729px;}.f038fb4d-5627-46cd-b998-480dcc703141{fill:#18a371;}.b8d5ad40-f372-4ff8-b1aa-db2c978fb485{stroke:#fff;stroke-width:0.96654px;}.adfe2010-90f7-4662-bf73-006f342bd14d,.b8d5ad40-f372-4ff8-b1aa-db2c978fb485,.b99e5aab-8838-465c-9a41-b4980551b7e8,.f4c746aa-87a3-443a-8d58-8485a0c52454{stroke-linejoin:round;}.f3c12cbd-f493-4d66-bd35-ca8218093a51{fill:#fff;}.b99e5aab-8838-465c-9a41-b4980551b7e8,.f4c746aa-87a3-443a-8d58-8485a0c52454{stroke:#537435;}.b99e5aab-8838-465c-9a41-b4980551b7e8{stroke-width:13.85344px;}.b89d59f1-5fc8-4863-8d81-a9d5309cb500{fill:#537435;}.f4c746aa-87a3-443a-8d58-8485a0c52454{stroke-width:11.26646px;}.b6acaf1a-e43b-4d38-bb2b-d9908f952dc2{fill:#678e3d;}.adfe2010-90f7-4662-bf73-006f342bd14d{stroke:#678e3d;stroke-width:3.46336px;}.b0f49247-54d2-48fd-b06a-e1b9bc7a2cfc{stroke:#bcbec0;stroke-width:2px;stroke-dasharray:8.076 8.07635;}.b6d43781-359c-44ca-947d-f788a6e3de37{fill:#e1d3ca;}.b61af5da-dead-46e3-8a26-f6a9fbaaf8f2{clip-path:url(#f9c96ec2-2e2e-4af5-ab6c-e267d2f7c04a);}.b0336305-10d1-47cd-a1ad-e4da4a902997{fill:#fff0e7;}.e21bc3b0-3739-4119-804a-fbcf3e95af33{fill:#ef4136;}.ba004b4e-49ce-40f0-af2b-df04805be5ca{fill:#f37371;}.b4613f6a-0cda-485f-a6ea-aa005f8dce92{fill:#603913;}.f835f902-ef71-4617-957f-45d9fda4f7fa{fill:#bcbec0;}.f5f95e98-fee0-4eba-b12b-f289930bfff1{stroke:#6d6e71;stroke-width:1.26105px;}.a5a4b3e5-ba39-49cc-9841-aa67090ce07e{fill:#415829;}.ea0f9ca7-c7fd-4ae7-8d57-6645a8b278bc{fill:#dc1f2b;}</style><clipPath id="a5347011-96f1-41cb-b32b-edae04ce9808"><rect class="bfdb2593-755f-453d-89ff-475523729549" x="0.03756" y="-349.373" width="530.04255" height="298.14894"/></clipPath><clipPath id="f29204ec-4981-4b0e-8b73-2ffb71c01652"><rect class="bfdb2593-755f-453d-89ff-475523729549" x="0.03756" width="530.04255" height="298.14894"/></clipPath><linearGradient id="e4b5a73c-b528-4c97-b59f-aec312bb7eca" x1="265.05884" y1="298.14894" x2="265.05884" gradientTransform="translate(414.1333 -115.98437) rotate(90)" gradientUnits="userSpaceOnUse"><stop offset="0" stop-color="#ddcec8"/><stop offset="0.46324" stop-color="#fbd8b4"/><stop offset="0.70343" stop-color="#fff"/><stop offset="1" stop-color="#d9ecf5"/></linearGradient><clipPath id="a1367d87-2acb-44d5-a220-ca1ff420c8dd"><path class="bfdb2593-755f-453d-89ff-475523729549" d="M634.01992,194.69725c0-38.49542-240.2542-77.87234-269.3617-77.87234-29.10639,0-187.40426,30.12766-271.40426,77.87234-33.46712,19.02234,121.05458,69.70212,270.383,69.70212S634.01992,233.19267,634.01992,194.69725Z"/></clipPath><clipPath id="ef8b506c-a899-4629-9837-b71b258d84bc"><path class="bfdb2593-755f-453d-89ff-475523729549" d="M230.86154,220.7808c0-38.49542-143.50494-77.87234-160.891-77.87234-17.38538,0-111.93743,30.12766-162.111,77.87234-19.99006,19.02235,72.30646,69.70213,161.501,69.70213S230.86154,259.27623,230.86154,220.7808Z"/></clipPath><clipPath id="f9c96ec2-2e2e-4af5-ab6c-e267d2f7c04a"><rect class="bfdb2593-755f-453d-89ff-475523729549" x="459.18265" y="186.99024" width="140.05738" height="76.5486" transform="translate(1056.84618 454.19735) rotate(-179.60226)"/></clipPath></defs><title>Artboard 364</title><g class="be47cf8b-7a21-4d9d-b2fe-e62730a9e101"><path class="a8c2bf0b-c99e-40fd-b2d7-af49374c0292" d="M289.44542,128.22257c2.25677-2.17235,4.18593-4.24222,7.3306-4.82548,4.09992-.76042,7.23066,1.59626,9.87791,4.02868a7.00519,7.00519,0,0,1,2.34574,3.57779,9.00023,9.00023,0,0,1-.38448,4.11641,40.55828,40.55828,0,0,1-9.9736,17.379c-3.10193,3.20728-6.91533,6-11.11447,6.80617s-8.74762-.84121-10.156-4.594c-1.53589-4.09262.88665-8.98828,3.22778-13.19337,1.18478-2.12808,2.66757-4.03886,3.01238-6.42944a7.00857,7.00857,0,0,1,.31234-1.60261c.37714-.96123,1.77979-1.52859,2.5294-2.24707C287.4747,130.25945,288.425,129.20479,289.44542,128.22257Z"/><path class="a8c2bf0b-c99e-40fd-b2d7-af49374c0292" d="M183.55021,80.209c2.87788-1.43024,5.40546-2.85765,8.641-2.49956,4.2184.46687,6.50855,3.64926,8.30567,6.76318a6.8572,6.8572,0,0,1,1.14156,4.1277,9.1797,9.1797,0,0,1-1.67777,3.8478,42.43381,42.43381,0,0,1-15.1841,13.80414c-4.02583,2.17885-8.61044,3.75087-12.9396,3.299s-8.21949-3.36628-8.39623-7.38832c-.19275-4.38626,3.70916-8.388,7.3132-11.74917,1.8239-1.701,3.868-3.10584,4.96027-5.3049a7.20161,7.20161,0,0,1,.811-1.4505c.67054-.8145,2.21111-.95033,3.166-1.42243C180.99277,81.59248,182.249,80.85564,183.55021,80.209Z"/><ellipse class="bd20b9d3-76a5-4a6e-941d-d8f796edf11e" cx="206.66602" cy="138.84993" rx="24.06545" ry="132.68801" transform="matrix(0.25557, -0.96679, 0.96679, 0.25557, 19.60912, 303.16628)"/></g><g class="a9012a97-3111-434b-bc14-e4aa0a1b9e30"><rect class="bd5367c6-0e6e-4f30-b1f1-68c2517afb60" x="115.98437" y="-115.94681" width="298.14894" height="530.04255" transform="translate(115.98437 414.1333) rotate(-90)"/><line class="bbbb4193-8d2e-4d29-aaf3-87af1ebc9388" x1="-19.08646" y1="282.53346" x2="530.08011" y2="282.53346"/><path class="acfa2dc1-ce66-4497-9556-03e329c1d3a2" d="M632.871,194.69725c0-38.49542-240.2542-77.87234-269.3617-77.87234-29.10638,0-187.40425,30.12766-271.40425,77.87234-33.46712,19.02234,121.05458,69.70212,270.383,69.70212S632.871,233.19267,632.871,194.69725Z"/><g class="b3e428bb-64d0-4975-84e8-36aaa46b57a9"><ellipse class="f3cc7394-1512-4d7b-8197-f13eab2f5de5" cx="477.7646" cy="156.54754" rx="76.85106" ry="55.9354"/><path class="b8d90888-b26e-4525-8f88-9b7a77855fa8" d="M386.871,150.71852c-5.3617-28.7234-23.74027-43.18939-177.95218-2.73291-40.12159,10.52563,115.47051-46.32645,156.24636-47.86884C399.31779,98.82491,389.13475,162.84584,386.871,150.71852Z"/><path class="f3cc7394-1512-4d7b-8197-f13eab2f5de5" d="M439.97718,146.55389c0-18.4635-18.99268-33.43115-42.4209-33.43115a51.40168,51.40168,0,0,0-20.05273,3.98316A20.55718,20.55718,0,0,1,387.70081,134.856c.00034,9.16322-5.87892,16.06871-14.26917,19.098-5.02079,1.81274-10.57295,1.41649-15.81885,2.2269-9.14369,1.41257-18.16961,3.75709-25.94391,8.91472-12.51758,8.30425-21.52127,21.87915-21.52129,37.21575,0,26.20258,25.377,47.444,56.68066,47.444,31.3042,0,56.68116-21.24139,56.68116-47.444a41.75785,41.75785,0,0,0-8.68018-25.22046C429.64759,171.878,439.97718,160.16864,439.97718,146.55389Z"/><rect class="f3cc7394-1512-4d7b-8197-f13eab2f5de5" x="399.35075" y="123.06922" width="230.55319" height="153.95745"/></g><path class="acfa2dc1-ce66-4497-9556-03e329c1d3a2" d="M230.17528,220.7808c0-38.49542-143.50494-77.87234-160.891-77.87234-17.38538,0-111.93742,30.12766-162.111,77.87234-19.99007,19.02235,72.30646,69.70213,161.501,69.70213S230.17528,259.27623,230.17528,220.7808Z"/><g class="a1df24ae-dbe7-4c44-a4e5-d27707266662"><path class="f3cc7394-1512-4d7b-8197-f13eab2f5de5" d="M-2.49072,153.59086s68.65779-35.98307,88.46809-12.383c14.68085,17.48936-43.8975,51.87807-91.02128,62.93617l-48.6893-22.97873Z"/><path class="b8d90888-b26e-4525-8f88-9b7a77855fa8" d="M70.14758,140.56959c-2.29787-.383,24.12766,1.91489,9.57447,21.06383s30.63829,26.42553,52.85106,18S188.871,200.69725,188.871,200.69725s26.33638,14.17988,43.02128,15.68728c26.79843,2.42109,48.83574-7.4087,48.12766-7.64473-1.14894-.383-49.15838-60.51064-49.15838-60.51064Z"/></g><ellipse class="b8d90888-b26e-4525-8f88-9b7a77855fa8" cx="279.89226" cy="264.02986" rx="308.93617" ry="52.47512"/><rect class="e4206620-04b9-4bfd-9219-e5758653d9ab" x="-11.80987" y="267.21432" width="541.88998" height="30.93462"/><path class="ad723ae1-abf5-46f3-b2a2-286c44cff881" d="M98.6608,258.65406c.02189,2.45309-18.49682,5.00487-41.05734,5.20619s-40.61964-2.02406-40.64153-4.47716,17.53682-5.4178,40.09734-5.61911S98.63891,256.201,98.6608,258.65406Z"/><line class="b06818fd-de75-4098-8497-e2163bf94bff" x1="23.33321" y1="222.77536" x2="23.64405" y2="257.6095"/><line class="b43bb18f-234a-41b2-97a1-5588e0ecda0e" x1="22.30639" y1="222.77536" x2="22.61723" y2="257.6095"/><line class="b06818fd-de75-4098-8497-e2163bf94bff" x1="88.3482" y1="222.1952" x2="88.65904" y2="257.02934"/><line class="b43bb18f-234a-41b2-97a1-5588e0ecda0e" x1="87.32137" y1="222.1952" x2="87.63222" y2="257.02934"/><rect class="f038fb4d-5627-46cd-b998-480dcc703141" x="11.84338" y="169.29323" width="86.77749" height="53.22003" rx="1.50746" transform="translate(-1.74586 0.50064) rotate(-0.51126)"/><rect class="b8d5ad40-f372-4ff8-b1aa-db2c978fb485" x="13.94072" y="171.12841" width="82.58281" height="49.54968" rx="2.75276" transform="translate(-1.74586 0.50064) rotate(-0.51126)"/><path class="f3c12cbd-f493-4d66-bd35-ca8218093a51" d="M22.69026,184.92342l-.21387-1.9209,2.36621-.02051.21387,1.91992.0957,10.74414-2.36621.02149Z"/><path class="f3c12cbd-f493-4d66-bd35-ca8218093a51" d="M26.94514,184.88533l-.21387-1.9209,2.36621-.0205.21387,1.91992.06641,7.459-2.36621.02051Z"/><path class="f3c12cbd-f493-4d66-bd35-ca8218093a51" d="M34.97151,185.86482q-.01026-1.19823-1.11035-1.18945l-3.20411.02832-.01562-1.77344,3.84375-.03515a2.84439,2.84439,0,0,1,2.085.72949,3.15949,3.15949,0,0,1,.78418,2.334l.05566,6.292-2.38183.02148Z"/><path class="f3c12cbd-f493-4d66-bd35-ca8218093a51" d="M46.827,190.61385q-1.97169,1.73583-6.14551,1.77246l-.50879.00391L38.8553,182.857l2.251-.02051.5127,4.05372a1.702,1.702,0,0,0,.87793-.99415,6.10967,6.10967,0,0,0,.19629-1.97265l-.00977-1.085,2.251-.01953.00879,1.03515a5.75868,5.75868,0,0,1-.69727,2.93848,4.34118,4.34118,0,0,1-2.415,1.73828l.2461,1.8877a4.522,4.522,0,0,0,3.33984-1.38575,5.05362,5.05362,0,0,0,.95508-3.36816l-.05762-2.875,2.38184-.02051.041,2.74317A6.26663,6.26663,0,0,1,46.827,190.61385Z"/><path class="f3c12cbd-f493-4d66-bd35-ca8218093a51" d="M53.45393,187.62264l.31836-1.10352,2.05371-.01855.0498,5.58593L53.494,192.107Zm5.46973-1.97168q-.01026-1.19825-1.11133-1.18946l-4.28809.03907-.01562-1.77442,4.92968-.04394a2.84709,2.84709,0,0,1,2.084.72851,3.15954,3.15954,0,0,1,.78418,2.334l.05566,6.293-2.38183.0205Z"/><path class="f3c12cbd-f493-4d66-bd35-ca8218093a51" d="M62.743,190.25057l2.39844-.02149-.042-4.748a1.24514,1.24514,0,0,0-.2295-.83594,1.08626,1.08626,0,0,0-.68457-.30567l-1.15136-.15429.28027-1.74414,2.05566.24511a2.16241,2.16241,0,0,1,1.54395.83985,3.07438,3.07438,0,0,1,.55078,1.86816l.0586,6.58789-4.76465.043Z"/><path class="f3c12cbd-f493-4d66-bd35-ca8218093a51" d="M76.47541,183.30916a3.30766,3.30766,0,0,1,.78516,2.376l.05469,6.21-2.38184.02148-.05566-6.32519q-.01173-1.28173-1.11328-1.27149l-2.20118.01953.06739,7.60645-2.36621.02051-.07422-8.3125-.00879-1.06739,5.209-.04687A2.76193,2.76193,0,0,1,76.47541,183.30916Z"/><path class="f3c12cbd-f493-4d66-bd35-ca8218093a51" d="M86.98909,190.71639a3.61967,3.61967,0,0,1-2.96973,1.332,6.43268,6.43268,0,0,1-1.51172-.1836l.19727-1.77636a4.94668,4.94668,0,0,0,1.01953.123,1.74531,1.74531,0,0,0,1.58691-.76171,4.16664,4.16664,0,0,0,.457-2.21387,4.66421,4.66421,0,0,0-.47363-2.35352,1.51875,1.51875,0,0,0-1.39453-.71875,1.62193,1.62193,0,0,0-1.10449.4043,1.74956,1.74956,0,0,0-.55664,1.07227l-.96485,6.21972-2.36523.02051,1.07812-6.335-1.34179-3.04395,2.46386-.02148.67383,1.86621a2.99619,2.99619,0,0,1,1.02149-1.52832,2.61667,2.61667,0,0,1,1.57128-.51563,3.16366,3.16366,0,0,1,2.68848,1.1836,5.96663,5.96663,0,0,1,.9541,3.63086A5.5396,5.5396,0,0,1,86.98909,190.71639Z"/><polygon class="f3c12cbd-f493-4d66-bd35-ca8218093a51" points="75.219 203.555 49.689 203.539 49.692 198.286 35.437 206.509 49.682 214.748 49.685 209.495 75.215 209.512 75.219 203.555"/><path class="b99e5aab-8838-465c-9a41-b4980551b7e8" d="M182.06845,192.83149h7.30677a13.385,13.385,0,0,0,13.385-13.385v-20.7564"/><path class="b89d59f1-5fc8-4863-8d81-a9d5309cb500" d="M180.74206,130.36346h0c4.2312,0,7.6914,3.86077,7.80022,8.7032L190.43991,223.51c.05445,2.42334-.0594,7.69846-.0594,7.69846-1.424,1.76574-14.14819,2.82964-19.43563-.19613,0,0,.04677-5.16239.09935-7.50233l1.89761-84.44335C173.05066,134.22423,176.51086,130.36346,180.74206,130.36346Z"/><path class="f4c746aa-87a3-443a-8d58-8485a0c52454" d="M178.96069,178.81205h-5.94231a10.88547,10.88547,0,0,1-10.88547-10.88547V151.04621"/><path class="b6acaf1a-e43b-4d38-bb2b-d9908f952dc2" d="M186.41961,138.90218l-2.64111,4.09631-.06592-2.88171,2.898,3.92065a2.547,2.547,0,0,1,.09619,2.88843l-.02881.04358-2.64111,4.097-.06836-2.98193,2.898,3.92041a2.635,2.635,0,0,1,.09961,2.98718l-.02979.04505-2.64111,4.09765-.07031-3.08191,2.89746,3.92115a2.721,2.721,0,0,1,.103,3.08581l-.03077.04663-2.64111,4.09778-.07324-3.1825,2.89795,3.92a2.80824,2.80824,0,0,1,.10547,3.18628l-.03174.04809-2.64111,4.09327-.07471-3.28406,2.898,3.92029a2.896,2.896,0,0,1,.10888,3.28442l-.03271.04956-2.64063,4.0957-.07714-3.38342,2.898,3.922a2.98264,2.98264,0,0,1,.1123,3.38232l-.03418.05115-2.64062,4.09705-.07959-3.48353,2.89794,3.92151a3.0701,3.0701,0,0,1,.11622,3.48023l-.03467.05261-2.64063,4.10083-.08252-3.58228,2.898,3.92322a3.15832,3.15832,0,0,1,.11963,3.57862l-.03613.05407-2.64063,4.10083-.085-3.68286,2.89795,3.92212a3.24464,3.24464,0,0,1,.12256,3.678l-.03662.05566-2.64063,4.10022-.08691-3.783,2.89795,3.92371a3.33141,3.33141,0,0,1,.12744,3.7738l-.0376.05713L186.364,223.7032l-.08936-3.87878,2.89844,3.93017a3.46355,3.46355,0,0,1-5.57519,4.11121c-.00879-.01209-.02833-.03882-.03663-.0509l-2.82666-3.98206-.03613-.05054a3.3849,3.3849,0,0,1-.05322-3.82861l2.71435-4.0592.08985,3.83068-2.82666-3.97558-.03467-.0492a3.29621,3.29621,0,0,1-.05176-3.73413l2.71436-4.05176.08593,3.73328-2.82617-3.974-.03418-.04785a3.209,3.209,0,0,1-.05078-3.63525l2.71436-4.05237.08349,3.63232-2.82617-3.975-.0332-.04663a3.12213,3.12213,0,0,1-.04932-3.536l2.71436-4.05225.08154,3.53259L180.28436,191.52l-.03223-.04528a3.03451,3.03451,0,0,1-.04736-3.43848l2.71435-4.04846.07862,3.4331-2.82617-3.97375-.03125-.04395a2.94662,2.94662,0,0,1-.0459-3.33972l2.71435-4.04724.07617,3.33362-2.82617-3.97217-.03027-.04272a2.85911,2.85911,0,0,1-.04443-3.2417l2.71484-4.0448.07324,3.234-2.82617-3.972-.0293-.04126a2.77258,2.77258,0,0,1-.04394-3.1416l2.71484-4.0492.07178,3.13208-2.82617-3.973-.02881-.04a2.68457,2.68457,0,0,1-.042-3.04223l2.71435-4.0492.06983,3.032-2.82618-3.97216-.02783-.0387a2.59847,2.59847,0,0,1-.041-2.94348l2.71484-4.04859.06738,2.93164-2.82666-3.97253-.02636-.03735a2.50958,2.50958,0,0,1-.03956-2.84461l2.71485-4.04785a2.49167,2.49167,0,0,1,4.16357,2.73792Z"/><path class="b6acaf1a-e43b-4d38-bb2b-d9908f952dc2" d="M208.37323,159.20454q-.78736,1.55073-1.52979,3.12049l-.01025-1.51416,1.311,3.215.03028.07349a1.74217,1.74217,0,0,1-.02051,1.35779l-1.40528,3.1698-.00927-1.39441,1.40869,3.17138a1.75163,1.75163,0,0,1,.00976,1.39551q-.68481,1.59449-1.32861,3.20655l-.00977-1.42469,1.4668,3.14685a1.75945,1.75945,0,0,1,.04834,1.37879l-.0376.09729-1.25586,3.24341-.00488-1.55457,1.52442,3.18481a1.98381,1.98381,0,0,1-.37061,2.24317l-.13379.13574-2.40039,2.44678.71191-1.35645c-.09179,1.09131-.2041,2.17981-.27441,3.27417a2.11983,2.11983,0,0,1-1.13037,1.74341l-.31445.16419-2.91016,1.5227,1.33887-1.29492c-.4126,1.015-.7959,2.04431-1.186,3.07007a2.49332,2.49332,0,0,1-1.897,1.56946l-.50732.08837c-1.08106.18921-2.16407.35413-3.24366.56324l1.99658-.918-2.10058,2.5404a2.88,2.88,0,0,1-2.60742,1.01941l-.79639-.10974c-1.09228-.1499-2.17969-.31665-3.27539-.45276l2.772-.29016c-.917.61279-1.82519,1.244-2.72754,1.88562a4.47085,4.47085,0,1,1-5.18017-7.28833,4.60069,4.60069,0,0,1,1.22168-.61218c1.0542-.33887,2.10351-.68811,3.14306-1.05591l.94532-.33423a2.56809,2.56809,0,0,1,1.82714.04407c1.022.418,2.05225.8053,3.07764,1.20935l-3.40283.90967,2.57031-2.06433.521-.4187a2.26943,2.26943,0,0,1,1.47558-.49939c1.09912.02624,2.19483.00842,3.292.01477l-2.40381,1.65759c.55517-.94653,1.11816-1.88953,1.65136-2.84668l.167-.29932a2.19285,2.19285,0,0,1,1.17187-.99585l3.08985-1.11377-1.44483,1.90735c.23486-1.07116.42676-2.14843.63965-3.22278l.04736-.23962a1.93373,1.93373,0,0,1,.665-1.11706l2.63867-2.18763-.5039,2.37854-1.28614-3.2882-.05078-.12916a1.8205,1.8205,0,0,1,.04541-1.42578l1.47022-3.1521.01074,1.47571-1.34766-3.2-.02929-.07043a1.69515,1.69515,0,0,1,.01953-1.35462q.72071-1.57927,1.39746-3.17712l.00977,1.39514-1.40577-3.173a1.74345,1.74345,0,0,1-.02-1.36866l.01075-.02612,1.32129-3.20581.00976,1.43091-1.50342-3.12964a1.75661,1.75661,0,0,1-.05908-1.38892l.04834-.12548q.62256-1.621,1.19678-3.26282a2.0824,2.0824,0,1,1,3.92969,1.37951A2.29864,2.29864,0,0,1,208.37323,159.20454Z"/><polyline class="adfe2010-90f7-4662-bf73-006f342bd14d" points="165.96 148.889 164.555 151.254 165.921 153.642 164.516 156.003 165.882 158.389 164.477 160.755 165.842 163.145 164.437 165.512 165.803 167.906 164.398 170.305 166.123 171.132 165.425 172.82 167.238 173.03 167.033 174.846 168.818 174.478 169.265 176.245 170.786 175.236 171.85 176.717 172.954 175.256"/><path class="acfa2dc1-ce66-4497-9556-03e329c1d3a2" d="M294.299,227.51479c1.17065.16763,2.49738.561,2.95627,1.65095a.77941.77941,0,0,0,.75829,1.36066c-.12624.52806.4433.98082.97945,1.06641a14.2349,14.2349,0,0,1,1.62054.112c.52276.14665.98565.762.688,1.21609l1.83962-2.5106c.12681-.17307.284-.363.49846-.36927.24994-.00734.42635.23431.647.35194a1.40686,1.40686,0,0,0,.94892.02186c1.7414-.36912,3.51262-.68109,5.22667-1.1447-2.73255-.94-5.84149-2.60106-8.67582-3.11961-3.44082-.62952-6.99135.76495-10.61154.23572A5.19553,5.19553,0,0,0,294.299,227.51479Z"/><path class="f3cc7394-1512-4d7b-8197-f13eab2f5de5" d="M178.26106,233.27612a.81233.81233,0,0,1-.83618-.48275,6.40381,6.40381,0,0,1-.31457-.98957,7.62255,7.62255,0,0,0-1.17846-1.85137,2.514,2.514,0,0,1-.5623-2.05448c-.97252.03426-2.05352.712-2.82487.1187a1.67568,1.67568,0,0,1-.36653-1.80354,6.17875,6.17875,0,0,0,.53728-1.686,6.83276,6.83276,0,0,1-1.1218.47829c-.562.06975-1.03415-.48074-1.52393-.37982a.81145.81145,0,0,0-.39294.27322l-.91232.95611a.52867.52867,0,0,1-.22574.1644c-.31225.08619-.46595-.38823-.3788-.70021s.23839-.6943.00536-.9193c-.27168-.26232-.7052.01109-.99746.25027s-.8234.39575-.96836.047l-1.28.03519a.3609.3609,0,0,0-.23241.06086.38489.38489,0,0,0-.09231.2577,3.04165,3.04165,0,0,1-1.49919,2.26319.61943.61943,0,0,1-.65094.06264.64553.64553,0,0,1-.19025-.297c-.21567-.5465-.19575-1.92042-.52375-2.31271-.35-.41865-1.57735-.58546-2.11517-.82762a5.56492,5.56492,0,0,0-.64377,3.40036c.0126,1.20059-.95261,2.6996-.88163,3.71524a3.62464,3.62464,0,0,0-2.08146-2.98764,7.38429,7.38429,0,0,0,.69665,3.22621,3.09275,3.09275,0,0,1-1.09966-1.66511,4.81174,4.81174,0,0,0-.36408,2.98167,1.53079,1.53079,0,0,1,.0523.60549.43376.43376,0,0,1-.41737.37148,2.4388,2.4388,0,0,1-1.484,1.71935c.0295.44657.71187.35569,1.11381.15886,1.06686-.52245,2.50271-.71377,3.32244.146a23.93285,23.93285,0,0,1,2.72445-2.24934l-.46658.26054c3.35855,1.77976,7.13755,3.38187,10.85819,2.60455a2.18949,2.18949,0,0,0-.82138-2.73114,3.37064,3.37064,0,0,0,4.18025.67935l-.27776-.47251c.10538-.61491.98912-.68607,1.55839-.43082A5.94261,5.94261,0,0,0,178.26106,233.27612Z"/><path class="acfa2dc1-ce66-4497-9556-03e329c1d3a2" d="M165.229,236.37236a12.68053,12.68053,0,0,0,1.12666-7.37434,10.42376,10.42376,0,0,0,.76842,2.28163,1.58636,1.58636,0,0,0,.60364.7669c.70641.38372,1.49044-.33212,1.976-.97283l.08762,2.64626a7.23369,7.23369,0,0,0,4.36348-1.20535,8.05082,8.05082,0,0,1-5.66137,5.17688.73061.73061,0,0,0-.08264-1.123,1.1419,1.1419,0,0,0-.55419-.14017,10.20541,10.20541,0,0,0-2.62818.49889,2.85288,2.85288,0,0,1-2.54865-.40815c-1.12493-1.03232-.4997-3.06107-1.45244-4.25416a3.01487,3.01487,0,0,0-2.306-.93572c-.85614-.02658-1.71475.11831-2.5674.03664.15125.607.9635.85859,1.12777,1.46219.19335.71049-.653,1.29082-1.38824,1.33033a8.24371,8.24371,0,0,0-2.19548.03873,6.44623,6.44623,0,0,0,3.33267,1.34286,2.95732,2.95732,0,0,1,1.4343.33435c.408.28379.55055.99238.12457,1.24844"/><path class="f3cc7394-1512-4d7b-8197-f13eab2f5de5" d="M195.04734,230.458l2.92007-.91029a.75483.75483,0,0,0,.61762.75894,1.97089,1.97089,0,0,0,1.05183-.12845,12.47253,12.47253,0,0,0,2.90731-1.39853c.33945.89248,1.61795.80137,2.5377.54488l3.78039-1.05423a3.77337,3.77337,0,0,0-.99878,3.59005,13.47783,13.47783,0,0,0-7.12646,1.00936,2.75734,2.75734,0,0,0-1.50194,1.20934c-.57056,1.23279.62875,2.517,1.70234,3.34927a9.75042,9.75042,0,0,1-2.42932,1.28429,1.6626,1.6626,0,0,1-.9876.12226c-.81774-.22595-.876-1.45022-.36211-2.12521a12.9859,12.9859,0,0,1,1.97956-1.58448c-.76627-1.17072-2.4423-1.21739-3.83312-1.06324-1.76317.19541-3.53047,4.77778-5.20749,2.17426-1.17056-1.81724,1.48622-5.50308,2.68023-6.5896C193.02529,230.83025,194.09865,230.75371,195.04734,230.458Z"/><path class="acfa2dc1-ce66-4497-9556-03e329c1d3a2" d="M196.8239,236.08316c.223.0689.3185-.26581.35049-.497A2.82211,2.82211,0,0,1,198.675,233.817a31.188,31.188,0,0,1,3.85429-2.09209,8.52328,8.52328,0,0,0-4.12742,1.689c-.41757.32053-.84231.78023-.74741,1.298.05239.28582.2593.52784.29729.81593.07424.5629-.55992,1.01173-1.12632.97214a2.91218,2.91218,0,0,1-1.49969-.75068.52755.52755,0,0,1-.1792.78709.797.797,0,0,1-.86587-.16308,1.71105,1.71105,0,0,1-.44863-.80907,4.2219,4.2219,0,0,1,.05983-2.54709,4.95091,4.95091,0,0,1-1.60294,5.17.28285.28285,0,0,1,.25665-.32917,9.19441,9.19441,0,0,0-.52768-3.99244,5.53512,5.53512,0,0,0,1.64713,1.31556.48559.48559,0,0,0,.41346.06921c.15221-.07027.1925-.264.2137-.43029l.15862-1.24428,1.0848,1.07353a.26826.26826,0,0,0,.47643-.026l2.32673-2.6964c-.41248,1.78744-2.51266,3.04728-2.32692,4.87227,1.70181-1.9085,3.50119-3.8855,5.89583-4.7823a11.24178,11.24178,0,0,0-.35271,1.46453.87045.87045,0,0,0,.01215.47942.90761.90761,0,0,0,.41209.38381l1.56874.93533a10.55479,10.55479,0,0,0-2.45814-.18253.91186.91186,0,0,0-.62119.19177.79026.79026,0,0,0-.0709.8349,2.80032,2.80032,0,0,1,.28588.83485l-1.98035.20226a.84209.84209,0,0,0-.61314.24035c-.13669.18024-.00393.5262.21575.47224"/><path class="acfa2dc1-ce66-4497-9556-03e329c1d3a2" d="M217.90853,253.27242a16.82912,16.82912,0,0,1,2.60324-5.72653,1.7669,1.7669,0,0,0,.82477,2.31871,1.54411,1.54411,0,0,0,2.06016-1.17c0,2.63344,1.97842,5.2084,1.14814,7.70752a9.84934,9.84934,0,0,0,4.18024-2.61834,9.59762,9.59762,0,0,0,.51005,1.87778"/><path class="acfa2dc1-ce66-4497-9556-03e329c1d3a2" d="M95.33719,232.65123a5.3899,5.3899,0,0,1-3.84308-3.01979c.79575-.65735,1.97-.51637,2.93768-.87554s1.55459-1.95933.57767-2.29245a6.62245,6.62245,0,0,0,3.76166,1.26636,2.8581,2.8581,0,0,0,2.22909,3.83165"/><path class="acfa2dc1-ce66-4497-9556-03e329c1d3a2" d="M421.9465,247.92028l3.77317-9.49006a8.01019,8.01019,0,0,0-1.14787,6.43935,1.7994,1.7994,0,0,1,1.13226-.46667l2.4046,7.08219"/><line class="b0f49247-54d2-48fd-b06a-e1b9bc7a2cfc" x1="530.08011" y1="283.85046" x2="0.03756" y2="282.85046"/><rect class="b6d43781-359c-44ca-947d-f788a6e3de37" x="459.18265" y="186.99024" width="140.05738" height="76.5486" transform="translate(1056.84618 454.19735) rotate(-179.60226)"/><g class="b61af5da-dead-46e3-8a26-f6a9fbaaf8f2"><rect class="b0336305-10d1-47cd-a1ad-e4da4a902997" x="449.53108" y="182.21072" width="125.70217" height="99.5182" transform="translate(1023.14169 467.49092) rotate(-179.60226)"/><polygon class="b6d43781-359c-44ca-947d-f788a6e3de37" points="482.507 200.711 482.108 258.125 474.387 195.776 482.507 200.711"/><polygon class="b6d43781-359c-44ca-947d-f788a6e3de37" points="478.641 204.095 575.665 212.507 575.424 204.767 478.641 204.095"/></g><polygon class="e21bc3b0-3739-4119-804a-fbcf3e95af33" points="482.953 140.303 576.001 140.949 599.182 187.475 459.128 186.503 482.953 140.303"/><polygon class="ba004b4e-49ce-40f0-af2b-df04805be5ca" points="498.783 152.004 560.493 152.433 576.162 140.95 483.275 140.305 498.783 152.004"/><polygon class="e21bc3b0-3739-4119-804a-fbcf3e95af33" points="482.483 204.122 575.424 204.767 599.021 187.474 459.128 186.503 482.483 204.122"/><path class="b6d43781-359c-44ca-947d-f788a6e3de37" d="M485.55632,280.69388l83.99569.5831a9.91608,9.91608,0,0,0,8.57365-4.81714l7.93181-13.23052a9.91609,9.91609,0,0,0-6.98238-14.89723h0a9.916,9.916,0,0,0-7.14978,1.63386l-6.51072,4.48739a9.916,9.916,0,0,0-1.78483,1.57768l-.923,1.03868a9.916,9.916,0,0,1-6.77261,3.30845l-.51118.033a9.91607,9.91607,0,0,0-3.6991.9789l-2.06292,1.00379a9.916,9.916,0,0,1-4.4778.99856l-37.364-.52431a9.9161,9.9161,0,0,1-5.34746-1.6552l-15.174-10.07923a9.91607,9.91607,0,0,0-11.08927.0783l-5.91094,4.04774a9.91609,9.91609,0,0,0-.36928,16.0977l9.72508,7.33668A9.91607,9.91607,0,0,0,485.55632,280.69388Z"/><rect class="b4613f6a-0cda-485f-a6ea-aa005f8dce92" x="503.45159" y="241.11692" width="51.42468" height="28.33345" rx="1.32813" transform="translate(270.21308 782.66269) rotate(-89.60226)"/><path class="f835f902-ef71-4617-957f-45d9fda4f7fa" d="M516.50458,229.41976c3.27587-.01367,6.55151.01172,9.82763-.03369l9.82849-.1626c1.63806-.0249,3.27625-.06689,4.91407-.06347.42944.00244.77441-.01123,1.27307.0039a1.8477,1.8477,0,0,1,1.67077,1.66553c.01709.30176.00611.43652.0105.6626l.00476,1.22851c.02344,3.27588-.06506,6.55127-.092,9.82666-.12475,6.55078-.37744,13.10059-.44055,19.65186-.064,3.27539-.063,6.55127-.06482,9.82666q-.01007,2.45727.0155,4.91406l.0199,2.457a1.98248,1.98248,0,0,1-.32532,1.36377,1.66794,1.66794,0,0,1-1.32519.66895c-6.55188.03369-13.104.12451-19.65552.11181l-4.9137-.00244c-.43432-.0039-.76318.00879-1.28418-.00928a1.96992,1.96992,0,0,1-1.7771-1.78173c-.01709-.32325-.00451-.44239-.0083-.67334l.00049-1.22852.0752-9.82715c.04382-6.55127.15039-13.10205.3717-19.65185l.308-9.8252c.06091-1.63769.06713-3.27539.09985-4.91308l.04016-2.45655a1.75617,1.75617,0,0,1,.30359-1.2124A1.4008,1.4008,0,0,1,516.50458,229.41976Zm-.00086.126a1.26276,1.26276,0,0,0-1.00354.50488,1.59573,1.59573,0,0,0-.24963,1.12256l.0061,2.457c.00989,1.63818-.00659,3.27588.03162,4.91406l.17151,9.82862c.13037,6.55224.146,13.104.09887,19.65527l-.06128,9.82666-.0166,1.22852-.00427.55468a.67526.67526,0,0,0,.0946.29737.69.69,0,0,0,.5177.334l1.172.01953,4.91333.06592c6.551.07861,13.10132.25977,19.652.38428a.99377.99377,0,0,0,.80151-.37549,1.34965,1.34965,0,0,0,.22779-.97119l.05395-2.45655q.06207-2.45654.08374-4.91308c.0437-3.27539.09009-6.55078.07166-9.82666.02783-6.55176-.13392-13.104-.16773-19.65625.01843-3.27539-.02453-6.55176.04444-9.82666l.02172-1.22852.0066-.56543a.79864.79864,0,0,0-.10962-.35107.81241.81241,0,0,0-.609-.396l-1.18323-.02588c-1.63782-.019-3.27527-.08349-4.91272-.13134l-9.82532-.29932C523.05475,229.62533,519.77911,229.60482,516.50372,229.54574Z"/><circle class="e4206620-04b9-4bfd-9219-e5758653d9ab" cx="519.4993" cy="256.51503" r="1.69268"/><line class="f5f95e98-fee0-4eba-b12b-f289930bfff1" x1="519.4993" y1="256.51503" x2="523.60433" y2="256.54353"/><path class="a5a4b3e5-ba39-49cc-9841-aa67090ce07e" d="M448.3033,271.116a12.85635,12.85635,0,0,0,.69961,5.145,1.64959,1.64959,0,0,1,.14508.99122,1.86089,1.86089,0,0,1-.36037.58282c-1.54472,1.98018-2.33765,4.1559-1.57226,6.57285a8.34247,8.34247,0,0,0,9.83027,5.12354c1.3213,1.81551,4.42433,2.78478,6.76827,2.83406a12.13279,12.13279,0,0,0,7.62576-2.46252c-.21559.16887,3.23844,1.715,3.56862,1.81249a25.99629,25.99629,0,0,0,4.78378.8523c3.053.304,6.28173.33554,9.03036-.86922a14.65228,14.65228,0,0,0,6.23016-5.947c2.185.909,4.78421-.35359,6.32979-1.98635a8.27561,8.27561,0,0,0,2.41953-5.21656,6.03836,6.03836,0,0,0-2.4447-5.11042,3.06967,3.06967,0,0,0-1.49043-4.86865c1.32961-1.72991.86166-4.19075-.58921-5.84759a12.55726,12.55726,0,0,0-5.92852-3.31211,6.46426,6.46426,0,0,0-1.82455-7.168,8.79079,8.79079,0,0,0-8.11875-1.65719c.13136-.26689.55112.06978.61921.35475-1.951-2.18677-5.278-7.90077-14.65786-4.83074a8.01753,8.01753,0,0,0-4.95069,5.86482,8.12237,8.12237,0,0,0-10.29357,8.56511c.00428.70318.17425,1.40026.1863,2.09671.015.86813.09172.61788-.69962.898a8.42072,8.42072,0,0,0-5.14128,6.24174A12.63808,12.63808,0,0,0,448.3033,271.116Z"/><path class="b89d59f1-5fc8-4863-8d81-a9d5309cb500" d="M448.3033,271.116a12.85635,12.85635,0,0,0,.69961,5.145,1.64959,1.64959,0,0,1,.14508.99122,1.86089,1.86089,0,0,1-.36037.58282c-1.54472,1.98018-2.33765,4.1559-1.57226,6.57285a8.34247,8.34247,0,0,0,9.83027,5.12354c1.3213,1.81551,4.42433,2.78478,6.76827,2.83406a12.13279,12.13279,0,0,0,7.62576-2.46252c-.21559.16887,3.23844,1.715,3.56862,1.81249a25.99629,25.99629,0,0,0,4.78378.8523c3.053.304,6.28173.33554,9.03036-.86922a14.65228,14.65228,0,0,0,6.23016-5.947c2.185.909,4.78421-.35359,6.32979-1.98635a8.27561,8.27561,0,0,0,2.41953-5.21656,6.03836,6.03836,0,0,0-2.4447-5.11042,3.06967,3.06967,0,0,0-1.49043-4.86865c1.32961-1.72991.86166-4.19075-.58921-5.84759a12.55726,12.55726,0,0,0-5.92852-3.31211,6.46426,6.46426,0,0,0-1.82455-7.168,8.79079,8.79079,0,0,0-8.11875-1.65719c.13136-.26689.55112.06978.61921.35475-1.951-2.18677-5.278-7.90077-14.65786-4.83074a8.01753,8.01753,0,0,0-4.95069,5.86482,8.12237,8.12237,0,0,0-10.29357,8.56511c.00428.70318.17425,1.40026.1863,2.09671.015.86813.09172.61788-.69962.898a8.42072,8.42072,0,0,0-5.14128,6.24174A12.63808,12.63808,0,0,0,448.3033,271.116Z"/><path class="b6acaf1a-e43b-4d38-bb2b-d9908f952dc2" d="M449.29584,271.828a7.58792,7.58792,0,0,0,2.32468,4.8026,11.2196,11.2196,0,0,0,3.38091,2.34506,11.85406,11.85406,0,0,0,5.79.70948,15.63958,15.63958,0,0,0,5.42937-1.81768,8.23882,8.23882,0,0,0,4.09436-5.66778c.87943,1.90427,3.4247,2.81964,5.75546,2.84562a9.76436,9.76436,0,0,0,5.46793-1.48421,6.82423,6.82423,0,0,0,1.3958-10.29607,11.71648,11.71648,0,0,0-3.451-2.2075,14.71554,14.71554,0,0,0,3.2369-2.271c2.40556-2.63352,1.09754-6.508-1.21013-8.83066-2.5935-2.61035-7.83107-3.82356-11.42166-2.19481a7.74036,7.74036,0,0,0-4.15454,5.97051,8.33149,8.33149,0,0,0-7.82828,1.237,6.576,6.576,0,0,0-2.46539,5.1605,7.35293,7.35293,0,0,0,.91826,4.26558,5.51678,5.51678,0,0,0-3.33818.376A6.7842,6.7842,0,0,0,449.29584,271.828Z"/><path class="b89d59f1-5fc8-4863-8d81-a9d5309cb500" d="M510.83661,279.2657a5.0277,5.0277,0,0,1,2.898-1.40409c2.0797-.452,4.345-.66557,6.25707.26894s3.21024,3.38016,2.24,5.27442a4.9428,4.9428,0,0,1-3.212,2.22549,11.2884,11.2884,0,0,1-7.92239-.73585c-1.59278-.78264-3.15323-2.42056-2.62029-4.11332.42342-1.34489,1.93188-1.96829,3.26684-2.422.31234-.10617.82969-.04667.75766.27526"/><path class="b89d59f1-5fc8-4863-8d81-a9d5309cb500" d="M505.73425,278.19969c-.85828.15651-1.80437-.24377-2.587.14183a1.91086,1.91086,0,0,0-.28337,2.88161,4.5105,4.5105,0,0,0,3.03767,1.20712c3.84436.35986,12.59818-1.60246,8.54172-7.07133C510.23979,269.69183,508.96885,277.60987,505.73425,278.19969Z"/><polygon class="ea0f9ca7-c7fd-4ae7-8d57-6645a8b278bc" points="498.783 152.004 482.483 204.122 459.128 186.503 483.275 140.305 498.783 152.004"/></g></svg>