<svg preserveAspectRatio="none" id="aa87a7dd-186c-47d9-a579-14116f9a042a" data-name="Layer 1" xmlns="http://www.w3.org/2000/svg" xmlns:xlink="http://www.w3.org/1999/xlink" viewBox="0 0 530.04255 298.14894"><defs><style>.a3df1138-c670-4f29-95cb-80dae86bcaee,.a6d20801-55a0-44d2-b15f-7476c49037b7,.ae0e56b9-e436-49dc-a0b6-15ba140c10f3,.bbd13bd4-53aa-4ab0-9baa-c48e4152343e,.f27a1161-57cf-4d49-be18-53ecf47ca8c3,.fe6086c7-22dc-45b5-971f-d642b024a918{fill:none;}.bbbab64b-ef24-4e52-ad0f-b29bbe914d27{clip-path:url(#ea456485-c6ea-4c14-b184-4ec2246f0147);}.a3cfff3b-838d-490e-8a75-0686f0df303c{fill:url(#f14223fa-5fc5-483a-b9ac-11c6f0cae81a);}.fe6086c7-22dc-45b5-971f-d642b024a918{stroke:#d1d3d4;stroke-width:3.09385px;stroke-dasharray:30.93851 15.46926;}.bbd13bd4-53aa-4ab0-9baa-c48e4152343e,.fe6086c7-22dc-45b5-971f-d642b024a918{stroke-miterlimit:10;}.a7f6b381-9b80-455a-bddf-bdfad2eeb11a{fill:#ddc09b;}.e79aa467-a553-470f-8b59-1fea10b7cc3f{clip-path:url(#e10f7bcf-b534-4e2a-a260-710a0732a46b);}.f9619471-ee1a-4566-8d66-1b78381cd76b{fill:#c59f74;}.ed2b6781-0c38-451d-bc3a-0d7ebedc873e{fill:#fbd8b4;}.b95abb91-0b4d-4517-b8f3-cb5fa6ac35f1{clip-path:url(#a7502bd8-1e0c-4fce-a402-8eaaf522bc88);}.a2d65fbd-7895-4215-ae17-2793f1aaca7e{fill:#6d6e71;}.ae0e56b9-e436-49dc-a0b6-15ba140c10f3,.f27a1161-57cf-4d49-be18-53ecf47ca8c3{stroke:#537435;}.a3df1138-c670-4f29-95cb-80dae86bcaee,.ae0e56b9-e436-49dc-a0b6-15ba140c10f3,.f27a1161-57cf-4d49-be18-53ecf47ca8c3{stroke-linecap:round;stroke-linejoin:round;}.ae0e56b9-e436-49dc-a0b6-15ba140c10f3{stroke-width:13.85344px;}.e765463c-e8a4-46a0-a1c8-e199399275f6{fill:#537435;}.f27a1161-57cf-4d49-be18-53ecf47ca8c3{stroke-width:11.26646px;}.b4c17ee2-c258-4dfc-88c5-752de6a059b5{fill:#678e3d;}.a3df1138-c670-4f29-95cb-80dae86bcaee{stroke:#678e3d;stroke-width:3.46336px;}.bbd13bd4-53aa-4ab0-9baa-c48e4152343e{stroke:#bcbec0;stroke-width:2px;stroke-dasharray:8.076 8.07635;}</style><clipPath id="ea456485-c6ea-4c14-b184-4ec2246f0147"><rect class="a6d20801-55a0-44d2-b15f-7476c49037b7" width="530.04255" height="298.14894"/></clipPath><linearGradient id="f14223fa-5fc5-483a-b9ac-11c6f0cae81a" x1="265.02128" y1="298.14894" x2="265.02128" gradientTransform="translate(414.09574 -115.94681) rotate(90)" gradientUnits="userSpaceOnUse"><stop offset="0" stop-color="#ddcec8"/><stop offset="0.46324" stop-color="#fbd8b4"/><stop offset="0.70343" stop-color="#fff"/><stop offset="1" stop-color="#d9ecf5"/></linearGradient><clipPath id="e10f7bcf-b534-4e2a-a260-710a0732a46b"><path class="a6d20801-55a0-44d2-b15f-7476c49037b7" d="M633.98236,194.69725c0-38.49542-240.2542-77.87234-269.3617-77.87234-29.10638,0-187.40426,30.12766-271.40426,77.87234-33.46711,19.02234,121.05459,69.70212,270.383,69.70212S633.98236,233.19267,633.98236,194.69725Z"/></clipPath><clipPath id="a7502bd8-1e0c-4fce-a402-8eaaf522bc88"><path class="a6d20801-55a0-44d2-b15f-7476c49037b7" d="M230.824,220.7808c0-38.49542-143.50495-77.87234-160.891-77.87234-17.38538,0-111.93743,30.12766-162.111,77.87234-19.99006,19.02235,72.30647,69.70213,161.501,69.70213S230.824,259.27623,230.824,220.7808Z"/></clipPath></defs><title>Artboard 331</title><g class="bbbab64b-ef24-4e52-ad0f-b29bbe914d27"><rect class="a3cfff3b-838d-490e-8a75-0686f0df303c" x="115.94681" y="-115.94681" width="298.14894" height="530.04255" transform="translate(115.94681 414.09574) rotate(-90)"/><line class="fe6086c7-22dc-45b5-971f-d642b024a918" x1="-19.12402" y1="282.53346" x2="530.04255" y2="282.53346"/><path class="a7f6b381-9b80-455a-bddf-bdfad2eeb11a" d="M632.83342,194.69725c0-38.49542-240.25419-77.87234-269.3617-77.87234-29.10638,0-187.40425,30.12766-271.40425,77.87234-33.46712,19.02234,121.05458,69.70212,270.383,69.70212S632.83342,233.19267,632.83342,194.69725Z"/><g class="e79aa467-a553-470f-8b59-1fea10b7cc3f"><ellipse class="f9619471-ee1a-4566-8d66-1b78381cd76b" cx="477.72704" cy="156.54754" rx="76.85106" ry="55.9354"/><path class="ed2b6781-0c38-451d-bc3a-0d7ebedc873e" d="M386.83342,150.71852c-5.3617-28.7234-23.74027-43.18939-177.95218-2.73291-40.12158,10.52563,115.47051-46.32645,156.24636-47.86884C399.28023,98.82491,389.09719,162.84584,386.83342,150.71852Z"/><path class="f9619471-ee1a-4566-8d66-1b78381cd76b" d="M439.93962,146.55389c0-18.4635-18.99268-33.43115-42.4209-33.43115A51.40171,51.40171,0,0,0,377.466,117.1059,20.55718,20.55718,0,0,1,387.66325,134.856c.00035,9.16322-5.87891,16.06871-14.26916,19.098-5.02079,1.81274-10.573,1.41649-15.81885,2.2269-9.1437,1.41257-18.16962,3.75709-25.94392,8.91472C319.11375,173.3999,310.11005,186.9748,310.11,202.3114c0,26.20258,25.377,47.444,56.68066,47.444,31.3042,0,56.68116-21.24139,56.68116-47.444a41.75785,41.75785,0,0,0-8.68018-25.22046C429.61,171.878,439.93962,160.16864,439.93962,146.55389Z"/><rect class="f9619471-ee1a-4566-8d66-1b78381cd76b" x="399.3132" y="123.06922" width="230.55319" height="153.95745"/></g><path class="a7f6b381-9b80-455a-bddf-bdfad2eeb11a" d="M230.13772,220.7808c0-38.49542-143.50494-77.87234-160.891-77.87234-17.38537,0-111.93742,30.12766-162.111,77.87234-19.99006,19.02235,72.30646,69.70213,161.501,69.70213S230.13772,259.27623,230.13772,220.7808Z"/><g class="b95abb91-0b4d-4517-b8f3-cb5fa6ac35f1"><path class="f9619471-ee1a-4566-8d66-1b78381cd76b" d="M-2.52828,153.59086s68.65779-35.98307,88.46809-12.383c14.68085,17.48936-43.8975,51.87807-91.02128,62.93617l-48.6893-22.97873Z"/><path class="ed2b6781-0c38-451d-bc3a-0d7ebedc873e" d="M70.11,140.56959c-2.29787-.383,24.12766,1.91489,9.57447,21.06383s30.6383,26.42553,52.85106,18,56.29787,21.06383,56.29787,21.06383,26.33638,14.17988,43.02128,15.68728c26.79843,2.42109,48.83574-7.4087,48.12766-7.64473-1.14894-.383-49.15837-60.51064-49.15837-60.51064Z"/></g><ellipse class="ed2b6781-0c38-451d-bc3a-0d7ebedc873e" cx="279.8547" cy="264.02986" rx="308.93617" ry="52.47512"/><rect class="a2d65fbd-7895-4215-ae17-2793f1aaca7e" x="-11.84743" y="267.21432" width="541.88998" height="30.93462"/><path class="ae0e56b9-e436-49dc-a0b6-15ba140c10f3" d="M182.03089,192.83149h7.30677a13.385,13.385,0,0,0,13.385-13.385v-20.7564"/><path class="e765463c-e8a4-46a0-a1c8-e199399275f6" d="M180.7045,130.36346h0c4.2312,0,7.6914,3.86077,7.80022,8.7032L190.40235,223.51c.05445,2.42334-.05939,7.69846-.05939,7.69846-1.424,1.76574-14.1482,2.82964-19.43564-.19613,0,0,.04677-5.16239.09935-7.50233l1.89761-84.44335C173.0131,134.22423,176.4733,130.36346,180.7045,130.36346Z"/><path class="f27a1161-57cf-4d49-be18-53ecf47ca8c3" d="M178.92313,178.81205h-5.94231a10.88547,10.88547,0,0,1-10.88547-10.88547V151.04621"/><path class="b4c17ee2-c258-4dfc-88c5-752de6a059b5" d="M186.38205,138.90218l-2.64111,4.09631-.06592-2.88171,2.898,3.92065a2.547,2.547,0,0,1,.09619,2.88843l-.02881.04358-2.64111,4.097-.06836-2.98193,2.898,3.92041a2.635,2.635,0,0,1,.09961,2.98718l-.02978.04505-2.64112,4.09765-.07031-3.08191,2.89746,3.92115a2.721,2.721,0,0,1,.103,3.08581l-.03076.04663-2.64112,4.09778-.07324-3.1825,2.898,3.92a2.80824,2.80824,0,0,1,.10547,3.18628l-.03174.04809-2.64111,4.09327-.07471-3.28406,2.89795,3.92029a2.89606,2.89606,0,0,1,.10889,3.28442l-.03272.04956-2.64062,4.0957-.07715-3.38342,2.89795,3.922a2.98264,2.98264,0,0,1,.1123,3.38232l-.03418.05115-2.64062,4.09705-.07959-3.48353,2.898,3.92151a3.07011,3.07011,0,0,1,.11621,3.48023l-.03467.05261-2.64063,4.10083-.08252-3.58228,2.898,3.92322a3.15832,3.15832,0,0,1,.11963,3.57862l-.03613.05407-2.64062,4.10083-.085-3.68286,2.898,3.92212a3.24464,3.24464,0,0,1,.12256,3.678l-.03662.05566-2.64062,4.10022-.08692-3.783,2.898,3.92371a3.33141,3.33141,0,0,1,.12744,3.7738l-.0376.05713-2.64062,4.10779-.08936-3.87878,2.89844,3.93017a3.46355,3.46355,0,0,1-5.57519,4.11121c-.00879-.01209-.02832-.03882-.03662-.0509l-2.82666-3.98206-.03614-.05054a3.3849,3.3849,0,0,1-.05322-3.82861l2.71436-4.0592.08984,3.83068-2.82666-3.97558-.03467-.0492a3.29621,3.29621,0,0,1-.05176-3.73413l2.71436-4.05176.08594,3.73328-2.82618-3.974-.03418-.04785a3.209,3.209,0,0,1-.05078-3.63525l2.71436-4.05237.08349,3.63232-2.82617-3.975-.0332-.04663a3.12213,3.12213,0,0,1-.04932-3.536l2.71436-4.05225.08154,3.53259L180.2468,191.52l-.03223-.04528a3.03451,3.03451,0,0,1-.04736-3.43848l2.71436-4.04846.07861,3.4331L180.134,183.4471l-.03125-.04395a2.94664,2.94664,0,0,1-.0459-3.33972l2.71435-4.04724.07618,3.33362-2.82618-3.97217-.03027-.04272a2.85912,2.85912,0,0,1-.04443-3.2417l2.71484-4.0448.07324,3.234-2.82617-3.972-.0293-.04126a2.77258,2.77258,0,0,1-.04394-3.1416l2.71484-4.0492.07178,3.13208-2.82617-3.973-.02881-.04a2.68457,2.68457,0,0,1-.042-3.04223l2.71435-4.0492.06983,3.032-2.82617-3.97216-.02784-.0387a2.59847,2.59847,0,0,1-.041-2.94348l2.71484-4.04859.06738,2.93164-2.82666-3.97253-.02636-.03735a2.50958,2.50958,0,0,1-.03955-2.84461l2.71484-4.04785a2.49167,2.49167,0,0,1,4.16357,2.73792Z"/><path class="b4c17ee2-c258-4dfc-88c5-752de6a059b5" d="M208.33567,159.20454q-.78737,1.55073-1.52979,3.12049l-.01025-1.51416,1.311,3.215.03028.07349a1.74217,1.74217,0,0,1-.02051,1.35779l-1.40527,3.1698-.00928-1.39441,1.40869,3.17138a1.75163,1.75163,0,0,1,.00977,1.39551q-.68482,1.59449-1.32862,3.20655l-.00976-1.42469,1.46679,3.14685a1.75945,1.75945,0,0,1,.04834,1.37879l-.03759.09729-1.25586,3.24341-.00489-1.55457,1.52442,3.18481a1.98379,1.98379,0,0,1-.37061,2.24317l-.13379.13574-2.40039,2.44678.71192-1.35645c-.0918,1.09131-.20411,2.17981-.27442,3.27417a2.11983,2.11983,0,0,1-1.13037,1.74341l-.31445.16419-2.91016,1.5227,1.33887-1.29492c-.4126,1.015-.7959,2.04431-1.186,3.07007a2.49332,2.49332,0,0,1-1.897,1.56946l-.50732.08837c-1.08106.18921-2.16407.35413-3.24366.56324l1.99659-.918-2.10059,2.5404a2.88,2.88,0,0,1-2.60742,1.01941l-.79639-.10974c-1.09228-.1499-2.17969-.31665-3.27539-.45276l2.772-.29016c-.917.61279-1.82519,1.244-2.72754,1.88562a4.47085,4.47085,0,1,1-5.18017-7.28833,4.60069,4.60069,0,0,1,1.22168-.61218c1.0542-.33887,2.10351-.68811,3.14307-1.05591l.94531-.33423a2.56812,2.56812,0,0,1,1.82715.04407c1.022.418,2.05224.8053,3.07763,1.20935l-3.40283.90967,2.57031-2.06433.521-.4187a2.26943,2.26943,0,0,1,1.47559-.49939c1.09912.02624,2.19482.00842,3.292.01477l-2.40381,1.65759c.55517-.94653,1.11816-1.88953,1.65137-2.84668l.167-.29932a2.19289,2.19289,0,0,1,1.17187-.99585l3.08985-1.11377-1.44483,1.90735c.23487-1.07116.42676-2.14843.63965-3.22278l.04736-.23962a1.93373,1.93373,0,0,1,.665-1.11706l2.63868-2.18763-.50391,2.37854-1.28613-3.2882-.05078-.12916a1.82041,1.82041,0,0,1,.04541-1.42578l1.47021-3.1521.01074,1.47571-1.34765-3.2-.0293-.07043a1.69519,1.69519,0,0,1,.01953-1.35462q.7207-1.57927,1.39746-3.17712l.00977,1.39514-1.40576-3.173a1.74341,1.74341,0,0,1-.02-1.36866l.01074-.02612,1.32129-3.20581.00976,1.43091-1.50342-3.12964a1.75666,1.75666,0,0,1-.05908-1.38892l.04834-.12548q.62256-1.621,1.19678-3.26282a2.0824,2.0824,0,1,1,3.92969,1.37951A2.29864,2.29864,0,0,1,208.33567,159.20454Z"/><polyline class="a3df1138-c670-4f29-95cb-80dae86bcaee" points="165.923 148.889 164.518 151.254 165.883 153.642 164.478 156.003 165.844 158.389 164.439 160.755 165.805 163.145 164.4 165.512 165.765 167.906 164.361 170.305 166.086 171.132 165.388 172.82 167.2 173.03 166.995 174.846 168.78 174.478 169.227 176.245 170.749 175.236 171.813 176.717 172.916 175.256"/><path class="a7f6b381-9b80-455a-bddf-bdfad2eeb11a" d="M294.26143,227.51479c1.17065.16763,2.49738.561,2.95627,1.65095a.77941.77941,0,0,0,.75829,1.36066c-.12624.52806.4433.98082.97945,1.06641a14.23523,14.23523,0,0,1,1.62055.112c.52276.14665.98564.762.688,1.21609l1.83962-2.5106c.12681-.17307.284-.363.49846-.36927.24994-.00734.42635.23431.647.35194a1.40686,1.40686,0,0,0,.94892.02186c1.7414-.36912,3.51262-.68109,5.22667-1.1447-2.73255-.94-5.84149-2.60106-8.67582-3.11961-3.44082-.62952-6.99135.76495-10.61153.23572A5.1955,5.1955,0,0,0,294.26143,227.51479Z"/><path class="f9619471-ee1a-4566-8d66-1b78381cd76b" d="M178.2235,233.27612a.81234.81234,0,0,1-.83618-.48275,6.4027,6.4027,0,0,1-.31456-.98957,7.62259,7.62259,0,0,0-1.17847-1.85137,2.514,2.514,0,0,1-.5623-2.05448c-.97252.03426-2.05352.712-2.82487.1187a1.67568,1.67568,0,0,1-.36653-1.80354,6.17841,6.17841,0,0,0,.53728-1.686,6.83239,6.83239,0,0,1-1.1218.47829c-.562.06975-1.03415-.48074-1.52393-.37982a.81145.81145,0,0,0-.39294.27322l-.91232.95611a.52867.52867,0,0,1-.22574.1644c-.31225.08619-.46595-.38823-.3788-.70021s.23839-.6943.00536-.9193c-.27168-.26232-.7052.01109-.99746.25027s-.8234.39575-.96836.047l-1.28.03519a.36091.36091,0,0,0-.23242.06086.38489.38489,0,0,0-.09231.2577A3.04162,3.04162,0,0,1,163.058,227.314a.61943.61943,0,0,1-.65094.06264.64543.64543,0,0,1-.19024-.297c-.21568-.5465-.19576-1.92042-.52376-2.31271-.35-.41865-1.57734-.58546-2.11516-.82762a5.565,5.565,0,0,0-.64378,3.40036c.0126,1.20059-.95261,2.6996-.88163,3.71524a3.62462,3.62462,0,0,0-2.08146-2.98764,7.38443,7.38443,0,0,0,.69665,3.22621,3.09275,3.09275,0,0,1-1.09966-1.66511,4.81174,4.81174,0,0,0-.36408,2.98167,1.53079,1.53079,0,0,1,.0523.60549.43376.43376,0,0,1-.41737.37148,2.4388,2.4388,0,0,1-1.484,1.71935c.0295.44657.71188.35569,1.11381.15886,1.06686-.52245,2.50272-.71377,3.32245.146a23.93187,23.93187,0,0,1,2.72444-2.24934l-.46657.26054c3.35854,1.77976,7.13754,3.38187,10.85818,2.60455a2.18948,2.18948,0,0,0-.82138-2.73114,3.37064,3.37064,0,0,0,4.18025.67935l-.27776-.47251c.10538-.61491.98913-.68607,1.55839-.43082A5.94261,5.94261,0,0,0,178.2235,233.27612Z"/><path class="a7f6b381-9b80-455a-bddf-bdfad2eeb11a" d="M165.19143,236.37236a12.68061,12.68061,0,0,0,1.12667-7.37434,10.42321,10.42321,0,0,0,.76841,2.28163,1.58636,1.58636,0,0,0,.60364.7669c.70641.38372,1.49044-.33212,1.976-.97283l.08762,2.64626a7.23367,7.23367,0,0,0,4.36348-1.20535,8.0508,8.0508,0,0,1-5.66137,5.17688.73061.73061,0,0,0-.08264-1.123,1.1419,1.1419,0,0,0-.55419-.14017,10.20541,10.20541,0,0,0-2.62818.49889,2.85285,2.85285,0,0,1-2.54864-.40815c-1.12494-1.03232-.49971-3.06107-1.45245-4.25416a3.01487,3.01487,0,0,0-2.306-.93572c-.85614-.02658-1.71475.11831-2.5674.03664.15126.607.9635.85859,1.12777,1.46219.19335.71049-.653,1.29082-1.38824,1.33033a8.24371,8.24371,0,0,0-2.19548.03873,6.44623,6.44623,0,0,0,3.33267,1.34286,2.95732,2.95732,0,0,1,1.4343.33435c.408.28379.55055.99238.12457,1.24844"/><path class="f9619471-ee1a-4566-8d66-1b78381cd76b" d="M195.00978,230.458l2.92007-.91029a.75484.75484,0,0,0,.61762.75894,1.97088,1.97088,0,0,0,1.05183-.12845,12.47234,12.47234,0,0,0,2.90731-1.39853c.33945.89248,1.618.80137,2.5377.54488l3.7804-1.05423a3.77335,3.77335,0,0,0-.99879,3.59005,13.47785,13.47785,0,0,0-7.12646,1.00936,2.75734,2.75734,0,0,0-1.50194,1.20934c-.57056,1.23279.62875,2.517,1.70234,3.34927a9.75024,9.75024,0,0,1-2.42932,1.28429,1.6626,1.6626,0,0,1-.9876.12226c-.81774-.22595-.87605-1.45022-.36211-2.12521a12.9859,12.9859,0,0,1,1.97956-1.58448c-.76627-1.17072-2.4423-1.21739-3.83312-1.06324-1.76317.19541-3.53047,4.77778-5.20749,2.17426-1.17056-1.81724,1.48622-5.50308,2.68023-6.5896C192.98773,230.83025,194.06109,230.75371,195.00978,230.458Z"/><path class="a7f6b381-9b80-455a-bddf-bdfad2eeb11a" d="M196.78634,236.08316c.223.0689.3185-.26581.35049-.497a2.82211,2.82211,0,0,1,1.50063-1.76917,31.188,31.188,0,0,1,3.85429-2.09209,8.52328,8.52328,0,0,0-4.12742,1.689c-.41757.32053-.84231.78023-.74741,1.298.05239.28582.2593.52784.29729.81593.07424.5629-.55992,1.01173-1.12631.97214a2.91221,2.91221,0,0,1-1.4997-.75068.52755.52755,0,0,1-.1792.78709.797.797,0,0,1-.86587-.16308,1.71105,1.71105,0,0,1-.44863-.80907,4.222,4.222,0,0,1,.05983-2.54709,4.95093,4.95093,0,0,1-1.60293,5.17.28284.28284,0,0,1,.25664-.32917,9.19426,9.19426,0,0,0-.52768-3.99244,5.53512,5.53512,0,0,0,1.64713,1.31556.48559.48559,0,0,0,.41346.06921c.15221-.07027.1925-.264.2137-.43029l.15862-1.24428,1.0848,1.07353a.26826.26826,0,0,0,.47643-.026l2.32673-2.6964c-.41248,1.78744-2.51266,3.04728-2.32692,4.87227,1.70181-1.9085,3.5012-3.8855,5.89584-4.7823a11.2402,11.2402,0,0,0-.35272,1.46453.87045.87045,0,0,0,.01215.47942.90761.90761,0,0,0,.41209.38381l1.56875.93533a10.55488,10.55488,0,0,0-2.45815-.18253.91189.91189,0,0,0-.62119.19177.79028.79028,0,0,0-.0709.8349,2.8,2.8,0,0,1,.28588.83485l-1.98035.20226a.8421.8421,0,0,0-.61314.24035c-.13669.18024-.00393.5262.21575.47224"/><path class="a7f6b381-9b80-455a-bddf-bdfad2eeb11a" d="M217.871,253.27242a16.82912,16.82912,0,0,1,2.60324-5.72653,1.7669,1.7669,0,0,0,.82477,2.31871,1.54411,1.54411,0,0,0,2.06016-1.17c0,2.63344,1.97842,5.2084,1.14814,7.70752a9.84934,9.84934,0,0,0,4.18024-2.61834,9.59832,9.59832,0,0,0,.51005,1.87778"/><path class="a7f6b381-9b80-455a-bddf-bdfad2eeb11a" d="M95.29963,232.65123a5.3899,5.3899,0,0,1-3.84308-3.01979c.79576-.65735,1.97-.51637,2.93768-.87554s1.55459-1.95933.57767-2.29245a6.62245,6.62245,0,0,0,3.76166,1.26636,2.8581,2.8581,0,0,0,2.22909,3.83165"/><path class="a7f6b381-9b80-455a-bddf-bdfad2eeb11a" d="M421.90894,247.92028l3.77317-9.49006a8.01019,8.01019,0,0,0-1.14787,6.43935,1.79942,1.79942,0,0,1,1.13226-.46667l2.4046,7.08219"/><line class="bbd13bd4-53aa-4ab0-9baa-c48e4152343e" x1="530.04255" y1="283.85046" y2="282.85046"/></g></svg>