<svg preserveAspectRatio="none" id="ba83d95b-85a1-4f32-a450-6e5025f81155" data-name="Layer 1" xmlns="http://www.w3.org/2000/svg" xmlns:xlink="http://www.w3.org/1999/xlink" viewBox="0 0 530.04255 298.14894"><defs><style>.a7e22af4-ccee-4b69-9863-d2e8f6b7bb3e,.aa09240c-b337-42e3-b614-13929a1484df,.ae12e41c-7b70-426e-a2f9-348025c00c42,.b85dfc0e-8a72-4c58-9271-95b1b7e4c9a9,.b90dbdc7-ed90-4455-88ac-13b5bed6584d,.beb9ccd6-4db5-401e-b828-9f155d3335a2,.e1fe3df4-1eb3-4565-b8d0-0aa7bbffadaf,.eaedfe8a-b4c8-46b8-910b-0bb87baee733,.ef325463-37d1-402f-b356-dce6e19d8637,.f5fb5c71-4e1f-437d-ae2f-297c7eee3df5,.fbefa9f8-8d2e-42f9-a593-d13906814b3f{fill:none;}.bc0e1ccb-54b5-4519-84f1-21f2f43ab437{clip-path:url(#a85fbd67-6d79-4b27-bdd7-235fd926e8ad);}.aa0ad25d-046a-4a76-a816-8e806506c050{fill:#decda8;}.b450485f-6228-4861-a613-fc25e8965fce{fill:#c59f74;}.a78d79db-a739-48c6-9701-a85b408e33b8{fill:#ddc09b;}.a0cce3ce-60e6-4390-a3db-79f70c78be3b,.b009493a-8e3d-4083-abbb-8e8c8ef4f193{fill:#1d3549;}.ae12e41c-7b70-426e-a2f9-348025c00c42,.b009493a-8e3d-4083-abbb-8e8c8ef4f193{stroke:#273958;}.a7e22af4-ccee-4b69-9863-d2e8f6b7bb3e,.ae12e41c-7b70-426e-a2f9-348025c00c42,.b009493a-8e3d-4083-abbb-8e8c8ef4f193,.b85dfc0e-8a72-4c58-9271-95b1b7e4c9a9,.b90dbdc7-ed90-4455-88ac-13b5bed6584d,.beb9ccd6-4db5-401e-b828-9f155d3335a2,.e1fe3df4-1eb3-4565-b8d0-0aa7bbffadaf,.eaedfe8a-b4c8-46b8-910b-0bb87baee733,.ef325463-37d1-402f-b356-dce6e19d8637,.f5fb5c71-4e1f-437d-ae2f-297c7eee3df5,.fbefa9f8-8d2e-42f9-a593-d13906814b3f{stroke-linecap:round;}.b009493a-8e3d-4083-abbb-8e8c8ef4f193,.b85dfc0e-8a72-4c58-9271-95b1b7e4c9a9,.b90dbdc7-ed90-4455-88ac-13b5bed6584d,.beb9ccd6-4db5-401e-b828-9f155d3335a2,.ef325463-37d1-402f-b356-dce6e19d8637{stroke-linejoin:round;}.b009493a-8e3d-4083-abbb-8e8c8ef4f193{stroke-width:9.23038px;}.b70515b7-bbc0-4903-91df-4ebd5dfeb327,.b7d7f70c-bc8e-4780-9b65-1658545c9b06{fill:#414042;}.b7d7f70c-bc8e-4780-9b65-1658545c9b06{opacity:0.48;}.ef325463-37d1-402f-b356-dce6e19d8637{stroke:#808285;stroke-width:5.69075px;}.e8d18c53-72d4-4e59-a734-dee2bc2182f5{fill:#5d5f8f;}.a04ccfc6-cb67-4a69-80ee-8ff2623214de{fill:#394374;}.a3721d7a-cdb5-49cc-9889-ace62209726d{fill:#273958;}.b85dfc0e-8a72-4c58-9271-95b1b7e4c9a9{stroke:#394374;stroke-width:7.31387px;}.beb9ccd6-4db5-401e-b828-9f155d3335a2{stroke:#1d3549;stroke-width:7.58767px;}.a7e22af4-ccee-4b69-9863-d2e8f6b7bb3e,.ae12e41c-7b70-426e-a2f9-348025c00c42,.e1fe3df4-1eb3-4565-b8d0-0aa7bbffadaf,.eaedfe8a-b4c8-46b8-910b-0bb87baee733,.f5fb5c71-4e1f-437d-ae2f-297c7eee3df5,.fbefa9f8-8d2e-42f9-a593-d13906814b3f{stroke-miterlimit:10;}.ae12e41c-7b70-426e-a2f9-348025c00c42{stroke-width:2.08968px;stroke-dasharray:2.08968 3.13452;}.aee2a227-3154-46ad-8a8a-11030fa78b74{fill:#d1d3d4;}.a5551ff1-ac22-478e-84bd-27ab953d20dc{fill:#e6e7e8;}.b55c6408-1ff7-46fc-8827-d07100a3ad05{fill:#fff;}.b90dbdc7-ed90-4455-88ac-13b5bed6584d{stroke:#415829;stroke-width:5.813px;}.e427bb2c-407f-42c9-8e70-4637dc650a73{fill:#678e3d;}.a9561aef-2452-4486-9125-735f6dda85e3{fill:#537435;}.faad632d-9cac-427f-aa31-a94dfb9f7513{fill:#415829;}.f290e117-84f5-4df6-a7ff-c4369cfa857a{fill:#3b4923;}.fbefa9f8-8d2e-42f9-a593-d13906814b3f{stroke:#537435;}.e1fe3df4-1eb3-4565-b8d0-0aa7bbffadaf,.fbefa9f8-8d2e-42f9-a593-d13906814b3f{stroke-width:8.13819px;}.e1fe3df4-1eb3-4565-b8d0-0aa7bbffadaf{stroke:#678e3d;}.a7e22af4-ccee-4b69-9863-d2e8f6b7bb3e,.eaedfe8a-b4c8-46b8-910b-0bb87baee733,.f5fb5c71-4e1f-437d-ae2f-297c7eee3df5{stroke:#3b4923;stroke-width:2.3252px;}.f5fb5c71-4e1f-437d-ae2f-297c7eee3df5{stroke-dasharray:2.29498 3.44247;}.eaedfe8a-b4c8-46b8-910b-0bb87baee733{stroke-dasharray:2.33977 3.50966;}.ba759f64-04b7-41ed-84b9-cf60eae05bf7{fill:#5bbf90;}.a0e22e3c-1a36-42d0-8908-f23da11f1f20{fill:#21409a;}.ff284b58-be41-4494-8b9f-39220c4e4b06{fill:#ffde17;}.ae9bb7fe-6942-4724-a1df-ef82475fc659{fill:#b9deee;}.a1d48217-190e-40b4-a67a-f5e737c1c1e5{fill:#f37371;}.a89c9362-5e11-4987-ae08-813f11cc4431{fill:#86c66b;}.e9e88e3f-e190-4807-b53f-e447d2f473af{fill:#f26522;}</style><clipPath id="a85fbd67-6d79-4b27-bdd7-235fd926e8ad"><rect class="aa09240c-b337-42e3-b614-13929a1484df" width="530.04255" height="298.14894"/></clipPath></defs><title>Artboard 175</title><g class="bc0e1ccb-54b5-4519-84f1-21f2f43ab437"><g class="bc0e1ccb-54b5-4519-84f1-21f2f43ab437"><rect class="aa0ad25d-046a-4a76-a816-8e806506c050" x="115.94681" y="-115.94681" width="298.14894" height="530.04255" transform="translate(115.94681 414.09574) rotate(-90)"/><path class="b450485f-6228-4861-a613-fc25e8965fce" d="M85.45618,162.207a.81233.81233,0,0,1-.83618-.48274,6.40415,6.40415,0,0,1-.31457-.98957,7.62225,7.62225,0,0,0-1.17846-1.85137,2.514,2.514,0,0,1-.5623-2.05449c-.97252.03427-2.05352.712-2.82487.1187a1.67566,1.67566,0,0,1-.36653-1.80353,6.17836,6.17836,0,0,0,.53728-1.686,6.83281,6.83281,0,0,1-1.1218.4783c-.562.06975-1.03415-.48075-1.52393-.37983a.81154.81154,0,0,0-.39294.27323l-.91232.95611a.52875.52875,0,0,1-.22574.1644c-.31225.08619-.46595-.38823-.3788-.70021s.23839-.6943.00536-.9193c-.27168-.26232-.7052.01108-.99746.25027s-.8234.39575-.96836.047l-1.28.0352a.3609.3609,0,0,0-.23241.06086.38486.38486,0,0,0-.09231.25769,3.04162,3.04162,0,0,1-1.49919,2.2632.61943.61943,0,0,1-.65094.06264.64558.64558,0,0,1-.19025-.297c-.21567-.5465-.19575-1.92042-.52375-2.31272-.35-.41864-1.57735-.58545-2.11516-.82761a5.565,5.565,0,0,0-.64378,3.40036c.0126,1.20058-.95261,2.6996-.88163,3.71523a3.62463,3.62463,0,0,0-2.08146-2.98763,7.38446,7.38446,0,0,0,.69665,3.22621,3.09278,3.09278,0,0,1-1.09966-1.66512,4.81178,4.81178,0,0,0-.36408,2.98168,1.53078,1.53078,0,0,1,.0523.60549.43374.43374,0,0,1-.41737.37147,2.43881,2.43881,0,0,1-1.484,1.71936c.0295.44657.71188.35569,1.11381.15886,1.06686-.52245,2.50271-.71377,3.32244.146a23.93382,23.93382,0,0,1,2.72445-2.24933l-.46658.26053c3.35855,1.77976,7.13755,3.38188,10.85819,2.60455a2.18948,2.18948,0,0,0-.82138-2.73113,3.37066,3.37066,0,0,0,4.18025.67935l-.27776-.47251c.10538-.61491.98913-.68607,1.55839-.43082A5.94261,5.94261,0,0,0,85.45618,162.207Z"/><path class="a78d79db-a739-48c6-9701-a85b408e33b8" d="M72.42411,165.30329a12.68062,12.68062,0,0,0,1.12667-7.37434,10.42339,10.42339,0,0,0,.76841,2.28163,1.58636,1.58636,0,0,0,.60364.7669c.70641.38372,1.49044-.33212,1.976-.97283l.08762,2.64625a7.23366,7.23366,0,0,0,4.36348-1.20534,8.0508,8.0508,0,0,1-5.66137,5.17688.73062.73062,0,0,0-.08264-1.123,1.142,1.142,0,0,0-.55419-.14016,10.20541,10.20541,0,0,0-2.62818.49889,2.85291,2.85291,0,0,1-2.54865-.40815c-1.12493-1.03232-.4997-3.06108-1.45244-4.25416a3.0148,3.0148,0,0,0-2.306-.93572c-.85614-.02659-1.71475.11831-2.5674.03664.15125.607.9635.85858,1.12777,1.46219.19335.71049-.653,1.29082-1.38824,1.33032a8.24454,8.24454,0,0,0-2.19548.03873,6.44624,6.44624,0,0,0,3.33267,1.34287,2.95732,2.95732,0,0,1,1.4343.33435c.408.28379.55055.99238.12457,1.24844"/><path class="b450485f-6228-4861-a613-fc25e8965fce" d="M474.73942,216.676a.33344.33344,0,0,1-.34324-.19816,2.62926,2.62926,0,0,1-.12912-.40619,3.12885,3.12885,0,0,0-.48373-.76,1.03194,1.03194,0,0,1-.23082-.84332c-.3992.01406-.84292.29225-1.15955.04872a.68784.68784,0,0,1-.15045-.74031,2.53606,2.53606,0,0,0,.22054-.69208,2.80379,2.80379,0,0,1-.46047.19633c-.23071.02863-.4245-.19734-.62554-.15591a.33306.33306,0,0,0-.16129.11215l-.37449.39247a.217.217,0,0,1-.09266.06748c-.12817.03538-.19127-.15936-.15549-.28742s.09785-.285.0022-.37735c-.11152-.10768-.28947.00455-.40944.10272s-.338.16245-.39749.01931l-.52541.01444a.14815.14815,0,0,0-.0954.025.158.158,0,0,0-.03789.10577,1.24852,1.24852,0,0,1-.61538.929.25427.25427,0,0,1-.2672.02571.265.265,0,0,1-.07809-.1219c-.08853-.22433-.08035-.7883-.215-.94932-.14368-.17185-.64747-.24032-.86823-.33972a2.28433,2.28433,0,0,0-.26426,1.39577c.00518.49282-.391,1.10813-.36189,1.525a1.48782,1.48782,0,0,0-.85439-1.22636,3.03115,3.03115,0,0,0,.286,1.32429,1.26956,1.26956,0,0,1-.45139-.6835,1.97517,1.97517,0,0,0-.14945,1.22391.6283.6283,0,0,1,.02148.24855.17806.17806,0,0,1-.17133.15248,1.00108,1.00108,0,0,1-.60913.70576c.01211.1833.29221.146.4572.0652a1.1929,1.1929,0,0,1,1.36379.05993,9.82286,9.82286,0,0,1,1.11832-.9233l-.19152.10694a6.83165,6.83165,0,0,0,4.457,1.06911.89873.89873,0,0,0-.33716-1.12107,1.38357,1.38357,0,0,0,1.7159.27886l-.114-.194c.04326-.25241.406-.28162.63969-.17685A2.43925,2.43925,0,0,0,474.73942,216.676Z"/><path class="a78d79db-a739-48c6-9701-a85b408e33b8" d="M469.39,217.9469a5.20508,5.20508,0,0,0,.46247-3.027,4.279,4.279,0,0,0,.31542.93656.65121.65121,0,0,0,.24778.3148c.29.15751.61179-.13633.8111-.39933l.036,1.08623a2.96927,2.96927,0,0,0,1.79111-.49476,3.30467,3.30467,0,0,1-2.32387,2.125.2999.2999,0,0,0-.03392-.461.46879.46879,0,0,0-.22748-.05753,4.189,4.189,0,0,0-1.07881.20478,1.17111,1.17111,0,0,1-1.04617-.16753c-.46176-.42375-.20511-1.25651-.59619-1.74625a1.23753,1.23753,0,0,0-.94658-.38409c-.35142-.01091-.70387.04857-1.05386.015.06209.24916.3955.35243.46292.6002.07937.29164-.268.52985-.56984.54607a3.38369,3.38369,0,0,0-.90119.0159,2.646,2.646,0,0,0,1.368.55121,1.214,1.214,0,0,1,.58875.13725c.16749.11649.226.40735.05114.51245"/><path class="b450485f-6228-4861-a613-fc25e8965fce" d="M420.652,78.43007l2.92007-.91028a.75485.75485,0,0,0,.61762.75894,1.97092,1.97092,0,0,0,1.05184-.12845,12.47253,12.47253,0,0,0,2.90731-1.39853c.33944.89247,1.618.80136,2.5377.54488L434.467,76.2424a3.7734,3.7734,0,0,0-.99879,3.59,13.47779,13.47779,0,0,0-7.12645,1.00936,2.75722,2.75722,0,0,0-1.50194,1.20934c-.57056,1.23279.62874,2.517,1.70233,3.34926a9.74988,9.74988,0,0,1-2.42931,1.2843,1.66261,1.66261,0,0,1-.9876.12226c-.81775-.226-.87605-1.45022-.36211-2.12522a12.98536,12.98536,0,0,1,1.97956-1.58447c-.76628-1.17072-2.4423-1.21739-3.83313-1.06325-1.76316.19542-3.53047,4.77778-5.20749,2.17427-1.17056-1.81725,1.48623-5.50308,2.68024-6.5896C418.63,78.80235,419.70334,78.72581,420.652,78.43007Z"/><path class="a78d79db-a739-48c6-9701-a85b408e33b8" d="M422.42859,84.05525c.223.06891.3185-.2658.3505-.497a2.82209,2.82209,0,0,1,1.50063-1.76917A31.188,31.188,0,0,1,428.134,79.697a8.52324,8.52324,0,0,0-4.12742,1.689c-.41758.32053-.84231.78023-.74741,1.298.05238.28582.2593.52784.29729.81592.07424.56291-.55992,1.01174-1.12632.97214a2.912,2.912,0,0,1-1.49969-.75068.52756.52756,0,0,1-.1792.7871.797.797,0,0,1-.86587-.16308,1.71111,1.71111,0,0,1-.44864-.80907,4.222,4.222,0,0,1,.05984-2.54709,4.95093,4.95093,0,0,1-1.60294,5.17.28284.28284,0,0,1,.25664-.32917,9.19414,9.19414,0,0,0-.52768-3.99245,5.535,5.535,0,0,0,1.64714,1.31556.48554.48554,0,0,0,.41345.06922c.15221-.07027.19251-.264.21371-.43029l.15862-1.24428,1.0848,1.07352a.26825.26825,0,0,0,.47643-.026l2.32672-2.6964c-.41247,1.78745-2.51266,3.04729-2.32691,4.87228,1.70181-1.90851,3.50119-3.8855,5.89583-4.7823a11.23977,11.23977,0,0,0-.35271,1.46453.87046.87046,0,0,0,.01214.47942.90774.90774,0,0,0,.4121.38381l1.56874.93533a10.55488,10.55488,0,0,0-2.45815-.18253.91189.91189,0,0,0-.62119.19177.7903.7903,0,0,0-.0709.8349,2.80006,2.80006,0,0,1,.28589.83485l-1.98036.20226a.84211.84211,0,0,0-.61314.24034c-.13669.18025-.00392.52621.21576.47225"/><path class="a78d79db-a739-48c6-9701-a85b408e33b8" d="M299.86383,92.56853a16.82907,16.82907,0,0,1,2.60324-5.72652,1.76687,1.76687,0,0,0,.82476,2.3187,1.54412,1.54412,0,0,0,2.06017-1.17c0,2.63344,1.97841,5.2084,1.14814,7.70753a9.84946,9.84946,0,0,0,4.18024-2.61835,9.59811,9.59811,0,0,0,.51,1.87778"/><path class="a78d79db-a739-48c6-9701-a85b408e33b8" d="M156.28251,269.147a5.38993,5.38993,0,0,1-3.84309-3.0198c.79576-.65735,1.97-.51636,2.93769-.87553s1.55459-1.95933.57767-2.29245a6.62252,6.62252,0,0,0,3.76166,1.26635,2.85809,2.85809,0,0,0,2.22908,3.83165"/><rect class="b009493a-8e3d-4083-abbb-8e8c8ef4f193" x="152.30989" y="-27.45097" width="158.38175" height="60.12766" transform="translate(463.00154 5.22571) rotate(-180)"/><path class="b7d7f70c-bc8e-4780-9b65-1658545c9b06" d="M156.40052,137.97314a19.71658,19.71658,0,0,0,15.88875,7.79132l114.67,1.01222c27.4427,0,36.49011-18.45952,36.49011-33.4386l0-61.6681a25.34026,25.34026,0,0,0-3.79868-13.432,9.69867,9.69867,0,0,0-2.95336-3.24279,40.38887,40.38887,0,0,0-24.29138-6.28256L168.16047,34.69293c-9.02208.28868-16.17313,7.07194-16.17313,15.34132v73.83366a24.05259,24.05259,0,0,0,4.27055,13.90455Q156.32892,137.87345,156.40052,137.97314Z"/><polyline class="ef325463-37d1-402f-b356-dce6e19d8637" points="156.632 60.336 106.331 60.336 106.331 91.358 156.632 91.358"/><path class="e8d18c53-72d4-4e59-a734-dee2bc2182f5" d="M152.47246,130.755a19.71658,19.71658,0,0,0,15.88875,7.79132l114.67,1.01222c27.4427,0,36.49011-18.45952,36.49011-33.4386l0-61.6681a25.34023,25.34023,0,0,0-3.79868-13.432,9.69861,9.69861,0,0,0-2.95336-3.2428,40.38894,40.38894,0,0,0-24.29138-6.28256L164.23241,27.47477c-9.02208.28867-16.17313,7.07193-16.17313,15.34131v73.83366a24.05259,24.05259,0,0,0,4.27055,13.90455Q152.40086,130.65529,152.47246,130.755Z"/><path class="a04ccfc6-cb67-4a69-80ee-8ff2623214de" d="M163.7537,21.354H299.18412a16.73965,16.73965,0,0,1,16.73965,16.73965v75.04678a13.40506,13.40506,0,0,1-13.40506,13.40506H163.7537A16.73965,16.73965,0,0,1,147.014,109.80579V38.09361A16.73965,16.73965,0,0,1,163.7537,21.354Z" transform="translate(462.93782 147.8994) rotate(-180)"/><rect class="a3721d7a-cdb5-49cc-9889-ace62209726d" x="154.261" y="27.99225" width="153.85837" height="89.87234" rx="7.60287" transform="translate(462.38036 145.85685) rotate(-180)"/><path class="a0cce3ce-60e6-4390-a3db-79f70c78be3b" d="M240.634,45.86647H202.91357c-10.65526,0-20.59657-.123-31.062,1.62466a36.97622,36.97622,0,0,0-8.79892,2.21962c-9.034,3.97118-8.60456,11.69437-8.65226,19.08805-.036,5.58019,0,11.16146,0,16.742V99.61111c.00082,5.93824-1.73222,12.96758,5.04374,16.57946,8.34,4.44557,20.66281,1.47993,29.91991,1.47992h89.16742c6.29646,0,12.60394.09388,18.89951,0,6.98823-.10421,9.37192-3.97753,9.57295-9.30448.276-7.31322.00056-14.67486.00056-21.99248V69.8525a48.15018,48.15018,0,0,0-.85616-8.79838,16.14066,16.14066,0,0,0-1.96977-6.144c-1.7429-2.69963-4.96582-4.43816-8.2306-5.71515a50.52254,50.52254,0,0,0-16.11954-3.32854Z"/><path class="b85dfc0e-8a72-4c58-9271-95b1b7e4c9a9" d="M262.75623,133.42267v2.56606c0,8.67009-7.67293,15.69859-17.138,15.69859H216.76211c-9.46505,0-17.138-7.0285-17.138-15.69859v-2.56606"/><path class="beb9ccd6-4db5-401e-b828-9f155d3335a2" d="M118.276,60.33637h-8.004a4.17859,4.17859,0,0,0-3.9411,4.38107V86.97657a4.17859,4.17859,0,0,0,3.9411,4.38107h8.004"/><path class="ae12e41c-7b70-426e-a2f9-348025c00c42" d="M307.90087,119.04127c5.467-3.69139,4.53879-7.66534,4.53879-13.04812V38.55894c0-5.68814,1.44531-12.23458-6.68657-13.3752a35.5757,35.5757,0,0,0-4.73778,0h-139.424a19.39112,19.39112,0,0,0-5.34265.68893c-2.53452.74046-4.74726,2.14622-5.31252,4.62434-1.0785,4.72821.11943,8.49248.11943,13.12929V86.26159c-.00032,5.0148-.08874,10.03018-.11418,15.045-.033,6.51238-1.57157,14.11013,5.48176,18.152a19.65451,19.65451,0,0,0,5.33155,1.93969c8.33917,1.9433,17.28792-.2277,25.7684-.21455q6.67621.01037,13.35252,0h83.91962c6.13449,0,15.28985,1.56635,20.80344-.87122A14.7965,14.7965,0,0,0,307.90087,119.04127Z"/><circle class="aee2a227-3154-46ad-8a8a-11030fa78b74" cx="314.91349" cy="29.96086" r="7.01302"/><rect class="a5551ff1-ac22-478e-84bd-27ab953d20dc" x="322.41866" y="24.21738" width="9.81822" height="25.90691" rx="0.7013" transform="translate(523.10189 -227.77754) rotate(119.98255)"/><rect class="b55c6408-1ff7-46fc-8827-d07100a3ad05" x="313.32657" y="21.21997" width="3.38275" height="17.69755" rx="1.69137" transform="translate(498.48828 -227.76661) rotate(119.98246)"/><rect class="aa0ad25d-046a-4a76-a816-8e806506c050" x="331.79771" y="39.71645" width="7.50805" height="4.20781" transform="translate(539.46298 -227.9279) rotate(119.98255)"/><path class="b7d7f70c-bc8e-4780-9b65-1658545c9b06" d="M238.95253,276.50144c-4.3357,4.87509-11.78465,7.73508-19.67212,7.79132L77.30574,285.305c-33.97724,0-45.179-18.45952-45.179-33.4386l0-61.6681a21.855,21.855,0,0,1,4.7032-13.432,10.87366,10.87366,0,0,1,3.65661-3.24279c8.65065-4.66135,19.38845-6.698,30.07555-6.28257l153.83021,5.98033c11.17037.28868,20.0242,7.07194,20.0242,15.34131V262.3962a20.962,20.962,0,0,1-5.28744,13.90456Q239.04119,276.40175,238.95253,276.50144Z"/><path class="b90dbdc7-ed90-4455-88ac-13b5bed6584d" d="M91.14014,162.56782c9.00554-8.62653,26.1246-8.87454,40.77746-8.6335,7.85828.12927,15.91038.283,23.20823,2.15115a76.72435,76.72435,0,0,1,13.73845,5.33957"/><path class="e427bb2c-407f-42c9-8e70-4637dc650a73" d="M231.36036,269.28327c-4.3357,4.87509-11.78465,7.73509-19.67212,7.79132L69.71357,278.08681c-33.97725,0-45.179-18.45952-45.179-33.4386l0-61.6681a21.85489,21.85489,0,0,1,4.7032-13.432,10.87357,10.87357,0,0,1,3.65661-3.24279c8.65065-4.66135,19.38845-6.698,30.07555-6.28256l153.83021,5.98032c11.17037.28868,20.0242,7.07194,20.0242,15.34131V255.178a20.962,20.962,0,0,1-5.28744,13.90455Q231.449,269.18359,231.36036,269.28327Z"/><rect class="a9561aef-2452-4486-9125-735f6dda85e3" x="28.9887" y="159.88225" width="209.12981" height="105.19149" rx="26.12137"/><rect class="faad632d-9cac-427f-aa31-a94dfb9f7513" x="38.65146" y="166.52055" width="190.49448" height="89.87234" rx="44.93613"/><path class="f290e117-84f5-4df6-a7ff-c4369cfa857a" d="M123.463,192.47991c13.70253-1.13818,27.16557-2.85134,41.27114-2.755a74.12961,74.12961,0,0,1,13.94908,1.06526c4.57663.91444,8.85028,2.60539,13.51,3.25168,9.33937,1.29522,16.06458-.71316,23.91138,4.22509,3.04124,1.914,3.71711,3.7926,5.77849,6.05356,1.61584,1.77227,4.8172,3.14417,6.00888,5.07248,2.67325,4.32572-1.75156,11.03814-4.01242,15.00348-6.43075,11.27881-20.94773,18.92916-35.96091,24.07445a151.38206,151.38206,0,0,1-36.04581,7.80577c-33.36415,2.85356-75.5076-2.99444-103.07721-17.499a13.605,13.605,0,0,1-3.56979-2.40744c-4.98145-5.2671-4.62822-12.70511-3.92438-18.80148.27589-2.38974-.36231-6.16721.6259-8.40238,1.2511-2.82976,5.23867-3.698,7.73915-5.84212,1.35635-1.16323,2.18888-2.61776,3.52316-3.79487a20.02566,20.02566,0,0,1,6.71136-3.35758,64.737,64.737,0,0,1,26.975-3.8826c10.18738.55754,20.4437,1.323,30.65672.63911Q120.508,192.729,123.463,192.47991Z"/><path class="fbefa9f8-8d2e-42f9-a593-d13906814b3f" d="M89.79873,273.88893c2.82407,2.69324-3.74564,6.49208-1.20774,9.29883a7.30083,7.30083,0,0,0,2.97055,1.60106c4.93775,1.70294,10.52,2.47057,16.04648,3.098,9.11025,1.03426,18.31144,1.7425,27.54588,2.12029,10.3498.42341,21.03439.39923,30.70176-1.996,4.02712-.99779,8.242-2.78487,8.77615-5.51947.3792-1.94126-1.22629-3.78879-1.89848-5.69749a3.61683,3.61683,0,0,1,3.23006-4.84315"/><path class="e1fe3df4-1eb3-4565-b8d0-0aa7bbffadaf" d="M37.07326,212.95784c.40457-6.90378,6.2287-14.321,9.42412-20.7545a21.01406,21.01406,0,0,1,4.04224-6.14531c2.05178-1.97757,4.91258-3.39389,7.72583-4.76612,12.684-6.18692,26.13579-12.3939,41.25592-13.49267,16.42947-1.19384,33.04382-.367,49.4911.19647,22.28625.76343,46.59971,2.12852,62.91816,13.38412,5.832,4.02263,10.19066,9.05051,14.48522,14.02079,1.83-.41815,2.89364,3.48723,2.7665,4.90114l-1.10778,12.31849a43.55772,43.55772,0,0,1-1.05034,7.17142c-2.14735,8.21813-9.05042,15.41121-17.40189,21.05782-12.45485,8.421-28.48709,13.90249-45.227,15.46331-22.90136,2.13531-46.03829-2.90008-69.0754-1.8295-5.829.27089-11.83895.91734-17.39394-.41716a42.385,42.385,0,0,1-10.12272-4.31475c-10.20265-5.468-21.16782-11.77783-23.68736-20.91028-.91824-3.3283-.71631-7.02289-3.43769-9.75882-1.24688-1.25355-3.02134-2.19271-4.16153-3.50068S35.42319,213.92327,37.07326,212.95784Z"/><path class="a7e22af4-ccee-4b69-9863-d2e8f6b7bb3e" d="M36.10687,213.61137a6.32161,6.32161,0,0,1,.9663-.65356q.03371-.57569.11646-1.156"/><path class="f5fb5c71-4e1f-437d-ae2f-297c7eee3df5" d="M38.00164,208.46074c1.853-5.54224,5.9856-11.20337,8.49585-16.25733a21.01155,21.01155,0,0,1,4.04224-6.14526c2.05175-1.97778,4.91235-3.394,7.72583-4.76636C70.9494,175.105,84.4013,168.898,99.52142,167.79936c16.42944-1.19385,33.0437-.36719,49.491.19629,22.28638.76343,46.59986,2.12866,62.91822,13.38428a68.633,68.633,0,0,1,12.59448,11.842"/><path class="a7e22af4-ccee-4b69-9863-d2e8f6b7bb3e" d="M225.65594,194.52177q.38049.43946.76.87891a1.25778,1.25778,0,0,1,1.08667.27515"/><path class="eaedfe8a-b4c8-46b8-910b-0bb87baee733" d="M229.03875,198.77177a5.60477,5.60477,0,0,1,.14356,1.53q-.55372,6.1593-1.10767,12.31836a43.58373,43.58373,0,0,1-1.05029,7.17139c-2.14746,8.21826-9.05054,15.41138-17.4021,21.05786-12.45484,8.42114-28.48706,13.90259-45.22681,15.46338-22.90137,2.13525-46.03833-2.90015-69.07544-1.82959-5.8291.271-11.83911.91748-17.394-.417a42.38411,42.38411,0,0,1-10.12281-4.31494c-10.20263-5.46778-21.16772-11.77759-23.68725-20.91016-.91821-3.32837-.71631-7.02295-3.43775-9.75879-1.24682-1.25366-3.02124-2.19263-4.16137-3.50073-.14087-.16138-.26343-.30835-.36719-.44336"/><circle class="aee2a227-3154-46ad-8a8a-11030fa78b74" cx="31.94707" cy="212.64301" r="7.01302"/><rect class="a5551ff1-ac22-478e-84bd-27ab953d20dc" x="12.6819" y="199.73081" width="9.81822" height="25.90691" rx="0.7013" transform="translate(230.27528 195.09325) rotate(90)"/><rect class="b55c6408-1ff7-46fc-8827-d07100a3ad05" x="30.11131" y="203.83549" width="3.38275" height="17.69755" rx="1.69137" transform="translate(244.48704 180.88221) rotate(90.00017)"/><rect class="aa0ad25d-046a-4a76-a816-8e806506c050" x="4.39004" y="210.49785" width="7.50805" height="4.20781" transform="translate(220.74582 204.45769) rotate(90)"/><polygon class="b70515b7-bbc0-4903-91df-4ebd5dfeb327" points="358.19 76.01 361.521 84.312 368.389 101.427 395.876 90.399 447.058 69.862 440.191 52.747 389.009 73.283 385.678 64.981 436.86 44.445 429.993 27.33 378.81 47.866 351.323 58.895 358.19 76.01"/><path class="e8d18c53-72d4-4e59-a734-dee2bc2182f5" d="M438.724,23.884l3.94752,12.23645.19039.59016,1.68007,5.20788A10.2005,10.2005,0,0,1,450.62767,60.783l2.02727,6.28411c.04123.12779.10825.23854.158.361a3.19291,3.19291,0,0,0,.08274.3853l3.939,12.21a5.60718,5.60718,0,0,0,7.058,3.61507l4.14929-1.33857a5.60723,5.60723,0,0,0,3.615-7.0582l-2.528-7.83624L498.3917,57.9652a5.37983,5.37983,0,0,0,3.46819-6.77176l-9.98346-30.94659a5.37983,5.37983,0,0,0-6.77167-3.46835L455.842,26.21875l-2.29577-7.1164a5.60724,5.60724,0,0,0-7.0582-3.615l-4.14929,1.33857A5.60719,5.60719,0,0,0,438.724,23.884Z"/><path class="ba759f64-04b7-41ed-84b9-cf60eae05bf7" d="M412.5094,60.79127l-3.27084,12.43444-.15775.59972-1.39208,5.29213a10.2005,10.2005,0,0,1-5.04252,19.16966l-1.67976,6.3858c-.03416.12986-.0374.25927-.0615.38925a3.19211,3.19211,0,0,0-.138.36913l-3.26377,12.40754a5.60718,5.60718,0,0,0,3.99622,6.84937l4.21643,1.10912a5.60724,5.60724,0,0,0,6.84943-3.99646l2.09465-7.963,29.73623,7.822a5.37982,5.37982,0,0,0,6.57138-3.83431l8.27211-31.44731a5.37982,5.37982,0,0,0-3.83416-6.57146l-29.73623-7.822,1.90223-7.23154a5.60721,5.60721,0,0,0-3.99645-6.84943l-4.21643-1.10912A5.60718,5.60718,0,0,0,412.5094,60.79127Z"/><path class="ba759f64-04b7-41ed-84b9-cf60eae05bf7" d="M395.30332,241.3245l-3.27084,12.43444-.15775.59971-1.39208,5.29214a10.2005,10.2005,0,0,1-5.04252,19.16966l-1.67976,6.38579c-.03416.12986-.03741.25927-.0615.38926a3.192,3.192,0,0,0-.138.36912l-3.26377,12.40754a5.60717,5.60717,0,0,0,3.99622,6.84937l4.21643,1.10912a5.60722,5.60722,0,0,0,6.84943-3.99645l2.09465-7.963,29.73623,7.822a5.37982,5.37982,0,0,0,6.57137-3.83432l8.27212-31.4473a5.37982,5.37982,0,0,0-3.83417-6.57147l-29.73622-7.822,1.90223-7.23155a5.60722,5.60722,0,0,0-3.99645-6.84943l-4.21643-1.10912A5.60719,5.60719,0,0,0,395.30332,241.3245Z"/><path class="a0e22e3c-1a36-42d0-8908-f23da11f1f20" d="M416.86585,31.58791l5.6026,11.57257.27021.55815,2.38449,4.92533a10.2005,10.2005,0,0,1,8.63731,17.841l2.87726,5.94317c.05851.12086.14021.22127.20645.33568a3.19274,3.19274,0,0,0,.13525.37014l5.59049,11.54754a5.60717,5.60717,0,0,0,7.49027,2.60374l3.92417-1.8998A5.60722,5.60722,0,0,0,456.588,77.8949l-3.58791-7.41109,27.67513-13.3983a5.37982,5.37982,0,0,0,2.49787-7.18649L469.00382,20.63141a5.37983,5.37983,0,0,0-7.18643-2.498l-27.67513,13.3983-3.25833-6.7303a5.60722,5.60722,0,0,0-7.49049-2.60364l-3.92417,1.8998A5.60716,5.60716,0,0,0,416.86585,31.58791Z"/><path class="ff284b58-be41-4494-8b9f-39220c4e4b06" d="M401.89458-39.76888l-4.88773,11.89217-.23573.57356-2.08023,5.06135a10.20814,10.20814,0,0,1,3.4348,12.12731,10.208,10.208,0,0,1-10.97,6.20636l-2.51012,6.10731c-.051.1242-.07139.252-.11247.37769a3.1918,3.1918,0,0,0-.18564.34762L379.4703,14.79094a5.60717,5.60717,0,0,0,3.05458,7.318l4.03254,1.6574a5.60723,5.60723,0,0,0,7.3181-3.05481l3.13011-7.61576,28.43943,11.68871a5.37983,5.37983,0,0,0,7.021-2.93089L444.82739-8.2223a5.37983,5.37983,0,0,0-2.93073-7.0211L413.45723-26.93211l2.84257-6.91618a5.60722,5.60722,0,0,0-3.0548-7.31809l-4.03255-1.6574A5.60718,5.60718,0,0,0,401.89458-39.76888Z"/><path class="ff284b58-be41-4494-8b9f-39220c4e4b06" d="M350.00185,261.37248l-4.88772,11.89217-.23574.57356-2.08023,5.06135a10.2005,10.2005,0,0,1-7.5352,18.33368l-2.51013,6.10731c-.05105.12419-.07139.252-.11247.37769a3.19431,3.19431,0,0,0-.18564.34761l-4.87715,11.86645a5.60718,5.60718,0,0,0,3.05458,7.318l4.03255,1.65739a5.60723,5.60723,0,0,0,7.3181-3.0548l3.1301-7.61576,28.43944,11.6887a5.37982,5.37982,0,0,0,7.021-2.93088l12.36129-30.0759a5.37982,5.37982,0,0,0-2.93072-7.0211l-28.43944-11.6887,2.84257-6.91618a5.60723,5.60723,0,0,0-3.0548-7.3181l-4.03255-1.65739A5.60717,5.60717,0,0,0,350.00185,261.37248Z"/><polygon class="a04ccfc6-cb67-4a69-80ee-8ff2623214de" points="461.261 90.011 459.292 98.737 455.233 116.726 484.124 123.244 537.921 135.382 541.98 117.393 488.183 105.255 490.152 96.529 543.948 108.667 548.007 90.678 494.21 78.54 465.32 72.022 461.261 90.011"/><polygon class="ae9bb7fe-6942-4724-a1df-ef82475fc659" points="352.34 259.194 355.671 267.496 362.538 284.611 390.025 273.583 441.208 253.046 434.34 235.931 383.158 256.467 379.827 248.165 431.009 227.629 424.142 210.514 372.96 231.05 345.472 242.079 352.34 259.194"/><polygon class="e427bb2c-407f-42c9-8e70-4637dc650a73" points="373.688 156.999 371.719 165.724 367.661 183.714 396.551 190.232 450.348 202.37 454.407 184.38 400.61 172.243 402.579 163.517 456.376 175.654 460.434 157.665 406.638 145.528 377.747 139.009 373.688 156.999"/><path class="faad632d-9cac-427f-aa31-a94dfb9f7513" d="M443.33789,101.30541l2.02885,12.69635.09785.61235.86349,5.40361a10.2005,10.2005,0,0,1,3.12779,19.57345l1.04192,6.5203c.02119.1326.07048.25229.10093.38094a3.19328,3.19328,0,0,0,.02281.39342l2.02446,12.66889a5.60718,5.60718,0,0,0,6.42176,4.65238l4.30524-.688a5.60723,5.60723,0,0,0,4.65235-6.422l-1.29928-8.13076,30.36259-4.85187a5.37983,5.37983,0,0,0,4.46344-6.16138L496.421,105.84341a5.37982,5.37982,0,0,0-6.16128-4.46358l-30.36259,4.85187-1.17993-7.38387a5.60722,5.60722,0,0,0-6.422-4.65235l-4.30524.688A5.60717,5.60717,0,0,0,443.33789,101.30541Z"/><path class="faad632d-9cac-427f-aa31-a94dfb9f7513" d="M378.40265,16.66829l2.02885,12.69635.09785.61235.86348,5.40361a10.2005,10.2005,0,0,1,3.1278,19.57345l1.04192,6.5203c.02119.1326.07048.25229.10093.38094a3.19328,3.19328,0,0,0,.02281.39342l2.02446,12.66889A5.60718,5.60718,0,0,0,394.13251,79.57l4.30524-.688a5.60723,5.60723,0,0,0,4.65235-6.422l-1.29928-8.13076,30.36259-4.85187a5.37983,5.37983,0,0,0,4.46344-6.16138l-5.13106-32.10971a5.37982,5.37982,0,0,0-6.16128-4.46358l-30.36259,4.85187L393.782,14.21071a5.60722,5.60722,0,0,0-6.422-4.65235l-4.30525.688A5.60717,5.60717,0,0,0,378.40265,16.66829Z"/><path class="faad632d-9cac-427f-aa31-a94dfb9f7513" d="M404.364,183.456l2.02884,12.69635.09785.61235.86349,5.40361a10.2005,10.2005,0,0,1,3.12779,19.57345l1.04193,6.5203c.02119.1326.07048.2523.10092.38094a3.19331,3.19331,0,0,0,.02282.39342l2.02446,12.66889a5.60717,5.60717,0,0,0,6.42175,4.65238l4.30524-.688a5.60722,5.60722,0,0,0,4.65235-6.422L427.7522,231.117l30.36259-4.85187a5.37982,5.37982,0,0,0,4.46344-6.16138L457.44717,187.994a5.37982,5.37982,0,0,0-6.16128-4.46358L420.9233,188.3823l-1.17992-7.38387a5.60722,5.60722,0,0,0-6.422-4.65234l-4.30524.688A5.60718,5.60718,0,0,0,404.364,183.456Z"/><path class="a1d48217-190e-40b4-a67a-f5e737c1c1e5" d="M482.106,48.74653,478.83517,61.181l-.15776.59971-1.39208,5.29214a10.2005,10.2005,0,0,1-5.04252,19.16966l-1.67976,6.38579c-.03416.12986-.0374.25927-.0615.38926a3.19448,3.19448,0,0,0-.138.36912l-3.26377,12.40754a5.60718,5.60718,0,0,0,3.99622,6.84937l4.21643,1.10912a5.60722,5.60722,0,0,0,6.84943-3.99645l2.09465-7.963,29.73623,7.822a5.37983,5.37983,0,0,0,6.57138-3.83432l8.27212-31.4473a5.37983,5.37983,0,0,0-3.83417-6.57147l-29.73623-7.822,1.90224-7.23155a5.60724,5.60724,0,0,0-3.99646-6.84943L488.9552,44.75A5.60717,5.60717,0,0,0,482.106,48.74653Z"/><path class="a89c9362-5e11-4987-ae08-813f11cc4431" d="M411.09634,126.63064l4.52117,12.0363.21806.58051,1.92422,5.12269A10.2005,10.2005,0,0,1,424.7299,162.926l2.32188,6.18133c.04722.1257.1194.23316.1749.35314a3.19238,3.19238,0,0,0,.10085.381l4.5114,12.01027a5.60717,5.60717,0,0,0,7.22086,3.27761l4.08143-1.5331a5.60724,5.60724,0,0,0,3.27752-7.2211l-2.89537-7.70806,28.78412-10.81213a5.37982,5.37982,0,0,0,3.14441-6.928l-11.43428-30.44041a5.37982,5.37982,0,0,0-6.928-3.14457l-28.78412,10.81213-2.62939-7a5.60723,5.60723,0,0,0-7.2211-3.27752l-4.08142,1.5331A5.60717,5.60717,0,0,0,411.09634,126.63064Z"/><path class="e8d18c53-72d4-4e59-a734-dee2bc2182f5" d="M464.46354,146.04362l4.89965,11.88727.23631.57332,2.08531,5.05926a10.2005,10.2005,0,0,1,7.55359,18.32611l2.51625,6.10479c.05117.12414.12672.22926.186.34743a3.19393,3.19393,0,0,0,.11284.37758l4.88906,11.86154a5.60718,5.60718,0,0,0,7.32093,3.04756l4.03088-1.66144a5.60722,5.60722,0,0,0,3.04746-7.32116l-3.13774-7.61262,28.4277-11.71723a5.37982,5.37982,0,0,0,2.92368-7.024L517.164,138.22852a5.37981,5.37981,0,0,0-7.024-2.92384l-28.4277,11.71723-2.84951-6.91333a5.60723,5.60723,0,0,0-7.32116-3.04746l-4.03088,1.66144A5.60718,5.60718,0,0,0,464.46354,146.04362Z"/><path class="a1d48217-190e-40b4-a67a-f5e737c1c1e5" d="M358.4099,93.26456,355.13906,105.699l-.15775.59971-1.39209,5.29214a10.2005,10.2005,0,0,1-5.04252,19.16966l-1.67976,6.3858c-.03416.12986-.0374.25926-.06149.38925a3.19215,3.19215,0,0,0-.138.36913l-3.26376,12.40754a5.60716,5.60716,0,0,0,3.99621,6.84936l4.21643,1.10912a5.60722,5.60722,0,0,0,6.84943-3.99645l2.09465-7.963,29.73623,7.822a5.37982,5.37982,0,0,0,6.57138-3.83431l8.27212-31.44731a5.37983,5.37983,0,0,0-3.83417-6.57146l-29.73623-7.822L373.472,97.2266a5.60724,5.60724,0,0,0-3.99646-6.84944l-4.21643-1.10911A5.60717,5.60717,0,0,0,358.4099,93.26456Z"/><polygon class="a04ccfc6-cb67-4a69-80ee-8ff2623214de" points="457.093 218.546 460.515 226.811 467.568 243.85 494.933 232.522 545.889 211.428 538.835 194.389 487.88 215.483 484.458 207.218 535.414 186.124 528.36 169.085 477.405 190.178 450.04 201.507 457.093 218.546"/><polygon class="e9e88e3f-e190-4807-b53f-e447d2f473af" points="429.415 274.205 432.837 282.47 439.89 299.51 467.255 288.181 518.211 267.088 511.157 250.049 460.202 271.142 456.78 262.877 507.736 241.784 500.682 224.744 449.727 245.838 422.362 257.166 429.415 274.205"/><path class="ba759f64-04b7-41ed-84b9-cf60eae05bf7" d="M502.35271,216.88176l-3.27084,12.43444-.15776.59972-1.39208,5.29213a10.2005,10.2005,0,0,1-5.04252,19.16966l-1.67976,6.3858c-.03416.12986-.0374.25927-.0615.38925a3.19211,3.19211,0,0,0-.138.36913l-3.26377,12.40754a5.60719,5.60719,0,0,0,3.99622,6.84937l4.21643,1.10911a5.60722,5.60722,0,0,0,6.84943-3.99645l2.09465-7.963,29.73623,7.822a5.37983,5.37983,0,0,0,6.57138-3.83431l8.27212-31.44731a5.37983,5.37983,0,0,0-3.83417-6.57146l-29.73623-7.822,1.90223-7.23154a5.60721,5.60721,0,0,0-3.99645-6.84943l-4.21643-1.10912A5.60716,5.60716,0,0,0,502.35271,216.88176Z"/><path class="a3721d7a-cdb5-49cc-9889-ace62209726d" d="M371.15075,189.38138l5.6026,11.57257.27021.55814,2.38449,4.92533a10.2005,10.2005,0,0,1,8.63731,17.841l2.87726,5.94318c.05851.12086.14021.22126.20645.33567a3.19207,3.19207,0,0,0,.13525.37014l5.59049,11.54754a5.60718,5.60718,0,0,0,7.49027,2.60375l3.92417-1.89981a5.60721,5.60721,0,0,0,2.60364-7.49048l-3.58791-7.4111,27.67513-13.3983a5.37981,5.37981,0,0,0,2.49787-7.18648l-14.16926-29.26761a5.37983,5.37983,0,0,0-7.18643-2.49805l-27.67513,13.39831-3.25833-6.73031a5.60723,5.60723,0,0,0-7.49049-2.60364l-3.92417,1.8998A5.60717,5.60717,0,0,0,371.15075,189.38138Z"/></g></g></svg>