<svg id="a0e7de4f-97f6-4566-a935-61608b0bcc42" data-name="Layer 1" xmlns="http://www.w3.org/2000/svg" xmlns:xlink="http://www.w3.org/1999/xlink" viewBox="0 0 530.04255 298.14894" preserveAspectRatio="none"><defs><style>.a9791703-8107-49f0-aa0e-18cf7327303d,.bcd6cfea-9011-4b16-8994-07cb9cced86d{fill:none;}.a12e33ac-dabb-4afa-aa8c-65a08d916666{clip-path:url(#f19048a9-f20b-4a94-80ad-0c31ca09ce89);}.febf31a5-512d-44fc-8cde-70ee20a7f2ef{fill:#decda8;}.eb298426-29c2-4231-88b2-3df3032f08ac{fill:#6d6e71;}.bcd6cfea-9011-4b16-8994-07cb9cced86d{stroke:#bcbec0;stroke-miterlimit:10;stroke-width:8px;stroke-dasharray:25 8.076;}.fec191ea-8f5d-449a-ad52-19220a982692{fill:#3f3027;}.a4583986-9d9c-415f-b0e2-1bd9ce77c9dc{fill:#f6dac6;}.f15324fd-eeee-43c9-9cce-3dca63267cbd{fill:#c59f74;}.bad9e462-c741-497b-b2de-d2435ef633f9{fill:#ddc09b;}.b813de9e-ca65-488c-9eb2-a9bcb01f2653{fill:#ffefd6;}.a7a8af99-f17b-4414-a479-bfd87ba10a3b{fill:#4c4c4d;}.a4492bbd-5217-4ac8-93e0-6959bddebc2b{fill:#939598;}.f42a2a56-8268-4efa-b4f3-b58236e4639d{clip-path:url(#ece20501-40ab-4597-a78d-66b691411ba1);}.ae504a16-c7bd-4fbb-8e5b-1ec3771ffb10{fill:url(#bc3a67ab-569e-44e1-9c0e-66f517ffb92c);}.a0efecd4-8a36-43de-b9d9-321d7672ad52{fill:url(#a045c061-2b09-4a1e-ac85-41653566cecc);}.a8276baa-de80-412e-87bd-5370845907c3{fill:url(#a1e73321-95bb-4b15-9132-b302631ac8fc);}.ea9f00ba-bac9-4372-8143-4e933b0f369a{fill:url(#afc071e9-f909-4a32-a2b0-2ef7eb094f63);}.ea476ba8-9c1d-47cc-94c9-11ade0f6cc7a{fill:#414042;}</style><clipPath id="f19048a9-f20b-4a94-80ad-0c31ca09ce89"><rect class="a9791703-8107-49f0-aa0e-18cf7327303d" width="530.04255" height="298.14894"/></clipPath><clipPath id="ece20501-40ab-4597-a78d-66b691411ba1"><polygon class="a9791703-8107-49f0-aa0e-18cf7327303d" points="551.313 169.219 482.632 146.823 332.505 169.219 235.483 155.074 110.377 169.219 -22.468 169.219 -22.468 52.966 39.909 52.966 97.1 35.432 183.398 52.966 292.675 52.966 398.888 46.63 472.419 52.966 551.313 52.966 551.313 169.219"/></clipPath><linearGradient id="bc3a67ab-569e-44e1-9c0e-66f517ffb92c" x1="264.4468" y1="102.26155" x2="264.4468" y2="32.55942" gradientUnits="userSpaceOnUse"><stop offset="0" stop-color="#3f3027"/><stop offset="0.52206" stop-color="#60493d"/><stop offset="1" stop-color="#916f59"/></linearGradient><linearGradient id="a045c061-2b09-4a1e-ac85-41653566cecc" x1="170.47264" y1="100.34665" x2="170.47264" y2="35.43176" gradientUnits="userSpaceOnUse"><stop offset="0.0049" stop-color="#3f3027"/><stop offset="1" stop-color="#98745d"/></linearGradient><linearGradient id="a1e73321-95bb-4b15-9132-b302631ac8fc" x1="509.86785" y1="98.62065" x2="509.86785" y2="52.92372" gradientUnits="userSpaceOnUse"><stop offset="0.0049" stop-color="#3f3027"/><stop offset="0.3799" stop-color="#4b392f"/><stop offset="1" stop-color="#60493d"/></linearGradient><linearGradient id="afc071e9-f909-4a32-a2b0-2ef7eb094f63" x1="293.37692" y1="94.21899" x2="293.37692" y2="49.60457" gradientUnits="userSpaceOnUse"><stop offset="0.0049" stop-color="#3f3027"/><stop offset="1" stop-color="#60493d"/></linearGradient></defs><title>Artboard 375</title><g class="a12e33ac-dabb-4afa-aa8c-65a08d916666"><rect class="febf31a5-512d-44fc-8cde-70ee20a7f2ef" x="115.94681" y="-115.94681" width="298.14894" height="530.04255" transform="translate(115.94681 414.09574) rotate(-90)"/><polygon class="eb298426-29c2-4231-88b2-3df3032f08ac" points="453.65 298.149 279.777 298.149 279.777 194.141 366.714 194.141 453.65 194.141 453.65 298.149"/><line class="bcd6cfea-9011-4b16-8994-07cb9cced86d" x1="366.71364" y1="298.14894" x2="366.71364" y2="194.14081"/><polygon class="eb298426-29c2-4231-88b2-3df3032f08ac" points="453.863 104.008 279.99 104.008 279.99 0 366.926 0 453.863 0 453.863 104.008"/><line class="bcd6cfea-9011-4b16-8994-07cb9cced86d" x1="366.92641" y1="104.00813" x2="366.92641"/><polygon class="fec191ea-8f5d-449a-ad52-19220a982692" points="551.125 265.927 482.444 248.782 432.094 263.629 401.073 258.267 386.903 268.225 327.541 269.374 292.487 262.336 237.132 260.663 226.802 265.286 219.143 260.048 207.845 259.057 193.43 258.722 110.189 265.927 -22.656 265.927 -22.656 51.86 39.721 51.86 96.912 38.438 183.21 51.86 292.487 51.86 398.7 47.01 472.232 51.86 551.125 51.86 551.125 265.927"/><path class="a4583986-9d9c-415f-b0e2-1bd9ce77c9dc" d="M551.42159,266.30632c-11.28418-2.55273-22.70508-5.00879-34.32422-7.48-11.61524-2.44043-23.417-5.07568-35.2334-7.71924l1.25781-.02636L432.97334,266.61l-.65527.20313-.75293-.12158-31.082-5.01026,2.582-.5791-13.645,10.70459-.94629.74219-1.48633.05273-29.67138,1.05908-29.67237,1.01709-.52.01758-.627-.1206-35.10986-6.76026.93115.10694L236.95381,266.572l2.59326-.51319L229.238,270.72869l-3.01806,1.36718-2.7837-1.88769-7.67919-5.2085,2.86181,1.02393-6.30859-.52393-3.15381-.26269-1.57666-.13135-1.5874-.03711-12.70362-.2666.66553-.021-83.23047,7.32715-.15332.01367-.38183.00928-33.21094.83691c-5.53516.126-11.07031.30909-16.60547.38868l-16.606.25244-33.21093.50586-8.30274.12353-8.30273.042-16.606.084-8.4292.04248-.0083-8.48-.2041-214.06641-.0083-8.65967,8.6499.01758,62.377.126-1.9458.2251L94.99629,30.2741l1.61524-.37549,1.58984.25342c14.375,2.28857,28.7627,4.49414,43.12695,6.85107l43.104,7.00049-1.22168-.09473,53.81445.36817,26.91016.18408,26.915.29443c1.12207.03272,2.24267-.002,3.36279-.05176l3.36084-.12158,6.72168-.24267L317.74,43.85369l26.89111-.9712,53.7915-1.94189.40381-.01465.27344.02149,37.937,2.97509,18.97461,1.48926,9.48877.74463,4.74463.37256c.791.05664,1.58105.13623,2.37305.17383l2.37744.05224c12.6792.28125,25.36328.52979,38.05029.91748l38.07959,1.06641,3.16064.08838-.03906,3.0332-1.39941,107.873-.7876,53.45312Zm-.59278-.75879-.25634-213.687.55273.55274-76.3125.07568-2.38525.00244c-.79395-.02344-1.58643-.09619-2.37989-.1416l-4.75927-.311-9.519-.62255-19.03759-1.24463-38.07618-2.49024.07471.001-53.85059,2.49121L317.9543,51.4196l-13.46289.62256-6.73144.31153-3.36573.15576c-1.12158.06054-2.24365.10693-3.36718.08838L183.21065,52.675h-.0625l-.063-.00977L96.778,39.3029l.33447-.01269L39.93038,52.75261l-.10254.02393-.10694.00049-62.37695.03955.95605-.95606-.064,214.06641-.89209-.8916,132.84473.21093-.05811.00245,83.2417-7.19727.03662-.00293.03711.00049,12.89551.30176,1.61181.042,1.60694.14111,3.21338.28272,6.42773.56494.17481.01513.14453.09913,7.65869,5.23877-.64942-.05811,10.33057-4.62061.13965-.0625.15234.00489,55.354,1.687.05468.002.05372.01074,35.05175,7.05079-.13769-.0127,59.3623-1.1084-.332.1084,14.189-9.93066.19189-.13428.22949.03955,31.01856,5.374-.25.01465,50.356-14.82666.13867-.041.14013.03515C505.32735,253.95476,528.01827,259.73455,550.82881,265.54753Z"/><polygon class="eb298426-29c2-4231-88b2-3df3032f08ac" points="283.079 275.368 301.079 262.73 327.505 268.091 341.292 260.432 432.441 272.176 454.143 268.857 453.632 275.751 433.462 279.836 377.292 277.666 324.185 282.517 283.079 275.368"/><path class="f15324fd-eeee-43c9-9cce-3dca63267cbd" d="M488.6753,275.1815l2.92007-.91029a.75484.75484,0,0,0,.61762.75894,1.97088,1.97088,0,0,0,1.05183-.12845,12.47234,12.47234,0,0,0,2.90731-1.39853c.33945.89248,1.618.80137,2.5377.54488l3.7804-1.05423a3.77335,3.77335,0,0,0-.99879,3.59,13.47785,13.47785,0,0,0-7.12646,1.00936,2.75734,2.75734,0,0,0-1.50194,1.20934c-.57055,1.23279.62875,2.517,1.70234,3.34926a9.75,9.75,0,0,1-2.42932,1.2843,1.6626,1.6626,0,0,1-.9876.12226c-.81774-.22595-.87605-1.45022-.36211-2.12521a12.9859,12.9859,0,0,1,1.97956-1.58448c-.76627-1.17072-2.4423-1.21739-3.83312-1.06324-1.76317.19541-3.53047,4.77778-5.20749,2.17426-1.17056-1.81725,1.48622-5.50308,2.68023-6.5896C486.65325,275.55377,487.72661,275.47723,488.6753,275.1815Z"/><path class="bad9e462-c741-497b-b2de-d2435ef633f9" d="M490.45186,280.80668c.223.0689.3185-.26581.35049-.497a2.82212,2.82212,0,0,1,1.50063-1.76917,31.188,31.188,0,0,1,3.85429-2.09209,8.52328,8.52328,0,0,0-4.12742,1.689c-.41757.32053-.84231.78023-.74741,1.298.05239.28582.2593.52784.2973.81593.07423.5629-.55993,1.01173-1.12632.97214a2.91221,2.91221,0,0,1-1.4997-.75068.52755.52755,0,0,1-.1792.78709.79694.79694,0,0,1-.86586-.16308,1.711,1.711,0,0,1-.44864-.80907,4.22205,4.22205,0,0,1,.05983-2.54709,4.95093,4.95093,0,0,1-1.60293,5.17.28284.28284,0,0,1,.25664-.32917,9.19426,9.19426,0,0,0-.52768-3.99244,5.53528,5.53528,0,0,0,1.64713,1.31556.48559.48559,0,0,0,.41346.06921c.15221-.07027.1925-.264.2137-.43029l.15862-1.24428,1.0848,1.07353a.26826.26826,0,0,0,.47643-.026l2.32673-2.6964c-.41248,1.78744-2.51266,3.04728-2.32692,4.87227,1.70181-1.9085,3.5012-3.8855,5.89584-4.7823a11.2402,11.2402,0,0,0-.35272,1.46453.87045.87045,0,0,0,.01215.47942.90761.90761,0,0,0,.41209.38381l1.56875.93533a10.55488,10.55488,0,0,0-2.45815-.18253.91189.91189,0,0,0-.62119.19177.79028.79028,0,0,0-.0709.8349,2.8,2.8,0,0,1,.28588.83485l-1.98035.20226a.8421.8421,0,0,0-.61314.24035c-.13669.18024-.00393.5262.21575.47224"/><path class="bad9e462-c741-497b-b2de-d2435ef633f9" d="M148.1375,274.64119a16.829,16.829,0,0,1,2.60324-5.72653,1.76689,1.76689,0,0,0,.82477,2.3187,1.5441,1.5441,0,0,0,2.06016-1.17c0,2.63344,1.97842,5.2084,1.14814,7.70753a9.84946,9.84946,0,0,0,4.18024-2.61835,9.59813,9.59813,0,0,0,.51005,1.87778"/><path class="bad9e462-c741-497b-b2de-d2435ef633f9" d="M144.43742,294.22592a5.38989,5.38989,0,0,1-3.84308-3.0198c.79576-.65735,1.97-.51636,2.93768-.87553s1.55459-1.95933.57767-2.29245a6.62244,6.62244,0,0,0,3.76166,1.26635,2.8581,2.8581,0,0,0,2.22909,3.83165"/><polygon class="eb298426-29c2-4231-88b2-3df3032f08ac" points="280.036 36.07 280.419 48.325 380.568 50.623 445.1 47.176 452.76 44.879 452.951 35.304 373.116 40.927 280.036 36.07"/><path class="b813de9e-ca65-488c-9eb2-a9bcb01f2653" d="M454.16182,256.63738a46.219,46.219,0,0,1,7.07275-2.05713,35.40548,35.40548,0,0,1,3.60791-.63574c1.21875-.124,2.44581-.20313,3.66944-.29981a34.22072,34.22072,0,0,0,7.20068-1.35547c2.35547-.6958,4.73438-1.26611,7.12451-1.773l.21192-.04492.2456.06934q7.87647,2.21118,15.72364,4.52246l15.66162,4.7334q7.82226,2.39868,15.61426,4.89648,7.79882,2.47632,15.55761,5.08936l-.05615.19238q-7.94678-1.97022-15.84668-4.10254-7.91161-2.08887-15.79-4.29492l-15.74219-4.458q-7.85376-2.28882-15.68115-4.66846l.45752.02393c-2.41553.3667-4.84326.66943-7.293.84717a34.17842,34.17842,0,0,0-7.21728,1.26465c-1.1792.33984-2.35547.69775-3.54,1.01025a35.51186,35.51186,0,0,1-3.60059.67383,46.27851,46.27851,0,0,1-7.34472.56347Z"/><path class="b813de9e-ca65-488c-9eb2-a9bcb01f2653" d="M-8.43095,275.07927c5.12353-.22851,10.24853-.36426,15.373-.54687l15.375-.39307q15.37573-.3208,30.75293-.52051l15.37842-.07568,15.37988.06787q15.38086.10547,30.75782-.09619l-.03321.002c6.59278-.78467,13.18409-1.58056,19.76807-2.44629l19.75586-2.55957,19.769-2.45508c6.58545-.8457,13.20069-1.47412,19.80518-2.18212l.0791-.00879.09424.00586c7.49316.457,14.978,1.03369,22.46728,1.54443l.28662.01953.23145.16357c3.39355,2.39795,6.80762,4.76709,10.18506,7.188l-1.023-.05957,13.353-7.00683.208-.10889.21973.0127c6.72119.38769,13.438.85986,20.15576,1.30322,6.71924.42431,13.43213.97314,20.14844,1.45361l-.01025.19971c-6.73047-.20069-13.46436-.33252-20.1919-.58887-6.72851-.23779-13.45849-.44678-20.18457-.73974l.42774-.0962-13.2002,7.291-.51709.28564-.50586-.3457c-3.43115-2.34473-6.82568-4.74121-10.24023-7.10937l.51758.1831c-7.48926-.51074-14.98291-.95508-22.46875-1.51953l.17334-.00293c-6.605.63525-13.21631,1.18994-19.811,1.96338l-19.80176,2.11621-19.81445,2.01221c-6.60645.65869-13.20508,1.38672-19.80274,2.12549l-.01757.00195-.01612.00049q-15.37792.13036-30.75195.57519l-15.375.40381-15.37646.26025q-15.37794.13257-30.75684.1504l-15.37988-.05713c-5.12744-.0708-10.25391-.09424-15.38184-.21094Z"/><path class="b813de9e-ca65-488c-9eb2-a9bcb01f2653" d="M354.24434,49.526q5.55541-.73023,11.12549-1.24952c3.71045-.38085,7.42529-.70507,11.14209-.99316,3.71777-.28174,7.43457-.5708,11.16015-.73242,3.72559-.1626,7.45508-.26416,11.18262-.39209l.05371-.002.01953.00244c3.18848.38867,6.38282.6997,9.58057.97607,3.20068.23389,6.39941.49512,9.60547.669l9.61914.5039,9.61279.582c6.40283.45606,12.80957.8667,19.20459,1.41455,6.39453.55713,12.7793,1.23438,19.165,1.89991l-.061-.00244,30.63867.23486,30.63818.34424.00049.1997-30.63769.40821-30.63819.29834-.01709.00049-.04443-.00293c-6.40918-.3833-12.81885-.75489-19.21875-1.24707-6.39942-.501-12.78711-1.13916-19.17871-1.73194l-9.5791-.9917-9.57276-1.06933c-3.1914-.35059-6.39014-.61426-9.58642-.90479-3.19971-.248-6.40235-.46142-9.61133-.59765l.07275.00048c-3.71142.36817-7.42139.76221-11.13574,1.09522-3.71387.33447-7.436.5415-11.1582.75537-3.72266.20752-7.44727.37891-11.17578.49414q-5.58985.21827-11.19288.23779Z"/><path class="b813de9e-ca65-488c-9eb2-a9bcb01f2653" d="M-.25712,51.82382c3.35205-.08594,6.70166-.08838,10.05224-.1211l10.04834.03174,10.0459.13135c3.34766.07471,6.69629.11719,10.043.229l-.28467.03907c4.76465-1.46436,9.5708-2.79444,14.37305-4.13721,4.80078-1.34717,9.61181-2.66211,14.38916-4.08594,4.78125-1.41064,9.5249-2.94531,14.28027-4.44043l14.20361-4.69043.15479-.05127.189.03369q10.645,1.88819,21.25733,3.938c7.08105,1.33643,14.15869,2.689,21.21387,4.15723,7.063,1.42627,14.09765,2.99609,21.14648,4.49463,7.03369,1.57373,14.06836,3.144,21.07471,4.85644l-.03907.19629c-7.12841-1.09668-14.229-2.33545-21.33007-3.57031-7.08643-1.31055-14.18653-2.54932-21.2583-3.93213-7.08057-1.34082-14.1377-2.79736-21.19141-4.27q-10.58643-2.18334-21.148-4.48877l.34375-.01709L82.91475,40.20272c-4.77637,1.42725-9.56494,2.815-14.31543,4.32618-4.75439,1.49853-9.47559,3.106-14.20654,4.68115-4.72949,1.57959-9.45557,3.17187-14.22217,4.62988l-.13672.0415-.14892-.00292c-3.34766-.06543-6.69385-.19971-10.041-.30225l-10.03857-.40039L9.76924,52.67636c-3.34375-.21-6.689-.38965-10.03174-.65284Z"/><polygon class="a9791703-8107-49f0-aa0e-18cf7327303d" points="279.899 263.963 281.237 266.862 282.176 263.402 279.899 263.963"/><path class="a7a8af99-f17b-4414-a479-bfd87ba10a3b" d="M451.4006,249.86493l1.585,6.08423c-.335-2.011-.84814-4.0708-1.33057-6.12231Z"/><path class="a7a8af99-f17b-4414-a479-bfd87ba10a3b" d="M454.14284,256.544l-24.88238,2.57347L401.16411,255.076l-19.23992,8.55319L347.9939,256.219l-21,11.04256-8.55319-5.74468-24.44681-1.08511-11.68085.89362-1.07651,4.57926.96,2.07935-.96-2.07935-1.349,4.93138,36.90468-4.2661,13.78711,32.23487-4.5957-24.01807,18.89355-9.481-2.55322,18.96192,14.80859-18.32984s11.3375.38566,11.60605.43009l15.10051,5.68675,21.44681-9.57447,8.77183.25532,18.383,4.21277,13.5-2.17021,8.20213-1.14894Z"/><path class="a4492bbd-5217-4ac8-93e0-6959bddebc2b" d="M279.87618,270.22624l9.19482-1.33642c3.06494-.44727,6.13428-.85547,9.2041-1.25879l9.208-1.22119,9.21729-1.14551a.79134.79134,0,0,1,.82275.46826l.00488.01221L321.03,273.78c1.16407,2.67968,2.34864,5.35058,3.46827,8.04931l3.40234,8.07764c1.14941,2.686,2.21729,5.40674,3.33008,8.1084l-1.34717.41211L327.799,286.37761c-.67676-4.02-1.41553-8.02832-2.15772-12.03613a.35115.35115,0,0,1,.186-.37695l4.74023-2.33643c1.585-.76953,3.14649-1.585,4.71924-2.37891l9.41943-4.79443a.37957.37957,0,0,1,.54932.3833l-.001.00781-2.26171,19.001-1.19385-.51416,7.28418-9.26172,7.32324-9.23047a.91673.91673,0,0,1,.78125-.34521l.01953.00146,12.50586.92578a.93639.93639,0,0,1,.15869.02539l.01709.0044,8.18213,2.09082,8.165,2.1582-.63574.03516,10.23926-3.90088c3.4165-1.2915,6.81884-2.61963,10.24658-3.88135l.02343-.00879a.93663.93663,0,0,1,.47657-.04394l12.978,2.19824c4.32813.71973,8.64942,1.48584,12.96973,2.25537l-.20947.00391c3.78662-.67139,7.56543-1.38233,11.3584-2.021l11.37109-1.95605a.10006.10006,0,0,1,.03857.19629l-11.26123,2.5122c-3.751.85059-7.5166,1.62891-11.27392,2.44678a.53421.53421,0,0,1-.18408.00781l-.02588-.00342c-4.34815-.59228-8.6958-1.188-13.03614-1.83007l-13.02734-1.88672.49951-.05274c-3.39306,1.35352-6.811,2.64063-10.21533,3.96387l-10.22266,3.94434a1.04473,1.04473,0,0,1-.63623.03515l-8.17529-2.11865-8.15771-2.18555.1748.02979-12.49316-1.0835.80078-.34375-7.48535,9.09961-7.52393,9.06787-.01221.01465a.67228.67228,0,0,1-1.18213-.5293l2.84473-18.92236.54834.39111-9.47412,4.68653c-1.57617.78662-3.16357,1.55078-4.72754,2.36133l-4.70654,2.40429.186-.377c.78955,3.99853,1.583,7.99609,2.438,11.98193l2.51123,11.96826a.70723.70723,0,0,1-1.33838.43262l-.00879-.021c-1.185-2.67041-2.415-5.32227-3.56347-8.00879l-3.49121-8.03955c-1.17823-2.67334-2.29151-5.375-3.4253-8.06787l-3.3916-8.082.82764.48-9.23535.9878-9.24414.91162c-3.08057.3081-6.16211.61084-9.248.87451l-9.25732.79639a.09982.09982,0,0,1-.023-.19825Z"/><path class="a7a8af99-f17b-4414-a479-bfd87ba10a3b" d="M285.52827,63.85068a21.12065,21.12065,0,0,1-2.36408-7.04648c-.64334-4.40223-2.33017-9.08962-2.564-13.3792A13.09171,13.09171,0,0,0,290.667,46.73811c4.78185-.30521,9.40625-.35068,14.14715-.33556,3.71228.01183,8.75662,1.80367,12.31826.75085,1.90916-.56434,3.59993-2.127,5.57978-1.91857,3.14338.331,5.57475,2.64382,9.00014,2.8176A43.19565,43.19565,0,0,0,343.78693,46.867c6.336-1.554,10.79751-4.49678,17.68031-3.36085l15.3155,2.52763L391.59125,27.704,389.03806,46.6658l18.89362-9.4809-4.59574-24.01827,13.78723,32.23505,36.766-3.79236L449.5487,57.59216,351.25083,91.54961A160.48151,160.48151,0,0,1,320.484,85.60238c-7.98983-2.33828-15.98852-5.31526-23.02411-9.83439-6.2787-4.033-14.75883-11.76368-16.60035-19.2072a20.63686,20.63686,0,0,1-.44249-4.28442l-.30572-9.22042"/><path class="a4492bbd-5217-4ac8-93e0-6959bddebc2b" d="M453.9045,41.74983l-36.645,4.96289a1.27,1.27,0,0,1-1.32032-.71973l-.03613-.07861-.00049-.001-6.50586-16.28271-6.58593-16.248,1.08642-.332v.00244l5.436,23.85449a1.36119,1.36119,0,0,1-.67285,1.49561l-.08887.04834-.00293.00146q-4.73071,2.35327-9.50049,4.6294l-9.54053,4.5498-.042.02a1.07813,1.07813,0,0,1-1.52881-1.14111l2.97754-18.9043,1.1836.49072-3.82666,4.81592-3.76807,4.86133c-2.50781,3.24365-5.03809,6.4707-7.4917,9.75537a.4665.4665,0,0,1-.4873.17334l-.00635-.002c-6.00391-1.51612-12.0459-2.88379-18.08838-4.248l.46875-.0166L354.487,45.04426l-2.21778.80274c-.8125.26562-1.52343.4458-2.29052.66992-3.01612.8501-6.03125,1.70459-9.083,2.45068-1.5249.37891-3.0503.76123-4.60938,1.07715-.79345.15723-1.5376.31787-2.43847.42383l-.335.03906a3.84032,3.84032,0,0,1-.64307-.02881,2.969,2.969,0,0,1-.31152-.05371l-.1377-.05225-.27588-.10449-1.103-.418-8.79931-3.415.8916.01758c-1.4502.49658-2.92139,1.05567-4.314,1.65625a14.87446,14.87446,0,0,0-1.93066.96924,1.30072,1.30072,0,0,0-.17773.12012l-.21.1582a2.35792,2.35792,0,0,1-1.10546.46289,5.998,5.998,0,0,1-1.47705.02588,28.93013,28.93013,0,0,1-4.85108-1.00488c-1.55127-.44141-3.061-.93457-4.5835-1.47461l.40186.05176c-4.21924.2539-8.44434.4663-12.67578.667-1.08154.03564-2.06445.103-3.229.1123a7.8988,7.8988,0,0,1-3.24854-.92236,22.68779,22.68779,0,0,1-5.23145-3.74512.15025.15025,0,0,1,.19092-.23144l.00586.00488a25.713,25.713,0,0,0,5.39209,3.16992,6.94831,6.94831,0,0,0,2.86914.59912c.95215-.07763,2.07862-.2373,3.10987-.35205,4.21777-.47119,8.44189-.93213,12.67236-1.3501a.87411.87411,0,0,1,.34326.03321l.05859.01855c1.47657.45557,2.99512.87256,4.49854,1.24073a27.0163,27.0163,0,0,0,4.44336.80224,3.80037,3.80037,0,0,0,.88721-.02832c.06347-.01025.16113-.07178-.01416.03369l-.01709.01953.03759-.03125.07813-.06543.15869-.1289a2.96286,2.96286,0,0,1,.30469-.22266,16.89105,16.89105,0,0,1,2.26269-1.23047c1.49219-.68994,2.97657-1.25879,4.50684-1.81152a1.23924,1.23924,0,0,1,.85889.00488l.03271.0127,8.72949,3.28613,1.0874.41992.272.105.13623.05225c.02148.002-.01319-.02686-.02-.03272-.01563-.02392-.08985-.0166-.05762-.01367l.24707-.02978c.65332-.0708,1.44336-.227,2.1836-.37159l4.5498-.95849L349.445,44.429c.74414-.17578,1.56006-.34326,2.24366-.53125l2.23291-.68067,4.47021-1.35986.04346-.01318a.75248.75248,0,0,1,.42578-.00342c5.957,1.70019,11.915,3.396,17.91113,4.94336l-.49316.17138c2.5249-3.23095,4.97314-6.52,7.44433-9.792l3.7002-4.9126,3.64111-4.958a.65956.65956,0,0,1,1.187.4624l-.00341.02832-2.12842,19.019-1.57129-1.12109,9.3501-4.92969q4.67432-2.46606,9.39013-4.84961l.00293-.00146L406.53,37.44416l-3.75439-24.17675-.00049-.002a.57.57,0,0,1,1.07715-.35254l.00879.02051,7.20117,15.98535,7.28027,15.95117.00049.001-1.356-.79785,36.88671-2.62158a.15.15,0,0,1,.03077.29834Z"/><g class="f42a2a56-8268-4efa-b4f3-b58236e4639d"><polygon class="ae504a16-c7bd-4fbb-8e5b-1ec3771ffb10" points="530.043 40.028 99.653 32.559 0 40.028 -1.149 88.192 41.824 97.082 112.802 80.249 263.872 102.262 403.356 86.724 477.015 97.73 530.043 82.192 530.043 40.028"/></g><polygon class="a0efecd4-8a36-43de-b9d9-321d7672ad52" points="97.1 35.432 106.567 82.098 243.845 100.347 181.91 52.285 97.1 35.432"/><polygon class="a8276baa-de80-412e-87bd-5370845907c3" points="477.015 98.621 475.655 52.924 544.081 53.434 543.57 80.815 477.015 98.621"/><path class="ea9f00ba-bac9-4372-8143-4e933b0f369a" d="M183.39823,53.58865l31.6595,24.16226,35.02289-10.9123,53.234,9.57447L339.39816,94.219l63.95744-7.49544-49.10477-37.119-24.89362,6.12766s-9.19149-4.21277-10.91489-4.40426-25.76754,1.63758-25.76754,1.63758l-8.12608,3.14966-14.17021-3.06383-27.57447.383-15.70213,2.29787-10.34042-2.68085Z"/><polyline class="a7a8af99-f17b-4414-a479-bfd87ba10a3b" points="280.86 52.531 304.655 48.966 326.868 55.094 357.506 49.349 384.315 55.477 408.059 46.668 429.123 55.094 454.017 48.966 451.719 43.988"/><path class="ea476ba8-9c1d-47cc-94c9-11ade0f6cc7a" d="M281.67842,51.4196c2.90821-.10156,5.814-.11425,8.72071-.17334l8.71777-.02783c5.81152-.01758,11.62109.0752,17.43017.169l.10157.00146.10449.02686c3.44727.89111,6.88916,1.80371,10.31445,2.77929l-.34326-.01269,15.39111-2.41455c2.56153-.42236,5.12159-.85352,7.6753-1.31787,2.55713-.44727,5.10107-.96436,7.65234-1.44336l.06543-.01221.06738.01367c4.49024.90918,9.01075,1.67774,13.52,2.51221,4.48145.95752,8.95362,1.96436,13.42481,2.98l-.50244.02734,22.08886-8.062.14649-.05322.21435-.00342c.61817-.00976,1.2378-.05713,1.8545-.03564.61767.00244,1.23388.05224,1.8496.1123l.20557.02.11084.042,19.6875,7.44825-.48535-.02735,6.06006-1.37012L441.823,51.277c4.04493-.89112,8.105-1.72315,12.16993-2.53565l.04785.19434c-3.978,1.166-7.96045,2.313-11.95752,3.40039l-5.9917,1.647-6.00391,1.59815-.23535.0625-.25-.08985-19.81641-7.09863.31592.062c-.61816.01807-1.23633.02539-1.85254-.01514-.61718-.021-1.23144-.11084-1.84765-.16308l.36084-.05664L384.611,56.17107l-.25537.09131-.24707-.064c-4.4292-1.146-8.85694-2.30029-13.27539-3.50488l-6.69141-1.52734q-3.345-.77271-6.70557-1.47559l.13282.00146c-2.55518.457-5.11768.876-7.667,1.36475-2.55225.47217-5.09864.977-7.64356,1.49072l-15.24707,3.20264-.15283.03223-.19092-.04492C323.19991,54.926,319.74825,54.051,316.302,53.155l.20556.0288c-5.80761-.16211-11.61523-.3247-17.42089-.59716l-8.70752-.41065c-2.90186-.187-5.8042-.32715-8.70508-.55664Z"/></g><path class="ea476ba8-9c1d-47cc-94c9-11ade0f6cc7a" d="M279.3962,51.23406c2.90771-.10157,5.81347-.11426,8.7207-.17334l8.71728-.02832c5.812-.01709,11.6211.07568,17.43018.16894l.12256.002.12256.03759c4.00683,1.231,8.00781,2.48291,11.98925,3.79688l-.395-.019,8.0874-1.4419c2.69433-.48779,5.39648-.93652,8.08447-1.456,5.38379-.99805,10.73145-2.17334,16.082-3.3335l.083-.01758.09375.023,5.90576,1.46582c1.97217.47559,3.92871,1.00684,5.91846,1.41211,3.96972.84619,7.92334,1.75244,11.87988,2.644l-.47461.01758L405.883,46.45476l.17432-.05664.229.01611c.769.0542,1.543.0708,2.3086.15625.76806.06641,1.53076.17969,2.29248.30371l.1709.02784.09326.03808,16.7622,6.87793-.50537-.03515,6.06006-1.37012,6.07178-1.32129c4.04541-.89111,8.10547-1.72315,12.17041-2.53565l.04736.19434c-3.97754,1.166-7.96,2.313-11.957,3.40039l-5.9917,1.647-6.00439,1.59766-.24561.06592-.25976-.10059-16.90039-6.53174.26367.06592c-.77-.04639-1.53907-.103-2.30323-.207-.76562-.085-1.52392-.23828-2.28662-.354l.40284-.04053-24.1753,7.70215-.24365.07763-.231-.06005c-3.93115-1.02393-7.86523-2.03321-11.7832-3.10254-1.96631-.50489-3.90332-1.12647-5.85742-1.67823l-5.84961-1.70263.17627.00537c-5.37256,1.05273-10.74854,2.08984-16.08789,3.30517-2.67383.58643-5.3335,1.24414-8.00049,1.8628l-7.99756,1.877-.18115.04248-.21485-.06152c-4.03125-1.15235-8.04345-2.3667-12.04931-3.60205l.24463.03955c-5.80811-.16211-11.61573-.32471-17.4209-.59717l-8.708-.41065c-2.90137-.187-5.8042-.32714-8.70459-.55664Z"/></svg>