<?xml version="1.0" encoding="utf-8"?>
<!-- Generator: Adobe Illustrator 23.0.0, SVG Export Plug-In . SVG Version: 6.00 Build 0)  -->
<svg version="1.1" id="a4b440b1-0a1a-479e-9400-8c43fed0024a"
	 xmlns="http://www.w3.org/2000/svg" xmlns:xlink="http://www.w3.org/1999/xlink" x="0px" y="0px" viewBox="0 0 530 298.1"
	 style="enable-background:new 0 0 530 298.1;" xml:space="preserve" preserveAspectRatio="none">
	 

<style type="text/css">
	.st0{clip-path:url(#SVGID_2_);}
	.st1{fill:#DECDA8;}
	.st2{fill:#C59F74;}
	.st3{fill:#DDC09B;}
	.st4{fill:#F6DAC6;}
	.st5{fill:#E9CFBD;}
	.st6{fill:#D5BDAB;}
	.st7{fill:#FFFFFF;}
</style>
<title>Artboard 152</title>
<g>
	<defs>
		<rect id="SVGID_1_" width="530" height="298.1"/>
	</defs>
	<clipPath id="SVGID_2_">
		<use xlink:href="#SVGID_1_"  style="overflow:visible;"/>
	</clipPath>
	<g class="st0">
		<rect class="st1" width="530" height="298.1"/>
		<path class="st2" d="M85.5,162.2c-0.4,0-0.7-0.2-0.8-0.5c-0.1-0.3-0.2-0.7-0.3-1c-0.3-0.7-0.7-1.3-1.2-1.9
			c-0.5-0.6-0.7-1.3-0.6-2.1c-1,0-2.1,0.7-2.8,0.1c-0.5-0.5-0.6-1.2-0.4-1.8c0.3-0.5,0.4-1.1,0.5-1.7c-0.4,0.2-0.7,0.4-1.1,0.5
			c-0.6,0.1-1-0.5-1.5-0.4c-0.2,0-0.3,0.1-0.4,0.3l-0.9,1c-0.1,0.1-0.1,0.1-0.2,0.2c-0.3,0.1-0.5-0.4-0.4-0.7s0.2-0.7,0-0.9
			c-0.3-0.3-0.7,0-1,0.3s-0.8,0.4-1,0l-1.3,0c-0.1,0-0.2,0-0.2,0.1c-0.1,0.1-0.1,0.2-0.1,0.3c-0.1,0.9-0.7,1.8-1.5,2.3
			c-0.2,0.1-0.4,0.2-0.7,0.1c-0.1-0.1-0.2-0.2-0.2-0.3c-0.2-0.5-0.2-1.9-0.5-2.3c-0.3-0.4-1.6-0.6-2.1-0.8c-0.6,1-0.8,2.2-0.6,3.4
			c0,1.2-1,2.7-0.9,3.7c-0.1-1.3-0.9-2.4-2.1-3c0,1.1,0.2,2.2,0.7,3.2c-0.5-0.4-0.9-1-1.1-1.7c-0.4,0.9-0.6,2-0.4,3
			c0.1,0.2,0.1,0.4,0.1,0.6c0,0.2-0.2,0.4-0.4,0.4c-0.2,0.8-0.7,1.4-1.5,1.7c0,0.4,0.7,0.4,1.1,0.2c1.1-0.5,2.5-0.7,3.3,0.1
			c0.9-0.8,1.8-1.6,2.7-2.2l-0.5,0.3c3.4,1.8,7.1,3.4,10.9,2.6c0.4-1,0.1-2.1-0.8-2.7c1.1,1.2,2.8,1.5,4.2,0.7l-0.3-0.5
			c0.1-0.6,1-0.7,1.6-0.4C83.7,162.4,84.6,162.4,85.5,162.2z"/>
		<path class="st3" d="M72.4,165.3c1.1-2.3,1.5-4.9,1.1-7.4c0.2,0.8,0.4,1.6,0.8,2.3c0.1,0.3,0.3,0.6,0.6,0.8c0.7,0.4,1.5-0.3,2-1
			l0.1,2.6c1.5,0.1,3.1-0.3,4.4-1.2c-0.9,2.6-3,4.5-5.7,5.2c0.3-0.3,0.3-0.7,0-1c0,0-0.1-0.1-0.1-0.1c-0.2-0.1-0.4-0.1-0.6-0.1
			c-0.9,0.1-1.8,0.2-2.6,0.5c-0.9,0.3-1.8,0.1-2.5-0.4c-1.1-1-0.5-3.1-1.5-4.3c-0.6-0.6-1.4-1-2.3-0.9c-0.9,0-1.7,0.1-2.6,0
			c0.2,0.6,1,0.9,1.1,1.5c0.2,0.7-0.7,1.3-1.4,1.3c-0.7-0.1-1.5-0.1-2.2,0c1,0.8,2.1,1.2,3.3,1.3c0.5,0,1,0.1,1.4,0.3
			c0.4,0.3,0.6,1,0.1,1.2"/>
		
			<image style="overflow:visible;opacity:0.16;enable-background:new    ;" width="715" height="778" xlink:href="21A93A25.png"  transform="matrix(0.2397 0 0 0.2397 -61.4987 59.4663)">
		</image>
		<path class="st4" d="M70.5,179.1c-0.4,0.7-0.8,1.4-1.3,2.1C58.7,198.1,53.8,213.7,37,222c-10.6,5.3-32.8,7.2-44.3,6.8
			c-3.9-0.1-37.7,4.9-37.3,10.5l-3.9-53.1c-0.3-4-0.6-8,0.5-11.9c2.7-10.1,12.9-14.9,21.1-20.2c15.9-10.3,27.7-27,41.8-40.4
			C34.8,95,59.6,82.7,85.1,79c2.8-0.4,5.8-0.7,8.2,0.9c4.3,2.9,4,9.9,3.2,15.6c-1.2,8.9-1.1,19.4-3.2,27.9c-3,12.2-9.3,22-14.1,33.2
			C75.8,164.4,74.6,171.7,70.5,179.1z"/>
		<path class="st5" d="M91.7,104.9c-0.1-2.3-14.1-1-15.5-0.8c-6,0.8-7.9,1.9-11.5,6.8c-3.4,4.6-9.6,6.3-14.3,9.1
			c-5.2,3-10.3,6.6-14.3,11.5c-1.7,2.2-3.4,4.6-4.8,7c-0.4,0.6-0.7,1.2-0.9,1.8c-0.1,0.6-0.2,1.2-0.1,1.8
			c0.4,19.8-3.5,37.3-9.3,56.3c2-6.4,23.8-13.9,28.8-12.2c4.5,1.6,8.9,6.5,13.4,8.8c5.7,2.8,11.7,5,18,6.4
			C82.1,201.8,92.2,113.2,91.7,104.9z"/>
		<path class="st2" d="M474.7,216.7c-0.1,0-0.3-0.1-0.3-0.2c-0.1-0.1-0.1-0.3-0.1-0.4c-0.1-0.3-0.3-0.5-0.5-0.8
			c-0.2-0.2-0.3-0.5-0.2-0.8c-0.4,0-0.8,0.3-1.2,0c-0.2-0.2-0.3-0.5-0.2-0.7c0.1-0.2,0.2-0.5,0.2-0.7c-0.1,0.1-0.3,0.1-0.5,0.2
			c-0.2,0-0.4-0.2-0.6-0.2c-0.1,0-0.1,0.1-0.2,0.1l-0.4,0.4c0,0-0.1,0.1-0.1,0.1c-0.1,0-0.2-0.2-0.2-0.3s0.1-0.3,0-0.4
			c-0.1-0.1-0.3,0-0.4,0.1s-0.3,0.2-0.4,0l-0.5,0c0,0-0.1,0-0.1,0c0,0,0,0.1,0,0.1c0,0.4-0.3,0.7-0.6,0.9c-0.1,0.1-0.2,0.1-0.3,0
			c0,0-0.1-0.1-0.1-0.1c-0.1-0.2-0.1-0.8-0.2-0.9c-0.1-0.2-0.6-0.2-0.9-0.3c-0.2,0.4-0.3,0.9-0.3,1.4c0,0.5-0.4,1.1-0.4,1.5
			c0-0.5-0.4-1-0.9-1.2c0,0.5,0.1,0.9,0.3,1.3c-0.2-0.2-0.4-0.4-0.5-0.7c-0.2,0.4-0.2,0.8-0.1,1.2c0,0.1,0,0.2,0,0.2
			c0,0.1-0.1,0.2-0.2,0.2c-0.1,0.3-0.3,0.6-0.6,0.7c0,0.2,0.3,0.1,0.5,0.1c0.4-0.3,1-0.2,1.4,0.1c0.3-0.3,0.7-0.6,1.1-0.9l-0.2,0.1
			c1.3,0.9,2.9,1.2,4.5,1.1c0.2-0.4,0-0.9-0.3-1.1c0.4,0.5,1.1,0.6,1.7,0.3l-0.1-0.2c0-0.3,0.4-0.3,0.6-0.2
			C474,216.8,474.4,216.8,474.7,216.7z"/>
		<path class="st3" d="M469.4,217.9c0.5-0.9,0.6-2,0.5-3c0.1,0.3,0.2,0.6,0.3,0.9c0,0.1,0.1,0.2,0.2,0.3c0.3,0.2,0.6-0.1,0.8-0.4
			l0,1.1c0.6,0,1.3-0.1,1.8-0.5c-0.4,1.1-1.2,1.9-2.3,2.1c0.1-0.1,0.1-0.3,0-0.4c0,0,0,0,0,0c-0.1,0-0.1-0.1-0.2-0.1
			c-0.4,0-0.7,0.1-1.1,0.2c-0.4,0.1-0.7,0.1-1-0.2c-0.5-0.4-0.2-1.3-0.6-1.7c-0.2-0.3-0.6-0.4-0.9-0.4c-0.4,0-0.7,0-1.1,0
			c0.1,0.2,0.4,0.4,0.5,0.6c0.1,0.3-0.3,0.5-0.6,0.5c-0.3,0-0.6,0-0.9,0c0.4,0.3,0.9,0.5,1.4,0.6c0.2,0,0.4,0,0.6,0.1
			c0.2,0.1,0.2,0.4,0.1,0.5"/>
		<path class="st2" d="M420.7,78.4l2.9-0.9c0,0.4,0.3,0.7,0.6,0.8c0.4,0.1,0.7,0,1.1-0.1c1-0.3,2-0.8,2.9-1.4
			c0.3,0.9,1.6,0.8,2.5,0.5l3.8-1.1c-0.9,0.9-1.3,2.3-1,3.6c-2.4-0.3-4.9,0-7.1,1c-0.6,0.2-1.2,0.6-1.5,1.2
			c-0.6,1.2,0.6,2.5,1.7,3.3c-0.7,0.5-1.6,1-2.4,1.3c-0.3,0.1-0.7,0.2-1,0.1c-0.8-0.2-0.9-1.5-0.4-2.1c0.6-0.6,1.3-1.1,2-1.6
			c-0.8-1.2-2.4-1.2-3.8-1.1c-1.8,0.2-3.5,4.8-5.2,2.2c-1.2-1.8,1.5-5.5,2.7-6.6C418.6,78.8,419.7,78.7,420.7,78.4z"/>
		<path class="st3" d="M422.4,84.1c0.2,0.1,0.3-0.3,0.4-0.5c0.2-0.8,0.8-1.4,1.5-1.8c1.2-0.8,2.5-1.5,3.9-2.1
			c-1.5,0.2-2.9,0.8-4.1,1.7c-0.4,0.3-0.8,0.8-0.7,1.3c0.1,0.3,0.3,0.5,0.3,0.8c0.1,0.6-0.6,1-1.1,1c-0.6-0.1-1.1-0.4-1.5-0.8
			c0.2,0.2,0.1,0.6-0.1,0.7c0,0,0,0-0.1,0c-0.3,0.1-0.6,0.1-0.9-0.2c-0.2-0.2-0.4-0.5-0.4-0.8c-0.2-0.8-0.2-1.7,0.1-2.5
			c0.5,1.9-0.1,3.9-1.6,5.2c0-0.2,0.1-0.3,0.2-0.3c0,0,0,0,0,0c0.1-1.4-0.1-2.7-0.5-4c0.5,0.5,1,1,1.6,1.3c0.1,0.1,0.3,0.1,0.4,0.1
			c0.2-0.1,0.2-0.3,0.2-0.4l0.2-1.2l1.1,1.1c0.1,0.1,0.2,0.2,0.4,0.1c0,0,0.1-0.1,0.1-0.1l2.3-2.7c-0.4,1.8-2.5,3-2.3,4.9
			c1.7-1.9,3.5-3.9,5.9-4.8c-0.2,0.5-0.3,1-0.4,1.5c0,0.2,0,0.3,0,0.5c0.1,0.2,0.2,0.3,0.4,0.4l1.6,0.9c-0.8-0.2-1.6-0.2-2.5-0.2
			c-0.2,0-0.4,0.1-0.6,0.2c-0.2,0.2-0.2,0.6-0.1,0.8c0.1,0.3,0.2,0.5,0.3,0.8l-2,0.2c-0.2,0-0.4,0.1-0.6,0.2c-0.1,0.2,0,0.5,0.2,0.5
			"/>
		<path class="st3" d="M299.9,92.6c0.5-2.1,1.4-4,2.6-5.7c-0.4,0.9,0,1.9,0.8,2.3c0.8,0.3,1.7-0.1,2-0.9c0-0.1,0.1-0.2,0.1-0.3
			c0,2.6,2,5.2,1.1,7.7c1.6-0.5,3-1.4,4.2-2.6c0.1,0.6,0.3,1.3,0.5,1.9"/>
		<path class="st3" d="M156.3,269.1c-1.7-0.3-3.1-1.5-3.8-3c0.8-0.7,2-0.5,2.9-0.9s1.6-2,0.6-2.3c1.1,0.8,2.4,1.2,3.8,1.3
			c-0.6,1.5,0.2,3.1,1.7,3.7c0.2,0.1,0.4,0.1,0.6,0.1"/>
		
			<image style="overflow:visible;opacity:0.2;enable-background:new    ;" width="595" height="766" xlink:href="21A93A27.png"  transform="matrix(0.2396 0 0 0.2396 444.6465 157.1555)">
		</image>
		<path class="st6" d="M488,182.9c7.8,3.2,15.3,6.8,22.7,11c5.7,2.9,10.9,6.6,15.6,10.9c11.9,11.3,15.9,26.7,20.4,41.9
			c1.8,6.3,5.4,11.4,7.3,17.9c2.4,8.3,3.9,16.8,7.4,24.7c1.8,4,11.5,46.6,13.5,46.3c-14.4,2-29,1.4-43.2-1.7
			c-4.9-1.1-9.8-2.5-13.9-5.3c-4.2-2.9-7.2-7.1-10-11.3c-17.4-25.7-31.2-53.6-41-82.9c-4.3-13-7.9-26.2-9.2-39.8
			c-0.6-6.6-3.4-17.3,5.8-17.1C471.4,177.4,479.9,179.7,488,182.9z"/>
		<path class="st5" d="M530.8,278.4c-4.5-1.5-11.6-4.1-14-8.5c-3.8-7-0.8-17.2-1.9-25c-1.4-10.2-6.5-19.5-14.3-26.2
			c-4.9-4-11.4-6.7-15-11.9c-4.5-6.3-7-15.7-9.3-23c-0.3-1-0.5-2.1,0.1-2.9c0.6-0.6,1.4-0.8,2.3-0.7c14.7,0,31.8,11,44.2,17.9
			c7.1,4,14,8.4,19.5,14.2c7.7,8.1,12.3,18.3,16.1,28.7c3.7,10.1,3.7,20.6,8.9,30.4C562.5,287.7,542.4,282.2,530.8,278.4z"/>
		
			<rect x="29.4" y="-92.6" transform="matrix(0.9998 -1.939812e-02 1.939812e-02 0.9998 -2.4002 5.1647)" class="st7" width="471.3" height="437.9"/>
		<path class="st4" d="M479.4,249.8c-1-0.5-1.9-0.9-2.9-1.3c-12-5-24.7-8-37.6-9c-4.5-0.4-9.6-0.2-12.6,3.1c-2.6,2.9-2.7,7.5-0.9,11
			s4.9,6.1,8.3,8c6.7,3.9,14.4,5.8,21.5,9.1c18.8,8.6,31.1,25.4,44,40.7c17.1,20.2,45.2,26.4,70.9,27.7c1.1,0.2,2.3,0,3.4-0.4
			c2.6-1.4,2.3-5.2,1.4-8.1c-6.5-21.5-20.9-40.3-39.2-53.1c-9.2-6.5-19.4-11.3-30.2-14.4C495.2,260.1,488.8,254.3,479.4,249.8z"/>
	</g>
</g>
</svg>
