<svg id="ef21cffb-cf91-4e37-9ac8-25158d6a1d93" data-name="Layer 1" xmlns="http://www.w3.org/2000/svg" viewBox="0 0 102.75297 38.16218"><defs><style>.e349dacc-255e-44a8-9830-dde5b5031b0f{fill:#537536;}.a1cae0b3-c88b-4cf8-8ff8-347d415c441d,.a3adb4e6-0c52-4139-9b5e-a74497c295e1{fill:none;stroke-linecap:round;stroke-linejoin:round;}.a3adb4e6-0c52-4139-9b5e-a74497c295e1{stroke:#537435;stroke-width:10px;}.a1cae0b3-c88b-4cf8-8ff8-347d415c441d{stroke:#678e3d;stroke-width:3px;}</style></defs><title>Artboard 84</title><path class="e349dacc-255e-44a8-9830-dde5b5031b0f" d="M46.748,33.83725a.4857.4857,0,0,1-.14648-.35644V27.223a2.63611,2.63611,0,0,0-2.98242-2.98242H39.27242a.50018.50018,0,0,1-.50391-.50391V22.49741a.47815.47815,0,0,1,.14649-.36719.50594.50594,0,0,1,.35742-.13672h4.45215q5.56494,0,5.56445,5.208v6.2793a.50445.50445,0,0,1-.13574.35644.47758.47758,0,0,1-.36817.14746H47.10543A.48346.48346,0,0,1,46.748,33.83725Zm-7.833,0a.48567.48567,0,0,1-.14649-.35644V26.88706a.48033.48033,0,0,1,.14649-.36817.50513.50513,0,0,1,.35742-.13574H40.9521a.46843.46843,0,0,1,.50391.50391v6.59375a.50445.50445,0,0,1-.13574.35644.47758.47758,0,0,1-.36817.14746H39.27242A.48342.48342,0,0,1,38.915,33.83725Z"/><path class="e349dacc-255e-44a8-9830-dde5b5031b0f" d="M56.72359,34.13217a.48068.48068,0,0,1-.168-.3789V32.221a.54168.54168,0,0,1,.126-.34668.9433.9433,0,0,1,.35644-.2627l.75586-.29394a4.228,4.228,0,0,0,1.87988-1.36523,4.21567,4.21567,0,0,0,.66114-2.56153,5.06566,5.06566,0,0,0-.26172-1.8164,1.7208,1.7208,0,0,0-.88281-.95606,4.1401,4.1401,0,0,0-1.73243-.29394H52.56539a.50018.50018,0,0,1-.50391-.50391V22.4769a.45369.45369,0,0,1,.14648-.34668.506.506,0,0,1,.35743-.13672h5.39648q2.79347,0,3.96973,1.28125a5.94157,5.94157,0,0,1,1.17578,4.09473,6.17916,6.17916,0,0,1-1.44922,4.28418,7.87385,7.87385,0,0,1-3.69629,2.28906l-.86035.27344A.37691.37691,0,0,1,56.72359,34.13217ZM52.208,37.85874a.47676.47676,0,0,1-.14648-.36719V26.88706a.48036.48036,0,0,1,.14648-.36817.50517.50517,0,0,1,.35743-.13574h1.63769a.50018.50018,0,0,1,.50391.50391V37.49155a.50018.50018,0,0,1-.50391.5039H52.56539A.50178.50178,0,0,1,52.208,37.85874Z"/><path class="e349dacc-255e-44a8-9830-dde5b5031b0f" d="M65.64742,28.92416a.48942.48942,0,0,1-.14649-.35742V22.49741a.47815.47815,0,0,1,.14649-.36719.50594.50594,0,0,1,.35742-.13672H67.79a.471.471,0,0,1,.5039.50391v6.06933a.50928.50928,0,0,1-.13672.35742.47813.47813,0,0,1-.36718.14649H66.00484A.48627.48627,0,0,1,65.64742,28.92416Z"/><path class="e349dacc-255e-44a8-9830-dde5b5031b0f" d="M80.3691,22.141a.4866.4866,0,0,1,.14746.35645v1.23925a.4888.4888,0,0,1-.14746.35743.51151.51151,0,0,1-.37793.14648H78.87789a2.62118,2.62118,0,0,0-.41993,1.0293,7.01861,7.01861,0,0,0-.14648,1.49121V33.5228a.40914.40914,0,0,1-.168.32519.5809.5809,0,0,1-.37793.13672H76.08492a.43351.43351,0,0,1-.46192-.46191V26.57163a4.09455,4.09455,0,0,1,.4834-2.33106h-5.292a.50018.50018,0,0,1-.50391-.50391V22.49741a.47815.47815,0,0,1,.14649-.36719.50594.50594,0,0,1,.35742-.13672h9.17676A.51222.51222,0,0,1,80.3691,22.141Z"/><path class="e349dacc-255e-44a8-9830-dde5b5031b0f" d="M82.44722,33.83725a.4857.4857,0,0,1-.14648-.35644V32.24155a.47818.47818,0,0,1,.14648-.36719.506.506,0,0,1,.35742-.13672h5.64844V27.2435q0-3.00293-2.98144-3.00293h-2.457a.50016.50016,0,0,1-.5039-.50391V22.49741a.47818.47818,0,0,1,.14648-.36719.506.506,0,0,1,.35742-.13672h2.56153A6.209,6.209,0,0,1,89.81832,23.264a5.00929,5.00929,0,0,1,1.42773,3.9375v4.53613h.75684a.471.471,0,0,1,.5039.50391v1.23926a.50527.50527,0,0,1-.13672.35644.47682.47682,0,0,1-.36718.14746H82.80464A.48345.48345,0,0,1,82.44722,33.83725Z"/><path class="e349dacc-255e-44a8-9830-dde5b5031b0f" d="M101.4316,23.27475a5.9366,5.9366,0,0,1,1.17578,4.09473,6.17867,6.17867,0,0,1-1.44824,4.28418,7.87874,7.87874,0,0,1-3.69629,2.28906l-.86133.27344a.37787.37787,0,0,1-.37793-.084.48068.48068,0,0,1-.168-.3789V32.221a.56017.56017,0,0,1,.13672-.35742.83024.83024,0,0,1,.36719-.252l.73535-.29394a4.23355,4.23355,0,0,0,1.87988-1.36523,4.22239,4.22239,0,0,0,.66113-2.56153,5.06291,5.06291,0,0,0-.26269-1.8164,1.71583,1.71583,0,0,0-.88184-.95606,4.07882,4.07882,0,0,0-1.71191-.29394h-.65039l-2.35254-.02051a.53318.53318,0,0,1-.37793-.13672.45222.45222,0,0,1-.14649-.34668V19.57846a.48564.48564,0,0,1,.14649-.35644.51216.51216,0,0,1,.37793-.14746h1.5332a.471.471,0,0,1,.50391.5039v2.415h1.44922Q100.25484,21.9935,101.4316,23.27475Z"/><polyline class="a3adb4e6-0c52-4139-9b5e-a74497c295e1" points="5 23 10.872 32.319 38.191 5"/><path class="a1cae0b3-c88b-4cf8-8ff8-347d415c441d" d="M10.22906,33.59077c.93778-.93778,2.352.47644,3.28976-.46134.93674-.93673-.47748-2.35094.45926-3.28768.93782-.93782,2.352.47639,3.28986-.46144.93731-.9373-.47691-2.35151.4604-3.28882.93819-.93819,2.3524.476,3.29059-.46216.93762-.93762-.4766-2.35184.461-3.28946.93534-.93533,2.34955.47888,3.28489-.45645.93843-.93843-.47579-2.35264.46264-3.29107.93688-.93688,2.35109.47733,3.288-.45955.93814-.93814-.47607-2.35235.46207-3.29049.93919-.93919,2.3534.475,3.2926-.46417.93786-.93786-.47636-2.35208.4615-3.28993.94-.94006,2.35427.47416,3.29432-.46589.94157-.94157-.47264-2.35579.46892-3.29735s2.35579.47264,3.29735-.46893"/><path class="a1cae0b3-c88b-4cf8-8ff8-347d415c441d" d="M4.42331,23.71522c.67917,1.00122-.976,2.124-.29679,3.12519s2.33439-.12139,3.01366.88c.67944,1.00161-.97569,2.12435-.29625,3.126.68053,1.00323,2.33565-.11952,3.01619.88371s-.9746,2.126-.29407,3.12919"/></svg>