<svg id="a6be0180-4f63-46e1-8376-1fe459e59bae" data-name="Layer 1" xmlns="http://www.w3.org/2000/svg" viewBox="0 0 118.21277 43.24857"><defs><style>.bd96329a-f8b2-4b70-93dc-1b8506272f96{fill:#537435;}.e66dcd60-a982-456d-a4f2-f8dcaaa30d7c{fill:none;stroke:#678e3d;stroke-linecap:round;stroke-linejoin:round;stroke-width:7.90488px;}.f3560c91-9377-4876-aa3f-576a09691030{fill:#678e3d;}.a82d40de-b6f6-4ac0-92a2-ee20b1172dca{fill:#86c66b;}</style></defs><title>Artboard 96</title><rect class="bd96329a-f8b2-4b70-93dc-1b8506272f96" width="118.21277" height="43.24857" rx="21.62426"/><path class="e66dcd60-a982-456d-a4f2-f8dcaaa30d7c" d="M18.1644,34.62289c3.591,0,3.591,2.25853,7.182,2.25853,3.59141,0,3.59141-2.25853,7.18282-2.25853,3.592,0,3.592,2.25853,7.18394,2.25853,3.58957,0,3.58957-2.25853,7.17913-2.25853,3.59113,0,3.59113,2.25853,7.18225,2.25853s3.59112-2.25853,7.18223-2.25853,3.59118,2.25853,7.18236,2.25853c3.59211,0,3.59211-2.25853,7.18422-2.25853,3.59016,0,3.59016,2.25853,7.18032,2.25853,3.59328,0,3.59328-2.25853,7.18656-2.25853,3.59575,0,3.59575,2.25853,7.1915,2.25853s3.59575-2.25853,7.1915-2.25853"/><path class="f3560c91-9377-4876-aa3f-576a09691030" d="M10.12364,13.9984a1.98835,1.98835,0,0,1-.83236,1.02515,8.70191,8.70191,0,0,1-1.02964.50464c-.2865.12549-.4551.27-.45507.366.00143.09594.02957.14111.04965.33276l.00232.02759a.22887.22887,0,0,0,.029-.05811.5192.5192,0,0,0,.02591-.14038c.02945-.04.00482-.12549.03482-.11206.01178-.01514.02444-.01147.06134.01685l.104.08349.66449.56885a6.88029,6.88029,0,0,1,.8563.86939,3.31572,3.31572,0,0,1,.7734,1.86328,2.88385,2.88385,0,0,1-.08377.84594,3.92955,3.92955,0,0,1-.22363.61817,5.85557,5.85557,0,0,1-.44693.78418l-.67426.96264a1.66716,1.66716,0,0,0-.30007.57813c-.00654.02881.00033.04394.02777.03l.02514-.01148a.46484.46484,0,0,0,.05875-.07153,1.03523,1.03523,0,0,0,.11459-.262,1.59112,1.59112,0,0,0,.05506-.46265,1.89782,1.89782,0,0,0-.14832-.65161,2.4449,2.4449,0,0,0-.18832-.3667.66565.66565,0,0,0-.07154-.09985c-.01321-.02149-.008-.02808-.015-.04151-.02127-.03027-.01157-.03564.01825-.02978a4.94564,4.94564,0,0,1,.6456.23511A7.89423,7.89423,0,0,1,10.391,21.993a4.8258,4.8258,0,0,1,.85165.6565,4.178,4.178,0,0,1,.98026,1.44262,4.2714,4.2714,0,0,1,.27258,1.16236,4.98123,4.98123,0,0,1-.00671.8728,5.85586,5.85586,0,0,1-.09211.6272c-.03512.17969-.07519.354-.108.47729-.141.55811-.24337.93872-.30807,1.24512-.05866.28784-.05963.52173.02408.49536.01309.00977.04309-.03052.07324-.09912a.65863.65863,0,0,0,.036-.09863,1.41791,1.41791,0,0,0,.04086-.19434,2.57276,2.57276,0,0,0-.22662-1.377,3.398,3.398,0,0,0-1.11875-1.33936,2.12855,2.12855,0,0,0-.19006-.1167.88136.88136,0,0,0-.08407-.05908c-.08027-.04053-.08466-.05566-.08756-.06445-.014-.03735.23129-.0022.5575.05664a8.60556,8.60556,0,0,1,1.41824.38281,6.65494,6.65494,0,0,1,1.17316.55835A5.453,5.453,0,0,1,15.189,28.09a4.88713,4.88713,0,0,1,.62323,1.28247,4.5285,4.5285,0,0,1,.18878.98413l.02158.40088-.01236.30346-.02136.29566-.03711.22851a5.3607,5.3607,0,0,1-.3909,1.26612c-.14224.27929-.24524.4768-.36762.48755-.03265.02173-.05816-.01563-.09225-.04541-.036-.0044-.06772-.09717-.12546-.16724a2.83193,2.83193,0,0,0-.62768-.70215,1.14814,1.14814,0,0,0-.92255-.3457c-.09177.01831-.11124.05371-.11347.08984-.02453.03638.00754.083.03678.125a2.52685,2.52685,0,0,0,.78125.51416c.34476.19776.74746.36182,1.16623.6294a4.775,4.775,0,0,1,.62817.46777,2.02621,2.02621,0,0,1,.47839.70239.38919.38919,0,0,1-.22833.50074l-.0177.0061-.27563.08691a1.07361,1.07361,0,0,0-.40345.25928l-.35168.30859a9.624,9.624,0,0,1-.82233.64576,3.907,3.907,0,0,1-1.2073.55127,2.108,2.108,0,0,1-.45825.07983,2.48469,2.48469,0,0,1-.60041-.00757,3.13364,3.13364,0,0,1-1.78531-.81445A4.33728,4.33728,0,0,1,9.18129,34.6422,5.14185,5.14185,0,0,1,8.9688,33.986c-.051-.19482-.09485-.39721-.1221-.5415-.1308-.65283-.15439-1.11621-.21189-1.49414-.05191-.36133-.0903-.65137-.17706-.71192l-.02481-.01977-.02683.04687a.2181.2181,0,0,0-.01931.05494,1.1712,1.1712,0,0,0-.01047.15429,1.92429,1.92429,0,0,0,.07709.50074,3.29788,3.29788,0,0,0,.14941.40649,2.97943,2.97943,0,0,0,.25.43457,3.23677,3.23677,0,0,0,.82861.843c.189.12988.25156.15356.25653.17676a1.54214,1.54214,0,0,1-.51748-.07349,9.793,9.793,0,0,1-1.381-.38745,5.55779,5.55779,0,0,1-.55619-.23023l-.314-.15381c-.128-.06835-.27472-.15478-.40692-.23828a4.98574,4.98574,0,0,1-1.82-2.0227,4.71666,4.71666,0,0,1-.41086-2.34326c.01294-.14869.03046-.29663.05231-.44287.0227-.13331.04925-.22852.07675-.34375a3.83761,3.83761,0,0,1,.1831-.58374,6.72923,6.72923,0,0,1,.72968-1.363,4.0069,4.0069,0,0,1,.45612-.5918c.027-.03149.03149-.01684.03958.00269.0184-.00635.00729.06836.01138.14135.01352.02979-.00708.24366.02451.37745a2.3315,2.3315,0,0,0,.17746.677c.37316.75219.605.68945.53793.62549a2.109,2.109,0,0,0-.49933-.45972c-.26779-.2085-.59485-.43311-1.04431-.81348-.10614-.08935-.227-.19677-.36936-.34082l-.19973-.20776L4.47246,24.777a3.96386,3.96386,0,0,1-.46454-.77832,3.49361,3.49361,0,0,1-.279-1.12744A3.374,3.374,0,0,1,3.81,21.91466a3.14774,3.14774,0,0,1,.25626-.73657l.15469-.301.15015-.22681a3.17652,3.17652,0,0,1,.29932-.386,6.60588,6.60588,0,0,1,1.00833-.91845c.28644-.21485.53134-.38648.68625-.48877.07925-.04907.12536-.07862.127-.02613.02283-.00146-.03311.11011-.02051.1648a1.00606,1.00606,0,0,0-.01608.3562c.08087.304.178.19067.12207.0105a3.34418,3.34418,0,0,0-.31818-.73535c-.15368-.29224-.33807-.60376-.53894-1.0149-.04943-.10156-.09954-.20752-.15222-.34228a2.91543,2.91543,0,0,1-.1445-.43506,2.63761,2.63761,0,0,1-.08075-.594A1.82938,1.82938,0,0,1,5.465,15.58,2.73735,2.73735,0,0,1,6.53664,14.2506,2.67978,2.67978,0,0,1,7.914,13.88952c.74356-.00293,1.12549.09863,1.51724-.27246l.034-.03223a.40132.40132,0,0,1,.65835.41357Z"/><path class="a82d40de-b6f6-4ac0-92a2-ee20b1172dca" d="M33.73228,16.41316h-3.7998a.60015.60015,0,0,1-.60059-.60058V14.338a.5666.5666,0,0,1,.17578-.4375.60037.60037,0,0,1,.42481-.16309h3.95019a7.40734,7.40734,0,0,1,5,1.4502q1.64942,1.45019,1.64942,4.65039v10.6748a.59684.59684,0,0,1-.59961.59961H37.90709a.59954.59954,0,0,1-.42481-.16211.56594.56594,0,0,1-.1748-.4375V19.963Q37.30748,16.41365,33.73228,16.41316Z"/><path class="a82d40de-b6f6-4ac0-92a2-ee20b1172dca" d="M58.85728,13.91316a.57853.57853,0,0,1,.17481.42481v6.75a7.41555,7.41555,0,0,1-.9375,3.77441,6.29986,6.29986,0,0,1-2.58789,2.48828,7.66555,7.66555,0,0,1-3.7002.83692h-2.125a6.55481,6.55481,0,0,1-3.21191-.7627,5.40564,5.40564,0,0,1-2.15039-2.1123,6.03559,6.03559,0,0,1-.7627-3.02442V14.338a.5666.5666,0,0,1,.17578-.4375.60035.60035,0,0,1,.42481-.16309h1.7998a.56035.56035,0,0,1,.59961.60059l.05078,6.5498a3.3386,3.3386,0,0,0,2.52442-1.1123,4.38481,4.38481,0,0,0,.72558-2.6875V14.36238a.60556.60556,0,0,1,.17481-.44922.57563.57563,0,0,1,.4248-.17578H52.2567a.57563.57563,0,0,1,.4248.17578.60628.60628,0,0,1,.17578.44922v2.80078a5.94525,5.94525,0,0,1-1.51269,4.23731,6.33841,6.33841,0,0,1-4.36231,1.8125,3.60213,3.60213,0,0,0,1.41211,1.71191,4.02356,4.02356,0,0,0,2.1875.58789h.7002a5.02507,5.02507,0,0,0,2.5-.5498,3.9785,3.9785,0,0,0,1.64941-1.625,4.91088,4.91088,0,0,0,.5752-2.40039V14.338a.57852.57852,0,0,1,.1748-.42481.60853.60853,0,0,1,.4502-.17578h1.7998A.57935.57935,0,0,1,58.85728,13.91316Z"/><path class="a82d40de-b6f6-4ac0-92a2-ee20b1172dca" d="M73.48228,15.32527a6.19287,6.19287,0,0,1,1.54981,4.5127v7.57519a.602.602,0,0,1-.16309.42481.56933.56933,0,0,1-.4375.1748h-6.625a.59684.59684,0,0,1-.59961-.59961V25.93758a.57077.57077,0,0,1,.17481-.4375.60116.60116,0,0,1,.4248-.16211h4v-5.3252a3.86941,3.86941,0,0,0-.78711-2.5498,2.523,2.523,0,0,0-2.03711-.9502H66.70689l-2.02539,10.875a.82713.82713,0,0,1-.22461.4502.58165.58165,0,0,1-.4248.1748H62.0565a.52227.52227,0,0,1-.41211-.1875.55658.55658,0,0,1-.13769-.4375l2.25-10.875H62.28209a.59848.59848,0,0,1-.60059-.59961V14.338a.5666.5666,0,0,1,.17578-.4375.60035.60035,0,0,1,.42481-.16309H69.4315A5.40927,5.40927,0,0,1,73.48228,15.32527Z"/><path class="a82d40de-b6f6-4ac0-92a2-ee20b1172dca" d="M87.83092,27.838a.5801.5801,0,0,1-.17481-.42481V19.963q0-3.54931-3.5498-3.54981H78.9315a.60015.60015,0,0,1-.60058-.60058V14.338a.56657.56657,0,0,1,.17578-.4375.60033.60033,0,0,1,.4248-.16309h5.29981q6.624,0,6.625,6.2002v7.47558a.60548.60548,0,0,1-.16211.42481.57225.57225,0,0,1-.4375.1748h-2A.58227.58227,0,0,1,87.83092,27.838Zm-9.32422,0a.57719.57719,0,0,1-.17578-.42481V19.56258a.568.568,0,0,1,.17578-.4375.59951.59951,0,0,1,.4248-.16211h2a.55894.55894,0,0,1,.59961.59961v7.85058a.60117.60117,0,0,1-.16211.42481.57078.57078,0,0,1-.4375.1748h-2A.57851.57851,0,0,1,78.5067,27.838Z"/></svg>