<svg id="f18553f8-c343-4091-a6af-d7dc0d270dcd" data-name="Layer 1" xmlns="http://www.w3.org/2000/svg" xmlns:xlink="http://www.w3.org/1999/xlink" viewBox="0 0 35.73 55.27718"><defs><style>.e1a9f1dd-bd7e-4069-84f6-b37caf920866{fill:none;}.a8410377-2189-4b0b-828f-6b50845b89eb{clip-path:url(#f71a1a24-097f-4663-9ec4-ad9f2f86e40f);}.e3e778b8-98b5-44af-8658-4609635964c7{fill:#58595b;opacity:0.51;}.e9448179-d267-4503-ae80-0e3127b79a13{fill:#b8cad1;}.ecbac923-5b54-4451-b7b8-05279c5d3c0b{fill:#fff;}</style><clipPath id="f71a1a24-097f-4663-9ec4-ad9f2f86e40f"><rect class="e1a9f1dd-bd7e-4069-84f6-b37caf920866" x="1087.15885" y="352.52046" width="530.04255" height="298.14894"/></clipPath></defs><title>Artboard 16 copy</title><ellipse class="e3e778b8-98b5-44af-8658-4609635964c7" cx="17.865" cy="52.39536" rx="4.64963" ry="2.88182"/><path class="e9448179-d267-4503-ae80-0e3127b79a13" d="M17.87705,51.20846a2.738,2.738,0,0,1-2.19824-1.09277c-4.14356-5.46387-13.8291-19.46-14.28516-31.38672-.01465-.26953-.02246-.56152-.02246-.85547a16.49414,16.49414,0,0,1,32.98828,0c0,.28711-.00879.57227-.02246.85645-.4375,12.22461-10.12988,26.03613-14.27734,31.40527a2.74008,2.74008,0,0,1-2.18262,1.07324Zm-.01172-36.708a3.37256,3.37256,0,1,0,3.37207,3.373A3.37629,3.37629,0,0,0,17.86533,14.50046Z"/><path class="ecbac923-5b54-4451-b7b8-05279c5d3c0b" d="M17.86484,2.65622a15.21713,15.21713,0,0,1,15.21729,15.217q0,.3999-.021.7948c-.43164,12.09167-10.51123,26.15417-14.01221,30.687a1.47947,1.47947,0,0,1-2.35253-.01074C13.213,44.75,3.12021,30.46371,2.66953,18.68014c-.01367-.26721-.02148-.53613-.02148-.80688a15.217,15.217,0,0,1,15.21679-15.217m0,19.86658a4.6496,4.6496,0,1,0-4.64941-4.64954,4.64985,4.64985,0,0,0,4.64941,4.64954m0-22.42066A17.79131,17.79131,0,0,0,.09385,17.87326c0,.31458.00927.627.0249.93738C.5875,31.06528,10.44492,45.32638,14.66123,50.88742a4.03333,4.03333,0,0,0,6.40869.02917c4.22315-5.46765,14.09326-19.54577,14.54346-32.15747.01416-.26562.023-.57482.023-.88586A17.79143,17.79143,0,0,0,17.86484.10214Zm0,19.86658a2.09552,2.09552,0,1,1,2.09571-2.09546,2.09776,2.09776,0,0,1-2.09571,2.09546Z"/><circle class="ecbac923-5b54-4451-b7b8-05279c5d3c0b" cx="18.09252" cy="18.10081" r="2.56764"/></svg>