<svg id="e6b25e6c-2fe7-4d10-a966-cb8780f3adb4" data-name="Layer 1" xmlns="http://www.w3.org/2000/svg" xmlns:xlink="http://www.w3.org/1999/xlink" viewBox="0 0 35.73 55.27718"><defs><style>.b12c5820-f4a8-4196-aae7-30e2a7109728{fill:none;}.b493ab0d-fee4-44c1-a425-23da4e5b49a0{clip-path:url(#b9a55ab6-911c-442d-8386-f2636efc3357);}.ed9cbbfa-e4d2-4e58-8cf0-a3c008586025{fill:#58595b;opacity:0.51;}.e067a1a2-fa4c-4cab-8ff0-a6c2b3f78dc7{fill:#ee6565;}.b34b929e-bd7d-4c27-8971-1e08cf8ae73d{fill:#fff;}</style><clipPath id="b9a55ab6-911c-442d-8386-f2636efc3357"><rect class="b12c5820-f4a8-4196-aae7-30e2a7109728" x="1041.29714" y="352.52046" width="530.04255" height="298.14894"/></clipPath></defs><title>Artboard 16</title><ellipse class="ed9cbbfa-e4d2-4e58-8cf0-a3c008586025" cx="17.865" cy="52.39536" rx="4.64963" ry="2.88182"/><path class="e067a1a2-fa4c-4cab-8ff0-a6c2b3f78dc7" d="M17.87668,51.20846a2.73806,2.73806,0,0,1-2.19825-1.09277c-4.14355-5.46387-13.8291-19.46-14.28515-31.38672-.01367-.27246-.02246-.56347-.02246-.85547a16.49414,16.49414,0,1,1,32.98828,0c0,.28907-.00782.5752-.02246.86133-.43653,12.21778-10.12989,26.03028-14.27735,31.40039a2.73725,2.73725,0,0,1-2.18261,1.07324Zm-.01172-36.708a3.37256,3.37256,0,1,0,3.37207,3.373A3.37608,3.37608,0,0,0,17.865,14.50046Z"/><path class="b34b929e-bd7d-4c27-8971-1e08cf8ae73d" d="M17.865,2.65622a15.21671,15.21671,0,0,1,15.21679,15.217q0,.3999-.0205.7948C32.62961,30.75973,22.55,44.82223,19.049,49.35507a1.47948,1.47948,0,0,1-2.35254-.01074C13.21261,44.75,3.11984,30.46371,2.66964,18.68014q-.02124-.40082-.02148-.80688A15.217,15.217,0,0,1,17.865,2.65622m0,19.86658a4.6496,4.6496,0,1,0-4.64942-4.64954A4.64985,4.64985,0,0,0,17.865,22.5228m0-22.42066A17.79132,17.79132,0,0,0,.094,17.87326q0,.47424.02539.942C.58712,31.067,10.445,45.327,14.66134,50.88754a4.03342,4.03342,0,0,0,6.40869.029c4.22315-5.46765,14.09327-19.54577,14.54346-32.15747.01416-.26562.02246-.57482.02246-.88586A17.79132,17.79132,0,0,0,17.865.10214Zm0,19.86658a2.09552,2.09552,0,1,1,2.0957-2.09546,2.09776,2.09776,0,0,1-2.0957,2.09546Z"/><circle class="b34b929e-bd7d-4c27-8971-1e08cf8ae73d" cx="18.09252" cy="18.10081" r="2.56764"/></svg>