<svg id="a5345fab-f135-46f0-afb9-c0a1c5034edd" data-name="Layer 1" xmlns="http://www.w3.org/2000/svg" xmlns:xlink="http://www.w3.org/1999/xlink" viewBox="0 0 54.75911 84.6708"><defs><style>.f9f81eed-3d5d-49eb-abab-07c801dce557{fill:none;}.ad9c767e-f056-473e-8894-96af36510fc0{clip-path:url(#a2eecbd0-45a2-4387-a603-15d01c049a7a);}.be53b5e1-700e-40b0-bc10-ca06eb678a00{fill:#58595b;opacity:0.51;}.aee9448c-8e62-4132-b6d7-23e268d53d5e{fill:#ee6565;}.b49a64f9-b5df-4977-8f8e-6eea2181f3f5{fill:#fff;}</style><clipPath id="a2eecbd0-45a2-4387-a603-15d01c049a7a"><rect class="f9f81eed-3d5d-49eb-abab-07c801dce557" x="897.75178" y="381.91407" width="530.04255" height="298.14894"/></clipPath></defs><title>Artboard 9</title><ellipse class="be53b5e1-700e-40b0-bc10-ca06eb678a00" cx="27.37955" cy="80.25609" rx="7.12283" ry="4.41471"/><path class="aee9448c-8e62-4132-b6d7-23e268d53d5e" d="M27.39753,78.47893a4.15472,4.15472,0,0,1-3.335-1.6582C17.71785,68.45257,2.88582,47.017,2.18757,28.76214c-.02246-.415-.03515-.86036-.03515-1.30957a25.22705,25.22705,0,0,1,50.4541,0c0,.44043-.01172.87988-.03418,1.31543-.66895,18.71093-15.51172,39.86035-21.86328,48.083A4.15405,4.15405,0,0,1,27.39753,78.47893ZM27.38,22.24553a5.207,5.207,0,1,0,5.20605,5.207A5.213,5.213,0,0,0,27.38,22.24553Z"/><path class="b49a64f9-b5df-4977-8f8e-6eea2181f3f5" d="M27.37947,4.14153a23.311,23.311,0,0,1,23.311,23.31116q0,.61266-.03174,1.21765C49.99714,47.19378,34.55623,68.73613,29.19343,75.6801a2.26639,2.26639,0,0,1-3.604-.01647C20.253,68.62566,4.79158,46.74016,4.10164,28.68877q-.03224-.61413-.03321-1.23608a23.3113,23.3113,0,0,1,23.311-23.31116m0,30.434a7.12287,7.12287,0,1,0-7.12256-7.1228,7.12282,7.12282,0,0,0,7.12256,7.1228m0-34.265A27.17279,27.17279,0,0,0,.23738,27.45269c0,.45776.0122.93152.03711,1.40857.73193,18.79528,15.811,40.60864,22.2622,49.11706a6.09747,6.09747,0,0,0,9.68848.044c6.46094-8.3656,21.55664-29.898,22.26123-49.18457.02344-.46033.03516-.926.03516-1.385A27.17279,27.17279,0,0,0,27.37947.31048Zm0,30.434a3.29181,3.29181,0,1,1,3.292-3.29175,3.29537,3.29537,0,0,1-3.292,3.29175Z"/><circle class="b49a64f9-b5df-4977-8f8e-6eea2181f3f5" cx="27.95513" cy="27.22823" r="4.40653"/></svg>