<svg id="aef5b38a-a7e1-42dd-9bf7-6d1bae75d724" data-name="Layer 1" xmlns="http://www.w3.org/2000/svg" xmlns:xlink="http://www.w3.org/1999/xlink" viewBox="0 0 94.80334 43.07632"><defs><style>.bba67500-f95b-4c81-8539-66574fae15a6{fill:none;}.aa5664f4-7cf0-4cc9-981e-57ee619cfd75{clip-path:url(#ad1128e7-8626-4367-bb49-421f089a1e14);}.a6b62939-f1e5-4359-ace2-d443453c9cd8{fill:#d5bdab;}.a18edf17-b539-4742-ae6c-8a2700c1ba6c{clip-path:url(#b8940638-3d9c-469c-9cb5-536409acaa24);}.b2a8fd27-6016-48c1-9fb6-5cceaa113389{fill:#754c29;}.b9c97662-a3d9-4747-89dd-1789e5ed697b{fill:#603913;opacity:0.37;}.aa268167-f66e-4de7-8f29-2ac3c48cced1,.ad072a4c-ef90-4e92-b532-20eae73cd866,.ba0fc497-03b5-4d51-b540-dcc6fc244bbe,.f81dabf4-88c8-45e9-8095-26c7e38b05fe{fill:#a97c50;}.f81dabf4-88c8-45e9-8095-26c7e38b05fe{opacity:0.21;}.ad072a4c-ef90-4e92-b532-20eae73cd866{opacity:0.22;}.e5b4d06e-e31b-4d0c-aba9-38a92703b4be{fill:#8b5e3c;}.aa268167-f66e-4de7-8f29-2ac3c48cced1{opacity:0.19;}.ae0d8958-a489-4d38-b1ba-c7dd3f36361d{fill:#9e734c;}.eec90ac1-f035-4fe0-81e0-602b5511cf58{fill:#4c9944;}.a0fb9aff-e72e-499f-b402-0518c3b95bc2{fill:#5cad46;}</style><clipPath id="ad1128e7-8626-4367-bb49-421f089a1e14"><rect class="bba67500-f95b-4c81-8539-66574fae15a6" x="242.66023" y="5.1577" width="530.04255" height="298.14894"/></clipPath><clipPath id="b8940638-3d9c-469c-9cb5-536409acaa24"><path class="bba67500-f95b-4c81-8539-66574fae15a6" d="M87.3316,37.73694C74.00071,41.53343,73.259,36.22076,59.398,36.22076c-13.86286,0-13.86286,1.54573-27.72573,1.54573s-14.18065,2.2779-27.5142-1.51622c-3.79412-1.07963-.98439-3.20138-.98439-7.14611,0-3.94745,1.54573-3.94745,1.54573-7.89489s-4.781-7.557-.98455-8.6382c13.33089-3.79649,14.07264,1.51617,27.9336,1.51617,13.86286,0,13.86286-1.54573,27.72573-1.54573s14.18065-2.2779,27.5142,1.51622c3.79412,1.07963.98439,3.20138.98439,7.14612,0,3.94744-2.51212,4.268-1.521,8.08894C87.59021,33.98982,91.1281,36.65574,87.3316,37.73694Z"/></clipPath></defs><title>Artboard 31</title><ellipse class="a6b62939-f1e5-4359-ace2-d443453c9cd8" cx="47.40167" cy="36.61092" rx="47.40167" ry="6.4654"/><g class="a18edf17-b539-4742-ae6c-8a2700c1ba6c"><path class="b2a8fd27-6016-48c1-9fb6-5cceaa113389" d="M87.3316,37.73694C74.00071,41.53343,73.259,36.22076,59.398,36.22076c-13.86286,0-13.86286,1.54573-27.72573,1.54573s-14.18065,2.2779-27.5142-1.51622c-3.79412-1.07963-.98439-3.20138-.98439-7.14611,0-3.94745,1.54573-3.94745,1.54573-7.89489s-4.781-7.557-.98455-8.6382c13.33089-3.79649,14.07264,1.51617,27.9336,1.51617,13.86286,0,13.86286-1.54573,27.72573-1.54573s14.18065-2.2779,27.5142,1.51622c3.79412,1.07963.98439,3.20138.98439,7.14612,0,3.94744-2.51212,4.268-1.521,8.08894C87.59039,33.99053,91.1281,36.65574,87.3316,37.73694Z"/><path class="b9c97662-a3d9-4747-89dd-1789e5ed697b" d="M20.35282,44.27872c-.26837-.03055-.31348-.44979-.11749-.63565a1.11192,1.11192,0,0,1,.764-.20355,32.40183,32.40183,0,0,0,19.60008-7.1548,16.75153,16.75153,0,0,1,3.83338-2.6876c2.35508-.994,5.03819-.55472,7.557-.11857,3.39765.58834,6.87171,1.14194,10.2779.60526,6.19707-.9764,11.21788-5.35218,16.75557-8.30023a16.63465,16.63465,0,0,1,7.01055-2.22927,15.63934,15.63934,0,0,1,8.30342,2.44233,8.29687,8.29687,0,0,1,3.552,3.31764,6.45173,6.45173,0,0,1-.10784,5.19381A18.82676,18.82676,0,0,1,94.8431,38.959c-2.75866,3.41478-5.77338,6.96791-9.94193,8.34421-5.6143,1.85363-11.59658-.71361-17.41364-1.771a34.03549,34.03549,0,0,0-10.16181-.30111c-3.15178.38186-6.248,1.20509-9.41713,1.39551a40.14427,40.14427,0,0,1-7.21836-.36839,129.77854,129.77854,0,0,1-15.15677-2.75534c-.10639-.41225-.045-.36507-.45927-.26683a5.07864,5.07864,0,0,1-2.3663-.008l.348-.49473"/><path class="b9c97662-a3d9-4747-89dd-1789e5ed697b" d="M39.57738,1.6878A150.2342,150.2342,0,0,0,18.09513,1.346c-3.09156.17224-6.40294.8986-9.47624.48314a9.89565,9.89565,0,0,0-6.50506,1.112C1.462,3.31156.51636,3.6628.50672,4.53718.483,6.71618,3.97281,6.57357,5.2616,6.761a24.337,24.337,0,0,1,4.04324.92773c5.22051,1.70177,9.58408,5.33433,14.60061,7.56684a33.38827,33.38827,0,0,0,17.18939,2.45873,45.723,45.723,0,0,0,16.59981-5.41306c.995-.5383,2.08086-1.25808,2.23439-2.37886a2.7148,2.7148,0,0,0-.29674-1.50312c-.95371-2.024-3.14978-3.127-5.25541-3.88363A58.79961,58.79961,0,0,0,39.57738,1.6878Z"/><path class="b9c97662-a3d9-4747-89dd-1789e5ed697b" d="M1.24845,18.81532A6.03936,6.03936,0,0,0,4.86061,23.292c1.84629.74828,4.062.56992,5.67635,1.73723,1.36591.98766,1.96324,2.6992,2.48407,4.30229a16.23193,16.23193,0,0,1,1.16377,6.52174,8.65448,8.65448,0,0,0-.135,2.54443c.23308,1.16085,1.17766,2.09795,1.338,3.27106a4.33682,4.33682,0,0,1-1.3047,3.2459,5.50456,5.50456,0,0,1-2.53644,1.83728,5.1658,5.1658,0,0,1-3.37612-.38353c-2.03586-.85487-3.00551-2.76766-4.79566-3.73478-1.51093-.81627-3.64848-.96842-4.512-2.66857a10.26117,10.26117,0,0,1-.55956-2.20959c-.32515-1.29465-1.13018-2.42215-1.51563-3.70015-.85195-2.82464.46811-5.84371,2.11788-8.28966,1.113-1.65013,2.43117-3.28657,2.7035-5.25825"/><path class="f81dabf4-88c8-45e9-8095-26c7e38b05fe" d="M-1.36661,19.19159c4.0164.77872,7.96213-1.98639,11.94873-1.50476,2.71507.328,5.00628,2.07588,7.414,3.37276s5.47767,2.13666,7.78607.67018a1.10038,1.10038,0,0,0,.3336-.29115,1.16582,1.16582,0,0,0,.02277-.98873,7.27109,7.27109,0,0,0-4.635-4.70436c-2.02481-.65419-4.30082-.39481-6.22674-1.29959C12.54032,13.16033,11.226,9.88118,8.5742,8.42878A7.4071,7.4071,0,0,0,2.76069,8.069a12.81007,12.81007,0,0,0-4.95624,3.26665,4.87886,4.87886,0,0,0-1.43,2.18909,3.76091,3.76091,0,0,0,1.66893,3.72016,11.0466,11.0466,0,0,0,4.01472,1.5289"/><path class="ad072a4c-ef90-4e92-b532-20eae73cd866" d="M57.74053,13.90637a14.8742,14.8742,0,0,0-2.11679,1.20884,5.55219,5.55219,0,0,0-1.63757,1.50337,2.23833,2.23833,0,0,0-.24856,2.128c.52005,1.08754,1.9942,1.29839,3.17985,1.08064,2.8313-.52,5.37359-2.60609,8.23891-2.32934a12.68481,12.68481,0,0,1,2.68322.71208,28.02012,28.02012,0,0,0,5.2696,1.1755,4.092,4.092,0,0,0,1.52179-.01717c1.02975-.2659,1.7088-1.20953,2.51014-1.90877a6.19534,6.19534,0,0,1,4.65739-1.47424,18.50673,18.50673,0,0,1,3.77828,1.09929,6.13669,6.13669,0,0,0,3.86521.25509,2.70787,2.70787,0,0,0,1.89635-3.03378,3.77825,3.77825,0,0,0-1.69885-1.92622,23.222,23.222,0,0,0-9.73892-3.75392A46.28236,46.28236,0,0,0,72.099,8.41037c-1.57376.04521-3.2041-.14137-4.52587.88266-1.46828,1.13755-2.746,2.61961-4.54636,3.289a34.43235,34.43235,0,0,1-3.71.76494A9.20964,9.20964,0,0,0,57.74053,13.90637Z"/></g><path class="b2a8fd27-6016-48c1-9fb6-5cceaa113389" d="M57.0835,16.18644c.58252-1.18738,1.17334-2.26685,1.8003-3.37342.62744-1.09558,1.27246-2.17834,1.9663-3.23779a31.85425,31.85425,0,0,1,4.8003-5.97742.95917.95917,0,0,1,1.42676,1.2699l-.02491.03381a29.56255,29.56255,0,0,0-3.30664,6.20472c-.45752,1.098-.86963,2.22155-1.26172,3.34814-.38476,1.11926-.76318,2.286-1.06543,3.37818a2.32868,2.32868,0,1,1-4.48925-1.24A2.49,2.49,0,0,1,57.0835,16.18644Z"/><ellipse class="ba0fc497-03b5-4d51-b540-dcc6fc244bbe" cx="3.55189" cy="24.41403" rx="3.55189" ry="11.69163"/><path class="e5b4d06e-e31b-4d0c-aba9-38a92703b4be" d="M5.77006,24.414c0,.83436-.42143,1.62723-.47911,2.393-.06447.856.22527,1.70776.09935,2.43862a11.46465,11.46465,0,0,1-.95919,2.23156c-.39949,1.11383-.7116,2.0352-1.24921,2.0352-.53829,0-.851-.923-1.2507-2.03937a11.48342,11.48342,0,0,1-.95842-2.23153c-.12564-.73011.16433-1.58081.1-2.43566-.05762-.76547-.479-1.55794-.479-2.39187,0-.83437.42143-1.62724.47911-2.39306.06447-.856-.22527-1.70775-.09935-2.43862a11.46465,11.46465,0,0,1,.95919-2.23156c.39949-1.11383.7116-2.0352,1.24921-2.0352.53829,0,.85095.923,1.2507,2.03937A11.48369,11.48369,0,0,1,5.391,19.58649c.12564.73011-.16433,1.58082-.1,2.43566C5.34866,22.78762,5.77006,23.58009,5.77006,24.414Z"/><path class="ba0fc497-03b5-4d51-b540-dcc6fc244bbe" d="M4.80951,24.414c0,.5247-.265,1.02331-.3013,1.50491-.04055.53833.14166,1.074.06247,1.53362a7.20926,7.20926,0,0,1-.60321,1.40332c-.25122.70043-.44749,1.27984-.78557,1.27984-.33787,0-.534-.57893-.78512-1.27858a7.20342,7.20342,0,0,1-.60343-1.40327c-.07919-.45932.103-.99467.06241-1.53264-.03638-.48229-.30147-.98166-.30147-1.5072,0-.52471.265-1.02332.3013-1.50492.04055-.53833-.14166-1.074-.06247-1.53362a7.20926,7.20926,0,0,1,.60321-1.40332c.25122-.70043.44749-1.27984.78557-1.27984.33787,0,.534.57893.78512,1.27858a7.20342,7.20342,0,0,1,.60343,1.40327c.07919.45933-.103.99467-.06241,1.53265C4.54442,23.38911,4.80951,23.88849,4.80951,24.414Z"/><path class="aa268167-f66e-4de7-8f29-2ac3c48cced1" d="M48.37763,22.30876a14.02848,14.02848,0,0,0-5.29291,1.3803,21.57538,21.57538,0,0,1-5.2045,1.74891c-1.1583.16565-2.343.11644-3.49181.33856a7.53205,7.53205,0,0,0-3.149,1.41906,3.36224,3.36224,0,0,0-1.54759,2.85112A2.725,2.725,0,0,0,32.163,32.22252a5.407,5.407,0,0,0,3.35228-.97082c1.00643-.62626,1.90753-1.41224,2.92523-2.02a9.9602,9.9602,0,0,1,5.42738-1.39328c1.52011.05443,3.00782.45794,4.52453.57332a5.76838,5.76838,0,0,0,4.29724-1.11616C55.60307,24.70878,50.51176,22.30082,48.37763,22.30876Z"/><path class="e5b4d06e-e31b-4d0c-aba9-38a92703b4be" d="M57.01173,16.14908a35.93333,35.93333,0,0,1,1.68847-3.60925A36.7438,36.7438,0,0,1,60.709,9.182a19.10538,19.10538,0,0,1,5.46387-5.61328.62441.62441,0,0,1,.77344.97l-.022.02185a17.13833,17.13833,0,0,0-3.61621,5.99756,33.304,33.304,0,0,0-1.08886,3.38623,31.851,31.851,0,0,0-.729,3.40759,2.335,2.335,0,1,1-4.4873-1.18151Z"/><path class="ae0d8958-a489-4d38-b1ba-c7dd3f36361d" d="M56.66749,16.16361a39.143,39.143,0,0,1,1.61963-3.66138,38.6004,38.6004,0,0,1,1.93847-3.44531A20.02988,20.02988,0,0,1,65.626,3.11918a.98842.98842,0,0,1,1.23047,1.54l-.0376.03479a17.67754,17.67754,0,0,0-3.85742,5.8385,35.19389,35.19389,0,0,0-1.27832,3.374,35.32132,35.32132,0,0,0-.94092,3.43079l-.00293.01574a2.12718,2.12718,0,1,1-4.16259-.8789A2.24156,2.24156,0,0,1,56.66749,16.16361Z"/><path class="eec90ac1-f035-4fe0-81e0-602b5511cf58" d="M63.44487,2.82052c.56981,1.10093.85762,3.65563-.23142,4.24785,0,0-2.708-.38912-3.38017-2.37472C59.4358,3.51944,59.08607.15479,59.3338.0133A6.82527,6.82527,0,0,1,63.44487,2.82052Z"/><path class="a0fb9aff-e72e-499f-b402-0518c3b95bc2" d="M59.98292.75113a3.061,3.061,0,0,1,1.689.98987,5.84039,5.84039,0,0,1,1.062,1.59326A6.48527,6.48527,0,0,1,63.313,7.02054l-.07569.01722a19.05623,19.05623,0,0,0-1.20459-3.37928,9.57741,9.57741,0,0,0-.85937-1.56762A4.53942,4.53942,0,0,0,59.94288.81705Z"/><ellipse class="e5b4d06e-e31b-4d0c-aba9-38a92703b4be" cx="66.51532" cy="3.86174" rx="0.64602" ry="1.0336" transform="translate(2.10938 20.92269) rotate(-18.15947)"/><ellipse class="b2a8fd27-6016-48c1-9fb6-5cceaa113389" cx="66.51532" cy="3.86174" rx="0.45401" ry="0.72639" transform="translate(2.10938 20.92269) rotate(-18.15947)"/></svg>