<?xml version="1.0" encoding="utf-8"?>
<!-- Generator: Adobe Illustrator 23.0.0, SVG Export Plug-In . SVG Version: 6.00 Build 0)  -->
<svg version="1.1" id="aef5b38a-a7e1-42dd-9bf7-6d1bae75d724"
	 xmlns="http://www.w3.org/2000/svg" xmlns:xlink="http://www.w3.org/1999/xlink" x="0px" y="0px" viewBox="0 0 94.8 43.1"
	 style="enable-background:new 0 0 94.8 43.1;" xml:space="preserve" preserveAspectRatio="none">
<style type="text/css">
	.st0{clip-path:url(#SVGID_2_);}
	.st1{fill:#754C29;}
	.st2{opacity:0.37;fill:#603913;enable-background:new    ;}
	.st3{opacity:0.21;fill:#A97C50;enable-background:new    ;}
	.st4{opacity:0.22;fill:#A97C50;enable-background:new    ;}
	.st5{fill:#A97C50;}
	.st6{fill:#8B5E3C;}
	.st7{opacity:0.19;fill:#A97C50;enable-background:new    ;}
	.st8{fill:#9E734C;}
	.st9{fill:#4C9944;}
	.st10{fill:#5CAD46;}
</style>
<title>Artboard 31</title>
<g>
	<defs>
		<path id="SVGID_1_" d="M87.3,37.7c-13.3,3.8-14.1-1.5-27.9-1.5c-13.9,0-13.9,1.5-27.7,1.5S17.5,40,4.2,36.3c-3.8-1.1-1-3.2-1-7.1
			c0-3.9,1.5-3.9,1.5-7.9s-4.8-7.6-1-8.6c13.3-3.8,14.1,1.5,27.9,1.5c13.9,0,13.9-1.5,27.7-1.5s14.2-2.3,27.5,1.5
			c3.8,1.1,1,3.2,1,7.1c0,3.9-2.5,4.3-1.5,8.1C87.6,34,91.1,36.7,87.3,37.7z"/>
	</defs>
	<clipPath id="SVGID_2_">
		<use xlink:href="#SVGID_1_"  style="overflow:visible;"/>
	</clipPath>
	<g class="st0">
		<path class="st1" d="M87.3,37.7c-13.3,3.8-14.1-1.5-27.9-1.5c-13.9,0-13.9,1.5-27.7,1.5S17.5,40,4.2,36.3c-3.8-1.1-1-3.2-1-7.1
			c0-3.9,1.5-3.9,1.5-7.9s-4.8-7.6-1-8.6c13.3-3.8,14.1,1.5,27.9,1.5c13.9,0,13.9-1.5,27.7-1.5s14.2-2.3,27.5,1.5
			c3.8,1.1,1,3.2,1,7.1c0,3.9-2.5,4.3-1.5,8.1C87.6,34,91.1,36.7,87.3,37.7z"/>
		<path class="st2" d="M20.4,44.3c-0.3,0-0.3-0.4-0.1-0.6c0.2-0.2,0.5-0.2,0.8-0.2c7.1-0.2,14-2.7,19.6-7.2c1.1-1.1,2.4-2,3.8-2.7
			c2.4-1,5-0.6,7.6-0.1c3.4,0.6,6.9,1.1,10.3,0.6c6.2-1,11.2-5.4,16.8-8.3c2.1-1.3,4.5-2,7-2.2c2.9,0,5.8,0.9,8.3,2.4
			c1.5,0.7,2.7,1.9,3.6,3.3c0.7,1.7,0.7,3.6-0.1,5.2C97,36.1,96,37.6,94.8,39c-2.8,3.4-5.8,7-9.9,8.3c-5.6,1.9-11.6-0.7-17.4-1.8
			c-3.4-0.6-6.8-0.7-10.2-0.3c-3.2,0.4-6.2,1.2-9.4,1.4c-2.4,0.1-4.8,0-7.2-0.4c-5.1-0.6-10.2-1.5-15.2-2.8c-0.1-0.4,0-0.4-0.5-0.3
			c-0.8,0.2-1.6,0.2-2.4,0l0.3-0.5"/>
		<path class="st2" d="M39.6,1.7c-7.1-0.6-14.3-0.7-21.5-0.3C15,1.5,11.7,2.2,8.6,1.8c-2.2-0.4-4.5,0-6.5,1.1
			C1.5,3.3,0.5,3.7,0.5,4.5c0,2.2,3.5,2,4.8,2.2C6.6,7,8,7.3,9.3,7.7c5.2,1.7,9.6,5.3,14.6,7.6c5.4,2.3,11.3,3.2,17.2,2.5
			c5.8-0.7,11.5-2.6,16.6-5.4c1-0.5,2.1-1.3,2.2-2.4c0-0.5-0.1-1-0.3-1.5c-1-2-3.1-3.1-5.3-3.9C49.6,3,44.6,2,39.6,1.7z"/>
		<path class="st2" d="M1.2,18.8c0.4,2,1.7,3.7,3.6,4.5c1.8,0.7,4.1,0.6,5.7,1.7c1.4,1,2,2.7,2.5,4.3c0.8,2.1,1.2,4.3,1.2,6.5
			C14,36.7,14,37.5,14,38.4c0.2,1.2,1.2,2.1,1.3,3.3c0,1.2-0.4,2.4-1.3,3.2c-0.6,0.8-1.5,1.5-2.5,1.8c-1.1,0.3-2.3,0.1-3.4-0.4
			c-2-0.9-3-2.8-4.8-3.7c-1.5-0.8-3.6-1-4.5-2.7c-0.3-0.7-0.5-1.5-0.6-2.2c-0.3-1.3-1.1-2.4-1.5-3.7c-0.9-2.8,0.5-5.8,2.1-8.3
			c1.1-1.7,2.4-3.3,2.7-5.3"/>
		<path class="st3" d="M-1.4,19.2c4,0.8,8-2,11.9-1.5c2.7,0.3,5,2.1,7.4,3.4s5.5,2.1,7.8,0.7c0.1-0.1,0.2-0.2,0.3-0.3
			c0.2-0.3,0.2-0.7,0-1c-0.7-2.2-2.4-4-4.6-4.7c-2-0.7-4.3-0.4-6.2-1.3c-2.7-1.3-4.1-4.6-6.7-6c-1.8-0.9-3.9-1-5.8-0.4
			c-1.9,0.7-3.6,1.8-5,3.3c-0.7,0.6-1.2,1.3-1.4,2.2C-3.8,15-3.2,16.4-2,17.2c1.2,0.8,2.6,1.3,4,1.5"/>
		<path class="st4" d="M57.7,13.9c-0.7,0.3-1.4,0.7-2.1,1.2C55,15.5,54.4,16,54,16.6c-0.4,0.6-0.5,1.4-0.2,2.1
			c0.5,1.1,2,1.3,3.2,1.1c2.8-0.5,5.4-2.6,8.2-2.3c0.9,0.1,1.8,0.4,2.7,0.7c1.7,0.6,3.5,1,5.3,1.2c0.5,0.1,1,0.1,1.5,0
			c1-0.3,1.7-1.2,2.5-1.9c1.3-1.1,3-1.6,4.7-1.5c1.3,0.2,2.6,0.6,3.8,1.1c1.2,0.5,2.6,0.6,3.9,0.3c1.3-0.4,2.1-1.7,1.9-3
			c-0.3-0.8-0.9-1.5-1.7-1.9c-2.9-2-6.2-3.3-9.7-3.8c-2.6-0.3-5.2-0.4-7.8-0.2c-1.6,0-3.2-0.1-4.5,0.9c-1.5,1.1-2.7,2.6-4.5,3.3
			c-1.2,0.3-2.5,0.6-3.7,0.8C58.8,13.5,58.2,13.7,57.7,13.9z"/>
	</g>
</g>
<path class="st1" d="M57.1,16.2c0.6-1.2,1.2-2.3,1.8-3.4c0.6-1.1,1.3-2.2,2-3.2c1.4-2.2,3-4.2,4.8-6c0.4-0.4,1-0.3,1.4,0
	c0.3,0.3,0.3,0.9,0.1,1.2l0,0c-1.3,1.9-2.5,4-3.3,6.2c-0.5,1.1-0.9,2.2-1.3,3.3c-0.4,1.1-0.8,2.3-1.1,3.4c-0.3,1.2-1.6,2-2.9,1.6
	s-2-1.6-1.6-2.9c0,0,0,0,0,0C57,16.5,57,16.3,57.1,16.2z"/>
<ellipse class="st5" cx="3.6" cy="24.4" rx="3.6" ry="11.7"/>
<path class="st6" d="M5.8,24.4c0,0.8-0.4,1.6-0.5,2.4c-0.1,0.9,0.2,1.7,0.1,2.4c-0.2,0.8-0.6,1.5-1,2.2c-0.4,1.1-0.7,2-1.2,2
	c-0.5,0-0.9-0.9-1.3-2c-0.4-0.7-0.7-1.5-1-2.2c-0.1-0.7,0.2-1.6,0.1-2.4C1,26,0.6,25.2,0.6,24.4c0-0.8,0.4-1.6,0.5-2.4
	c0.1-0.9-0.2-1.7-0.1-2.4c0.2-0.8,0.6-1.5,1-2.2c0.4-1.1,0.7-2,1.2-2c0.5,0,0.9,0.9,1.3,2c0.4,0.7,0.7,1.5,1,2.2
	c0.1,0.7-0.2,1.6-0.1,2.4C5.3,22.8,5.8,23.6,5.8,24.4z"/>
<path class="st5" d="M4.8,24.4c0,0.5-0.3,1-0.3,1.5c0,0.5,0.1,1.1,0.1,1.5c-0.2,0.5-0.4,1-0.6,1.4c-0.3,0.7-0.4,1.3-0.8,1.3
	c-0.3,0-0.5-0.6-0.8-1.3c-0.3-0.4-0.5-0.9-0.6-1.4c-0.1-0.5,0.1-1,0.1-1.5c0-0.5-0.3-1-0.3-1.5c0-0.5,0.3-1,0.3-1.5
	c0-0.5-0.1-1.1-0.1-1.5c0.2-0.5,0.4-1,0.6-1.4c0.3-0.7,0.4-1.3,0.8-1.3c0.3,0,0.5,0.6,0.8,1.3c0.3,0.4,0.5,0.9,0.6,1.4
	c0.1,0.5-0.1,1-0.1,1.5C4.5,23.4,4.8,23.9,4.8,24.4z"/>
<path class="st7" d="M48.4,22.3c-1.8,0.1-3.6,0.6-5.3,1.4c-1.7,0.8-3.4,1.4-5.2,1.7c-1.2,0.2-2.3,0.1-3.5,0.3
	c-1.1,0.2-2.2,0.7-3.1,1.4c-1,0.6-1.6,1.7-1.5,2.9c0.2,1.2,1.3,2.1,2.5,2.2c1.2,0.1,2.4-0.3,3.4-1c1-0.6,1.9-1.4,2.9-2
	c1.6-1,3.5-1.5,5.4-1.4c1.5,0.1,3,0.5,4.5,0.6c1.5,0.2,3.1-0.2,4.3-1.1C55.6,24.7,50.5,22.3,48.4,22.3z"/>
<path class="st6" d="M57,16.1c0.5-1.2,1.1-2.4,1.7-3.6c0.6-1.2,1.3-2.3,2-3.4C62.1,7,64,5,66.2,3.6c0.3-0.2,0.7-0.1,0.9,0.2
	c0.2,0.2,0.1,0.6-0.1,0.8l0,0c-1.6,1.7-2.8,3.8-3.6,6c-0.4,1.1-0.8,2.2-1.1,3.4c-0.3,1.1-0.5,2.3-0.7,3.4c-0.2,1.3-1.4,2.2-2.6,2
	c-1.3-0.2-2.2-1.4-2-2.6C56.9,16.5,56.9,16.3,57,16.1L57,16.1z"/>
<path class="st8" d="M56.7,16.2c0.5-1.2,1-2.5,1.6-3.7c0.6-1.2,1.2-2.3,1.9-3.4c1.4-2.3,3.2-4.3,5.4-5.9c0.5-0.3,1.1-0.2,1.4,0.3
	c0.3,0.4,0.2,0.9-0.1,1.3l0,0c-1.7,1.7-3,3.7-3.9,5.8c-0.5,1.1-0.9,2.2-1.3,3.4c-0.4,1.1-0.7,2.3-0.9,3.4l0,0
	c-0.2,1.1-1.4,1.9-2.5,1.6c-1.1-0.2-1.9-1.4-1.6-2.5C56.6,16.4,56.6,16.3,56.7,16.2z"/>
<path class="st9" d="M63.4,2.8c0.6,1.1,0.9,3.7-0.2,4.2c0,0-2.7-0.4-3.4-2.4c-0.4-1.2-0.7-4.5-0.5-4.7C61,0.4,62.5,1.4,63.4,2.8z"/>
<path class="st10" d="M60,0.8c0.7,0.1,1.2,0.5,1.7,1c0.4,0.5,0.8,1,1.1,1.6c0.5,1.1,0.8,2.4,0.6,3.7l-0.1,0
	c-0.3-1.2-0.7-2.3-1.2-3.4c-0.2-0.5-0.5-1.1-0.9-1.6C60.9,1.6,60.4,1.2,60,0.8L60,0.8z"/>
<ellipse transform="matrix(0.9502 -0.3117 0.3117 0.9502 2.1094 20.9227)" class="st6" cx="66.5" cy="3.9" rx="0.6" ry="1"/>
<ellipse transform="matrix(0.9502 -0.3117 0.3117 0.9502 2.1094 20.9227)" class="st1" cx="66.5" cy="3.9" rx="0.5" ry="0.7"/>
</svg>
