<svg preserveAspectRatio="none" id="ad1ac96a-dfce-4021-a113-18cf0a830201" data-name="Layer 1" xmlns="http://www.w3.org/2000/svg" viewBox="0 0 25.82576 22.65133"><defs><style>.ab7e0d94-2708-4a46-b9d2-0e326fd92f2d{opacity:0.75;}.ece93481-d457-43be-ab7d-050502f00a9e{fill:#86c66b;}.b8c8e2e9-7571-4083-8922-23bcb5aba387{fill:#3b4923;}.a71e4273-ced7-4b6d-8093-e9bdccf4ef2c{fill:#dc1f2b;}.e9963230-e86d-4e5c-980b-dd1f9ba404ab{fill:#f37371;}</style></defs><title>Artboard 136</title><g class="ab7e0d94-2708-4a46-b9d2-0e326fd92f2d"><path class="ece93481-d457-43be-ab7d-050502f00a9e" d="M24.9918,6.85763a6.48276,6.48276,0,0,0-1.57525-4.03492,6.0436,6.0436,0,0,0-10.541,4.0368c0-3.33756-2.70565-5.6208-6.0434-5.62084A6.05283,6.05283,0,0,0,1.90669,3.85118a7.85071,7.85071,0,0,0-.79132,6.3013A16.50281,16.50281,0,0,0,7.81189,20.22969a18.95263,18.95263,0,0,0,5.06364,2.42164,17.07133,17.07133,0,0,0,10.14424-8.10269A15.41277,15.41277,0,0,0,24.9918,6.85763Z"/><path class="ece93481-d457-43be-ab7d-050502f00a9e" d="M24.17559,6.04142a6.4828,6.4828,0,0,0-1.57526-4.03493,6.0436,6.0436,0,0,0-10.541,4.0368c0-3.33756-2.70565-5.62079-6.0434-5.62084A6.05283,6.05283,0,0,0,1.09048,3.035,7.85073,7.85073,0,0,0,.29915,9.33627,16.50292,16.50292,0,0,0,6.99568,19.41348a18.95279,18.95279,0,0,0,5.06364,2.42164,17.07133,17.07133,0,0,0,10.14424-8.1027A15.41284,15.41284,0,0,0,24.17559,6.04142Z"/></g><g class="ab7e0d94-2708-4a46-b9d2-0e326fd92f2d"><path class="b8c8e2e9-7571-4083-8922-23bcb5aba387" d="M25.808,6.85763a6.48277,6.48277,0,0,0-1.57526-4.03492,6.04359,6.04359,0,0,0-10.541,4.0368c0-3.33756-2.70565-5.6208-6.0434-5.62084A6.05281,6.05281,0,0,0,2.72291,3.85118a7.85067,7.85067,0,0,0-.79133,6.3013A16.50289,16.50289,0,0,0,8.6281,20.22969a18.95254,18.95254,0,0,0,5.06365,2.42164A17.07136,17.07136,0,0,0,23.836,14.54864,15.41288,15.41288,0,0,0,25.808,6.85763Z"/></g><path class="a71e4273-ced7-4b6d-8093-e9bdccf4ef2c" d="M24.9918,6.04142a6.48279,6.48279,0,0,0-1.57525-4.03493,6.0436,6.0436,0,0,0-10.541,4.0368c0-3.33756-2.70565-5.62079-6.0434-5.62084A6.05286,6.05286,0,0,0,1.90669,3.035a7.85073,7.85073,0,0,0-.79132,6.30131A16.50287,16.50287,0,0,0,7.81189,19.41348a18.95293,18.95293,0,0,0,5.06364,2.42164,17.07131,17.07131,0,0,0,10.14424-8.1027A15.41273,15.41273,0,0,0,24.9918,6.04142Z"/><ellipse class="e9963230-e86d-4e5c-980b-dd1f9ba404ab" cx="20.06392" cy="2.62102" rx="1.25037" ry="2.11" transform="translate(8.5983 19.29345) rotate(-62.92631)"/><ellipse class="e9963230-e86d-4e5c-980b-dd1f9ba404ab" cx="23.06083" cy="4.82485" rx="0.59914" ry="0.80753"/><path class="e9963230-e86d-4e5c-980b-dd1f9ba404ab" d="M9.40376,15.54534c2.39669,2.29478,4.68064,3.80552,4.01025,4.51211s-3.67059-.03038-6.06728-2.32517-3.28228-5.2784-2.61189-5.985S7.00708,13.25055,9.40376,15.54534Z"/></svg>