<svg preserveAspectRatio="none" id="ba6c091a-e901-4e35-98b2-0e1d209304eb" data-name="Layer 1" xmlns="http://www.w3.org/2000/svg" viewBox="0 0 25.82576 22.65133"><defs><style>.a5a409ef-06b6-4a49-9db2-3f247e74f366{opacity:0.75;}.abf961cb-290a-4b1c-bfb7-8bb2df4f88ad{fill:#86c66b;}.f1ebf022-6ca6-4a99-8854-831faa7730af{fill:#353f20;}.f55cc210-9766-4800-a13b-79747b6dfc0a{fill:#415829;}</style></defs><title>Artboard 133</title><g class="a5a409ef-06b6-4a49-9db2-3f247e74f366"><path class="abf961cb-290a-4b1c-bfb7-8bb2df4f88ad" d="M24.9918,6.85763a6.48276,6.48276,0,0,0-1.57525-4.03492,6.0436,6.0436,0,0,0-10.541,4.0368c0-3.33756-2.70565-5.6208-6.0434-5.62084A6.05283,6.05283,0,0,0,1.90669,3.85118a7.85071,7.85071,0,0,0-.79132,6.3013A16.50281,16.50281,0,0,0,7.81189,20.22969a18.95263,18.95263,0,0,0,5.06364,2.42164,17.07133,17.07133,0,0,0,10.14424-8.10269A15.41277,15.41277,0,0,0,24.9918,6.85763Z"/><path class="abf961cb-290a-4b1c-bfb7-8bb2df4f88ad" d="M24.17559,6.04142a6.4828,6.4828,0,0,0-1.57526-4.03493,6.0436,6.0436,0,0,0-10.541,4.0368c0-3.33756-2.70565-5.62079-6.0434-5.62084A6.05283,6.05283,0,0,0,1.09048,3.035,7.85073,7.85073,0,0,0,.29915,9.33627,16.50292,16.50292,0,0,0,6.99568,19.41348a18.95279,18.95279,0,0,0,5.06364,2.42164,17.07133,17.07133,0,0,0,10.14424-8.1027A15.41284,15.41284,0,0,0,24.17559,6.04142Z"/></g><g class="a5a409ef-06b6-4a49-9db2-3f247e74f366"><path class="f1ebf022-6ca6-4a99-8854-831faa7730af" d="M25.808,6.85763a6.48277,6.48277,0,0,0-1.57526-4.03492,6.04359,6.04359,0,0,0-10.541,4.0368c0-3.33756-2.70565-5.6208-6.0434-5.62084A6.05281,6.05281,0,0,0,2.72291,3.85118a7.85067,7.85067,0,0,0-.79133,6.3013A16.50289,16.50289,0,0,0,8.6281,20.22969a18.95254,18.95254,0,0,0,5.06365,2.42164A17.07136,17.07136,0,0,0,23.836,14.54864,15.41288,15.41288,0,0,0,25.808,6.85763Z"/></g><path class="f55cc210-9766-4800-a13b-79747b6dfc0a" d="M24.9918,6.04142a6.48279,6.48279,0,0,0-1.57525-4.03493,6.0436,6.0436,0,0,0-10.541,4.0368c0-3.33756-2.70565-5.62079-6.0434-5.62084A6.05286,6.05286,0,0,0,1.90669,3.035a7.85073,7.85073,0,0,0-.79132,6.30131A16.50287,16.50287,0,0,0,7.81189,19.41348a18.95293,18.95293,0,0,0,5.06364,2.42164,17.07131,17.07131,0,0,0,10.14424-8.1027A15.41273,15.41273,0,0,0,24.9918,6.04142Z"/></svg>