<svg id="a15c2a5c-116a-4cd6-945d-5af777780e96" data-name="Layer 1" xmlns="http://www.w3.org/2000/svg" xmlns:xlink="http://www.w3.org/1999/xlink" viewBox="0 0 24.42426 25.31297"><defs><style>.a1124a12-5d55-4662-925b-1fc6880afa90,.fdd9e582-39be-4df0-b56e-c58a7053bbea{fill:none;}.a90c42d9-a346-4b06-afcf-32076d4212f1{clip-path:url(#b16177c9-ce26-4eae-b354-651849d82650);}.ab1f15f9-a2cb-498b-b80b-8d68b55c37f8{fill:#537435;}.fdd9e582-39be-4df0-b56e-c58a7053bbea{stroke:#537435;stroke-miterlimit:10;stroke-width:2.44243px;}</style><clipPath id="b16177c9-ce26-4eae-b354-651849d82650"><rect class="a1124a12-5d55-4662-925b-1fc6880afa90" x="-803.45436" y="1661.04444" width="530.04255" height="298.14894"/></clipPath></defs><title>Artboard 101</title><path class="ab1f15f9-a2cb-498b-b80b-8d68b55c37f8" d="M10.93346,7.29832a.46355.46355,0,0,1-.1416-.34277V5.48484a.48778.48778,0,0,1,.1416-.3623.4667.4667,0,0,1,.3418-.1416h1.85449a.48479.48479,0,0,1,.5039.5039V6.95555a.45139.45139,0,0,1-.15136.34277.49855.49855,0,0,1-.35254.1416H11.27526A.46293.46293,0,0,1,10.93346,7.29832Zm.08008,12.19141a.4696.4696,0,0,1-.14063-.34278V9.63621a.45831.45831,0,0,1,.14063-.35254.48189.48189,0,0,1,.34277-.13086H13.0692a.48018.48018,0,0,1,.4834.4834V19.147a.48016.48016,0,0,1-.4834.4834H11.35631A.46642.46642,0,0,1,11.01354,19.48973Z"/><circle class="fdd9e582-39be-4df0-b56e-c58a7053bbea" cx="12.21213" cy="12.21213" r="10.99092"/></svg>