<svg id="f7e6b28e-0153-4712-aef5-4141bf74990c" data-name="Layer 1" xmlns="http://www.w3.org/2000/svg" viewBox="0 0 39.38911 39.60515" ><defs><style>.e5840fd9-41a9-49a6-9fec-744fc94d2009{fill:#010101;}.a231c95f-b3b1-4c96-9bab-63cc91ae10f8,.f15cad01-5a2b-4f1f-8512-89e7719a85b4,.ff2cdeab-4aaf-4d81-8667-ae7d53a54f51{fill:none;stroke:#010101;stroke-miterlimit:10;}.f15cad01-5a2b-4f1f-8512-89e7719a85b4{stroke-width:1.27887px;}.ff2cdeab-4aaf-4d81-8667-ae7d53a54f51{stroke-width:1.42191px;}.a231c95f-b3b1-4c96-9bab-63cc91ae10f8{stroke-width:1.512px;}</style></defs><path class="e5840fd9-41a9-49a6-9fec-744fc94d2009" d="M7.35349,11.02247a5.07059,5.07059,0,1,0,5.691,5.05152,3.1129,3.1129,0,0,0-.064-.76732A23.45794,23.45794,0,0,1,7.35349,11.02247Z"/><path class="f15cad01-5a2b-4f1f-8512-89e7719a85b4" d="M5.627,9.10416a7.35692,7.35692,0,1,0,9.71939,7.16166C9.65545,14.41146,5.627,9.10416,5.627,9.10416Z"/><path class="e5840fd9-41a9-49a6-9fec-744fc94d2009" d="M30.75676,11.02247a5.04063,5.04063,0,1,1-5.691,4.98758,3.11333,3.11333,0,0,1,.06394-.76732A23.01922,23.01922,0,0,0,30.75676,11.02247Z"/><path class="f15cad01-5a2b-4f1f-8512-89e7719a85b4" d="M32.48323,9.10416a7.35692,7.35692,0,1,1-9.71939,7.16166C28.4548,14.41146,32.48323,9.10416,32.48323,9.10416Z"/><path class="f15cad01-5a2b-4f1f-8512-89e7719a85b4" d="M5.627,9.10416s5.81884,7.73715,13.4281,7.73715c6.45829,0,10.23094-4.60392,19.247-13.87571"/><path class="f15cad01-5a2b-4f1f-8512-89e7719a85b4" d="M18.92724,11.98162a3.56508,3.56508,0,0,0-3.58083,3.70871,1.67153,1.67153,0,0,0,.19183.51155,9.36506,9.36506,0,0,0,3.58083.57549,13.20647,13.20647,0,0,0,3.64477-.51155,1.7704,1.7704,0,0,0,.06394-.57549A3.88015,3.88015,0,0,0,18.92724,11.98162Z"/><path class="f15cad01-5a2b-4f1f-8512-89e7719a85b4" d="M11.82952,11.02247s6.65011-6.71406,14.4512,0"/><path class="ff2cdeab-4aaf-4d81-8667-ae7d53a54f51" d="M9.27179,8.2729s9.20784-8.95207,19.56667,0"/><path class="a231c95f-b3b1-4c96-9bab-63cc91ae10f8" d="M6.65011,5.84305s12.02135-11.44586,24.55425,0"/><polygon class="e5840fd9-41a9-49a6-9fec-744fc94d2009" points="17.137 20.23 21.101 20.23 19.055 23.427 17.137 20.23"/><path class="e5840fd9-41a9-49a6-9fec-744fc94d2009" d="M36.89532,2.45405l2.49379-.76732-.51154,2.55774C38.87757,4.30841,38.30208,2.64588,36.89532,2.45405Z"/><path class="e5840fd9-41a9-49a6-9fec-744fc94d2009" d="M2.68562,35.51278a.94814.94814,0,0,1,.06394.4476v2.3659H2.302v-2.3659q0-.76732-.95915-.76732H.25577V34.8094c.38366,0,.76732-.06394,1.151-.06394a2.83806,2.83806,0,0,1,.83127.12788A.98016.98016,0,0,1,2.68562,35.51278ZM.70338,38.32628H.25577V36.15221H.70338Z"/><path class="e5840fd9-41a9-49a6-9fec-744fc94d2009" d="M4.22026,34.87334c.12789,0,.25578-.06394.44761-.06394a.69237.69237,0,0,1,.38366.06394c.12788.06394.25577.06394.31971.12789s.19183.12789.25578.19183.12788.19183.19183.25577.06394.19183.12788.25578a1.40776,1.40776,0,0,1,.064.51154v.89521a2.769,2.769,0,0,1-.064.31972,1.08044,1.08044,0,0,1-.12788.31972.49928.49928,0,0,1-.25578.25577,1.39774,1.39774,0,0,1-.31971.19183,1.08826,1.08826,0,0,1-.44761.06394h-.4476c-.12789,0-.19183-.06394-.25577-.06394h-.064v-.38366a3.20981,3.20981,0,0,0,.76732.12789.57649.57649,0,0,0,.31972-.06394c.06394,0,.19183-.06395.19183-.12789.06394-.06394.12789-.12789.12789-.19183.06394-.06394.06394-.12789.12788-.19183a.23489.23489,0,0,0,.064-.19183,2.76933,2.76933,0,0,1,.06394-.31972v-.51154a1.58774,1.58774,0,0,0-.06394-.5755c0-.06394-.064-.12788-.12789-.19182s-.06394-.12789-.12789-.19183-.12788-.06395-.25577-.12789a1.40781,1.40781,0,0,0-.51155-.06395.81108.81108,0,0,0-.38366.06394c-.12788,0-.19183.06394-.25577.06394l-.06394.06395v-.38366a.06263.06263,0,0,0,.06394-.06395A.66144.66144,0,0,1,4.22026,34.87334Z"/><path class="e5840fd9-41a9-49a6-9fec-744fc94d2009" d="M6.84194,34.87334h.63943a1.24663,1.24663,0,0,1,.51155.06394.90889.90889,0,0,1,.38366.12789.883.883,0,0,1,.25578.19183.96162.96162,0,0,1,.25577.70338v2.3659H8.44052v-2.3659c0-.44761-.31971-.70338-.95915-.70338H6.84194Z"/><path class="e5840fd9-41a9-49a6-9fec-744fc94d2009" d="M12.469,34.87334v.31972a.7522.7522,0,0,0-.57549.76732v2.3659h-.44761v-2.3659a.57642.57642,0,0,1,.064-.31972c0-.06394.06394-.12788.06394-.19183q.09591-.19182.19183-.19183H9.97517v-.31971H12.469Z"/><path class="e5840fd9-41a9-49a6-9fec-744fc94d2009" d="M15.98584,35.51278a.948.948,0,0,1,.064.4476v2.3659h-.44761v-2.3659c0-.4476-.31972-.70338-.95915-.70338H13.556v-.38366c.38366,0,.76733-.06394,1.151-.06394a2.83769,2.83769,0,0,1,.83127.12789A.84693.84693,0,0,1,15.98584,35.51278Zm-1.98224,2.8135H13.556V36.15221h.44761Z"/><path class="e5840fd9-41a9-49a6-9fec-744fc94d2009" d="M19.88639,35.51278a.94814.94814,0,0,1,.06394.4476v2.3659h-.4476v-2.3659c0-.4476-.31972-.70338-.95915-.70338h-1.087v-.38366c.38366,0,.76732-.06394,1.151-.06394a2.83762,2.83762,0,0,1,.83126.12789C19.63061,35.00123,19.7585,35.257,19.88639,35.51278Zm-2.04619,2.8135h-.4476V36.15221h.4476Z"/><path class="e5840fd9-41a9-49a6-9fec-744fc94d2009" d="M24.6182,38.32628a.38449.38449,0,0,1-.25578-.06394v-.38366h.19183c.25578,0,.38366-.12788.38366-.4476v-2.238l-.38366.06394v-.38366a9.46418,9.46418,0,0,1,1.27887-.06394,2.38468,2.38468,0,0,1,.76732.12789.716.716,0,0,1,.44761.51155.94814.94814,0,0,1,.06394.4476v2.3659h-.44761v-2.3659c0-.4476-.31971-.70338-.95915-.70338h-.4476v2.238a.9546.9546,0,0,1-.19183.63943C25.12974,38.26234,24.874,38.32628,24.6182,38.32628Z"/><path class="e5840fd9-41a9-49a6-9fec-744fc94d2009" d="M28.58268,37.1753v-2.238h.44761V36.7277l-.31972.4476Z"/><path class="e5840fd9-41a9-49a6-9fec-744fc94d2009" d="M30.30916,37.1753v-2.238h.4476V36.7277l-.31972.4476Z"/><path class="e5840fd9-41a9-49a6-9fec-744fc94d2009" d="M31.77985,34.87334h.63944a1.24656,1.24656,0,0,1,.51154.06394.90885.90885,0,0,1,.38366.12789.883.883,0,0,1,.25578.19183.96162.96162,0,0,1,.25577.70338v2.3659h-.4476v-2.3659c0-.44761-.31972-.70338-.95915-.70338h-.63944Z"/><path class="e5840fd9-41a9-49a6-9fec-744fc94d2009" d="M36.95927,38.1984v.06394h-.44761V38.1984a1.589,1.589,0,0,1,.06395-.51155,2.60648,2.60648,0,0,0,.12788-.4476c.06395-.19183.12789-.44761.19183-.70338L37.279,35.257H35.16885v-.31971h2.49379v.25577L37.279,36.53587c-.06394.19183-.06394.31972-.12788.38366,0,.12788-.06395.19183-.06395.31971s-.06394.19183-.06394.25578-.06394.19183-.06394.25577ZM35.6804,39.60515h-.4476V36.2801h.4476Z"/><path class="e5840fd9-41a9-49a6-9fec-744fc94d2009" d="M2.68562,35.51278a.94814.94814,0,0,1,.06394.4476v2.3659H2.302v-2.3659q0-.76732-.95915-.76732H.25577V34.8094c.38366,0,.76732-.06394,1.151-.06394a2.83806,2.83806,0,0,1,.83127.12788A.98016.98016,0,0,1,2.68562,35.51278ZM.70338,38.32628H.25577V36.15221H.70338Z"/><path class="e5840fd9-41a9-49a6-9fec-744fc94d2009" d="M4.22026,34.87334c.12789,0,.25578-.06394.44761-.06394a.69237.69237,0,0,1,.38366.06394c.12788.06394.25577.06394.31971.12789s.19183.12789.25578.19183.12788.19183.19183.25577.06394.19183.12788.25578a1.40776,1.40776,0,0,1,.064.51154v.89521a2.769,2.769,0,0,1-.064.31972,1.08044,1.08044,0,0,1-.12788.31972.49928.49928,0,0,1-.25578.25577,1.39774,1.39774,0,0,1-.31971.19183,1.08826,1.08826,0,0,1-.44761.06394h-.4476c-.12789,0-.19183-.06394-.25577-.06394h-.064v-.38366a3.20981,3.20981,0,0,0,.76732.12789.57649.57649,0,0,0,.31972-.06394c.06394,0,.19183-.06395.19183-.12789.06394-.06394.12789-.12789.12789-.19183.06394-.06394.06394-.12789.12788-.19183a.23489.23489,0,0,0,.064-.19183,2.76933,2.76933,0,0,1,.06394-.31972v-.51154a1.58774,1.58774,0,0,0-.06394-.5755c0-.06394-.064-.12788-.12789-.19182s-.06394-.12789-.12789-.19183-.12788-.06395-.25577-.12789a1.40781,1.40781,0,0,0-.51155-.06395.81108.81108,0,0,0-.38366.06394c-.12788,0-.19183.06394-.25577.06394l-.06394.06395v-.38366a.06263.06263,0,0,0,.06394-.06395A.66144.66144,0,0,1,4.22026,34.87334Z"/><path class="e5840fd9-41a9-49a6-9fec-744fc94d2009" d="M6.84194,34.87334h.63943a1.24663,1.24663,0,0,1,.51155.06394.90889.90889,0,0,1,.38366.12789.883.883,0,0,1,.25578.19183.96162.96162,0,0,1,.25577.70338v2.3659H8.44052v-2.3659c0-.44761-.31971-.70338-.95915-.70338H6.84194Z"/><path class="e5840fd9-41a9-49a6-9fec-744fc94d2009" d="M12.469,34.87334v.31972a.7522.7522,0,0,0-.57549.76732v2.3659h-.44761v-2.3659a.57642.57642,0,0,1,.064-.31972c0-.06394.06394-.12788.06394-.19183q.09591-.19182.19183-.19183H9.97517v-.31971H12.469Z"/><path class="e5840fd9-41a9-49a6-9fec-744fc94d2009" d="M15.98584,35.51278a.948.948,0,0,1,.064.4476v2.3659h-.44761v-2.3659c0-.4476-.31972-.70338-.95915-.70338H13.556v-.38366c.38366,0,.76733-.06394,1.151-.06394a2.83769,2.83769,0,0,1,.83127.12789A.84693.84693,0,0,1,15.98584,35.51278Zm-1.98224,2.8135H13.556V36.15221h.44761Z"/><path class="e5840fd9-41a9-49a6-9fec-744fc94d2009" d="M19.88639,35.51278a.94814.94814,0,0,1,.06394.4476v2.3659h-.4476v-2.3659c0-.4476-.31972-.70338-.95915-.70338h-1.087v-.38366c.38366,0,.76732-.06394,1.151-.06394a2.83762,2.83762,0,0,1,.83126.12789C19.63061,35.00123,19.7585,35.257,19.88639,35.51278Zm-2.04619,2.8135h-.4476V36.15221h.4476Z"/><path class="e5840fd9-41a9-49a6-9fec-744fc94d2009" d="M24.6182,38.32628a.38449.38449,0,0,1-.25578-.06394v-.38366h.19183c.25578,0,.38366-.12788.38366-.4476v-2.238l-.38366.06394v-.38366a9.46418,9.46418,0,0,1,1.27887-.06394,2.38468,2.38468,0,0,1,.76732.12789.716.716,0,0,1,.44761.51155.94814.94814,0,0,1,.06394.4476v2.3659h-.44761v-2.3659c0-.4476-.31971-.70338-.95915-.70338h-.4476v2.238a.9546.9546,0,0,1-.19183.63943C25.12974,38.26234,24.874,38.32628,24.6182,38.32628Z"/><path class="e5840fd9-41a9-49a6-9fec-744fc94d2009" d="M28.58268,37.1753v-2.238h.44761V36.7277l-.31972.4476Z"/><path class="e5840fd9-41a9-49a6-9fec-744fc94d2009" d="M30.30916,37.1753v-2.238h.4476V36.7277l-.31972.4476Z"/><path class="e5840fd9-41a9-49a6-9fec-744fc94d2009" d="M31.77985,34.87334h.63944a1.24656,1.24656,0,0,1,.51154.06394.90885.90885,0,0,1,.38366.12789.883.883,0,0,1,.25578.19183.96162.96162,0,0,1,.25577.70338v2.3659h-.4476v-2.3659c0-.44761-.31972-.70338-.95915-.70338h-.63944Z"/><path class="e5840fd9-41a9-49a6-9fec-744fc94d2009" d="M36.95927,38.1984v.06394h-.44761V38.1984a1.589,1.589,0,0,1,.06395-.51155,2.60648,2.60648,0,0,0,.12788-.4476c.06395-.19183.12789-.44761.19183-.70338L37.279,35.257H35.16885v-.31971h2.49379v.25577L37.279,36.53587c-.06394.19183-.06394.31972-.12788.38366,0,.12788-.06395.19183-.06395.31971s-.06394.19183-.06394.25578-.06394.19183-.06394.25577ZM35.6804,39.60515h-.4476V36.2801h.4476Z"/><path class="e5840fd9-41a9-49a6-9fec-744fc94d2009" d="M2.68562,35.51278a.94814.94814,0,0,1,.06394.4476v2.3659H2.302v-2.3659q0-.76732-.95915-.76732H.25577V34.8094c.38366,0,.76732-.06394,1.151-.06394a2.83806,2.83806,0,0,1,.83127.12788A.98016.98016,0,0,1,2.68562,35.51278ZM.70338,38.32628H.25577V36.15221H.70338Z"/><path class="e5840fd9-41a9-49a6-9fec-744fc94d2009" d="M4.22026,34.87334c.12789,0,.25578-.06394.44761-.06394a.69237.69237,0,0,1,.38366.06394c.12788.06394.25577.06394.31971.12789s.19183.12789.25578.19183.12788.19183.19183.25577.06394.19183.12788.25578a1.40776,1.40776,0,0,1,.064.51154v.89521a2.769,2.769,0,0,1-.064.31972,1.08044,1.08044,0,0,1-.12788.31972.49928.49928,0,0,1-.25578.25577,1.39774,1.39774,0,0,1-.31971.19183,1.08826,1.08826,0,0,1-.44761.06394h-.4476c-.12789,0-.19183-.06394-.25577-.06394h-.064v-.38366a3.20981,3.20981,0,0,0,.76732.12789.57649.57649,0,0,0,.31972-.06394c.06394,0,.19183-.06395.19183-.12789.06394-.06394.12789-.12789.12789-.19183.06394-.06394.06394-.12789.12788-.19183a.23489.23489,0,0,0,.064-.19183,2.76933,2.76933,0,0,1,.06394-.31972v-.51154a1.58774,1.58774,0,0,0-.06394-.5755c0-.06394-.064-.12788-.12789-.19182s-.06394-.12789-.12789-.19183-.12788-.06395-.25577-.12789a1.40781,1.40781,0,0,0-.51155-.06395.81108.81108,0,0,0-.38366.06394c-.12788,0-.19183.06394-.25577.06394l-.06394.06395v-.38366a.06263.06263,0,0,0,.06394-.06395A.66144.66144,0,0,1,4.22026,34.87334Z"/><path class="e5840fd9-41a9-49a6-9fec-744fc94d2009" d="M6.84194,34.87334h.63943a1.24663,1.24663,0,0,1,.51155.06394.90889.90889,0,0,1,.38366.12789.883.883,0,0,1,.25578.19183.96162.96162,0,0,1,.25577.70338v2.3659H8.44052v-2.3659c0-.44761-.31971-.70338-.95915-.70338H6.84194Z"/><path class="e5840fd9-41a9-49a6-9fec-744fc94d2009" d="M12.469,34.87334v.31972a.7522.7522,0,0,0-.57549.76732v2.3659h-.44761v-2.3659a.57642.57642,0,0,1,.064-.31972c0-.06394.06394-.12788.06394-.19183q.09591-.19182.19183-.19183H9.97517v-.31971H12.469Z"/><path class="e5840fd9-41a9-49a6-9fec-744fc94d2009" d="M15.98584,35.51278a.948.948,0,0,1,.064.4476v2.3659h-.44761v-2.3659c0-.4476-.31972-.70338-.95915-.70338H13.556v-.38366c.38366,0,.76733-.06394,1.151-.06394a2.83769,2.83769,0,0,1,.83127.12789A.84693.84693,0,0,1,15.98584,35.51278Zm-1.98224,2.8135H13.556V36.15221h.44761Z"/><path class="e5840fd9-41a9-49a6-9fec-744fc94d2009" d="M19.88639,35.51278a.94814.94814,0,0,1,.06394.4476v2.3659h-.4476v-2.3659c0-.4476-.31972-.70338-.95915-.70338h-1.087v-.38366c.38366,0,.76732-.06394,1.151-.06394a2.83762,2.83762,0,0,1,.83126.12789C19.63061,35.00123,19.7585,35.257,19.88639,35.51278Zm-2.04619,2.8135h-.4476V36.15221h.4476Z"/><path class="e5840fd9-41a9-49a6-9fec-744fc94d2009" d="M24.6182,38.32628a.38449.38449,0,0,1-.25578-.06394v-.38366h.19183c.25578,0,.38366-.12788.38366-.4476v-2.238l-.38366.06394v-.38366a9.46418,9.46418,0,0,1,1.27887-.06394,2.38468,2.38468,0,0,1,.76732.12789.716.716,0,0,1,.44761.51155.94814.94814,0,0,1,.06394.4476v2.3659h-.44761v-2.3659c0-.4476-.31971-.70338-.95915-.70338h-.4476v2.238a.9546.9546,0,0,1-.19183.63943C25.12974,38.26234,24.874,38.32628,24.6182,38.32628Z"/><path class="e5840fd9-41a9-49a6-9fec-744fc94d2009" d="M28.58268,37.1753v-2.238h.44761V36.7277l-.31972.4476Z"/><path class="e5840fd9-41a9-49a6-9fec-744fc94d2009" d="M30.30916,37.1753v-2.238h.4476V36.7277l-.31972.4476Z"/><path class="e5840fd9-41a9-49a6-9fec-744fc94d2009" d="M31.77985,34.87334h.63944a1.24656,1.24656,0,0,1,.51154.06394.90885.90885,0,0,1,.38366.12789.883.883,0,0,1,.25578.19183.96162.96162,0,0,1,.25577.70338v2.3659h-.4476v-2.3659c0-.44761-.31972-.70338-.95915-.70338h-.63944Z"/><path class="e5840fd9-41a9-49a6-9fec-744fc94d2009" d="M36.95927,38.1984v.06394h-.44761V38.1984a1.589,1.589,0,0,1,.06395-.51155,2.60648,2.60648,0,0,0,.12788-.4476c.06395-.19183.12789-.44761.19183-.70338L37.279,35.257H35.16885v-.31971h2.49379v.25577L37.279,36.53587c-.06394.19183-.06394.31972-.12788.38366,0,.12788-.06395.19183-.06395.31971s-.06394.19183-.06394.25578-.06394.19183-.06394.25577ZM35.6804,39.60515h-.4476V36.2801h.4476Z"/><path class="e5840fd9-41a9-49a6-9fec-744fc94d2009" d="M2.68562,35.51278a.94814.94814,0,0,1,.06394.4476v2.3659H2.302v-2.3659q0-.76732-.95915-.76732H.25577V34.8094c.38366,0,.76732-.06394,1.151-.06394a2.83806,2.83806,0,0,1,.83127.12788A.98016.98016,0,0,1,2.68562,35.51278ZM.70338,38.32628H.25577V36.15221H.70338Z"/><path class="e5840fd9-41a9-49a6-9fec-744fc94d2009" d="M4.22026,34.87334c.12789,0,.25578-.06394.44761-.06394a.69237.69237,0,0,1,.38366.06394c.12788.06394.25577.06394.31971.12789s.19183.12789.25578.19183.12788.19183.19183.25577.06394.19183.12788.25578a1.40776,1.40776,0,0,1,.064.51154v.89521a2.769,2.769,0,0,1-.064.31972,1.08044,1.08044,0,0,1-.12788.31972.49928.49928,0,0,1-.25578.25577,1.39774,1.39774,0,0,1-.31971.19183,1.08826,1.08826,0,0,1-.44761.06394h-.4476c-.12789,0-.19183-.06394-.25577-.06394h-.064v-.38366a3.20981,3.20981,0,0,0,.76732.12789.57649.57649,0,0,0,.31972-.06394c.06394,0,.19183-.06395.19183-.12789.06394-.06394.12789-.12789.12789-.19183.06394-.06394.06394-.12789.12788-.19183a.23489.23489,0,0,0,.064-.19183,2.76933,2.76933,0,0,1,.06394-.31972v-.51154a1.58774,1.58774,0,0,0-.06394-.5755c0-.06394-.064-.12788-.12789-.19182s-.06394-.12789-.12789-.19183-.12788-.06395-.25577-.12789a1.40781,1.40781,0,0,0-.51155-.06395.81108.81108,0,0,0-.38366.06394c-.12788,0-.19183.06394-.25577.06394l-.06394.06395v-.38366a.06263.06263,0,0,0,.06394-.06395A.66144.66144,0,0,1,4.22026,34.87334Z"/><path class="e5840fd9-41a9-49a6-9fec-744fc94d2009" d="M6.84194,34.87334h.63943a1.24663,1.24663,0,0,1,.51155.06394.90889.90889,0,0,1,.38366.12789.883.883,0,0,1,.25578.19183.96162.96162,0,0,1,.25577.70338v2.3659H8.44052v-2.3659c0-.44761-.31971-.70338-.95915-.70338H6.84194Z"/><path class="e5840fd9-41a9-49a6-9fec-744fc94d2009" d="M12.469,34.87334v.31972a.7522.7522,0,0,0-.57549.76732v2.3659h-.44761v-2.3659a.57642.57642,0,0,1,.064-.31972c0-.06394.06394-.12788.06394-.19183q.09591-.19182.19183-.19183H9.97517v-.31971H12.469Z"/><path class="e5840fd9-41a9-49a6-9fec-744fc94d2009" d="M15.98584,35.51278a.948.948,0,0,1,.064.4476v2.3659h-.44761v-2.3659c0-.4476-.31972-.70338-.95915-.70338H13.556v-.38366c.38366,0,.76733-.06394,1.151-.06394a2.83769,2.83769,0,0,1,.83127.12789A.84693.84693,0,0,1,15.98584,35.51278Zm-1.98224,2.8135H13.556V36.15221h.44761Z"/><path class="e5840fd9-41a9-49a6-9fec-744fc94d2009" d="M19.88639,35.51278a.94814.94814,0,0,1,.06394.4476v2.3659h-.4476v-2.3659c0-.4476-.31972-.70338-.95915-.70338h-1.087v-.38366c.38366,0,.76732-.06394,1.151-.06394a2.83762,2.83762,0,0,1,.83126.12789C19.63061,35.00123,19.7585,35.257,19.88639,35.51278Zm-2.04619,2.8135h-.4476V36.15221h.4476Z"/><path class="e5840fd9-41a9-49a6-9fec-744fc94d2009" d="M24.6182,38.32628a.38449.38449,0,0,1-.25578-.06394v-.38366h.19183c.25578,0,.38366-.12788.38366-.4476v-2.238l-.38366.06394v-.38366a9.46418,9.46418,0,0,1,1.27887-.06394,2.38468,2.38468,0,0,1,.76732.12789.716.716,0,0,1,.44761.51155.94814.94814,0,0,1,.06394.4476v2.3659h-.44761v-2.3659c0-.4476-.31971-.70338-.95915-.70338h-.4476v2.238a.9546.9546,0,0,1-.19183.63943C25.12974,38.26234,24.874,38.32628,24.6182,38.32628Z"/><path class="e5840fd9-41a9-49a6-9fec-744fc94d2009" d="M28.58268,37.1753v-2.238h.44761V36.7277l-.31972.4476Z"/><path class="e5840fd9-41a9-49a6-9fec-744fc94d2009" d="M30.30916,37.1753v-2.238h.4476V36.7277l-.31972.4476Z"/><path class="e5840fd9-41a9-49a6-9fec-744fc94d2009" d="M31.77985,34.87334h.63944a1.24656,1.24656,0,0,1,.51154.06394.90885.90885,0,0,1,.38366.12789.883.883,0,0,1,.25578.19183.96162.96162,0,0,1,.25577.70338v2.3659h-.4476v-2.3659c0-.44761-.31972-.70338-.95915-.70338h-.63944Z"/><path class="e5840fd9-41a9-49a6-9fec-744fc94d2009" d="M36.95927,38.1984v.06394h-.44761V38.1984a1.589,1.589,0,0,1,.06395-.51155,2.60648,2.60648,0,0,0,.12788-.4476c.06395-.19183.12789-.44761.19183-.70338L37.279,35.257H35.16885v-.31971h2.49379v.25577L37.279,36.53587c-.06394.19183-.06394.31972-.12788.38366,0,.12788-.06395.19183-.06395.31971s-.06394.19183-.06394.25578-.06394.19183-.06394.25577ZM35.6804,39.60515h-.4476V36.2801h.4476Z"/><path class="e5840fd9-41a9-49a6-9fec-744fc94d2009" d="M1.66253,28.0314h2.238v.83126l-.57549,1.98225h0l-.38367,1.66253H1.66253L2.04619,30.781l.51154-1.72648H.31972v-1.9183H1.66253Z"/><path class="e5840fd9-41a9-49a6-9fec-744fc94d2009" d="M5.43519,27.51985h.95915c-.12789.70338-.25578,1.34281-.31972,1.98225H4.8597v-.06394A8.8192,8.8192,0,0,1,5.43519,27.51985Zm1.72647,0h.95915c-.12789.70338-.25578,1.34281-.31972,1.98225h-1.151l-.06394-.06394Q6.96983,28.09535,7.16166,27.51985Z"/><path class="e5840fd9-41a9-49a6-9fec-744fc94d2009" d="M9.39968,31.10068V28.09534h1.34281v2.04619l-.76732.95915Z"/><path class="e5840fd9-41a9-49a6-9fec-744fc94d2009" d="M14.13148,28.0314c.19183,0,.38366-.06394.57549-.06394a1.408,1.408,0,0,1,.51155.06394,3.11767,3.11767,0,0,1,.44761.19183.93988.93988,0,0,1,.31971.38366,3.32167,3.32167,0,0,1,.25578,1.53464,2.64626,2.64626,0,0,1-.51155,1.72647,1.87144,1.87144,0,0,1-1.4707.63944,3.20981,3.20981,0,0,1-.76732-.12789,1.39259,1.39259,0,0,1-.57549-.4476,1.45857,1.45857,0,0,1-.38366-.76733,2.48537,2.48537,0,0,1-.12789-.95915V28.0314h1.34281v2.17407c0,.83127.19183,1.27887.57549,1.27887a.48087.48087,0,0,0,.44761-.31972,1.91049,1.91049,0,0,0,.12789-.95915,3.11523,3.11523,0,0,0-.12789-.95915.42814.42814,0,0,0-.44761-.25577h-.19183Z"/><path class="e5840fd9-41a9-49a6-9fec-744fc94d2009" d="M21.29314,28.09535a8.58921,8.58921,0,0,1,1.21493-.06395,3.1251,3.1251,0,0,1,.83126.06395c.19183.06394.38366.06394.51155.19183a.63835.63835,0,0,1,.31971.25577,1.39726,1.39726,0,0,1,.19183.31972c.06395.12788.06395.25577.12789.38366v3.325H23.1475V29.75787c0-.4476-.25577-.63943-.70338-.63943a8.5904,8.5904,0,0,0-1.21492.06394v-1.087Z"/><path class="e5840fd9-41a9-49a6-9fec-744fc94d2009" d="M27.49565,32.50744H26.15284v-4.476h1.34281Z"/><path class="e5840fd9-41a9-49a6-9fec-744fc94d2009" d="M32.48323,28.0314v.95915a.63273.63273,0,0,0-.4476.31972,1.20451,1.20451,0,0,0-.12789.51154v2.68563H30.56493V29.82181a.91609.91609,0,0,1,.31972-.70337H28.77452V28.09535h3.70871Z"/><path class="e5840fd9-41a9-49a6-9fec-744fc94d2009" d="M34.78519,28.0314a.92425.92425,0,0,1,.12789.4476H34.977l.19183-.19182c.06394-.06395.19183-.12789.25578-.19183s.19183-.06395.31971-.12789a1.24663,1.24663,0,0,1,.51155-.06394,1.2047,1.2047,0,0,1,.51155.12788,1.603,1.603,0,0,1,.4476.25578,1.03049,1.03049,0,0,1,.25577.4476,3.223,3.223,0,0,1,.19183,1.21493V32.4435H35.55251V31.42041h.76732v-1.4707a1.09935,1.09935,0,0,0-.06394-.51155c-.06394-.12788-.06394-.19183-.12789-.25577a.49781.49781,0,0,0-.4476-.19183.48337.48337,0,0,0-.25577.06394c-.06395,0-.12789.06394-.19183.12789-.12789.12789-.19183.19183-.19183.25577v.06395l-.12789,3.00533H33.57027l.25577-2.81351v-.44761a3.62072,3.62072,0,0,0-.19183-1.151h1.151Z"/><path class="e5840fd9-41a9-49a6-9fec-744fc94d2009" d="M1.66253,28.0314h2.238v.83126l-.57549,1.98225h0l-.38367,1.66253H1.66253L2.04619,30.781l.51154-1.72648H.31972v-1.9183H1.66253Z"/><path class="e5840fd9-41a9-49a6-9fec-744fc94d2009" d="M5.43519,27.51985h.95915c-.12789.70338-.25578,1.34281-.31972,1.98225H4.8597v-.06394A8.8192,8.8192,0,0,1,5.43519,27.51985Zm1.72647,0h.95915c-.12789.70338-.25578,1.34281-.31972,1.98225h-1.151l-.06394-.06394Q6.96983,28.09535,7.16166,27.51985Z"/><path class="e5840fd9-41a9-49a6-9fec-744fc94d2009" d="M9.39968,31.10068V28.09534h1.34281v2.04619l-.76732.95915Z"/><path class="e5840fd9-41a9-49a6-9fec-744fc94d2009" d="M14.13148,28.0314c.19183,0,.38366-.06394.57549-.06394a1.408,1.408,0,0,1,.51155.06394,3.11767,3.11767,0,0,1,.44761.19183.93988.93988,0,0,1,.31971.38366,3.32167,3.32167,0,0,1,.25578,1.53464,2.64626,2.64626,0,0,1-.51155,1.72647,1.87144,1.87144,0,0,1-1.4707.63944,3.20981,3.20981,0,0,1-.76732-.12789,1.39259,1.39259,0,0,1-.57549-.4476,1.45857,1.45857,0,0,1-.38366-.76733,2.48537,2.48537,0,0,1-.12789-.95915V28.0314h1.34281v2.17407c0,.83127.19183,1.27887.57549,1.27887a.48087.48087,0,0,0,.44761-.31972,1.91049,1.91049,0,0,0,.12789-.95915,3.11523,3.11523,0,0,0-.12789-.95915.42814.42814,0,0,0-.44761-.25577h-.19183Z"/><path class="e5840fd9-41a9-49a6-9fec-744fc94d2009" d="M21.29314,28.09535a8.58921,8.58921,0,0,1,1.21493-.06395,3.1251,3.1251,0,0,1,.83126.06395c.19183.06394.38366.06394.51155.19183a.63835.63835,0,0,1,.31971.25577,1.39726,1.39726,0,0,1,.19183.31972c.06395.12788.06395.25577.12789.38366v3.325H23.1475V29.75787c0-.4476-.25577-.63943-.70338-.63943a8.5904,8.5904,0,0,0-1.21492.06394v-1.087Z"/><path class="e5840fd9-41a9-49a6-9fec-744fc94d2009" d="M27.49565,32.50744H26.15284v-4.476h1.34281Z"/><path class="e5840fd9-41a9-49a6-9fec-744fc94d2009" d="M32.48323,28.0314v.95915a.63273.63273,0,0,0-.4476.31972,1.20451,1.20451,0,0,0-.12789.51154v2.68563H30.56493V29.82181a.91609.91609,0,0,1,.31972-.70337H28.77452V28.09535h3.70871Z"/><path class="e5840fd9-41a9-49a6-9fec-744fc94d2009" d="M34.78519,28.0314a.92425.92425,0,0,1,.12789.4476H34.977l.19183-.19182c.06394-.06395.19183-.12789.25578-.19183s.19183-.06395.31971-.12789a1.24663,1.24663,0,0,1,.51155-.06394,1.2047,1.2047,0,0,1,.51155.12788,1.603,1.603,0,0,1,.4476.25578,1.03049,1.03049,0,0,1,.25577.4476,3.223,3.223,0,0,1,.19183,1.21493V32.4435H35.55251V31.42041h.76732v-1.4707a1.09935,1.09935,0,0,0-.06394-.51155c-.06394-.12788-.06394-.19183-.12789-.25577a.49781.49781,0,0,0-.4476-.19183.48337.48337,0,0,0-.25577.06394c-.06395,0-.12789.06394-.19183.12789-.12789.12789-.19183.19183-.19183.25577v.06395l-.12789,3.00533H33.57027l.25577-2.81351v-.44761a3.62072,3.62072,0,0,0-.19183-1.151h1.151Z"/><path class="e5840fd9-41a9-49a6-9fec-744fc94d2009" d="M1.66253,28.0314h2.238v.83126l-.57549,1.98225h0l-.38367,1.66253H1.66253L2.04619,30.781l.51154-1.72648H.31972v-1.9183H1.66253Z"/><path class="e5840fd9-41a9-49a6-9fec-744fc94d2009" d="M5.43519,27.51985h.95915c-.12789.70338-.25578,1.34281-.31972,1.98225H4.8597v-.06394A8.8192,8.8192,0,0,1,5.43519,27.51985Zm1.72647,0h.95915c-.12789.70338-.25578,1.34281-.31972,1.98225h-1.151l-.06394-.06394Q6.96983,28.09535,7.16166,27.51985Z"/><path class="e5840fd9-41a9-49a6-9fec-744fc94d2009" d="M9.39968,31.10068V28.09534h1.34281v2.04619l-.76732.95915Z"/><path class="e5840fd9-41a9-49a6-9fec-744fc94d2009" d="M14.13148,28.0314c.19183,0,.38366-.06394.57549-.06394a1.408,1.408,0,0,1,.51155.06394,3.11767,3.11767,0,0,1,.44761.19183.93988.93988,0,0,1,.31971.38366,3.32167,3.32167,0,0,1,.25578,1.53464,2.64626,2.64626,0,0,1-.51155,1.72647,1.87144,1.87144,0,0,1-1.4707.63944,3.20981,3.20981,0,0,1-.76732-.12789,1.39259,1.39259,0,0,1-.57549-.4476,1.45857,1.45857,0,0,1-.38366-.76733,2.48537,2.48537,0,0,1-.12789-.95915V28.0314h1.34281v2.17407c0,.83127.19183,1.27887.57549,1.27887a.48087.48087,0,0,0,.44761-.31972,1.91049,1.91049,0,0,0,.12789-.95915,3.11523,3.11523,0,0,0-.12789-.95915.42814.42814,0,0,0-.44761-.25577h-.19183Z"/><path class="e5840fd9-41a9-49a6-9fec-744fc94d2009" d="M21.29314,28.09535a8.58921,8.58921,0,0,1,1.21493-.06395,3.1251,3.1251,0,0,1,.83126.06395c.19183.06394.38366.06394.51155.19183a.63835.63835,0,0,1,.31971.25577,1.39726,1.39726,0,0,1,.19183.31972c.06395.12788.06395.25577.12789.38366v3.325H23.1475V29.75787c0-.4476-.25577-.63943-.70338-.63943a8.5904,8.5904,0,0,0-1.21492.06394v-1.087Z"/><path class="e5840fd9-41a9-49a6-9fec-744fc94d2009" d="M27.49565,32.50744H26.15284v-4.476h1.34281Z"/><path class="e5840fd9-41a9-49a6-9fec-744fc94d2009" d="M32.48323,28.0314v.95915a.63273.63273,0,0,0-.4476.31972,1.20451,1.20451,0,0,0-.12789.51154v2.68563H30.56493V29.82181a.91609.91609,0,0,1,.31972-.70337H28.77452V28.09535h3.70871Z"/><path class="e5840fd9-41a9-49a6-9fec-744fc94d2009" d="M34.78519,28.0314a.92425.92425,0,0,1,.12789.4476H34.977l.19183-.19182c.06394-.06395.19183-.12789.25578-.19183s.19183-.06395.31971-.12789a1.24663,1.24663,0,0,1,.51155-.06394,1.2047,1.2047,0,0,1,.51155.12788,1.603,1.603,0,0,1,.4476.25578,1.03049,1.03049,0,0,1,.25577.4476,3.223,3.223,0,0,1,.19183,1.21493V32.4435H35.55251V31.42041h.76732v-1.4707a1.09935,1.09935,0,0,0-.06394-.51155c-.06394-.12788-.06394-.19183-.12789-.25577a.49781.49781,0,0,0-.4476-.19183.48337.48337,0,0,0-.25577.06394c-.06395,0-.12789.06394-.19183.12789-.12789.12789-.19183.19183-.19183.25577v.06395l-.12789,3.00533H33.57027l.25577-2.81351v-.44761a3.62072,3.62072,0,0,0-.19183-1.151h1.151Z"/><path class="e5840fd9-41a9-49a6-9fec-744fc94d2009" d="M1.66253,28.0314h2.238v.83126l-.57549,1.98225h0l-.38367,1.66253H1.66253L2.04619,30.781l.51154-1.72648H.31972v-1.9183H1.66253Z"/><path class="e5840fd9-41a9-49a6-9fec-744fc94d2009" d="M5.43519,27.51985h.95915c-.12789.70338-.25578,1.34281-.31972,1.98225H4.8597v-.06394A8.8192,8.8192,0,0,1,5.43519,27.51985Zm1.72647,0h.95915c-.12789.70338-.25578,1.34281-.31972,1.98225h-1.151l-.06394-.06394Q6.96983,28.09535,7.16166,27.51985Z"/><path class="e5840fd9-41a9-49a6-9fec-744fc94d2009" d="M9.39968,31.10068V28.09534h1.34281v2.04619l-.76732.95915Z"/><path class="e5840fd9-41a9-49a6-9fec-744fc94d2009" d="M14.13148,28.0314c.19183,0,.38366-.06394.57549-.06394a1.408,1.408,0,0,1,.51155.06394,3.11767,3.11767,0,0,1,.44761.19183.93988.93988,0,0,1,.31971.38366,3.32167,3.32167,0,0,1,.25578,1.53464,2.64626,2.64626,0,0,1-.51155,1.72647,1.87144,1.87144,0,0,1-1.4707.63944,3.20981,3.20981,0,0,1-.76732-.12789,1.39259,1.39259,0,0,1-.57549-.4476,1.45857,1.45857,0,0,1-.38366-.76733,2.48537,2.48537,0,0,1-.12789-.95915V28.0314h1.34281v2.17407c0,.83127.19183,1.27887.57549,1.27887a.48087.48087,0,0,0,.44761-.31972,1.91049,1.91049,0,0,0,.12789-.95915,3.11523,3.11523,0,0,0-.12789-.95915.42814.42814,0,0,0-.44761-.25577h-.19183Z"/><path class="e5840fd9-41a9-49a6-9fec-744fc94d2009" d="M21.29314,28.09535a8.58921,8.58921,0,0,1,1.21493-.06395,3.1251,3.1251,0,0,1,.83126.06395c.19183.06394.38366.06394.51155.19183a.63835.63835,0,0,1,.31971.25577,1.39726,1.39726,0,0,1,.19183.31972c.06395.12788.06395.25577.12789.38366v3.325H23.1475V29.75787c0-.4476-.25577-.63943-.70338-.63943a8.5904,8.5904,0,0,0-1.21492.06394v-1.087Z"/><path class="e5840fd9-41a9-49a6-9fec-744fc94d2009" d="M27.49565,32.50744H26.15284v-4.476h1.34281Z"/><path class="e5840fd9-41a9-49a6-9fec-744fc94d2009" d="M32.48323,28.0314v.95915a.63273.63273,0,0,0-.4476.31972,1.20451,1.20451,0,0,0-.12789.51154v2.68563H30.56493V29.82181a.91609.91609,0,0,1,.31972-.70337H28.77452V28.09535h3.70871Z"/><path class="e5840fd9-41a9-49a6-9fec-744fc94d2009" d="M34.78519,28.0314a.92425.92425,0,0,1,.12789.4476H34.977l.19183-.19182c.06394-.06395.19183-.12789.25578-.19183s.19183-.06395.31971-.12789a1.24663,1.24663,0,0,1,.51155-.06394,1.2047,1.2047,0,0,1,.51155.12788,1.603,1.603,0,0,1,.4476.25578,1.03049,1.03049,0,0,1,.25577.4476,3.223,3.223,0,0,1,.19183,1.21493V32.4435H35.55251V31.42041h.76732v-1.4707a1.09935,1.09935,0,0,0-.06394-.51155c-.06394-.12788-.06394-.19183-.12789-.25577a.49781.49781,0,0,0-.4476-.19183.48337.48337,0,0,0-.25577.06394c-.06395,0-.12789.06394-.19183.12789-.12789.12789-.19183.19183-.19183.25577v.06395l-.12789,3.00533H33.57027l.25577-2.81351v-.44761a3.62072,3.62072,0,0,0-.19183-1.151h1.151Z"/></svg>