<svg id="ebd82ec5-cc50-423f-8490-be90e54c866d" data-name="Layer 1" xmlns="http://www.w3.org/2000/svg" viewBox="0 0 59.74463 56.68066"><defs><style>.e19f1578-a037-4895-9758-4680838d332e{fill:#86c66b;}.b085c446-998c-4cda-93b3-19ec76460f7e{fill:#d5bdab;}.ae5ea892-8863-4783-a0be-875798f588f4{fill:#fff;}</style></defs><title>Artboard 236</title><path class="e19f1578-a037-4895-9758-4680838d332e" d="M5.043,1.5H54.70313a3.542,3.542,0,0,1,3.542,3.542V51.6377a3.543,3.543,0,0,1-3.543,3.543H5.043A3.543,3.543,0,0,1,1.5,51.6377V5.043A3.543,3.543,0,0,1,5.043,1.5Z"/><path class="b085c446-998c-4cda-93b3-19ec76460f7e" d="M54.70215,3a2.04449,2.04449,0,0,1,2.04248,2.04248v46.5957a2.04449,2.04449,0,0,1-2.04248,2.04248H5.04248A2.04449,2.04449,0,0,1,3,51.63818V5.04248A2.04449,2.04449,0,0,1,5.04248,3H54.70215m0-3H5.04248A5.04244,5.04244,0,0,0,0,5.04248v46.5957a5.04244,5.04244,0,0,0,5.04248,5.04248H54.70215a5.04244,5.04244,0,0,0,5.04248-5.04248V5.04248A5.04244,5.04244,0,0,0,54.70215,0Z"/><path class="ae5ea892-8863-4783-a0be-875798f588f4" d="M25.88488,33.07526a.98391.98391,0,0,1-.21679-.63379,9.34394,9.34394,0,0,1,.03613-.9502A8.8608,8.8608,0,0,1,26.838,28.14264,28.00024,28.00024,0,0,1,29.23254,24.795a22.56449,22.56449,0,0,0,1.69238-2.28515,3.75208,3.75208,0,0,0,.61133-1.833,2.62221,2.62221,0,0,0-.666-2.126,2.54814,2.54814,0,0,0-1.92578-.81445q-2.66454,0-3.27636,3.21192a2.22061,2.22061,0,0,1-.43165.81445.93155.93155,0,0,1-.71972.27148H19.83605a.69712.69712,0,0,1-.59375-.33886,1.52312,1.52312,0,0,1-.23339-.88282,10.68514,10.68514,0,0,1,1.25976-4.70508A9.39765,9.39765,0,0,1,23.797,12.419a10.51884,10.51884,0,0,1,5.5791-1.42481,10.05907,10.05907,0,0,1,5.38282,1.28907,7.697,7.697,0,0,1,2.96972,3.1455,8.53172,8.53172,0,0,1,.90039,3.75489A9.187,9.187,0,0,1,37.8009,23.211a25.5997,25.5997,0,0,1-2.376,3.8457q-.97266,1.35792-1.47656,2.17188a8.656,8.656,0,0,0-.82813,1.76562,6.41266,6.41266,0,0,0-.252,1.13086,3.88712,3.88712,0,0,1-.52148.9502.79088.79088,0,0,1-.62989.27148H26.38879A.63187.63187,0,0,1,25.88488,33.07526Zm-.05469,9.72851a1.21213,1.21213,0,0,1-.26953-.81445V36.60456a1.30164,1.30164,0,0,1,.26953-.83692.82234.82234,0,0,1,.666-.33984h4.82422a.821.821,0,0,1,.666.33984,1.30217,1.30217,0,0,1,.27051.83692v5.38476a1.2126,1.2126,0,0,1-.27051.81445.84219.84219,0,0,1-.666.31641H26.49621A.84361.84361,0,0,1,25.83019,42.80377Z"/></svg>