<svg id="fc86181e-064f-4c83-bbdb-fdfc7a654c33" data-name="Layer 1" xmlns="http://www.w3.org/2000/svg" viewBox="0 0 59.74463 56.68115"><defs><style>.fd32a885-9067-4075-81f7-2b48aa85a6ad{fill:#86c66b;}.ee534eb4-3582-42ea-adc2-0b559c654470{fill:#d5bdab;}</style></defs><title>Artboard 207</title><path class="fd32a885-9067-4075-81f7-2b48aa85a6ad" d="M5.04248,1.5H54.70166a3.543,3.543,0,0,1,3.543,3.543V51.6377a3.543,3.543,0,0,1-3.543,3.543H5.0415a3.542,3.542,0,0,1-3.542-3.542V5.043A3.543,3.543,0,0,1,5.04248,1.5Z"/><path class="ee534eb4-3582-42ea-adc2-0b559c654470" d="M54.70215,3a2.04449,2.04449,0,0,1,2.04248,2.04248v46.5957a2.04491,2.04491,0,0,1-2.04248,2.043H5.04248A2.04491,2.04491,0,0,1,3,51.63818V5.04248A2.04449,2.04449,0,0,1,5.04248,3H54.70215m0-3H5.04248A5.04244,5.04244,0,0,0,0,5.04248v46.5957a5.04255,5.04255,0,0,0,5.04248,5.043H54.70215a5.04286,5.04286,0,0,0,5.04248-5.043V5.04248A5.04276,5.04276,0,0,0,54.70215,0Z"/></svg>