<svg id="b5e3ada1-fc4f-458c-b885-48822e928175" data-name="Layer 1" xmlns="http://www.w3.org/2000/svg" xmlns:xlink="http://www.w3.org/1999/xlink" viewBox="0 0 54.6123 62.03469"><defs><style>.a6bab552-9ae0-4443-a410-ec3ffa22f750,.ac38ab95-5958-42aa-87bd-9939c5a96dfb,.bfdb32ad-6a22-4711-926d-f1c69a18d053,.e2d45aab-44ac-4a1f-9410-6f20c47432ac{fill:none;}.ac38ab95-5958-42aa-87bd-9939c5a96dfb{stroke:#f1f2f2;}.ac38ab95-5958-42aa-87bd-9939c5a96dfb,.e2d45aab-44ac-4a1f-9410-6f20c47432ac{stroke-linecap:round;stroke-width:2px;stroke-dasharray:0.5 2;}.ac38ab95-5958-42aa-87bd-9939c5a96dfb,.bfdb32ad-6a22-4711-926d-f1c69a18d053,.e2d45aab-44ac-4a1f-9410-6f20c47432ac{stroke-miterlimit:10;}.bfdb32ad-6a22-4711-926d-f1c69a18d053,.e2d45aab-44ac-4a1f-9410-6f20c47432ac{stroke:#bcbec0;}.a8a7fb95-91b4-47eb-aa11-5c01ed512268{clip-path:url(#ac615513-49be-4a64-9154-df9380ea7a24);}.a1c970d0-cf33-4dbc-b7fc-d6b6a45e7132{fill:#58595b;}.b3a04e1b-f147-49f9-af6b-3d5751fe9c15{fill:#414042;}</style><clipPath id="ac615513-49be-4a64-9154-df9380ea7a24"><rect class="a6bab552-9ae0-4443-a410-ec3ffa22f750" x="12.9857" y="35.79874" width="18.38298" height="22.97872" rx="1.97872"/></clipPath></defs><title>Artboard 233</title><path class="ac38ab95-5958-42aa-87bd-9939c5a96dfb" d="M1.25,2.48494A8.89869,8.89869,0,0,1,5.50066,9.9634c.00514,3.63725-2.246,7.14828-1.56,10.72026a11.14665,11.14665,0,0,0,1.82128,3.96308c1.65173,2.49311,3.6757,4.80554,4.6705,7.62586.542,1.53669.87351,3.34641,2.24692,4.22331a5.62764,5.62764,0,0,0,2.29785.66287,46.91867,46.91867,0,0,0,4.98109.50933,22.75443,22.75443,0,0,1,2.89573.15249c1.8819.30051,3.71644,1.303,5.58985.95343,1.99777-.37278,3.38062-2.156,4.52012-3.83874a82.36777,82.36777,0,0,0,8.70956-16.21366,28.5936,28.5936,0,0,1,2.12683-4.77782c1.42923-2.30774,3.60006-4.03629,5.55712-5.91731S53.16124,3.92673,53.6123,1.25"/><path class="e2d45aab-44ac-4a1f-9410-6f20c47432ac" d="M1,2.23494A8.89869,8.89869,0,0,1,5.25066,9.7134c.00514,3.63725-2.246,7.14828-1.56,10.72026a11.14665,11.14665,0,0,0,1.82128,3.96308c1.65173,2.49311,3.6757,4.80554,4.6705,7.62586.542,1.53669.87351,3.34641,2.24692,4.22331a5.62764,5.62764,0,0,0,2.29785.66287,46.91867,46.91867,0,0,0,4.98109.50933,22.75443,22.75443,0,0,1,2.89573.15249c1.8819.30051,3.71644,1.303,5.58985.95343,1.99777-.37278,3.38062-2.156,4.52012-3.83874a82.36777,82.36777,0,0,0,8.70956-16.21366,28.5936,28.5936,0,0,1,2.12683-4.77782c1.42923-2.30774,3.60006-4.03629,5.55712-5.91731S52.91124,3.67673,53.3623,1"/><g class="a8a7fb95-91b4-47eb-aa11-5c01ed512268"><rect class="a1c970d0-cf33-4dbc-b7fc-d6b6a45e7132" x="12.9857" y="35.79874" width="18.38298" height="22.97872" rx="1.97872"/><path class="b3a04e1b-f147-49f9-af6b-3d5751fe9c15" d="M24.08607,39.22551a5.87844,5.87844,0,0,1,2.097,1.1683,4.383,4.383,0,0,1,.71532,4.82983,8.43643,8.43643,0,0,1-3.56719,3.66542c-1.488.8885-3.11,1.53125-4.61956,2.38261a6.68811,6.68811,0,0,0-3.40083,3.5997,2.13989,2.13989,0,0,0,.31387,2.066,3.3902,3.3902,0,0,0,2.50116.59627,9.77791,9.77791,0,0,1,3.73709.808A1.76583,1.76583,0,0,1,22.983,59.35857c.1436.55037-.21885,1.13051-.10819,1.68843a1.34779,1.34779,0,0,0,1.19153.97415,3.101,3.101,0,0,0,1.59039-.33611c3.75238-1.65325,5.99954-5.48191,7.83864-9.14678a26.508,26.508,0,0,0,2.13928-5.24648,10.10432,10.10432,0,0,0-.01518-5.60134,11.78833,11.78833,0,0,0-2.00052-3.50724,8.59,8.59,0,0,0-2.09224-2.05566,10.32126,10.32126,0,0,0-1.58658-.7709,24.22236,24.22236,0,0,0-6.53369-2.02534,17.60962,17.60962,0,0,0-3.39673.00084,11.94878,11.94878,0,0,0-4.77384,1.20153,5.311,5.311,0,0,0-2.58,2.74208c-.39537,1.40454.81211,1.03731,1.8489.91771A20.76806,20.76806,0,0,1,24.08607,39.22551Z"/><path class="bfdb32ad-6a22-4711-926d-f1c69a18d053" d="M21.53694,38.0273l.979,9.47331a30.02647,30.02647,0,0,0-.6058-9.50785A111.16683,111.16683,0,0,1,23.56738,50.055a93.92838,93.92838,0,0,0-.51016-11.17245l.16,10.37795c-.26045-2.34977-.69576-4.6762-1.13068-7a28.73047,28.73047,0,0,0,.47779,7.98259.70329.70329,0,0,0-1.21173.05977,22.15228,22.15228,0,0,0,3.54595-.50313,9.4557,9.4557,0,0,0-5.35961.5711,23.6505,23.6505,0,0,0,5.31446.3134,3.376,3.376,0,0,0-4.03106.44559,3.74418,3.74418,0,0,0,4.34867.01862c.16348-.1207.33279-.32344.23948-.504-.07024-.1359-.24822-.16645-.40094-.17524a6.33355,6.33355,0,0,0-2.73111.45107,2.86457,2.86457,0,0,0,1.60549-.2367.54252.54252,0,0,0-.50924-.39215,9.98268,9.98268,0,0,0,.1811,3.53051l-.39834-3.52427a12.15787,12.15787,0,0,0,.40283,3.66989,5.83191,5.83191,0,0,0-.00883-2.26319,4.46773,4.46773,0,0,0,.09378,1.77615"/></g></svg>