<svg id="e16ddb8c-7d8d-49c2-b8f6-358b68a04b7a" data-name="Layer 1" xmlns="http://www.w3.org/2000/svg" viewBox="0 0 59.74463 56.6872"><defs><style>.b17ef135-4c91-4c52-b097-a5f8ad2e2dd3{fill:#86c66b;}.a840f2f5-73de-4209-8371-b8bc813d751a{fill:#d5bdab;}.b725fd30-e8f3-4b3a-b137-44db5a78aa2d{fill:#fff;}</style></defs><title>Artboard 222_1</title><path class="b17ef135-4c91-4c52-b097-a5f8ad2e2dd3" d="M5.04265,1.5H54.7028a3.542,3.542,0,0,1,3.542,3.542V51.63867a3.542,3.542,0,0,1-3.542,3.542H5.04362a3.543,3.543,0,0,1-3.543-3.543V5.042A3.542,3.542,0,0,1,5.04265,1.5Z"/><path class="a840f2f5-73de-4209-8371-b8bc813d751a" d="M54.70231,3A2.0445,2.0445,0,0,1,56.7448,5.04248v46.5957a2.04449,2.04449,0,0,1-2.04249,2.04248H5.04265a2.04448,2.04448,0,0,1-2.04248-2.04248V5.04248A2.04449,2.04449,0,0,1,5.04265,3H54.70231m0-3H5.04265A5.04244,5.04244,0,0,0,.00017,5.04248v46.5957a5.04244,5.04244,0,0,0,5.04248,5.04248H54.70231a5.04214,5.04214,0,0,0,5.04249-5.04248V5.04248A5.04214,5.04214,0,0,0,54.70231,0Z"/><path class="b725fd30-e8f3-4b3a-b137-44db5a78aa2d" d="M27.09644,43.80931a1.22754,1.22754,0,0,1-.27051-.791V37.18138a1.30122,1.30122,0,0,1,.27051-.83789.79056.79056,0,0,1,.62988-.33887h4.64355a.79059.79059,0,0,1,.62989.33887,1.30127,1.30127,0,0,1,.2705.83789v5.83691a1.28812,1.28812,0,0,1-.252.791.77458.77458,0,0,1-.64844.33984H27.72632A.789.789,0,0,1,27.09644,43.80931Zm.10742-10.22559a1.30344,1.30344,0,0,1-.26953-.83691V13.60716a1.21208,1.21208,0,0,1,.26953-.81445.84455.84455,0,0,1,.666-.31739h4.35645a.84455.84455,0,0,1,.666.31739,1.21209,1.21209,0,0,1,.26954.81445V32.74681a1.30344,1.30344,0,0,1-.26954.83691.82232.82232,0,0,1-.666.33985H27.86987A.82232.82232,0,0,1,27.20386,33.58372Z"/></svg>