<svg id="adc37a7e-b3b8-4b59-ae50-2f97d09df64c" data-name="Layer 1" xmlns="http://www.w3.org/2000/svg" viewBox="0 0 162.56836 74.17969"><defs><style>.b6de11c8-14a0-4572-8640-8a6b793f5ed6{fill:#d1d3d4;}.b82351a5-ca3b-4524-b2a1-14bdbfb81516{fill:#f1f2f2;}.bc7fbf41-448b-43f4-b47a-d3e07b90aa01{fill:#5bbf90;}</style></defs><title>Artboard 250</title><path class="b6de11c8-14a0-4572-8640-8a6b793f5ed6" d="M18.792,5.00049H146.77734a13.791,13.791,0,0,1,13.791,13.791V58.38818a13.792,13.792,0,0,1-13.792,13.792H18.792A13.792,13.792,0,0,1,5,58.38818V18.79248A13.792,13.792,0,0,1,18.792,5.00049Z"/><path class="b6de11c8-14a0-4572-8640-8a6b793f5ed6" d="M146.77637,7a11.80557,11.80557,0,0,1,11.792,11.792V58.3877a11.80557,11.80557,0,0,1-11.792,11.792H18.792A11.80557,11.80557,0,0,1,7,58.3877V18.792A11.80557,11.80557,0,0,1,18.792,7H146.77637m0-4H18.792A15.792,15.792,0,0,0,3,18.792V58.3877a15.792,15.792,0,0,0,15.792,15.792H146.77637a15.792,15.792,0,0,0,15.792-15.792V18.792A15.792,15.792,0,0,0,146.77637,3Z"/><path class="b82351a5-ca3b-4524-b2a1-14bdbfb81516" d="M15.792,2.00049H143.77734a13.791,13.791,0,0,1,13.791,13.791V55.38916a13.791,13.791,0,0,1-13.791,13.791H15.792A13.792,13.792,0,0,1,2,55.38818V15.79248a13.792,13.792,0,0,1,13.792-13.792Z"/><path class="bc7fbf41-448b-43f4-b47a-d3e07b90aa01" d="M143.77637,4a11.80557,11.80557,0,0,1,11.792,11.792V55.3877a11.80557,11.80557,0,0,1-11.792,11.792H15.792A11.80557,11.80557,0,0,1,4,55.3877V15.792A11.80557,11.80557,0,0,1,15.792,4H143.77637m0-4H15.792A15.792,15.792,0,0,0,0,15.792V55.3877a15.792,15.792,0,0,0,15.792,15.792H143.77637a15.792,15.792,0,0,0,15.792-15.792V15.792A15.792,15.792,0,0,0,143.77637,0Z"/></svg>