<svg id="be45fd7d-b1ca-4ca2-86fa-cf13fbbbac9b" data-name="Layer 1" xmlns="http://www.w3.org/2000/svg" xmlns:xlink="http://www.w3.org/1999/xlink" viewBox="0 0 388.7674 156.87237"><defs><style>.e2bb5eb2-b72d-4aad-b656-2a4b80064cba{fill:none;}.a3bc607b-38b9-4644-b0d1-5a394d9d557d{clip-path:url(#bdcec2fc-6633-4fc7-bff8-b637c9173493);}.adecb625-16ab-431b-896f-c4a302a056b2{clip-path:url(#e25b714b-65ec-4677-8097-fdf2021fb860);}.a60de48b-4b86-450f-9b2c-d0ab81cc6765{fill:#decda8;}.be15d431-0443-4d5d-b875-4020a5d5d950{fill:#c59f74;}.ab05a9e5-08c3-41be-a95c-7c98ce22fa65{fill:#ddc09b;}</style><clipPath id="bdcec2fc-6633-4fc7-bff8-b637c9173493"><rect class="e2bb5eb2-b72d-4aad-b656-2a4b80064cba" x="-0.00034" width="388.76774" height="156.87237"/></clipPath><clipPath id="e25b714b-65ec-4677-8097-fdf2021fb860"><rect class="e2bb5eb2-b72d-4aad-b656-2a4b80064cba" x="-70.63758" y="-68.13895" width="530.04255" height="298.14894"/></clipPath></defs><title>Artboard 204</title><g class="a3bc607b-38b9-4644-b0d1-5a394d9d557d"><g class="adecb625-16ab-431b-896f-c4a302a056b2"><rect class="a60de48b-4b86-450f-9b2c-d0ab81cc6765" x="45.30923" y="-184.08576" width="298.14894" height="530.04255" transform="translate(113.44818 275.31922) rotate(-90)"/><path class="be15d431-0443-4d5d-b875-4020a5d5d950" d="M14.81861,94.0681a.81234.81234,0,0,1-.83619-.48275,6.4027,6.4027,0,0,1-.31456-.98957,7.62259,7.62259,0,0,0-1.17847-1.85137,2.514,2.514,0,0,1-.5623-2.05448c-.97252.03426-2.05352.712-2.82487.1187a1.6757,1.6757,0,0,1-.36652-1.80354,6.17872,6.17872,0,0,0,.53727-1.686,6.83239,6.83239,0,0,1-1.1218.47829c-.56205.06975-1.03415-.48075-1.52393-.37983a.81154.81154,0,0,0-.39294.27323l-.91232.95611a.52867.52867,0,0,1-.22574.1644c-.31225.08619-.466-.38823-.3788-.70021s.23839-.6943.00536-.9193c-.27168-.26232-.7052.01109-.99746.25027s-.8234.39575-.96836.047l-1.28.0352a.36091.36091,0,0,0-.23242.06086.38494.38494,0,0,0-.09231.2577A3.04162,3.04162,0,0,1-.34692,88.106a.61943.61943,0,0,1-.65094.06264.64549.64549,0,0,1-.19024-.297c-.21568-.5465-.19576-1.92042-.52376-2.31271-.35-.41865-1.57734-.58546-2.11516-.82762a5.565,5.565,0,0,0-.64378,3.40036c.0126,1.20059-.9526,2.6996-.88163,3.71524a3.62462,3.62462,0,0,0-2.08146-2.98764,7.38443,7.38443,0,0,0,.69665,3.22621A3.0928,3.0928,0,0,1-7.8369,90.42039,4.81174,4.81174,0,0,0-8.201,93.40206a1.531,1.531,0,0,1,.05231.60549A.43376.43376,0,0,1-8.566,94.379a2.43879,2.43879,0,0,1-1.484,1.71936c.0295.44657.71188.35569,1.11382.15886,1.06686-.52245,2.50271-.71377,3.32244.146A23.93371,23.93371,0,0,1-2.88931,94.1539l-.46657.26054C.00267,96.1942,3.78166,97.79631,7.5023,97.019a2.18948,2.18948,0,0,0-.82138-2.73114,3.37064,3.37064,0,0,0,4.18025.67935l-.27776-.47251c.10538-.61491.98913-.68607,1.55839-.43082A5.9428,5.9428,0,0,0,14.81861,94.0681Z"/><path class="ab05a9e5-08c3-41be-a95c-7c98ce22fa65" d="M1.78653,97.16434A12.68062,12.68062,0,0,0,2.9132,89.79a10.42339,10.42339,0,0,0,.76841,2.28163,1.58641,1.58641,0,0,0,.60364.7669c.70641.38372,1.49044-.33212,1.976-.97283L6.34886,94.512a7.23365,7.23365,0,0,0,4.36348-1.20535A8.0508,8.0508,0,0,1,5.051,98.48349a.73061.73061,0,0,0-.08264-1.123,1.1419,1.1419,0,0,0-.55419-.14017,10.20541,10.20541,0,0,0-2.62818.49889,2.85285,2.85285,0,0,1-2.54864-.40815C-1.88762,96.27874-1.26239,94.25-2.21512,93.0569a3.01488,3.01488,0,0,0-2.306-.93572c-.85614-.02658-1.71475.11831-2.56739.03664.15125.607.96349.85858,1.12776,1.46219.19335.71049-.653,1.29082-1.38824,1.33033a8.24414,8.24414,0,0,0-2.19548.03872,6.44615,6.44615,0,0,0,3.33267,1.34287,2.95729,2.95729,0,0,1,1.4343.33435c.408.28379.55055.99238.12457,1.24844"/><path class="be15d431-0443-4d5d-b875-4020a5d5d950" d="M350.01446,10.29113l2.92007-.91029a.75483.75483,0,0,0,.61762.75894,1.97089,1.97089,0,0,0,1.05183-.12845,12.47253,12.47253,0,0,0,2.90731-1.39853c.33944.89248,1.618.80137,2.5377.54488l3.78039-1.05423a3.77337,3.77337,0,0,0-.99878,3.59005,13.47782,13.47782,0,0,0-7.12646,1.00936,2.75727,2.75727,0,0,0-1.50194,1.20934c-.57056,1.23279.62875,2.517,1.70234,3.34926a9.75012,9.75012,0,0,1-2.42932,1.2843,1.6626,1.6626,0,0,1-.9876.12226c-.81774-.22595-.87605-1.45022-.36211-2.12521a12.98541,12.98541,0,0,1,1.97956-1.58448c-.76627-1.17072-2.4423-1.21739-3.83313-1.06324-1.76316.19541-3.53047,4.77778-5.20749,2.17426-1.17056-1.81725,1.48623-5.50308,2.68024-6.5896C347.99241,10.6634,349.06576,10.58686,350.01446,10.29113Z"/><path class="ab05a9e5-08c3-41be-a95c-7c98ce22fa65" d="M351.791,15.91631c.223.0689.31851-.26581.3505-.497a2.82209,2.82209,0,0,1,1.50063-1.76917,31.188,31.188,0,0,1,3.85429-2.09209,8.52324,8.52324,0,0,0-4.12742,1.689c-.41757.32053-.84231.78023-.74741,1.298.05239.28582.2593.52784.29729.81593.07424.5629-.55992,1.01173-1.12632.97214a2.91214,2.91214,0,0,1-1.49969-.75068.52755.52755,0,0,1-.1792.78709.797.797,0,0,1-.86587-.16308,1.71105,1.71105,0,0,1-.44863-.80907,4.2219,4.2219,0,0,1,.05983-2.54709,4.95093,4.95093,0,0,1-1.60294,5.17.28285.28285,0,0,1,.25665-.32917,9.19441,9.19441,0,0,0-.52768-3.99244,5.53516,5.53516,0,0,0,1.64713,1.31556.48558.48558,0,0,0,.41346.06921c.1522-.07027.1925-.264.2137-.43029l.15862-1.24428,1.0848,1.07353a.26826.26826,0,0,0,.47643-.026l2.32672-2.6964c-.41247,1.78744-2.51266,3.04728-2.32691,4.87227,1.70181-1.9085,3.50119-3.8855,5.89583-4.7823a11.24016,11.24016,0,0,0-.35271,1.46453.87045.87045,0,0,0,.01214.47942.90769.90769,0,0,0,.4121.38381l1.56874.93533a10.55483,10.55483,0,0,0-2.45814-.18253.91186.91186,0,0,0-.62119.19177.79028.79028,0,0,0-.07091.8349,2.80006,2.80006,0,0,1,.28589.83485l-1.98036.20226a.842.842,0,0,0-.61313.24035c-.1367.18024-.00393.5262.21575.47224"/><path class="ab05a9e5-08c3-41be-a95c-7c98ce22fa65" d="M229.22625,24.42959a16.829,16.829,0,0,1,2.60324-5.72653,1.76688,1.76688,0,0,0,.82477,2.3187,1.54411,1.54411,0,0,0,2.06016-1.17c0,2.63344,1.97842,5.2084,1.14814,7.70753A9.84946,9.84946,0,0,0,240.0428,24.941a9.59743,9.59743,0,0,0,.51005,1.87778"/></g></g></svg>