<svg id="f3aee7a2-4e75-4d2f-bc3b-4d1f1ac8b698" data-name="Layer 1" xmlns="http://www.w3.org/2000/svg" viewBox="0 0 59.74463 56.87722"><defs><style>.b66a7e83-47ef-44ad-a07f-0891c99bd4a0{fill:#86c66b;}.b4e3d90f-0efe-4d74-9a97-50db0211a8bd{fill:#d5bdab;}.ae8b3098-a76a-4210-8022-64ae17750ceb{fill:none;stroke:#678e3d;stroke-miterlimit:10;stroke-width:8px;}.b754d89f-91dc-44b6-8777-06eb2a36a333{fill:#678e3d;}.f18273cf-bd81-4fe3-8d83-a27cfc3c5cf0{fill:#fff;}</style></defs><title>Artboard 212</title><path class="b66a7e83-47ef-44ad-a07f-0891c99bd4a0" d="M5.04248,1.5H54.70264a3.542,3.542,0,0,1,3.542,3.542V51.6377a3.543,3.543,0,0,1-3.543,3.543H5.04248a3.543,3.543,0,0,1-3.543-3.543V5.043A3.543,3.543,0,0,1,5.04248,1.5Z"/><path class="b4e3d90f-0efe-4d74-9a97-50db0211a8bd" d="M54.70215,3a2.04449,2.04449,0,0,1,2.04248,2.04248v46.5957a2.04449,2.04449,0,0,1-2.04248,2.04248H5.04248A2.04449,2.04449,0,0,1,3,51.63818V5.04248A2.04449,2.04449,0,0,1,5.04248,3H54.70215m0-3H5.04248A5.04244,5.04244,0,0,0,0,5.04248v46.5957a5.04244,5.04244,0,0,0,5.04248,5.04248H54.70215a5.04244,5.04244,0,0,0,5.04248-5.04248V5.04248A5.04244,5.04244,0,0,0,54.70215,0Z"/><line class="ae8b3098-a76a-4210-8022-64ae17750ceb" x1="51.28352" y1="29.86142" x2="19.21276" y2="29.86142"/><polygon class="b754d89f-91dc-44b6-8777-06eb2a36a333" points="5.809 29.861 13.684 25.315 21.559 20.768 21.559 29.861 21.559 38.955 13.684 34.408 5.809 29.861"/><path class="f18273cf-bd81-4fe3-8d83-a27cfc3c5cf0" d="M19.7634,44.417a.41368.41368,0,0,1-.30079-.13086L15.904,40.72756a1.70462,1.70462,0,0,0-2.72851-.01172l-2.74024,2.74024a.44038.44038,0,0,1-.30664.13867.40305.40305,0,0,1-.30664-.127l-1.03418-1.0332a.40211.40211,0,0,1-.126-.30664.44444.44444,0,0,1,.13868-.30664l2.80078-2.80078a5.21636,5.21636,0,0,1,3.22754-1.76172A4.07768,4.07768,0,0,1,17.948,38.708l3.54589,3.5459a.3996.3996,0,0,1,.127.30664.44645.44645,0,0,1-.13867.30566l-1.418,1.41895A.41419.41419,0,0,1,19.7634,44.417Zm-4.40625,4.40625a.4.4,0,0,1-.30664-.126l-3.50977-3.50977a.40722.40722,0,0,1-.12695-.30762.45247.45247,0,0,1,.13867-.30664l1.418-1.418a.40811.40811,0,0,1,.60254,0l3.50976,3.50977a.42274.42274,0,0,1,.126.29492.39826.39826,0,0,1-.127.30664l-1.418,1.418A.44029.44029,0,0,1,15.35715,48.82326Z"/><path class="f18273cf-bd81-4fe3-8d83-a27cfc3c5cf0" d="M21.47629,30.64748a4.62257,4.62257,0,0,1,2.95117,1.58106,4.99193,4.99193,0,0,1,1.59765,3.40136,6.76715,6.76715,0,0,1-.90039,3.61817l-.34961.63769a.32829.32829,0,0,1-.30664.1377.4791.4791,0,0,1-.34179-.1377L22.91183,38.6719a.48253.48253,0,0,1-.13672-.30664.84509.84509,0,0,1,.05274-.37891l.22949-.54a2.7518,2.7518,0,0,0,.22754-1.51562,2.85349,2.85349,0,0,0-.90137-1.53907,2.2992,2.2992,0,0,0-1.32226-.793,1.81712,1.81712,0,0,0-1.28614.68555l-.27636.27539-.03614.03711-1.623,1.59863a.40895.40895,0,0,1-.60059.001L14.46261,33.419a.39826.39826,0,0,1-.12695-.30664.41688.41688,0,0,1,.126-.29493l1.29785-1.29882a.408.408,0,0,1,.60156.001l1.3711,1.37012.74414-.74512A4.13186,4.13186,0,0,1,21.47629,30.64748Z"/><path class="f18273cf-bd81-4fe3-8d83-a27cfc3c5cf0" d="M29.446,34.73537a.39957.39957,0,0,1-.30664-.127l-6.26269-6.2627a.40168.40168,0,0,1-.127-.30664.44646.44646,0,0,1,.13868-.30566l2.83691-2.83789A5.34037,5.34037,0,0,1,28.947,23.08108a4.122,4.122,0,0,1,3.125,1.502l3.54687,3.54687a.41949.41949,0,0,1,.125.294.4011.4011,0,0,1-.125.30664l-1.41894,1.41895a.449.449,0,0,1-.30566.13769.39934.39934,0,0,1-.30665-.126L30.029,26.60256a1.70572,1.70572,0,0,0-2.72851-.01172l-1.05762,1.0586,4.92871,4.92773a.42.42,0,0,1,.125.29492.4.4,0,0,1-.126.30664l-1.41894,1.418A.44643.44643,0,0,1,29.446,34.73537Z"/><path class="f18273cf-bd81-4fe3-8d83-a27cfc3c5cf0" d="M37.5173,14.5342a3.928,3.928,0,0,1,3.06543,1.39453L44.2009,19.5469a.4214.4214,0,0,1,.127.29394.40163.40163,0,0,1-.127.30664l-1.418,1.418a.44211.44211,0,0,1-.30664.13867.39864.39864,0,0,1-.30664-.126L38.612,18.02053a1.70463,1.70463,0,0,0-2.72852-.01172l-.78125.78125a10.34958,10.34958,0,0,0,1.585,1.94629L39.946,23.80178a.39863.39863,0,0,1,.126.30664.4422.4422,0,0,1-.13867.30664l-2.55957,2.53711a.44905.44905,0,0,1-.30567.13769.40273.40273,0,0,1-.30761-.126l-.9502-.9502a.39976.39976,0,0,1-.125-.30664.437.437,0,0,1,.1377-.30566l.97363-.97461-1.88672-1.88672a9.21089,9.21089,0,0,1-1.59961-1.959l-.709.709a.44155.44155,0,0,1-.30664.1377.39865.39865,0,0,1-.30664-.126L30.9548,20.2676a.40163.40163,0,0,1-.12695-.30664.44645.44645,0,0,1,.13867-.30567L34.32,16.3008A5.27446,5.27446,0,0,1,37.5173,14.5342Z"/><path class="f18273cf-bd81-4fe3-8d83-a27cfc3c5cf0" d="M50.27121,13.9092a.41318.41318,0,0,1-.29981-.13281l-3.55761-3.55762a1.70574,1.70574,0,0,0-2.72852-.01172l-2.74121,2.74121a.444.444,0,0,1-.30664.13672.39732.39732,0,0,1-.30762-.126l-1.0332-1.03418a.39936.39936,0,0,1-.126-.30664.44911.44911,0,0,1,.1377-.30567L42.1091,8.51174A5.2067,5.2067,0,0,1,45.33761,6.751a4.07972,4.07972,0,0,1,3.11915,1.44726l3.54687,3.54688a.39976.39976,0,0,1,.125.30664.44516.44516,0,0,1-.1377.30664l-1.41894,1.418A.41583.41583,0,0,1,50.27121,13.9092Zm-4.4043,4.40527a.3993.3993,0,0,1-.30664-.126l-3.50976-3.50977a.40026.40026,0,0,1-.127-.30762.437.437,0,0,1,.1377-.30566l1.41894-1.41894a.408.408,0,0,1,.60157.001l3.50976,3.50977a.41951.41951,0,0,1,.125.29394.39976.39976,0,0,1-.125.30664l-1.41894,1.419A.44905.44905,0,0,1,45.86691,18.31447Z"/></svg>