<svg id="b125a9c3-8a54-48b7-9234-3fb50e24c019" data-name="Layer 1" xmlns="http://www.w3.org/2000/svg" viewBox="0 0 59.74463 56.68066"><defs><style>.f3034d54-e86d-4dbe-8df9-3cae739d3247{fill:#86c66b;}.f53ae25b-7a75-44c2-bad9-3fdb11a8d503{fill:#d5bdab;}.a3c04aa6-77f1-40d0-b3f2-5b0247041a1a{fill:#a97c50;}.a186db7a-95cf-4135-b283-77a6c6a9205b{fill:#754c29;}.b267c412-2dc9-41bb-8d9d-8e4d5b185b6e{fill:#8b5e3c;}.f4fe5db4-5e2c-4b3e-b4bb-2ddd65ceb77b{fill:#603913;}.bb108a62-d7bd-4f78-9239-f7e39b0dbb8b{fill:#ebce3d;}.b480c107-93db-48c7-9da0-66fe93d2f96a{fill:#ffde17;}.b83a4967-fec6-4766-b5bc-c0c31ddc7b2c,.ba074cec-82fe-4fb2-a4c1-7ba77bfd973d,.fef37aae-3e33-431d-96b2-8c4aa7cf8c5a{fill:#fee046;}.ab299646-f5ee-483b-9443-25efa9cd9066{fill:#db9651;}.a3d4a66d-49b4-4d4b-aa6e-3e6768e5f90b,.a4130320-333e-4d6e-bc6c-54c65dfa49ed,.a8edcbe7-09b6-49d5-950b-2940fd903083,.be3eabfe-8453-422c-ab19-4463d95235b0,.e0a879d1-577f-4db3-ad16-a1955abb3ae4,.f5071b6d-aace-4b52-8b8f-2540977e170b{fill:none;}.a4130320-333e-4d6e-bc6c-54c65dfa49ed,.e0a879d1-577f-4db3-ad16-a1955abb3ae4,.f5071b6d-aace-4b52-8b8f-2540977e170b{stroke:#db9651;}.a3d4a66d-49b4-4d4b-aa6e-3e6768e5f90b,.a4130320-333e-4d6e-bc6c-54c65dfa49ed,.a8edcbe7-09b6-49d5-950b-2940fd903083,.ba074cec-82fe-4fb2-a4c1-7ba77bfd973d,.be3eabfe-8453-422c-ab19-4463d95235b0,.e0a879d1-577f-4db3-ad16-a1955abb3ae4,.f5071b6d-aace-4b52-8b8f-2540977e170b,.fef37aae-3e33-431d-96b2-8c4aa7cf8c5a{stroke-miterlimit:10;}.a8edcbe7-09b6-49d5-950b-2940fd903083,.f5071b6d-aace-4b52-8b8f-2540977e170b{stroke-width:0.30376px;}.a3d4a66d-49b4-4d4b-aa6e-3e6768e5f90b,.a8edcbe7-09b6-49d5-950b-2940fd903083,.ba074cec-82fe-4fb2-a4c1-7ba77bfd973d,.be3eabfe-8453-422c-ab19-4463d95235b0,.fef37aae-3e33-431d-96b2-8c4aa7cf8c5a{stroke:#fee88e;}.be3eabfe-8453-422c-ab19-4463d95235b0,.e0a879d1-577f-4db3-ad16-a1955abb3ae4{stroke-width:0.29592px;}.a3d4a66d-49b4-4d4b-aa6e-3e6768e5f90b,.a4130320-333e-4d6e-bc6c-54c65dfa49ed{stroke-width:0.33542px;}.ba074cec-82fe-4fb2-a4c1-7ba77bfd973d{stroke-width:1.04622px;}</style></defs><title>Artboard 218</title><rect class="f3034d54-e86d-4dbe-8df9-3cae739d3247" x="1.50049" y="1.49951" width="56.74414" height="53.68066" rx="3.54199"/><path class="f53ae25b-7a75-44c2-bad9-3fdb11a8d503" d="M54.70215,3a2.04449,2.04449,0,0,1,2.04248,2.04248v46.5957a2.04449,2.04449,0,0,1-2.04248,2.04248H5.043A2.0449,2.0449,0,0,1,3,51.63818V5.04248A2.04491,2.04491,0,0,1,5.043,3H54.70215m0-3H5.043A5.04255,5.04255,0,0,0,0,5.04248v46.5957a5.04286,5.04286,0,0,0,5.043,5.04248H54.70215a5.04245,5.04245,0,0,0,5.04248-5.04248V5.04248A5.04213,5.04213,0,0,0,54.70215,0Z"/><path class="a3c04aa6-77f1-40d0-b3f2-5b0247041a1a" d="M44.72465,13.95055H17.569a4.75179,4.75179,0,0,0-4.55784,3.56363l-.08174.41021A2.95264,2.95264,0,0,0,16.06694,21.488H43.22261a4.75177,4.75177,0,0,0,4.55784-3.56364l.08175-.41021A2.95264,2.95264,0,0,0,44.72465,13.95055Z"/><path class="a3c04aa6-77f1-40d0-b3f2-5b0247041a1a" d="M46.87372,18.56153l4.62641,8.15889-1.9935-9.47361a4.09309,4.09309,0,0,0-3.82107-3.26271c-.179-.01306-.366-.01816-.56108-.01417Z"/><path class="a186db7a-95cf-4135-b283-77a6c6a9205b" d="M45.34647,18.207h-31.117c-1.10164,0-1.70175.59108-1.34041,1.32021l3.78436,7.63609,34.82672-.44289-3.5047-7.1932A3.13625,3.13625,0,0,0,45.34647,18.207Z"/><path class="b267c412-2dc9-41bb-8d9d-8e4d5b185b6e" d="M47.43693,18.89891s1.67614-2.37675.4456-4.20939a4.81792,4.81792,0,0,1,1.54471,2.26592c.28293,1.25866,2.07289,9.765,2.07289,9.765Z"/><polygon class="f4fe5db4-5e2c-4b3e-b4bb-2ddd65ceb77b" points="51.464 26.589 16.293 26.589 12.141 31.915 47.312 31.915 51.464 26.589"/><ellipse class="bb108a62-d7bd-4f78-9239-f7e39b0dbb8b" cx="31.54438" cy="31.78039" rx="15.19149" ry="7.54566"/><ellipse class="b480c107-93db-48c7-9da0-66fe93d2f96a" cx="29.56566" cy="34.71656" rx="15.19149" ry="7.54566"/><ellipse class="b83a4967-fec6-4766-b5bc-c0c31ddc7b2c" cx="22.28906" cy="34.18996" rx="8.01064" ry="7.54566"/><path class="b267c412-2dc9-41bb-8d9d-8e4d5b185b6e" d="M45.52447,45.19128H15.85508a2.276,2.276,0,0,1-2.2557-1.97239l-1.52172-11.3042h35.234Z"/><path class="a186db7a-95cf-4135-b283-77a6c6a9205b" d="M51.464,26.58885,47.3117,31.91469l-1.78723,13.2766,2.35535-2.45214a4.88413,4.88413,0,0,0,1.28945-2.54639Z"/><ellipse class="ab299646-f5ee-483b-9443-25efa9cd9066" cx="35.48222" cy="27.05482" rx="1.047" ry="1.58989" transform="translate(-8.50439 34.5468) rotate(-46.99123)"/><ellipse class="f5071b6d-aace-4b52-8b8f-2540977e170b" cx="35.48222" cy="27.05482" rx="1.047" ry="1.58989" transform="translate(-8.50439 34.5468) rotate(-46.99123)"/><ellipse class="b83a4967-fec6-4766-b5bc-c0c31ddc7b2c" cx="35.17846" cy="26.75106" rx="1.047" ry="1.58989" transform="translate(-8.37882 34.22811) rotate(-46.99123)"/><ellipse class="a8edcbe7-09b6-49d5-950b-2940fd903083" cx="35.17846" cy="26.75106" rx="1.047" ry="1.58989" transform="translate(-8.37882 34.22811) rotate(-46.99123)"/><ellipse class="ab299646-f5ee-483b-9443-25efa9cd9066" cx="29.43881" cy="25.66957" rx="1.57284" ry="1.00446"/><ellipse class="e0a879d1-577f-4db3-ad16-a1955abb3ae4" cx="29.43881" cy="25.66957" rx="1.57284" ry="1.00446"/><ellipse class="b83a4967-fec6-4766-b5bc-c0c31ddc7b2c" cx="29.13505" cy="25.36581" rx="1.57284" ry="1.00446"/><ellipse class="be3eabfe-8453-422c-ab19-4463d95235b0" cx="29.13505" cy="25.36581" rx="1.57284" ry="1.00446"/><ellipse class="ab299646-f5ee-483b-9443-25efa9cd9066" cx="29.43881" cy="30.02573" rx="1.57284" ry="1.00446" transform="translate(-6.14063 7.61387) rotate(-13.35825)"/><ellipse class="e0a879d1-577f-4db3-ad16-a1955abb3ae4" cx="29.43881" cy="30.02573" rx="1.57284" ry="1.00446" transform="translate(-6.14063 7.61387) rotate(-13.35825)"/><ellipse class="b83a4967-fec6-4766-b5bc-c0c31ddc7b2c" cx="29.13505" cy="29.72197" rx="1.57284" ry="1.00446" transform="translate(-6.07867 7.53547) rotate(-13.35825)"/><ellipse class="be3eabfe-8453-422c-ab19-4463d95235b0" cx="29.13505" cy="29.72197" rx="1.57284" ry="1.00446" transform="translate(-6.07867 7.53547) rotate(-13.35825)"/><ellipse class="ab299646-f5ee-483b-9443-25efa9cd9066" cx="32.75907" cy="25.66957" rx="1.57284" ry="1.00446" transform="translate(-5.04436 8.26313) rotate(-13.35825)"/><ellipse class="e0a879d1-577f-4db3-ad16-a1955abb3ae4" cx="32.75907" cy="25.66957" rx="1.57284" ry="1.00446" transform="translate(-5.04436 8.26313) rotate(-13.35825)"/><ellipse class="b83a4967-fec6-4766-b5bc-c0c31ddc7b2c" cx="32.45532" cy="25.36581" rx="1.57284" ry="1.00446" transform="translate(-4.9824 8.18473) rotate(-13.35825)"/><ellipse class="be3eabfe-8453-422c-ab19-4463d95235b0" cx="32.45532" cy="25.36581" rx="1.57284" ry="1.00446" transform="translate(-4.9824 8.18473) rotate(-13.35825)"/><ellipse class="ab299646-f5ee-483b-9443-25efa9cd9066" cx="39.2336" cy="27.98782" rx="1.78274" ry="1.13851" transform="translate(-5.40479 9.82171) rotate(-13.35825)"/><ellipse class="a4130320-333e-4d6e-bc6c-54c65dfa49ed" cx="39.2336" cy="27.98782" rx="1.78274" ry="1.13851" transform="translate(-5.40479 9.82171) rotate(-13.35825)"/><ellipse class="b83a4967-fec6-4766-b5bc-c0c31ddc7b2c" cx="38.8893" cy="27.64352" rx="1.78274" ry="1.13851" transform="translate(-5.33456 9.73285) rotate(-13.35825)"/><ellipse class="a3d4a66d-49b4-4d4b-aa6e-3e6768e5f90b" cx="38.8893" cy="27.64352" rx="1.78274" ry="1.13851" transform="translate(-5.33456 9.73285) rotate(-13.35825)"/><ellipse class="ab299646-f5ee-483b-9443-25efa9cd9066" cx="30.32392" cy="28.09815" rx="1.13851" ry="1.78274" transform="translate(-4.7303 50.01269) rotate(-74.83022)"/><ellipse class="a4130320-333e-4d6e-bc6c-54c65dfa49ed" cx="30.32392" cy="28.09815" rx="1.13851" ry="1.78274" transform="translate(-4.7303 50.01269) rotate(-74.83022)"/><ellipse class="b83a4967-fec6-4766-b5bc-c0c31ddc7b2c" cx="29.97963" cy="27.75385" rx="1.13851" ry="1.78274" transform="translate(-4.6522 49.42619) rotate(-74.83022)"/><ellipse class="a3d4a66d-49b4-4d4b-aa6e-3e6768e5f90b" cx="29.97963" cy="27.75385" rx="1.13851" ry="1.78274" transform="translate(-4.6522 49.42619) rotate(-74.83022)"/><ellipse class="ab299646-f5ee-483b-9443-25efa9cd9066" cx="41.95917" cy="27.3406" rx="1.13851" ry="1.78274" transform="translate(4.59138 60.68319) rotate(-74.83022)"/><ellipse class="a4130320-333e-4d6e-bc6c-54c65dfa49ed" cx="41.95917" cy="27.3406" rx="1.13851" ry="1.78274" transform="translate(4.59138 60.68319) rotate(-74.83022)"/><ellipse class="b83a4967-fec6-4766-b5bc-c0c31ddc7b2c" cx="41.61487" cy="26.9963" rx="1.13851" ry="1.78274" transform="translate(4.66948 60.09669) rotate(-74.83022)"/><ellipse class="a3d4a66d-49b4-4d4b-aa6e-3e6768e5f90b" cx="41.61487" cy="26.9963" rx="1.13851" ry="1.78274" transform="translate(4.66948 60.09669) rotate(-74.83022)"/><ellipse class="ab299646-f5ee-483b-9443-25efa9cd9066" cx="23.70841" cy="29.22871" rx="1.13851" ry="1.78274" transform="translate(-10.70583 44.46242) rotate(-74.83022)"/><ellipse class="a4130320-333e-4d6e-bc6c-54c65dfa49ed" cx="23.70841" cy="29.22871" rx="1.13851" ry="1.78274" transform="translate(-10.70583 44.46242) rotate(-74.83022)"/><ellipse class="b83a4967-fec6-4766-b5bc-c0c31ddc7b2c" cx="23.36411" cy="28.88441" rx="1.13851" ry="1.78274" transform="translate(-10.62773 43.87591) rotate(-74.83022)"/><ellipse class="a3d4a66d-49b4-4d4b-aa6e-3e6768e5f90b" cx="23.36411" cy="28.88441" rx="1.13851" ry="1.78274" transform="translate(-10.62773 43.87591) rotate(-74.83022)"/><ellipse class="ab299646-f5ee-483b-9443-25efa9cd9066" cx="24.54962" cy="25.71011" rx="1.78274" ry="1.13851" transform="translate(-5.27583 6.36752) rotate(-13.35825)"/><ellipse class="a4130320-333e-4d6e-bc6c-54c65dfa49ed" cx="24.54962" cy="25.71011" rx="1.78274" ry="1.13851" transform="translate(-5.27583 6.36752) rotate(-13.35825)"/><ellipse class="b83a4967-fec6-4766-b5bc-c0c31ddc7b2c" cx="24.20532" cy="25.36581" rx="1.78274" ry="1.13851" transform="translate(-5.2056 6.27866) rotate(-13.35825)"/><ellipse class="a3d4a66d-49b4-4d4b-aa6e-3e6768e5f90b" cx="24.20532" cy="25.36581" rx="1.78274" ry="1.13851" transform="translate(-5.2056 6.27866) rotate(-13.35825)"/><ellipse class="ab299646-f5ee-483b-9443-25efa9cd9066" cx="34.34761" cy="29.22871" rx="1.55004" ry="1.21536" transform="translate(-10.45472 34.40817) rotate(-46.99123)"/><ellipse class="a4130320-333e-4d6e-bc6c-54c65dfa49ed" cx="34.34761" cy="29.22871" rx="1.55004" ry="1.21536" transform="translate(-10.45472 34.40817) rotate(-46.99123)"/><ellipse class="b83a4967-fec6-4766-b5bc-c0c31ddc7b2c" cx="34.00331" cy="28.88441" rx="1.55004" ry="1.21536" transform="translate(-10.3124 34.04695) rotate(-46.99123)"/><ellipse class="a3d4a66d-49b4-4d4b-aa6e-3e6768e5f90b" cx="34.00331" cy="28.88441" rx="1.55004" ry="1.21536" transform="translate(-10.3124 34.04695) rotate(-46.99123)"/><ellipse class="ab299646-f5ee-483b-9443-25efa9cd9066" cx="41.40068" cy="29.43128" rx="1.77324" ry="0.97114" transform="translate(-2.08309 3.17526) rotate(-4.28451)"/><ellipse class="a4130320-333e-4d6e-bc6c-54c65dfa49ed" cx="41.40068" cy="29.43128" rx="1.77324" ry="0.97114" transform="translate(-2.08309 3.17526) rotate(-4.28451)"/><ellipse class="b83a4967-fec6-4766-b5bc-c0c31ddc7b2c" cx="41.05638" cy="29.08699" rx="1.77324" ry="0.97114" transform="matrix(0.99721, -0.07471, 0.07471, 0.99721, -2.05833, 3.14858)"/><ellipse class="a3d4a66d-49b4-4d4b-aa6e-3e6768e5f90b" cx="41.05638" cy="29.08699" rx="1.77324" ry="0.97114" transform="matrix(0.99721, -0.07471, 0.07471, 0.99721, -2.05833, 3.14858)"/><ellipse class="ab299646-f5ee-483b-9443-25efa9cd9066" cx="36.81492" cy="25.71011" rx="1.77324" ry="0.97114"/><ellipse class="a4130320-333e-4d6e-bc6c-54c65dfa49ed" cx="36.81492" cy="25.71011" rx="1.77324" ry="0.97114"/><ellipse class="b83a4967-fec6-4766-b5bc-c0c31ddc7b2c" cx="36.47062" cy="25.36581" rx="1.77324" ry="0.97114"/><ellipse class="a3d4a66d-49b4-4d4b-aa6e-3e6768e5f90b" cx="36.47062" cy="25.36581" rx="1.77324" ry="0.97114"/><ellipse class="ab299646-f5ee-483b-9443-25efa9cd9066" cx="25.73896" cy="27.52249" rx="1.77324" ry="0.97114" transform="translate(-1.98425 1.99985) rotate(-4.28451)"/><ellipse class="a4130320-333e-4d6e-bc6c-54c65dfa49ed" cx="25.73896" cy="27.52249" rx="1.77324" ry="0.97114" transform="translate(-1.98425 1.99985) rotate(-4.28451)"/><ellipse class="b83a4967-fec6-4766-b5bc-c0c31ddc7b2c" cx="25.39466" cy="27.17819" rx="1.77324" ry="0.97114" transform="translate(-1.95949 1.97317) rotate(-4.28451)"/><ellipse class="a3d4a66d-49b4-4d4b-aa6e-3e6768e5f90b" cx="25.39466" cy="27.17819" rx="1.77324" ry="0.97114" transform="translate(-1.95949 1.97317) rotate(-4.28451)"/><ellipse class="ab299646-f5ee-483b-9443-25efa9cd9066" cx="19.13165" cy="27.98782" rx="1.77324" ry="0.97114" transform="translate(-2.03748 1.50753) rotate(-4.28451)"/><ellipse class="a4130320-333e-4d6e-bc6c-54c65dfa49ed" cx="19.13165" cy="27.98782" rx="1.77324" ry="0.97114" transform="translate(-2.03748 1.50753) rotate(-4.28451)"/><ellipse class="b83a4967-fec6-4766-b5bc-c0c31ddc7b2c" cx="18.78735" cy="27.64352" rx="1.77324" ry="0.97114" transform="translate(-2.01272 1.48084) rotate(-4.28451)"/><ellipse class="a3d4a66d-49b4-4d4b-aa6e-3e6768e5f90b" cx="18.78735" cy="27.64352" rx="1.77324" ry="0.97114" transform="translate(-2.01272 1.48084) rotate(-4.28451)"/><path class="fef37aae-3e33-431d-96b2-8c4aa7cf8c5a" d="M29.208,15.2431h0a1.26862,1.26862,0,0,1,1.26862,1.26862v2.05851A1.26861,1.26861,0,0,1,29.208,19.83885h0a1.26862,1.26862,0,0,1-1.26862-1.26862V16.51171A1.26861,1.26861,0,0,1,29.208,15.2431Z" transform="translate(1.83228 -2.74111) rotate(5.54688)"/><rect class="ba074cec-82fe-4fb2-a4c1-7ba77bfd973d" x="26.71663" y="32.74426" width="4.31848" height="2.95548" rx="1.34872"/></svg>