<svg id="a4f10bde-2434-48a4-ba6d-29b028d21926" data-name="Layer 1" xmlns="http://www.w3.org/2000/svg" xmlns:xlink="http://www.w3.org/1999/xlink" viewBox="0 0 59.78112 56.68066" preserveAspectRatio="none" ><defs><style>.b9dbab87-6729-4bdd-934b-2c6691149f43,.e271461d-4c22-44b6-a04a-9321022cea27,.eb584497-c704-4a9f-ae8d-4f350beab659,.f1378819-0437-41bb-b18d-f38af130dee9,.f921e384-8a25-406e-97e1-8ba305a1b2a9{fill:none;}.b1535b2c-5535-4e82-9376-0084643f0b24{fill:#86c66b;}.b32d7726-1c79-4ad7-ac3a-f8920c8011a3{fill:#d5bdab;}.a6cde68b-6243-44b5-a0e2-a2a44e5980de,.ec785444-72b2-4e59-8ebd-f35ac2246662{fill:#414042;}.a6cde68b-6243-44b5-a0e2-a2a44e5980de{opacity:0.48;}.a867e8c5-7579-4df1-89d3-2db47745c8d3{fill:#1c75bc;}.ec3369d2-cb0a-4377-aea3-7f67d8b68e9e{fill:#b9deee;}.b9ccac70-e292-4373-b08a-15fb3fac845a{clip-path:url(#b0fa0324-f471-47cd-b953-e7166f65fbf2);}.b9dbab87-6729-4bdd-934b-2c6691149f43,.e271461d-4c22-44b6-a04a-9321022cea27,.eb584497-c704-4a9f-ae8d-4f350beab659,.f1378819-0437-41bb-b18d-f38af130dee9{stroke:#fff;stroke-miterlimit:10;}.e271461d-4c22-44b6-a04a-9321022cea27{stroke-width:0.92927px;}.eb584497-c704-4a9f-ae8d-4f350beab659{stroke-width:0.46464px;}.a3754945-d7be-4e6c-ba88-c984c207b523,.bc53859b-9319-487e-b188-d9033df4c81f{fill:#2b3990;}.bc1e7993-4d60-4b69-b12a-3df8cc291877{clip-path:url(#eeeaa805-e89c-47ef-a0cd-db259d5b441c);}.f1378819-0437-41bb-b18d-f38af130dee9{stroke-width:1.39391px;}.a1893b76-4bce-4265-85c9-adbea5c63cfe{clip-path:url(#a58d0416-9e96-4adf-9cf1-106fa7b25684);}.b76e7809-bea8-4579-b8a2-1af294a55f18{clip-path:url(#e92c8463-8e93-41ec-a9f6-5a8698441ade);}.b8cfffd7-0aec-4aa8-8743-9c7315c86ca8{clip-path:url(#a20b940a-f436-47ca-9a53-8a6e12c4902e);}.aef123b0-a5cf-4814-9f68-6d863b8f0191{fill:#27aae1;}.a3754945-d7be-4e6c-ba88-c984c207b523{opacity:0.31;}.a51c79bd-62f3-4033-9999-b7533277383e{fill:#6d6e71;}.aaa13d6a-92e6-4ef3-bfdf-2e14a6e73568{fill:#f7941d;}.b9dbab87-6729-4bdd-934b-2c6691149f43{stroke-width:0.00587px;}</style><clipPath id="b0fa0324-f471-47cd-b953-e7166f65fbf2"><rect class="f921e384-8a25-406e-97e1-8ba305a1b2a9" x="21.68761" y="15.54453" width="8.06058" height="7.05895" rx="0.69921"/></clipPath><clipPath id="eeeaa805-e89c-47ef-a0cd-db259d5b441c"><path class="f921e384-8a25-406e-97e1-8ba305a1b2a9" d="M19.67482,22.66093H18.00375a12.1836,12.1836,0,0,0-6.54589,2.9389,3.8414,3.8414,0,0,1-2.56947,1.0964,1.08487,1.08487,0,0,1-1.12453-1.03615C7.76781,20.07058,8.87,15.54453,13.13121,15.54453c.61592,0,4.30932.0016,6.16878.00535a1.02724,1.02724,0,0,1,1.07327.9677c.00818,1.46211-.01364,4.20546,0,5.4716A.66878.66878,0,0,1,19.67482,22.66093Z"/></clipPath><clipPath id="a58d0416-9e96-4adf-9cf1-106fa7b25684"><rect class="f921e384-8a25-406e-97e1-8ba305a1b2a9" x="31.00009" y="15.54453" width="8.06058" height="7.05895" rx="0.69921"/></clipPath><clipPath id="e92c8463-8e93-41ec-a9f6-5a8698441ade"><path class="f921e384-8a25-406e-97e1-8ba305a1b2a9" d="M41.01177,15.54453h5.157a2.20432,2.20432,0,0,1,2.20432,2.20432v4.15543a.69921.69921,0,0,1-.69921.69921H41.01177a.69921.69921,0,0,1-.69921-.69921V16.24374A.69921.69921,0,0,1,41.01177,15.54453Z"/></clipPath><clipPath id="a20b940a-f436-47ca-9a53-8a6e12c4902e"><path class="f921e384-8a25-406e-97e1-8ba305a1b2a9" d="M48.59153,36.48322H7.6641a2.01672,2.01672,0,0,1-2.01672-2.01671v0c0-11.23627-.02594-20.34506,7.711-20.34506H46.45619a4.03343,4.03343,0,0,1,4.03343,4.03343V34.58514A1.89809,1.89809,0,0,1,48.59153,36.48322Z"/></clipPath></defs><path class="b1535b2c-5535-4e82-9376-0084643f0b24" d="M5.042,1.5H54.70215a3.542,3.542,0,0,1,3.542,3.542V51.63867a3.542,3.542,0,0,1-3.542,3.542H5.043A3.543,3.543,0,0,1,1.5,51.6377V5.042A3.542,3.542,0,0,1,5.042,1.5Z"/><path class="b32d7726-1c79-4ad7-ac3a-f8920c8011a3" d="M54.70215,3a2.04449,2.04449,0,0,1,2.04248,2.04248v46.5957a2.04449,2.04449,0,0,1-2.04248,2.04248H5.04248A2.04449,2.04449,0,0,1,3,51.63818V5.04248A2.04449,2.04449,0,0,1,5.04248,3H54.70215m0-3H5.04248A5.04213,5.04213,0,0,0,0,5.04248v46.5957a5.04213,5.04213,0,0,0,5.04248,5.04248H54.70215a5.04244,5.04244,0,0,0,5.04248-5.04248V5.04248A5.04244,5.04244,0,0,0,54.70215,0Z"/><ellipse class="a6cde68b-6243-44b5-a0e2-a2a44e5980de" cx="31.05262" cy="38.90031" rx="24.90217" ry="2.23915"/><path class="a867e8c5-7579-4df1-89d3-2db47745c8d3" d="M48.59153,36.48322H7.6641a2.01672,2.01672,0,0,1-2.01672-2.01671v0c0-11.23627-.02594-20.34506,7.711-20.34506H46.45619a4.03343,4.03343,0,0,1,4.03343,4.03343V34.58514A1.89809,1.89809,0,0,1,48.59153,36.48322Z"/><path class="ec3369d2-cb0a-4377-aea3-7f67d8b68e9e" d="M19.67482,22.66093H18.00375a12.1836,12.1836,0,0,0-6.54589,2.9389,3.8414,3.8414,0,0,1-2.56947,1.0964,1.08487,1.08487,0,0,1-1.12453-1.03615C7.76781,20.07058,8.87,15.54453,13.13121,15.54453c.61592,0,4.30932.0016,6.16878.00535a1.02724,1.02724,0,0,1,1.07327.9677c.00818,1.46211-.01364,4.20546,0,5.4716A.66878.66878,0,0,1,19.67482,22.66093Z"/><rect class="ec3369d2-cb0a-4377-aea3-7f67d8b68e9e" x="21.68761" y="15.54453" width="8.06058" height="7.05895" rx="0.69921"/><g class="b9ccac70-e292-4373-b08a-15fb3fac845a"><path class="e271461d-4c22-44b6-a04a-9321022cea27" d="M21.72449,25.54663c2.20455-4.36723,5.46683-8.20127,7.12149-12.805"/><path class="eb584497-c704-4a9f-ae8d-4f350beab659" d="M23.8786,25.54663c2.20454-4.36723,5.46682-8.20127,7.12149-12.805"/></g><rect class="ec3369d2-cb0a-4377-aea3-7f67d8b68e9e" x="31.00009" y="15.54453" width="8.06058" height="7.05895" rx="0.69921"/><path class="ec3369d2-cb0a-4377-aea3-7f67d8b68e9e" d="M41.01177,15.54453h4.9791a2.38226,2.38226,0,0,1,2.38226,2.38226v3.97748a.69921.69921,0,0,1-.69921.69921H41.01177a.69921.69921,0,0,1-.69921-.69921V16.24374A.69921.69921,0,0,1,41.01177,15.54453Z"/><rect class="bc53859b-9319-487e-b188-d9033df4c81f" x="20.8024" y="27.31903" width="20.93373" height="7.8296" rx="1.70142"/><path class="bc53859b-9319-487e-b188-d9033df4c81f" d="M7.0011,20.10617a.49686.49686,0,0,0-.664-.05891,1.29347,1.29347,0,0,0-.41236.59945A8.1041,8.1041,0,0,0,5.29984,23.789a.60132.60132,0,0,0,.0588.30954.4355.4355,0,0,0,.66586-.008,1.30373,1.30373,0,0,0,.24849-.71991,23.47571,23.47571,0,0,1,.63775-3.06284"/><g class="bc1e7993-4d60-4b69-b12a-3df8cc291877"><path class="f1378819-0437-41bb-b18d-f38af130dee9" d="M15.84923,14.47731C13.6033,17.24084,12.75247,24.298,10.86711,27.319c-1.12386,2.74985,1.12382-2.24,1.12289-2.40044"/><path class="e271461d-4c22-44b6-a04a-9321022cea27" d="M14.67147,26.63352a2.86766,2.86766,0,0,1,.0626-1.73171A47.67221,47.67221,0,0,1,18.34829,15.222"/></g><g class="a1893b76-4bce-4265-85c9-adbea5c63cfe"><path class="e271461d-4c22-44b6-a04a-9321022cea27" d="M31.037,25.54663c2.20454-4.36723,5.46682-8.20127,7.12149-12.805"/><path class="eb584497-c704-4a9f-ae8d-4f350beab659" d="M33.19107,25.54663c2.20455-4.36723,5.46683-8.20127,7.12149-12.805"/></g><g class="b76e7809-bea8-4579-b8a2-1af294a55f18"><path class="e271461d-4c22-44b6-a04a-9321022cea27" d="M40.34944,25.54663c2.20455-4.36723,5.46683-8.20127,7.12149-12.805"/><path class="eb584497-c704-4a9f-ae8d-4f350beab659" d="M42.50354,25.54663c2.20455-4.36723,5.46683-8.20127,7.12149-12.805"/></g><g class="b8cfffd7-0aec-4aa8-8743-9c7315c86ca8"><path class="aef123b0-a5cf-4814-9f68-6d863b8f0191" d="M4.61328,28.8667a4.89613,4.89613,0,0,1,1.9419.15283,6.11088,6.11088,0,0,0,1.2998.18652,8.05933,8.05933,0,0,0,2.71875-.40869,42.1816,42.1816,0,0,0,5.30469-2.38965,17.65332,17.65332,0,0,1,5.581-1.72656,37.74431,37.74431,0,0,1,5.84668-.2622c1.95166.03271,3.89551.07763,5.83838.05175,1.94336-.0205,3.88721-.1084,5.8335-.16943,1.9458-.08106,3.89551-.12842,5.84717-.12939,1.95068-.00684,3.90478.03173,5.84765.209l-.00244.04639q-2.92309-.03-5.83838.08056l-5.83545.27246a97.08985,97.08985,0,0,1-11.69775-.10742,33.44005,33.44005,0,0,0-5.82129.14209,14.66528,14.66528,0,0,0-5.50147,1.78272c-1.6914.9624-3.25683,2.10351-4.99707,3.12451a14.46489,14.46489,0,0,1-2.855,1.2832c-.9917.34766-2.44091.39258-2.56787.7749Z"/><path class="a3754945-d7be-4e6c-ba88-c984c207b523" d="M9.3993,42.77311A89.79213,89.79213,0,0,1,37.08442,12.65824a24.11,24.11,0,0,0,5.06035-4.04631,9.74211,9.74211,0,0,0,4.21846,1.84652,60.87063,60.87063,0,0,1,11.337,4.33612c.87488.4392,1.83,1.0135,2.03952,1.96974.22518,1.02755-.51138,1.993-1.19342,2.79389-5.45267,6.40269-10.51649,13.34119-13.24049,21.2977a10.16023,10.16023,0,0,1-2.06868,4.12547c-1.797,1.77428-4.64662,1.73209-7.16861,1.60253-6.69086-.34373-13.44167-.47958-20.04729.63913-2.81275.47636-6.06155,1.06925-8.22327-.79231-.092-.07919-.18925-.19582-.14292-.308s.27534-.01119.18486.0697"/></g><circle class="a51c79bd-62f3-4033-9999-b7533277383e" cx="41.2959" cy="35.69824" r="2.99902"/><path class="ec785444-72b2-4e59-8ebd-f35ac2246662" d="M41.2959,33.62793a2.07031,2.07031,0,1,1-2.07031,2.07031,2.07262,2.07262,0,0,1,2.07031-2.07031m0-1.8584a3.92871,3.92871,0,1,0,3.92871,3.92871,3.92851,3.92851,0,0,0-3.92871-3.92871Z"/><circle class="a51c79bd-62f3-4033-9999-b7533277383e" cx="15.38867" cy="35.69824" r="2.99902"/><path class="ec785444-72b2-4e59-8ebd-f35ac2246662" d="M15.38916,33.62793a2.07031,2.07031,0,1,1-2.07031,2.07031,2.07262,2.07262,0,0,1,2.07031-2.07031m0-1.8584a3.92871,3.92871,0,1,0,3.92871,3.92871,3.92851,3.92851,0,0,0-3.92871-3.92871Z"/><path class="aaa13d6a-92e6-4ef3-bfdf-2e14a6e73568" d="M27.691,32.69719a.11575.11575,0,0,1-.03515-.085V30.03216l-.75488.58007a.11292.11292,0,0,1-.0752.02539.10983.10983,0,0,1-.09473-.0498l-.21484-.28027a.1219.1219,0,0,1-.02539-.07032.11827.11827,0,0,1,.05566-.09961l1.12012-.87011a.22531.22531,0,0,1,.125-.03516h.44922a.1142.1142,0,0,1,.085.03516.11572.11572,0,0,1,.03516.085v3.25976a.11572.11572,0,0,1-.03516.085.1142.1142,0,0,1-.085.03516H27.776A.11576.11576,0,0,1,27.691,32.69719Z"/><path class="aaa13d6a-92e6-4ef3-bfdf-2e14a6e73568" d="M29.357,32.70012a.10909.10909,0,0,1-.03027-.07812.1551.1551,0,0,1,.00976-.04492l1.2002-2.74512H28.97128a.11875.11875,0,0,1-.085-.03418.11575.11575,0,0,1-.03516-.085v-.35547a.12732.12732,0,0,1,.0332-.08984.11262.11262,0,0,1,.08692-.03516h2.20019a.12035.12035,0,0,1,.125.125v.31543a.52045.52045,0,0,1-.0498.21484l-1.19043,2.72461a.32037.32037,0,0,1-.06445.08789.1342.1342,0,0,1-.09473.03223h-.46582A.09689.09689,0,0,1,29.357,32.70012Z"/><path class="aaa13d6a-92e6-4ef3-bfdf-2e14a6e73568" d="M32.07382,32.412a1.52257,1.52257,0,0,1-.35742-.96973c-.00293-.08984-.00489-.24316-.00489-.46,0-.21973.002-.377.00489-.46973a1.46965,1.46965,0,0,1,.36035-.96,1.52152,1.52152,0,0,1,1.98925,0,1.46971,1.46971,0,0,1,.36036.96c.00683.18653.00976.34278.00976.46973s-.00293.28027-.00976.46a1.528,1.528,0,0,1-.35743.96973,1.52938,1.52938,0,0,1-1.99511,0Zm1.46289-.417a.98727.98727,0,0,0,.165-.57813c.00293-.09668.00488-.24414.00488-.44433s-.00195-.34571-.00488-.43555a.978.978,0,0,0-.165-.56934.62064.62064,0,0,0-.93067,0,.971.971,0,0,0-.165.56934c-.00293.08984-.00488.23535-.00488.43555s.002.34765.00488.44433a.9803.9803,0,0,0,.165.57813.63668.63668,0,0,0,.93067,0Z"/><path class="b9dbab87-6729-4bdd-934b-2c6691149f43" d="M33.05654,30.75289a.09449.09449,0,0,0-.00016.01569"/><line class="b9dbab87-6729-4bdd-934b-2c6691149f43" x1="33.07515" y1="30.75314" x2="33.07515" y2="30.76816"/><path class="b9dbab87-6729-4bdd-934b-2c6691149f43" d="M33.04838,30.77866l.009.00591.01089.00055a.024.024,0,0,0,.01543-.00722"/></svg>