<svg id="f66b922f-8681-40af-a360-b038dfe21dd3" data-name="Layer 1" xmlns="http://www.w3.org/2000/svg" viewBox="0 0 77.8142 54.10549"><defs><style>.f663ac09-c326-44a4-911b-80b1a0018772{fill:#d5bdab;}.f7025b34-6202-4f4f-bcf7-780e07e3a715{fill:#e6e7e8;}.ab56f249-4abc-48f0-aa43-533e4c4bb635{fill:#d1d3d4;}.a3c61ee2-3181-47cf-a74a-1d48b8d1f747{fill:#fff;}.bfabe6e3-5710-40b7-8be3-48e1f4d3914c{fill:#414042;}.a6fe443f-7099-4eae-95e8-ca7827918eb3{fill:#6d6e71;opacity:0.5;}</style></defs><title>Artboard 230</title><ellipse class="f663ac09-c326-44a4-911b-80b1a0018772" cx="38.9071" cy="41.69103" rx="38.92901" ry="12.32205" transform="translate(-1.64521 1.59846) rotate(-2.30489)"/><path class="f7025b34-6202-4f4f-bcf7-780e07e3a715" d="M34.93392.02245S28.02317.16156,24.81648,6.05773c-3.01754,5.54838,7.34435-.7241,7.34435-.7241Z"/><rect class="f7025b34-6202-4f4f-bcf7-780e07e3a715" x="27.91973" width="37.65273" height="37.65273" rx="7.52857"/><path class="ab56f249-4abc-48f0-aa43-533e4c4bb635" d="M62.20005,37.565l-1.01769.64878C59.26269,39.43759,50.9872,41.0586,50.9872,39.26247L60.62253,6.82714,64.62207,4.206A3.60505,3.60505,0,0,1,65.539,6.83019L65.6759,32.097C65.6759,33.89313,64.11971,36.34125,62.20005,37.565Z"/><rect class="a3c61ee2-3181-47cf-a74a-1d48b8d1f747" x="23.78207" y="2.68948" width="37.65273" height="37.65273" rx="7.52857"/><circle class="bfabe6e3-5710-40b7-8be3-48e1f4d3914c" cx="31.95395" cy="13.29864" r="2.68948"/><circle class="bfabe6e3-5710-40b7-8be3-48e1f4d3914c" cx="51.60785" cy="13.29864" r="2.68948"/><circle class="bfabe6e3-5710-40b7-8be3-48e1f4d3914c" cx="51.60785" cy="31.81468" r="2.68948"/><circle class="bfabe6e3-5710-40b7-8be3-48e1f4d3914c" cx="31.51807" cy="31.81468" r="2.68948"/><circle class="bfabe6e3-5710-40b7-8be3-48e1f4d3914c" cx="41.5519" cy="21.78084" r="2.68948"/><path class="a6fe443f-7099-4eae-95e8-ca7827918eb3" d="M24.3143,7.44779s1.43316-2.52792,5.36394-2.321c1.987.10458,6.14144.10343,9.76432.07672A6.529,6.529,0,0,1,46.022,11.73233v28.668H38.18256Z"/><path class="f7025b34-6202-4f4f-bcf7-780e07e3a715" d="M11.68168,7.47024s-6.91075.13911-10.11743,6.03528c-3.01755,5.54839,7.34435-.72409,7.34435-.72409Z"/><rect class="f7025b34-6202-4f4f-bcf7-780e07e3a715" x="4.66749" y="7.44779" width="37.65273" height="37.65273" rx="7.52857"/><path class="ab56f249-4abc-48f0-aa43-533e4c4bb635" d="M38.94781,45.01282l-1.01769.64878C36.01046,46.88538,27.735,48.50639,27.735,46.71027l9.63533-32.43533,3.99954-2.62112a3.605,3.605,0,0,1,.91694,2.62416l.1369,25.26682C42.42367,41.34093,40.86747,43.78905,38.94781,45.01282Z"/><rect class="a3c61ee2-3181-47cf-a74a-1d48b8d1f747" x="0.52983" y="10.13727" width="37.65273" height="37.65273" rx="7.52857"/><circle class="bfabe6e3-5710-40b7-8be3-48e1f4d3914c" cx="8.70171" cy="20.74643" r="2.68948"/><circle class="bfabe6e3-5710-40b7-8be3-48e1f4d3914c" cx="28.35561" cy="20.74643" r="2.68948"/><circle class="bfabe6e3-5710-40b7-8be3-48e1f4d3914c" cx="28.35561" cy="39.26247" r="2.68948"/><circle class="bfabe6e3-5710-40b7-8be3-48e1f4d3914c" cx="8.26583" cy="39.26247" r="2.68948"/><circle class="bfabe6e3-5710-40b7-8be3-48e1f4d3914c" cx="18.29966" cy="29.22864" r="2.68948"/></svg>