<svg id="b4176430-cf21-451e-929a-13b8d7253bfc" data-name="Layer 1" xmlns="http://www.w3.org/2000/svg" viewBox="0 0 73.94619 32.98568"><defs><style>.e05c17a0-0a6d-4295-8950-fc16b3b8793f{fill:#537435;}.b42cb323-5f9a-4aca-9693-465ee1ba7970{fill:none;stroke:#678e3d;stroke-linecap:round;stroke-linejoin:round;stroke-width:5.46006px;}.b34d2f57-532d-4819-adde-12ec509330a8{fill:#678e3d;}.e448612a-f6c4-4210-a711-eb50216ad106{fill:#86c66b;}</style></defs><title>Artboard 241</title><rect class="e05c17a0-0a6d-4295-8950-fc16b3b8793f" width="73.94619" height="32.98568" rx="14.93633"/><path class="b42cb323-5f9a-4aca-9693-465ee1ba7970" d="M11.36246,26.48815c2.244,0,2.244,1.56,4.4881,1.56,2.24617,0,2.24617-1.56,4.49235-1.56,2.2448,0,2.2448,1.56,4.48961,1.56,2.24592,0,2.24592-1.56,4.49185-1.56,2.24689,0,2.24689,1.56,4.49379,1.56s2.24689-1.56,4.49378-1.56,2.24693,1.56,4.49386,1.56c2.24629,0,2.24629-1.56,4.49258-1.56,2.2466,0,2.2466,1.56,4.4932,1.56,2.24855,0,2.24855-1.56,4.49711-1.56,2.25009,0,2.25009,1.56,4.50019,1.56s2.2501-1.56,4.5002-1.56"/><path class="b34d2f57-532d-4819-adde-12ec509330a8" d="M6.45713,10.54916a1.43724,1.43724,0,0,1-.52563.77734,5.947,5.947,0,0,1-.709.41992c-.4226.25415-.29565.3169-.293.58838-.00927.07129.04273-.05322.0337-.08765.02221-.0166.00512-.06982.02807-.05615.01929-.00928.06006.0354.12329.08911l.47437.42359a4.87352,4.87352,0,0,1,.60473.63842,2.39358,2.39358,0,0,1,.52344,1.30616,2.0708,2.0708,0,0,1-.05176.56762,2.82172,2.82172,0,0,1-.14672.42994,4.052,4.052,0,0,1-.30787.5625l-.47949.6997a1.35343,1.35343,0,0,0-.22241.42725c-.02856.08227.14429.02832.175-.42871A1.17571,1.17571,0,0,0,5.618,16.5162a1.59683,1.59683,0,0,0-.09228-.2273c-.05225-.09961-.0586-.11059-.01929-.10156a4.43549,4.43549,0,0,1,.45068.21582,5.74482,5.74482,0,0,1,.81006.49731A3.119,3.119,0,0,1,7.911,18.44564a3.05866,3.05866,0,0,1,.134.772,3.54575,3.54575,0,0,1-.031.59326,4.87212,4.87212,0,0,1-.17554.77393l-.271.88916c-.05615.20874-.07226.37817-.02.37769.0066.011.02955-.01392.05054-.05127a.61406.61406,0,0,0,.0625-.175,1.65776,1.65776,0,0,0-.06543-.86279,2.27747,2.27747,0,0,0-.58813-.89869,1.02526,1.02526,0,0,0-.1084-.092L6.849,19.72323c-.04321-.0332-.05713-.04981-.04956-.05249-.0044-.02588.16308.02221.38769.094a6.16689,6.16689,0,0,1,.96045.39746A4.01608,4.01608,0,0,1,9.85533,21.753a3.31222,3.31222,0,0,1,.40185,1.53345,3.05842,3.05842,0,0,1-.02612.48828,2.48913,2.48913,0,0,1-.06519.36817,3.96659,3.96659,0,0,1-.33667.89331c-.11377.19629-.19653.33691-.282.34961-.09033.03466-.11035-.19849-.49658-.58936a.71019.71019,0,0,0-.54126-.26294c-.05615.00635-.08032.02783-.07788.05322-.01563.023-.00415.06031.01709.093a1.56636,1.56636,0,0,0,.50781.425c.22656.16821.49731.31836.76855.5415a1.81009,1.81009,0,0,1,.67579.90308.24911.24911,0,0,1-.16529.29834l-.23388.07446c-.45459.14453-.74756.43946-1.2605.66773a3.27744,3.27744,0,0,1-.91651.25512,1.389,1.389,0,0,1-.332.0105,1.74653,1.74653,0,0,1-.41552-.06592,2.23781,2.23781,0,0,1-1.11524-.68017,3.43789,3.43789,0,0,1-.79224-1.96436c-.05737-.46557-.04882-.79614-.06811-1.0686a1.17834,1.17834,0,0,0-.08423-.51929c-.01074-.02392-.023-.01172-.03638.0105a.277.277,0,0,0-.03051.12988,1.61416,1.61416,0,0,0,.21338.84839,2.66531,2.66531,0,0,0,.59228.72046,1.48268,1.48268,0,0,1-.38184-.10937,6.84809,6.84809,0,0,1-.95532-.40992,3.56062,3.56062,0,0,1-.36816-.21728l-.2041-.13965L3.59507,24.19a3.5263,3.5263,0,0,1-1.031-1.45093,3.32477,3.32477,0,0,1-.14649-1.56885,3.0263,3.0263,0,0,1,.12036-.52856,2.967,2.967,0,0,1,.14844-.396,4.87456,4.87456,0,0,1,.55615-.93579,3.13653,3.13653,0,0,1,.34107-.40869c.08764-.04639-.05005.04077.12744.74438.19873.48486.35034.46265.30347.40552a1.65582,1.65582,0,0,0-.33838-.36255c-.18042-.16528-.40308-.34717-.69776-.6438-.06762-.06714-.15088-.15747-.23779-.26147a3.19189,3.19189,0,0,1-.26856-.3645A2.87937,2.87937,0,0,1,2.20347,17.88a2.50985,2.50985,0,0,1-.14282-.73828,2.61162,2.61162,0,0,1,.65307-1.7522,4.7914,4.7914,0,0,1,.70581-.66577l.48487-.363c.12793-.07544.08813-.0957.08276.28345.05225.17236.11328.095.07422-.03833a2.43268,2.43268,0,0,0-.22729-.53c-.10938-.21-.241-.43433-.38233-.72754A2.835,2.835,0,0,1,3.246,12.8016a1.94753,1.94753,0,0,1-.05664-.40381,1.31545,1.31545,0,0,1,.07178-.44238,2.07106,2.07106,0,0,1,.667-.95606,1.90648,1.90648,0,0,1,.956-.35937c.54029-.05225.8086-.00562,1.0752-.31568l.01831-.02124a.27726.27726,0,0,1,.47949.2461Z"/><path class="e448612a-f6c4-4210-a711-eb50216ad106" d="M37.70748,20.96493a.37549.37549,0,0,1-.124.28613.399.399,0,0,1-.27637.11426H35.70553a.59411.59411,0,0,1-.31543-.07617.8871.8871,0,0,1-.20019-.16211c-.05079-.05762-.082-.0918-.09473-.10449l-3.85156-5.47266a2.67189,2.67189,0,0,0-.87793,1.22949,4.83911,4.83911,0,0,0-.22852,1.51563v2.59375a.48176.48176,0,0,1-.124.34277.42988.42988,0,0,1-.333.13379H28.38326a.43848.43848,0,0,1-.32421-.13379.46433.46433,0,0,1-.13379-.34277V18.27645a6.53787,6.53787,0,0,1,.43847-2.55468,4.53305,4.53305,0,0,1,1.67871-1.8877L28.1733,11.18368a.65214.65214,0,0,1-.0957-.30566.38945.38945,0,0,1,.11524-.28614.36537.36537,0,0,1,.2666-.11425h1.54394a.7576.7576,0,0,1,.61035.3623l3.54688,4.97656a2.10712,2.10712,0,0,0,.94336-1.001,4.04252,4.04252,0,0,0,.20019-1.38184V10.95419a.48613.48613,0,0,1,.124-.34278.43545.43545,0,0,1,.334-.13378h1.373a.42645.42645,0,0,1,.32422.14355.47119.47119,0,0,1,.13281.333v2.57422a5.06245,5.06245,0,0,1-.457,2.21191,4.53439,4.53439,0,0,1-1.77344,1.77344l2.23047,3.14648A.50187.50187,0,0,1,37.70748,20.96493Z"/><path class="e448612a-f6c4-4210-a711-eb50216ad106" d="M46.78268,11.64071A5.391,5.391,0,0,1,47.851,15.35946a5.6054,5.6054,0,0,1-1.31641,3.88965,7.14316,7.14316,0,0,1-3.35547,2.07812l-.78222.248a.34177.34177,0,0,1-.34278-.07617.43669.43669,0,0,1-.15234-.34375v-1.3916a.50419.50419,0,0,1,.124-.32422.74321.74321,0,0,1,.333-.22852l.668-.26757a3.82836,3.82836,0,0,0,1.706-1.23926,3.8313,3.8313,0,0,0,.60059-2.32617,4.59159,4.59159,0,0,0-.23828-1.64942,1.55792,1.55792,0,0,0-.80078-.86719,3.69358,3.69358,0,0,0-1.55371-.26757h-.59082l-2.13575-.01856a.48258.48258,0,0,1-.34375-.124.411.411,0,0,1-.13281-.31446V8.28524a.44144.44144,0,0,1,.13281-.32422.46511.46511,0,0,1,.34375-.13379h1.39161a.42747.42747,0,0,1,.458.458v2.19239h1.31543A4.7175,4.7175,0,0,1,46.78268,11.64071Z"/></svg>