<svg id="fd01110d-6bae-4648-a176-fe9f7838e2f6" data-name="Layer 1" xmlns="http://www.w3.org/2000/svg" viewBox="0 0 73.94619 32.98568"><defs><style>.f93f3dce-45c1-4859-bae6-f6da89b4b038{fill:#537435;}.aeadd505-e08c-4b7a-9c86-e62852d780b1{fill:none;stroke:#678e3d;stroke-linecap:round;stroke-linejoin:round;stroke-width:5.46006px;}.aebfb6c8-b444-4765-9f02-72865925c9e9{fill:#678e3d;}.e5796028-ec4a-4a92-a25e-6adca60792b4{fill:#86c66b;}</style></defs><title>Artboard 239</title><rect class="f93f3dce-45c1-4859-bae6-f6da89b4b038" width="73.94619" height="32.98568" rx="14.93633"/><path class="aeadd505-e08c-4b7a-9c86-e62852d780b1" d="M11.36246,26.48815c2.244,0,2.244,1.56,4.4881,1.56,2.24617,0,2.24617-1.56,4.49235-1.56,2.2448,0,2.2448,1.56,4.48961,1.56,2.24592,0,2.24592-1.56,4.49185-1.56,2.24689,0,2.24689,1.56,4.49379,1.56s2.24689-1.56,4.49378-1.56,2.24693,1.56,4.49386,1.56c2.24629,0,2.24629-1.56,4.49258-1.56,2.2466,0,2.2466,1.56,4.4932,1.56,2.24855,0,2.24855-1.56,4.49711-1.56,2.25009,0,2.25009,1.56,4.50019,1.56s2.2501-1.56,4.5002-1.56"/><path class="aebfb6c8-b444-4765-9f02-72865925c9e9" d="M6.45679,10.54909a1.43333,1.43333,0,0,1-.52539.77734,5.91333,5.91333,0,0,1-.709.41992c-.42236.2544-.29541.3169-.293.58838-.00927.07129.043-.05322.03369-.0874.02247-.0166.00538-.06982.02832-.05615.01905-.00928.06006.03515.123.08886l.47461.42334a4.87738,4.87738,0,0,1,.60449.63868A2.39268,2.39268,0,0,1,6.717,14.64821a2.06405,2.06405,0,0,1-.05176.56787,2.8563,2.8563,0,0,1-.14648.42969,4.0364,4.0364,0,0,1-.30811.5625l-.47949.6997a1.36658,1.36658,0,0,0-.22266.42725c-.02832.082.14454.02832.1753-.42871a1.17338,1.17338,0,0,0-.06592-.39014,1.59023,1.59023,0,0,0-.09229-.22754c-.05224-.09961-.05859-.11035-.019-.10156a4.49441,4.49441,0,0,1,.45069.21582,5.77413,5.77413,0,0,1,.81005.49756,3.11925,3.11925,0,0,1,1.14356,1.54492,3.07267,3.07267,0,0,1,.13428.772,3.54139,3.54139,0,0,1-.03125.59327,4.85469,4.85469,0,0,1-.1753.77392l-.271.88916c-.05664.209-.07227.37842-.02.37793.00634.01074.02929-.01416.05029-.05127a.61207.61207,0,0,0,.0625-.17529,1.65521,1.65521,0,0,0-.06543-.86279,2.27233,2.27233,0,0,0-.58789-.89844,1.08206,1.08206,0,0,0-.1084-.09229l-.0498-.04882c-.04346-.03272-.05713-.04932-.04932-.05225-.00439-.02588.16309.02246.3877.09424a6.18779,6.18779,0,0,1,.96044.397A4.0224,4.0224,0,0,1,9.85522,21.7527a3.31225,3.31225,0,0,1,.40186,1.53369,2.96949,2.96949,0,0,1-.02637.48828,2.46127,2.46127,0,0,1-.06494.36817,3.96089,3.96089,0,0,1-.33642.89306c-.11377.19629-.19678.33741-.28223.34961-.09033.03516-.11035-.19824-.49658-.58886a.70949.70949,0,0,0-.541-.26319c-.05615.00635-.08057.02783-.07812.05323-.01563.02294-.00391.06054.01709.09326a1.56617,1.56617,0,0,0,.50781.4248c.22656.16846.49756.31836.76855.54151a1.81166,1.81166,0,0,1,.67578.90332.24932.24932,0,0,1-.165.29834l-.23389.07421c-.45459.14454-.74756.43946-1.26074.668a3.29235,3.29235,0,0,1-.91651.25489,1.3889,1.3889,0,0,1-.332.01074,1.75292,1.75292,0,0,1-.41553-.06641,2.23451,2.23451,0,0,1-1.11523-.67969,3.43648,3.43648,0,0,1-.792-1.96435c-.05762-.46582-.04883-.79639-.06836-1.06885a1.17724,1.17724,0,0,0-.084-.519c-.01074-.02393-.023-.01172-.03662.01025a.27837.27837,0,0,0-.03027.12989,1.60792,1.60792,0,0,0,.21338.84863,2.65962,2.65962,0,0,0,.59228.72021,1.45352,1.45352,0,0,1-.38183-.10937,6.82678,6.82678,0,0,1-.95557-.41016,3.45562,3.45562,0,0,1-.36816-.21728l-.2041-.13916L3.595,24.1902A3.52491,3.52491,0,0,1,2.56421,22.739a3.32167,3.32167,0,0,1-.14649-1.56885,2.99744,2.99744,0,0,1,.12012-.52832,2.95279,2.95279,0,0,1,.14844-.396,4.89066,4.89066,0,0,1,.55615-.936,3.16823,3.16823,0,0,1,.34131-.40869c.0874-.04639-.05029.041.12744.74463.19873.48486.3501.4624.30322.40527a1.66192,1.66192,0,0,0-.33837-.3623c-.18018-.16553-.40284-.34717-.69776-.644-.06738-.06738-.15088-.15722-.23779-.26172a3.17766,3.17766,0,0,1-.26856-.36425,2.87627,2.87627,0,0,1-.26855-.53858,2.50162,2.50162,0,0,1-.14258-.73828,2.61423,2.61423,0,0,1,.65283-1.75244,4.78718,4.78718,0,0,1,.70606-.66553l.48486-.36328c.12793-.07568.08789-.0957.08252.28369.05225.17237.11328.09473.07422-.03857a2.429,2.429,0,0,0-.22705-.53028c-.10938-.20947-.24121-.43408-.38233-.72705a2.84221,2.84221,0,0,1-.20605-.54687,1.947,1.947,0,0,1-.05664-.40381,1.30938,1.30938,0,0,1,.07178-.44238,2.07106,2.07106,0,0,1,.667-.95606,1.905,1.905,0,0,1,.95605-.35937c.54053-.05225.8086-.00537,1.0752-.31543l.01855-.02149a.27692.27692,0,0,1,.479.2461Z"/><path class="e5796028-ec4a-4a92-a25e-6adca60792b4" d="M31.51063,23.60618a.43549.43549,0,0,1-.13379-.334V10.93626a.4326.4326,0,0,1,.13379-.334.46287.46287,0,0,1,.32422-.125h1.52539a.42746.42746,0,0,1,.457.459V23.27219a.42467.42467,0,0,1-.457.457H31.83485A.46123.46123,0,0,1,31.51063,23.60618Z"/><path class="e5796028-ec4a-4a92-a25e-6adca60792b4" d="M36.52431,21.23118a.43676.43676,0,0,1-.13282-.32422V19.70579a.43045.43045,0,0,1,.13282-.332.45433.45433,0,0,1,.32421-.125h2.7461a2.74418,2.74418,0,0,0,2.0498-.69532,2.99885,2.99885,0,0,0,.73438-2.03125c.01172-.16406.01855-.36914.01855-.60937,0-.24219-.00683-.43945-.01855-.5918a2.48858,2.48858,0,0,0-2.78418-2.72656h-2.7461a.45351.45351,0,0,1-.457-.457V10.93626a.43192.43192,0,0,1,.13282-.334.46283.46283,0,0,1,.32421-.125h2.8418a5.06705,5.06705,0,0,1,3.75586,1.24024A5.19171,5.19171,0,0,1,44.76161,15.282c.0127.166.01953.377.01953.63086,0,.26562-.00683.48242-.01953.64844a5.188,5.188,0,0,1-1.31543,3.56445,5.06709,5.06709,0,0,1-3.75586,1.24023h-2.8418A.4394.4394,0,0,1,36.52431,21.23118Z"/></svg>