<svg id="ffe17eb2-2afd-45ee-a684-2ca314f5d6b6" data-name="Layer 1" xmlns="http://www.w3.org/2000/svg" xmlns:xlink="http://www.w3.org/1999/xlink" viewBox="0 0 59.74463 56.68066" preserveAspectRatio="none" ><defs><style>.a9adc0bf-8020-4473-b35f-797f42dea334,.ad5df741-d2ab-4185-953d-639d31c5d8ff,.b00b6bd7-593d-4682-aed8-562225f7db13,.bef50b16-31f4-4fde-923d-40a7e17f416c,.f41f4975-94c4-4627-9c63-3701834d9cff{fill:none;}.a4487e86-681b-4905-b674-55b84d6fde09{fill:#86c66b;}.b0242b30-b4e2-4131-b5f1-6870205e8e8e{fill:#d5bdab;}.e16692fc-f603-4839-ae7d-042a419e109d{fill:#a7a9ac;}.bec97cb6-8d3e-44b6-88a2-a0389d3693e0{fill:#808285;}.fa4fd6af-0538-4dea-8340-300cbbcd5f75{clip-path:url(#b388e39b-fb69-4d85-9c7f-a62739b7f080);}.b1399079-5682-43ef-9583-3a4dc47b402c,.f67c7e6d-814a-4f45-8159-75a643f07303{fill:#e0d1bb;}.b1399079-5682-43ef-9583-3a4dc47b402c{stroke:#e0d1bb;stroke-width:0.33556px;}.ad5df741-d2ab-4185-953d-639d31c5d8ff,.b00b6bd7-593d-4682-aed8-562225f7db13,.b1399079-5682-43ef-9583-3a4dc47b402c,.bef50b16-31f4-4fde-923d-40a7e17f416c,.f41f4975-94c4-4627-9c63-3701834d9cff{stroke-miterlimit:10;}.b80b5585-1778-4979-bfa8-20b70284bb0a{fill:#fee165;}.a519aa70-fb7b-4004-9838-73f83df2b51e{fill:#fed402;}.ad4ed9ff-4a93-4f91-ad25-6afb5321502d{fill:#754c29;}.b753c413-47fc-4947-a394-f9f27cb3f3e6{clip-path:url(#aa669c0c-2259-48ea-baad-e25a22792d0f);}.ff816bc2-2937-4e9f-a0e1-410e6fe1f49e{clip-path:url(#e18ba6e6-a669-438e-835b-1ec2e671e8ca);}.aee392f0-c106-4901-b469-c70a68d7b978{fill:#7f5436;}.f6b292da-707f-4e40-91e0-e218283319dd{fill:#8b5e3c;}.bef50b16-31f4-4fde-923d-40a7e17f416c{stroke:#754c29;}.ad5df741-d2ab-4185-953d-639d31c5d8ff,.bef50b16-31f4-4fde-923d-40a7e17f416c{stroke-width:0.109px;}.bc343e58-ccef-4a6c-ae00-2929d4f4f7ef{fill:#664126;}.ad5df741-d2ab-4185-953d-639d31c5d8ff{stroke:#664126;}.b8e18cdb-609d-4031-a529-cfe4019c8174{clip-path:url(#f3779733-2fba-4caa-98e0-6cdccb1ae174);}.fb3615e2-7022-4225-8a36-0290a582a937{clip-path:url(#a5b890f2-4656-4633-839e-8d040837d27d);}.ac625991-fa24-4ea9-9c9e-70b409a2f639{clip-path:url(#f97f755c-1ce3-4fc0-8273-474e991e47d2);}.f38e15a9-221f-4be5-90c0-43cb15821819{clip-path:url(#ac5cbbda-dae7-4c80-b2ec-a5132c7dfe33);}.b310e0bd-86eb-42c1-91a2-4255c9b22f4b{clip-path:url(#ebca1640-4f47-4873-a00c-ccfae6fcd82e);}.aed245dc-ecb2-4051-aed9-1c68e3af8040{clip-path:url(#e083c869-e0d5-41ca-afcd-bff7700aaf38);}.b71e45bc-eb1d-4359-b1c5-81a313230c7c{clip-path:url(#a8adef3c-98fe-4d1b-9a84-9885290c05f3);}.fdf3adc2-770f-4def-8682-5ae423c303bd{clip-path:url(#e5393fd8-0833-42c2-b18f-7ce45995afa5);}.f5684e9f-c79e-44c4-b96b-7aaa8e9e8579{fill:#3d3d3d;}.b43e5e15-dc31-408d-9234-2c0622cf10ff{fill:#414042;}.f704bb8a-5b2c-43cf-9505-8e74156bd57f{fill:#cb454a;}.badb84ae-36bd-4cf9-a21b-91d8cf11608e{fill:#ddc84d;}.b95b80b6-7a33-424b-bfee-85a1dc7a2b76{fill:#6d9d86;}.a3ab9859-f706-4e5c-9c49-b7fd4113ff39{fill:#344679;}.b5f363da-241c-42ec-b93f-1e9f14a666fd{fill:#bfb2b6;}.a40512fc-fde4-4c9a-a159-b69e54f85501{fill:#a91f23;}.bd1d68e5-7085-46d9-8978-3d04daf359ea{fill:#bba430;}.a136cced-343e-44ce-ae64-da7feb10daa2{fill:#3b7c5e;}.a60ce6a8-8a47-435f-9bdb-eb7fc6865df8{fill:#1e2756;}.fb5c0ea4-e88d-43af-adb2-1d620cba8317{fill:#9d7181;}.a5c7c73a-ed4f-4989-aefb-27db7526f148{fill:#5bbf90;}.b6680dd9-8721-4af6-9723-22c5518a84f8{fill:#00a14b;}.bcc9dc2b-d0ca-4c64-a535-31435e69e7c1{fill:#3f3027;}.e78633f7-2893-442e-acaa-78bf8c4db67a{fill:#ed1c24;}.a26ff337-751d-4f73-a53a-422bab712d13{fill:#fff;}.a0161a83-4a42-49bd-a992-5bc968290419{fill:#006838;}.b246a0f2-99d7-4575-8f54-321c83a66bb0,.b5116b6a-8537-4d3d-bcd5-1fa184e90620{fill:#231f20;}.b5116b6a-8537-4d3d-bcd5-1fa184e90620{opacity:0.39;}.b5271c8f-1fca-49b8-a930-3ad67b647cb9{fill:#f1f2f2;}.b2005dd5-6211-47c5-ac66-053bde115819{fill:#58595b;}.bfb20ed5-53eb-4dcb-88df-b6faef6a63bf{fill:#6d6e71;}.b00b6bd7-593d-4682-aed8-562225f7db13,.f41f4975-94c4-4627-9c63-3701834d9cff{stroke:#939598;stroke-linecap:round;}.b00b6bd7-593d-4682-aed8-562225f7db13{stroke-width:0.23736px;}.f41f4975-94c4-4627-9c63-3701834d9cff{stroke-width:0.14242px;}.ecd062cb-c7e6-4443-8206-48c6ff76441b{fill:#bcbec0;}.f2a6011c-c502-4ff2-a663-c9e37eb02b58{fill:#fff7d4;opacity:0.27;}</style><clipPath id="b388e39b-fb69-4d85-9c7f-a62739b7f080"><path class="a9adc0bf-8020-4473-b35f-797f42dea334" d="M11.55057,33.66818H48.26791a0,0,0,0,1,0,0V45.39485A1.17091,1.17091,0,0,1,47.097,46.56576H12.72148a1.17091,1.17091,0,0,1-1.17091-1.17091V33.66818A0,0,0,0,1,11.55057,33.66818Z"/></clipPath><clipPath id="aa669c0c-2259-48ea-baad-e25a22792d0f"><polygon class="a9adc0bf-8020-4473-b35f-797f42dea334" points="47.734 27.48 12.011 27.48 14.875 25.842 44.87 25.842 47.734 27.48"/></clipPath><clipPath id="e18ba6e6-a669-438e-835b-1ec2e671e8ca"><path class="a9adc0bf-8020-4473-b35f-797f42dea334" d="M10.12142,25.84179c.42069-.01459.81812-.02019,1.22506-.02095.703-.0013,1.36228.01649,2.06227.01647l10.25794-.00038,12.47082-.00045,10.90242-.0004c1.75931-.00007,3.86788.04647,5.41375-.0157a2.98152,2.98152,0,0,1,.3524.001,2.04664,2.04664,0,0,1,.3263.0525q.68841.15852,1.3963.32582a.73433.73433,0,0,1,.20056.063c.03367.03013-.0838.0488-.1262.07381-.15879.09364.73429.26626.383.34123-.02726.00582-.05751.01111-.09046.01593-.47793.06989-1.50861.03867-2.27367.0387l-3.7322.00015L38.1879,26.733l-12.463.00051L14.568,26.734l-6.78237.00027c-.96136,0-.8228-.184-.42109-.32319.08775-.03041.19449-.06186.20313-.09.01514-.04938-.27612-.07755-.16018-.12936.08311-.03715.33995-.06748.47256-.10336a.51647.51647,0,0,0,.12443-.05031l.28523-.153a.19034.19034,0,0,1,.07536-.02052,1.01947,1.01947,0,0,1,.12067-.00427c.49713.00394.77882.0181,1.31509-.00577Q9.96393,25.84723,10.12142,25.84179Z"/></clipPath><clipPath id="f3779733-2fba-4caa-98e0-6cdccb1ae174"><path class="a9adc0bf-8020-4473-b35f-797f42dea334" d="M60.52572,26.49157c-.47246-.01688-.90758-.02337-1.34629-.02424-.75785-.00151-1.4431.01908-2.19614.01905L45.948,26.48594l-13.41577-.00052L20.80376,26.485c-1.8926-.00008-4.11521.0538-5.83885-.01816a2.9638,2.9638,0,0,0-.378.00119,1.30343,1.30343,0,0,0-.30062.06076q-.58926.18372-1.19338.37837c-.07436.024-.15128.04943-.15656.07345-.00772.03513.13694.05692.20658.08611.26106.10942-.54088.31159-.08882.39959.03511.00683.073.01306.11328.01872a24.0119,24.0119,0,0,0,2.5024.04548l4.047.00018,11.60459.00051,13.51449.00059,12.0983.00053,7.35469.00032c1.04249.00005.63137-.21595.00021-.3789a1.82153,1.82153,0,0,1-.3461-.10515c-.08566-.05761.1893-.09045-.00857-.15081-.14172-.04324-.46118-.07853-.65428-.12025a1.65049,1.65049,0,0,1-.20425-.05846l-.51969-.17738a.46633.46633,0,0,0-.10952-.02376,1.16315,1.16315,0,0,0-.13576-.005c-.52945.00456-.81305.021-1.42288-.00667C60.76439,26.50067,60.64385,26.49579,60.52572,26.49157Z"/></clipPath><clipPath id="a5b890f2-4656-4633-839e-8d040837d27d"><polygon class="a9adc0bf-8020-4473-b35f-797f42dea334" points="47.734 23.006 12.011 23.006 14.875 21.368 44.87 21.368 47.734 23.006"/></clipPath><clipPath id="f97f755c-1ce3-4fc0-8273-474e991e47d2"><path class="a9adc0bf-8020-4473-b35f-797f42dea334" d="M10.12142,21.36766c.42069-.01459.81812-.02019,1.22506-.02095.703-.0013,1.36228.01649,2.06227.01647l10.25794-.00038,12.47082-.00046L47.03993,21.362c1.75931-.00007,3.86788.04647,5.41375-.0157a2.98152,2.98152,0,0,1,.3524.001,2.04664,2.04664,0,0,1,.3263.0525q.68841.15852,1.3963.32582a.73433.73433,0,0,1,.20056.063c.03367.03013-.0838.0488-.1262.07381-.15879.09364.73429.26626.383.34123-.02726.00581-.05751.01111-.09046.01593-.47793.06989-1.50861.03867-2.27367.0387l-3.7322.00015-10.70179.00043-12.463.00051-11.1569.00045-6.78237.00027c-.96136,0-.8228-.184-.42109-.32319.08775-.03041.19449-.06186.20313-.09.01514-.04938-.27612-.07755-.16018-.12937.08311-.03714.33995-.06747.47256-.10335a.51647.51647,0,0,0,.12443-.05031l.28523-.153a.19016.19016,0,0,1,.07536-.02052,1.01735,1.01735,0,0,1,.12067-.00427c.49713.00394.77882.0181,1.31509-.00577Q9.96393,21.3731,10.12142,21.36766Z"/></clipPath><clipPath id="ac5cbbda-dae7-4c80-b2ec-a5132c7dfe33"><path class="a9adc0bf-8020-4473-b35f-797f42dea334" d="M60.52572,22.01744c-.47246-.01688-.90758-.02337-1.34629-.02424-.75785-.00151-1.4431.01908-2.19614.01905L45.948,22.01181l-13.41577-.00052-11.72845-.00047c-1.8926-.00007-4.11521.05381-5.83885-.01816a2.96387,2.96387,0,0,0-.378.0012,1.30343,1.30343,0,0,0-.30062.06076q-.58926.18372-1.19338.37837c-.07436.024-.15128.04943-.15656.07345-.00772.03513.13694.05692.20658.0861.26106.10943-.54088.3116-.08882.3996.03511.00683.073.013.11328.01871a24.01163,24.01163,0,0,0,2.5024.04549l4.047.00018,11.60459.00051,13.51449.00059,12.0983.00053,7.35469.00032c1.04249.00005.63137-.21595.00021-.3789a1.82153,1.82153,0,0,1-.3461-.10515c-.08566-.05761.1893-.09045-.00857-.15082-.14172-.04323-.46118-.07852-.65428-.12024a1.65049,1.65049,0,0,1-.20425-.05846l-.51969-.17738a.46633.46633,0,0,0-.10952-.02376,1.16315,1.16315,0,0,0-.13576-.00495c-.52945.00456-.81305.021-1.42288-.00667C60.76439,22.02654,60.64385,22.02166,60.52572,22.01744Z"/></clipPath><clipPath id="ebca1640-4f47-4873-a00c-ccfae6fcd82e"><polygon class="a9adc0bf-8020-4473-b35f-797f42dea334" points="47.734 18.699 12.011 18.699 14.875 17.061 44.87 17.061 47.734 18.699"/></clipPath><clipPath id="e083c869-e0d5-41ca-afcd-bff7700aaf38"><path class="a9adc0bf-8020-4473-b35f-797f42dea334" d="M10.12142,17.06057c.42069-.01459.81812-.0202,1.22506-.021.703-.0013,1.36228.01649,2.06227.01647l10.25794-.00038,12.47082-.00045,10.90242-.0004c1.75931-.00006,3.86788.04648,5.41375-.0157a2.98167,2.98167,0,0,1,.3524.001,2.04564,2.04564,0,0,1,.3263.05249q.68841.15852,1.3963.32582a.73424.73424,0,0,1,.20056.063c.03367.03012-.0838.04879-.1262.0738-.15879.09365.73429.26626.383.34123-.02726.00582-.05751.01112-.09046.01593-.47793.06989-1.50861.03867-2.27367.0387l-3.7322.00016-10.70179.00043-12.463.0005-11.1569.00045L7.78564,17.953c-.96136,0-.8228-.184-.42109-.32319.08775-.03041.19449-.06187.20313-.09.01514-.04938-.27612-.07754-.16018-.12936.08311-.03714.33995-.06748.47256-.10336a.51647.51647,0,0,0,.12443-.05031l.28523-.15294a.19.19,0,0,1,.07536-.02052,1.01737,1.01737,0,0,1,.12067-.00428c.49713.00394.77882.01811,1.31509-.00576Q9.96393,17.066,10.12142,17.06057Z"/></clipPath><clipPath id="a8adef3c-98fe-4d1b-9a84-9885290c05f3"><path class="a9adc0bf-8020-4473-b35f-797f42dea334" d="M60.52572,17.71035c-.47246-.01689-.90758-.02338-1.34629-.02425-.75785-.00151-1.4431.01908-2.19614.01905L45.948,17.70472l-13.41577-.00053-11.72845-.00046c-1.8926-.00007-4.11521.0538-5.83885-.01816a2.96564,2.96564,0,0,0-.378.00119,1.304,1.304,0,0,0-.30062.06076q-.58926.18373-1.19338.37838c-.07436.024-.15128.04943-.15656.07344-.00772.03513.13694.05692.20658.08611.26106.10942-.54088.31159-.08882.39959.03511.00684.073.01306.11328.01872a24.0144,24.0144,0,0,0,2.5024.04549l4.047.00017,11.60459.00051,13.51449.00059,12.0983.00053,7.35469.00032c1.04249,0,.63137-.21594.00021-.3789a1.82,1.82,0,0,1-.3461-.10515c-.08566-.05761.1893-.09044-.00857-.15081-.14172-.04324-.46118-.07853-.65428-.12025a1.65246,1.65246,0,0,1-.20425-.05845l-.51969-.17738a.46581.46581,0,0,0-.10952-.02376,1.161,1.161,0,0,0-.13576-.005c-.52945.00456-.81305.021-1.42288-.00668C60.76439,17.71944,60.64385,17.71457,60.52572,17.71035Z"/></clipPath><clipPath id="e5393fd8-0833-42c2-b18f-7ce45995afa5"><polygon class="a9adc0bf-8020-4473-b35f-797f42dea334" points="51.403 17.684 8.342 17.684 11.811 10.182 47.934 10.182 51.403 17.684"/></clipPath></defs><path class="a4487e86-681b-4905-b674-55b84d6fde09" d="M5.04263,1.50007H54.70279a3.542,3.542,0,0,1,3.542,3.542v46.5957a3.543,3.543,0,0,1-3.543,3.543H5.04361a3.543,3.543,0,0,1-3.543-3.543V5.04206A3.542,3.542,0,0,1,5.04263,1.50007Z"/><path class="b0242b30-b4e2-4131-b5f1-6870205e8e8e" d="M54.7023,3.00007a2.04449,2.04449,0,0,1,2.04248,2.04248V51.63826a2.04449,2.04449,0,0,1-2.04248,2.04248H5.04263a2.04449,2.04449,0,0,1-2.04248-2.04248V5.04255A2.04449,2.04449,0,0,1,5.04263,3.00007H54.7023m0-3H5.04263A5.04245,5.04245,0,0,0,.00015,5.04255V51.63826a5.04276,5.04276,0,0,0,5.04248,5.04248H54.7023a5.04276,5.04276,0,0,0,5.04248-5.04248V5.04255A5.04245,5.04245,0,0,0,54.7023.00007Z"/><rect class="e16692fc-f603-4839-ae7d-042a419e109d" x="12.01132" y="11.61918" width="35.72235" height="26.39271"/><rect class="bec97cb6-8d3e-44b6-88a2-a0389d3693e0" x="14.7352" y="15.16447" width="30.18041" height="15.8205"/><g class="fa4fd6af-0538-4dea-8340-300cbbcd5f75"><rect class="b1399079-5682-43ef-9583-3a4dc47b402c" x="11.55057" y="33.66818" width="36.71733" height="12.89758"/></g><polygon class="b80b5585-1778-4979-bfa8-20b70284bb0a" points="49.447 33.15 10.387 33.15 12.134 30.985 47.699 30.985 49.447 33.15"/><rect class="a519aa70-fb7b-4004-9838-73f83df2b51e" x="10.35762" y="33.13789" width="39.10324" height="0.5303"/><path class="ad4ed9ff-4a93-4f91-ad25-6afb5321502d" d="M12.39593,14.8585h0a.38461.38461,0,0,1,.38461.38461V30.985a0,0,0,0,1,0,0h-.76922a0,0,0,0,1,0,0V15.24311A.38461.38461,0,0,1,12.39593,14.8585Z"/><path class="ad4ed9ff-4a93-4f91-ad25-6afb5321502d" d="M47.34906,14.8585h0a.38461.38461,0,0,1,.38461.38461V30.985a0,0,0,0,1,0,0h-.76922a0,0,0,0,1,0,0V15.24311A.38461.38461,0,0,1,47.34906,14.8585Z"/><polygon class="ad4ed9ff-4a93-4f91-ad25-6afb5321502d" points="47.734 27.48 12.011 27.48 14.875 25.842 44.87 25.842 47.734 27.48"/><g class="b753c413-47fc-4947-a394-f9f27cb3f3e6"><g class="ff816bc2-2937-4e9f-a0e1-410e6fe1f49e"><path class="aee392f0-c106-4901-b469-c70a68d7b978" d="M45.76233,25.61654c1.55612.0011,3.16544.00515,4.84048.10387,1.60061.09434,3.19329.27106,4.80834.45136-.18364-.0205-1.59345.09159-1.80488.103q-.92605.04981-1.884.0957c-1.28971.06191-2.61762.11869-3.97622.17151q-2.11521.08223-4.31524.1526c-1.35681.04391-2.77056.05933-4.14453.10308-.88158.02807-1.79978.07307-2.712.01515-.27157-.01724-.528-.043-.7911-.064-.71753-.05742-1.48-.07946-2.22882-.09732q-2.59371-.06189-5.17957-.06686-2.80743-.00561-5.6491.05505-1.42943.03055-2.87614.0782c-.80246.02646-1.73136.09266-2.43042.04954-3.20181-.19748-5.91749-.4679-9.46183-.48509-.65331-.00317-1.447-.0176-1.38051-.125.61582-.04755,1.23222-.10458,1.83093-.14908.54306-.04036,1.05823-.04324,1.57857-.05462q2.052-.04488,4.06894-.08256c.57385-.01074,1.25947-.03848,1.78258-.02618.62072.0146,1.17813.04911,1.83522.05673,1.73918.02018,3.51574.01973,5.29983-.00133.61668-.00728,1.25091-.01782,1.822-.06436.48713-.0397.94752-.10575,1.46262-.10137.33548.00285.61906.03566.90263.06378a60.35989,60.35989,0,0,0,6.28292.16209c2.14538-.02842,4.26669-.08934,6.45412-.03168.15441.00407.31765.0086.44877-.00037a.648.648,0,0,0,.31612-.08276,2.25883,2.25883,0,0,1,.5681-.17733,6.55409,6.55409,0,0,1,1.20779-.05167Q44.09811,25.6153,45.76233,25.61654Z"/><path class="f6b292da-707f-4e40-91e0-e218283319dd" d="M8.005,26.02693c1.95069.019,3.89844.06787,5.84619.11718,1.94922.01368,3.89844-.10888,5.84961-.03564,3.90088.07373,7.79932.05029,11.69971.00342,3.90039-.09375,7.80274.05713,11.69971.09961,1.94873.01416,3.897.03369,5.84521-.01367,1.94776-.05323,3.90332-.11377,5.85108.02343l-.00147.02149c-1.94922-.063-3.896.02881-5.84424.11279-1.95019.0835-3.90283.10254-5.85351.06836-3.90186-.04785-7.79688-.2002-11.69727-.19287-1.95019.00439-3.8999-.021-5.85009.00683-1.94971.0254-3.9004.04981-5.84913.03565-1.94873-.02637-3.89892.06348-5.84912.02-1.95019-.07129-3.90039-.14307-5.84765-.24463Z"/><path class="ad4ed9ff-4a93-4f91-ad25-6afb5321502d" d="M53.01578,25.9698l-4.54493.10986V26.0196l5.14405-.01416.002.08545-4.251.13965-.001-.05127,4.47119-.00391.00049.05127c-1.96729.04639-3.938.06543-5.90137.14161l-.00244-.09815,5.97363.13916-.00146.10645L45.68619,26.502l.00048-.03271,1.78614.02979.00048.01074L45.68521,26.502l.00049-.03271,8.21875-.06006-.00147.10645-5.97119-.14746-.00244-.09815c1.9707-.062,3.9375-.064,5.90625-.09473l.00049.05127-4.47119.00391-.00049-.05127,4.24853-.17383.00147.08545-5.14307-.01123V26.0196l4.544-.061Z"/><path class="bef50b16-31f4-4fde-923d-40a7e17f416c" d="M8.4719,25.9852a29.10006,29.10006,0,0,1,3.17131-.07862q-1.66.1488-3.41977.28637c1.132.02967,2.6106-.12324,3.76773-.1064-1.72124.124-3.48178.27291-5.27187.447.5115.02023,1.17147-.01785,1.788-.05072,1.93206-.103,3.82152-.16156,5.62063-.17495l-6.46606.38218c2.79855-.12261,5.58244-.24311,8.093-.21195l-5.25409.22712c1.84352-.04943,3.6888-.12385,5.4971-.2211-1.3314-.14281-3.36513-.13066-4.16063-.34333l4.71735-.1142a2.56009,2.56009,0,0,0-.73077-.0458l-3.06944.03762q4.80237-.08416,9.39343-.02171c-1.47107.02305-2.96857.05462-4.46336.13674a41.71132,41.71132,0,0,0-4.39363.44353c4.37315-.11168,8.64146-.183,12.838-.21546"/><path class="bc343e58-ccef-4a6c-ae00-2929d4f4f7ef" d="M18.547,26.41609c.09619.00146.16845.09326.25488.0957.0874-.00391.14111-.09814.25146-.12109.1211-.00293.186.09521.26172.10205.07031.0083.13379-.08057.24317-.10987.40136-.01025.74658.16114,1.10791.063a3.56974,3.56974,0,0,1,.56152-.0747,2.94514,2.94514,0,0,1,.56055.08837,4.59541,4.59541,0,0,0,1.10351-.03808,3.27166,3.27166,0,0,1-1.1167.10937,2.85043,2.85043,0,0,0-.54638-.06884,3.67115,3.67115,0,0,0-.54444.09082,4.48769,4.48769,0,0,1-1.1123-.09864c-.07373.0083-.13867.10791-.26612.10108-.11035-.02539-.17187-.11573-.24707-.11182-.07812.00293-.1499.09619-.25781.09473C18.69644,26.52156,18.64371,26.42634,18.547,26.41609Z"/><path class="bc343e58-ccef-4a6c-ae00-2929d4f4f7ef" d="M41.383,25.982c.12891.02294.24805.17724.3628.04394.04785-.03906.13281-.08838.20459-.04394.06445.03027.12011.08105.17334.082.05127-.001.104-.05274.16748-.08741a.42312.42312,0,0,1,.21679-.022c.13819.00733.27491.02539.41016.04444a5.37419,5.37419,0,0,0,1.625-.05225,7.0068,7.0068,0,0,0,1.62549.11572l.40967-.03906a.48584.48584,0,0,1,.40234.08838c.09668.10351.19336-.19141.35254-.07227.05713.03272.11963.08594.17822.04492.05566-.03369.103-.09765.17481-.10107-.07129.0083-.11133.07275-.16748.1123-.06641.05127-.14356-.00634-.19825-.03271-.13183-.1123-.17578.18994-.36767.09424-.10791-.10547-.22608-.07813-.37061-.0708l-.40527.04785a6.93447,6.93447,0,0,1-1.6333-.07861,5.45013,5.45013,0,0,1-1.63623.01513c-.28125-.02734-.52344-.13476-.78565.04639-.15625-.044-.23291-.19092-.36133-.06885-.05175.03711-.13574.07569-.19873.0293C41.50113,26.045,41.45328,25.98835,41.383,25.982Z"/><path class="ad5df741-d2ab-4185-953d-639d31c5d8ff" d="M23.95592,26.46755a.25248.25248,0,0,0-.09939.008c-.01274.00727.00867.01461.0404.01877a.79242.79242,0,0,0,.20753-.00462c.05373-.01051.04826-.02851-.01494-.03461a.39071.39071,0,0,0-.17318.01694"/><path class="bc343e58-ccef-4a6c-ae00-2929d4f4f7ef" d="M9.39712,25.94734c.0918.002.15918.09131.24024.09521.082-.00293.13086-.09424.23535-.1206.11865-.00586.17822.09131.24951.10058.06348.0127.124-.07226.22412-.10644.38819-.01758.71143.15967,1.0542.06152a3.26654,3.26654,0,0,1,.53418-.07568,2.66093,2.66093,0,0,1,.5332.08789,4.09969,4.09969,0,0,0,1.04737-.03809,2.92372,2.92372,0,0,1-1.061.10938,2.57645,2.57645,0,0,0-.51855-.06836,3.3865,3.3865,0,0,0-.51612.09179c-.37011.08887-.73486-.104-1.05468-.09863-.06934.01172-.12989.11231-.25537.09863-.10254-.02929-.16065-.11621-.2295-.10986-.07324.00488-.14013.09668-.24414.09424C9.53628,26.05036,9.48892,25.95808,9.39712,25.94734Z"/><path class="ad5df741-d2ab-4185-953d-639d31c5d8ff" d="M10.66352,26.064a.35349.35349,0,0,0-.106.00727c-.02222.00664-.01188.01335.0127.01716a.86594.86594,0,0,0,.20479-.00423c.0659-.00961.08555-.02606.03355-.03164a.60087.60087,0,0,0-.189.01549"/><path class="ad5df741-d2ab-4185-953d-639d31c5d8ff" d="M43.35759,26.18219c-.0384-.00416-.08254.00066-.08.00748a.17315.17315,0,0,0,.0775.01762.67.67,0,0,0,.19163-.00434c.03059-.00987-.01149-.02677-.08518-.0325s-.15312.00331-.1332.01591"/><path class="f6b292da-707f-4e40-91e0-e218283319dd" d="M36.83706,26.27546l-.5249.19043-.01269-.06836c.40283-.021.80175-.01465,1.20019-.02343l1.208-.042.01562.2085s-.0122.00342-.00146-.00049c.001-.01367.03027.01856.05322-.08984-.01318-.08008-.04492-.07227-.0415-.07764-.01172-.00586.01025.00293.022.00439a.47076.47076,0,0,0,.09961.00977l.22022.00488c.144.0083.30127.00147.45166.00342a5.16038,5.16038,0,0,1,.92529.04492,5.615,5.615,0,0,0,.89209.063l.91064.04736a11.97618,11.97618,0,0,1-1.83545.06641,5.48863,5.48863,0,0,0-.89013-.01758c-.15332.002-.29932.01221-.4585.00782l-.23535-.00586a.60382.60382,0,0,1-.12549-.01661.29165.29165,0,0,1-.08594-.03125c-.00439-.00976-.04492-.0083-.06-.09765.02392-.11865.06445-.09082.07324-.1084a.2177.2177,0,0,1,.05371-.01416l.01514.2085-1.20264.00781c-.40528-.02735-.81055-.04-1.21143-.07959l-.21777-.022.20508-.04639Z"/><path class="f6b292da-707f-4e40-91e0-e218283319dd" d="M8.82876,26.61433a3.48742,3.48742,0,0,0,.47608-.05664,1.05247,1.05247,0,0,1,.5376-.01416,7.29779,7.29779,0,0,0,1.04541-.10889,18.05416,18.05416,0,0,0,2.10449-.148,4.79915,4.79915,0,0,1,2.13672.04785,8.79381,8.79381,0,0,0,2.09961-.25293,16.08344,16.08344,0,0,1,2.13086-.14794l1.062-.01856a1.84978,1.84978,0,0,1,1.12256.12842c.187.21875.60644.15869.93359.14453.34375-.01123.69922-.041,1.05762-.08447a15.97438,15.97438,0,0,1,2.13574.03808l-.00049.022c-.71.03955-1.4248.00683-2.12109.09716-.34522.0586-.6958.105-1.06153.13477a1.33074,1.33074,0,0,1-1.09472-.18506,1.99563,1.99563,0,0,0-.96-.06836l-1.06788-.0039a19.35441,19.35441,0,0,0-2.12353.062,12.15468,12.15468,0,0,1-2.11963.21631,4.74968,4.74968,0,0,0-2.08594.02929,9.405,9.405,0,0,1-2.13623.1377,6.97746,6.97746,0,0,1-1.07422.06933c-.31005-.12451-.73828.08252-1.00293-.05957Z"/></g><g class="b8e18cdb-609d-4031-a529-cfe4019c8174"><path class="aee392f0-c106-4901-b469-c70a68d7b978" d="M21.95268,26.2314c-1.6696.00127-3.39343.00593-5.09515.11985-1.62889.109-3.17334.31377-4.74338.52332.17878-.02386,1.807.10671,2.04626.12q1.04828.05811,2.12837.1117,2.18328.10854,4.47275.20065,2.3749.09641,4.83377.17906c1.51817.05161,3.06808.06975,4.60668.12122a28.9509,28.9509,0,0,0,2.95963.01784c.27506-.02029.52394-.05061.78523-.07536.71221-.06749,1.51317-.09338,2.304-.11436q2.73747-.07263,5.53128-.07845,3.03324-.00657,6.187.06459,1.58761.03587,3.21728.09186c.90448.0311,1.99877.109,2.70035.05825,3.20654-.23193,5.77675-.54818,9.58109-.56824.70111-.0037,1.53788-.02052,1.31453-.14567-.73105-.05531-1.47532-.12159-2.1824-.17326-.64087-.04683-1.19967-.05017-1.77566-.06337q-2.27064-.052-4.49157-.09566c-.63174-.01244-1.406-.04455-1.95256-.03031-.64868.01689-1.20345.05686-1.90077.06569-1.84612.02338-3.75923.02286-5.70612-.00154-.67279-.00843-1.36841-.02065-2.04022-.07452-.57257-.04592-1.14808-.12226-1.69635-.1172a7.36814,7.36814,0,0,0-.89331.07372,55.18885,55.18885,0,0,1-6.57054.1877c-2.34243-.03295-4.69373-.10353-6.98492-.03673-.16182.00472-.33265.01-.48355-.00043a1.31294,1.31294,0,0,1-.42955-.09584,4.916,4.916,0,0,0-.801-.20492,7.50271,7.50271,0,0,0-1.35194-.05959Q23.73816,26.23,21.95268,26.2314Z"/><path class="f6b292da-707f-4e40-91e0-e218283319dd" d="M63.07632,26.73005c-2.09033.11377-4.18457.19776-6.27832.28174-2.09375.022-4.1875-.05908-6.28027-.03076l-12.562-.04736c-4.188-.01612-8.37012.166-12.56006.21923q-3.14136.05787-6.28418-.08007c-2.09229-.09082-4.18262-.19727-6.27588-.11719l-.001-.022a61.41151,61.41151,0,0,1,6.28223-.01856c2.0918.05615,4.18359.044,6.27637.02539,4.18408-.04785,8.37353-.22851,12.56152-.126,4.18848.04786,8.37451.07813,12.563.001,2.09473-.07471,4.188.03955,6.28076.04688l6.27686-.1543Z"/><path class="ad4ed9ff-4a93-4f91-ad25-6afb5321502d" d="M14.49917,26.628l4.9795.07422v.06055l-5.54493.01074.002-.08545,4.73535.19971-.00049.05029-4.8291-.00342.00049-.05224c2.16455.03711,4.32715.041,6.49414.11474l-.00244.09863-6.313.17139-.00195-.10644,8.91455.06445.00048.03223-1.915.01123.00048-.01075,1.91309-.03271.00049.03223-8.91406.00976-.00245-.10644,6.31641-.16358-.00244.09863c-2.15918-.08544-4.32617-.10888-6.48926-.16113l.00049-.05224,4.8291.00537-.001.05029-4.73779-.16455.00147-.08545,5.54589.01416v.06055l-4.98046-.124Z"/><path class="bef50b16-31f4-4fde-923d-40a7e17f416c" d="M62.4989,26.65774a31.79345,31.79345,0,0,0-3.52255-.09114q1.99016.17254,4.07934.33263c-1.18046.03456-2.98576-.14336-4.21027-.12379q3.03906.21642,6.31478.52165c-.52509.0237-1.29309-.0209-2.00636-.0594-2.2324-.12048-4.35429-.18884-6.31593-.20446l7.52274.44748c-3.203-.1439-6.38037-.285-9.05424-.24854l5.99819.26636c-2.06605-.05806-4.16582-.14538-6.25311-.25932a36.54534,36.54534,0,0,0,4.03359-.40066L53.847,26.70582c-.00137-.05379.39264-.05751.72709-.05316l3.35677.04367q-5.28511-.09767-10.14836-.0252c1.614.02675,3.26814.06342,4.98607.15887,1.75291.09739,3.63805.26324,5.3375.518-4.88181-.13082-9.58951-.21424-14.166-.25215"/><path class="bc343e58-ccef-4a6c-ae00-2929d4f4f7ef" d="M52.276,27.2779c-.10352-.00048-.18359-.09472-.27783-.09521-.09424.00439-.15674.10254-.27539.12109-.125,0-.19873-.09863-.28174-.10254-.08008-.00537-.1499.08838-.27051.11182a5.12505,5.12505,0,0,0-1.19092-.064,4.09891,4.09891,0,0,1-.60449.07421,3.604,3.604,0,0,1-.60254-.08789,5.222,5.222,0,0,0-1.189.04883,3.70952,3.70952,0,0,1,1.20019-.12012,3.60033,3.60033,0,0,0,.59082.06836,4.1581,4.1581,0,0,0,.58789-.09082,4.94632,4.94632,0,0,1,1.19971.09961c.08057-.00537.15478-.105.28418-.103.12012.02.189.11425.27344.11279.08545-.00049.16552-.0957.27929-.09522C52.111,27.17,52.17251,27.26863,52.276,27.2779Z"/><path class="bc343e58-ccef-4a6c-ae00-2929d4f4f7ef" d="M27.10367,26.77156c-.13868-.02393-.269-.17823-.39454-.04248a.20407.20407,0,0,1-.21923.041c-.06885-.03076-.13037-.08349-.18848-.08105-.05859.00488-.11523.05761-.186.09179a.54042.54042,0,0,1-.23046.01758c-.148-.00781-.29444-.02539-.43946-.04346a5.93584,5.93584,0,0,0-1.73974.09278,6.64192,6.64192,0,0,0-1.74366-.0376c-.14453.02246-.28955.0459-.437.05859a1.20573,1.20573,0,0,1-.22851.00635,1.30784,1.30784,0,0,1-.19532-.106c-.09423-.0415-.28515.16944-.4038.00245-.05225-.04786-.11329-.10352-.1836-.07129a.56843.56843,0,0,1-.20459.07324.57541.57541,0,0,0,.19971-.08545c.07568-.041.1543.02.20557.0625.124.14844.2207-.05957.40429-.03174.07813.02979.12989.08643.19092.09912a1.32224,1.32224,0,0,0,.209-.0122c.144-.01563.28759-.04151.43164-.0669a6.62175,6.62175,0,0,1,1.75244,0,5.976,5.976,0,0,1,1.75244-.05517c.29834.021.56836.14013.84473-.04737.16894.03467.25634.19483.3955.07031a.20078.20078,0,0,1,.21387-.03173C26.97525,26.70759,27.02847,26.76521,27.10367,26.77156Z"/><path class="ad5df741-d2ab-4185-953d-639d31c5d8ff" d="M46.42076,27.21978a.33355.33355,0,0,1,.11747.00931c.02287.00851.00889.0171-.02023.022a.85328.85328,0,0,1-.23032-.00541c-.07126-.01231-.08781-.03338-.02706-.04051a.55777.55777,0,0,1,.2085.01982"/><path class="bc343e58-ccef-4a6c-ae00-2929d4f4f7ef" d="M61.52505,26.73152c-.09814-.00147-.17236-.09326-.26074-.09571-.08887.00391-.145.09864-.25732.1211-.12207.00293-.18946-.09473-.26709-.10205-.07276-.00879-.13819.08056-.249.10937-.40771.01074-.76025-.16162-1.12841-.063a3.77609,3.77609,0,0,1-.57227.0752,3.14194,3.14194,0,0,1-.5708-.08692,4.55266,4.55266,0,0,0-1.124.04737,3.279,3.279,0,0,1,1.13623-.11865,3.08645,3.08645,0,0,0,.55761.06738,3.802,3.802,0,0,0,.55518-.0918,4.68727,4.68727,0,0,1,1.1333.09961c.07568-.00879.14307-.1084.27148-.10107.11182.0249.1753.11572.25293.11181.08008-.00293.15381-.09619.26319-.09472C61.37173,26.62556,61.42642,26.72126,61.52505,26.73152Z"/><path class="ad5df741-d2ab-4185-953d-639d31c5d8ff" d="M25.13007,26.88671a.18166.18166,0,0,1,.09428.0087c.00452.00794-.02676.016-.065.02052a.72809.72809,0,0,1-.21141-.00505c-.04344-.0115-.01589-.03118.05757-.03784s.1687.00385.16055.01851"/><path class="f6b292da-707f-4e40-91e0-e218283319dd" d="M32.27066,26.99519l.77832.1416.36377.06641-.374.02246-1.30957.0791-1.29882-.01465.01464-.21142a.19975.19975,0,0,1,.11524.04541c.02734.0039.05517.11621.02.147a.13632.13632,0,0,1-.04932.04638.26709.26709,0,0,1-.05029.02149.48667.48667,0,0,1-.13916.02l-.25049.00488c-.16846.0044-.32422-.00635-.48682-.0083a4.72526,4.72526,0,0,0-.938.02539,12.96793,12.96793,0,0,1-1.95118-.064l.96582-.04541a6.02619,6.02619,0,0,0,.94239-.061,4.28811,4.28811,0,0,1,.98388-.05713c.15967-.00146.32618.00537.4795-.00244l.23193-.0083a.35368.35368,0,0,0,.1001-.01025s.01074-.00391.00488-.001c0,0-.00586-.00049-.02588.02734-.02832.02246-.0039.12256.01514.12061.0459.0293.00879.00635.00146.00976l.01465-.21142c.875.03711,1.73486.05029,2.59912.05664l-.01025.08887Z"/><path class="f6b292da-707f-4e40-91e0-e218283319dd" d="M62.98062,27.36872a10.18179,10.18179,0,0,1-2.30176-.01855,15.894,15.894,0,0,1-2.3999-.13086,4.57031,4.57031,0,0,0-2.34961-.07422,11.55794,11.55794,0,0,1-2.38965-.21435,47.14093,47.14093,0,0,0-4.7373-.09961c-.04346.02978-.00733-.00977-.01172-.01319a.40127.40127,0,0,1,.01123.09717.195.195,0,0,1-.08545.14258.7439.7439,0,0,1-.34326.09375,4.10532,4.10532,0,0,1-.61231-.03516c-.40869-.03271-.80468-.08252-1.19531-.14355-.78516-.11524-1.58789-.06885-2.38721-.10987l-.00049-.02148a16.2309,16.2309,0,0,1,2.40235-.02588c.40185.0459.80078.07861,1.19043.09277.19433.00245.395.03956.58349.02344a.611.611,0,0,0,.23145-.0542c.002-.01757-.00732.0752-.0166-.02929a.19291.19291,0,0,1,.04834-.16162.287.287,0,0,1,.106-.06592,28.46332,28.46332,0,0,1,4.83106.1914,8.95469,8.95469,0,0,0,2.36426.251,4.65208,4.65208,0,0,1,2.39209-.00586c.77246.13428,1.57568.05127,2.38183.144a8.64519,8.64519,0,0,0,1.17432.11719c.1958-.09961.40771.00781.60352.01563l.29638.04345.14844.01123c.03369-.01367.14551.02491.06055.00147Z"/></g></g><polygon class="ad4ed9ff-4a93-4f91-ad25-6afb5321502d" points="47.734 23.006 12.011 23.006 14.875 21.368 44.87 21.368 47.734 23.006"/><g class="fb3615e2-7022-4225-8a36-0290a582a937"><g class="ac625991-fa24-4ea9-9c9e-70b409a2f639"><path class="aee392f0-c106-4901-b469-c70a68d7b978" d="M45.76233,21.14241c1.55612.0011,3.16544.00514,4.84048.10387,1.60061.09434,3.19329.27106,4.80834.45136-.18364-.0205-1.59345.09159-1.80488.103q-.92605.04981-1.884.0957c-1.28971.06191-2.61762.11869-3.97622.1715q-2.11521.08223-4.31524.15261c-1.35681.04391-2.77056.05933-4.14453.10308-.88158.02807-1.79978.07307-2.712.01515-.27157-.01724-.528-.043-.7911-.06405-.71753-.05741-1.48-.07945-2.22882-.09731q-2.59371-.06189-5.17957-.06686-2.80743-.00561-5.6491.055-1.42943.03054-2.87614.0782c-.80246.02646-1.73136.09266-2.43042.04954-3.20181-.19749-5.91749-.4679-9.46183-.4851-.65331-.00317-1.447-.01759-1.38051-.125.61582-.04756,1.23222-.10458,1.83093-.14908.54306-.04036,1.05823-.04324,1.57857-.05462q2.052-.04488,4.06894-.08256c.57385-.01074,1.25947-.03848,1.78258-.02618.62072.0146,1.17813.04911,1.83522.05673,1.73918.02018,3.51574.01973,5.29983-.00133.61668-.00728,1.25091-.01782,1.822-.06436.48713-.0397.94752-.10575,1.46262-.10137.33548.00285.61906.03566.90263.06378a60.35989,60.35989,0,0,0,6.28292.16209c2.14538-.02842,4.26669-.08934,6.45412-.03169.15441.00407.31765.00861.44877-.00037a.64792.64792,0,0,0,.31612-.08275,2.25883,2.25883,0,0,1,.5681-.17733,6.5532,6.5532,0,0,1,1.20779-.05167Q44.09811,21.14117,45.76233,21.14241Z"/><path class="f6b292da-707f-4e40-91e0-e218283319dd" d="M8.005,21.55281c1.95069.019,3.89844.06787,5.84619.11718,1.94922.01368,3.89844-.10888,5.84961-.03564,3.90088.07373,7.79932.05029,11.69971.00342,3.90039-.09375,7.80274.05713,11.69971.09961,1.94873.01416,3.897.03369,5.84521-.01368,1.94776-.05322,3.90332-.11376,5.85108.02344l-.00147.02149c-1.94922-.063-3.896.02881-5.84424.11279-1.95019.0835-3.90283.10254-5.85351.06836-3.90186-.04785-7.79688-.2002-11.69727-.19287-1.95019.00439-3.8999-.021-5.85009.00683-1.94971.02539-3.9004.04981-5.84913.03565-1.94873-.02637-3.89892.06347-5.84912.02-1.95019-.07129-3.90039-.14307-5.84765-.24463Z"/><path class="ad4ed9ff-4a93-4f91-ad25-6afb5321502d" d="M53.01578,21.49568l-4.54493.10986v-.06006l5.14405-.01416.002.08545-4.251.13965-.001-.05127,4.47119-.00391.00049.05127c-1.96729.04639-3.938.06543-5.90137.1416l-.00244-.09814,5.97363.13916-.00146.10645-8.21875-.01368.00048-.03271,1.78614.02978.00048.01075-1.78808-.00782.00049-.03271,8.21875-.06006-.00147.10645-5.97119-.14747-.00244-.09814c1.9707-.062,3.9375-.064,5.90625-.09473l.00049.05127-4.47119.00391-.00049-.05127,4.24853-.17383.00147.08545-5.14307-.01123v-.06006l4.544-.061Z"/><path class="bef50b16-31f4-4fde-923d-40a7e17f416c" d="M8.4719,21.51107a29.09754,29.09754,0,0,1,3.17131-.07862q-1.66.1488-3.41977.28637c1.132.02967,2.6106-.12324,3.76773-.1064-1.72124.124-3.48178.27291-5.27187.447.5115.02022,1.17147-.01785,1.788-.05072,1.93206-.103,3.82152-.16156,5.62063-.17495L7.66191,22.216c2.79855-.12261,5.58244-.24311,8.093-.21195l-5.25409.22712c1.84352-.04944,3.6888-.12385,5.4971-.2211-1.3314-.14281-3.36513-.13066-4.16063-.34333l4.71735-.1142a2.56009,2.56009,0,0,0-.73077-.0458l-3.06944.03762q4.80237-.08417,9.39343-.02171c-1.47107.023-2.96857.05462-4.46336.13673a41.71664,41.71664,0,0,0-4.39363.44353c4.37315-.11168,8.64146-.183,12.838-.21546"/><path class="bc343e58-ccef-4a6c-ae00-2929d4f4f7ef" d="M18.547,21.942c.09619.00146.16845.09326.25488.0957.0874-.00391.14111-.09815.25146-.12109.1211-.00293.186.09521.26172.10205.07031.0083.13379-.08057.24317-.10987.40136-.01025.74658.16114,1.10791.063a3.57091,3.57091,0,0,1,.56152-.07471,2.94594,2.94594,0,0,1,.56055.08838,4.59541,4.59541,0,0,0,1.10351-.03808,3.27166,3.27166,0,0,1-1.1167.10937,2.85125,2.85125,0,0,0-.54638-.06885,3.67251,3.67251,0,0,0-.54444.09083,4.48769,4.48769,0,0,1-1.1123-.09864c-.07373.0083-.13867.10791-.26612.10108-.11035-.02539-.17187-.11573-.24707-.11182-.07812.00244-.1499.09619-.25781.09473C18.69644,22.04744,18.64371,21.95222,18.547,21.942Z"/><path class="bc343e58-ccef-4a6c-ae00-2929d4f4f7ef" d="M41.383,21.50788c.12891.023.24805.17725.3628.04395.04785-.03906.13281-.08838.20459-.04395.06445.03028.12011.08106.17334.082.05127-.001.104-.05274.16748-.08741a.42312.42312,0,0,1,.21679-.022c.13819.00732.27491.02539.41016.04443a5.37386,5.37386,0,0,0,1.625-.05224,7.0068,7.0068,0,0,0,1.62549.11572l.40967-.03906a.48584.48584,0,0,1,.40234.08838c.09668.10351.19336-.1919.35254-.07227.05713.03272.11963.08594.17822.04492.05566-.03369.103-.09765.17481-.10107-.07129.0083-.11133.07275-.16748.1123-.06641.05127-.14356-.00634-.19825-.03271-.13183-.11231-.17578.18994-.36767.09424-.10791-.10547-.22608-.07813-.37061-.0708l-.40527.04785a6.93394,6.93394,0,0,1-1.6333-.07862,5.4498,5.4498,0,0,1-1.63623.01514c-.28125-.02734-.52344-.13476-.78565.04639-.15625-.04395-.23291-.19092-.36133-.06885-.05175.03711-.13574.07568-.19873.0293C41.50113,21.57087,41.45328,21.51423,41.383,21.50788Z"/><path class="ad5df741-d2ab-4185-953d-639d31c5d8ff" d="M23.95592,21.99341a.25264.25264,0,0,0-.09939.008c-.01274.00727.00867.01461.0404.01877a.79286.79286,0,0,0,.20753-.00462c.05373-.01051.04826-.02851-.01494-.03461a.39056.39056,0,0,0-.17318.01694"/><path class="bc343e58-ccef-4a6c-ae00-2929d4f4f7ef" d="M9.39712,21.47322c.0918.00146.15918.0913.24024.09521.082-.00293.13086-.09424.23535-.1206.11865-.00586.17822.0913.24951.10058.06348.0127.124-.07226.22412-.10644.38819-.01758.71143.15966,1.0542.06152a3.26654,3.26654,0,0,1,.53418-.07568,2.66022,2.66022,0,0,1,.5332.08789,4.10014,4.10014,0,0,0,1.04737-.03809,2.92372,2.92372,0,0,1-1.061.10938,2.57574,2.57574,0,0,0-.51855-.06836,3.3865,3.3865,0,0,0-.51612.09179c-.37011.08887-.73486-.104-1.05468-.09863-.06934.01172-.12989.11231-.25537.09863-.10254-.02929-.16065-.11621-.2295-.10986-.07324.00488-.14013.09668-.24414.09424C9.53628,21.57624,9.48892,21.484,9.39712,21.47322Z"/><path class="ad5df741-d2ab-4185-953d-639d31c5d8ff" d="M10.66352,21.58982a.35382.35382,0,0,0-.106.00728c-.02222.00664-.01188.01335.0127.01715A.86535.86535,0,0,0,10.775,21.61c.0659-.00961.08555-.02607.03355-.03164a.60028.60028,0,0,0-.189.01549"/><path class="ad5df741-d2ab-4185-953d-639d31c5d8ff" d="M43.35759,21.70806c-.0384-.00416-.08254.00066-.08.00747a.173.173,0,0,0,.0775.01763.67.67,0,0,0,.19163-.00434c.03059-.00987-.01149-.02677-.08518-.0325s-.15312.00331-.1332.01591"/><path class="f6b292da-707f-4e40-91e0-e218283319dd" d="M36.83706,21.80134l-.5249.19043-.01269-.06836c.40283-.021.80175-.01465,1.20019-.02344l1.208-.042.01562.2085s-.0122.00342-.00146-.00049c.001-.01367.03027.01855.05322-.08984-.01318-.08008-.04492-.07227-.0415-.07764-.01172-.00586.01025.00293.022.00439a.47142.47142,0,0,0,.09961.00977l.22022.00488c.144.0083.30127.00147.45166.00342a5.16038,5.16038,0,0,1,.92529.04492,5.615,5.615,0,0,0,.89209.063l.91064.04736a11.97618,11.97618,0,0,1-1.83545.06641,5.48863,5.48863,0,0,0-.89013-.01758c-.15332.002-.29932.01221-.4585.00781L38.8356,22.127a.60377.60377,0,0,1-.12549-.0166.29165.29165,0,0,1-.08594-.03125c-.00439-.00976-.04492-.0083-.06-.09765.02392-.11866.06445-.09082.07324-.1084a.2177.2177,0,0,1,.05371-.01416l.01514.20849-1.20264.00782c-.40528-.02735-.81055-.04-1.21143-.07959l-.21777-.022.20508-.04638Z"/><path class="f6b292da-707f-4e40-91e0-e218283319dd" d="M8.82876,22.14021a3.48742,3.48742,0,0,0,.47608-.05664,1.058,1.058,0,0,1,.5376-.01465,7.22563,7.22563,0,0,0,1.04541-.1084,18.05416,18.05416,0,0,0,2.10449-.14795,4.799,4.799,0,0,1,2.13672.04785,8.79381,8.79381,0,0,0,2.09961-.25293,16.08514,16.08514,0,0,1,2.13086-.14795l1.062-.01855a1.84978,1.84978,0,0,1,1.12256.12842c.187.21875.60644.15869.93359.14453.34375-.01123.69922-.041,1.05762-.08447a15.97438,15.97438,0,0,1,2.13574.03808l-.00049.022c-.71.03956-1.4248.00684-2.12109.09717-.34522.0586-.6958.105-1.06153.13477a1.33074,1.33074,0,0,1-1.09472-.18506,1.99551,1.99551,0,0,0-.96-.06836l-1.06788-.00391a19.3569,19.3569,0,0,0-2.12353.062,12.15371,12.15371,0,0,1-2.11963.2163,4.74982,4.74982,0,0,0-2.08594.0293,9.405,9.405,0,0,1-2.13623.1377,6.97746,6.97746,0,0,1-1.07422.06933c-.31005-.12451-.73828.082-1.00293-.05957Z"/></g><g class="f38e15a9-221f-4be5-90c0-43cb15821819"><path class="aee392f0-c106-4901-b469-c70a68d7b978" d="M21.95268,21.75727c-1.6696.00127-3.39343.00593-5.09515.11985-1.62889.109-3.17334.31377-4.74338.52332.17878-.02386,1.807.10671,2.04626.12q1.04828.05811,2.12837.11169,2.18328.10855,4.47275.20066,2.3749.09641,4.83377.17906c1.51817.05161,3.06808.06975,4.60668.12122a28.9509,28.9509,0,0,0,2.95963.01784c.27506-.0203.52394-.05061.78523-.07537.71221-.06748,1.51317-.09337,2.304-.11435q2.73747-.07263,5.53128-.07845,3.03324-.00657,6.187.06458,1.58761.03588,3.21728.09186c.90448.03111,1.99877.109,2.70035.05826,3.20654-.23193,5.77675-.54818,9.58109-.56824.70111-.0037,1.53788-.02052,1.31453-.14567-.73105-.05532-1.47532-.12159-2.1824-.17326-.64087-.04683-1.19967-.05017-1.77566-.06337q-2.27064-.052-4.49157-.09566c-.63174-.01244-1.406-.04455-1.95256-.03031-.64868.01689-1.20345.05686-1.90077.06569-1.84612.02338-3.75923.02286-5.70612-.00154-.67279-.00843-1.36841-.02065-2.04022-.07452-.57257-.04592-1.14808-.12226-1.69635-.1172a7.37034,7.37034,0,0,0-.89331.07371,55.18866,55.18866,0,0,1-6.57054.18771c-2.34243-.03295-4.69373-.10353-6.98492-.03673-.16182.00472-.33265.01-.48355-.00043a1.31294,1.31294,0,0,1-.42955-.09584,4.915,4.915,0,0,0-.801-.20492,7.50271,7.50271,0,0,0-1.35194-.05959Q23.73816,21.75585,21.95268,21.75727Z"/><path class="f6b292da-707f-4e40-91e0-e218283319dd" d="M63.07632,22.25593c-2.09033.11377-4.18457.19776-6.27832.28174-2.09375.022-4.1875-.05908-6.28027-.03076l-12.562-.04737c-4.188-.01611-8.37012.166-12.56006.21924q-3.14136.05787-6.28418-.08008c-2.09229-.09082-4.18262-.19726-6.27588-.11718l-.001-.022a61.41437,61.41437,0,0,1,6.28223-.01855c2.0918.05615,4.18359.044,6.27637.02539,4.18408-.04785,8.37353-.22852,12.56152-.126,4.18848.04786,8.37451.07813,12.563.001,2.09473-.07471,4.188.03955,6.28076.04639l6.27686-.15381Z"/><path class="ad4ed9ff-4a93-4f91-ad25-6afb5321502d" d="M14.49917,22.15388l4.9795.07422v.06055l-5.54493.01074.002-.08545,4.73535.19971-.00049.05029-4.8291-.00342.00049-.05225c2.16455.03711,4.32715.041,6.49414.11475l-.00244.09863-6.313.17139-.00195-.10644,8.91455.06445.00048.03222-1.915.01124.00048-.01075,1.91309-.03271.00049.03222-8.91406.00977-.00245-.10644,6.31641-.16358-.00244.09863c-2.15918-.08545-4.32617-.10888-6.48926-.16113l.00049-.05225,4.8291.00538-.001.05029-4.73779-.16455.00147-.08545,5.54589.01416v.06055l-4.98046-.124Z"/><path class="bef50b16-31f4-4fde-923d-40a7e17f416c" d="M62.4989,22.18361a31.79345,31.79345,0,0,0-3.52255-.09114q1.99016.17253,4.07934.33263c-1.18046.03456-2.98576-.14336-4.21027-.12379q3.03906.21642,6.31478.52165c-.52509.0237-1.29309-.02091-2.00636-.0594-2.2324-.12048-4.35429-.18884-6.31593-.20447l7.52274.44749c-3.203-.1439-6.38037-.285-9.05424-.24854l5.99819.26636c-2.06605-.05807-4.16582-.14538-6.25311-.25932a36.54534,36.54534,0,0,0,4.03359-.40066L53.847,22.23169c-.00137-.0538.39264-.05751.72709-.05316l3.35677.04367q-5.28511-.09766-10.14836-.0252c1.614.02675,3.26814.06342,4.98607.15886,1.75291.0974,3.63805.26325,5.3375.518-4.88181-.13081-9.58951-.21423-14.166-.25214"/><path class="bc343e58-ccef-4a6c-ae00-2929d4f4f7ef" d="M52.276,22.80378c-.10352-.00049-.18359-.09472-.27783-.09521-.09424.00439-.15674.10254-.27539.12109-.125,0-.19873-.09863-.28174-.10254-.08008-.00537-.1499.08838-.27051.11182a5.12562,5.12562,0,0,0-1.19092-.064,4.0989,4.0989,0,0,1-.60449.07422,3.604,3.604,0,0,1-.60254-.08789,5.222,5.222,0,0,0-1.189.04883A3.70952,3.70952,0,0,1,48.78384,22.69a3.60033,3.60033,0,0,0,.59082.06836,4.1581,4.1581,0,0,0,.58789-.09082,4.94632,4.94632,0,0,1,1.19971.09961c.08057-.00537.15478-.105.28418-.103.12012.02.189.11426.27344.1128.08545-.00049.16552-.09571.27929-.09522C52.111,22.69587,52.17251,22.79451,52.276,22.80378Z"/><path class="bc343e58-ccef-4a6c-ae00-2929d4f4f7ef" d="M27.10367,22.29744c-.13868-.02393-.269-.17823-.39454-.04249a.20405.20405,0,0,1-.21923.041c-.06885-.03076-.13037-.0835-.18848-.08105-.05859.00488-.11523.05761-.186.09179a.54058.54058,0,0,1-.23046.01758c-.148-.00781-.29444-.02539-.43946-.04346a5.93584,5.93584,0,0,0-1.73974.09278,6.64192,6.64192,0,0,0-1.74366-.0376c-.14453.02246-.28955.0459-.437.05859a1.20573,1.20573,0,0,1-.22851.00635,1.30784,1.30784,0,0,1-.19532-.106c-.09423-.0415-.28515.16944-.4038.00245-.05225-.04786-.11329-.10352-.1836-.07129a.56843.56843,0,0,1-.20459.07324.57541.57541,0,0,0,.19971-.08545c.07568-.041.1543.02.20557.0625.124.14844.2207-.05957.40429-.03174.07813.02979.12989.08643.19092.09912a1.32232,1.32232,0,0,0,.209-.01221c.144-.01562.28759-.0415.43164-.06689a6.62175,6.62175,0,0,1,1.75244,0,5.99285,5.99285,0,0,1,1.75244-.05566c.29834.02148.56836.14062.84473-.04688.16894.03467.25634.19483.3955.07031a.20078.20078,0,0,1,.21387-.03173C26.97525,22.23347,27.02847,22.29109,27.10367,22.29744Z"/><path class="ad5df741-d2ab-4185-953d-639d31c5d8ff" d="M46.42076,22.74565a.33355.33355,0,0,1,.11747.00931c.02287.00851.00889.0171-.02023.022a.85247.85247,0,0,1-.23032-.00541c-.07126-.0123-.08781-.03337-.02706-.0405a.55777.55777,0,0,1,.2085.01982"/><path class="bc343e58-ccef-4a6c-ae00-2929d4f4f7ef" d="M61.52505,22.2574c-.09814-.00147-.17236-.09327-.26074-.09571-.08887.00391-.145.09864-.25732.1211-.12207.00293-.18946-.09473-.26709-.102-.07276-.00879-.13819.08056-.249.10937-.40771.01074-.76025-.16162-1.12841-.063a3.77736,3.77736,0,0,1-.57227.0752,3.14194,3.14194,0,0,1-.5708-.08692,4.55266,4.55266,0,0,0-1.124.04737,3.279,3.279,0,0,1,1.13623-.11866,3.08559,3.08559,0,0,0,.55761.06739,3.802,3.802,0,0,0,.55518-.0918,4.68727,4.68727,0,0,1,1.1333.09961c.07568-.00879.14307-.1084.27148-.10107.11182.0249.1753.11572.25293.11181.08008-.00293.15381-.09668.26319-.09472C61.37173,22.15144,61.42642,22.24714,61.52505,22.2574Z"/><path class="ad5df741-d2ab-4185-953d-639d31c5d8ff" d="M25.13007,22.41257a.18188.18188,0,0,1,.09428.0087c.00452.008-.02676.016-.065.02053a.7277.7277,0,0,1-.21141-.00506c-.04344-.01149-.01589-.03117.05757-.03783s.1687.00385.16055.01851"/><path class="f6b292da-707f-4e40-91e0-e218283319dd" d="M32.27066,22.52107l.77832.1416.36377.06641-.374.02246-1.30957.0791L30.43033,22.816l.01464-.21143a.19991.19991,0,0,1,.11524.04541c.02734.00391.05517.11622.02.147a.13642.13642,0,0,1-.04932.04638.26709.26709,0,0,1-.05029.02149.48667.48667,0,0,1-.13916.02l-.25049.00439c-.16846.00488-.32422-.00586-.48682-.00781a4.76268,4.76268,0,0,0-.938.0249,12.90435,12.90435,0,0,1-1.95118-.06347l.96582-.04541a6.08626,6.08626,0,0,0,.94239-.061,4.31656,4.31656,0,0,1,.98388-.05762c.15967-.001.32618.00586.4795-.002l.23193-.0083a.35327.35327,0,0,0,.1001-.01026s.01074-.0039.00488-.001c0,0-.00586-.00049-.02588.02734-.02832.02246-.0039.12256.01514.12061.0459.02929.00879.00635.00146.00976l.01465-.21142c.875.03711,1.73486.05029,2.59912.05664l-.01025.08887Z"/><path class="f6b292da-707f-4e40-91e0-e218283319dd" d="M62.98062,22.8946a10.18179,10.18179,0,0,1-2.30176-.01855,15.894,15.894,0,0,1-2.3999-.13086,4.57031,4.57031,0,0,0-2.34961-.07422,11.55726,11.55726,0,0,1-2.38965-.21436,47.14385,47.14385,0,0,0-4.7373-.0996c-.04346.02978-.00733-.00977-.01172-.01319a.40127.40127,0,0,1,.01123.09717.195.195,0,0,1-.08545.14258.7439.7439,0,0,1-.34326.09375,4.10532,4.10532,0,0,1-.61231-.03516c-.40869-.03271-.80468-.08252-1.19531-.14355-.78516-.11524-1.58789-.06885-2.38721-.10987l-.00049-.02148a16.2309,16.2309,0,0,1,2.40235-.02588c.40185.0459.80078.07861,1.19043.09277.19433.00245.395.03955.58349.02344a.611.611,0,0,0,.23145-.0542c.002-.01758-.00732.0752-.0166-.02929a.19294.19294,0,0,1,.04834-.16163.28712.28712,0,0,1,.106-.06591,28.46332,28.46332,0,0,1,4.83106.1914,8.95469,8.95469,0,0,0,2.36426.251,4.65208,4.65208,0,0,1,2.39209-.00586c.77246.13428,1.57568.05127,2.38183.144a8.64519,8.64519,0,0,0,1.17432.11719c.1958-.09961.40771.00781.60352.01563l.29638.04345.14844.01123c.03369-.01367.14551.0249.06055.00147Z"/></g></g><polygon class="ad4ed9ff-4a93-4f91-ad25-6afb5321502d" points="47.734 18.699 12.011 18.699 14.875 17.061 44.87 17.061 47.734 18.699"/><g class="b310e0bd-86eb-42c1-91a2-4255c9b22f4b"><g class="aed245dc-ecb2-4051-aed9-1c68e3af8040"><path class="aee392f0-c106-4901-b469-c70a68d7b978" d="M45.76233,16.83531c1.55612.0011,3.16544.00515,4.84048.10388,1.60061.09434,3.19329.271,4.80834.45135-.18364-.0205-1.59345.09159-1.80488.103q-.92605.04982-1.884.09569c-1.28971.06191-2.61762.11869-3.97622.17151q-2.11521.08223-4.31524.15261c-1.35681.0439-2.77056.05933-4.14453.10307-.88158.02807-1.79978.07307-2.712.01516-.27157-.01724-.528-.043-.7911-.064-.71753-.05741-1.48-.07945-2.22882-.09732q-2.59371-.06189-5.17957-.06686-2.80743-.00561-5.6491.05505-1.42943.03055-2.87614.0782c-.80246.02646-1.73136.09266-2.43042.04955-3.20181-.19749-5.91749-.4679-9.46183-.4851-.65331-.00317-1.447-.0176-1.38051-.125.61582-.04755,1.23222-.10458,1.83093-.14907.54306-.04036,1.05823-.04325,1.57857-.05463q2.052-.04488,4.06894-.08255c.57385-.01074,1.25947-.03849,1.78258-.02619.62072.0146,1.17813.04912,1.83522.05674,1.73918.02017,3.51574.01972,5.29983-.00133.61668-.00728,1.25091-.01783,1.822-.06437.48713-.03969.94752-.10575,1.46262-.10137.33548.00285.61906.03567.90263.06378a60.35713,60.35713,0,0,0,6.28292.16209c2.14538-.02842,4.26669-.08934,6.45412-.03168.15441.00407.31765.00861.44877-.00037a.64815.64815,0,0,0,.31612-.08275,2.258,2.258,0,0,1,.5681-.17733,6.5523,6.5523,0,0,1,1.20779-.05167Q44.09811,16.83407,45.76233,16.83531Z"/><path class="f6b292da-707f-4e40-91e0-e218283319dd" d="M8.005,17.24568c1.95069.019,3.89844.06787,5.84619.11718,1.94922.01368,3.89844-.10888,5.84961-.03564,3.90088.07373,7.79932.05029,11.69971.00342,3.90039-.09375,7.80274.05713,11.69971.09961,1.94873.01416,3.897.03369,5.84521-.01367,1.94776-.05323,3.90332-.11377,5.85108.02343l-.00147.02149c-1.94922-.063-3.896.02881-5.84424.11279-1.95019.0835-3.90283.10254-5.85351.06836-3.90186-.04785-7.79688-.2002-11.69727-.19238-1.95019.0039-3.8999-.02149-5.85009.00634-1.94971.0254-3.9004.04981-5.84913.03565-1.94873-.02637-3.89892.06348-5.84912.02-1.95019-.07129-3.90039-.14307-5.84765-.24463Z"/><path class="ad4ed9ff-4a93-4f91-ad25-6afb5321502d" d="M53.01578,17.18855l-4.54493.10986v-.06006l5.14405-.01416.002.08545-4.251.13965-.001-.05127,4.47119-.00391.00049.05127c-1.96729.04639-3.938.06543-5.90137.14161l-.00244-.09815,5.97363.13916-.00146.10645-8.21875-.01368.00048-.03271,1.78614.02979.00048.01123-1.78808-.00831.00049-.03271,8.21875-.06006-.00147.10645L47.93179,17.587l-.00244-.09815c1.9707-.062,3.9375-.064,5.90625-.09473l.00049.05127-4.47119.00391-.00049-.05127,4.24853-.17383.00147.08545-5.14307-.01123v-.06006l4.544-.061Z"/><path class="bef50b16-31f4-4fde-923d-40a7e17f416c" d="M8.4719,17.204a29.09732,29.09732,0,0,1,3.17131-.07861q-1.66.14879-3.41977.28636c1.132.02967,2.6106-.12324,3.76773-.1064-1.72124.124-3.48178.27292-5.27187.447.5115.02022,1.17147-.01785,1.788-.05073,1.93206-.103,3.82152-.16156,5.62063-.17495l-6.46606.38219c2.79855-.12262,5.58244-.24312,8.093-.212l-5.25409.22712c1.84352-.04943,3.6888-.12385,5.4971-.2211-1.3314-.14281-3.36513-.13066-4.16063-.34333l4.71735-.1142a2.56009,2.56009,0,0,0-.73077-.0458l-3.06944.03763q4.80237-.08418,9.39343-.02171c-1.47107.02305-2.96857.05462-4.46336.13673a41.714,41.714,0,0,0-4.39363.44353c4.37315-.11168,8.64146-.183,12.838-.21546"/><path class="bc343e58-ccef-4a6c-ae00-2929d4f4f7ef" d="M18.547,17.63484c.09619.00146.16845.09326.25488.0957.0874-.00391.14111-.09814.25146-.12109.1211-.00244.186.09521.26172.10205.07031.0083.13379-.08008.24317-.10987.40136-.01025.74658.16114,1.10791.063a3.56974,3.56974,0,0,1,.56152-.0747,2.94514,2.94514,0,0,1,.56055.08837,4.59541,4.59541,0,0,0,1.10351-.03808,3.27166,3.27166,0,0,1-1.1167.10937,2.85043,2.85043,0,0,0-.54638-.06884,3.67115,3.67115,0,0,0-.54444.09082,4.48769,4.48769,0,0,1-1.1123-.09864c-.07373.0083-.13867.10791-.26612.10108-.11035-.02539-.17187-.11573-.24707-.11182-.07812.00293-.1499.09619-.25781.09473C18.69644,17.74079,18.64371,17.64558,18.547,17.63484Z"/><path class="bc343e58-ccef-4a6c-ae00-2929d4f4f7ef" d="M41.383,17.20076c.12891.02294.24805.17724.3628.04394.04785-.03906.13281-.08838.20459-.04394.06445.03027.12011.08154.17334.082.05127-.001.104-.05274.16748-.08741a.42312.42312,0,0,1,.21679-.022c.13819.00733.27491.02539.41016.04492a5.39,5.39,0,0,0,1.625-.05273,6.98006,6.98006,0,0,0,1.62549.11572l.40967-.03906a.48584.48584,0,0,1,.40234.08838c.09668.10351.19336-.19141.35254-.07227.05713.03272.11963.08594.17822.04492.05566-.03369.103-.09765.17481-.10107-.07129.0083-.11133.07275-.16748.1123-.06641.05127-.14356-.00634-.19825-.03271-.13183-.1123-.17578.18994-.36767.09424-.10791-.10547-.22608-.07813-.37061-.0708l-.40527.04834a6.9606,6.9606,0,0,1-1.6333-.0791,5.45013,5.45013,0,0,1-1.63623.01513c-.28125-.02734-.52344-.13476-.78565.04639-.15625-.044-.23291-.19092-.36133-.06885-.05175.03711-.13574.07569-.19873.0293C41.50113,17.26374,41.45328,17.20759,41.383,17.20076Z"/><path class="ad5df741-d2ab-4185-953d-639d31c5d8ff" d="M23.95592,17.68632a.25226.25226,0,0,0-.09939.008c-.01274.00726.00867.0146.0404.01877a.79329.79329,0,0,0,.20753-.00462c.05373-.01052.04826-.02852-.01494-.03462a.39086.39086,0,0,0-.17318.01694"/><path class="bc343e58-ccef-4a6c-ae00-2929d4f4f7ef" d="M9.39712,17.16609c.0918.002.15918.09131.24024.09521.082-.00293.13086-.09424.23535-.1206.11865-.00586.17822.09131.24951.10058.06348.0127.124-.07226.22412-.10644.38819-.01758.71143.15967,1.0542.06152a3.3205,3.3205,0,0,1,.53418-.07568,2.66093,2.66093,0,0,1,.5332.08789,4.09969,4.09969,0,0,0,1.04737-.03809,2.92372,2.92372,0,0,1-1.061.10938,2.57645,2.57645,0,0,0-.51855-.06836,3.3865,3.3865,0,0,0-.51612.09179c-.37011.08887-.73486-.104-1.05468-.09863-.06934.01172-.12989.11231-.25537.09863-.10254-.02929-.16065-.11621-.2295-.10986-.07324.00488-.14013.09668-.24414.09424C9.53628,17.26911,9.48892,17.17683,9.39712,17.16609Z"/><path class="ad5df741-d2ab-4185-953d-639d31c5d8ff" d="M10.66352,17.28273a.35349.35349,0,0,0-.106.00727c-.02222.00665-.01188.01335.0127.01716a.86588.86588,0,0,0,.20479-.00422c.0659-.00961.08555-.02607.03355-.03164a.60061.60061,0,0,0-.189.01548"/><path class="ad5df741-d2ab-4185-953d-639d31c5d8ff" d="M43.35759,17.401c-.0384-.00417-.08254.00066-.08.00747a.17315.17315,0,0,0,.0775.01762.66964.66964,0,0,0,.19163-.00434c.03059-.00987-.01149-.02677-.08518-.03249s-.15312.00331-.1332.0159"/><path class="f6b292da-707f-4e40-91e0-e218283319dd" d="M36.83706,17.49421l-.5249.19043-.01269-.06836c.40283-.021.80175-.01465,1.20019-.02343l1.208-.042.01562.2085s-.0122.00342-.00146-.00049c.001-.01318.03027.01856.05322-.08984-.01318-.08008-.04492-.07227-.0415-.07764-.01172-.00586.01025.00293.022.00439a.47076.47076,0,0,0,.09961.00977l.22022.00488c.144.0083.30127.00147.45166.00342a5.16038,5.16038,0,0,1,.92529.04492,5.615,5.615,0,0,0,.89209.063l.91064.04736a11.97618,11.97618,0,0,1-1.83545.06641,5.48863,5.48863,0,0,0-.89013-.01758c-.15332.002-.29932.01221-.4585.00782l-.23535-.00586a.60382.60382,0,0,1-.12549-.01661.27781.27781,0,0,1-.08594-.03125c-.00439-.00976-.04492-.0083-.06-.09765.02392-.11865.06445-.09082.07324-.10791a.20335.20335,0,0,1,.05371-.01465l.01514.2085-1.20264.00781c-.40528-.02735-.81055-.04-1.21143-.07959l-.21777-.022.20508-.04639Z"/><path class="f6b292da-707f-4e40-91e0-e218283319dd" d="M8.82876,17.83308a3.48742,3.48742,0,0,0,.47608-.05664,1.05247,1.05247,0,0,1,.5376-.01416,7.29779,7.29779,0,0,0,1.04541-.10889,18.05416,18.05416,0,0,0,2.10449-.148,4.79915,4.79915,0,0,1,2.13672.04785,8.79381,8.79381,0,0,0,2.09961-.25293,16.08344,16.08344,0,0,1,2.13086-.14794l1.062-.01856a1.84978,1.84978,0,0,1,1.12256.12842c.187.21875.60644.15869.93359.14453.34375-.01123.69922-.041,1.05762-.08447a15.97438,15.97438,0,0,1,2.13574.03808l-.00049.022c-.71.03955-1.4248.00683-2.12109.09716-.34522.0586-.6958.105-1.06153.13477a1.33074,1.33074,0,0,1-1.09472-.18506,1.99563,1.99563,0,0,0-.96-.06836l-1.06788-.0039a19.35441,19.35441,0,0,0-2.12353.062,12.15468,12.15468,0,0,1-2.11963.21631,4.74968,4.74968,0,0,0-2.08594.02929,9.405,9.405,0,0,1-2.13623.1377,6.97746,6.97746,0,0,1-1.07422.06933c-.31005-.12451-.73828.08252-1.00293-.05957Z"/></g><g class="b71e45bc-eb1d-4359-b1c5-81a313230c7c"><path class="aee392f0-c106-4901-b469-c70a68d7b978" d="M21.95268,17.45018c-1.6696.00127-3.39343.00593-5.09515.11984-1.62889.109-3.17334.31378-4.74338.52332.17878-.02386,1.807.10671,2.04626.12q1.04828.05811,2.12837.1117,2.18328.10854,4.47275.20065,2.3749.09641,4.83377.17907c1.51817.0516,3.06808.06974,4.60668.12122a28.95376,28.95376,0,0,0,2.95963.01784c.27506-.0203.52394-.05061.78523-.07537.71221-.06749,1.51317-.09338,2.304-.11436q2.73747-.07263,5.53128-.07844,3.03324-.00659,6.187.06458,1.58761.03587,3.21728.09186c.90448.0311,1.99877.109,2.70035.05826,3.20654-.23193,5.77675-.54819,9.58109-.56825.70111-.0037,1.53788-.02052,1.31453-.14566-.73105-.05532-1.47532-.1216-2.1824-.17327-.64087-.04683-1.19967-.05017-1.77566-.06337q-2.27064-.052-4.49157-.09566c-.63174-.01243-1.406-.04454-1.95256-.03031-.64868.0169-1.20345.05687-1.90077.0657-1.84612.02337-3.75923.02285-5.70612-.00155-.67279-.00843-1.36841-.02064-2.04022-.07452-.57257-.04592-1.14808-.12226-1.69635-.1172a7.36814,7.36814,0,0,0-.89331.07372,55.18866,55.18866,0,0,1-6.57054.18771c-2.34243-.03295-4.69373-.10353-6.98492-.03674-.16182.00472-.33265.01-.48355-.00042a1.31288,1.31288,0,0,1-.42955-.09585,4.917,4.917,0,0,0-.801-.20492,7.5019,7.5019,0,0,0-1.35194-.05958Q23.73816,17.44874,21.95268,17.45018Z"/><path class="f6b292da-707f-4e40-91e0-e218283319dd" d="M63.07632,17.9488c-2.09033.11377-4.18457.19824-6.27832.28174-2.09375.022-4.1875-.05908-6.28027-.03076l-12.562-.04736c-4.188-.01612-8.37012.166-12.56006.21923q-3.14136.05787-6.28418-.08007c-2.09229-.09082-4.18262-.19727-6.27588-.11719l-.001-.022a61.41151,61.41151,0,0,1,6.28223-.01856c2.0918.05615,4.18359.044,6.27637.02539,4.18408-.04785,8.37353-.228,12.56152-.126,4.18848.04786,8.37451.07813,12.563.00147,2.09473-.0752,4.188.03906,6.28076.04639l6.27686-.1543Z"/><path class="ad4ed9ff-4a93-4f91-ad25-6afb5321502d" d="M14.49917,17.84675l4.9795.07422v.06055l-5.54493.01074.002-.08545,4.73535.19971-.00049.05029-4.8291-.00342.00049-.05224c2.16455.03711,4.32715.041,6.49414.11474l-.00244.09863-6.313.17139-.00195-.10644,8.91455.06445.00048.03223-1.915.01123.00048-.01075,1.91309-.03271.00049.03223-8.91406.00976-.00245-.10644,6.31641-.16358-.00244.09863c-2.15918-.08544-4.32617-.10888-6.48926-.16113l.00049-.05224,4.8291.00537-.001.05029-4.73779-.16455.00147-.08545,5.54589.01416v.06055l-4.98046-.124Z"/><path class="bef50b16-31f4-4fde-923d-40a7e17f416c" d="M62.4989,17.87652a31.79132,31.79132,0,0,0-3.52255-.09115q1.99016.17254,4.07934.33263c-1.18046.03457-2.98576-.14335-4.21027-.12379q3.03906.21642,6.31478.52166c-.52509.02369-1.29309-.02091-2.00636-.05941-2.2324-.12047-4.35429-.18883-6.31593-.20446l7.52274.44749c-3.203-.1439-6.38037-.285-9.05424-.24855l5.99819.26637c-2.06605-.05807-4.16582-.14539-6.25311-.25932a36.54741,36.54741,0,0,0,4.03359-.40067L53.847,17.9246c-.00137-.0538.39264-.05751.72709-.05316l3.35677.04366q-5.28511-.09767-10.14836-.0252c1.614.02676,3.26814.06342,4.98607.15887,1.75291.09739,3.63805.26324,5.3375.518-4.88181-.13081-9.58951-.21424-14.166-.25214"/><path class="bc343e58-ccef-4a6c-ae00-2929d4f4f7ef" d="M52.276,18.49665c-.10352-.00048-.18359-.09423-.27783-.09521-.09424.00439-.15674.10254-.27539.12109-.125.00049-.19873-.09863-.28174-.10254-.08008-.00537-.1499.08838-.27051.11182a5.12505,5.12505,0,0,0-1.19092-.064,4.09891,4.09891,0,0,1-.60449.07421,3.65534,3.65534,0,0,1-.60254-.0874,5.19354,5.19354,0,0,0-1.189.04834,3.70952,3.70952,0,0,1,1.20019-.12012,3.60033,3.60033,0,0,0,.59082.06836,4.1581,4.1581,0,0,0,.58789-.09082,4.94632,4.94632,0,0,1,1.19971.09961c.08057-.00537.15478-.105.28418-.103.12012.02.189.11474.27344.11279.08545-.00049.16552-.0957.27929-.09473C52.111,18.38874,52.17251,18.48738,52.276,18.49665Z"/><path class="bc343e58-ccef-4a6c-ae00-2929d4f4f7ef" d="M27.10367,17.99031c-.13868-.02393-.269-.17823-.39454-.04248a.20407.20407,0,0,1-.21923.041c-.06885-.03076-.13037-.08349-.18848-.08105-.05859.00488-.11523.05761-.186.09179a.53293.53293,0,0,1-.23046.01758c-.148-.00781-.29444-.02539-.43946-.04346a5.93584,5.93584,0,0,0-1.73974.09278,6.64192,6.64192,0,0,0-1.74366-.0376c-.14453.02246-.28955.0459-.437.05859a1.20573,1.20573,0,0,1-.22851.00635,1.30784,1.30784,0,0,1-.19532-.106c-.09423-.0415-.28515.16944-.4038.00245-.05225-.04786-.11329-.10352-.1836-.07129a.56843.56843,0,0,1-.20459.07324.57541.57541,0,0,0,.19971-.08545c.07568-.041.1543.02.20557.063.124.148.2207-.06006.40429-.03223.07813.02979.12989.08643.19092.09912a1.32224,1.32224,0,0,0,.209-.0122c.144-.01514.28759-.04151.43164-.0669a6.62175,6.62175,0,0,1,1.75244,0,5.99288,5.99288,0,0,1,1.75244-.05517c.29834.021.56836.14013.84473-.04737.16894.03467.25634.19483.3955.07031a.20078.20078,0,0,1,.21387-.03173C26.97525,17.92634,27.02847,17.984,27.10367,17.99031Z"/><path class="ad5df741-d2ab-4185-953d-639d31c5d8ff" d="M46.42076,18.43855a.33355.33355,0,0,1,.11747.00932c.02287.0085.00889.01709-.02023.022a.85247.85247,0,0,1-.23032-.00541c-.07126-.01231-.08781-.03337-.02706-.04051a.558.558,0,0,1,.2085.01982"/><path class="bc343e58-ccef-4a6c-ae00-2929d4f4f7ef" d="M61.52505,17.95027c-.09814-.00147-.17236-.09326-.26074-.09571-.08887.00391-.145.09864-.25732.1211-.12207.00293-.18946-.09473-.26709-.10205-.07276-.00879-.13819.08056-.249.10937-.40771.01074-.76025-.16162-1.12841-.063a3.77609,3.77609,0,0,1-.57227.0752,3.14194,3.14194,0,0,1-.5708-.08692,4.57657,4.57657,0,0,0-1.124.04737A3.279,3.279,0,0,1,58.2316,17.837a3.08645,3.08645,0,0,0,.55761.06738,3.802,3.802,0,0,0,.55518-.0918,4.68727,4.68727,0,0,1,1.1333.09961c.07568-.00879.14307-.1084.27148-.10107.11182.0249.1753.11572.25293.11181.08008-.00293.15381-.09619.26319-.09472C61.37173,17.84431,61.42642,17.94,61.52505,17.95027Z"/><path class="ad5df741-d2ab-4185-953d-639d31c5d8ff" d="M25.13007,18.10548a.18188.18188,0,0,1,.09428.0087c.00452.00794-.02676.016-.065.02052a.72809.72809,0,0,1-.21141-.005c-.04344-.0115-.01589-.03118.05757-.03784s.1687.00385.16055.01852"/><path class="f6b292da-707f-4e40-91e0-e218283319dd" d="M32.27066,18.21394l.77832.1416.36377.06641-.374.02246-1.30957.0791-1.29882-.01465.01464-.21142a.20374.20374,0,0,1,.11524.04541c.02734.0039.05517.11621.02.147a.13154.13154,0,0,1-.04932.04638.26709.26709,0,0,1-.05029.02149.48667.48667,0,0,1-.13916.02l-.25049.00488c-.16846.0044-.32422-.00635-.48682-.0083a4.76255,4.76255,0,0,0-.938.02539,12.96793,12.96793,0,0,1-1.95118-.064l.96582-.04541a5.9673,5.9673,0,0,0,.94239-.061,4.28811,4.28811,0,0,1,.98388-.05713c.15967-.00146.32618.00537.4795-.00244l.23193-.0083a.33656.33656,0,0,0,.1001-.01025s.01074-.00342.00488-.001c0,0-.00586-.00049-.02588.02734-.02832.02246-.0039.12256.01514.12061.0459.0293.00879.00635.00146.00976l.01465-.21142c.875.0376,1.73486.05029,2.59912.05664l-.01025.08887Z"/><path class="f6b292da-707f-4e40-91e0-e218283319dd" d="M62.98062,18.58747a10.15332,10.15332,0,0,1-2.30176-.01855,15.894,15.894,0,0,1-2.3999-.13086,4.57031,4.57031,0,0,0-2.34961-.07422,11.55794,11.55794,0,0,1-2.38965-.21435,47.14093,47.14093,0,0,0-4.7373-.09961c-.04346.02978-.00733-.00977-.01172-.01319a.40127.40127,0,0,1,.01123.09717.195.195,0,0,1-.08545.14258.7439.7439,0,0,1-.34326.09375,4.10532,4.10532,0,0,1-.61231-.03516c-.40869-.03271-.80468-.08252-1.19531-.14355-.78516-.11524-1.58789-.06885-2.38721-.10938l-.00049-.022a16.2309,16.2309,0,0,1,2.40235-.02588c.40185.0459.80078.07861,1.19043.09277.19433.00245.395.03956.58349.02344a.611.611,0,0,0,.23145-.0542c.002-.01757-.00732.0752-.0166-.02929a.19291.19291,0,0,1,.04834-.16162.287.287,0,0,1,.106-.06592,28.46332,28.46332,0,0,1,4.83106.1914,8.95469,8.95469,0,0,0,2.36426.251A4.65208,4.65208,0,0,1,58.3107,18.276c.77246.13428,1.57568.05127,2.38183.144a8.56763,8.56763,0,0,0,1.17432.11719c.1958-.09961.40771.00781.60352.01563l.29638.04345.14844.01123c.03369-.01318.14551.02491.06055.00147Z"/></g></g><polygon class="b80b5585-1778-4979-bfa8-20b70284bb0a" points="51.403 17.684 8.342 17.684 11.811 10.182 47.934 10.182 51.403 17.684"/><g class="fdf3adc2-770f-4def-8682-5ae423c303bd"><polygon class="b80b5585-1778-4979-bfa8-20b70284bb0a" points="11.714 18.889 7.641 18.889 14.826 3.738 17.6 3.738 11.714 18.889"/><polygon class="f5684e9f-c79e-44c4-b96b-7aaa8e9e8579" points="15.783 18.889 11.709 18.889 17.596 3.738 20.37 3.738 15.783 18.889"/><polygon class="b80b5585-1778-4979-bfa8-20b70284bb0a" points="19.919 18.889 15.846 18.889 20.413 3.738 23.186 3.738 19.919 18.889"/><polygon class="f5684e9f-c79e-44c4-b96b-7aaa8e9e8579" points="23.987 18.889 19.914 18.889 23.183 3.738 25.956 3.738 23.987 18.889"/><polygon class="b80b5585-1778-4979-bfa8-20b70284bb0a" points="28.123 18.889 24.05 18.889 25.999 3.738 28.772 3.738 28.123 18.889"/><polygon class="f5684e9f-c79e-44c4-b96b-7aaa8e9e8579" points="32.192 18.889 28.119 18.889 28.769 3.738 31.543 3.738 32.192 18.889"/><polygon class="b80b5585-1778-4979-bfa8-20b70284bb0a" points="36.328 18.889 32.255 18.889 31.586 3.738 34.359 3.738 36.328 18.889"/><polygon class="f5684e9f-c79e-44c4-b96b-7aaa8e9e8579" points="40.396 18.889 36.323 18.889 34.356 3.738 37.129 3.738 40.396 18.889"/><polygon class="b80b5585-1778-4979-bfa8-20b70284bb0a" points="44.47 18.889 40.396 18.889 37.129 3.738 39.903 3.738 44.47 18.889"/><polygon class="f5684e9f-c79e-44c4-b96b-7aaa8e9e8579" points="48.538 18.889 44.465 18.889 39.899 3.738 42.673 3.738 48.538 18.889"/><polygon class="b80b5585-1778-4979-bfa8-20b70284bb0a" points="52.674 18.889 48.601 18.889 42.716 3.738 45.489 3.738 52.674 18.889"/><rect class="f5684e9f-c79e-44c4-b96b-7aaa8e9e8579" x="53.05203" y="4.50419" width="4.0732" height="15.15152"/><rect class="b80b5585-1778-4979-bfa8-20b70284bb0a" x="57.18827" y="4.50419" width="4.0732" height="15.15152"/></g><rect class="b43e5e15-dc31-408d-9234-2c0622cf10ff" x="18.68957" y="24.81637" width="0.16628" height="1.1904"/><polygon class="a519aa70-fb7b-4004-9838-73f83df2b51e" points="25.415 30.985 18.751 30.985 17.31 32.067 23.974 32.067 25.415 30.985"/><path class="b43e5e15-dc31-408d-9234-2c0622cf10ff" d="M39.58951,27.45124l-.001-.00195v-.05176l.001-.002h.02539a.02855.02855,0,0,1,.0205.00586.02171.02171,0,0,1,.00684.01855v.03125l-.002.001h-.01172l-.002-.001-.001-.00195V27.42a.01036.01036,0,0,0-.01172-.01172h-.00879v.043l-.002.001h-.01172Z"/><path class="b43e5e15-dc31-408d-9234-2c0622cf10ff" d="M39.6481,27.40632l-.001-.001v-.001l.00782-.02051.00195-.00195.002-.001h.00781l.001.001v.00195l-.00293.01953-.001.00293-.002.001h-.01269Zm.02246,0-.001-.001v-.001l.00782-.02051.002-.00195.002-.001h.00782l.001.001.001.00195-.00391.01953-.001.00293-.002.001h-.01269Z"/><path class="b43e5e15-dc31-408d-9234-2c0622cf10ff" d="M39.76138,27.39558l.001.002v.02637a.041.041,0,0,1-.00391.01562.02863.02863,0,0,1-.01172.00977.02353.02353,0,0,1-.01465.00391h-.00976l-.01367-.00293-.00977-.00879-.00293-.01172v-.03223l.001-.002h.01367l.001.002V27.422l.00781-.00489.002-.00976v-.00977l.001-.002H39.736l.001.002v.00977a.02391.02391,0,0,1-.00586.01758.02437.02437,0,0,1-.0166.00781l.00488.00488.00683.002h.00293l.00879-.002.00586-.00586.00293-.00879v-.02539l.001-.002h.01367Z"/><path class="b43e5e15-dc31-408d-9234-2c0622cf10ff" d="M39.79947,27.45027l-.00977-.00782-.00391-.00976.001-.002.001-.001h.01465l.00293.00195.0039.00489.00586.002.00684-.00293.00293-.00684-.00293-.00683-.00684-.00293-.0039.001-.00293.001-.00293.002h-.01368l-.001-.001-.001-.002.00391-.03515.001-.002.002-.001h.041l.002.001v.01368l-.002.001h-.02929l-.001.01172.00488-.002.00781-.001.01172.00293.00977.00781.00293.01172-.00391.0127a.0175.0175,0,0,1-.00976.00879l-.01563.00293Z"/><path class="b43e5e15-dc31-408d-9234-2c0622cf10ff" d="M39.87173,27.41511l-.001-.001v-.00878l.001-.002h.043l.001.002v.00878l-.001.002h-.041Zm0,.02539-.001-.002v-.00781l.001-.002.002-.001h.03906l.002.001.001.002v.00781l-.001.002-.002.001h-.03906Z"/><path class="b43e5e15-dc31-408d-9234-2c0622cf10ff" d="M39.945,27.45124l-.001-.00195v-.05176l.001-.002h.02442a.03211.03211,0,0,1,.02051.00488.02751.02751,0,0,1,.00586.01953v.03125l-.002.001h-.04687Zm.03516-.01269V27.42a.01036.01036,0,0,0-.01172-.01172h-.00879v.03028Z"/><path class="b43e5e15-dc31-408d-9234-2c0622cf10ff" d="M40.00454,27.42781v-.03223h.01661l.001.002v.02832l-.001.002-.002.001H40.0065Z"/><path class="b43e5e15-dc31-408d-9234-2c0622cf10ff" d="M40.03189,27.42781v-.03223h.0166l.001.002v.02832l-.001.002-.002.001h-.0127Z"/><path class="b43e5e15-dc31-408d-9234-2c0622cf10ff" d="M40.09732,27.40144a.02646.02646,0,0,1,.00586.01855.0322.0322,0,0,1-.00781.02149.039.039,0,0,1-.01856.01074l-.00391.001H40.071l-.001-.002V27.4405l.001-.002.00195-.001.00293-.001.00684-.00586.00293-.00977-.002-.00879-.00879-.00293h-.01563l-.002-.001-.001-.001v-.02344l.001-.00195.002-.001H40.07l.002.001.001.00195v.01172h.00586A.02487.02487,0,0,1,40.09732,27.40144Z"/><path class="b43e5e15-dc31-408d-9234-2c0622cf10ff" d="M40.11587,27.44636a.025.025,0,0,1-.00683-.01855v-.03028l.001-.002h.02735a.02859.02859,0,0,1,.02051.00586.0209.0209,0,0,1,.00683.01758v.00976a.02433.02433,0,0,1-.00683.01856.03147.03147,0,0,1-.02149.00586A.02754.02754,0,0,1,40.11587,27.44636Zm.03028-.00976.00293-.00879V27.42l-.00293-.00879-.00879-.00293h-.0127v.01954l.00293.00879.00879.002Z"/><path class="f704bb8a-5b2c-43cf-9505-8e74156bd57f" d="M44.60186,24.189a2.41448,2.41448,0,0,0,.22715,1.8166.33326.33326,0,0,1,.06624.20676.29654.29654,0,0,1-.11.16118,3.12331,3.12331,0,0,1-2.5083.7628,2.73969,2.73969,0,0,0,.271-1.28314c-.00138-.33673-.261-1.02062-.14413-1.31812C42.64669,23.917,44.53531,24.43,44.60186,24.189Z"/><path class="badb84ae-36bd-4cf9-a21b-91d8cf11608e" d="M42.32462,27.00069a6.29317,6.29317,0,0,1-3.14862-.59982c.353.20914,1.72483-1.24635,2.23786-1.3379.35416-.0632,1.1766-.10884,1.22551.21729.02331.15544-.26522.64194-.3.83236A2.70132,2.70132,0,0,0,42.32462,27.00069Z"/><path class="badb84ae-36bd-4cf9-a21b-91d8cf11608e" d="M25.33111,27.01554a6.02909,6.02909,0,0,1-3.01651-.57466c.33817.20037,1.65246-1.19405,2.144-1.28176.3393-.06055,1.12724-.10427,1.17409.20817.02234.14892-.25409.615-.28744.79744A2.58793,2.58793,0,0,0,25.33111,27.01554Z"/><path class="b95b80b6-7a33-424b-bfee-85a1dc7a2b76" d="M38.0246,25.32041a6.06569,6.06569,0,0,0,1.86968-.88645,3.23987,3.23987,0,0,0,.45691,1.8131.368.368,0,0,1,.07317.194c-.00475.13209-.14759.209-.27085.2567a12.5694,12.5694,0,0,1-2.16017.62049,10.89343,10.89343,0,0,0-1.54014.34042.58616.58616,0,0,1-.2246.04866.52009.52009,0,0,1-.221-.08375,5.704,5.704,0,0,1-1.35857-1.0905.37573.37573,0,0,1-.11969-.21424A.35647.35647,0,0,1,34.686,26.049c.43858-.37707,1.05149-.56908,1.35575-1.061a.19252.19252,0,0,0-.19777.16332,2.54839,2.54839,0,0,0,3.05544-.16382l.04217.24033"/><path class="b95b80b6-7a33-424b-bfee-85a1dc7a2b76" d="M29.85881,25.34676A5.81125,5.81125,0,0,0,31.65,24.49751a3.10391,3.10391,0,0,0,.43774,1.737.35263.35263,0,0,1,.0701.18585c-.00455.12655-.1414.20022-.25949.24593a12.04274,12.04274,0,0,1-2.06953.59446,10.43423,10.43423,0,0,0-1.47551.32613.56159.56159,0,0,1-.21519.04662.49823.49823,0,0,1-.21172-.08024,5.46459,5.46459,0,0,1-1.30157-1.04474.36.36,0,0,1-.11467-.20525.34156.34156,0,0,1,.15006-.25851c.42018-.36124,1.00737-.5452,1.29886-1.01646a.18444.18444,0,0,0-.18946.15647,2.44145,2.44145,0,0,0,2.92723-.15694l.04041.23025"/><path class="b95b80b6-7a33-424b-bfee-85a1dc7a2b76" d="M18.13033,25.34676a5.81119,5.81119,0,0,0,1.79124-.84925,3.1039,3.1039,0,0,0,.43773,1.737.35247.35247,0,0,1,.0701.18585c-.00454.12655-.14139.20022-.25948.24593a12.04274,12.04274,0,0,1-2.06953.59446,10.43468,10.43468,0,0,0-1.47552.32613.5615.5615,0,0,1-.21518.04662.49818.49818,0,0,1-.21172-.08024,5.4644,5.4644,0,0,1-1.30157-1.04474.3599.3599,0,0,1-.11467-.20525.34155.34155,0,0,1,.15005-.25851c.42019-.36124,1.00738-.5452,1.29887-1.01646a.18446.18446,0,0,0-.18947.15647,2.44147,2.44147,0,0,0,2.92724-.15694l.04041.23025"/><path class="f704bb8a-5b2c-43cf-9505-8e74156bd57f" d="M27.60033,24.2628a2.31316,2.31316,0,0,0,.21761,1.74038.31925.31925,0,0,1,.06346.19808.28405.28405,0,0,1-.10541.15442,2.99226,2.99226,0,0,1-2.40306.7308,2.62484,2.62484,0,0,0,.25967-1.2293c-.00132-.3226-.25008-.9778-.13808-1.26281C25.72719,24.00225,27.53656,24.49371,27.60033,24.2628Z"/><path class="a3ab9859-f706-4e5c-9c49-b7fd4113ff39" d="M33.68646,25.40145c.56147.1364,1.13081-.18761,1.70853-.19782a.24052.24052,0,0,1,.11873.01972c.10328.05531.08568.20451.072.32085a1.11406,1.11406,0,0,0,.83272,1.17556,25.97134,25.97134,0,0,1-3.68242.00168,7.04615,7.04615,0,0,0,1.64365-1.93269.41988.41988,0,0,0-.32621-.0309"/><path class="a3ab9859-f706-4e5c-9c49-b7fd4113ff39" d="M20.89047,25.48176c.56147.1364,1.13082-.18761,1.70853-.19783a.24068.24068,0,0,1,.11874.01973c.10327.05531.08567.20451.072.32085a1.114,1.114,0,0,0,.83272,1.17556,25.97149,25.97149,0,0,1-3.68243.00168,7.04629,7.04629,0,0,0,1.64365-1.93269.41988.41988,0,0,0-.32621-.0309"/><path class="a3ab9859-f706-4e5c-9c49-b7fd4113ff39" d="M17.33618,25.741c.56147.1364,1.13082-.18761,1.70853-.19783a.24068.24068,0,0,1,.11874.01973c.10327.05531.08567.20451.072.32085a1.114,1.114,0,0,0,.83272,1.17556,25.97149,25.97149,0,0,1-3.68243.00168,7.04629,7.04629,0,0,0,1.64365-1.93269.41986.41986,0,0,0-.3262-.0309"/><path class="a3ab9859-f706-4e5c-9c49-b7fd4113ff39" d="M14.39906,24.925c.56148.1364,1.13082-.18762,1.70853-.19783a.24066.24066,0,0,1,.11874.01973c.10327.05531.08567.2045.072.32085a1.114,1.114,0,0,0,.83272,1.17556,25.97149,25.97149,0,0,1-3.68243.00168,7.04629,7.04629,0,0,0,1.64365-1.93269.41981.41981,0,0,0-.3262-.0309"/><path class="b5f363da-241c-42ec-b93f-1e9f14a666fd" d="M33.60525,25.16976a.50528.50528,0,0,0-.05478-.33042.54687.54687,0,0,0-.25036-.16794,2.40355,2.40355,0,0,0-1.35176-.28458,1.98157,1.98157,0,0,0-1.04188.68135,2.27373,2.27373,0,0,0-.57985.97691,1.05549,1.05549,0,0,0,.29524,1.0492,1.363,1.363,0,0,0,1.00707.21254c.62242-.06128.84856.14849,1.29571-.41843A3.21809,3.21809,0,0,0,33.60525,25.16976Z"/><path class="a40512fc-fde4-4c9a-a159-b69e54f85501" d="M13.88892,19.51132a2.31312,2.31312,0,0,1-.21762,1.74038.31929.31929,0,0,0-.06346.19808.28409.28409,0,0,0,.10542.15442,2.99227,2.99227,0,0,0,2.403.7308,2.62474,2.62474,0,0,1-.25966-1.2293c.00131-.32261.25008-.9778.13808-1.26282C15.76206,19.25077,13.95268,19.74222,13.88892,19.51132Z"/><path class="bd1d68e5-7085-46d9-8978-3d04daf359ea" d="M16.07061,22.20506a6.02907,6.02907,0,0,0,3.01651-.57466c-.33817.20037-1.65245-1.19405-2.144-1.28176-.3393-.06055-1.12724-.10428-1.17409.20817-.02233.14892.25409.615.28744.79744A2.58793,2.58793,0,0,1,16.07061,22.20506Z"/><path class="bd1d68e5-7085-46d9-8978-3d04daf359ea" d="M33.17206,22.26406a6.02907,6.02907,0,0,0,3.01651-.57466c-.33817.20037-1.65245-1.19405-2.144-1.28176-.3393-.06055-1.12724-.10428-1.17409.20817-.02233.14892.25409.615.28744.79744A2.58793,2.58793,0,0,1,33.17206,22.26406Z"/><path class="a136cced-343e-44ce-ae64-da7feb10daa2" d="M20.19021,20.59528A5.81127,5.81127,0,0,1,18.399,19.746a3.10387,3.10387,0,0,1-.43774,1.737.35267.35267,0,0,0-.0701.18586c.00455.12655.1414.20022.25949.24593a12.04182,12.04182,0,0,0,2.06953.59445,10.43609,10.43609,0,0,1,1.47552.32614.56168.56168,0,0,0,.21518.04662.49836.49836,0,0,0,.21172-.08024,5.46444,5.46444,0,0,0,1.30157-1.04475.35993.35993,0,0,0,.11467-.20524.34156.34156,0,0,0-.15006-.25851c-.42018-.36124-1.00737-.5452-1.29886-1.01646a.18444.18444,0,0,1,.18946.15647,2.44147,2.44147,0,0,1-2.92723-.15694l-.04041.23025"/><path class="a136cced-343e-44ce-ae64-da7feb10daa2" d="M28.64437,20.59528a5.81122,5.81122,0,0,1-1.79124-.84926,3.10387,3.10387,0,0,1-.43774,1.737.35257.35257,0,0,0-.07009.18586c.00454.12655.14139.20022.25948.24593a12.04182,12.04182,0,0,0,2.06953.59445,10.43609,10.43609,0,0,1,1.47552.32614.56168.56168,0,0,0,.21518.04662.49831.49831,0,0,0,.21172-.08024,5.46444,5.46444,0,0,0,1.30157-1.04475.35987.35987,0,0,0,.11467-.20524.34155.34155,0,0,0-.15005-.25851c-.42019-.36124-1.00738-.5452-1.29887-1.01646a.18444.18444,0,0,1,.18946.15647,2.44147,2.44147,0,0,1-2.92723-.15694l-.04041.23025"/><path class="a136cced-343e-44ce-ae64-da7feb10daa2" d="M40.37284,20.59528A5.81132,5.81132,0,0,1,38.5816,19.746a3.10386,3.10386,0,0,1-.43773,1.737.3525.3525,0,0,0-.0701.18586c.00455.12655.14139.20022.25948.24593a12.04207,12.04207,0,0,0,2.06953.59445,10.43579,10.43579,0,0,1,1.47552.32614.56172.56172,0,0,0,.21518.04662.4984.4984,0,0,0,.21173-.08024,5.46483,5.46483,0,0,0,1.30157-1.04475.35992.35992,0,0,0,.11466-.20524.34155.34155,0,0,0-.15005-.25851c-.42019-.36124-1.00738-.5452-1.29887-1.01646a.18445.18445,0,0,1,.18947.15647,2.44148,2.44148,0,0,1-2.92724-.15694l-.0404.23025"/><path class="a40512fc-fde4-4c9a-a159-b69e54f85501" d="M30.90285,19.51132a2.31316,2.31316,0,0,1-.21762,1.74038.31923.31923,0,0,0-.06346.19808.28413.28413,0,0,0,.10541.15442,2.9923,2.9923,0,0,0,2.40306.7308,2.62487,2.62487,0,0,1-.25967-1.2293c.00132-.32261.25008-.9778.13809-1.26282C32.776,19.25077,30.96661,19.74222,30.90285,19.51132Z"/><path class="a60ce6a8-8a47-435f-9bdb-eb7fc6865df8" d="M24.81672,20.65c-.56148.1364-1.13082-.18761-1.70854-.19783a.24064.24064,0,0,0-.11873.01973c-.10327.05531-.08567.2045-.072.32085a1.11406,1.11406,0,0,1-.83272,1.17556,25.97149,25.97149,0,0,0,3.68243.00168,7.046,7.046,0,0,1-1.64365-1.93269.4198.4198,0,0,1,.3262-.0309"/><path class="a60ce6a8-8a47-435f-9bdb-eb7fc6865df8" d="M37.6127,20.73028c-.56147.1364-1.13081-.18762-1.70853-.19783a.24064.24064,0,0,0-.11873.01973c-.10328.05531-.08568.2045-.072.32085a1.11406,1.11406,0,0,1-.83272,1.17556,25.97134,25.97134,0,0,0,3.68242.00168,7.04629,7.04629,0,0,1-1.64365-1.93269.41983.41983,0,0,1,.32621-.0309"/><path class="a60ce6a8-8a47-435f-9bdb-eb7fc6865df8" d="M41.167,20.98954c-.56147.1364-1.13081-.18762-1.70853-.19783a.24053.24053,0,0,0-.11873.01973c-.10328.05531-.08568.2045-.072.32085a1.11406,1.11406,0,0,1-.83272,1.17556,25.97134,25.97134,0,0,0,3.68242.00168,7.04629,7.04629,0,0,1-1.64365-1.93269.41983.41983,0,0,1,.32621-.0309"/><path class="a60ce6a8-8a47-435f-9bdb-eb7fc6865df8" d="M44.10411,20.17349c-.56147.1364-1.13082-.18762-1.70853-.19783a.24059.24059,0,0,0-.11874.01973c-.10327.05531-.08567.2045-.072.32085a1.114,1.114,0,0,1-.83272,1.17555,25.97,25.97,0,0,0,3.68243.00169,7.04629,7.04629,0,0,1-1.64365-1.93269.41983.41983,0,0,1,.32621-.0309"/><path class="fb5c0ea4-e88d-43af-adb2-1d620cba8317" d="M24.89792,20.41828a.50539.50539,0,0,1,.05478-.33043.54693.54693,0,0,1,.25036-.16793,2.40355,2.40355,0,0,1,1.35176-.28458,1.98157,1.98157,0,0,1,1.04188.68135,2.27385,2.27385,0,0,1,.57986.97691,1.05551,1.05551,0,0,1-.29525,1.0492,1.363,1.363,0,0,1-1.00706.21253c-.62242-.06127-.84856.14849-1.29572-.41842A3.2182,3.2182,0,0,1,24.89792,20.41828Z"/><path class="a5c7c73a-ed4f-4989-aefb-27db7526f148" d="M17.69269,24.86367a.06648.06648,0,1,1-.01465.04163.10107.10107,0,0,1,.01739-.04857"/><path class="a5c7c73a-ed4f-4989-aefb-27db7526f148" d="M17.79953,24.87674l.0067-.0057.00585-.00684.01032.003a.0222.0222,0,0,1,.00751.01213c.00064.00325.00016.007-.00711.00941l-.00936-.00589-.01312.0008"/><path class="a5c7c73a-ed4f-4989-aefb-27db7526f148" d="M17.68467,24.87674,17.678,24.871l-.00585-.00684-.01032.003a.0222.0222,0,0,0-.00751.01213c-.00064.00325-.00016.007.00711.00941l.00936-.00589.01312.0008"/><ellipse class="b6680dd9-8721-4af6-9723-22c5518a84f8" cx="17.74238" cy="24.89676" rx="0.02674" ry="0.01139"/><path class="bcc9dc2b-d0ca-4c64-a535-31435e69e7c1" d="M17.7139,24.95338a.053.053,0,0,0,.05311.002.04226.04226,0,0,0,.019-.05335c-.01054,0-.01886.00911-.02909.01164-.01914.00473-.043-.01646-.06138-.007C17.67221,24.9187,17.70212,24.94574,17.7139,24.95338Z"/><path class="f67c7e6d-814a-4f45-8159-75a643f07303" d="M17.72365,24.90677l.01372.00338c.01648.00229.03328-.00439.053-.003l.00315.00271.00163.00687a.00976.00976,0,0,1-.009.00466.02338.02338,0,0,1-.01124-.00308c.00087.00353-.00393.00719-.01074.00819a.02356.02356,0,0,1-.01792-.00395.01566.01566,0,0,1-.01236.00462.02528.02528,0,0,0-.01375-.001.01175.01175,0,0,1-.01154-.00258l.0014-.0072-.0135-.00121-.0015-.00693A.03764.03764,0,0,1,17.72365,24.90677Z"/><path class="e78633f7-2893-442e-acaa-78bf8c4db67a" d="M17.71213,24.94617a.05476.05476,0,0,1,.03054-.01058.02793.02793,0,0,1,.031.01847l-.011.00393a.08944.08944,0,0,1-.03794-.00068l-.01258-.00715-.0017-.01225"/><circle class="a26ff337-751d-4f73-a53a-422bab712d13" cx="17.71022" cy="24.88283" r="0.01179"/><circle class="a26ff337-751d-4f73-a53a-422bab712d13" cx="17.77639" cy="24.88283" r="0.01179"/><path class="f67c7e6d-814a-4f45-8159-75a643f07303" d="M17.73063,24.959l.01411.00212.01078-.00053.01217-.00225.00683-.00243.00249-.00631-.00525-.00063-.00373.00254-.00246-.00306-.00781-.0011-.00383.00406-.00819-.00331-.0076.0038-.00438-.00433-.00617-.00044a.02075.02075,0,0,1-.0109-.00023l-.00712.00009C17.69993,24.9529,17.72474,24.9577,17.73063,24.959Z"/><circle class="a0161a83-4a42-49bd-a992-5bc968290419" cx="17.7646" cy="24.90473" r="0.00482"/><circle class="a0161a83-4a42-49bd-a992-5bc968290419" cx="17.72848" cy="24.90677" r="0.00482"/><circle class="a0161a83-4a42-49bd-a992-5bc968290419" cx="17.77539" cy="24.88251" r="0.00627"/><circle class="a0161a83-4a42-49bd-a992-5bc968290419" cx="17.71342" cy="24.88856" r="0.00605"/><rect class="b5116b6a-8537-4d3d-bcd5-1fa184e90620" x="16.29787" y="23.55206" width="10.12998" height="7.53534" rx="1.0725"/><path class="b5271c8f-1fca-49b8-a930-3ad67b647cb9" d="M18.736,26.00677h3.8127a1.42555,1.42555,0,0,1,1.42555,1.42555V31.706a.36131.36131,0,0,1-.36131.36131H17.67177a.36131.36131,0,0,1-.36131-.36131V27.43232A1.42555,1.42555,0,0,1,18.736,26.00677Z"/><rect class="b2005dd5-6211-47c5-ac66-053bde115819" x="17.31046" y="29.25472" width="6.6638" height="1.3863"/><path class="bfb20ed5-53eb-4dcb-88df-b6faef6a63bf" d="M18.15936,26.00677h1.883a.19261.19261,0,0,1,.19261.19261v.72647a.19261.19261,0,0,1-.19261.19261H17.50308a.19261.19261,0,0,1-.19261-.19261v-.07018A.84889.84889,0,0,1,18.15936,26.00677Z"/><rect class="b2005dd5-6211-47c5-ac66-053bde115819" x="18.43806" y="26.15691" width="1.63761" height="0.81141" rx="0.12222"/><line class="b00b6bd7-593d-4682-aed8-562225f7db13" x1="18.27835" y1="26.32331" x2="18.27835" y2="26.85377"/><line class="f41f4975-94c4-4627-9c63-3701834d9cff" x1="20.03278" y1="26.19392" x2="18.50087" y2="26.19392"/><rect class="b246a0f2-99d7-4575-8f54-321c83a66bb0" x="17.56216" y="24.74421" width="2.4209" height="1.08301" rx="0.1416"/><path class="b43e5e15-dc31-408d-9234-2c0622cf10ff" d="M19.841,24.78669a.09919.09919,0,0,1,.09912.09912v.79981a.09877.09877,0,0,1-.09912.09863H17.70425a.09835.09835,0,0,1-.09863-.09863v-.79981a.09878.09878,0,0,1,.09863-.09912H19.841m0-.085H17.70425a.18411.18411,0,0,0-.18359.18408v.79981a.184.184,0,0,0,.18359.18359H19.841a.18411.18411,0,0,0,.18408-.18359v-.79981a.18421.18421,0,0,0-.18408-.18408Z"/><path class="ecd062cb-c7e6-4443-8206-48c6ff76441b" d="M17.31046,29.43653h6.6638a0,0,0,0,1,0,0v2.27513a.35563.35563,0,0,1-.35563.35563H17.66609a.35563.35563,0,0,1-.35563-.35563V29.43653A0,0,0,0,1,17.31046,29.43653Z"/><rect class="b0242b30-b4e2-4131-b5f1-6870205e8e8e" x="11.55057" y="33.66818" width="36.71733" height="2.75055"/><path class="b43e5e15-dc31-408d-9234-2c0622cf10ff" d="M20.58755,43.88874a.19719.19719,0,0,1-.09179-.13867l-.81641-4.377a.20588.20588,0,0,1,.03613-.16406.22946.22946,0,0,1,.14453-.08594l1.90723-.35547a2.60617,2.60617,0,0,1,1.791.16406,2.02166,2.02166,0,0,1,.85156,1.47364l.46972,2.51757a.21588.21588,0,0,1-.03417.168.2121.2121,0,0,1-.14356.0918l-3.94824.73535A.21257.21257,0,0,1,20.58755,43.88874Zm2.76758-1.63769-.28906-1.55274a.85778.85778,0,0,0-1.12793-.78027l-.80664.15039.46777,2.50977Z"/><path class="b43e5e15-dc31-408d-9234-2c0622cf10ff" d="M24.88052,39.168a.16571.16571,0,0,1-.06836-.1084.23783.23783,0,0,1,0-.09472l.334-1.793a.53589.53589,0,0,1,.09082-.19434.29564.29564,0,0,1,.18457-.09961l.61425-.11426a.14938.14938,0,0,1,.13282.03614.17406.17406,0,0,1,.06152.126l.05274,1.73047a.43167.43167,0,0,1-.06055.22852.27586.27586,0,0,1-.19531.12207l-1.02442.19043A.14172.14172,0,0,1,24.88052,39.168Zm1.89844-.35352a.16905.16905,0,0,1-.06934-.10937.237.237,0,0,1,.001-.09473l.334-1.792a.53206.53206,0,0,1,.08985-.19531.3048.3048,0,0,1,.18652-.09863l.61328-.11426a.14694.14694,0,0,1,.13184.03515.18255.18255,0,0,1,.0625.126l.05371,1.73047a.45182.45182,0,0,1-.06152.22949.27493.27493,0,0,1-.19532.1211l-1.02441.1914A.1449.1449,0,0,1,26.779,38.81452Z"/><path class="b43e5e15-dc31-408d-9234-2c0622cf10ff" d="M32.08755,41.85847a.24343.24343,0,0,1-.09863-.15527l-.1582-.84766a.26132.26132,0,0,1,.02832-.1709.34108.34108,0,0,1,.13086-.13769l.24023-.15821a1.4398,1.4398,0,0,0,.53027-.56347,1.41651,1.41651,0,0,0,.06739-.89356,1.13164,1.13164,0,0,0-.32715-.70508.93256.93256,0,0,0-.73242-.082l-2.2334.416a.2143.2143,0,0,1-.25977-.17578l-.14551-.78125a.18858.18858,0,0,1,.04-.15625.23788.23788,0,0,1,.14161-.08594l2.52832-.4707a2.07528,2.07528,0,0,1,1.668.23047,2.32566,2.32566,0,0,1,.77442,1.49511,2.51075,2.51075,0,0,1-.30567,1.86524,3.37684,3.37684,0,0,1-1.40234,1.24121l-.32422.166A.15075.15075,0,0,1,32.08755,41.85847Zm-1.751,1.874a.20294.20294,0,0,1-.09082-.14062l-.75586-4.05664a.205.205,0,0,1,.03418-.16406.237.237,0,0,1,.1455-.08594l.957-.17774a.20111.20111,0,0,1,.249.16993l.75586,4.05664a.20673.20673,0,0,1-.03028.16308.21562.21562,0,0,1-.14062.08692l-.957.17773A.23459.23459,0,0,1,30.33658,43.73249Z"/><path class="b43e5e15-dc31-408d-9234-2c0622cf10ff" d="M40.11587,35.40632a.21021.21021,0,0,1,.08692.1416l.41015,2.19922a2.50814,2.50814,0,0,1-.09375,1.36133,2.31943,2.31943,0,0,1-.75488,1.03223,2.68542,2.68542,0,0,1-1.23047.53418l-.80664.15039a2.53625,2.53625,0,0,1-1.22461-.042,1.87018,1.87018,0,0,1-.89941-.5625,1.92028,1.92028,0,0,1-.44824-.93261l-.50489-2.70508a.20928.20928,0,0,1,.03516-.16406.22951.22951,0,0,1,.14453-.08594l.88281-.16406a.19969.19969,0,0,1,.248.16992l.38477,2.01367a.78918.78918,0,0,0,.57421-.4668,1.74659,1.74659,0,0,0,.01954-.91308l-.14356-.77149a.22528.22528,0,0,1,.0332-.17578.21872.21872,0,0,1,.14453-.09179l.873-.16211a.20415.20415,0,0,1,.15918.03906.23175.23175,0,0,1,.09277.14844l.14747.78906a2.21918,2.21918,0,0,1-.21485,1.60351,2.12629,2.12629,0,0,1-1.28125.91016,1.12132,1.12132,0,0,0,.501.33106,1.21844,1.21844,0,0,0,.60937.0332l.19336-.03613a1.66631,1.66631,0,0,0,.73926-.32129,1.35274,1.35274,0,0,0,.44824-.585,1.32569,1.32569,0,0,0,.0625-.73243l-.40332-2.16015a.21632.21632,0,0,1,.03223-.16407.21106.21106,0,0,1,.14062-.084l.88184-.165A.21562.21562,0,0,1,40.11587,35.40632Z"/><rect class="f2a6011c-c502-4ff2-a663-c9e37eb02b58" x="11.81055" y="10.18189" width="13.6047" height="2.05615" rx="1.02808"/><path class="a5c7c73a-ed4f-4989-aefb-27db7526f148" d="M17.767,24.89294a.07.07,0,1,1-.01543.04385.1064.1064,0,0,1,.01831-.05115"/><circle class="a0161a83-4a42-49bd-a992-5bc968290419" cx="17.84269" cy="24.93619" r="0.00508"/><circle class="a0161a83-4a42-49bd-a992-5bc968290419" cx="17.80464" cy="24.93834" r="0.00508"/><path class="a5c7c73a-ed4f-4989-aefb-27db7526f148" d="M17.87948,24.90671l.00706-.006.00616-.0072.01087.00319a.02343.02343,0,0,1,.00791.01278c.00067.00343.00017.0074-.00749.00991l-.00986-.0062a.06286.06286,0,0,0-.01382.00084"/><path class="a5c7c73a-ed4f-4989-aefb-27db7526f148" d="M17.7585,24.90671l-.00706-.006-.00616-.0072-.01088.00319a.02348.02348,0,0,0-.0079.01278c-.00068.00343-.00017.0074.00749.00991l.00985-.0062a.06291.06291,0,0,1,.01383.00084"/><ellipse class="b6680dd9-8721-4af6-9723-22c5518a84f8" cx="17.81929" cy="24.92779" rx="0.02817" ry="0.012"/><path class="bcc9dc2b-d0ca-4c64-a535-31435e69e7c1" d="M17.78929,24.98743a.05578.05578,0,0,0,.05593.00212.04452.04452,0,0,0,.02-.0562c-.0111,0-.01986.0096-.03064.01226-.02015.005-.04532-.01733-.06464-.00738C17.74538,24.9509,17.77688,24.97938,17.78929,24.98743Z"/><path class="f67c7e6d-814a-4f45-8159-75a643f07303" d="M17.79956,24.93834l.01445.00356c.01736.00241.03505-.00463.05581-.00317l.00332.00285.00172.00724a.0103.0103,0,0,1-.00948.00491.02469.02469,0,0,1-.01183-.00324c.00091.00371-.00414.00756-.01131.00862a.02478.02478,0,0,1-.01887-.00417.01654.01654,0,0,1-.013.00488.02644.02644,0,0,0-.01449-.001.01237.01237,0,0,1-.01215-.00273l.00147-.00758-.01421-.00128-.00158-.00729A.03957.03957,0,0,1,17.79956,24.93834Z"/><path class="e78633f7-2893-442e-acaa-78bf8c4db67a" d="M17.78742,24.97984a.05757.05757,0,0,1,.03217-.01114.0294.0294,0,0,1,.03268.01945l-.0116.00413a.094.094,0,0,1-.04-.00071l-.01325-.00753a.01093.01093,0,0,1-.00179-.0129"/><circle class="a26ff337-751d-4f73-a53a-422bab712d13" cx="17.78542" cy="24.91312" r="0.01241"/><circle class="a26ff337-751d-4f73-a53a-422bab712d13" cx="17.8551" cy="24.91312" r="0.01241"/><path class="f67c7e6d-814a-4f45-8159-75a643f07303" d="M17.80691,24.99336l.01486.00224.01136-.00057.01281-.00236.0072-.00256a.00508.00508,0,0,0,.00262-.00666l-.00553-.00065-.00392.00267-.0026-.00322-.00822-.00116-.004.00428-.00862-.00349-.008.004-.00461-.00456-.0065-.00046a.02186.02186,0,0,1-.01148-.00025l-.0075.0001C17.77457,24.98692,17.80071,24.992,17.80691,24.99336Z"/><circle class="a0161a83-4a42-49bd-a992-5bc968290419" cx="17.85406" cy="24.91279" r="0.0066"/><circle class="a0161a83-4a42-49bd-a992-5bc968290419" cx="17.78878" cy="24.91916" r="0.00637"/></svg>