<svg id="bc94b4a1-9665-456b-9261-fe3f0f2b890d" data-name="Layer 1" xmlns="http://www.w3.org/2000/svg" viewBox="0 0 44.359 27.41847"><defs><style>.a56d49b9-2c18-459f-b49c-bc8da6675b2c,.ecd48cc7-9286-49a4-a62e-c64b50bffee8{fill:none;stroke-linecap:round;stroke-linejoin:round;}.ecd48cc7-9286-49a4-a62e-c64b50bffee8{stroke:#537435;stroke-width:10px;}.a56d49b9-2c18-459f-b49c-bc8da6675b2c{stroke:#678e3d;stroke-width:2.49594px;}</style></defs><title>Artboard 160</title><path class="ecd48cc7-9286-49a4-a62e-c64b50bffee8" d="M5,5c0,.31863,17.41847,17.41847,17.41847,17.41847L39.359,5.478"/><path class="a56d49b9-2c18-459f-b49c-bc8da6675b2c" d="M40.5356,7.45112c-.65112.65112-3.00432-1.70207-3.65544-1.051-.65075.65075,1.70244,3.004,1.05169,3.6547-.651.651-3.00421-1.70218-3.65521-1.05118-.64957.64957,1.70362,3.00277,1.054,3.65234s-3.00278-1.70361-3.65236-1.054c-.65174.65174,1.70146,3.00493,1.04972,3.65667-.65066.65066-3.00385-1.70254-3.65451-1.05188-.65153.65153,1.70166,3.00473,1.05013,3.65626-.65227.65227-3.00546-1.70093-3.65773-1.04866-.65134.65134,1.70185,3.00453,1.05052,3.65587-.65287.65286-3.00606-1.70033-3.65892-1.04747-.65392.65392,1.69928,3.00711,1.04536,3.661s-1.56146-1.53373-2.48623-1.53273c-.92277.001-1.82729,2.18806-2.47979,1.53556-.65213-.65213,1.70106-3.00533,1.04893-3.65746-.65239-.65238-3.00558,1.70081-3.658,1.04843-.651-.651,1.70225-3.00414,1.0513-3.65508S15.375,18.52477,14.724,17.87381c-.65312-.65311,1.70008-3.00631,1.047-3.65942-.652-.652-3.00524,1.70116-3.65727,1.04912-.65291-.65291,1.70028-3.00611,1.04737-3.659-.65365-.65364-3.00684,1.69955-3.66049,1.0459-.65271-.65271,1.70048-3.00591,1.04777-3.65862-.65425-.65425-3.00744,1.699-3.66169,1.0447C6.2314,9.38118,8.5846,7.028,7.9293,6.37268s-3.00849,1.6979-3.66379,1.0426"/></svg>