<svg id="b7fe42b0-efe0-4cec-80c5-b7548d938b80" data-name="Layer 1" xmlns="http://www.w3.org/2000/svg" viewBox="0 0 118.21277 43.24857"><defs><style>.eb8dcf58-193e-4b40-bf56-3e394f6b307e{fill:#537435;}.eb5fb0b0-0160-4b5b-8d3e-4a7574f00cd3{fill:none;stroke:#678e3d;stroke-linecap:round;stroke-linejoin:round;stroke-width:7.90488px;}.e213fad2-3fe7-490d-9ab9-f14f5e07cb55{fill:#678e3d;}.bf65266b-1dde-417b-8e32-943c5d98e539{fill:#86c66b;}</style></defs><title>Artboard 140</title><rect class="eb8dcf58-193e-4b40-bf56-3e394f6b307e" width="118.21277" height="43.24857" rx="21.62426"/><path class="eb5fb0b0-0160-4b5b-8d3e-4a7574f00cd3" d="M18.1644,34.62289c3.591,0,3.591,2.25853,7.182,2.25853,3.59141,0,3.59141-2.25853,7.18282-2.25853,3.592,0,3.592,2.25853,7.18394,2.25853,3.58957,0,3.58957-2.25853,7.17913-2.25853,3.59113,0,3.59113,2.25853,7.18225,2.25853s3.59112-2.25853,7.18223-2.25853,3.59118,2.25853,7.18236,2.25853c3.59211,0,3.59211-2.25853,7.18422-2.25853,3.59016,0,3.59016,2.25853,7.18032,2.25853,3.59328,0,3.59328-2.25853,7.18656-2.25853,3.59575,0,3.59575,2.25853,7.1915,2.25853s3.59575-2.25853,7.1915-2.25853"/><path class="e213fad2-3fe7-490d-9ab9-f14f5e07cb55" d="M10.12365,13.99842a1.99107,1.99107,0,0,1-.83252,1.02515,8.68067,8.68067,0,0,1-1.0293.50464c-.28662.12548-.45507.27-.45507.366.00146.09595.02929.14112.04931.33277l.00244.02758a.21825.21825,0,0,0,.02881-.0581.52062.52062,0,0,0,.02637-.14038c.0293-.04.00439-.12549.03467-.11206.01172-.01514.02441-.01148.061.01684l.1045.0835.66406.56885a6.87613,6.87613,0,0,1,.85644.86938,3.31318,3.31318,0,0,1,.77344,1.86328,2.87534,2.87534,0,0,1-.084.846,3.88759,3.88759,0,0,1-.22364.61816,5.82691,5.82691,0,0,1-.44677.78418l-.67432.96265a1.66179,1.66179,0,0,0-.2998.57813c-.00684.0288,0,.04394.02783.03l.0249-.01147a.445.445,0,0,0,.05859-.07178A1.0297,1.0297,0,0,0,8.90539,22.82a1.593,1.593,0,0,0,.05518-.46264,1.90669,1.90669,0,0,0-.14844-.65161,2.38751,2.38751,0,0,0-.18848-.3667.64162.64162,0,0,0-.07129-.1001c-.01318-.02124-.00781-.02783-.01513-.04126-.021-.03027-.01123-.03565.01855-.02979a4.96242,4.96242,0,0,1,.64551.23511,7.91533,7.91533,0,0,1,1.18994.59009,4.837,4.837,0,0,1,.85156.65649,4.17682,4.17682,0,0,1,.98,1.44263,4.28671,4.28671,0,0,1,.27295,1.16235,4.97957,4.97957,0,0,1-.00683.87256,5.78265,5.78265,0,0,1-.09229.62744c-.03516.17945-.07519.354-.10791.4773-.14111.5581-.24316.93872-.30811,1.24512-.05859.28784-.05957.52172.02393.49536.01318.00976.04346-.03052.07324-.09912a.601.601,0,0,0,.03614-.09864,1.4393,1.4393,0,0,0,.041-.19433,2.5747,2.5747,0,0,0-.22656-1.377,3.40236,3.40236,0,0,0-1.11865-1.33935,2.12911,2.12911,0,0,0-.19043-.1167.82075.82075,0,0,0-.084-.05908c-.08008-.04077-.08447-.05567-.0874-.06446-.01416-.03735.23145-.00219.55762.05665a8.60544,8.60544,0,0,1,1.418.38281,6.6549,6.6549,0,0,1,1.17334.55835A5.45788,5.45788,0,0,1,15.18908,28.09a4.894,4.894,0,0,1,.623,1.28247,4.53418,4.53418,0,0,1,.189.98413l.02149.40088-.01221.30347-.02148.29565-.03711.22852a5.34269,5.34269,0,0,1-.39112,1.26611c-.14209.2793-.24511.47681-.36767.48755-.03223.02173-.05811-.01562-.09229-.04541-.03564-.00439-.06738-.09717-.125-.16723a2.84029,2.84029,0,0,0-.62793-.70215,1.14784,1.14784,0,0,0-.92236-.34571c-.0918.01832-.11133.05372-.11377.08985-.02441.03638.00781.083.03711.125a2.52553,2.52553,0,0,0,.78125.51416c.34473.19775.74707.36181,1.166.62915a4.83217,4.83217,0,0,1,.62842.468,2.02431,2.02431,0,0,1,.478.70239.38918.38918,0,0,1-.228.50073l-.01806.00611-.27539.08691a1.07339,1.07339,0,0,0-.40332.25928l-.35206.30859a9.58315,9.58315,0,0,1-.82226.64575,3.90317,3.90317,0,0,1-1.207.55127,2.1154,2.1154,0,0,1-.4585.07984,2.495,2.495,0,0,1-.6001-.00757,3.13465,3.13465,0,0,1-1.78564-.81446,4.33753,4.33753,0,0,1-1.0708-1.581,5.17841,5.17841,0,0,1-.2124-.65625c-.05127-.19482-.09473-.39722-.12207-.5415-.13086-.65284-.1543-1.11646-.21192-1.49415-.05176-.36132-.09033-.65136-.17724-.71191l-.02491-.01977-.02636.04687a.22332.22332,0,0,0-.01954.05493,1.248,1.248,0,0,0-.01074.154,1.9587,1.9587,0,0,0,.07715.501,3.37746,3.37746,0,0,0,.14942.4065,2.98537,2.98537,0,0,0,.25.43457,3.2416,3.2416,0,0,0,.82861.843c.189.12989.252.15357.25683.17676a1.54228,1.54228,0,0,1-.51757-.07349,9.77716,9.77716,0,0,1-1.38086-.38745,5.49431,5.49431,0,0,1-.55616-.23022l-.31445-.15381c-.12793-.06836-.27441-.15478-.40674-.23828A4.98693,4.98693,0,0,1,4.9425,30.73035a4.71664,4.71664,0,0,1-.41113-2.34326c.01318-.14868.03076-.29663.05224-.44287.02295-.1333.04932-.22851.07715-.34375a3.79877,3.79877,0,0,1,.18311-.58374,6.73207,6.73207,0,0,1,.72949-1.363,3.99849,3.99849,0,0,1,.45605-.59179c.02686-.0315.03174-.01685.03955.00268.01856-.00634.00733.06836.01123.14136.01368.02979-.00683.24365.02491.37744a2.33119,2.33119,0,0,0,.17724.677c.37305.7522.605.68946.53809.62549a2.11592,2.11592,0,0,0-.49951-.45971c-.26758-.2085-.59473-.43311-1.04444-.81348-.10595-.0896-.22705-.19678-.36914-.34082l-.1997-.20777-.23536-.2871a3.987,3.987,0,0,1-.46435-.77833,3.479,3.479,0,0,1-.27881-1.12744,3.36609,3.36609,0,0,1,.081-.95654,3.14224,3.14224,0,0,1,.25635-.73682l.1543-.301.15039-.22656a3.15779,3.15779,0,0,1,.29932-.386,6.59617,6.59617,0,0,1,1.0083-.91846c.28662-.21484.53125-.38647.686-.48877.07959-.04907.12549-.07861.127-.02612.02294-.00146-.03272.11011-.02051.1648a1.0126,1.0126,0,0,0-.01612.3562c.08106.304.17823.19067.12207.01049a3.33791,3.33791,0,0,0-.31787-.73535c-.15381-.29223-.33838-.60376-.53906-1.01489-.04932-.10156-.09961-.20752-.15234-.34228a2.926,2.926,0,0,1-.14453-.43506,2.66268,2.66268,0,0,1-.08057-.594A1.82954,1.82954,0,0,1,5.465,15.58a2.73538,2.73538,0,0,1,1.07178-1.32934,2.67677,2.67677,0,0,1,1.37744-.36109c.74316-.00293,1.12549.09864,1.51709-.27246l.03418-.03222a.40122.40122,0,0,1,.6582.41357Z"/><path class="bf65266b-1dde-417b-8e32-943c5d98e539" d="M29.60387,25.35382a.37344.37344,0,0,1-.124.28516.395.395,0,0,1-.27539.11426H27.60875a.58684.58684,0,0,1-.31347-.07618.86139.86139,0,0,1-.19922-.16113c-.05078-.05762-.083-.0918-.09571-.10449l-3.83789-5.45313a2.66466,2.66466,0,0,0-.874,1.22559,4.8277,4.8277,0,0,0-.22754,1.51074v2.584a.48529.48529,0,0,1-.124.34179.43045.43045,0,0,1-.332.13282h-1.292a.43921.43921,0,0,1-.32324-.13282.46287.46287,0,0,1-.13281-.34179V22.67511a6.51827,6.51827,0,0,1,.43652-2.5459,4.5304,4.5304,0,0,1,1.67188-1.88086l-1.86133-2.6416a.63907.63907,0,0,1-.0957-.30371.38646.38646,0,0,1,.11425-.28516.36823.36823,0,0,1,.26661-.11328h1.53906a.75557.75557,0,0,1,.60742.36035l3.53418,4.959a2.10258,2.10258,0,0,0,.94043-.99707,4.04451,4.04451,0,0,0,.19922-1.37793V15.37921a.47937.47937,0,0,1,.124-.3418.42905.42905,0,0,1,.332-.13281h1.36817a.42348.42348,0,0,1,.32324.14258.4748.4748,0,0,1,.13281.332v2.56543a5.03665,5.03665,0,0,1-.456,2.20313,4.50791,4.50791,0,0,1-1.7666,1.76757l2.22265,3.13477A.50609.50609,0,0,1,29.60387,25.35382Z"/><path class="bf65266b-1dde-417b-8e32-943c5d98e539" d="M31.5609,25.62042a.44007.44007,0,0,1-.13379-.32324V24.17609a.4311.4311,0,0,1,.13379-.332.45308.45308,0,0,1,.32227-.124h5.11132V19.6546a2.39373,2.39373,0,0,0-2.69824-2.71777H32.0736a.45347.45347,0,0,1-.45606-.45606V15.36066a.43265.43265,0,0,1,.13281-.333.45886.45886,0,0,1,.32325-.123H34.392A5.61548,5.61548,0,0,1,38.22985,16.054a4.53187,4.53187,0,0,1,1.292,3.5625V23.72h.68359a.42576.42576,0,0,1,.45606.45606v1.12109a.45884.45884,0,0,1-.123.32324.43262.43262,0,0,1-.333.13282H31.88317A.437.437,0,0,1,31.5609,25.62042Z"/><path class="bf65266b-1dde-417b-8e32-943c5d98e539" d="M49.70543,25.62042a.43919.43919,0,0,1-.13281-.32324V19.63507a2.38571,2.38571,0,0,0-2.69824-2.69824h-3.9336a.45512.45512,0,0,1-.456-.45606V15.36066a.43328.43328,0,0,1,.13379-.333.45649.45649,0,0,1,.32226-.123H46.9691q5.03468,0,5.03516,4.71192v5.68066a.45543.45543,0,0,1-.124.32324.429.429,0,0,1-.332.13282H50.0277A.437.437,0,0,1,49.70543,25.62042Zm-7.08691,0a.44007.44007,0,0,1-.13379-.32324V19.33136a.43328.43328,0,0,1,.13379-.333.45648.45648,0,0,1,.32226-.123h1.52051a.42575.42575,0,0,1,.45606.45605v5.96582a.4554.4554,0,0,1-.124.32324.43045.43045,0,0,1-.332.13282H42.94078A.437.437,0,0,1,42.61852,25.62042Z"/><path class="bf65266b-1dde-417b-8e32-943c5d98e539" d="M58.55992,25.62042a.4401.4401,0,0,1-.13378-.32324V24.17609a.43113.43113,0,0,1,.13378-.332.45308.45308,0,0,1,.32227-.124h5.11133V19.6546a2.39373,2.39373,0,0,0-2.69824-2.71777H59.07262a.45348.45348,0,0,1-.45606-.45606V15.36066a.43262.43262,0,0,1,.13282-.333.45884.45884,0,0,1,.32324-.123H61.391A5.61548,5.61548,0,0,1,65.22887,16.054a4.53184,4.53184,0,0,1,1.292,3.5625V23.72h.6836a.42576.42576,0,0,1,.45605.45606v1.12109a.45884.45884,0,0,1-.12305.32324.4326.4326,0,0,1-.333.13282H58.88219A.437.437,0,0,1,58.55992,25.62042Z"/><path class="bf65266b-1dde-417b-8e32-943c5d98e539" d="M75.73571,16.06281a5.37541,5.37541,0,0,1,1.06347,3.70507,5.58682,5.58682,0,0,1-1.31054,3.876,7.1247,7.1247,0,0,1-3.34375,2.07129l-.7793.24707a.3396.3396,0,0,1-.3418-.07617.43273.43273,0,0,1-.15234-.3418V24.15753a.50574.50574,0,0,1,.123-.32324.74873.74873,0,0,1,.333-.22852l.665-.26562a3.81587,3.81587,0,0,0,1.7002-1.23535,3.81137,3.81137,0,0,0,.59863-2.31739,4.58431,4.58431,0,0,0-.23731-1.64355,1.55072,1.55072,0,0,0-.79785-.86426,3.67663,3.67663,0,0,0-1.54882-.2666h-.58887l-2.12793-.01855a.47776.47776,0,0,1-.3418-.124A.40823.40823,0,0,1,68.515,16.557V12.71906a.44167.44167,0,0,1,.13379-.32325.46365.46365,0,0,1,.3418-.13281h1.38672a.42575.42575,0,0,1,.45605.45606V14.9046h1.31153A4.70369,4.70369,0,0,1,75.73571,16.06281Z"/><path class="bf65266b-1dde-417b-8e32-943c5d98e539" d="M90.44176,15.03741a.43921.43921,0,0,1,.13281.32325v5.12988a5.6438,5.6438,0,0,1-.71191,2.86914,4.79079,4.79079,0,0,1-1.9668,1.88965,5.81491,5.81491,0,0,1-2.8125.63672H83.4691a4.9805,4.9805,0,0,1-2.4414-.5791,4.118,4.118,0,0,1-1.63477-1.60547,4.59932,4.59932,0,0,1-.5791-2.29883v-6.042a.43265.43265,0,0,1,.13281-.333.45886.45886,0,0,1,.32325-.123h1.36816a.42575.42575,0,0,1,.456.45606l.03809,4.97754a2.53961,2.53961,0,0,0,1.919-.84571,3.3306,3.3306,0,0,0,.55078-2.042V15.37921a.46137.46137,0,0,1,.13281-.3418.43924.43924,0,0,1,.32324-.13281h1.36817a.43861.43861,0,0,1,.32226.13281.46209.46209,0,0,1,.13379.3418v2.12793a4.517,4.517,0,0,1-1.15039,3.2207,4.81186,4.81186,0,0,1-3.31543,1.377,2.74073,2.74073,0,0,0,1.07422,1.30176,3.05981,3.05981,0,0,0,1.66211.44628h.53222a3.81173,3.81173,0,0,0,1.89942-.418,3.02776,3.02776,0,0,0,1.25488-1.23438,3.74107,3.74107,0,0,0,.43652-1.82422V15.36066a.43922.43922,0,0,1,.13282-.32325.46291.46291,0,0,1,.34179-.13281h1.36817A.43924.43924,0,0,1,90.44176,15.03741Z"/><path class="bf65266b-1dde-417b-8e32-943c5d98e539" d="M99.67516,16.06281a5.37541,5.37541,0,0,1,1.06348,3.70507,5.58682,5.58682,0,0,1-1.31055,3.876,7.1247,7.1247,0,0,1-3.34375,2.07129l-.7793.24707a.3396.3396,0,0,1-.3418-.07617.43273.43273,0,0,1-.15234-.3418V24.15753a.50576.50576,0,0,1,.123-.32324.74873.74873,0,0,1,.333-.22852l.665-.26562a3.81587,3.81587,0,0,0,1.7002-1.23535,3.81137,3.81137,0,0,0,.59863-2.31739,4.58457,4.58457,0,0,0-.2373-1.64355,1.55079,1.55079,0,0,0-.79785-.86426,3.67671,3.67671,0,0,0-1.54883-.2666H95.058L92.93,16.99445a.47777.47777,0,0,1-.3418-.124.40825.40825,0,0,1-.13378-.31347V12.71906a.4417.4417,0,0,1,.13378-.32325A.46367.46367,0,0,1,92.93,12.263h1.38672a.42574.42574,0,0,1,.45605.45606V14.9046h1.31153A4.70368,4.70368,0,0,1,99.67516,16.06281Z"/></svg>