<svg id="e4c9ee10-dfa4-4e0e-a47f-c10efc9440d4" data-name="Layer 1" xmlns="http://www.w3.org/2000/svg" viewBox="0 0 27.41847 44.359"><defs><style>.a0ecf380-68b7-4e0a-a5d0-85564613a2ff,.e7e030f0-6e0f-46f0-94fa-e94e42ef873e{fill:none;stroke-linecap:round;stroke-linejoin:round;}.e7e030f0-6e0f-46f0-94fa-e94e42ef873e{stroke:#537435;stroke-width:10px;}.a0ecf380-68b7-4e0a-a5d0-85564613a2ff{stroke:#678e3d;stroke-width:2.49594px;}</style></defs><title>Artboard 97</title><path class="e7e030f0-6e0f-46f0-94fa-e94e42ef873e" d="M22.41847,5C22.09984,5,5,22.41847,5,22.41847L21.94053,39.359"/><path class="a0ecf380-68b7-4e0a-a5d0-85564613a2ff" d="M19.96735,40.5356c-.65112-.65112,1.70208-3.00432,1.051-3.65544-.65076-.65075-3.00395,1.70244-3.65471,1.05169-.651-.651,1.70219-3.00421,1.05118-3.65521-.64957-.64957-3.00276,1.70362-3.65233,1.054s1.70361-3.00278,1.054-3.65236c-.65173-.65174-3.00493,1.70146-3.65666,1.04972-.65066-.65066,1.70253-3.00385,1.05187-3.65451-.65153-.65153-3.00472,1.70166-3.65626,1.05013-.65226-.65227,1.70093-3.00546,1.04866-3.65773-.65134-.65134-3.00453,1.70185-3.65587,1.05052-.65286-.65287,1.70033-3.00606,1.04747-3.65892-.65391-.65392-3.00711,1.69928-3.661,1.04536s1.53373-1.56146,1.53272-2.48623c-.001-.92277-2.18806-1.82729-1.53556-2.47979.65214-.65213,3.00533,1.70106,3.65746,1.04893.65239-.65239-1.70081-3.00558-1.04842-3.658.65094-.651,3.00413,1.70225,3.65508,1.0513S8.8937,15.375,9.54466,14.724c.65312-.65312,3.00631,1.70008,3.65943,1.047.652-.652-1.70116-3.00524-1.04913-3.65727.65291-.65291,3.00611,1.70028,3.659,1.04737.65365-.65365-1.69955-3.00684-1.0459-3.66049.65272-.65271,3.00591,1.70048,3.65863,1.04777C19.081,9.89414,16.72776,7.541,17.382,6.8867c.6553-.6553,3.00849,1.6979,3.66379,1.0426s-1.69789-3.00849-1.0426-3.66379"/></svg>