<svg id="ee183988-4fb6-4fe5-b9a2-901a8b6cd5d0" data-name="Layer 1" xmlns="http://www.w3.org/2000/svg" xmlns:xlink="http://www.w3.org/1999/xlink" viewBox="0 0 530.04255 298.14894"><defs><style>.b6022067-6fc6-446f-82fc-d7e1ebf8a5f4,.bfcc2651-66b4-4b19-a7d8-77dbd55bd306{fill:none;}.b596264b-b89d-4ba3-afaa-a7c163f578ab{clip-path:url(#a9bcf3df-94d5-46c1-a28e-9d8c99fbc609);}.a9b7d3ea-9397-4a3f-9839-1fe5c8b2e2b0{fill:#decda8;}.a5a87369-168a-4c59-abc7-af9f07bb07a6{fill:#6d6e71;}.bfcc2651-66b4-4b19-a7d8-77dbd55bd306{stroke:#bcbec0;stroke-miterlimit:10;stroke-width:8px;stroke-dasharray:44.83536 14.48361;}.edb81552-3cf6-4736-8c01-054d72c512f1{fill:#d5bdab;}.f51baa1e-899b-4056-9e06-3da452023493{fill:#f6dac6;}.ae7308b8-2311-42f0-8199-7300502e0bf7{clip-path:url(#f177d2b2-8f23-417e-95f2-2cfee929fc61);}.a1746faf-cb80-4c20-8193-42a34ff4e022{fill:#aa8b75;}.a867c9c6-6603-4fed-a39b-e4fba3245f20{fill:#916f59;}.e667a02d-c132-49df-845f-87bd9e478a9f{fill:#c59f74;}.aaf3dd54-700c-44ac-b8c7-1dd12f90efa4{fill:#ddc09b;}.a5b30dd6-1245-4875-9359-3baeacafe13a{fill:#754c29;}</style><clipPath id="a9bcf3df-94d5-46c1-a28e-9d8c99fbc609"><rect class="b6022067-6fc6-446f-82fc-d7e1ebf8a5f4" width="530.04255" height="298.14894"/></clipPath><clipPath id="f177d2b2-8f23-417e-95f2-2cfee929fc61"><polygon class="b6022067-6fc6-446f-82fc-d7e1ebf8a5f4" points="557.251 241.26 488.57 218.658 338.443 241.26 241.421 226.985 116.315 241.26 -16.53 241.26 -16.53 35.148 45.847 35.148 98.595 25.752 189.336 35.148 298.613 35.148 404.826 28.754 478.358 35.148 557.251 35.148 557.251 241.26"/></clipPath></defs><title>Artboard 111</title><g class="b596264b-b89d-4ba3-afaa-a7c163f578ab"><rect class="a9b7d3ea-9397-4a3f-9839-1fe5c8b2e2b0" x="115.94681" y="-115.94681" width="298.14894" height="530.04255" transform="translate(115.94681 414.09574) rotate(-90)"/><polygon class="a5a87369-168a-4c59-abc7-af9f07bb07a6" points="342.105 334.525 168.233 334.525 168.233 0 255.169 0 342.105 0 342.105 334.525"/><line class="bfcc2651-66b4-4b19-a7d8-77dbd55bd306" x1="255.16917" y1="334.52499" x2="255.16917"/><polygon class="edb81552-3cf6-4736-8c01-054d72c512f1" points="557.251 263.62 487.228 256.624 338.443 263.62 222.169 254.305 116.315 263.62 -16.53 263.62 -16.53 35.777 45.847 35.777 98.595 25.752 189.336 35.777 298.613 35.777 404.826 29.156 478.358 35.777 557.251 35.777 557.251 263.62"/><path class="f51baa1e-899b-4056-9e06-3da452023493" d="M557.62851,264.03656c-11.44879-.82275-23.03772-1.532-34.83447-2.23071-11.79-.66968-23.80188-1.521-35.84681-2.3711l.41333.011c-12.38305.917-24.76269,1.906-37.14923,2.749l-37.15548,2.617c-12.38608.85254-24.76816,1.78979-37.15769,2.56933l-37.16424,2.43018-.32157.021-.46472-.03393-116.338-8.50733,1.17383-.00463-105.83281,9.55444-.15129.01367-.48435.01441-33.2112.97753c-5.5352.14747-11.0704.36084-16.6056.45386l-16.60559.29541-33.21121.59082-8.3028.14478-8.3028.04883-16.60559.09814-9.84809.05811-.0104-9.91651-.2388-227.84289-.0106-10.1211,10.10789.02381,62.37673.14709-1.85753.175,52.77618-9.87366,1.47792-.27649,1.427.16346c15.11685,1.73168,30.24473,3.36364,45.35254,5.17724l45.33338,5.35034-1.01992-.05627,53.78772.43066,26.8988.21607,26.9061.34472c1.1221.04273,2.24106-.0133,3.35965-.0802l3.35681-.17187,6.7138-.34387,13.4285-.6875,26.8606-1.375,53.73544-2.74927.62891-.03211.44964.047,73.43625,7.68128-.541-.0243,19.72338.50586c6.57447.14917,13.14887.37879,19.72333.593l39.44672,1.28882,3.69635.12085-.0492,3.52637-1.6007,114.82934-.90442,56.89575Zm-.75458-.83374-.26868-227.4259.64588.64587-78.89343.0918h-.0326l-.03375-.00293-73.536-6.57312.1192.00158L351.04456,33.3338l-26.91544,1.69666-13.45783.84838-6.72894.4242-3.3645.212c-1.12119.07983-2.24274.14929-3.36722.12341l-107.87414.09h-.05173l-.053-.00573-90.7493-9.954.303-.01184L46.047,36.8288l-.09829.01879-.10184.00013-62.37673.04626,1.117-1.11706-.07506,227.84289-1.042-1.042,132.84479.24634-.06955.00317,105.8551-9.30151.06574-.00586.06546.00537,116.27039,9.35156-.0943-.00146,148.79089-6.87232.04608-.00219.04505.00463C510.47525,258.33417,533.61685,260.75751,556.87393,263.20282Z"/><g class="ae7308b8-2311-42f0-8199-7300502e0bf7"><polygon class="a1746faf-cb80-4c20-8193-42a34ff4e022" points="535.981 0.962 -16.53 -1.561 -17.466 82.29 48.911 105.502 119.89 88.514 270.959 110.729 410.443 95.048 482.953 106.155 535.981 90.474 535.981 0.962"/></g><polygon class="a867c9c6-6603-4fed-a39b-e4fba3245f20" points="98.595 25.752 119.89 89.523 270.959 111.738 189.336 36.157 98.595 25.752"/><path class="e667a02d-c132-49df-845f-87bd9e478a9f" d="M42.97684,280.9269a.83167.83167,0,0,1-.85608-.49423,6.55575,6.55575,0,0,1-.322-1.0131,7.80423,7.80423,0,0,0-1.20649-1.89541,2.57377,2.57377,0,0,1-.57568-2.10335c-.99565.03508-2.10236.72891-2.89206.12152a1.71553,1.71553,0,0,1-.37524-1.84643,6.32568,6.32568,0,0,0,.55-1.72613,6.99467,6.99467,0,0,1-1.14848.48968c-.57542.0714-1.05874-.49218-1.56017-.38886a.83075.83075,0,0,0-.40229.27972l-.934.97885a.54123.54123,0,0,1-.23111.16831c-.31967.08824-.477-.39746-.38781-.71686s.24406-.71081.00549-.94117c-.27814-.26856-.722.01135-1.02119.25622s-.843.40517-.99139.04815l-1.31043.036a.3695.3695,0,0,0-.23794.0623.39409.39409,0,0,0-.09451.26383,3.114,3.114,0,0,1-1.53484,2.317.6342.6342,0,0,1-.66643.06413.6609.6609,0,0,1-.19477-.30405c-.2208-.55949-.20041-1.96609-.53621-2.36772-.35836-.4286-1.61486-.59938-2.16547-.8473a5.69733,5.69733,0,0,0-.65909,3.48124c.0129,1.22914-.97527,2.76381-.9026,3.8036a3.71084,3.71084,0,0,0-2.131-3.0587,7.56008,7.56008,0,0,0,.71322,3.303,3.16632,3.16632,0,0,1-1.12581-1.70472,4.92623,4.92623,0,0,0-.37275,3.05259,1.56723,1.56723,0,0,1,.05356.6199.44408.44408,0,0,1-.42731.3803,2.49677,2.49677,0,0,1-1.51925,1.76025c.0302.4572.72881.36416,1.1403.16264,1.09224-.53488,2.56224-.73074,3.40147.14947a24.50274,24.50274,0,0,1,2.78924-2.30283l-.47767.26673c3.43843,1.82209,7.30731,3.46231,11.11645,2.66649a2.24156,2.24156,0,0,0-.84092-2.79609,3.45082,3.45082,0,0,0,4.27968.69551l-.28437-.48375c.10789-.62953,1.01265-.70239,1.59546-.44107A6.084,6.084,0,0,0,42.97684,280.9269Z"/><path class="aaf3dd54-700c-44ac-b8c7-1dd12f90efa4" d="M29.649,283.80107a12.68054,12.68054,0,0,0,1.12666-7.37434,10.42341,10.42341,0,0,0,.76842,2.28163,1.58636,1.58636,0,0,0,.60364.7669c.70641.38372,1.49043-.33212,1.976-.97283l.08762,2.64625a7.23369,7.23369,0,0,0,4.36349-1.20534,8.05082,8.05082,0,0,1-5.66137,5.17688.73061.73061,0,0,0-.08264-1.123,1.14193,1.14193,0,0,0-.55419-.14017,10.20557,10.20557,0,0,0-2.62819.49889,2.85289,2.85289,0,0,1-2.54864-.40815c-1.12493-1.03232-.4997-3.06108-1.45244-4.25416a3.01488,3.01488,0,0,0-2.306-.93572c-.85613-.02658-1.71474.11831-2.56739.03664.15125.607.9635.85858,1.12776,1.46219.19335.71049-.653,1.29082-1.38823,1.33032a8.24454,8.24454,0,0,0-2.19548.03873,6.44612,6.44612,0,0,0,3.33267,1.34287,2.95725,2.95725,0,0,1,1.43429.33435c.408.28379.55055.99238.12458,1.24844"/><path class="e667a02d-c132-49df-845f-87bd9e478a9f" d="M489.11185,28.19l2.92007-.91029a.75484.75484,0,0,0,.61762.75895,1.97089,1.97089,0,0,0,1.05183-.12845,12.47293,12.47293,0,0,0,2.90731-1.39853c.33944.89247,1.618.80136,2.5377.54487l3.78039-1.05422a3.77335,3.77335,0,0,0-.99878,3.59,13.47782,13.47782,0,0,0-7.12646,1.00937,2.75722,2.75722,0,0,0-1.50194,1.20934c-.57056,1.23279.62875,2.517,1.70234,3.34926a9.75078,9.75078,0,0,1-2.42932,1.2843,1.66259,1.66259,0,0,1-.9876.12225c-.81774-.22594-.87605-1.45022-.36211-2.12521a12.98536,12.98536,0,0,1,1.97956-1.58447c-.76627-1.17073-2.4423-1.21739-3.83313-1.06325-1.76316.19541-3.53047,4.77778-5.20749,2.17427-1.17056-1.81725,1.48623-5.50308,2.68024-6.58961C487.0898,28.56232,488.16315,28.48578,489.11185,28.19Z"/><path class="aaf3dd54-700c-44ac-b8c7-1dd12f90efa4" d="M490.8884,33.81522c.223.06891.31851-.2658.3505-.497a2.82209,2.82209,0,0,1,1.50063-1.76917,31.18675,31.18675,0,0,1,3.85429-2.0921,8.52325,8.52325,0,0,0-4.12742,1.689c-.41757.32052-.84231.78022-.74741,1.298.05239.28581.2593.52784.29729.81592.07424.56291-.55992,1.01174-1.12632.97214a2.912,2.912,0,0,1-1.49969-.75068.52757.52757,0,0,1-.1792.7871.797.797,0,0,1-.86587-.16308,1.7111,1.7111,0,0,1-.44863-.80907,4.2219,4.2219,0,0,1,.05983-2.54709,4.95091,4.95091,0,0,1-1.60294,5.17.28286.28286,0,0,1,.25665-.32917,9.19441,9.19441,0,0,0-.52768-3.99244,5.53484,5.53484,0,0,0,1.64713,1.31556.48559.48559,0,0,0,.41346.06922c.1522-.07027.1925-.264.2137-.43029l.15862-1.24428,1.0848,1.07352a.26825.26825,0,0,0,.47643-.026l2.32672-2.6964c-.41247,1.78744-2.51266,3.04729-2.32691,4.87228,1.70181-1.90851,3.50119-3.8855,5.89583-4.7823a11.23938,11.23938,0,0,0-.35271,1.46453.87042.87042,0,0,0,.01214.47941.90763.90763,0,0,0,.4121.38381l1.56874.93534a10.55429,10.55429,0,0,0-2.45814-.18253.91185.91185,0,0,0-.62119.19176.7903.7903,0,0,0-.07091.83491,2.8,2.8,0,0,1,.28589.83485l-1.98036.20225a.84212.84212,0,0,0-.61313.24035c-.1367.18024-.00393.52621.21575.47225"/><path class="aaf3dd54-700c-44ac-b8c7-1dd12f90efa4" d="M112.24413,21.93569a16.82907,16.82907,0,0,1,2.60324-5.72652,1.76689,1.76689,0,0,0,.82477,2.3187,1.54411,1.54411,0,0,0,2.06016-1.17c0,2.63344,1.97842,5.2084,1.14814,7.70753a9.84946,9.84946,0,0,0,4.18024-2.61835,9.59813,9.59813,0,0,0,.51,1.87778"/><path class="aaf3dd54-700c-44ac-b8c7-1dd12f90efa4" d="M35.8975,32.1356a5.38993,5.38993,0,0,1-3.84309-3.0198c.79576-.65735,1.97005-.51636,2.93769-.87553s1.55459-1.95933.57767-2.29245a6.62237,6.62237,0,0,0,3.76166,1.26635,2.85809,2.85809,0,0,0,2.22908,3.83165"/><rect class="a5b30dd6-1245-4875-9359-3baeacafe13a" x="133.34388" y="19.93069" width="15.80401" height="247.85434" rx="7.7644"/><rect class="a5b30dd6-1245-4875-9359-3baeacafe13a" x="366.42449" y="17.58207" width="15.92425" height="252.25532" rx="7.89262"/></g></svg>