<svg id="ff480852-0085-4367-a1d1-73d092faf38b" data-name="Layer 1" xmlns="http://www.w3.org/2000/svg" xmlns:xlink="http://www.w3.org/1999/xlink" viewBox="0 0 417.19149 38.29787" preserveAspectRatio="none"><defs><style>.bba206c9-0530-409b-8607-2e306aa6550a,.e77a32b1-8ffb-4c76-89d7-ef8bff655748,.ff4cabee-b680-477a-9ed6-e80568c669f8{fill:none; }.f725c96c-f644-4ae6-9d17-22120dd457b1{fill:#ee6565;stroke:#ee6565;stroke-width:5px;}.bba206c9-0530-409b-8607-2e306aa6550a,.f725c96c-f644-4ae6-9d17-22120dd457b1,.ff4cabee-b680-477a-9ed6-e80568c669f8{stroke-miterlimit:10;}.a5cc51e9-2feb-4f1c-bbd6-857136e8fbe9{fill:#754c29;}.a881a62a-e89d-4b48-9784-a98d4c08b6c1{clip-path:url(#a22a1e4c-1a60-46e3-82a8-dd003591c9df);}.ac0776fa-3777-4937-af04-fed62de93dc5{fill:#7f5436;}.bce34eda-35ba-485c-a4ea-67fc1034e1cd{fill:#8b5e3c;}.bba206c9-0530-409b-8607-2e306aa6550a{stroke:#754c29;}.bba206c9-0530-409b-8607-2e306aa6550a,.ff4cabee-b680-477a-9ed6-e80568c669f8{stroke-width:1.73765px;}.ab21593c-445a-4397-a912-292bbd9295dd{fill:#664126;}.ff4cabee-b680-477a-9ed6-e80568c669f8{stroke:#664126;}</style><clipPath id="a22a1e4c-1a60-46e3-82a8-dd003591c9df"><path class="e77a32b1-8ffb-4c76-89d7-ef8bff655748" d="M19.2848,3.63967a69.0558,69.0558,0,0,1,10.73443-.83216c6.38747-.052,12.72776.65526,19.10017.65427l93.38872-.01488L256.054,3.42882,355.32948,3.413c16.02087-.00255,34.18611,1.83375,49.67271-.6238a6.19374,6.19374,0,0,1,3.18945.04111,3.17719,3.17719,0,0,1,1.68217,2.07694q2.32866,6.15773,4.50527,12.34481a3.2708,3.2708,0,0,1,.23065,2.28477c-.4285,1.08078-1.88614,1.747-2.84019,2.635-3.52654,3.28245.06891,9.16036-4.53933,11.646q-.53178.28683-1.10068.52317c-5.451,2.27407-13.28214,1.26245-19.58941,1.26345l-30.76818.0049-88.21976.014L164.824,35.63983l-91.95315.01464-55.89475.0089C9.05362,35.66464,6.453,29.56589,6.949,24.78828a5.40216,5.40216,0,0,0-.159-3.1672c-.92289-1.76439-4.06068-2.77942-4.18662-4.66355-.09118-1.3641,1.49842-2.48655,1.8786-3.82436A4.48775,4.48775,0,0,0,4.47308,11.239L3.603,5.34486a.7604.7604,0,0,1,.21755-.80667,1.71067,1.71067,0,0,1,.99852-.16865c4.60085.15536,7.46507.71273,11.81867-.22755Q17.9662,3.85507,19.2848,3.63967Z"/></clipPath></defs><title>Artboard 118 copy</title><path class="f725c96c-f644-4ae6-9d17-22120dd457b1" d="M19.28728,3.60951a69.05553,69.05553,0,0,1,10.73457-.83045c6.38748-.05093,12.72765.65728,19.10006.65731H355.332c16.02087,0,34.18582,1.83919,49.67281-.6159a6.19386,6.19386,0,0,1,3.18944.04162,3.1772,3.1772,0,0,1,1.68184,2.07721q2.32769,6.1581,4.5033,12.34553a3.27081,3.27081,0,0,1,.23029,2.28481c-.42867,1.0807-1.88641,1.74673-2.84061,2.6346-3.52706,3.28188.06745,9.16036-4.54118,11.64528q-.53184.28675-1.10077.523c-5.45135,2.27319-13.28233,1.26033-19.5896,1.26033H16.97352c-7.92251,0-10.52213-6.09917-10.02538-10.8767a5.40223,5.40223,0,0,0-.15846-3.16722c-.92262-1.76454-4.06024-2.78007-4.18588-4.66422-.091-1.36411,1.49882-2.48631,1.87921-3.82405a4.48788,4.48788,0,0,0-.00865-1.89421L3.6052,5.3122a.76043.76043,0,0,1,.21768-.80664,1.71074,1.71074,0,0,1,.99855-.16848c4.60083.15609,7.46495.71391,11.81871-.22567Q17.96866,3.8247,19.28728,3.60951Z"/><path class="a5cc51e9-2feb-4f1c-bbd6-857136e8fbe9" d="M19.28728,3.60951a69.05553,69.05553,0,0,1,10.73457-.83045c6.38748-.05093,12.72765.65728,19.10006.65731H355.332c16.02087,0,34.18582,1.83919,49.67281-.6159a6.19386,6.19386,0,0,1,3.18944.04162,3.1772,3.1772,0,0,1,1.68184,2.07721q2.32769,6.1581,4.5033,12.34553a3.27081,3.27081,0,0,1,.23029,2.28481c-.42867,1.0807-1.88641,1.74673-2.84061,2.6346-3.52706,3.28188.06745,9.16036-4.54118,11.64528q-.53184.28675-1.10077.523c-5.45135,2.27319-13.28233,1.26033-19.5896,1.26033H16.97352c-7.92251,0-10.52213-6.09917-10.02538-10.8767a5.40223,5.40223,0,0,0-.15846-3.16722c-.92262-1.76454-4.06024-2.78007-4.18588-4.66422-.091-1.36411,1.49882-2.48631,1.87921-3.82405a4.48788,4.48788,0,0,0-.00865-1.89421L3.6052,5.3122a.76043.76043,0,0,1,.21768-.80664,1.71074,1.71074,0,0,1,.99855-.16848c4.60083.15609,7.46495.71391,11.81871-.22567Q17.96866,3.8247,19.28728,3.60951Z"/><g class="a881a62a-e89d-4b48-9784-a98d4c08b6c1"><path class="ac0776fa-3777-4937-af04-fed62de93dc5" d="M347.50051-5.5252c14.52047.04594,29.47143.2148,42.85386,4.28689,12.499,3.80327,22.614,10.70617,32.43337,17.46651-1.09642-.75486-16.09847,3.33051-18.19209,3.73932q-9.12487,1.78173-18.309,3.39953-18.36688,3.24219-36.91342,5.917-19.015,2.76808-38.14872,5.084c-11.69773,1.43229-23.48873,1.93237-35.14458,3.34181-7.42255.89755-15.209,2.3255-22.29042.48516-2.12471-.55217-4.08783-1.3808-6.14-2.06129-5.64434-1.8716-11.87075-2.59611-18.02706-3.186-14.30516-1.37068-28.72526-2.11184-43.15471-2.22729-15.68449-.1255-31.38038.48822-46.95479,1.83616q-11.68055,1.01092-23.25322,2.57183c-6.37564.86041-13.352,2.99265-19.52949,1.60734C67.70418,30.22663,40.31376,20.85215,9.335,20.237,3.612,20.1233-3.58419,19.605-5.44877,15.69284c4.33433-1.76211,8.50967-3.90037,12.85652-5.5882,3.98119-1.54585,8.54052-1.65678,12.97454-2.09558Q37.95191,6.27034,55.56818,4.79135c5.0313-.42319,10.82855-1.52116,15.77716-1.03342,5.85352.57691,11.38241,1.93329,17.4229,2.23137A475.73585,475.73585,0,0,0,136.651,5.93725c5.52562-.28474,11.20006-.69813,16.12288-2.53451,4.24118-1.5821,8.15807-4.2478,12.92425-4.06988,3.10165.11579,5.82044,1.443,8.50455,2.57212,16.838,7.08329,37.4305,7.46533,56.85454,6.36634S270.08313,4.7919,289.315,7.04564a10.87107,10.87107,0,0,0,4.04671-.01432c1.876-.51135,2.85088-1.96218,3.78537-3.24432a31.86324,31.86324,0,0,1,7.3478-7.1676c3.73418-2.64364,6.84626-2.12913,11.93969-2.14577Q331.96742-5.57711,347.50051-5.5252Z"/><path class="bce34eda-35ba-485c-a4ea-67fc1034e1cd" d="M4.50428,11.06807c17.02069,2.47314,33.99805,5.57617,51.06058,6.04346,8.51227.26464,16.9982-.522,25.57547-1.29981,4.2854-.397,8.5979-.73144,12.93811-.88916,4.34363-.18066,8.68536-.07422,13.00375.10107,8.63965.41163,17.19346,1.29786,25.75534,1.74024q6.42252.35376,12.86341.481,6.43912.104,12.88431.00146c17.18853-.26318,34.34423-1.54785,51.55288-2.26953,8.6034-.34766,17.23148-.60986,25.86161-.39746,8.63043.15381,17.24789.605,25.83706,1.24658,17.1857,1.2251,34.2981,2.87647,51.40612,3.80078,2.13806.10742,4.27653.24512,6.41473.32715l6.415.22168c4.2755.06543,8.5522.13965,12.82436.07275A238.5624,238.5624,0,0,0,364.47743,18.632c8.51856-.98,17.08642-2.07959,25.72761-2.54248a103.31938,103.31938,0,0,1,12.97773.09864A68.4999,68.4999,0,0,1,415.96759,18.258l-.07891.33838a75.528,75.528,0,0,0-12.7581-1.28809,121.8317,121.8317,0,0,0-12.80125.53467c-8.52169.76709-16.969,2.29785-25.50919,3.48486a241.69772,241.69772,0,0,1-25.84436,2.26856c-8.64912.33252-17.30179.13183-25.92279-.26807q-12.9311-.67455-25.79123-1.88281c-8.57063-.79443-17.12523-1.63037-25.67995-2.36084-8.55526-.72119-17.10692-1.38574-25.66881-1.74951q-12.84036-.54565-25.72857-.45606c-17.18161.11475-34.37012.96582-51.57331,1.49366-4.30151.13427-8.60531.24511-12.91232.30078q-6.46023.11938-12.93014.02392c-8.62967-.11718-17.22675-.65039-25.77967-.78271q-6.41436-.14723-12.78973.1001c-4.25385.17675-8.51617.53271-12.799.86328-4.2818.34179-8.58261.70361-12.91.92236-4.325.21631-8.6943.20264-13.02508.00244-17.3685-.87353-34.24173-4.69971-51.02329-8.39306Z"/><path class="a5cc51e9-2feb-4f1c-bbd6-857136e8fbe9" d="M406.65241,8.50606q-5.22109,1.05907-10.504,1.80127c-3.51869.49951-7.04973.93408-10.59384,1.23291q-5.31468.46362-10.6505.66552c-3.55568.12891-7.11612.19532-10.67561.12989l-.00008-1.31592q11.43766-.29956,22.88088-.36328c7.62854-.07178,15.25682.08838,22.88292.24316l.11474,1.43262c-3.388.606-6.792,1.1123-10.19482,1.61035q-5.10618.73682-10.2224,1.37744c-6.81971.86865-13.65278,1.59863-20.47161,2.43067l-.04017-.63477c6.5204.002,13.0409.03369,19.56105-.03418,6.52022-.04639,13.04049-.07764,19.56053-.17676l.0271.77979-26.83544,2.00879L368.075,20.69649a100.53212,100.53212,0,0,0-13.2292,1.65918l-.13094-1.61573q12.14671.52075,24.25385,1.728c4.03415.39795,8.05743.89941,12.07553,1.43359q6.02622.81006,12.02728,1.79346L402.93,27.46358,367.8937,27.426l-17.5155.07129-17.51509.21045.05411-.667a50.182,50.182,0,0,0,14.74743.88868l.01816.17285a50.5858,50.5858,0,0,1-14.895-.40088l-2.93338-.52051,2.98749-.14648c5.836-.28662,11.676-.46875,17.51593-.65088q8.76011-.27612,17.52314-.39307l17.52428-.2251c5.8412-.06933,11.68215-.05566,17.5224-.08154l-.14151,1.76807q-5.97751-.96168-11.98116-1.74951c-4.00121-.53125-8.01256-.98-12.02493-1.41748q-12.03894-1.29786-24.1416-1.9126l-6.40313-.3252,6.27221-1.29052a93.29622,93.29622,0,0,1,13.4664-1.542l13.43466-.772L408.2752,16.906l.0271.77978c-6.52057-.05273-13.04091-.03808-19.5613-.03759-6.52046-.021-13.04057.05664-19.56078.105l-.04018-.63477c6.81655-.85058,13.61947-1.8042,20.41058-2.80908q5.09237-.76026,10.16959-1.59961c3.38493-.55859,6.75775-1.18018,10.12923-1.79883l.11474,1.43262c-7.61725-.14111-15.23537-.11914-22.853-.17236q-11.4269-.0359-22.85393.16455l-.00006-1.31592c3.53691.08887,7.07669.13476,10.61644.06982q5.30947-.08862,10.613-.4375c3.53328-.24267,7.06638-.52343,10.58964-.915q5.28488-.58446,10.54565-1.40234Z"/><path class="bba206c9-0530-409b-8607-2e306aa6550a" d="M7.47811,9.2276c8.57568-2.57709,18.10024-5.18938,26.89814-3.04032Q22.35764,11.928,9.76425,17.00447c10.48922,1.08125,20.49054-4.569,31.04985-3.93723A298.07056,298.07056,0,0,0,4.05546,29.00059c4.72213.6845,9.50681-.60666,14.06545-1.73026a217.04746,217.04746,0,0,1,45.00778-6.11654l-48.03,13.068c21.05375-4.0756,42.578-8.18691,64.32247-7.11339L38.86324,34.71856A358.96114,358.96114,0,0,0,81.55647,27.315c-13.29675-4.97389-30.58562-4.54453-41.1284-12.22782l39.95244-4.27951c-1.12469-1.76906-4.48065-1.8919-7.16711-1.748L46.38761,10.49692a622.32218,622.32218,0,0,1,83.57906-.82784c-12.93206.87872-25.93883,2.07491-38.21358,5.14593S67.86948,22.97542,60.04022,30.46677q53.113-5.69835,106.85061-7.41274"/><path class="ab21593c-445a-4397-a912-292bbd9295dd" d="M102.996,25.987c.451.00049.78174.38135,1.08966.65284a4.17616,4.17616,0,0,0,.91162.77343.3046.3046,0,0,0,.3462-.02246,1.87439,1.87439,0,0,0,.374-.377c.25216-.30811.469-.66943.80231-1.0249a1.37591,1.37591,0,0,1,.78259-.4541,1.26506,1.26506,0,0,1,.93536.314,11.78056,11.78056,0,0,1,.9556.93652,2.02471,2.02471,0,0,0,.37186.30323c.13165.04882.00119.00537.02252.00537a3.8567,3.8567,0,0,0,.648-.72608,6.51771,6.51771,0,0,1,.45492-.53662,1.78055,1.78055,0,0,1,.86383-.541,1.839,1.839,0,0,1,.49607-.03077c.12027.0044.24417.00049.36093.01661a6.91662,6.91662,0,0,1,.70105.09326,17.5309,17.5309,0,0,1,2.55014.73535,15.213,15.213,0,0,0,2.2901.6748,4.69739,4.69739,0,0,0,2.151-.11181c1.49954-.3418,3.03457-1.207,4.94623-1.45264a6.70367,6.70367,0,0,1,2.81948.334c.86289.27,1.64606.62841,2.40824.94531a9.56425,9.56425,0,0,0,2.26394.68945,6.29368,6.29368,0,0,0,2.331-.17969c1.59341-.33984,3.28583-1.0542,5.01166-.83545-1.70551.17579-3.13877,1.05372-4.76914,1.65332a7.17316,7.17316,0,0,1-2.66455.49708,9.75958,9.75958,0,0,1-2.63715-.55079c-1.64227-.52-3.15707-1.18554-4.55569-.92089-1.46362.209-2.95453,1.03759-4.73721,1.50634a6.46861,6.46861,0,0,1-2.87232.09424,14.34425,14.34425,0,0,1-2.5541-.8042,16.16634,16.16634,0,0,0-2.28226-.78564,5.21919,5.21919,0,0,0-.55106-.10156,2.59061,2.59061,0,0,0-.27124-.02588c-.07651-.00928-.238-.00977-.13537-.01954.05984-.03662-.07846.02051-.19153.1294a5.15141,5.15141,0,0,0-.39731.40185,3.84489,3.84489,0,0,1-1.18243.999,1.12243,1.12243,0,0,1-.65024.07568,1.28016,1.28016,0,0,1-.52137-.22314,2.87506,2.87506,0,0,1-.56069-.5503c-.28293-.352-.51938-.70459-.75214-.93457a.86125.86125,0,0,0-.2005-.15625c-.01874-.01855-.16629.04786-.30124.15821-.2847.22314-.56247.55517-.89084.86133a2.34359,2.34359,0,0,1-.59408.4331.83668.83668,0,0,1-.8559-.07861,4.27868,4.27868,0,0,1-.86835-1.01709C103.64137,26.48311,103.42213,26.07735,102.996,25.987Z"/><path class="ab21593c-445a-4397-a912-292bbd9295dd" d="M301.42623,10.30733a1.36637,1.36637,0,0,1,.847.47607l.69049.69141c.221.21338.49741.43066.70146.38232.21166-.0376.43738-.29346.63046-.52685.19886-.2461.38651-.51319.61393-.77588a2.18773,2.18773,0,0,1,.40974-.38037.88165.88165,0,0,1,.692-.1709,2.07039,2.07039,0,0,1,.97467.65674c.23748.24414.45155.48974.66644.686a1.48861,1.48861,0,0,0,.29489.21631c.09081.03564.08313.02246.11206.01221a1.9809,1.9809,0,0,0,.51244-.50147c.19737-.24072.38713-.50928.65109-.78515a2.06511,2.06511,0,0,1,.51866-.40821,1.16318,1.16318,0,0,1,.44747-.12793c.13607-.00976.18658-.00293.28419-.00537a15.62105,15.62105,0,0,1,4.00977.60938c1.28169.32568,2.52.69189,3.74.917a10.15539,10.15539,0,0,0,3.63227.01025c2.45665-.34961,5.02039-1.33886,7.92563-1.09326,2.8619.32666,5.21772,1.66748,7.60508,2.27979,2.33682.73632,4.8097.167,7.45483-.145.66077-.07666,1.333-.13379,2.014-.14942.34082-.00781.68376-.00049,1.02817.02.1714.0044.34476.03125.51645.04883l.26813.0332a1.46531,1.46531,0,0,1,.38131.11914,3.32522,3.32522,0,0,1,.92183.71534c.23714.23681.45484.47705.65934.64257a1.071,1.071,0,0,0,.25038.16211c.05284.0166.01576.02.07513-.00195a1.65329,1.65329,0,0,0,.41742-.60059c.14375-.27636.27451-.5791.4512-.88964a1.46436,1.46436,0,0,1,.93837-.82178,1.99759,1.99759,0,0,1,1.11345.28076c.30263.15088.58257.31348.86411.44189a1.01305,1.01305,0,0,0,.77363.12549,1.76288,1.76288,0,0,0,.57674-.65527c.17372-.27051.33446-.55957.52682-.83008a1.213,1.213,0,0,1,.76592-.59375,1.156,1.156,0,0,0-.65424.6626c-.14975.28467-.26815.58691-.40828.88769a1.95943,1.95943,0,0,1-.63487.84766,1.361,1.361,0,0,1-1.11317-.01514c-.32517-.11132-.62581-.24853-.92035-.35937a1.50912,1.50912,0,0,0-.76711-.14795c-.11767.02393-.27266.24951-.38981.52051-.12075.27051-.2202.5791-.346.89648a2.26874,2.26874,0,0,1-.65761,1.00684,1.008,1.008,0,0,1-.84923.17822,1.84491,1.84491,0,0,1-.60775-.29395,10.156,10.156,0,0,1-.79468-.66406,2.36549,2.36549,0,0,0-.63916-.44726.27333.27333,0,0,0-.0855-.02l-.21876-.01026c-.15366-.00244-.3044-.02-.45934-.01562-.30766-.00244-.61664.00683-.92756.03076-.62172.04639-1.2473.13184-1.87778.23828-1.26236.2168-2.54479.5044-3.8994.644a11.5653,11.5653,0,0,1-4.15089-.24609c-2.66552-.66113-4.99649-1.9292-7.37079-2.14648-2.35283-.25977-4.83956.63574-7.52846.98974a11.79768,11.79768,0,0,1-4.14993-.145c-1.34127-.28125-2.58879-.72412-3.81629-1.10693a15.5514,15.5514,0,0,0-3.66972-.77637c-.26409-.18115-.65595.355-1.1275.84766a2.45988,2.45988,0,0,1-.98119.72754,1.03607,1.03607,0,0,1-.8246-.11768,2.06282,2.06282,0,0,1-.46367-.39648c-.2406-.27051-.42915-.53955-.62431-.78321a1.67671,1.67671,0,0,0-.55251-.51709c-.08029-.06738-.35016.08643-.56309.29883-.22277.21-.43724.45752-.67334.69727a1.681,1.681,0,0,1-.9327.57959,1.22782,1.22782,0,0,1-.93-.5625l-.59651-.78174A1.30893,1.30893,0,0,0,301.42623,10.30733Z"/><path class="ff4cabee-b680-477a-9ed6-e80568c669f8" d="M148.83367,26.7446a.61119.61119,0,0,0-.79875.27361c-.06767.24945.15409.501.4453.64349a1.71758,1.71758,0,0,0,1.73042-.15817A.699.699,0,0,0,149.9,26.31371c-.5689-.21021-1.38561.12161-1.3776.58339"/><path class="ab21593c-445a-4397-a912-292bbd9295dd" d="M16.1027,8.987c.451.00049.78174.38086,1.08966.65284a4.17374,4.17374,0,0,0,.91162.773.30383.30383,0,0,0,.34623-.02247,1.84963,1.84963,0,0,0,.374-.377c.2522-.30762.46905-.66894.80231-1.0249a1.37859,1.37859,0,0,1,.78259-.4541,1.26509,1.26509,0,0,1,.93536.31445,11.695,11.695,0,0,1,.9556.93652,2.01863,2.01863,0,0,0,.37186.30274c.13165.04883.00119.00537.02252.00586a3.87972,3.87972,0,0,0,.64795-.72657,6.59948,6.59948,0,0,1,.455-.53613,1.77689,1.77689,0,0,1,.8638-.541,1.825,1.825,0,0,1,.49607-.03125c.12027.00488.24417.001.36093.0166a6.78289,6.78289,0,0,1,.701.09375,17.41175,17.41175,0,0,1,2.55017.73535,15.326,15.326,0,0,0,2.2901.6748,4.70384,4.70384,0,0,0,2.15094-.11181c1.49957-.34229,3.03457-1.20752,4.94623-1.45313a6.69581,6.69581,0,0,1,2.81948.33448c.86289.27,1.64606.62793,2.40824.94482a9.519,9.519,0,0,0,2.26394.68945,6.27324,6.27324,0,0,0,2.331-.17968c1.59341-.33936,3.28583-1.0542,5.01166-.83545-1.70551.17578-3.13877,1.05371-4.76914,1.65332a7.15372,7.15372,0,0,1-2.66455.49707,9.778,9.778,0,0,1-2.63715-.5503c-1.64227-.5205-3.15707-1.186-4.55566-.92138-1.46365.209-2.95456,1.03759-4.73724,1.50634a6.46132,6.46132,0,0,1-2.87229.09473,14.38384,14.38384,0,0,1-2.55413-.8042,16.169,16.169,0,0,0-2.28226-.78613,5.35012,5.35012,0,0,0-.55106-.10156,2.58769,2.58769,0,0,0-.27124-.02539c-.07651-.00977-.238-.00977-.13537-.02.05987-.03614-.07846.0205-.19153.12988a5.22379,5.22379,0,0,0-.39731.40137,3.83835,3.83835,0,0,1-1.18243.99951,1.13045,1.13045,0,0,1-.65024.07568,1.27359,1.27359,0,0,1-.52137-.22363,2.87532,2.87532,0,0,1-.56069-.55029c-.28293-.35205-.51938-.70459-.75211-.93457a.86572.86572,0,0,0-.20053-.15577c-.01874-.019-.16626.04737-.30124.15821-.2847.22314-.56247.55468-.89081.86084a2.35723,2.35723,0,0,1-.59411.43359.83889.83889,0,0,1-.8559-.07861,4.27083,4.27083,0,0,1-.86832-1.01758C16.74809,9.48311,16.52885,9.07686,16.1027,8.987Z"/><path class="ff4cabee-b680-477a-9ed6-e80568c669f8" d="M28.632,12.219a.61119.61119,0,0,0-.79875.27361c-.06767.24944.15408.501.4453.64348a1.71756,1.71756,0,0,0,1.73042-.15816.69894.69894,0,0,0-.31069-1.18982c-.5689-.21021-1.38562.12161-1.3776.58339"/><path class="ff4cabee-b680-477a-9ed6-e80568c669f8" d="M317.03244,16.61075a.61118.61118,0,0,0-.79874.27361c-.06767.24945.15408.501.4453.64349a1.71758,1.71758,0,0,0,1.73042-.15817.699.699,0,0,0-.31069-1.18982c-.5689-.21021-1.38562.12161-1.3776.58339"/><path class="bce34eda-35ba-485c-a4ea-67fc1034e1cd" d="M259.33146,19.99385a22.562,22.562,0,0,0-4.90463,6.06006l-.39568-1.29492a15.6882,15.6882,0,0,0,4.768.666,36.04165,36.04165,0,0,0,4.94233-.374c3.32708-.42969,6.78522-1.188,10.489-1.09375l.789,3.2417a.7196.7196,0,0,0,.28981-.28858.98385.98385,0,0,0,.13673-.55078c-.0384-.29541-.11425-.3125-.11624-.32324-.00627-.002-.00061-.00293.00151.00391a1.4964,1.4964,0,0,0,.21038.07763,3.085,3.085,0,0,0,.62919.103,17.22057,17.22057,0,0,0,1.77645-.022l1.98909-.0791,3.9812-.1045a12.77474,12.77474,0,0,1,2.264.08887,4.86666,4.86666,0,0,1,1.35435.39453,3.36814,3.36814,0,0,1,1.30149,1.08692c.27771.41162.34575.5581.391.604a1.14323,1.14323,0,0,0,.41635.27588,6.41309,6.41309,0,0,0,1.61582.38525c1.27257.18848,2.58339.32862,3.88594.42578,2.61442.23682,5.2522.28028,7.93529.29834A39.54794,39.54794,0,0,1,295.151,31.049c-1.35117.10009-2.6947.15869-4.06953.16113a8.63169,8.63169,0,0,1-2.2928-.30762,3.86574,3.86574,0,0,1-1.31754-.67676,6.28469,6.28469,0,0,1-.85483-.94043c-.12117-.11865-.1022-.064-.24606-.127a3.2461,3.2461,0,0,0-.56723-.09863,10.31282,10.31282,0,0,0-1.71091.05957l-3.96785.34228-1.98541.14453a15.91458,15.91458,0,0,1-2.20084.05713,6.51321,6.51321,0,0,1-1.33212-.21338,4.95991,4.95991,0,0,1-.72455-.26074,3.59881,3.59881,0,0,1-.83133-.53467,3.00132,3.00132,0,0,1-1.06088-2.019,2.51317,2.51317,0,0,1,.35048-1.50537,2.73643,2.73643,0,0,1,1.01-.9585l.78894,3.2417c-3.21095-.08984-6.58277.40674-10.11512.62452a30.4454,30.4454,0,0,1-5.39016-.127,15.86451,15.86451,0,0,1-5.295-1.52392l-1.01261-.50635.61685-.78906A17.64144,17.64144,0,0,1,259.33146,19.99385Z"/><path class="bce34eda-35ba-485c-a4ea-67fc1034e1cd" d="M23.29249,31.42256c-.07449.28027.28589.35693.64734.38037a3.31037,3.31037,0,0,0,1.08191-.18017,2.05274,2.05274,0,0,0,.45587-.22608,1.80718,1.80718,0,0,0,.35449-.33887c.25794-.28857.512-.62109.83234-.9414a3.53514,3.53514,0,0,1,1.229-.8457,2.81334,2.81334,0,0,1,1.64237-.11231,14.58086,14.58086,0,0,1,2.28885,1.16748,2.08371,2.08371,0,0,0,1.63781-.11279,8.71087,8.71087,0,0,0,1.79676-1.19092,23.53517,23.53517,0,0,1,2.07852-1.56006,9.17729,9.17729,0,0,1,2.65481-1.05078,27.327,27.327,0,0,1,5.15357-.57178,23.85942,23.85942,0,0,0,4.59646-.44336,7.60826,7.60826,0,0,0,.96158-.29394,5.15992,5.15992,0,0,0,.79093-.42139,3.032,3.032,0,0,0,1.13546-1.24463c.31894-.56592.59082-1.32812,1.02631-2.16406A6.54317,6.54317,0,0,1,55.65861,18.861a7.66377,7.66377,0,0,1,5.721-1.0293,17.98981,17.98981,0,0,1,4.95672,1.73047c.76029.377,1.51688.83154,2.20716,1.25586.68728.41943,1.38205.82519,2.09512,1.186a14.50391,14.50391,0,0,0,4.47543,1.4834,5.883,5.883,0,0,0,4.31159-.94092c1.19574-.88818,1.86413-2.40966,2.961-3.76416A22.23919,22.23919,0,0,1,90.533,12.76485a37.359,37.359,0,0,1,9.71234-2.94141c3.49988-.55371,6.88806-.166,10.04108-.189a16.88642,16.88642,0,0,0,4.45981-.48974c.73452-.19238,1.51834-.45752,2.44015-.66553a8.27137,8.27137,0,0,1,3.11621-.15771,8.14382,8.14382,0,0,1,5.17478,3.40136,30.40463,30.40463,0,0,1,2.39,4.61475,6.85121,6.85121,0,0,0,2.507,2.89844,5.41134,5.41134,0,0,0,3.58356.644,10.14426,10.14426,0,0,0,3.90783-1.58936c1.25989-.79443,2.58853-1.88378,4.14215-2.77392a11.43605,11.43605,0,0,1,5.21061-1.583,30.34489,30.34489,0,0,1,5.086.25977c3.274.34765,6.54715.71386,9.81708,1.15332l-.01547.34717c-3.296.14648-6.58881.22021-9.88074.2749a35.42338,35.42338,0,0,0-4.76266.2539,9.4407,9.4407,0,0,0-4.01541,1.62207c-1.24964.83545-2.39072,1.94092-3.83774,3.00879a13.33331,13.33331,0,0,1-5.054,2.34082,8.555,8.555,0,0,1-5.95062-.86718,10.43942,10.43942,0,0,1-4.03391-4.29493,34.44579,34.44579,0,0,0-2.10055-4.14453,4.96126,4.96126,0,0,0-2.78653-1.998c-.992-.23633-2.381.17724-4.11322.60058a20.24242,20.24242,0,0,1-5.32715.41309c-3.40875-.10791-6.60458-.57959-9.65231-.3125a38.42694,38.42694,0,0,0-9.33341,1.9331,18.97017,18.97017,0,0,0-7.96444,5.01368c-1.05848,1.11328-1.73771,2.75634-3.2324,3.855a7.24883,7.24883,0,0,1-5.06607,1.21533,17.5408,17.5408,0,0,1-4.93933-1.29981c-.79016-.30322-1.55734-.65088-2.31527-1.01269-.75187-.36182-1.44434-.68555-2.191-.96582a15.28266,15.28266,0,0,0-4.46238-1.0542,5.26449,5.26449,0,0,0-3.69952.90478A3.61,3.61,0,0,0,56.374,22.6042c-.28451.64111-.55749,1.437-1.02728,2.31543a6.19427,6.19427,0,0,1-2.1304,2.36621,7.70689,7.70689,0,0,1-2.78964,1.11133,26.33043,26.33043,0,0,1-5.20856.39355,26.4315,26.4315,0,0,0-4.654.25245,7.64891,7.64891,0,0,0-1.96149.62011,21.71945,21.71945,0,0,0-1.9704,1.24659,10.13375,10.13375,0,0,1-2.43942,1.29687,4.08421,4.08421,0,0,1-3.15585-.207c-.958-.54053-1.44434-1.17334-1.92813-1.34326a1.591,1.591,0,0,0-1.6377.3706c-.29373.22608-.59857.498-.93677.77442-.088.07031-.16537.1333-.27206.208a1.90321,1.90321,0,0,1-.3483.19825,2.91865,2.91865,0,0,1-.69324.20947,3.58064,3.58064,0,0,1-1.3641-.03027,1.84355,1.84355,0,0,1-.66962-.291.65187.65187,0,0,1-.22326-.78662Z"/></g></svg>