<svg id="e3055b90-ee71-4fa1-9609-2b5d1b0ebf7c" data-name="Layer 1" xmlns="http://www.w3.org/2000/svg" xmlns:xlink="http://www.w3.org/1999/xlink" viewBox="0 0 424.82919 42.02545" preserveAspectRatio="none"><defs><style>.a5c696a4-06b1-44d7-a68f-a9dcb858ef73,.b0950242-06b1-47fc-acb6-2a338fc5fb71,.bbb3bea0-8cf5-4679-b0ed-4d30c544750c{fill:none; }.b34e5836-b233-4dde-8b32-956c6c19b8ed{fill:#754c29;}.aa202221-7da8-46d7-9396-4cae1ac9c4c5{clip-path:url(#bfb54bfc-b786-4f2b-8ab1-375e2eda58d3);}.ad13d0c6-7f86-4ac5-b69f-72af66b268c5{fill:#7f5436;}.aca9a65b-fe66-42cb-9dc3-2336e92d4b9c{fill:#8b5e3c; }.b0950242-06b1-47fc-acb6-2a338fc5fb71{stroke:#754c29;}.b0950242-06b1-47fc-acb6-2a338fc5fb71,.bbb3bea0-8cf5-4679-b0ed-4d30c544750c{stroke-miterlimit:10;stroke-width:1.73765px;}.b77da5d0-aa28-43df-8bd8-6e1ef102009c{fill:#664126;}.bbb3bea0-8cf5-4679-b0ed-4d30c544750c{stroke:#664126;}</style><clipPath id="bfb54bfc-b786-4f2b-8ab1-375e2eda58d3"><path class="a5c696a4-06b1-44d7-a68f-a9dcb858ef73" d="M23.348,6.57584a69.05561,69.05561,0,0,1,10.73443-.83216c6.38747-.052,12.72776.65526,19.10016.65427l93.38873-.01488L260.11717,6.365l99.27554-.01581c16.02087-.00255,34.18611,1.83375,49.67271-.6238a6.1937,6.1937,0,0,1,3.18944.04111A3.17718,3.17718,0,0,1,413.937,7.84343q2.32866,6.15773,4.50527,12.34481A3.2708,3.2708,0,0,1,418.673,22.473c-.4285,1.08078-1.88614,1.747-2.84019,2.635-3.52654,3.28245.06891,9.16036-4.53933,11.646q-.53178.28683-1.10069.52317c-5.451,2.27407-13.28213,1.26245-19.5894,1.26345l-30.76818.0049-88.21977.01405L168.88726,38.576l-91.95315.01464-55.89475.0089c-7.92251.00127-10.52309-6.09748-10.02711-10.87509a5.40216,5.40216,0,0,0-.159-3.1672c-.92289-1.76439-4.06068-2.77942-4.18662-4.66355-.09118-1.3641,1.49842-2.48655,1.8786-3.82436a4.48775,4.48775,0,0,0-.009-1.89421L7.66622,8.281a.7604.7604,0,0,1,.21755-.80667,1.71065,1.71065,0,0,1,.99851-.16865c4.60086.15536,7.46507.71273,11.81868-.22755Q22.02944,6.79124,23.348,6.57584Z"/></clipPath></defs><title>Artboard 118</title><path class="b34e5836-b233-4dde-8b32-956c6c19b8ed" d="M23.35051,6.54568a69.05544,69.05544,0,0,1,10.73457-.83045c6.38748-.05093,12.72765.65728,19.10006.65731H359.39523c16.02087,0,34.18582,1.83919,49.67281-.6159a6.19386,6.19386,0,0,1,3.18944.04162,3.1772,3.1772,0,0,1,1.68184,2.07721q2.32768,6.1581,4.5033,12.34553a3.27081,3.27081,0,0,1,.23029,2.28481c-.42867,1.0807-1.88641,1.74673-2.84061,2.6346-3.52706,3.28188.06745,9.16036-4.54118,11.64528q-.53184.28675-1.10077.523C404.739,39.58188,396.908,38.569,390.60074,38.569H21.03675c-7.92251,0-10.52213-6.09917-10.02538-10.8767a5.40215,5.40215,0,0,0-.15847-3.16722C9.93029,22.76056,6.79267,21.745,6.667,19.86088c-.091-1.36411,1.49882-2.48631,1.87922-3.82405a4.48772,4.48772,0,0,0-.00866-1.89421L7.66843,8.24837a.76041.76041,0,0,1,.21768-.80663,1.71066,1.71066,0,0,1,.99855-.16849c4.60083.15609,7.46495.71391,11.81871-.22567Q22.03189,6.76087,23.35051,6.54568Z"/><g class="aa202221-7da8-46d7-9396-4cae1ac9c4c5"><path class="ad13d0c6-7f86-4ac5-b69f-72af66b268c5" d="M351.56374-2.589c14.52047.04594,29.47143.2148,42.85386,4.28689,12.499,3.80327,22.614,10.70617,32.43337,17.46651-1.09642-.75486-16.09847,3.33051-18.19209,3.73932q-9.12488,1.78173-18.309,3.39953-18.36689,3.24219-36.91342,5.917-19.015,2.76809-38.14872,5.084C303.59,38.73651,291.799,39.23659,280.14317,40.646c-7.42256.89755-15.209,2.3255-22.29042.48516-2.12471-.55217-4.08783-1.3808-6.14-2.06129-5.64434-1.8716-11.87076-2.59611-18.02707-3.186-14.30515-1.37068-28.72525-2.11184-43.1547-2.22729-15.68449-.1255-31.38039.48823-46.95479,1.83616q-11.68054,1.01092-23.25322,2.57183c-6.37564.86041-13.352,2.99265-19.52949,1.60734C71.76741,33.1628,44.377,23.78832,13.3982,23.17312,7.67518,23.05947.479,22.54119-1.38554,18.629c4.33433-1.76211,8.50967-3.90037,12.85652-5.5882C15.45216,11.495,20.0115,11.384,24.44552,10.94523q17.56961-1.73873,35.18589-3.2177C64.66271,7.30433,70.46,6.20637,75.40857,6.6941c5.85351.57691,11.3824,1.93329,17.4229,2.23137a475.73585,475.73585,0,0,0,47.88272-.05205c5.52562-.28474,11.20006-.69813,16.12288-2.53451,4.24118-1.5821,8.15807-4.2478,12.92425-4.06988,3.10165.11579,5.82044,1.443,8.50454,2.57212,16.838,7.08329,37.43051,7.46533,56.85455,6.36634s39.026-3.47942,58.25778-1.22568a10.87107,10.87107,0,0,0,4.04671-.01432c1.876-.51135,2.85088-1.96218,3.78537-3.24432a31.863,31.863,0,0,1,7.3478-7.1676c3.73418-2.64364,6.84626-2.12913,11.93969-2.14577Q336.03065-2.64094,351.56374-2.589Z"/><path class="aca9a65b-fe66-42cb-9dc3-2336e92d4b9c" d="M8.56751,14.00433c17.02069,2.47315,33.99805,5.57617,51.06058,6.04346,8.51227.26416,16.9982-.52246,25.57547-1.29981,4.2854-.397,8.5979-.73144,12.93811-.88916,4.34363-.18066,8.68536-.07421,13.00375.10108,8.63965.41162,17.19345,1.29785,25.75534,1.74023q6.42252.35376,12.86341.481,6.43912.104,12.8843.00146c17.18854-.26318,34.34424-1.54785,51.55289-2.26953,8.6034-.34814,17.23148-.60986,25.8616-.39746,8.63044.15381,17.2479.605,25.83707,1.24658,17.1857,1.2251,34.2981,2.876,51.40611,3.80079,2.13807.10742,4.27654.24511,6.41474.32714l6.415.2212c4.2755.06543,8.5522.14013,12.82436.07324a238.56758,238.56758,0,0,0,25.58043-1.61621c8.51856-.98,17.08642-2.07959,25.7276-2.54248A103.41054,103.41054,0,0,1,407.246,19.124a68.50127,68.50127,0,0,1,12.78481,2.07031l-.0789.33838a75.47863,75.47863,0,0,0-12.7581-1.28808,121.82929,121.82929,0,0,0-12.80126.53466c-8.52168.76661-16.969,2.29786-25.50918,3.48487A241.69793,241.69793,0,0,1,343.039,26.53265c-8.64913.332-17.30179.13184-25.92279-.26806Q304.18513,25.59,291.325,24.38177c-8.57063-.79443-17.12523-1.63037-25.68-2.36084-8.55527-.72119-17.10692-1.38574-25.66881-1.74951q-12.84036-.54565-25.72857-.45654c-17.18161.11523-34.37012.96631-51.57331,1.49414-4.30151.13428-8.60531.24512-12.91232.30029q-6.46023.12012-12.93014.02442c-8.62967-.11719-17.22675-.65088-25.77967-.78272q-6.41436-.14721-12.78973.1001c-4.25385.17676-8.51618.53271-12.799.86328-4.2818.3418-8.58261.70361-12.91.92236-4.325.21631-8.6943.20264-13.02508.00245-17.3685-.87354-34.24173-4.69971-51.02329-8.39307Z"/><path class="b34e5836-b233-4dde-8b32-956c6c19b8ed" d="M410.71564,11.44232q-5.22109,1.05909-10.504,1.80127c-3.51868.49951-7.04972.93408-10.59383,1.23291q-5.31468.46289-10.65051.66553c-3.55567.1289-7.11611.19531-10.6756.12988l-.00008-1.31641q11.43766-.29882,22.88088-.36279c7.62854-.07178,15.25682.08789,22.88292.24317l.11474,1.43261c-3.388.606-6.792,1.11231-10.19482,1.61035q-5.10618.73681-10.22241,1.37745c-6.81971.86865-13.65277,1.59814-20.4716,2.43066l-.04017-.63477c6.5204.002,13.0409.03321,19.561-.03418,6.52023-.04638,13.0405-.07812,19.56054-.17675l.0271.77978-26.83544,2.00879-13.41617,1.00293A100.53249,100.53249,0,0,0,358.909,25.29193l-.13093-1.61621q12.14671.52076,24.25385,1.72851c4.03415.398,8.05743.89942,12.07553,1.4336q6.02622.80932,12.02728,1.79346l-.14152,1.76806-35.03631-.03711-17.5155.07129-17.51509.21045.05411-.66748a50.16522,50.16522,0,0,0,14.74743.88916l.01816.17285a50.58512,50.58512,0,0,1-14.895-.40088l-2.93338-.5205,2.98749-.14649c5.836-.28662,11.676-.46875,17.51593-.65088q8.7601-.27612,17.52314-.39355l17.52427-.22461c5.84121-.06934,11.68216-.05567,17.52241-.08155l-.14152,1.76807q-5.9775-.96167-11.98115-1.74951c-4.00121-.53174-8.01256-.98-12.02493-1.41748q-12.03894-1.29858-24.1416-1.9126l-6.40313-.32519,6.27221-1.29053a93.29482,93.29482,0,0,1,13.46639-1.542l13.43467-.77246,26.86661-1.53614.0271.7793c-6.52058-.05225-13.04091-.0376-19.5613-.03711-6.52046-.02148-13.04057.05664-19.56078.105l-.04018-.63476c6.81655-.85059,13.61947-1.8042,20.41058-2.80909q5.09236-.76024,10.16959-1.60009c3.38492-.55811,6.75775-1.17969,10.12923-1.79834l.11473,1.43261c-7.61724-.14111-15.23536-.11963-22.853-.17285q-11.4269-.03516-22.85393.165l-.00006-1.31641c3.53691.08936,7.07669.13526,10.61644.07032q5.30947-.08864,10.613-.438c3.53328-.24268,7.06638-.52295,10.58964-.91455q5.28486-.58447,10.54564-1.40235Z"/><path class="b0950242-06b1-47fc-acb6-2a338fc5fb71" d="M11.54134,12.16377C20.117,9.58668,29.64158,6.97439,38.43948,9.12345q-12.01862,5.74076-24.612,10.81719c10.48922,1.08125,20.49054-4.569,31.04985-3.93723A298.07056,298.07056,0,0,0,8.11869,31.93676c4.72213.6845,9.50681-.60666,14.06545-1.73026A217.04736,217.04736,0,0,1,67.19192,24.09L19.162,37.158c21.05375-4.0756,42.578-8.18691,64.32246-7.11338L42.92647,37.65473A358.96114,358.96114,0,0,0,85.6197,30.25115C72.323,25.27726,55.03407,25.70662,44.4913,18.02333l39.95244-4.27951c-1.12469-1.76906-4.48066-1.8919-7.16711-1.748L50.45084,13.43309a622.32052,622.32052,0,0,1,83.57906-.82783c-12.93206.87871-25.93883,2.0749-38.21358,5.14592S71.93271,25.91159,64.10345,33.40294q53.11305-5.69835,106.8506-7.41274"/><path class="b77da5d0-aa28-43df-8bd8-6e1ef102009c" d="M107.05921,28.92328c.451.00049.78174.38135,1.08966.65283a4.17622,4.17622,0,0,0,.91162.77344.30462.30462,0,0,0,.34619-.02246,1.87423,1.87423,0,0,0,.374-.377c.25216-.3081.469-.66943.8023-1.02539a1.37841,1.37841,0,0,1,.7826-.45361,1.2651,1.2651,0,0,1,.93536.314,11.78216,11.78216,0,0,1,.9556.93653,2.04535,2.04535,0,0,0,.37185.30322c.13166.04883.00119.00488.02253.00537a3.88982,3.88982,0,0,0,.64795-.72607,6.51574,6.51574,0,0,1,.45492-.53662,1.777,1.777,0,0,1,.86383-.541,1.86811,1.86811,0,0,1,.49606-.03125c.12027.00488.24418.001.36094.01709a6.78572,6.78572,0,0,1,.701.09326,17.53341,17.53341,0,0,1,2.55014.73535,15.21429,15.21429,0,0,0,2.2901.67481,4.6974,4.6974,0,0,0,2.151-.11182c1.49954-.3418,3.03457-1.20752,4.94623-1.45264a6.70367,6.70367,0,0,1,2.81948.334c.86289.27,1.64606.62793,2.40824.94531a9.56379,9.56379,0,0,0,2.26394.68945,6.28368,6.28368,0,0,0,2.331-.18017c1.59341-.33936,3.28583-1.0542,5.01166-.835-1.70551.17578-3.13877,1.05371-4.76914,1.65332a7.173,7.173,0,0,1-2.66455.49707,9.7786,9.7786,0,0,1-2.63715-.55078c-1.64227-.52-3.15707-1.18555-4.55569-.92139-1.46362.209-2.95453,1.03809-4.73721,1.50684a6.46876,6.46876,0,0,1-2.87232.09424,14.34462,14.34462,0,0,1-2.55411-.8042,16.10394,16.10394,0,0,0-2.28225-.78565,5.35614,5.35614,0,0,0-.55106-.10205,2.59114,2.59114,0,0,0-.27124-.02539c-.07651-.00928-.238-.00977-.13538-.02.05985-.03613-.07846.021-.19152.12988a5.22742,5.22742,0,0,0-.39731.40137,3.83877,3.83877,0,0,1-1.18244.99951,1.12642,1.12642,0,0,1-.65023.07569,1.28016,1.28016,0,0,1-.52137-.22315,2.86309,2.86309,0,0,1-.5607-.55078c-.28292-.35205-.51937-.70459-.75213-.93408a.86087.86087,0,0,0-.2005-.15625c-.01874-.01905-.16629.04785-.30124.1582-.2847.22315-.56247.55469-.89084.86133a2.34323,2.34323,0,0,1-.59409.4331.83775.83775,0,0,1-.85589-.07861,4.27848,4.27848,0,0,1-.86835-1.01709C107.7046,29.41937,107.48536,29.01361,107.05921,28.92328Z"/><path class="b77da5d0-aa28-43df-8bd8-6e1ef102009c" d="M305.48946,13.2431a1.36713,1.36713,0,0,1,.847.47656l.69049.69141c.221.21338.4974.43018.70146.38232.21166-.03759.43738-.29345.63046-.52685.19886-.24609.38651-.51367.61393-.77588a2.17163,2.17163,0,0,1,.40974-.38037.88168.88168,0,0,1,.692-.1709,2.07053,2.07053,0,0,1,.97467.65674c.23748.24365.45155.48926.66644.686a1.50871,1.50871,0,0,0,.29489.21631c.09081.03565.08313.02246.11206.01221a1.98082,1.98082,0,0,0,.51244-.50146c.19737-.24073.38713-.50928.65109-.78565a2.07553,2.07553,0,0,1,.51866-.40771,1.16318,1.16318,0,0,1,.44746-.12793c.13608-.00977.18659-.00293.2842-.00538a15.62105,15.62105,0,0,1,4.00977.60938c1.28169.32568,2.52.69189,3.74.917a10.17764,10.17764,0,0,0,3.63227.01026c2.45665-.34961,5.02039-1.33887,7.92563-1.09327,2.8619.32666,5.21772,1.667,7.60507,2.27979,2.33683.73633,4.80971.1665,7.45484-.14551.66077-.07617,1.333-.1333,2.014-.14892.34082-.00782.68376-.00049,1.02817.02.1714.00439.34476.03125.51645.04882l.26813.03272a1.48361,1.48361,0,0,1,.38131.11963,3.32453,3.32453,0,0,1,.92183.71484c.23714.23731.45484.47754.65933.64307a1.08869,1.08869,0,0,0,.25039.16211c.05284.0166.01576.02.07513-.002a1.65335,1.65335,0,0,0,.41742-.60058c.14375-.27637.27451-.57959.4512-.88965a1.46436,1.46436,0,0,1,.93837-.82178,1.99759,1.99759,0,0,1,1.11345.28076c.30263.15088.58257.313.86411.4419a1.01262,1.01262,0,0,0,.77363.125,1.75729,1.75729,0,0,0,.57674-.65479c.17372-.2705.33446-.55957.52682-.83008a1.213,1.213,0,0,1,.76592-.59375,1.1546,1.1546,0,0,0-.65424.6626c-.14975.28467-.26816.58692-.40828.8877a1.95941,1.95941,0,0,1-.63487.84765,1.359,1.359,0,0,1-1.11317-.01562c-.32517-.11084-.62581-.24805-.92035-.35889a1.50924,1.50924,0,0,0-.76711-.14795c-.11767.02344-.27266.249-.38981.52051-.12075.27051-.2202.5791-.346.89649a2.27134,2.27134,0,0,1-.65761,1.00683,1.00617,1.00617,0,0,1-.84923.17774,1.83564,1.83564,0,0,1-.60776-.29346,10.162,10.162,0,0,1-.79467-.66406,2.36556,2.36556,0,0,0-.63916-.44727.29408.29408,0,0,0-.0855-.02051l-.21876-.00976c-.15366-.00244-.3044-.02051-.45934-.01563-.30766-.00244-.61664.00684-.92757.03076-.62171.04639-1.24729.13184-1.87777.23829-1.26236.21679-2.54479.5039-3.8994.644a11.56513,11.56513,0,0,1-4.1509-.2461c-2.66551-.66113-4.99649-1.92919-7.37078-2.147-2.35283-.25928-4.83956.63623-7.52846.99024a11.79815,11.79815,0,0,1-4.14993-.145c-1.34127-.28125-2.5888-.72461-3.81629-1.10743a15.5746,15.5746,0,0,0-3.66972-.77587c-.26409-.18116-.656.355-1.1275.84716a2.45537,2.45537,0,0,1-.98119.72754,1.038,1.038,0,0,1-.8246-.11718,2.06284,2.06284,0,0,1-.46367-.39649c-.2406-.27051-.42915-.53955-.62431-.7832a1.67124,1.67124,0,0,0-.55251-.51709c-.08029-.06738-.35016.08642-.56309.29883-.22277.21-.43724.457-.67334.69726a1.68093,1.68093,0,0,1-.9327.57959,1.22914,1.22914,0,0,1-.93-.5625l-.59651-.78223A1.31308,1.31308,0,0,0,305.48946,13.2431Z"/><path class="bbb3bea0-8cf5-4679-b0ed-4d30c544750c" d="M152.8969,29.68077a.61119.61119,0,0,0-.79875.27361c-.06767.24945.15409.501.4453.64349a1.71758,1.71758,0,0,0,1.73042-.15817.699.699,0,0,0-.31069-1.18982c-.5689-.21021-1.38562.12161-1.3776.58339"/><path class="b77da5d0-aa28-43df-8bd8-6e1ef102009c" d="M20.16593,11.92279c.451.00049.78174.38135,1.08966.65332a4.17374,4.17374,0,0,0,.91162.77295.30381.30381,0,0,0,.34622-.02246,1.86212,1.86212,0,0,0,.374-.377c.25219-.3081.469-.66894.8023-1.0249a1.37608,1.37608,0,0,1,.7826-.4541,1.267,1.267,0,0,1,.93536.314,11.69518,11.69518,0,0,1,.9556.937,2.03918,2.03918,0,0,0,.37185.30273c.13166.04883.00119.00537.02253.00537a3.85547,3.85547,0,0,0,.648-.72607,6.515,6.515,0,0,1,.455-.53613,1.77689,1.77689,0,0,1,.8638-.541,1.82538,1.82538,0,0,1,.49606-.03125c.12027.00488.24418.00049.36094.0166a6.78562,6.78562,0,0,1,.701.09375,17.413,17.413,0,0,1,2.55017.73535,15.26535,15.26535,0,0,0,2.2901.67432,4.69705,4.69705,0,0,0,2.15094-.11133c1.49957-.34228,3.03457-1.20752,4.94623-1.45312a6.69566,6.69566,0,0,1,2.81948.33447c.86289.27,1.64606.62793,2.40824.94482a9.519,9.519,0,0,0,2.26394.68946,6.273,6.273,0,0,0,2.331-.17969c1.59341-.33936,3.28583-1.0542,5.01166-.83545-1.70551.17578-3.13877,1.05371-4.76914,1.65332a7.15332,7.15332,0,0,1-2.66455.49707,9.76,9.76,0,0,1-2.63715-.55078c-1.64227-.52-3.15707-1.18555-4.55566-.9209-1.46365.209-2.95456,1.0376-4.73724,1.50635a6.46146,6.46146,0,0,1-2.87229.09473A14.42535,14.42535,0,0,1,32.264,13.58a16.169,16.169,0,0,0-2.28225-.78614,5.35281,5.35281,0,0,0-.55106-.10156,2.59254,2.59254,0,0,0-.27124-.02588c-.07651-.00928-.238-.00976-.13538-.01953.05988-.03662-.07846.02051-.19152.12988a5.22742,5.22742,0,0,0-.39731.40137,3.83778,3.83778,0,0,1-1.18244.999,1.12636,1.12636,0,0,1-.65023.07618,1.27359,1.27359,0,0,1-.52137-.22364,2.87568,2.87568,0,0,1-.5607-.55029c-.28292-.35205-.51937-.70459-.7521-.93457a.86543.86543,0,0,0-.20053-.15576c-.01874-.019-.16626.04736-.30124.15771-.2847.22364-.56247.55518-.89081.86133a2.35687,2.35687,0,0,1-.59412.43359.83779.83779,0,0,1-.85589-.0791,4.26881,4.26881,0,0,1-.86832-1.01709C20.81132,12.41937,20.59208,12.01312,20.16593,11.92279Z"/><path class="bbb3bea0-8cf5-4679-b0ed-4d30c544750c" d="M32.69518,15.15514a.61118.61118,0,0,0-.79874.27361c-.06767.24944.15408.501.4453.64348a1.71756,1.71756,0,0,0,1.73042-.15816.69894.69894,0,0,0-.31069-1.18982c-.5689-.21021-1.38562.12161-1.3776.58339"/><path class="bbb3bea0-8cf5-4679-b0ed-4d30c544750c" d="M321.09567,19.54692a.61118.61118,0,0,0-.79874.27361c-.06768.24945.15408.501.4453.64349a1.71756,1.71756,0,0,0,1.73041-.15817A.69894.69894,0,0,0,322.162,19.116c-.5689-.21021-1.38562.12161-1.3776.58339"/><path class="aca9a65b-fe66-42cb-9dc3-2336e92d4b9c" d="M263.39469,22.93011a22.55461,22.55461,0,0,0-4.90463,6.06006l-.39568-1.29492a15.68847,15.68847,0,0,0,4.76795.666,36.11908,36.11908,0,0,0,4.94233-.374c3.32708-.42969,6.78522-1.188,10.489-1.09375l.789,3.24121a.7139.7139,0,0,0,.28981-.28808.98478.98478,0,0,0,.13673-.55078c-.0384-.29541-.11426-.3125-.11624-.32373-.00627-.00147-.00061-.00245.00151.00439a1.4416,1.4416,0,0,0,.21037.07715,3.04929,3.04929,0,0,0,.6292.10351,17.35434,17.35434,0,0,0,1.77644-.022l1.98909-.0791,3.98121-.10449a12.77379,12.77379,0,0,1,2.264.08887,4.866,4.866,0,0,1,1.35435.39453,3.36812,3.36812,0,0,1,1.30149,1.08691c.27771.41162.34574.55762.391.60352a1.13675,1.13675,0,0,0,.41635.27636,6.41349,6.41349,0,0,0,1.61582.38526c1.27256.18847,2.58339.32861,3.88594.42578,2.61442.23681,5.25219.28027,7.93528.29834a39.51249,39.51249,0,0,1-7.93075,1.47363c-1.35117.10059-2.6947.15869-4.06953.16162a8.63364,8.63364,0,0,1-2.29281-.3081,3.86381,3.86381,0,0,1-1.31753-.67627,6.2852,6.2852,0,0,1-.85483-.94043c-.12117-.11914-.1022-.064-.24606-.127a3.20062,3.20062,0,0,0-.56723-.09863,10.31282,10.31282,0,0,0-1.71091.05957l-3.96785.34229-1.98541.14453a15.84559,15.84559,0,0,1-2.20084.05664,6.47772,6.47772,0,0,1-1.33212-.21289,5.01778,5.01778,0,0,1-.72455-.26074,3.59947,3.59947,0,0,1-.83133-.53467,3.00132,3.00132,0,0,1-1.06088-2.019,2.51163,2.51163,0,0,1,.35048-1.50538,2.73624,2.73624,0,0,1,1.01-.95849l.78894,3.24121c-3.21095-.08936-6.58278.40723-10.11512.625a30.44539,30.44539,0,0,1-5.39016-.127,15.854,15.854,0,0,1-5.295-1.52442l-1.01261-.50586.61685-.78906A17.64144,17.64144,0,0,1,263.39469,22.93011Z"/><path class="aca9a65b-fe66-42cb-9dc3-2336e92d4b9c" d="M27.35572,34.35834c-.07449.28076.28589.35742.64734.38086a3.31108,3.31108,0,0,0,1.08191-.18067,2.031,2.031,0,0,0,.45587-.22558,1.82217,1.82217,0,0,0,.35449-.33887c.25794-.28858.512-.6211.83234-.94141a3.53527,3.53527,0,0,1,1.229-.8457,2.81334,2.81334,0,0,1,1.64237-.11231,14.58132,14.58132,0,0,1,2.28885,1.16748,2.08367,2.08367,0,0,0,1.63781-.11279,8.71087,8.71087,0,0,0,1.79676-1.19092A23.63,23.63,0,0,1,41.401,30.39789a9.18972,9.18972,0,0,1,2.65481-1.0503,27.327,27.327,0,0,1,5.15357-.57177,23.85942,23.85942,0,0,0,4.59646-.44336,7.68934,7.68934,0,0,0,.96158-.294,5.16036,5.16036,0,0,0,.79093-.42138,3.03216,3.03216,0,0,0,1.13546-1.24463c.31894-.56592.59082-1.32813,1.02631-2.16407a6.54325,6.54325,0,0,1,2.00174-2.41113,7.66152,7.66152,0,0,1,5.721-1.0293,17.99058,17.99058,0,0,1,4.95672,1.73047c.76029.377,1.51688.83106,2.20716,1.25586.68728.41944,1.38205.82471,2.09512,1.186a14.50417,14.50417,0,0,0,4.47543,1.4834,5.8854,5.8854,0,0,0,4.31159-.94092c1.19574-.88819,1.86413-2.40967,2.961-3.76416a22.23933,22.23933,0,0,1,8.14642-6.01758,37.34018,37.34018,0,0,1,9.71234-2.94141c3.49988-.55371,6.88806-.1665,10.04108-.189a16.90728,16.90728,0,0,0,4.45981-.48975c.73452-.19238,1.51834-.45752,2.44015-.66552a8.27091,8.27091,0,0,1,3.11621-.15821,8.14638,8.14638,0,0,1,5.17478,3.40186,30.42437,30.42437,0,0,1,2.39,4.61426,6.84968,6.84968,0,0,0,2.507,2.89892,5.41133,5.41133,0,0,0,3.58356.644A10.1443,10.1443,0,0,0,141.929,21.227c1.25989-.79492,2.58853-1.88428,4.14215-2.77393a11.43032,11.43032,0,0,1,5.2106-1.583,30.345,30.345,0,0,1,5.086.25977c3.274.34766,6.54715.71387,9.81708,1.15283l-.01547.34717c-3.296.14648-6.58881.2207-9.88074.27539a35.42169,35.42169,0,0,0-4.76266.25391,9.43988,9.43988,0,0,0-4.01542,1.62158c-1.24963.83594-2.39071,1.94092-3.83773,3.00928a13.33361,13.33361,0,0,1-5.054,2.34082,8.55776,8.55776,0,0,1-5.95062-.86719,10.43933,10.43933,0,0,1-4.03391-4.29492,34.45675,34.45675,0,0,0-2.10055-4.145,4.96261,4.96261,0,0,0-2.78653-1.99756c-.992-.23633-2.381.17725-4.11322.6001a20.22165,20.22165,0,0,1-5.32715.41308c-3.40875-.10742-6.60458-.5791-9.65231-.312A38.427,38.427,0,0,0,95.321,17.46039a18.97035,18.97035,0,0,0-7.96445,5.01367c-1.05847,1.11328-1.7377,2.75635-3.23239,3.85449a7.24667,7.24667,0,0,1-5.06607,1.21582,17.54078,17.54078,0,0,1-4.93933-1.2998c-.79016-.30323-1.55734-.65137-2.31528-1.0127-.75186-.36182-1.44433-.686-2.191-.96582a15.28284,15.28284,0,0,0-4.46237-1.0542,5.26448,5.26448,0,0,0-3.69952.90479,3.60633,3.60633,0,0,0-1.01331,1.42383c-.28451.64111-.55749,1.437-1.02728,2.31494a6.19213,6.19213,0,0,1-2.1304,2.3667A7.697,7.697,0,0,1,54.48994,31.333a26.33324,26.33324,0,0,1-5.20856.394,26.43057,26.43057,0,0,0-4.654.25244,7.66711,7.66711,0,0,0-1.96149.61963,21.8398,21.8398,0,0,0-1.9704,1.24707A10.15062,10.15062,0,0,1,38.25605,35.143a4.08629,4.08629,0,0,1-3.15585-.207c-.958-.54052-1.44434-1.17334-1.92813-1.34326a1.59,1.59,0,0,0-1.6377.37061c-.29373.22607-.59857.49756-.93677.77441-.088.07031-.16537.1333-.27206.208a1.90314,1.90314,0,0,1-.3483.19824,2.91865,2.91865,0,0,1-.69324.20947,3.58043,3.58043,0,0,1-1.3641-.03027,1.84338,1.84338,0,0,1-.66962-.291.65219.65219,0,0,1-.22326-.78662Z"/></g></svg>