<svg id="bad99fed-b5bb-4096-a06d-b2d650b484de" data-name="Layer 1" xmlns="http://www.w3.org/2000/svg" xmlns:xlink="http://www.w3.org/1999/xlink" viewBox="0 0 424.82919 42.02545" preserveAspectRatio="none"><defs><style>.a75696a9-91e6-4a75-9c0a-5133d9330742,.a8413d87-d493-4133-9bf2-58ca8cd89527,.b5abeca1-213e-49d9-aaad-84e9bba2ad27{fill:none;
}.ea71cef7-4bb8-4055-9fa8-f780ef7bc0d1{fill:#5bbf90;stroke:#5bbf90;stroke-width:5px;}.a75696a9-91e6-4a75-9c0a-5133d9330742,.b5abeca1-213e-49d9-aaad-84e9bba2ad27,.ea71cef7-4bb8-4055-9fa8-f780ef7bc0d1{stroke-miterlimit:10;}.a8698e6a-567a-4cf6-83f8-e196ab0de2f6{fill:#754c29;}.a74e7c9d-9796-4eae-941c-c1682cbbbdc6{clip-path:url(#ac2a35d6-bb4e-4b1b-83d6-3e61c6451988);}.eccc13da-a6ea-445c-8150-2b47699af8e4{fill:#7f5436;}.ac18034e-2c63-4e9a-a730-2d128997d07b{fill:#8b5e3c;}.a75696a9-91e6-4a75-9c0a-5133d9330742{stroke:#754c29;}.a75696a9-91e6-4a75-9c0a-5133d9330742,.b5abeca1-213e-49d9-aaad-84e9bba2ad27{stroke-width:1.73765px;}.f71b1809-6cf9-48ef-9ed6-f685b8c460bc{fill:#664126;}.b5abeca1-213e-49d9-aaad-84e9bba2ad27{stroke:#664126;}</style><clipPath id="ac2a35d6-bb4e-4b1b-83d6-3e61c6451988"><path class="a8413d87-d493-4133-9bf2-58ca8cd89527" d="M23.348,6.57584a69.05561,69.05561,0,0,1,10.73443-.83216c6.38747-.052,12.72776.65526,19.10016.65427l93.38873-.01488L260.11717,6.365l99.27554-.01581c16.02087-.00255,34.18611,1.83375,49.67271-.6238a6.1937,6.1937,0,0,1,3.18944.04111A3.17718,3.17718,0,0,1,413.937,7.84343q2.32866,6.15773,4.50527,12.34481A3.2708,3.2708,0,0,1,418.673,22.473c-.4285,1.08078-1.88614,1.747-2.84019,2.635-3.52654,3.28245.06891,9.16036-4.53933,11.646q-.53178.28683-1.10069.52317c-5.451,2.27407-13.28213,1.26245-19.5894,1.26345l-30.76818.0049-88.21977.01405L168.88726,38.576l-91.95315.01464-55.89475.0089c-7.92251.00127-10.52309-6.09748-10.02711-10.87509a5.40216,5.40216,0,0,0-.159-3.1672c-.92289-1.76439-4.06068-2.77942-4.18662-4.66355-.09118-1.3641,1.49842-2.48655,1.8786-3.82436a4.48775,4.48775,0,0,0-.009-1.89421L7.66622,8.281a.7604.7604,0,0,1,.21755-.80667,1.71065,1.71065,0,0,1,.99851-.16865c4.60086.15536,7.46507.71273,11.81868-.22755Q22.02944,6.79124,23.348,6.57584Z"/></clipPath></defs><title>Artboard 118 copy 2</title><path class="ea71cef7-4bb8-4055-9fa8-f780ef7bc0d1" d="M23.35051,6.54568a69.05544,69.05544,0,0,1,10.73457-.83045c6.38748-.05093,12.72765.65728,19.10006.65731H359.39523c16.02087,0,34.18582,1.83919,49.67281-.6159a6.19386,6.19386,0,0,1,3.18944.04162,3.1772,3.1772,0,0,1,1.68184,2.07721q2.32768,6.1581,4.5033,12.34553a3.27081,3.27081,0,0,1,.23029,2.28481c-.42867,1.0807-1.88641,1.74673-2.84061,2.6346-3.52706,3.28188.06745,9.16036-4.54118,11.64528q-.53184.28675-1.10077.523C404.739,39.58188,396.908,38.569,390.60074,38.569H21.03675c-7.92251,0-10.52213-6.09917-10.02538-10.8767a5.40215,5.40215,0,0,0-.15847-3.16722C9.93029,22.76056,6.79267,21.745,6.667,19.86088c-.091-1.36411,1.49882-2.48631,1.87922-3.82405a4.48772,4.48772,0,0,0-.00866-1.89421L7.66843,8.24837a.76041.76041,0,0,1,.21768-.80663,1.71066,1.71066,0,0,1,.99855-.16849c4.60083.15609,7.46495.71391,11.81871-.22567Q22.03189,6.76087,23.35051,6.54568Z"/><path class="a8698e6a-567a-4cf6-83f8-e196ab0de2f6" d="M23.35051,6.54568a69.05544,69.05544,0,0,1,10.73457-.83045c6.38748-.05093,12.72765.65728,19.10006.65731H359.39523c16.02087,0,34.18582,1.83919,49.67281-.6159a6.19386,6.19386,0,0,1,3.18944.04162,3.1772,3.1772,0,0,1,1.68184,2.07721q2.32768,6.1581,4.5033,12.34553a3.27081,3.27081,0,0,1,.23029,2.28481c-.42867,1.0807-1.88641,1.74673-2.84061,2.6346-3.52706,3.28188.06745,9.16036-4.54118,11.64528q-.53184.28675-1.10077.523C404.739,39.58188,396.908,38.569,390.60074,38.569H21.03675c-7.92251,0-10.52213-6.09917-10.02538-10.8767a5.40215,5.40215,0,0,0-.15847-3.16722C9.93029,22.76056,6.79267,21.745,6.667,19.86088c-.091-1.36411,1.49882-2.48631,1.87922-3.82405a4.48772,4.48772,0,0,0-.00866-1.89421L7.66843,8.24837a.76041.76041,0,0,1,.21768-.80663,1.71066,1.71066,0,0,1,.99855-.16849c4.60083.15609,7.46495.71391,11.81871-.22567Q22.03189,6.76087,23.35051,6.54568Z"/><g class="a74e7c9d-9796-4eae-941c-c1682cbbbdc6"><path class="eccc13da-a6ea-445c-8150-2b47699af8e4" d="M351.56374-2.589c14.52047.04594,29.47143.2148,42.85386,4.28689,12.499,3.80327,22.614,10.70617,32.43337,17.46651-1.09642-.75486-16.09847,3.33051-18.19209,3.73932q-9.12488,1.78173-18.309,3.39953-18.36689,3.24219-36.91342,5.917-19.015,2.76809-38.14872,5.084C303.59,38.73651,291.799,39.23659,280.14317,40.646c-7.42256.89755-15.209,2.3255-22.29042.48516-2.12471-.55217-4.08783-1.3808-6.14-2.06129-5.64434-1.8716-11.87076-2.59611-18.02707-3.186-14.30515-1.37068-28.72525-2.11184-43.1547-2.22729-15.68449-.1255-31.38039.48823-46.95479,1.83616q-11.68054,1.01092-23.25322,2.57183c-6.37564.86041-13.352,2.99265-19.52949,1.60734C71.76741,33.1628,44.377,23.78832,13.3982,23.17312,7.67518,23.05947.479,22.54119-1.38554,18.629c4.33433-1.76211,8.50967-3.90037,12.85652-5.5882C15.45216,11.495,20.0115,11.384,24.44552,10.94523q17.56961-1.73873,35.18589-3.2177C64.66271,7.30433,70.46,6.20637,75.40857,6.6941c5.85351.57691,11.3824,1.93329,17.4229,2.23137a475.73585,475.73585,0,0,0,47.88272-.05205c5.52562-.28474,11.20006-.69813,16.12288-2.53451,4.24118-1.5821,8.15807-4.2478,12.92425-4.06988,3.10165.11579,5.82044,1.443,8.50454,2.57212,16.838,7.08329,37.43051,7.46533,56.85455,6.36634s39.026-3.47942,58.25778-1.22568a10.87107,10.87107,0,0,0,4.04671-.01432c1.876-.51135,2.85088-1.96218,3.78537-3.24432a31.863,31.863,0,0,1,7.3478-7.1676c3.73418-2.64364,6.84626-2.12913,11.93969-2.14577Q336.03065-2.64094,351.56374-2.589Z"/><path class="ac18034e-2c63-4e9a-a730-2d128997d07b" d="M8.56751,14.00415c17.02069,2.47314,33.99805,5.57666,51.06058,6.04345,8.51227.26465,16.9982-.522,25.57547-1.2998,4.2854-.397,8.5979-.73145,12.93811-.88916,4.34363-.18067,8.68536-.07422,13.00375.10107,8.63965.41162,17.19345,1.29785,25.75534,1.74072q6.42252.353,12.86341.48047,6.43912.104,12.8843.002c17.18854-.26319,34.34424-1.54834,51.55289-2.27,8.6034-.34766,17.23148-.60987,25.8616-.39746,8.63044.1538,17.2479.605,25.83707,1.24658,17.1857,1.2251,34.2981,2.87646,51.40611,3.80078,2.13807.10742,4.27654.24512,6.41474.32764l6.415.22119c4.2755.06543,8.5522.14013,12.82436.07275a238.43824,238.43824,0,0,0,25.58043-1.61621c8.51856-.97949,17.08642-2.07959,25.7276-2.54248a103.41061,103.41061,0,0,1,12.97774.09863,68.49968,68.49968,0,0,1,12.78481,2.06983l-.0789.33838a75.528,75.528,0,0,0-12.7581-1.28809,121.827,121.827,0,0,0-12.80126.53516c-8.52168.7666-16.969,2.29736-25.50918,3.48437A241.70054,241.70054,0,0,1,343.039,26.53247c-8.64913.33252-17.30179.13183-25.92279-.26758q-12.93109-.67457-25.79123-1.8833c-8.57063-.79444-17.12523-1.62989-25.68-2.36084-8.55527-.72119-17.10692-1.38575-25.66881-1.74951q-12.84036-.54493-25.72857-.45606c-17.18161.11475-34.37012.96582-51.57331,1.49414-4.30151.13379-8.60531.24463-12.91232.30029q-6.46023.11938-12.93014.02442c-8.62967-.11768-17.22675-.65088-25.77967-.78321q-6.41436-.14647-12.78973.1001c-4.25385.17676-8.51618.53321-12.799.86328-4.2818.3418-8.58261.70362-12.91.92237-4.325.21631-8.6943.20263-13.02508.00293-17.3685-.874-34.24173-4.69971-51.02329-8.39356Z"/><path class="a8698e6a-567a-4cf6-83f8-e196ab0de2f6" d="M410.71564,11.44213q-5.22109,1.05909-10.504,1.80127c-3.51868.49951-7.04972.93457-10.59383,1.23291q-5.31468.46363-10.65051.66553c-3.55567.1294-7.11611.19531-10.6756.13037l-.00008-1.3164q11.43766-.29956,22.88088-.36329c7.62854-.07177,15.25682.08838,22.88292.24317l.11474,1.43262c-3.388.606-6.792,1.1123-10.19482,1.61035q-5.10618.73681-10.22241,1.37744c-6.81971.86865-13.65277,1.59863-20.4716,2.43115l-.04017-.63525c6.5204.002,13.0409.03369,19.561-.03418,6.52023-.0459,13.0405-.07764,19.56054-.17676l.0271.77978-26.83544,2.00879-13.41617,1.00293A100.53417,100.53417,0,0,0,358.909,25.29174L358.7781,23.676q12.14671.52075,24.25385,1.728c4.03415.39795,8.05743.89941,12.07553,1.43359q6.02622.81006,12.02728,1.79395l-.14152,1.76806-35.03631-.03759-17.5155.07177-17.51509.21.05411-.667a50.14842,50.14842,0,0,0,14.74743.88867l.01816.17285a50.585,50.585,0,0,1-14.895-.40039l-2.93338-.521,2.98749-.14649c5.836-.28662,11.676-.46875,17.51593-.65088q8.7601-.27538,17.52314-.39306l17.52427-.22461c5.84121-.06934,11.68216-.05615,17.52241-.082l-.14152,1.76806q-5.9775-.96166-11.98115-1.74951c-4.00121-.53125-8.01256-.98-12.02493-1.41748q-12.03894-1.29785-24.1416-1.9126l-6.40313-.32519,6.27221-1.29053a93.36413,93.36413,0,0,1,13.46639-1.5415l13.43467-.77246L412.33843,19.842l.0271.77978c-6.52058-.05273-13.04091-.0376-19.5613-.0376-6.52046-.021-13.04057.05713-19.56078.10547l-.04018-.63525c6.81655-.85059,13.61947-1.8042,20.41058-2.8086q5.09236-.761,10.16959-1.60009c3.38492-.55811,6.75775-1.18018,10.12923-1.79883l.11473,1.43262c-7.61724-.14063-15.23536-.11914-22.853-.17237q-11.4269-.03588-22.85393.165l-.00006-1.3164c3.53691.08886,7.07669.13476,10.61644.06982q5.30947-.08862,10.613-.4375c3.53328-.24268,7.06638-.52344,10.58964-.915q5.28486-.58374,10.54564-1.40185Z"/><path class="a75696a9-91e6-4a75-9c0a-5133d9330742" d="M11.54134,12.16377C20.117,9.58668,29.64158,6.97439,38.43948,9.12345q-12.01862,5.74076-24.612,10.81719c10.48922,1.08125,20.49054-4.569,31.04985-3.93723A298.07056,298.07056,0,0,0,8.11869,31.93676c4.72213.6845,9.50681-.60666,14.06545-1.73026A217.04736,217.04736,0,0,1,67.19192,24.09L19.162,37.158c21.05375-4.0756,42.578-8.18691,64.32246-7.11338L42.92647,37.65473A358.96114,358.96114,0,0,0,85.6197,30.25115C72.323,25.27726,55.03407,25.70662,44.4913,18.02333l39.95244-4.27951c-1.12469-1.76906-4.48066-1.8919-7.16711-1.748L50.45084,13.43309a622.32052,622.32052,0,0,1,83.57906-.82783c-12.93206.87871-25.93883,2.0749-38.21358,5.14592S71.93271,25.91159,64.10345,33.40294q53.11305-5.69835,106.8506-7.41274"/><path class="f71b1809-6cf9-48ef-9ed6-f685b8c460bc" d="M107.05921,28.92309c.451.00049.78174.38135,1.08966.65283a4.1624,4.1624,0,0,0,.91162.77344.30376.30376,0,0,0,.34619-.02246,1.87442,1.87442,0,0,0,.374-.37695c.25216-.30811.469-.669.8023-1.02491a1.37608,1.37608,0,0,1,.7826-.4541,1.26506,1.26506,0,0,1,.93536.314,11.7,11.7,0,0,1,.9556.937,2.03918,2.03918,0,0,0,.37185.30273c.13166.04883.00119.00537.02253.00537a3.85654,3.85654,0,0,0,.64795-.72607,6.51574,6.51574,0,0,1,.45492-.53662,1.78039,1.78039,0,0,1,.86383-.54053,1.82538,1.82538,0,0,1,.49606-.03125c.12027.00488.24418.00049.36094.0166a6.78562,6.78562,0,0,1,.701.09375,17.4115,17.4115,0,0,1,2.55014.73535,15.26741,15.26741,0,0,0,2.2901.67432,4.6974,4.6974,0,0,0,2.151-.11182c1.49954-.34179,3.03457-1.207,4.94623-1.45263a6.70351,6.70351,0,0,1,2.81948.334c.86289.27051,1.64606.62842,2.40824.94531a9.54161,9.54161,0,0,0,2.26394.68946,6.28334,6.28334,0,0,0,2.331-.17969c1.59341-.33936,3.28583-1.0542,5.01166-.83545-1.70551.17578-3.13877,1.05371-4.76914,1.65332a7.16312,7.16312,0,0,1-2.66455.49707,9.76,9.76,0,0,1-2.63715-.55078c-1.64227-.52-3.15707-1.18555-4.55569-.9209-1.46362.209-2.95453,1.0376-4.73721,1.50635a6.46145,6.46145,0,0,1-2.87232.09424,14.34462,14.34462,0,0,1-2.55411-.8042,16.22958,16.22958,0,0,0-2.28225-.78565,5.35281,5.35281,0,0,0-.55106-.10156,2.59331,2.59331,0,0,0-.27124-.02588c-.07651-.00927-.238-.00976-.13538-.01953.05985-.03662-.07846.02051-.19152.12988a5.22742,5.22742,0,0,0-.39731.40137,3.83841,3.83841,0,0,1-1.18244.999,1.12636,1.12636,0,0,1-.65023.07617,1.27359,1.27359,0,0,1-.52137-.22364,2.87512,2.87512,0,0,1-.5607-.55029c-.28292-.352-.51937-.70459-.75213-.93457a.87978.87978,0,0,0-.2005-.15625c-.01874-.01855-.16629.04785-.30124.1582-.2847.22364-.56247.55518-.89084.86133a2.34349,2.34349,0,0,1-.59409.43311.83666.83666,0,0,1-.85589-.07862,4.26878,4.26878,0,0,1-.86835-1.01709C107.7046,29.41967,107.48536,29.01342,107.05921,28.92309Z"/><path class="f71b1809-6cf9-48ef-9ed6-f685b8c460bc" d="M305.48946,13.2434a1.36646,1.36646,0,0,1,.847.47608l.69049.6914c.221.21338.4974.43067.70146.38282.21166-.03809.43738-.29346.63046-.52735.19886-.24609.38651-.51318.61393-.77588a2.18775,2.18775,0,0,1,.40974-.38037.88555.88555,0,0,1,.692-.1709,2.07053,2.07053,0,0,1,.97467.65674c.23748.24414.45155.48975.66644.686a1.489,1.489,0,0,0,.29489.21631c.09081.03564.08313.02246.11206.0122a1.98064,1.98064,0,0,0,.51244-.50146c.19737-.24072.38713-.50928.65109-.78516a2.06532,2.06532,0,0,1,.51866-.4082,1.1719,1.1719,0,0,1,.44746-.12744c.13608-.01026.18659-.00342.2842-.00586a15.62061,15.62061,0,0,1,4.00977.60937c1.28169.32569,2.52.69239,3.74.917a10.16658,10.16658,0,0,0,3.63227.01074c2.45665-.3501,5.02039-1.33936,7.92563-1.09375,2.8619.32666,5.21772,1.66748,7.60507,2.28027,2.33683.73584,4.80971.1665,7.45484-.14551.66077-.07666,1.333-.13379,2.014-.14892.34082-.0083.68376-.001,1.02817.02.1714.0039.34476.03076.51645.04834l.26813.0332a1.4468,1.4468,0,0,1,.38131.11963,3.32453,3.32453,0,0,1,.92183.71484c.23714.23731.45484.47705.65933.64258a1.0556,1.0556,0,0,0,.25039.16211c.05284.01709.01576.02.07513-.00147a1.65629,1.65629,0,0,0,.41742-.60107c.14375-.27588.27451-.5791.4512-.88965a1.46566,1.46566,0,0,1,.93837-.82178,1.9975,1.9975,0,0,1,1.11345.28077c.30263.15088.58257.31347.86411.44189a1.01305,1.01305,0,0,0,.77363.12549,1.765,1.765,0,0,0,.57674-.65479c.17372-.271.33446-.56005.52682-.83056a1.21458,1.21458,0,0,1,.76592-.59375,1.156,1.156,0,0,0-.65424.6626c-.14975.28515-.26816.58691-.40828.88769a1.96074,1.96074,0,0,1-.63487.84815,1.361,1.361,0,0,1-1.11317-.01563c-.32517-.11133-.62581-.24853-.92035-.35937a1.50262,1.50262,0,0,0-.76711-.14747c-.11767.02344-.27266.249-.38981.52051-.12075.27-.2202.57862-.346.89649a2.27392,2.27392,0,0,1-.65761,1.00683,1.00783,1.00783,0,0,1-.84923.17774,1.84516,1.84516,0,0,1-.60776-.29395,10.15978,10.15978,0,0,1-.79467-.66406,2.36556,2.36556,0,0,0-.63916-.44727.27368.27368,0,0,0-.0855-.02l-.21876-.01025c-.15366-.00244-.3044-.02-.45934-.01562q-.46149-.00368-.92757.03076c-.62171.04638-1.24729.13183-1.87777.23828-1.26236.21728-2.54479.50439-3.8994.644a11.54324,11.54324,0,0,1-4.1509-.24609c-2.66551-.66114-4.99649-1.9292-7.37078-2.14649-2.35283-.25976-4.83956.63575-7.52846.98975a11.80937,11.80937,0,0,1-4.14993-.14453c-1.34127-.28174-2.5888-.72461-3.81629-1.10742a15.57591,15.57591,0,0,0-3.66972-.77637c-.26409-.18115-.656.355-1.1275.84765a2.45979,2.45979,0,0,1-.98119.72754,1.036,1.036,0,0,1-.8246-.11767,2.06258,2.06258,0,0,1-.46367-.39649c-.2406-.2705-.42915-.53955-.62431-.7832a1.67411,1.67411,0,0,0-.55251-.5166c-.08029-.06787-.35016.08594-.56309.29883-.22277.20947-.43724.457-.67334.69677a1.67827,1.67827,0,0,1-.9327.57959,1.22779,1.22779,0,0,1-.93-.5625l-.59651-.78173A1.309,1.309,0,0,0,305.48946,13.2434Z"/><path class="b5abeca1-213e-49d9-aaad-84e9bba2ad27" d="M152.8969,29.68077a.61119.61119,0,0,0-.79875.27361c-.06767.24945.15409.501.4453.64349a1.71758,1.71758,0,0,0,1.73042-.15817.699.699,0,0,0-.31069-1.18982c-.5689-.21021-1.38562.12161-1.3776.58339"/><path class="f71b1809-6cf9-48ef-9ed6-f685b8c460bc" d="M20.16593,11.92309c.451.00049.78174.38135,1.08966.65283a4.17664,4.17664,0,0,0,.91162.77344.30464.30464,0,0,0,.34622-.023,1.84965,1.84965,0,0,0,.374-.37695c.25219-.30762.469-.669.8023-1.0249a1.37573,1.37573,0,0,1,.7826-.45362,1.263,1.263,0,0,1,.93536.314,11.77728,11.77728,0,0,1,.9556.93652,2.04535,2.04535,0,0,0,.37185.30322c.13166.04834.00119.00489.02253.00537a3.88874,3.88874,0,0,0,.648-.72607,6.51649,6.51649,0,0,1,.455-.53662,1.77689,1.77689,0,0,1,.8638-.541,1.84671,1.84671,0,0,1,.49606-.03125c.12027.00489.24418.001.36094.0166a6.78562,6.78562,0,0,1,.701.09375,17.47249,17.47249,0,0,1,2.55017.73536,15.21333,15.21333,0,0,0,2.2901.6748,4.69727,4.69727,0,0,0,2.15094-.11182c1.49957-.34179,3.03457-1.20751,4.94623-1.45263a6.70345,6.70345,0,0,1,2.81948.334c.86289.27,1.64606.62793,2.40824.94531a9.56383,9.56383,0,0,0,2.26394.68946,6.28391,6.28391,0,0,0,2.331-.18018c1.59341-.33935,3.28583-1.0542,5.01166-.83545C55.34864,12.28,53.91538,13.158,52.285,13.75805a7.173,7.173,0,0,1-2.66455.49707,9.79732,9.79732,0,0,1-2.63715-.55078c-1.64227-.52-3.15707-1.186-4.55566-.92139-1.46365.209-2.95456,1.03809-4.73724,1.50684a6.46848,6.46848,0,0,1-2.87229.09424,14.345,14.345,0,0,1-2.55414-.8042,16.10391,16.10391,0,0,0-2.28225-.78565,5.22753,5.22753,0,0,0-.55106-.10205,2.59038,2.59038,0,0,0-.27124-.02539c-.07651-.00976-.238-.00976-.13538-.02.05988-.03613-.07846.021-.19152.12989a5.22532,5.22532,0,0,0-.39731.40136,3.83816,3.83816,0,0,1-1.18244.99952,1.13049,1.13049,0,0,1-.65023.07568,1.27373,1.27373,0,0,1-.52137-.22363,2.8617,2.8617,0,0,1-.5607-.5503c-.28292-.35205-.51937-.70459-.7521-.93457a.86581.86581,0,0,0-.20053-.15576c-.01874-.019-.16626.04785-.30124.1582-.2847.22315-.56247.55469-.89081.86133a2.35609,2.35609,0,0,1-.59412.43311.83886.83886,0,0,1-.85589-.07862,4.2706,4.2706,0,0,1-.86832-1.01757C20.81132,12.41918,20.59208,12.01342,20.16593,11.92309Z"/><path class="b5abeca1-213e-49d9-aaad-84e9bba2ad27" d="M32.69518,15.15514a.61118.61118,0,0,0-.79874.27361c-.06767.24944.15408.501.4453.64348a1.71756,1.71756,0,0,0,1.73042-.15816.69894.69894,0,0,0-.31069-1.18982c-.5689-.21021-1.38562.12161-1.3776.58339"/><path class="b5abeca1-213e-49d9-aaad-84e9bba2ad27" d="M321.09567,19.54692a.61118.61118,0,0,0-.79874.27361c-.06768.24945.15408.501.4453.64349a1.71756,1.71756,0,0,0,1.73041-.15817A.69894.69894,0,0,0,322.162,19.116c-.5689-.21021-1.38562.12161-1.3776.58339"/><path class="ac18034e-2c63-4e9a-a730-2d128997d07b" d="M263.39469,22.92993A22.56185,22.56185,0,0,0,258.49006,28.99l-.39568-1.29493a15.68847,15.68847,0,0,0,4.76795.666,36.11631,36.11631,0,0,0,4.94233-.37354c3.32708-.43017,6.78522-1.18847,10.489-1.09423l.789,3.24169a.71607.71607,0,0,0,.28981-.28857.98385.98385,0,0,0,.13673-.55078c-.0384-.29541-.11426-.3125-.11624-.32324-.00627-.002-.00061-.00244.00151.00439a1.49983,1.49983,0,0,0,.21037.07715,3.086,3.086,0,0,0,.6292.103,17.08035,17.08035,0,0,0,1.77644-.022l1.98909-.0791,3.98121-.10449a12.82052,12.82052,0,0,1,2.264.08887,4.86632,4.86632,0,0,1,1.35435.39453,3.36812,3.36812,0,0,1,1.30149,1.08691c.27771.41162.34574.55811.391.604a1.14314,1.14314,0,0,0,.41635.27588,6.39247,6.39247,0,0,0,1.61582.38525c1.27256.189,2.58339.32861,3.88594.42627,2.61442.23633,5.25219.27978,7.93528.29785a39.51256,39.51256,0,0,1-7.93075,1.47412c-1.35117.1001-2.6947.15869-4.06953.16162a8.65378,8.65378,0,0,1-2.29281-.3081,3.87258,3.87258,0,0,1-1.31753-.67627,6.30482,6.30482,0,0,1-.85483-.94092c-.12117-.11865-.1022-.064-.24606-.127a3.20657,3.20657,0,0,0-.56723-.09815,10.25556,10.25556,0,0,0-1.71091.05908l-3.96785.34229-1.98541.14453a15.83972,15.83972,0,0,1-2.20084.05713,6.51379,6.51379,0,0,1-1.33212-.21338,4.95991,4.95991,0,0,1-.72455-.26074,3.597,3.597,0,0,1-.83133-.53418,3.00368,3.00368,0,0,1-1.06088-2.01953,2.51316,2.51316,0,0,1,.35048-1.50537,2.74028,2.74028,0,0,1,1.01-.9585l.78894,3.2417c-3.21095-.08984-6.58278.40723-10.11512.62451a30.35251,30.35251,0,0,1-5.39016-.127,15.8643,15.8643,0,0,1-5.295-1.52393l-1.01261-.50634.61685-.78907A17.64141,17.64141,0,0,1,263.39469,22.92993Z"/><path class="ac18034e-2c63-4e9a-a730-2d128997d07b" d="M27.35572,34.35864c-.07449.28076.28589.35742.64734.38037a3.31038,3.31038,0,0,0,1.08191-.18018,2.03136,2.03136,0,0,0,.45587-.22607,1.793,1.793,0,0,0,.35449-.33887c.25794-.28857.512-.6206.83234-.9414a3.54171,3.54171,0,0,1,1.229-.84571A2.80926,2.80926,0,0,1,33.599,32.095a14.58775,14.58775,0,0,1,2.28885,1.167,2.07955,2.07955,0,0,0,1.63781-.1128,8.69089,8.69089,0,0,0,1.79676-1.19091A23.53172,23.53172,0,0,1,41.401,30.39819a9.177,9.177,0,0,1,2.65481-1.05078,27.327,27.327,0,0,1,5.15357-.57178,23.861,23.861,0,0,0,4.59646-.44287,7.68756,7.68756,0,0,0,.96158-.29444,5.118,5.118,0,0,0,.79093-.42138,3.0321,3.0321,0,0,0,1.13546-1.24463c.31894-.56543.59082-1.32813,1.02631-2.16406a6.54191,6.54191,0,0,1,2.00174-2.41065,7.66181,7.66181,0,0,1,5.721-1.02978,17.98992,17.98992,0,0,1,4.95672,1.73047c.76029.377,1.51688.83154,2.20716,1.25634.68728.419,1.38205.82471,2.09512,1.18555a14.49124,14.49124,0,0,0,4.47543,1.4834,5.88312,5.88312,0,0,0,4.31159-.94092c1.19574-.88818,1.86413-2.40967,2.961-3.76416a22.23257,22.23257,0,0,1,8.14642-6.01709,37.34118,37.34118,0,0,1,9.71234-2.94189c3.49988-.55371,6.88806-.166,10.04108-.18848a16.92779,16.92779,0,0,0,4.45981-.48975c.73452-.19287,1.51834-.45752,2.44015-.666a8.27157,8.27157,0,0,1,3.11621-.15772,8.14392,8.14392,0,0,1,5.17478,3.40137,30.40417,30.40417,0,0,1,2.39,4.61475,6.85112,6.85112,0,0,0,2.507,2.89843,5.41133,5.41133,0,0,0,3.58356.64405A10.13684,10.13684,0,0,0,141.929,21.2268c1.25989-.79443,2.58853-1.88379,4.14215-2.77344a11.43079,11.43079,0,0,1,5.2106-1.58349,30.39694,30.39694,0,0,1,5.086.25976c3.274.34766,6.54715.71387,9.81708,1.15332l-.01547.34717c-3.296.14649-6.58881.22022-9.88074.27539a35.34487,35.34487,0,0,0-4.76266.25342,9.44066,9.44066,0,0,0-4.01542,1.62207c-1.24963.83545-2.39071,1.94092-3.83773,3.00879a13.33436,13.33436,0,0,1-5.054,2.34131,8.56037,8.56037,0,0,1-5.95062-.86719,10.4405,10.4405,0,0,1-4.03391-4.29541,34.44579,34.44579,0,0,0-2.10055-4.14453,4.96131,4.96131,0,0,0-2.78653-1.998c-.992-.23584-2.381.17725-4.11322.60059a20.242,20.242,0,0,1-5.32715.41308c-3.40875-.10791-6.60458-.57959-9.65231-.312A38.40384,38.40384,0,0,0,95.321,17.46069a18.96934,18.96934,0,0,0-7.96445,5.01318c-1.05847,1.11328-1.7377,2.75684-3.23239,3.855a7.24873,7.24873,0,0,1-5.06607,1.21533,17.50785,17.50785,0,0,1-4.93933-1.2998c-.79016-.30322-1.55734-.65088-2.31528-1.0127-.75186-.36181-1.44433-.68554-2.191-.96582a15.26642,15.26642,0,0,0-4.46237-1.05371,5.26445,5.26445,0,0,0-3.69952.9043,3.6099,3.6099,0,0,0-1.01331,1.42383c-.28451.64111-.55749,1.437-1.02728,2.31543a6.19076,6.19076,0,0,1-2.1304,2.36621,7.70707,7.70707,0,0,1-2.78964,1.11133,26.33119,26.33119,0,0,1-5.20856.39355,26.43249,26.43249,0,0,0-4.654.25244,7.64879,7.64879,0,0,0-1.96149.62012,21.83,21.83,0,0,0-1.9704,1.24658,10.13341,10.13341,0,0,1-2.43942,1.29688,4.08421,4.08421,0,0,1-3.15585-.207c-.958-.54053-1.44434-1.17334-1.92813-1.34327a1.59034,1.59034,0,0,0-1.6377.3711c-.29373.22607-.59857.49756-.93677.77392-.088.07032-.16537.1333-.27206.208a1.90314,1.90314,0,0,1-.3483.19824,2.89579,2.89579,0,0,1-.69324.20948,3.58064,3.58064,0,0,1-1.3641-.03028,1.83519,1.83519,0,0,1-.66962-.291.65137.65137,0,0,1-.22326-.78614Z"/></g></svg>