<svg id="a20066a4-8174-4eca-b43c-c8e51cfffff7" data-name="Layer 1" xmlns="http://www.w3.org/2000/svg" viewBox="0 0 530.04255 298.14894"><defs><style>.bf001e17-8e81-4e9e-ac42-9bacd71b9af9{fill:#b3e0dc;}.af0f454f-4140-4022-816c-d498dbdb6f6a,.b47615d8-004b-411c-bd5f-23145946510f{fill:#231f20;}.af0f454f-4140-4022-816c-d498dbdb6f6a{opacity:0.15;}</style></defs><title>Artboard 386</title><rect class="bf001e17-8e81-4e9e-ac42-9bacd71b9af9" x="115.94681" y="-115.94681" width="298.14894" height="530.04255" transform="translate(115.94681 414.09574) rotate(-90)"/><path class="b47615d8-004b-411c-bd5f-23145946510f" d="M131.68361,146.42194c0-6.66016-.59985-9.29981-6.23974-9.29981H115.2444a38.33441,38.33441,0,0,1-6.8999-.36035l1.02-5.33984a65.955,65.955,0,0,0,8.27979.24023h8.21948c8.51977,0,10.43969,2.46,10.43969,12.29981v20.33886h-4.61987Zm-22.13916.71972h4.67993v17.15918h-4.67993Z"/><path class="b47615d8-004b-411c-bd5f-23145946510f" d="M142.72414,159.08112a65.699,65.699,0,0,1,7.37964-.24024h4.1997V145.462c0-5.21973-.59985-6.66016-5.93969-7.91993a52.88132,52.88132,0,0,1-5.21973-1.32031l1.02-5.2793a37.69441,37.69441,0,0,0,5.15967,1.19922c6.95972,1.44043,9.65967,3.48047,9.65967,12.29981v14.5791l-1.02,5.28027h-8.3396c-2.57984,0-6.71973.05957-7.91968.17969Z"/><path class="b47615d8-004b-411c-bd5f-23145946510f" d="M172.90309,145.52155c0-5.16016-.60009-7.01954-5.27978-8.15918a34.24339,34.24339,0,0,1-4.07983-1.14063l1.02-5.2793a22.50135,22.50135,0,0,0,4.1399.96c6.71972,1.43945,8.87939,3.65917,8.87939,12.77929v19.61914h-4.67969Z"/><path class="b47615d8-004b-411c-bd5f-23145946510f" d="M183.40285,159.08112c1.2-.17969,4.61987-.17969,8.15967-.17969H203.022a64.43449,64.43449,0,0,0,1.13989-11.16016c0-8.03906-1.7998-10.61914-8.3396-10.61914h-5.51977a38.805,38.805,0,0,1-6.89966-.36035l1.07983-5.33984a57.94572,57.94572,0,0,0,7.49976.24023h4.97974c9.89965,0,11.81958,4.37988,11.81958,15.59961a81.62468,81.62468,0,0,1-1.98,17.03906H190.30251a78.05987,78.05987,0,0,0-7.91968.17969Z"/><path class="b47615d8-004b-411c-bd5f-23145946510f" d="M214.96218,159.08112a65.70466,65.70466,0,0,1,7.37963-.24024h4.2V145.462c0-5.21973-.6001-6.66016-5.94-7.91993a52.881,52.881,0,0,1-5.21972-1.32031l1.02-5.2793a37.68456,37.68456,0,0,0,5.15967,1.19922c6.95971,1.44043,9.65966,3.48047,9.65966,12.29981v14.5791l-1.02,5.28027h-8.3396c-2.57983,0-6.71972.05957-7.91967.17969Z"/><path class="b47615d8-004b-411c-bd5f-23145946510f" d="M275.32009,146.42194c0-6.66016-.6001-9.29981-6.23975-9.29981H258.88063a38.33277,38.33277,0,0,1-6.89965-.36035l1.02-5.33984a65.955,65.955,0,0,0,8.27955.24023h8.21972c8.51978,0,10.4397,2.46,10.4397,12.29981v20.33886h-4.61987Zm-22.13916.71972h4.67993v17.15918h-4.67993Z"/><path class="b47615d8-004b-411c-bd5f-23145946510f" d="M286.24074,159.14069a84.69567,84.69567,0,0,1,9.47949-.29981h9.11963c0-4.08008.06006-9.7793-.05981-12.83887-.12012-6.41992-.84009-8.87988-6.5398-8.87988h-5.22a35.9301,35.9301,0,0,1-6.65967-.36035l1.08008-5.33984a57.036,57.036,0,0,0,7.67969.24023h4.73975c8.57959,0,9.53955,3.96,9.53955,12.17969v9.89941c0,1.25977-.11988,4.08008-.24,5.09961h4.37988l-1.02,5.46H292.96047c-2.57984,0-6.35987,0-7.73975.17969Z"/><path class="b47615d8-004b-411c-bd5f-23145946510f" d="M325.29933,145.52155c0-5.16016-.59985-7.01954-5.27978-8.15918a34.22944,34.22944,0,0,1-4.07983-1.14063l1.02-5.2793a22.50274,22.50274,0,0,0,4.13965.96c6.71973,1.43945,8.87989,3.65917,8.87989,12.77929v19.61914h-4.67994Z"/><path class="b47615d8-004b-411c-bd5f-23145946510f" d="M335.97975,131.90241l5.69971-.54c.41992,1.43945,1.2,5.93945,3.05982,17.09961,5.99975-1.38086,7.01977-3.78028,7.01977-8.10059a29.596,29.596,0,0,0-1.62012-8.459l5.6399-.54a33.86054,33.86054,0,0,1,1.26,8.21972c0,5.63965-1.67994,10.79981-11.81958,12.71973.11987.59961.78,4.85937,1.13989,6.83887a46.98762,46.98762,0,0,0,6.53979-.96c7.4397-1.61915,11.93946-4.79981,11.93946-14.999a35.02466,35.02466,0,0,0-2.0398-11.27929l5.75977-.48047a38.63361,38.63361,0,0,1,1.43994,10.55957c.06006,14.69922-8.57959,19.67968-17.93945,21.41894-3.77979.66016-7.49952,1.14063-9.53955,1.32031C341.25954,156.80084,337.7195,136.82233,335.97975,131.90241Z"/><path class="b47615d8-004b-411c-bd5f-23145946510f" d="M375.69924,159.14069a22.51388,22.51388,0,0,1,4.91967-.29981h.90015c-.06006-5.81933-.54-17.8789-.96-21.71875h-.17993a19.01554,19.01554,0,0,1-4.56006-.41992l1.08008-5.28027c1.85986.36035,5.75976.24023,9.41968.24023h9.8396c8.81958,0,10.49951,2.09961,10.49951,12.35938v20.27929h-4.67969V145.70123c0-5.93945-.66016-8.5791-6.23975-8.5791H385.179c.29981,3.83985.96,17.5791.89991,21.7793l-.84009,5.39941H380.499a52.298,52.298,0,0,0-5.9397.24024Z"/><path class="af0f454f-4140-4022-816c-d498dbdb6f6a" d="M330.48976,59.11041c-.03906-9.32324-.89453-13.01562-8.79052-12.9834l-14.27954.05957c-4.95606.02051-8.48487-.13281-9.66211-.46386l1.397-7.48242c1.6814.3291,5.88135.31152,11.59326.28808l11.50781-.04785c11.928-.0498,14.63037,3.38281,14.68775,17.15918l.11865,28.47461-6.468.02734Zm-30.99145,1.1377,6.552-.02735.1001,24.02247-6.552.02734Z"/><path class="af0f454f-4140-4022-816c-d498dbdb6f6a" d="M356.19,58.24713c1.14087-8.4043-2.23291-11.666-7.53-12.9043l1.47949-7.81835c6.72437,1.06445,10.77417,5.33105,11.55738,11.79687,1.9104-5.13184,6.92285-11.79,16.24658-11.8291,13.104-.05469,16.34594,11.94531,16.41357,28.15723l.04468,10.752c.00317.75586-.89771,6.30273-1.14478,7.47949l-16.54785.06836c-3.36011.01465-7.72754.11621-9.49072.292L368.615,76.7608a79.45494,79.45494,0,0,1,10.33056-.3789l8.81983-.03711c.06909-3.52832.05493-6.97266.04077-10.332-.04394-10.584-1.43115-20.91114-11.259-20.87012-9.32373.03906-12.561,9.293-13.79712,15.00977-1.32056,5.63378-3.04248,15.80566-4.52075,23.874l-6.552.02734C353.32131,75.39557,355.29177,64.46686,356.19,58.24713Z"/><path class="af0f454f-4140-4022-816c-d498dbdb6f6a" d="M406.91677,76.09674c7.05493-.28125,15.77124-5.02148,15.64135-16.02539L422.5447,56.795c-.1128-6.88672-1.717-8.89648-8.02393-10.46679-1.76587-.4961-5.63306-1.23633-6.89551-1.81836l1.4812-7.39942a58.99271,58.99271,0,0,0,6.72681,1.65332c11.18213,2.38868,12.87964,6.582,13.261,17.5l.387,12.2627c.19385,6.21484.72192,11.92383,1.57544,15.19726l-6.55176.02637c-.76367-1.84375-1.46-7.63574-1.39551-12.34082-2.571,7.90625-9.26977,13.05762-17.50171,13.0918Z"/><path class="af0f454f-4140-4022-816c-d498dbdb6f6a" d="M455.55837,57.33014c-.03-7.22363-.88111-9.8252-7.4397-11.39356a47.95064,47.95064,0,0,1-5.71851-1.57226l1.39722-7.39844a31.42147,31.42147,0,0,0,5.80176,1.32129c9.416,1.97559,12.45288,5.07227,12.5061,17.83984l.1145,27.4668-6.55175.02735Z"/><path class="af0f454f-4140-4022-816c-d498dbdb6f6a" d="M472.72609,44.9942l1.39673-7.48242c1.68164.3291,5.96558.31152,11.67725.28711l24.6958-.10254-1.48023,7.65039-3.19189.01367c-2.52.01075-3.43677,1.77832-3.41138,7.82617.042,10.08008.51172,22.00586.7981,30.23633l-6.552.02735c-.10694-5.459-.66968-19.56934-.708-28.72461-.02393-5.7959.64013-7.73145,1.72534-9.33106l-15.62378.06446C477.096,45.47955,473.90334,45.32526,472.72609,44.9942Z"/></svg>