<svg id="abcd1b4e-5c4d-42c7-b9f1-6adeddcac795" data-name="Layer 1" xmlns="http://www.w3.org/2000/svg" viewBox="0 0 530.04255 298.14894"><defs><style>.e5028245-644a-4a7d-8b10-9995a46c6cc2{fill:#b3e0dc;}.a357aa46-a3db-43b9-8d5f-765a0291b22a,.bfb2e4b7-3e92-48e3-8e01-974e58057cc1{fill:#231f20;}.a357aa46-a3db-43b9-8d5f-765a0291b22a{opacity:0.15;}</style></defs><title>Artboard 388</title><rect class="e5028245-644a-4a7d-8b10-9995a46c6cc2" x="115.94681" y="-115.94681" width="298.14894" height="530.04255" transform="translate(115.94681 414.09574) rotate(-90)"/><path class="bfb2e4b7-3e92-48e3-8e01-974e58057cc1" d="M202.14357,156.78694a22.51559,22.51559,0,0,1,4.91992-.2998h.89991c-.06006-5.81934-.54-17.87891-.96-21.71875h-.18018a19.01214,19.01214,0,0,1-4.55957-.41993l1.07983-5.28027c1.85987.36035,5.75977.24024,9.41968.24024h9.8396c8.81958,0,10.49951,2.0996,10.49951,12.35937v20.2793h-4.67993V143.34749c0-5.93946-.65991-8.5791-6.23974-8.5791H211.62306c.3,3.83984.96,17.5791.90015,21.77929l-.84009,5.39942h-4.73974a52.30064,52.30064,0,0,0-5.9397.24023Z"/><path class="bfb2e4b7-3e92-48e3-8e01-974e58057cc1" d="M248.22316,143.1678c0-5.16016-.6001-7.01953-5.27978-8.15918a34.24426,34.24426,0,0,1-4.07984-1.14062l1.02-5.2793a22.5016,22.5016,0,0,0,4.1399.96c6.71972,1.43945,8.87939,3.65918,8.87939,12.7793V161.9471h-4.67969Z"/><path class="bfb2e4b7-3e92-48e3-8e01-974e58057cc1" d="M270.24294,156.48714c-1.98-6.53907-8.21973-20.51856-12.53955-26.87891l6.35986-.54a133.80566,133.80566,0,0,1,10.49951,26.03906c4.4397-1.85937,6.77979-5.75976,6.77979-13.13964a35.76618,35.76618,0,0,0-2.52-12.35938l5.9397-.59961a38.56543,38.56543,0,0,1,1.56,11.39941c-.06,8.75977-2.22,15.71973-12.05957,20.09864-4.55981,2.04-11.69946,3.54-17.21923,4.20019l1.02-5.87988A62.69514,62.69514,0,0,0,270.24294,156.48714Z"/><path class="bfb2e4b7-3e92-48e3-8e01-974e58057cc1" d="M291.543,129.54866l5.63965-.54c1.5,7.19922,3.11987,16.91895,4.61987,27.59863a48.22312,48.22312,0,0,0,5.03979-.66015c6.65967-1.13965,10.49951-5.87989,10.49951-12.71973,0-5.75976-2.93994-8.999-7.49975-9.05957a14.23263,14.23263,0,0,0-5.45972,1.08008l1.02-5.5791a14.26,14.26,0,0,1,5.51978-.96c7.61963,0,11.15942,5.87988,11.09936,13.55957,0,12.71875-8.51953,17.51855-15.11914,18.89843a78.54357,78.54357,0,0,1-8.87988,1.2002C296.22267,151.68733,294.12282,139.02815,291.543,129.54866Z"/><path class="a357aa46-a3db-43b9-8d5f-765a0291b22a" d="M330.48976,54.87483c-.03906-9.32324-.89453-13.01562-8.79052-12.9834l-14.27979.05957c-4.95605.02051-8.48486-.13281-9.66211-.46386l1.397-7.48243c1.68165.32911,5.88135.31153,11.59327.28809l11.50781-.04785c11.92822-.04981,14.63037,3.38281,14.688,17.15918l.11865,28.47461-6.46826.02734Zm-30.9917,1.1377,6.55225-.02735.1001,24.02246-6.55225.02735Z"/><path class="a357aa46-a3db-43b9-8d5f-765a0291b22a" d="M356.19,54.01155c1.14062-8.4043-2.23291-11.666-7.53027-12.9043l1.47949-7.81836c6.72461,1.06446,10.77441,5.33106,11.55762,11.79688,1.91015-5.13184,6.92285-11.79,16.24658-11.8291,13.104-.05469,16.3457,11.94531,16.41357,28.15722l.04444,10.752c.00341.75586-.89747,6.30273-1.14454,7.47949L376.709,79.7137c-3.36035.01465-7.72754.11621-9.49072.292l1.39648-7.48047a79.45512,79.45512,0,0,1,10.33057-.3789l8.81982-.03711c.06934-3.52832.05518-6.97266.041-10.332-.04394-10.584-1.43115-20.91114-11.25928-20.87012-9.32373.03906-12.561,9.293-13.79687,15.00976-1.3208,5.63379-3.04248,15.80567-4.521,23.874l-6.55176.02734C353.32131,71.16,355.29152,60.23128,356.19,54.01155Z"/><path class="a357aa46-a3db-43b9-8d5f-765a0291b22a" d="M406.91652,71.86116c7.05518-.28125,15.77149-5.02148,15.6416-16.02539l-.01367-3.27637c-.11279-6.88672-1.7168-8.89648-8.02392-10.46679-1.76563-.4961-5.63282-1.23633-6.89551-1.81836l1.48144-7.39942a58.97233,58.97233,0,0,0,6.72657,1.65332c11.18212,2.38867,12.87988,6.582,13.26123,17.5l.38672,12.2627c.19384,6.21484.72216,11.92383,1.57568,15.19726l-6.55176.02637c-.76367-1.84375-1.46-7.63574-1.39551-12.34082-2.57129,7.90625-9.27,13.05762-17.502,13.0918Z"/><path class="a357aa46-a3db-43b9-8d5f-765a0291b22a" d="M455.55812,53.09456c-.02978-7.22363-.88086-9.8252-7.43945-11.39356a47.9579,47.9579,0,0,1-5.71875-1.57226l1.39746-7.39844a31.42147,31.42147,0,0,0,5.80176,1.32129c9.416,1.97559,12.45264,5.07227,12.50586,17.83984l.11474,27.4668-6.55175.02734Z"/><path class="a357aa46-a3db-43b9-8d5f-765a0291b22a" d="M472.72609,40.75862l1.39649-7.48242c1.68164.3291,5.96582.31152,11.67724.28711l24.6958-.10254-1.48,7.65039-3.19189.01367c-2.52.01074-3.437,1.77832-3.41162,7.82617.042,10.08008.51172,22.00586.79834,30.23633l-6.55225.02735c-.10693-5.459-.66943-19.56934-.708-28.72461-.02392-5.7959.64014-7.73145,1.72559-9.33106l-15.624.06445C477.09572,41.244,473.90334,41.08968,472.72609,40.75862Z"/></svg>