<svg id="e443e450-0f22-4559-a654-fc0002f0e620" data-name="Layer 1" xmlns="http://www.w3.org/2000/svg" viewBox="0 0 54.5383 84.48732"><defs><style>.f23dfb62-9283-4374-9a12-fa07ea570199{fill:#58595b;opacity:0.51;}.eed70a18-31ba-4a42-a8d3-8a7253e1cc64{fill:#5289c7;}.a1516710-f502-4734-ad56-1ee6638bfc2f{fill:#fff;}</style></defs><ellipse class="f23dfb62-9283-4374-9a12-fa07ea570199" cx="27.26915" cy="80.07261" rx="7.12283" ry="4.41471"/><path class="eed70a18-31ba-4a42-a8d3-8a7253e1cc64" d="M27.28707,78.29592a4.15241,4.15241,0,0,1-3.33447-1.6582C17.60787,68.26956,2.77486,46.835,2.07711,28.57815c-.022-.415-.03467-.86133-.03467-1.30859a25.22657,25.22657,0,1,1,50.45313,0q0,.6621-.03418,1.31738c-.66748,18.709-15.51123,39.85742-21.86231,48.08008A4.15662,4.15662,0,0,1,27.28707,78.29592ZM27.269,22.06252a5.20655,5.20655,0,1,0,5.20752,5.207A5.213,5.213,0,0,0,27.269,22.06252Z"/><path class="a1516710-f502-4734-ad56-1ee6638bfc2f" d="M27.26913,3.958a23.31127,23.31127,0,0,1,23.311,23.311q0,.613-.03161,1.21777c-.66163,18.52344-16.10267,40.06592-21.4657,47.00977a2.26611,2.26611,0,0,1-3.604-.01661C20.14242,68.44192,4.68124,46.55666,3.99117,28.5054q-.032-.61451-.03308-1.23633a23.31127,23.31127,0,0,1,23.311-23.311m0,30.43408a7.1228,7.1228,0,1,0-7.12281-7.123,7.12282,7.12282,0,0,0,7.12281,7.123m0-34.26513A27.17276,27.17276,0,0,0,.127,27.26907c0,.457.01233.93115.03686,1.40918C.89632,47.47317,15.97469,69.28616,22.42611,77.79446a6.097,6.097,0,0,0,9.68872.04394c6.46094-8.36523,21.55835-29.897,22.26135-49.18554.0232-.46485.035-.93067.035-1.38379A27.17277,27.17277,0,0,0,27.26913.127Zm0,30.43408a3.29175,3.29175,0,1,1,3.29174-3.292,3.29546,3.29546,0,0,1-3.29174,3.292Z"/><circle class="a1516710-f502-4734-ad56-1ee6638bfc2f" cx="27.84473" cy="27.04475" r="4.40653"/></svg>