<svg preserveAspectRatio="none" id="b9c2890f-ef7c-4cae-bba0-4913618372e0" data-name="Layer 1" xmlns="http://www.w3.org/2000/svg" viewBox="0 0 47.77657 23.64891"><defs><style>.b0ad4b8d-28b3-4f67-9d53-f8680e137a25{fill:#b9deee;}.f2c6e5dc-443a-463f-ae4c-cc470b1f3af4{fill:none;stroke:#f37371;stroke-miterlimit:10;stroke-width:1.2792px;}.bad6a09d-1db2-46d5-85e5-599c49489770{fill:#f37371;}</style></defs><title>Artboard 380 copy</title><path class="b0ad4b8d-28b3-4f67-9d53-f8680e137a25" d="M15.73148,2.48989C14.23173,4.27456,12.68827,6.01821,11.16117,7.777c-1.5188,1.7666-3.09546,3.47852-4.64307,5.21826l-.8352-.86767a67.307,67.307,0,0,1,8.09106-6.396A73.3901,73.3901,0,0,1,22.72269.57436.897.897,0,0,1,23.743,2.02358l-.00781.00733c-2.45313,2.3667-4.91333,4.707-7.304,7.10547a76.976,76.976,0,0,0-6.7522,7.5581l-.71508-.7749c1.91333-1.106,3.84228-2.186,5.74291-3.313,1.90943-1.1123,3.80347-2.24951,5.69385-3.39306,1.8938-1.1377,3.75855-2.32325,5.63916-3.48292,1.87866-1.16259,3.75635-2.32714,5.61133-3.52832a.43158.43158,0,0,1,.564.64112l-.01465.0166L23.815,12.74136,19.58964,17.653c-1.3689,1.66455-2.998,3.20312-3.57788,4.9165L14.65067,21.4689,27.854,13.34731c4.41211-2.68945,8.85669-5.3247,13.3042-7.95507L41.18,5.37905A.99993.99993,0,0,1,42.4556,6.88149l-6.04711,7.22657-3.02491,3.6123A19.76778,19.76778,0,0,0,31.99,19.48208a2.00094,2.00094,0,0,0-.39527,1.65039l-.89917-.35693c3.2649-1.49463,6.51758-3.01368,9.80347-4.46582l.01367-.00635a.3217.3217,0,0,1,.43653.39062l-1.616,5.14209-.0022.00684a.09981.09981,0,0,1-.19262-.05176l1.19531-5.2876.45019.38379C37.63139,18.61,34.44584,20.26528,31.27225,21.945a.63536.63536,0,0,1-.85864-.26416l-.02954-.06445-.011-.02832a2.73879,2.73879,0,0,1-.12036-1.53418,4.51988,4.51988,0,0,1,.50269-1.29883,16.05041,16.05041,0,0,1,1.43286-2.002l2.90186-3.71143,5.80664-7.42187L42.19413,7.109c-4.40064,2.7085-8.8042,5.41114-13.24048,8.06055L15.61259,23.06313l-.01587.00928a.927.927,0,0,1-1.34522-1.10986,9.86553,9.86553,0,0,1,1.87085-3.019c.73975-.85108,1.46973-1.61475,2.20044-2.418l4.38843-4.7666,8.842-9.4751.54932.6582c-1.91724,1.09961-3.81153,2.23633-5.70533,3.37451C24.5059,7.45864,22.59843,8.57388,20.72,9.73745c-1.88184,1.15723-3.75977,2.3208-5.62256,3.50977-1.87134,1.17431-3.71484,2.395-5.57349,3.59033a.53512.53512,0,0,1-.73095-.75244l.01562-.02246A76.99581,76.99581,0,0,1,15.2642,8.02407c2.314-2.5376,4.76684-4.92676,7.2251-7.2876L23.50175,2.193A81.94838,81.94838,0,0,0,14.6641,7.088a84.11271,84.11271,0,0,0-8.188,5.94775L6.45,13.05728a.60178.60178,0,0,1-.80908-.88917c1.6455-1.64746,3.262-3.32177,4.93628-4.94189,1.66577-1.62793,3.31543-3.271,5.00879-4.87353a.10015.10015,0,0,1,.1455.1372Z"/><rect class="f2c6e5dc-443a-463f-ae4c-cc470b1f3af4" x="5.5053" y="0.71807" width="36.76596" height="22.21277" rx="1.46972"/><path class="bad6a09d-1db2-46d5-85e5-599c49489770" d="M15.98786,15.642a.25308.25308,0,0,1-.07715-.19336V8.33146a.25308.25308,0,0,1,.07715-.19336.26782.26782,0,0,1,.1875-.07031h.87988a.2445.2445,0,0,1,.26367.26367v7.11719a.2445.2445,0,0,1-.26367.26367h-.87988A.26782.26782,0,0,1,15.98786,15.642Z"/><path class="bad6a09d-1db2-46d5-85e5-599c49489770" d="M18.91364,14.27091a.25068.25068,0,0,1-.07715-.18554V8.33146a.25308.25308,0,0,1,.07715-.19336.26782.26782,0,0,1,.1875-.07031H20.025a.24451.24451,0,0,1,.26367.26367v5.75391a.26125.26125,0,0,1-.07129.18554.24679.24679,0,0,1-.19238.07813h-.92383A.25068.25068,0,0,1,18.91364,14.27091Z"/><path class="bad6a09d-1db2-46d5-85e5-599c49489770" d="M21.85016,14.27091a.25444.25444,0,0,1-.07714-.18554V13.392a.25366.25366,0,0,1,.07714-.19336.26946.26946,0,0,1,.1875-.07031h1.584a1.5831,1.5831,0,0,0,1.18262-.40235,1.72643,1.72643,0,0,0,.42285-1.17187q.01171-.14356.01172-.35156c0-.13868-.00391-.25391-.01172-.3418a1.435,1.435,0,0,0-1.60547-1.57227h-1.584a.258.258,0,0,1-.1875-.07617.2621.2621,0,0,1-.07714-.1875V8.33146a.25663.25663,0,0,1,.07714-.19336.26951.26951,0,0,1,.1875-.07031h1.63868a2.924,2.924,0,0,1,2.167.71484,2.98964,2.98964,0,0,1,.75879,2.05664q.01171.14356.01172.36329c0,.15429-.00391.27929-.01172.373a2.99116,2.99116,0,0,1-.75879,2.0586,2.924,2.924,0,0,1-2.167.71484H22.03766A.2522.2522,0,0,1,21.85016,14.27091Z"/><path class="bad6a09d-1db2-46d5-85e5-599c49489770" d="M31.16852,14.27091a.26556.26556,0,0,1-.19824.07813H27.73591a.26509.26509,0,0,1-.26368-.26367V13.435a.26507.26507,0,0,1,.26368-.26367h1.99121l-.13184-2.47461a5.45413,5.45413,0,0,0-.10449-.85743.87036.87036,0,0,0-.26953-.47851.88128.88128,0,0,0-.59375-.17188h-.50684a.26176.26176,0,0,1-.26367-.26367V8.28849a.25194.25194,0,0,1,.07715-.1875.25594.25594,0,0,1,.18652-.07812H28.649a2.77922,2.77922,0,0,1,1.3916.29687,1.71752,1.71752,0,0,1,.74219.875,4.6725,4.6725,0,0,1,.27539,1.49024l.17578,3.40039A.21844.21844,0,0,1,31.16852,14.27091Z"/></svg>