<svg preserveAspectRatio="none" id="f50c301a-a622-413a-8f2f-2395059843b8" data-name="Layer 1" xmlns="http://www.w3.org/2000/svg" viewBox="0 0 47.77657 23.64891"><defs><style>.bb05cbb2-23a4-4aa2-913d-4fe2eb163341{fill:none;stroke:#5bbf90;stroke-miterlimit:10;stroke-width:1.2792px;}.e84a265f-6d9e-4737-8d38-f16195df666b{fill:#5bbf90;}</style></defs><title>Artboard 380 copy 6</title><rect class="bb05cbb2-23a4-4aa2-913d-4fe2eb163341" x="5.5053" y="0.71807" width="36.76596" height="22.14706" rx="1.46972"/><path class="e84a265f-6d9e-4737-8d38-f16195df666b" d="M15.98884,15.64029a.24738.24738,0,0,1-.07715-.19336V8.3317a.24738.24738,0,0,1,.07715-.19336.26938.26938,0,0,1,.1875-.07227h.87988a.26471.26471,0,0,1,.19238.07227.258.258,0,0,1,.07129.19336v7.11523a.258.258,0,0,1-.07129.19336.26471.26471,0,0,1-.19238.07227h-.87988A.26938.26938,0,0,1,15.98884,15.64029Z"/><path class="e84a265f-6d9e-4737-8d38-f16195df666b" d="M18.91462,14.27115a.25194.25194,0,0,1-.07715-.1875V8.3317a.24738.24738,0,0,1,.07715-.19336.2694.2694,0,0,1,.1875-.07227H20.026a.26472.26472,0,0,1,.19238.07227.258.258,0,0,1,.07129.19336v5.752a.26267.26267,0,0,1-.07129.1875.25228.25228,0,0,1-.19238.07617h-.92383A.25639.25639,0,0,1,18.91462,14.27115Z"/><path class="e84a265f-6d9e-4737-8d38-f16195df666b" d="M21.85114,14.27115a.25568.25568,0,0,1-.07715-.1875v-.69336a.24932.24932,0,0,1,.07715-.19141.26259.26259,0,0,1,.1875-.07226h1.584a1.58249,1.58249,0,0,0,1.18261-.40039,1.72636,1.72636,0,0,0,.42285-1.17188c.00782-.0957.01172-.21289.01172-.35351q0-.208-.01172-.33985a1.43409,1.43409,0,0,0-1.60546-1.57226h-1.584a.25979.25979,0,0,1-.1875-.07813.25568.25568,0,0,1-.07715-.1875V8.3317a.25075.25075,0,0,1,.07715-.19336.27113.27113,0,0,1,.1875-.07227h1.63867a2.92392,2.92392,0,0,1,2.167.71485,2.99842,2.99842,0,0,1,.75879,2.05859c.00782.09375.01172.21484.01172.36133q0,.23144-.01172.375a2.98953,2.98953,0,0,1-.75879,2.05664,2.924,2.924,0,0,1-2.167.71484H22.03864A.258.258,0,0,1,21.85114,14.27115Z"/><path class="e84a265f-6d9e-4737-8d38-f16195df666b" d="M31.1695,14.27115a.27178.27178,0,0,1-.19824.07617H27.73688a.26176.26176,0,0,1-.26367-.26367v-.64844a.26176.26176,0,0,1,.26367-.26367h1.99121L29.59626,10.695a5.48513,5.48513,0,0,0-.10449-.85742.87036.87036,0,0,0-.26954-.47852.89183.89183,0,0,0-.59375-.16992h-.50683a.26509.26509,0,0,1-.26367-.26367V8.28677a.25818.25818,0,0,1,.07715-.1875.25418.25418,0,0,1,.18652-.07617H28.65a2.77913,2.77913,0,0,1,1.3916.29688,1.70968,1.70968,0,0,1,.74219.875,4.6621,4.6621,0,0,1,.27539,1.49023l.17578,3.39844A.22032.22032,0,0,1,31.1695,14.27115Z"/></svg>