<svg preserveAspectRatio="none" id="efa2e0f1-720c-4bbe-a2a2-a886d0e6a344" data-name="Layer 1" xmlns="http://www.w3.org/2000/svg" viewBox="0 0 47.77657 23.64891"><defs><style>.ed195b08-25ec-4339-99d6-a29da1108588{fill:none;stroke:#5289c7;stroke-miterlimit:10;stroke-width:1.2792px;}.a0a44498-cd13-49db-81a1-95f14c12369f{fill:#b9deee;}.abaf4e30-789e-49ca-8bc4-8fe9538d5e0e{fill:#5289c7;}</style></defs><title>Artboard 380</title><rect class="ed195b08-25ec-4339-99d6-a29da1108588" x="5.57078" y="0.71807" width="36.76596" height="22.21277" rx="1.46972"/><path class="a0a44498-cd13-49db-81a1-95f14c12369f" d="M15.848,2.80069C14.3782,4.53018,12.86513,6.21842,11.36794,7.922,9.87929,9.6337,8.33352,11.29044,6.81606,12.97452L5.98757,12.102a65.75478,65.75478,0,0,1,7.94275-6.19849A72.17567,72.17567,0,0,1,22.70083.91617a.8972.8972,0,0,1,1.01159,1.456l-.00793.00733c-2.4043,2.28686-4.81519,4.54809-7.15967,6.8645A74.754,74.754,0,0,0,9.9175,16.55l-.71069-.78028c1.87695-1.06787,3.76916-2.1101,5.63342-3.19873,1.87305-1.07421,3.73084-2.17382,5.58484-3.27978,1.8573-1.10034,3.68616-2.248,5.53052-3.36987,1.84265-1.12476,3.68359-2.2522,5.50268-3.41626a.43245.43245,0,0,1,.56128.64575l-.015.01733-8.21936,9.56226-4.14209,4.752c-1.34168,1.61011-2.93946,3.09961-3.50562,4.74976l-1.35473-1.10718,12.949-7.85938c4.327-2.60205,8.68665-5.14892,13.04883-7.69165l.02234-.01318A.9993.9993,0,0,1,42.06777,7.071l-5.9292,6.98145-2.9657,3.48975a19.44471,19.44471,0,0,0-1.36645,1.6997,1.89443,1.89443,0,0,0-.39051,1.57642l-.89465-.35547c3.20252-1.44214,6.39331-2.90845,9.6167-4.30762l.01416-.0061a.31988.31988,0,0,1,.43213.39062l-1.58716,4.97046-.00207.00635a.0999.0999,0,0,1-.19275-.05176c.37353-1.7041.77014-3.40893,1.17-5.11718l.44617.38452c-3.09119,1.67114-6.215,3.27514-9.32715,4.90307a.63433.63433,0,0,1-.85632-.26806l-.027-.05835-.01148-.02906a2.64457,2.64457,0,0,1-.118-1.50756,4.35769,4.35769,0,0,1,.49927-1.26636A15.66785,15.66785,0,0,1,31.98464,16.567l2.84387-3.5896,5.6897-7.178,1.28723,1.49707C37.48952,9.9169,33.17116,12.53336,28.82,15.09464L15.73476,22.725l-.01635.00952a.927.927,0,0,1-1.33851-1.1167A9.56167,9.56167,0,0,1,16.22536,18.683c.72681-.82348,1.44178-1.56079,2.15869-2.33691l4.30359-4.6062,8.67212-9.15357.54615.66309c-1.8805,1.06152-3.73926,2.15967-5.59632,3.2605-1.85522,1.10376-3.72607,2.18164-5.56836,3.30688-1.84558,1.11988-3.6875,2.24585-5.51416,3.39722-1.83533,1.13672-3.6427,2.32007-5.46545,3.478a.53547.53547,0,0,1-.72705-.75708l.01635-.0232a74.7669,74.7669,0,0,1,6.33484-7.78808c2.2688-2.45606,4.67273-4.76587,7.08179-7.04761l1.00366,1.46338a80.86667,80.86667,0,0,0-8.65979,4.72583A82.78007,82.78007,0,0,0,6.77383,13.0148l-.02686.02173a.6013.6013,0,0,1-.80176-.89453c1.61438-1.59131,3.2002-3.21021,4.84326-4.77417,1.63452-1.572,3.25318-3.15942,4.915-4.70532a.10015.10015,0,0,1,.14453.13818Z"/><path class="abaf4e30-789e-49ca-8bc4-8fe9538d5e0e" d="M16.05427,15.64063a.25019.25019,0,0,1-.07715-.19336V8.33106a.25019.25019,0,0,1,.07715-.19336.2686.2686,0,0,1,.1875-.07129h.87988a.26415.26415,0,0,1,.19238.07129.261.261,0,0,1,.07129.19336v7.11621a.261.261,0,0,1-.07129.19336.26415.26415,0,0,1-.19238.07129h-.87988A.2686.2686,0,0,1,16.05427,15.64063Z"/><path class="abaf4e30-789e-49ca-8bc4-8fe9538d5e0e" d="M18.98,14.27051a.2513.2513,0,0,1-.07715-.18652V8.33106A.25019.25019,0,0,1,18.98,8.1377a.2686.2686,0,0,1,.1875-.07129h.92383a.26417.26417,0,0,1,.19238.07129.261.261,0,0,1,.07129.19336V14.084a.262.262,0,0,1-.07129.18652.24948.24948,0,0,1-.19238.07715h-.92383A.25346.25346,0,0,1,18.98,14.27051Z"/><path class="abaf4e30-789e-49ca-8bc4-8fe9538d5e0e" d="M21.91657,14.27051a.25506.25506,0,0,1-.07715-.18652v-.69336a.25148.25148,0,0,1,.07715-.19238.266.266,0,0,1,.1875-.07129h1.584a1.58279,1.58279,0,0,0,1.18262-.40137,1.72633,1.72633,0,0,0,.42285-1.17187c.00782-.09571.01172-.21289.01172-.35254,0-.13868-.0039-.25293-.01172-.34082a1.43453,1.43453,0,0,0-1.60547-1.57227h-1.584a.26342.26342,0,0,1-.26465-.26465V8.33106a.25365.25365,0,0,1,.07715-.19336.27033.27033,0,0,1,.1875-.07129h1.63867a2.924,2.924,0,0,1,2.167.71484,2.994,2.994,0,0,1,.75879,2.05762c.00782.09473.01172.21582.01172.36231,0,.15429-.0039.27929-.01172.374a2.99031,2.99031,0,0,1-.75879,2.05762,2.924,2.924,0,0,1-2.167.71484H22.10407A.255.255,0,0,1,21.91657,14.27051Z"/><path class="abaf4e30-789e-49ca-8bc4-8fe9538d5e0e" d="M31.23493,14.27051a.26861.26861,0,0,1-.19824.07715H27.80231a.26341.26341,0,0,1-.26367-.26367v-.64941a.26341.26341,0,0,1,.26367-.26368h1.99121l-.13183-2.47558a5.46952,5.46952,0,0,0-.10449-.85742.87036.87036,0,0,0-.26954-.47852.8865.8865,0,0,0-.59375-.1709h-.50683a.26339.26339,0,0,1-.26367-.26367v-.6377a.26338.26338,0,0,1,.26367-.26464h.52832a2.77924,2.77924,0,0,1,1.3916.29687,1.71361,1.71361,0,0,1,.74219.875,4.6676,4.6676,0,0,1,.27539,1.49024l.17578,3.39941A.21939.21939,0,0,1,31.23493,14.27051Z"/></svg>