<svg preserveAspectRatio="none" id="b3fb733b-4f2a-4b57-8064-3595741a6822" data-name="Layer 1" xmlns="http://www.w3.org/2000/svg" viewBox="0 0 47.77657 23.64891"><defs><style>.ba95d2cc-2375-4cd8-8b46-6163bbae10f0{fill:none;stroke:#5289c7;stroke-miterlimit:10;stroke-width:1.2792px;}.f87b8cf9-6ab8-48db-9315-f36a6ed632bc{fill:#5289c7;}</style></defs><title>Artboard 380 copy 8</title><rect class="ba95d2cc-2375-4cd8-8b46-6163bbae10f0" x="5.57078" y="0.71807" width="36.76596" height="22.21277" rx="1.46972"/><path class="f87b8cf9-6ab8-48db-9315-f36a6ed632bc" d="M16.05427,15.64006a.24739.24739,0,0,1-.07715-.19336V8.33146a.24739.24739,0,0,1,.07715-.19336.26941.26941,0,0,1,.1875-.07226h.87988a.26474.26474,0,0,1,.19238.07226.258.258,0,0,1,.07129.19336V15.4467a.258.258,0,0,1-.07129.19336.26474.26474,0,0,1-.19238.07226h-.87988A.26941.26941,0,0,1,16.05427,15.64006Z"/><path class="f87b8cf9-6ab8-48db-9315-f36a6ed632bc" d="M18.98,14.27091a.25194.25194,0,0,1-.07715-.1875v-5.752A.24739.24739,0,0,1,18.98,8.1381a.26941.26941,0,0,1,.1875-.07226h.92383a.26476.26476,0,0,1,.19238.07226.258.258,0,0,1,.07129.19336v5.752a.26267.26267,0,0,1-.07129.1875.25225.25225,0,0,1-.19238.07618h-.92383A.25635.25635,0,0,1,18.98,14.27091Z"/><path class="f87b8cf9-6ab8-48db-9315-f36a6ed632bc" d="M21.91657,14.27091a.25568.25568,0,0,1-.07715-.1875v-.69335a.2493.2493,0,0,1,.07715-.19141.26256.26256,0,0,1,.1875-.07227h1.584a1.5825,1.5825,0,0,0,1.18262-.40039,1.72633,1.72633,0,0,0,.42285-1.17187c.00782-.09571.01172-.21289.01172-.35352q0-.208-.01172-.33984a1.4341,1.4341,0,0,0-1.60547-1.57227h-1.584a.25978.25978,0,0,1-.1875-.07812.25568.25568,0,0,1-.07715-.1875V8.33146a.25076.25076,0,0,1,.07715-.19336.27117.27117,0,0,1,.1875-.07226h1.63867a2.924,2.924,0,0,1,2.167.71484,2.99844,2.99844,0,0,1,.75879,2.05859c.00782.09375.01172.21485.01172.36133q0,.23145-.01172.375a2.98953,2.98953,0,0,1-.75879,2.05664,2.92392,2.92392,0,0,1-2.167.71485H22.10407A.258.258,0,0,1,21.91657,14.27091Z"/><path class="f87b8cf9-6ab8-48db-9315-f36a6ed632bc" d="M31.23493,14.27091a.27174.27174,0,0,1-.19824.07618H27.80231a.26177.26177,0,0,1-.26367-.26368V13.435a.26176.26176,0,0,1,.26367-.26367h1.99121l-.13183-2.47657a5.48545,5.48545,0,0,0-.10449-.85742.87033.87033,0,0,0-.26954-.47851.89178.89178,0,0,0-.59375-.16993h-.50683a.26506.26506,0,0,1-.26367-.26367V8.28654a.25817.25817,0,0,1,.07714-.1875.25422.25422,0,0,1,.18653-.07617h.52832a2.77924,2.77924,0,0,1,1.3916.29687,1.70976,1.70976,0,0,1,.74219.875,4.66216,4.66216,0,0,1,.27539,1.49024l.17578,3.39843A.22032.22032,0,0,1,31.23493,14.27091Z"/></svg>