<svg preserveAspectRatio="none" id="bb2c3fa8-d7b1-4928-b83f-48dd595172cd" data-name="Layer 1" xmlns="http://www.w3.org/2000/svg" viewBox="0 0 47.77657 23.64891"><defs><style>.b5e2510a-482f-4bce-8e69-e0648a6bff92{fill:#b9deee;}.be2a9a89-42af-4da0-8e2f-7fc1bf8d2855{fill:none;stroke:#5bbf90;stroke-miterlimit:10;stroke-width:1.2792px;}.fc82fbb4-a452-4034-940b-a8eedf0b25f3{fill:#5bbf90;}</style></defs><title>Artboard 380 copy 7</title><path class="b5e2510a-482f-4bce-8e69-e0648a6bff92" d="M15.80744,2.48992c-1.49976,1.78467-3.04321,3.52832-4.57056,5.28662-1.51855,1.76709-3.09521,3.479-4.64282,5.21875l-.8352-.86768a67.23763,67.23763,0,0,1,8.09106-6.396A73.4375,73.4375,0,0,1,22.79865.5739a.89725.89725,0,0,1,1.02026,1.44971l-.00781.00732c-2.45312,2.3667-4.91357,4.707-7.30395,7.105a77.00449,77.00449,0,0,0-6.7522,7.55859l-.71509-.7749c1.91333-1.106,3.842-2.18653,5.74292-3.313,1.90943-1.11231,3.80347-2.24951,5.69385-3.39307,1.8938-1.13769,3.75854-2.32324,5.63916-3.48291,1.87866-1.1626,3.75635-2.32715,5.61133-3.52832a.43139.43139,0,0,1,.564.64063L32.27643,2.86l-8.38549,9.88134L19.66559,17.653c-1.36889,1.66406-2.998,3.20312-3.57788,4.916l-1.36108-1.1001L27.93,13.34685c4.41211-2.689,8.85644-5.32422,13.3042-7.95459l.02173-.01318a.99988.99988,0,0,1,1.27563,1.50244L36.4842,14.10808l-3.0249,3.61231A19.807,19.807,0,0,0,32.066,19.48211a2.00206,2.00206,0,0,0-.3955,1.65039l-.89893-.35694c3.26489-1.49463,6.51758-3.01367,9.80347-4.46582l.01367-.00634a.32153.32153,0,0,1,.43652.39062l-1.616,5.14209-.0022.00684a.09981.09981,0,0,1-.19263-.05176l1.19531-5.28809.4502.38428C37.70734,18.61,34.5218,20.26531,31.34821,21.945a.63535.63535,0,0,1-.85864-.26416L30.46,21.61638l-.011-.02832a2.74,2.74,0,0,1-.12036-1.53466,4.50911,4.50911,0,0,1,.50269-1.29834,16.05055,16.05055,0,0,1,1.43286-2.002l2.90185-3.71142L40.97272,5.6198l1.29737,1.48926c-4.40064,2.7085-8.80445,5.41113-13.24048,8.06055L15.68854,23.06316l-.01587.00928a.9272.9272,0,0,1-1.34545-1.10986,9.87064,9.87064,0,0,1,1.87109-3.019c.73974-.85107,1.46973-1.61474,2.20044-2.418l4.38843-4.7666,8.842-9.4751.54931.65821C30.2613,4.04168,28.36677,5.1784,26.47321,6.31658,24.58185,7.45818,22.67438,8.5739,20.796,9.737c-1.88184,1.15771-3.75977,2.32129-5.62256,3.51025-1.87159,1.17432-3.71485,2.395-5.57349,3.59034a.53513.53513,0,0,1-.731-.75245l.01563-.02246A76.96545,76.96545,0,0,1,15.34015,8.0241c2.314-2.5376,4.76685-4.92676,7.2251-7.2876L23.5777,2.193a81.9535,81.9535,0,0,0-8.83789,4.895,84.14153,84.14153,0,0,0-8.18774,5.94776L6.526,13.0573a.60185.60185,0,0,1-.80933-.88916c1.64575-1.64746,3.262-3.32178,4.93652-4.94189,1.66577-1.62793,3.31543-3.27149,5.00879-4.87354a.10016.10016,0,0,1,.14551.13721Z"/><rect class="be2a9a89-42af-4da0-8e2f-7fc1bf8d2855" x="5.5053" y="0.71807" width="36.76596" height="22.21277" rx="1.46972"/><path class="fc82fbb4-a452-4034-940b-a8eedf0b25f3" d="M15.98884,15.64a.25019.25019,0,0,1-.07715-.19336V8.33043a.25021.25021,0,0,1,.07715-.19336.2686.2686,0,0,1,.1875-.07129h.87988a.26415.26415,0,0,1,.19238.07129.261.261,0,0,1,.07129.19336v7.11621a.261.261,0,0,1-.07129.19336.26411.26411,0,0,1-.19238.07129h-.87988A.26856.26856,0,0,1,15.98884,15.64Z"/><path class="fc82fbb4-a452-4034-940b-a8eedf0b25f3" d="M18.91462,14.26989a.25134.25134,0,0,1-.07715-.18653V8.33043a.25021.25021,0,0,1,.07715-.19336.26862.26862,0,0,1,.1875-.07129H20.026a.26417.26417,0,0,1,.19238.07129.261.261,0,0,1,.07129.19336v5.75293a.262.262,0,0,1-.07129.18653.24951.24951,0,0,1-.19238.07714h-.92383A.25351.25351,0,0,1,18.91462,14.26989Z"/><path class="fc82fbb4-a452-4034-940b-a8eedf0b25f3" d="M21.85114,14.26989a.2551.2551,0,0,1-.07715-.18653V13.39a.25148.25148,0,0,1,.07715-.19238.266.266,0,0,1,.1875-.07129h1.584a1.58278,1.58278,0,0,0,1.18261-.40137,1.72631,1.72631,0,0,0,.42285-1.17187c.00782-.0957.01172-.21289.01172-.35254,0-.13867-.0039-.25293-.01172-.34082a1.43453,1.43453,0,0,0-1.60546-1.57227h-1.584a.2634.2634,0,0,1-.26465-.26464V8.33043a.25367.25367,0,0,1,.07715-.19336.27033.27033,0,0,1,.1875-.07129h1.63867a2.924,2.924,0,0,1,2.167.71485,2.994,2.994,0,0,1,.75879,2.05761c.00782.09473.01172.21583.01172.36231,0,.1543-.0039.2793-.01172.374a2.99029,2.99029,0,0,1-.75879,2.05762,2.924,2.924,0,0,1-2.167.71484H22.03864A.25506.25506,0,0,1,21.85114,14.26989Z"/><path class="fc82fbb4-a452-4034-940b-a8eedf0b25f3" d="M31.1695,14.26989a.26864.26864,0,0,1-.19824.07714H27.73688a.26339.26339,0,0,1-.26367-.26367V13.434a.26339.26339,0,0,1,.26367-.26367h1.99121l-.13183-2.47559a5.46968,5.46968,0,0,0-.10449-.85742.87036.87036,0,0,0-.26954-.47852.8865.8865,0,0,0-.59375-.1709h-.50683a.26339.26339,0,0,1-.26367-.26367V8.28649a.26341.26341,0,0,1,.26367-.26465H28.65a2.77924,2.77924,0,0,1,1.3916.29687,1.71365,1.71365,0,0,1,.74219.875,4.6676,4.6676,0,0,1,.27539,1.49024l.17578,3.39941A.21942.21942,0,0,1,31.1695,14.26989Z"/></svg>