<svg id="f93fe4d2-5885-47bf-86d3-87c448a6beaf" data-name="Layer 1" xmlns="http://www.w3.org/2000/svg" xmlns:xlink="http://www.w3.org/1999/xlink" viewBox="0 0 90.19295 29.63529"><defs><style>.a73b7b4f-7361-4d87-ad26-8c4f02f8a172,.f09f0baa-f4e6-42a5-919f-48cf84fb824e,.f6d9f850-6fb3-48e0-ba75-8b0fd2e2e732{fill:none;}.ed490631-c80b-4ebe-8764-491e567c5ef7{clip-path:url(#b0d108a6-45b7-4cdd-8b28-24889282895c);}.a73b7b4f-7361-4d87-ad26-8c4f02f8a172,.f6d9f850-6fb3-48e0-ba75-8b0fd2e2e732{stroke:#fff;stroke-miterlimit:10;stroke-width:2px;}.f6d9f850-6fb3-48e0-ba75-8b0fd2e2e732{stroke-dasharray:8.07635 8.07635;}.a73b7b4f-7361-4d87-ad26-8c4f02f8a172{stroke-dasharray:8.47504 8.47504;}</style><clipPath id="b0d108a6-45b7-4cdd-8b28-24889282895c"><rect class="f09f0baa-f4e6-42a5-919f-48cf84fb824e" x="237.7133" y="96.86601" width="530.04255" height="298.14894"/></clipPath></defs><title>Artboard 29</title><path class="f6d9f850-6fb3-48e0-ba75-8b0fd2e2e732" d="M3.70166,2.9399a1.68484,1.68484,0,0,1,.99756-.58533C17.90332-1.40581,18.6377,3.85628,32.3667,3.85628c13.731,0,13.731-1.531,27.46191-1.531,13.73047,0,14.04541-2.2561,27.252,1.50183,3.75781,1.06934.97509,3.1709.97509,7.078,0,3.90991-2.48828,4.22729-1.50634,8.012,1.20654,4.65222,4.71093,7.29285.95068,8.36365C74.2959,31.04109,73.561,25.779,59.832,25.779c-13.73047,0-13.73047,1.531-27.46142,1.531s-14.0459,2.25623-27.25245-1.5017A4.40153,4.40153,0,0,1,4.28271,25.5"/><ellipse class="a73b7b4f-7361-4d87-ad26-8c4f02f8a172" cx="4.51807" cy="14.08476" rx="3.51807" ry="11.58023"/></svg>