<svg id="fa1e83d5-4098-46ab-a58f-0a5e42cd4c7d" data-name="Layer 1" xmlns="http://www.w3.org/2000/svg" viewBox="0 0 118.21277 43.24857"><defs><style>.e734ddeb-02a3-4b1f-a99e-1624c3abc95b{fill:#537435;}.a586d20e-14d3-44f8-8362-711802baf424{fill:none;stroke:#678e3d;stroke-linecap:round;stroke-linejoin:round;stroke-width:7.90488px;}.a717b271-81ab-4809-8ce3-722df1947771{fill:#678e3d;}.f74d58fb-30a0-41db-a9fc-62263380a59f{fill:#86c66b;}</style></defs><title>Artboard 194</title><path class="e734ddeb-02a3-4b1f-a99e-1624c3abc95b" d="M21.62426,0H96.5885a21.62426,21.62426,0,0,1,21.62426,21.62426v0A21.62426,21.62426,0,0,1,96.5885,43.24857H21.62427A21.62427,21.62427,0,0,1,0,21.62431v0A21.62426,21.62426,0,0,1,21.62426,0Z"/><path class="a586d20e-14d3-44f8-8362-711802baf424" d="M18.1644,34.62289c3.591,0,3.591,2.25853,7.182,2.25853,3.59141,0,3.59141-2.25853,7.18282-2.25853,3.592,0,3.592,2.25853,7.18394,2.25853,3.58957,0,3.58957-2.25853,7.17913-2.25853,3.59113,0,3.59113,2.25853,7.18225,2.25853s3.59112-2.25853,7.18223-2.25853,3.59118,2.25853,7.18236,2.25853c3.59211,0,3.59211-2.25853,7.18422-2.25853,3.59016,0,3.59016,2.25853,7.18032,2.25853,3.59328,0,3.59328-2.25853,7.18656-2.25853,3.59575,0,3.59575,2.25853,7.1915,2.25853s3.59575-2.25853,7.1915-2.25853"/><path class="a717b271-81ab-4809-8ce3-722df1947771" d="M10.12368,13.99846a1.99109,1.99109,0,0,1-.83252,1.02514,8.67172,8.67172,0,0,1-1.0293.5044c-.28662.12573-.45557.27026-.45508.36621.001.096.0293.14111.04932.33276l.00244.02759a.21693.21693,0,0,0,.02881-.05835.49772.49772,0,0,0,.02588-.14014c.02978-.04.00488-.12548.03515-.11206.01172-.01538.02442-.01147.061.01685l.104.0835.66455.56884a6.87562,6.87562,0,0,1,.85645.86939,3.31322,3.31322,0,0,1,.77344,1.86328,2.87509,2.87509,0,0,1-.084.84595,3.87589,3.87589,0,0,1-.22363.61792,5.81655,5.81655,0,0,1-.44678.78442l-.67431.9624a1.66459,1.66459,0,0,0-.29981.57837c-.00683.02857,0,.0437.02783.03l.02491-.01147a.45667.45667,0,0,0,.05859-.07178A1.03024,1.03024,0,0,0,8.90542,22.82a1.59271,1.59271,0,0,0,.05517-.46265,1.90907,1.90907,0,0,0-.14844-.65185,2.38272,2.38272,0,0,0-.18847-.36646.64219.64219,0,0,0-.07129-.10009c-.01319-.02124-.0083-.02784-.01514-.04126-.021-.03028-.01123-.03565.01856-.02979a4.9236,4.9236,0,0,1,.6455.23511,7.91341,7.91341,0,0,1,1.19.59009,4.836,4.836,0,0,1,.85156.65649,4.17686,4.17686,0,0,1,.98,1.44263,4.28715,4.28715,0,0,1,.27295,1.16211,4.98226,4.98226,0,0,1-.00684.8728,5.9047,5.9047,0,0,1-.09228.62744c-.03516.17944-.0752.354-.10791.4773-.14112.55786-.24317.93872-.30811,1.24511-.05859.2876-.05957.52173.02393.49536.01318.00977.04345-.03051.07324-.09912a.60943.60943,0,0,0,.03613-.09863,1.44608,1.44608,0,0,0,.041-.19434,2.57445,2.57445,0,0,0-.22657-1.377,3.39624,3.39624,0,0,0-1.11914-1.33935,2.00084,2.00084,0,0,0-.18994-.1167.83627.83627,0,0,0-.084-.05909c-.08008-.04077-.08447-.0559-.0874-.06445-.01416-.0376.231-.0022.55761.05664a8.62574,8.62574,0,0,1,1.418.38257,6.65919,6.65919,0,0,1,1.17334.55859A5.45782,5.45782,0,0,1,15.18911,28.09a4.89414,4.89414,0,0,1,.623,1.28247,4.53428,4.53428,0,0,1,.189.98413l.02148.40088-.0122.30347-.02149.29565-.03711.22852a5.3367,5.3367,0,0,1-.39111,1.26587c-.14209.27954-.24512.477-.36768.48779-.03222.02173-.0581-.01563-.09228-.04541-.03565-.0044-.06738-.09717-.12549-.16724a2.82617,2.82617,0,0,0-.62744-.70215,1.146,1.146,0,0,0-.92237-.3457c-.09179.01831-.11132.05371-.11376.0896-.02442.03662.00781.083.0371.125a2.52127,2.52127,0,0,0,.78125.51441c.34473.19775.74708.36181,1.166.62915a4.83365,4.83365,0,0,1,.62842.468,2.02448,2.02448,0,0,1,.478.7024.38929.38929,0,0,1-.228.50073l-.01807.0061-.27539.08692a1.07356,1.07356,0,0,0-.40332.25927l-.35205.3086a9.63152,9.63152,0,0,1-.82227.64575,3.90318,3.90318,0,0,1-1.207.55127,2.11474,2.11474,0,0,1-.45849.07983,2.49451,2.49451,0,0,1-.6001-.00757,3.13615,3.13615,0,0,1-1.78564-.81445A4.33621,4.33621,0,0,1,9.18129,34.642a5.16765,5.16765,0,0,1-.2124-.656c-.05127-.19483-.09472-.39722-.12207-.54151-.13086-.65283-.1543-1.11645-.21191-1.49438-.05176-.36109-.09033-.65113-.17725-.71167l-.0249-.01978-.02686.04688a.22544.22544,0,0,0-.019.05493,1.24605,1.24605,0,0,0-.01074.15405,1.95584,1.95584,0,0,0,.07715.50073,3.36279,3.36279,0,0,0,.14941.40674,2.98484,2.98484,0,0,0,.25.43457,3.24152,3.24152,0,0,0,.82861.843c.189.12988.252.15356.25684.17676a1.54263,1.54263,0,0,1-.51758-.07349,9.8124,9.8124,0,0,1-1.38086-.38745,5.543,5.543,0,0,1-.55664-.23022l-.314-.15381c-.12793-.06861-.27442-.15479-.40674-.23828a4.98367,4.98367,0,0,1-1.81983-2.02271,4.71675,4.71675,0,0,1-.41113-2.34326c.01319-.14868.03076-.29663.05225-.44287.02295-.1333.04931-.22876.07715-.34375a3.79962,3.79962,0,0,1,.1831-.58374,6.73506,6.73506,0,0,1,.72949-1.36328,4.00433,4.00433,0,0,1,.45606-.59156c.02685-.03149.03125-.01684.03955.00245.01855-.00611.00732.0686.01123.1416.01367.02954-.00684.24365.0249.37744a2.33326,2.33326,0,0,0,.17725.677c.37305.752.605.68945.53808.62524a2.1266,2.1266,0,0,0-.49951-.45971c-.26758-.2085-.59472-.43286-1.04443-.81323-.106-.0896-.22705-.19678-.36914-.34083l-.19971-.20776-.23535-.28735A3.9918,3.9918,0,0,1,4.008,23.9987a3.479,3.479,0,0,1-.2788-1.12744,3.36866,3.36866,0,0,1,.081-.95679,3.144,3.144,0,0,1,.25635-.73657l.1543-.301.15039-.22657a3.1808,3.1808,0,0,1,.29931-.38623,6.60508,6.60508,0,0,1,1.0083-.91821c.28662-.21484.53125-.38648.686-.48877.07959-.04907.12549-.07861.12695-.02637.02295-.00122-.03271.11035-.02051.165a1.01281,1.01281,0,0,0-.01611.3562c.08105.304.17822.19068.12207.0105a3.33291,3.33291,0,0,0-.31787-.73535c-.15381-.29224-.33838-.60376-.53906-1.01489-.04932-.10181-.09961-.20752-.15235-.34253a2.92117,2.92117,0,0,1-.14453-.43482,2.63584,2.63584,0,0,1-.08056-.594A1.82928,1.82928,0,0,1,5.465,15.58a2.737,2.737,0,0,1,1.07177-1.32959,2.67864,2.67864,0,0,1,1.37744-.36084c.74317-.00317,1.12549.09863,1.51709-.27246l.03418-.03247a.40134.40134,0,0,1,.65821.41382Z"/><path class="f74d58fb-30a0-41db-a9fc-62263380a59f" d="M24.495,27.83844a.57719.57719,0,0,1-.17578-.42481V14.33844a.56655.56655,0,0,1,.17578-.4375.60033.60033,0,0,1,.4248-.16309h2.09961a.56176.56176,0,0,1,.60059.60059V27.41363a.602.602,0,0,1-.16309.42481.56931.56931,0,0,1-.4375.1748H24.91981A.57851.57851,0,0,1,24.495,27.83844Z"/><path class="f74d58fb-30a0-41db-a9fc-62263380a59f" d="M40.01845,15.26324q1.40038,1.5249,1.40039,4.875a7.35111,7.35111,0,0,1-1.72559,5.09961,9.36191,9.36191,0,0,1-4.39941,2.72559l-1.02539.32519a.45078.45078,0,0,1-.4502-.10058.57107.57107,0,0,1-.19922-.4502V25.91363a.66458.66458,0,0,1,.16211-.42578.98878.98878,0,0,1,.4375-.2998l.875-.34961a5.02607,5.02607,0,0,0,2.23731-1.625,5.02192,5.02192,0,0,0,.78808-3.04981,6.03909,6.03909,0,0,0-.3125-2.16308,2.05058,2.05058,0,0,0-1.05078-1.1377,4.8549,4.8549,0,0,0-2.03711-.34961h-.77539l-2.7998-.02539a.63548.63548,0,0,1-.4502-.16211.54007.54007,0,0,1-.1748-.41211V10.86285a.58163.58163,0,0,1,.1748-.4248.61162.61162,0,0,1,.4502-.17481h1.82519a.55894.55894,0,0,1,.59961.59961v2.875h1.72559Q38.61757,13.73785,40.01845,15.26324Z"/><path class="f74d58fb-30a0-41db-a9fc-62263380a59f" d="M44.34364,21.98785a.57478.57478,0,0,1-.1748-.4248V14.33844a.56592.56592,0,0,1,.1748-.4375.60035.60035,0,0,1,.42481-.16309h2.125a.56175.56175,0,0,1,.60058.60059v7.22461a.60032.60032,0,0,1-.16308.4248.56658.56658,0,0,1-.4375.17578h-2.125A.57565.57565,0,0,1,44.34364,21.98785Z"/><path class="f74d58fb-30a0-41db-a9fc-62263380a59f" d="M50.96864,27.83844a.57723.57723,0,0,1-.17578-.42481V14.33844a.56659.56659,0,0,1,.17578-.4375.60035.60035,0,0,1,.42481-.16309h5.34961a7.22389,7.22389,0,0,1,5.01269,1.5,6.08445,6.08445,0,0,1,1.6377,4.7002v7.47558a.602.602,0,0,1-.16309.42481.56933.56933,0,0,1-.4375.1748h-2a.59684.59684,0,0,1-.59961-.59961V19.96344q0-3.54931-3.57519-3.54981h-2.625v11a.60117.60117,0,0,1-.16211.42481.57079.57079,0,0,1-.4375.1748h-2A.57853.57853,0,0,1,50.96864,27.83844Z"/><path class="f74d58fb-30a0-41db-a9fc-62263380a59f" d="M78.89345,15.25055a5.92393,5.92393,0,0,1,1.65039,4.58789v7.57519a.602.602,0,0,1-.16309.42481.56933.56933,0,0,1-.4375.1748h-2a.59684.59684,0,0,1-.59961-.59961V19.96344q0-3.54931-3.57519-3.54981h-1.7002a17.49871,17.49871,0,0,0-.34961,2.07422,18.49679,18.49679,0,0,0-.07519,2.22559l.125,6.70019a.59684.59684,0,0,1-.59961.59961l-4.40039-.02539a.59683.59683,0,0,1-.59961-.59961v-1.375a.566.566,0,0,1,.1748-.4375.59954.59954,0,0,1,.42481-.16211l1.97558.02442V20.78863a20.90252,20.90252,0,0,1,.0625-2.26269,14.09047,14.09047,0,0,1,.36231-2.11231H67.744a.59849.59849,0,0,1-.60058-.60058V14.33844a.56931.56931,0,0,1,.1748-.4375.60435.60435,0,0,1,.42578-.16309h6.17481A7.15167,7.15167,0,0,1,78.89345,15.25055Z"/><path class="f74d58fb-30a0-41db-a9fc-62263380a59f" d="M93.34267,27.83844a.5801.5801,0,0,1-.17481-.42481V19.96344q0-3.54931-3.5498-3.54981H84.44325a.60015.60015,0,0,1-.60058-.60058V14.33844a.56655.56655,0,0,1,.17578-.4375.60033.60033,0,0,1,.4248-.16309h5.29981q6.624,0,6.625,6.2002v7.47558a.60548.60548,0,0,1-.16211.42481.57225.57225,0,0,1-.4375.1748h-2A.58227.58227,0,0,1,93.34267,27.83844Zm-9.32422,0a.57719.57719,0,0,1-.17578-.42481V19.56305a.568.568,0,0,1,.17578-.4375.59951.59951,0,0,1,.4248-.16211h2a.55894.55894,0,0,1,.59961.59961v7.85058a.60117.60117,0,0,1-.16211.42481.57078.57078,0,0,1-.4375.1748h-2A.57851.57851,0,0,1,84.01845,27.83844Z"/></svg>