<svg id="ab9d9f5d-62fb-43ed-bcd8-b18602da1541" data-name="Layer 1" xmlns="http://www.w3.org/2000/svg" viewBox="0 0 118.21277 43.24857"><defs><style>.a1d6b38a-00af-401a-ba6b-092b2f4b3557{fill:#537435;}.b010f0ba-00a5-42b9-b540-1f500f5d2503{fill:none;stroke:#678e3d;stroke-linecap:round;stroke-linejoin:round;stroke-width:7.90488px;}.a7845a16-fa6e-4c48-8537-80bd47c6a1aa{fill:#678e3d;}.b54745fe-17d1-45b9-8277-96a6fa0cd0c8{fill:#86c66b;}</style></defs><title>Artboard 137</title><path class="a1d6b38a-00af-401a-ba6b-092b2f4b3557" d="M21.62426,0H96.5885a21.62426,21.62426,0,0,1,21.62426,21.62426v0A21.62426,21.62426,0,0,1,96.5885,43.24857H21.62427A21.62427,21.62427,0,0,1,0,21.62431v0A21.62426,21.62426,0,0,1,21.62426,0Z"/><path class="b010f0ba-00a5-42b9-b540-1f500f5d2503" d="M18.1644,34.62289c3.591,0,3.591,2.25853,7.182,2.25853,3.59141,0,3.59141-2.25853,7.18282-2.25853,3.592,0,3.592,2.25853,7.18394,2.25853,3.58957,0,3.58957-2.25853,7.17913-2.25853,3.59113,0,3.59113,2.25853,7.18225,2.25853s3.59112-2.25853,7.18223-2.25853,3.59118,2.25853,7.18236,2.25853c3.59211,0,3.59211-2.25853,7.18422-2.25853,3.59016,0,3.59016,2.25853,7.18032,2.25853,3.59328,0,3.59328-2.25853,7.18656-2.25853,3.59575,0,3.59575,2.25853,7.1915,2.25853s3.59575-2.25853,7.1915-2.25853"/><path class="a7845a16-fa6e-4c48-8537-80bd47c6a1aa" d="M10.12344,13.99833a1.98824,1.98824,0,0,1-.832,1.02539,8.75086,8.75086,0,0,1-1.02978.50439c-.28662.12574-.45508.27-.45508.36621.00146.09571.02978.14112.0498.33277l.002.02734a.22828.22828,0,0,0,.02929-.0581.51838.51838,0,0,0,.02588-.14038c.0293-.0398.00489-.12549.03467-.11207.01172-.01513.02442-.01147.06152.01709l.104.08326.66455.56909a6.893,6.893,0,0,1,.85644.86938,3.316,3.316,0,0,1,.77295,1.86328,2.87367,2.87367,0,0,1-.08349.84595,3.99141,3.99141,0,0,1-.22364.61792,5.86425,5.86425,0,0,1-.44677.78418l-.67432.96265a1.67321,1.67321,0,0,0-.30029.57837c-.00635.02856.00049.0437.02783.02978l.02539-.01147a.47084.47084,0,0,0,.05859-.07154,1.03277,1.03277,0,0,0,.11475-.262,1.59429,1.59429,0,0,0,.05469-.4624,1.89588,1.89588,0,0,0-.14795-.65186,2.48132,2.48132,0,0,0-.18848-.3667.67579.67579,0,0,0-.07178-.09985c-.01318-.02124-.00781-.02808-.01464-.0415-.02149-.03-.01172-.0354.01806-.02979a4.93583,4.93583,0,0,1,.64551.23511A7.91474,7.91474,0,0,1,10.391,21.993a4.80927,4.80927,0,0,1,.85156.65674,4.17787,4.17787,0,0,1,.98047,1.44238,4.26913,4.26913,0,0,1,.27246,1.16235,4.98176,4.98176,0,0,1-.00683.8728,5.92712,5.92712,0,0,1-.0918.62745c-.03515.17944-.07519.35376-.1084.477-.14062.5581-.24316.93872-.30761,1.24511-.05909.28785-.06006.52173.02392.49537.01319.00976.043-.03028.07324-.09913a.69589.69589,0,0,0,.03614-.09863,1.37067,1.37067,0,0,0,.04052-.19409,2.57024,2.57024,0,0,0-.22656-1.3772,3.40016,3.40016,0,0,0-1.11865-1.33935,2.18955,2.18955,0,0,0-.18994-.11646.85483.85483,0,0,0-.084-.05908c-.08056-.04077-.085-.05591-.08789-.0647-.01416-.03735.23145-.002.55762.05689a8.61548,8.61548,0,0,1,1.41846.38257,6.68681,6.68681,0,0,1,1.17285.55835,5.45506,5.45506,0,0,1,1.59228,1.4685,4.89773,4.89773,0,0,1,.62354,1.28272,4.52942,4.52942,0,0,1,.18848.98413l.02148.40063-.01221.30347-.02148.29565-.03711.22852a5.37,5.37,0,0,1-.39063,1.26611c-.14257.2793-.2456.47681-.36767.48755-.03272.022-.05811-.01562-.09229-.04541-.03613-.00439-.06787-.09692-.12549-.16724a2.83877,2.83877,0,0,0-.62792-.70214,1.14633,1.14633,0,0,0-.92237-.34546c-.0918.01831-.11133.05346-.11328.0896-.0249.03662.00732.083.03662.125a2.52571,2.52571,0,0,0,.78125.51416c.34473.198.74756.36181,1.166.62939a4.74685,4.74685,0,0,1,.62842.468,2.02918,2.02918,0,0,1,.47851.70215.38934.38934,0,0,1-.22851.50073l-.01758.0061-.27588.08716a1.07,1.07,0,0,0-.40332.259l-.35156.3086a9.58474,9.58474,0,0,1-.82227.646,3.91743,3.91743,0,0,1-1.20752.551,2.09016,2.09016,0,0,1-.458.07983,2.47281,2.47281,0,0,1-.60058-.00757,3.13152,3.13152,0,0,1-1.78516-.8142,4.3404,4.3404,0,0,1-1.07129-1.5813,5.17954,5.17954,0,0,1-.2124-.656c-.05078-.19482-.09473-.39722-.12207-.5415-.13086-.65308-.1543-1.11646-.21192-1.49439-.05175-.36133-.09033-.65136-.17675-.71167L8.433,31.21879l-.02685.04687a.21662.21662,0,0,0-.01953.05493,1.15475,1.15475,0,0,0-.01026.15406,1.91538,1.91538,0,0,0,.07715.50073,3.213,3.213,0,0,0,.14942.40674,2.99815,2.99815,0,0,0,.25.43457,3.23155,3.23155,0,0,0,.82861.84277c.189.12988.25146.15357.25635.177a1.55,1.55,0,0,1-.51758-.07348,9.85872,9.85872,0,0,1-1.38086-.3877,5.48389,5.48389,0,0,1-.55615-.23022l-.314-.15381c-.12793-.06836-.2749-.15479-.40722-.23828a4.98517,4.98517,0,0,1-1.81983-2.02271A4.71546,4.71546,0,0,1,4.53165,28.387c.01269-.14868.03027-.29663.05224-.44263.02246-.1333.04932-.22876.07666-.344a3.79952,3.79952,0,0,1,.18311-.58374,6.73207,6.73207,0,0,1,.72949-1.363,4.01069,4.01069,0,0,1,.45606-.59155c.02734-.0315.03173-.01685.04.00244.01807-.00635.00684.06836.01124.14136.01367.02978-.00733.24365.02441.37744a2.32926,2.32926,0,0,0,.17725.677c.37353.7522.605.68945.53808.62549a2.11018,2.11018,0,0,0-.499-.45972c-.26807-.20849-.59522-.4331-1.04444-.81323-.10644-.0896-.22705-.197-.36962-.34082l-.19971-.20776-.23486-.28736a3.96169,3.96169,0,0,1-.46485-.77832,3.50124,3.50124,0,0,1-.27881-1.12744A3.38472,3.38472,0,0,1,3.81,21.91459a3.13578,3.13578,0,0,1,.25635-.73657l.15478-.301.1499-.22656a3.16222,3.16222,0,0,1,.29932-.38623,6.61511,6.61511,0,0,1,1.0083-.91822c.28662-.21484.53174-.38671.68652-.489.0791-.04907.12549-.07837.127-.02612.02295-.00122-.03321.11035-.02051.165a.99948.99948,0,0,0-.01611.356c.08105.3042.17822.19092.12207.0105a3.34936,3.34936,0,0,0-.31836-.73535c-.15332-.29224-.33789-.60376-.53858-1.01465-.0498-.1018-.09961-.20752-.15234-.34253a2.91573,2.91573,0,0,1-.14453-.43506,2.62982,2.62982,0,0,1-.08106-.59375,1.82659,1.82659,0,0,1,.12256-.66088,2.73756,2.73756,0,0,1,1.07129-1.32959A2.67954,2.67954,0,0,1,7.914,13.88969c.74365-.00318,1.12549.09863,1.51709-.27271l.03418-.03223a.40128.40128,0,0,1,.6582.41358Z"/><path class="b54745fe-17d1-45b9-8277-96a6fa0cd0c8" d="M22.29267,28.13726a.55338.55338,0,0,1-.168-.4082V26.313a.54663.54663,0,0,1,.168-.41992.58093.58093,0,0,1,.4082-.15625h6.45605V20.60211q0-3.4336-3.4082-3.43164H22.9411a.57351.57351,0,0,1-.57617-.57618v-1.416a.54379.54379,0,0,1,.168-.41992.57084.57084,0,0,1,.4082-.15625h2.92774a7.09876,7.09876,0,0,1,4.84765,1.45117,5.72592,5.72592,0,0,1,1.63184,4.5v5.18359h.86426a.53836.53836,0,0,1,.57617.57617v1.416a.575.575,0,0,1-.15625.4082.54042.54042,0,0,1-.41992.168H22.70087A.55121.55121,0,0,1,22.29267,28.13726Z"/><path class="b54745fe-17d1-45b9-8277-96a6fa0cd0c8" d="M36.26142,28.13726a.55338.55338,0,0,1-.168-.4082V15.17828a.54375.54375,0,0,1,.168-.41992.57081.57081,0,0,1,.4082-.15625h2.01562a.56289.56289,0,0,1,.41993.15625.569.569,0,0,1,.15625.41992V27.72906a.57927.57927,0,0,1-.15625.4082.54186.54186,0,0,1-.41993.168H36.66962A.54968.54968,0,0,1,36.26142,28.13726Z"/><path class="b54745fe-17d1-45b9-8277-96a6fa0cd0c8" d="M57.0202,14.77007a.55428.55428,0,0,1,.16895.40821v6.47851a7.12542,7.12542,0,0,1-.90039,3.625,6.04592,6.04592,0,0,1-2.48438,2.38868,7.36849,7.36849,0,0,1-3.55175.80273h-2.04a6.29674,6.29674,0,0,1-3.084-.73242,5.16649,5.16649,0,0,1-2.06347-2.02735,5.79685,5.79685,0,0,1-.73243-2.90429V15.17828a.54379.54379,0,0,1,.168-.41992.57085.57085,0,0,1,.40821-.15625h1.72754a.53836.53836,0,0,1,.57617.57617l.04785,6.28711A3.2,3.2,0,0,0,47.68427,20.397a4.20552,4.20552,0,0,0,.69629-2.58008V15.20172a.582.582,0,0,1,.168-.43165.5588.5588,0,0,1,.40821-.168h1.72754a.55877.55877,0,0,1,.4082.168.58205.58205,0,0,1,.168.43165v2.6875a5.70224,5.70224,0,0,1-1.45215,4.06835,6.08755,6.08755,0,0,1-4.1875,1.74024,3.46852,3.46852,0,0,0,1.35547,1.64453,3.88086,3.88086,0,0,0,2.10059.5625h.67187a4.80147,4.80147,0,0,0,2.40039-.52734,3.82428,3.82428,0,0,0,1.584-1.56055,4.72379,4.72379,0,0,0,.55175-2.30273V15.17828a.55344.55344,0,0,1,.168-.40821.58586.58586,0,0,1,.43164-.168H56.613A.55655.55655,0,0,1,57.0202,14.77007Z"/><path class="b54745fe-17d1-45b9-8277-96a6fa0cd0c8" d="M65.7331,28.13726a.55338.55338,0,0,1-.168-.4082V15.17828a.54375.54375,0,0,1,.168-.41992.57081.57081,0,0,1,.4082-.15625h2.01562a.56289.56289,0,0,1,.41993.15625.569.569,0,0,1,.15625.41992V27.72906a.57927.57927,0,0,1-.15625.4082.54186.54186,0,0,1-.41993.168H66.1413A.54968.54968,0,0,1,65.7331,28.13726Z"/><path class="b54745fe-17d1-45b9-8277-96a6fa0cd0c8" d="M73.44794,26.98492a6.0342,6.0342,0,0,1-1.54785-4.43945V15.17828a.54719.54719,0,0,1,.168-.41992.57243.57243,0,0,1,.4082-.15625h5.95215q3.26367,0,4.67969,1.42773a6.36274,6.36274,0,0,1,1.56054,4.30859c.01563.16016.02344.5586.02344,1.19922q0,.98438-.02344,1.22461a6.08272,6.08272,0,0,1-1.64453,4.332q-1.52343,1.4502-4.93164,1.45118A6.27455,6.27455,0,0,1,73.44794,26.98492Zm7.39258-1.85938a3.42457,3.42457,0,0,0,.85156-2.48437c.01562-.16016.02441-.52735.02441-1.10352,0-.56054-.00879-.91992-.02441-1.08008q-.12012-3.2871-3.38379-3.2871H74.75653v5.32812a3.43817,3.43817,0,0,0,.85157,2.53125,3.36528,3.36528,0,0,0,2.48437.85156A3.97667,3.97667,0,0,0,80.84052,25.12554Z"/><path class="b54745fe-17d1-45b9-8277-96a6fa0cd0c8" d="M94.69989,28.13726a.57978.57978,0,0,1-.43164.168H87.21161a.54755.54755,0,0,1-.40723-.168.55341.55341,0,0,1-.168-.4082V26.313a.57348.57348,0,0,1,.57519-.57617h4.34473l-.28809-5.39844a11.80986,11.80986,0,0,0-.22851-1.873,1.89139,1.89139,0,0,0-.58789-1.043,1.94148,1.94148,0,0,0-1.2959-.373H88.05243a.57351.57351,0,0,1-.57617-.57617V15.08257a.57351.57351,0,0,1,.57617-.57617H89.2038a6.05288,6.05288,0,0,1,3.03613.64649,3.74514,3.74514,0,0,1,1.62012,1.9082,10.19516,10.19516,0,0,1,.59961,3.252l.38476,7.416A.48223.48223,0,0,1,94.69989,28.13726Z"/></svg>