<svg preserveAspectRatio="none" id="a632d49b-4cda-4083-b79d-2fffc1d4f89b" data-name="Layer 1" xmlns="http://www.w3.org/2000/svg" viewBox="0 0 47.77657 23.64891"><defs><style>.ed17df0a-acc3-42b8-8be2-13de506f5958{fill:#b9deee;}.a7cd27df-6e40-4db5-b528-3186ca7f662e{fill:none;stroke:#5bbf90;stroke-miterlimit:10;stroke-width:1.43614px;}.b0ff7a5b-e3ce-4b9e-913e-311c35604b43{fill:#5bbf90;}</style></defs><title>Artboard 380 copy 3</title><path class="ed17df0a-acc3-42b8-8be2-13de506f5958" d="M13.5123,2.31685,1.55979,12.9123l-.50818-.65673A102.11209,102.11209,0,0,1,22.57981.34468l.00268-.00122.0149-.00611a.89558.89558,0,0,1,.85986,1.55787Q21.07908,3.58895,18.749,5.3332c-1.551,1.16626-3.10523,2.32764-4.60352,3.55591A85.13969,85.13969,0,0,0,5.597,16.72871l-.46338-.61523,14.3999-6.95826,7.16309-3.55444Q30.282,3.83125,33.833,1.99189a.44664.44664,0,0,1,.51172.72168l-.0144.01343L23.65012,12.7646l-5.37048,4.98535c-.88721.83008-1.811,1.66455-2.657,2.48486a8.45373,8.45373,0,0,0-1.98986,2.59766L12.373,21.6291,29.1583,13.34663l8.42529-4.074,8.4513-4.02027.01916-.009a.98777.98777,0,0,1,1.11,1.603l-7.55372,7.28369-3.77685,3.64184c-.624.61866-1.29236,1.19336-1.78247,1.79224-.50635.61206-.78308,1.23511-.56482,1.70483l-.82861-.33032c4.124-1.52075,8.24218-3.05591,12.38549-4.52759l.00769-.00268a.301.301,0,0,1,.38245.3894l-1.96741,5.23462-.00317.0083a.09979.09979,0,0,1-.18909-.06347L44.87387,16.582l.3899.38648c-4.02771,1.76391-8.08057,3.46386-12.12757,5.17871a.6335.6335,0,0,1-.81372-.29981l-.01513-.03076a2.4057,2.4057,0,0,1-.10852-1.7605,4.51558,4.51558,0,0,1,.72717-1.36328,21.4226,21.4226,0,0,1,1.8313-2.00537l3.67053-3.749,7.34131-7.4978,1.12915,1.594-8.39282,4.14062-8.4187,4.08741-16.90284,8.04-.01953.00927a.92439.92439,0,0,1-1.24048-1.21289,10.13506,10.13506,0,0,1,2.45435-3.16577c.9314-.855,1.84436-1.63086,2.76355-2.44433L22.651,11.65742,33.73,2.06172l.49732.73486q-3.63007,1.67835-7.22559,3.427L19.80283,9.70479l-14.3241,7.113a.39177.39177,0,0,1-.46862-.60937l.00524-.00586a87.7665,87.7665,0,0,1,8.38489-8.19922c1.47852-1.27637,2.95337-2.55689,4.45557-3.80151L22.35654.4709l.87476,1.55151-.00269.00122A100.81444,100.81444,0,0,0,1.5289,12.936l-.01379.00952a.41529.41529,0,0,1-.49438-.66626L13.38266,2.16475a.09994.09994,0,0,1,.12964.1521Z"/><rect class="a7cd27df-6e40-4db5-b528-3186ca7f662e" x="0.70821" y="0.71807" width="46.34043" height="22.21277" rx="1.65003"/><path class="b0ff7a5b-e3ce-4b9e-913e-311c35604b43" d="M8.69748,15.639a.25309.25309,0,0,1-.07715-.19336V8.32848a.25308.25308,0,0,1,.07715-.19336.26776.26776,0,0,1,.1875-.07031h.87988a.24451.24451,0,0,1,.26367.26367v7.11719a.24451.24451,0,0,1-.26367.26367H8.885A.2678.2678,0,0,1,8.69748,15.639Z"/><path class="b0ff7a5b-e3ce-4b9e-913e-311c35604b43" d="M11.62326,14.26793a.25068.25068,0,0,1-.07715-.18554V8.32848a.25308.25308,0,0,1,.07715-.19336.26776.26776,0,0,1,.1875-.07031h.92383a.24451.24451,0,0,1,.26367.26367v5.75391a.26125.26125,0,0,1-.07129.18554.2468.2468,0,0,1-.19238.07813h-.92383A.25067.25067,0,0,1,11.62326,14.26793Z"/><path class="b0ff7a5b-e3ce-4b9e-913e-311c35604b43" d="M14.55978,14.26793a.25445.25445,0,0,1-.07715-.18554V13.389a.25364.25364,0,0,1,.07715-.19336.26947.26947,0,0,1,.1875-.07032h1.584a1.58307,1.58307,0,0,0,1.18262-.40234,1.72633,1.72633,0,0,0,.42285-1.17187q.01173-.14357.01172-.35157c0-.13867-.0039-.2539-.01172-.34179a1.435,1.435,0,0,0-1.60547-1.57227h-1.584a.258.258,0,0,1-.1875-.07617.26214.26214,0,0,1-.07715-.1875V8.32848a.25663.25663,0,0,1,.07715-.19336.26946.26946,0,0,1,.1875-.07031H16.386a2.924,2.924,0,0,1,2.167.71484,2.98953,2.98953,0,0,1,.75879,2.05664q.01173.14355.01172.36328c0,.1543-.0039.2793-.01172.37305a2.991,2.991,0,0,1-.75879,2.05859,2.92392,2.92392,0,0,1-2.167.71485H14.74728A.2522.2522,0,0,1,14.55978,14.26793Z"/><path class="b0ff7a5b-e3ce-4b9e-913e-311c35604b43" d="M23.87814,14.26793a.26558.26558,0,0,1-.19824.07813H20.44552a.26509.26509,0,0,1-.26367-.26367V13.432a.26509.26509,0,0,1,.26367-.26367h1.99121l-.13183-2.47461a5.45414,5.45414,0,0,0-.10449-.85742.87033.87033,0,0,0-.26954-.47851.88125.88125,0,0,0-.59375-.17188h-.50683a.26174.26174,0,0,1-.26367-.26367V8.28551a.252.252,0,0,1,.07714-.1875.256.256,0,0,1,.18653-.07812h.52832a2.77913,2.77913,0,0,1,1.3916.29687,1.71748,1.71748,0,0,1,.74219.875,4.673,4.673,0,0,1,.27539,1.49023l.17578,3.4004A.21847.21847,0,0,1,23.87814,14.26793Z"/><path class="b0ff7a5b-e3ce-4b9e-913e-311c35604b43" d="M33.10666,14.11364a.21819.21819,0,0,1-.07227.166.23447.23447,0,0,1-.15918.06641h-.92383a.34284.34284,0,0,1-.18164-.04492.50005.50005,0,0,1-.11523-.09375c-.0293-.03321-.04785-.05274-.05567-.06055l-2.22168-3.15625a1.53929,1.53929,0,0,0-.50586.709,2.79523,2.79523,0,0,0-.13183.875v1.4961a.28109.28109,0,0,1-.07129.19726.24752.24752,0,0,1-.19336.07813h-.74707a.24918.24918,0,0,1-.1875-.07813.26485.26485,0,0,1-.07715-.19726V12.56285A3.75531,3.75531,0,0,1,27.716,11.0902a2.61518,2.61518,0,0,1,.96875-1.08985L27.60666,8.47106a.37134.37134,0,0,1-.05567-.17578.22.22,0,0,1,.06641-.16407.2071.2071,0,0,1,.15429-.0664h.89063a.43813.43813,0,0,1,.35156.209l2.04688,2.8711a1.22388,1.22388,0,0,0,.54394-.57813,2.33138,2.33138,0,0,0,.11524-.79687V8.3402A.28222.28222,0,0,1,31.7922,8.141a.2494.2494,0,0,1,.19239-.07617h.792a.24523.24523,0,0,1,.18652.082.27155.27155,0,0,1,.07715.19336V9.82457A2.91141,2.91141,0,0,1,32.77658,11.1a2.61136,2.61136,0,0,1-1.02344,1.02344l1.28711,1.81445A.293.293,0,0,1,33.10666,14.11364Z"/><path class="b0ff7a5b-e3ce-4b9e-913e-311c35604b43" d="M38.342,8.73473a3.11723,3.11723,0,0,1,.61621,2.14648,3.23664,3.23664,0,0,1-.75977,2.24414,4.12073,4.12073,0,0,1-1.93554,1.19727l-.45118.14453a.20064.20064,0,0,1-.19824-.04492.24981.24981,0,0,1-.08789-.19727v-.80273a.2909.2909,0,0,1,.07129-.1875.43693.43693,0,0,1,.19238-.13281l.38574-.1543a2.20776,2.20776,0,0,0,.98438-.71484,2.20835,2.20835,0,0,0,.34668-1.3418,2.64859,2.64859,0,0,0-.1377-.95117.90451.90451,0,0,0-.46191-.5,2.11928,2.11928,0,0,0-.89648-.1543h-.34082l-1.23243-.01172a.28294.28294,0,0,1-.19824-.07031.24271.24271,0,0,1-.07715-.18164V6.79918a.26214.26214,0,0,1,.07715-.1875.27023.27023,0,0,1,.19824-.07617h.80274a.24854.24854,0,0,1,.26465.26367V8.06481h.75879A2.72378,2.72378,0,0,1,38.342,8.73473Z"/></svg>