<svg preserveAspectRatio="none" id="a80bab1e-46d3-45c7-9516-3206da0b3063" data-name="Layer 1" xmlns="http://www.w3.org/2000/svg" viewBox="0 0 47.77657 23.64891"><defs><style>.ee49abd6-cfc5-4bb5-8ce6-0852615b75a8{fill:none;stroke:#5289c7;stroke-miterlimit:10;stroke-width:1.43614px;}.e70db618-ed02-448a-9238-1616a9906584{fill:#5289c7;}</style></defs><title>Artboard 380 copy 9</title><rect class="ee49abd6-cfc5-4bb5-8ce6-0852615b75a8" x="0.75449" y="0.71807" width="46.34043" height="22.21277" rx="1.65003"/><path class="e70db618-ed02-448a-9238-1616a9906584" d="M8.74337,15.64006a.24742.24742,0,0,1-.07714-.19336V8.33146a.24742.24742,0,0,1,.07714-.19336.26945.26945,0,0,1,.1875-.07226h.87989a.26474.26474,0,0,1,.19238.07226.258.258,0,0,1,.07129.19336V15.4467a.258.258,0,0,1-.07129.19336.26474.26474,0,0,1-.19238.07226H8.93087A.26945.26945,0,0,1,8.74337,15.64006Z"/><path class="e70db618-ed02-448a-9238-1616a9906584" d="M11.66916,14.27091a.25194.25194,0,0,1-.07715-.1875v-5.752a.24739.24739,0,0,1,.07715-.19336.26941.26941,0,0,1,.1875-.07226h.92382a.26478.26478,0,0,1,.19239.07226.258.258,0,0,1,.07129.19336v5.752a.26267.26267,0,0,1-.07129.1875.25227.25227,0,0,1-.19239.07618h-.92382A.25635.25635,0,0,1,11.66916,14.27091Z"/><path class="e70db618-ed02-448a-9238-1616a9906584" d="M14.60568,14.27091a.25568.25568,0,0,1-.07715-.1875v-.69335a.2493.2493,0,0,1,.07715-.19141.26256.26256,0,0,1,.1875-.07227h1.584a1.5825,1.5825,0,0,0,1.18262-.40039,1.72633,1.72633,0,0,0,.42285-1.17187c.00781-.09571.01172-.21289.01172-.35352q0-.208-.01172-.33984a1.4341,1.4341,0,0,0-1.60547-1.57227h-1.584a.25978.25978,0,0,1-.1875-.07812.25568.25568,0,0,1-.07715-.1875V8.33146a.25076.25076,0,0,1,.07715-.19336.27117.27117,0,0,1,.1875-.07226h1.63867a2.924,2.924,0,0,1,2.167.71484,2.99844,2.99844,0,0,1,.75879,2.05859c.00781.09375.01172.21485.01172.36133q0,.23145-.01172.375a2.98953,2.98953,0,0,1-.75879,2.05664,2.92392,2.92392,0,0,1-2.167.71485H14.79318A.258.258,0,0,1,14.60568,14.27091Z"/><path class="e70db618-ed02-448a-9238-1616a9906584" d="M23.924,14.27091a.27176.27176,0,0,1-.19824.07618H20.49142a.26177.26177,0,0,1-.26367-.26368V13.435a.26176.26176,0,0,1,.26367-.26367h1.99121l-.13183-2.47657a5.484,5.484,0,0,0-.1045-.85742.87026.87026,0,0,0-.26953-.47851.8918.8918,0,0,0-.59375-.16993h-.50683a.26507.26507,0,0,1-.26368-.26367V8.28654a.25818.25818,0,0,1,.07715-.1875.25419.25419,0,0,1,.18653-.07617h.52832a2.77924,2.77924,0,0,1,1.3916.29687,1.70976,1.70976,0,0,1,.74219.875,4.66216,4.66216,0,0,1,.27539,1.49024l.17578,3.39843A.22032.22032,0,0,1,23.924,14.27091Z"/><path class="e70db618-ed02-448a-9238-1616a9906584" d="M33.15255,14.11662a.2112.2112,0,0,1-.07226.16406.22584.22584,0,0,1-.15918.06641h-.92383a.34284.34284,0,0,1-.18164-.043.50005.50005,0,0,1-.11523-.09375c-.0293-.03321-.04786-.05274-.05567-.06055l-2.22168-3.1582a1.55428,1.55428,0,0,0-.50586.71094,2.78271,2.78271,0,0,0-.13183.873v1.4961a.28267.28267,0,0,1-.07129.19921.253.253,0,0,1-.19336.07618h-.74707a.2548.2548,0,0,1-.1875-.07618.26629.26629,0,0,1-.07715-.19921V12.56584a3.77211,3.77211,0,0,1,.25293-1.47461,2.61109,2.61109,0,0,1,.96875-1.08789L27.65255,8.474a.37131.37131,0,0,1-.05566-.17578.22755.22755,0,0,1,.06641-.166.21456.21456,0,0,1,.15429-.0664h.89063a.43815.43815,0,0,1,.35156.209l2.04688,2.87109a1.22073,1.22073,0,0,0,.54394-.57617,2.33576,2.33576,0,0,0,.11524-.79883V8.34123A.27738.27738,0,0,1,31.8381,8.144a.25068.25068,0,0,1,.19238-.07812h.792a.24054.24054,0,0,1,.18652.084.27032.27032,0,0,1,.07715.19141V9.8256a2.92631,2.92631,0,0,1-.26367,1.27735A2.62393,2.62393,0,0,1,31.799,12.12638l1.28711,1.81446A.293.293,0,0,1,33.15255,14.11662Z"/><path class="e70db618-ed02-448a-9238-1616a9906584" d="M38.38791,8.73771a3.11162,3.11162,0,0,1,.61621,2.14453,3.23664,3.23664,0,0,1-.75977,2.24414A4.12392,4.12392,0,0,1,36.3088,14.3256l-.45117.14258a.19986.19986,0,0,1-.19824-.043.25378.25378,0,0,1-.08789-.19922v-.80273a.29482.29482,0,0,1,.07129-.1875.43355.43355,0,0,1,.19238-.13086l.38574-.1543a2.20776,2.20776,0,0,0,.98438-.71484A2.21634,2.21634,0,0,0,37.552,10.894a2.6413,2.6413,0,0,0-.1377-.95117.902.902,0,0,0-.46191-.502,2.15364,2.15364,0,0,0-.89649-.15235h-.34082l-1.23242-.01172a.27556.27556,0,0,1-.19824-.07226.23674.23674,0,0,1-.07715-.18164V6.80216a.25571.25571,0,0,1,.07715-.1875.27023.27023,0,0,1,.19824-.07617h.80274a.2459.2459,0,0,1,.26464.26367V8.06584h.75879A2.724,2.724,0,0,1,38.38791,8.73771Z"/></svg>