<svg preserveAspectRatio="none" id="ba97c8de-e44a-4057-9683-19f71b0262a1" data-name="Layer 1" xmlns="http://www.w3.org/2000/svg" viewBox="0 0 47.77657 23.64891"><defs><style>.b34194e9-c07c-41fe-9686-ada4c04ff145{fill:none;stroke:#5289c7;stroke-miterlimit:10;stroke-width:1.43614px;}.b9b1e901-236b-49e1-95d8-419a7f319d9f{fill:#b9deee;}.efaf58a2-b7d8-4182-aa39-4577468fb7ac{fill:#5289c7;}</style></defs><title>Artboard 380 copy 5</title><rect class="b34194e9-c07c-41fe-9686-ada4c04ff145" x="0.71807" y="0.71997" width="46.34043" height="22.21277" rx="1.65003"/><path class="b9b1e901-236b-49e1-95d8-419a7f319d9f" d="M13.55858,2.35177,1.60606,12.94723l-.50818-.65674A102.11209,102.11209,0,0,1,22.62608.3796l.00269-.00122.01489-.0061a.89557.89557,0,0,1,.85986,1.55786q-2.37818,1.69372-4.70825,3.438c-1.551,1.16626-3.10522,2.32764-4.60351,3.55591a85.1398,85.1398,0,0,0-8.54847,7.8396l-.46337-.61524,14.3999-6.95825L26.7429,5.63571q3.58539-1.76954,7.13636-3.60889a.44664.44664,0,0,1,.51172.72168l-.01441.01343L23.6964,12.79953l-5.37049,4.98535c-.88721.83008-1.811,1.66455-2.657,2.48486a8.45377,8.45377,0,0,0-1.98987,2.59766L12.4193,21.664l16.78527-8.28247,8.4253-4.074,8.45129-4.02026.01917-.009a.98776.98776,0,0,1,1.11,1.603L39.6566,14.165l-3.77686,3.64185c-.624.61865-1.29235,1.19336-1.78247,1.79224-.50634.61206-.78308,1.2351-.56482,1.70483l-.82861-.33032c4.124-1.52075,8.24219-3.05591,12.3855-4.52759l.00769-.00269a.301.301,0,0,1,.38245.38941l-1.96741,5.23462-.00317.0083a.09979.09979,0,0,1-.18909-.06348l1.60034-5.39526.38989.38647c-4.02771,1.76392-8.08056,3.46387-12.12756,5.17871a.6335.6335,0,0,1-.81372-.2998l-.01514-.03076a2.40576,2.40576,0,0,1-.10852-1.7605,4.51534,4.51534,0,0,1,.72717-1.36328,21.424,21.424,0,0,1,1.8313-2.00537l3.67054-3.749,7.3413-7.4978,1.12915,1.594-8.39282,4.14062-8.4187,4.0874-16.90283,8.04-.01953.00928A.92439.92439,0,0,1,11.9702,22.134a10.13518,10.13518,0,0,1,2.45434-3.16577c.9314-.855,1.84437-1.63086,2.76355-2.44434l5.50916-4.83154,11.079-9.59571.49731.73487q-3.63006,1.67834-7.22558,3.427l-7.19885,3.4812L5.525,16.85275a.39178.39178,0,0,1-.46863-.60938l.00525-.00586A87.76523,87.76523,0,0,1,13.44652,8.0383c1.47851-1.27637,2.95337-2.55689,4.45556-3.80152l4.50074-3.731.87475,1.55152-.00268.00122A100.81463,100.81463,0,0,0,1.57518,12.97091l-.01379.00952a.4153.4153,0,0,1-.49439-.66626L13.42894,2.19967a.09994.09994,0,0,1,.12964.1521Z"/><path class="efaf58a2-b7d8-4182-aa39-4577468fb7ac" d="M8.70724,15.64258a.25308.25308,0,0,1-.07715-.19336V8.332a.25306.25306,0,0,1,.07715-.19336.26778.26778,0,0,1,.1875-.07032h.87988a.24453.24453,0,0,1,.26368.26368v7.11718a.24453.24453,0,0,1-.26368.26368H8.89474A.26778.26778,0,0,1,8.70724,15.64258Z"/><path class="efaf58a2-b7d8-4182-aa39-4577468fb7ac" d="M11.633,14.27149a.25068.25068,0,0,1-.07715-.18555V8.332a.25306.25306,0,0,1,.07715-.19336.26778.26778,0,0,1,.1875-.07032h.92383A.24453.24453,0,0,1,13.008,8.332v5.7539a.26122.26122,0,0,1-.07129.18555.24681.24681,0,0,1-.19238.07812h-.92383A.25071.25071,0,0,1,11.633,14.27149Z"/><path class="efaf58a2-b7d8-4182-aa39-4577468fb7ac" d="M14.56955,14.27149a.25442.25442,0,0,1-.07715-.18555v-.69336a.25363.25363,0,0,1,.07715-.19336.26947.26947,0,0,1,.1875-.07031h1.584a1.58309,1.58309,0,0,0,1.18262-.40234,1.72645,1.72645,0,0,0,.42285-1.17188q.01171-.14355.01172-.35156c0-.13867-.00391-.25391-.01172-.3418A1.435,1.435,0,0,0,16.341,9.28907h-1.584a.258.258,0,0,1-.1875-.07617.2621.2621,0,0,1-.07715-.1875V8.332a.25658.25658,0,0,1,.07715-.19336.26944.26944,0,0,1,.1875-.07032h1.63867a2.924,2.924,0,0,1,2.167.71485,2.98953,2.98953,0,0,1,.75879,2.05664q.01171.14355.01172.36328c0,.1543-.00391.2793-.01172.37305a2.991,2.991,0,0,1-.75879,2.05859,2.924,2.924,0,0,1-2.167.71484H14.75705A.2522.2522,0,0,1,14.56955,14.27149Z"/><path class="efaf58a2-b7d8-4182-aa39-4577468fb7ac" d="M23.88791,14.27149a.26563.26563,0,0,1-.19825.07812H20.45529a.26506.26506,0,0,1-.26367-.26367v-.65039a.26506.26506,0,0,1,.26367-.26367H22.4465l-.13184-2.47461a5.454,5.454,0,0,0-.10449-.85742.87029.87029,0,0,0-.26953-.47852.88134.88134,0,0,0-.59375-.17187h-.50684a.26176.26176,0,0,1-.26367-.26367V8.28907a.25194.25194,0,0,1,.07715-.1875.256.256,0,0,1,.18652-.07813h.52832A2.77914,2.77914,0,0,1,22.76,8.32032a1.71746,1.71746,0,0,1,.74218.875,4.67238,4.67238,0,0,1,.27539,1.49023l.17579,3.40039A.21848.21848,0,0,1,23.88791,14.27149Z"/><path class="efaf58a2-b7d8-4182-aa39-4577468fb7ac" d="M33.11642,14.11719a.21818.21818,0,0,1-.07226.166.23448.23448,0,0,1-.15918.0664h-.92383a.34275.34275,0,0,1-.18164-.04492.49982.49982,0,0,1-.11524-.09375c-.02929-.0332-.04785-.05273-.05566-.06054l-2.22168-3.15625a1.53924,1.53924,0,0,0-.50586.709,2.79523,2.79523,0,0,0-.13184.875v1.49609a.28105.28105,0,0,1-.07129.19727.24753.24753,0,0,1-.19335.07812h-.74708a.24924.24924,0,0,1-.1875-.07812.26488.26488,0,0,1-.07714-.19727V12.56641a3.75518,3.75518,0,0,1,.25293-1.47266,2.61515,2.61515,0,0,1,.96875-1.08984l-1.07813-1.5293a.37128.37128,0,0,1-.05566-.17578.22.22,0,0,1,.0664-.16406.20715.20715,0,0,1,.1543-.06641h.89063a.43816.43816,0,0,1,.35156.209l2.04687,2.87109a1.2238,1.2238,0,0,0,.544-.57812,2.33146,2.33146,0,0,0,.11523-.79688V8.34375a.28221.28221,0,0,1,.07227-.19921.24935.24935,0,0,1,.19238-.07618h.792a.24525.24525,0,0,1,.18653.082.27156.27156,0,0,1,.07714.19335V9.82813a2.91144,2.91144,0,0,1-.26367,1.27539A2.61139,2.61139,0,0,1,31.76291,12.127L33.05,13.94141A.29294.29294,0,0,1,33.11642,14.11719Z"/><path class="efaf58a2-b7d8-4182-aa39-4577468fb7ac" d="M38.35177,8.73829a3.11717,3.11717,0,0,1,.61621,2.14648,3.23663,3.23663,0,0,1-.75976,2.24414,4.12084,4.12084,0,0,1-1.93555,1.19727l-.45117.14453a.20066.20066,0,0,1-.19824-.04492.24979.24979,0,0,1-.08789-.19727v-.80273a.29085.29085,0,0,1,.07129-.1875.437.437,0,0,1,.19238-.13282l.38574-.15429a2.2077,2.2077,0,0,0,.98438-.71485,2.20839,2.20839,0,0,0,.34668-1.34179,2.64861,2.64861,0,0,0-.1377-.95118.90461.90461,0,0,0-.46191-.5,2.1195,2.1195,0,0,0-.89649-.15429h-.34082L34.4465,9.27735a.28291.28291,0,0,1-.19824-.07031.24271.24271,0,0,1-.07715-.18164V6.80274a.26211.26211,0,0,1,.07715-.1875.2702.2702,0,0,1,.19824-.07617h.80273a.24851.24851,0,0,1,.26465.26367V8.06836h.75879A2.72375,2.72375,0,0,1,38.35177,8.73829Z"/></svg>