<svg preserveAspectRatio="none" id="bc7cbfb9-ff19-4d69-9b32-d2eb71130d9f" data-name="Layer 1" xmlns="http://www.w3.org/2000/svg" viewBox="0 0 47.77657 23.64891"><defs><style>.a34a62f2-dc78-47a2-aeb5-bcadb6c2d22d{fill:none;stroke:#5bbf90;stroke-miterlimit:10;stroke-width:1.43614px;}.a8bc0c2e-f8a8-42a5-b571-65e3480f6f16{fill:#5bbf90;}</style></defs><title>Artboard 380 copy 2</title><rect class="a34a62f2-dc78-47a2-aeb5-bcadb6c2d22d" x="0.71807" y="0.71807" width="46.34043" height="22.21277" rx="1.65003"/><path class="a8bc0c2e-f8a8-42a5-b571-65e3480f6f16" d="M8.70626,15.64029a.25022.25022,0,0,1-.07714-.19336V8.33072a.25024.25024,0,0,1,.07714-.19336.26864.26864,0,0,1,.1875-.07129h.87989a.26415.26415,0,0,1,.19238.07129.261.261,0,0,1,.07129.19336v7.11621a.261.261,0,0,1-.07129.19336.26411.26411,0,0,1-.19238.07129H8.89376A.26859.26859,0,0,1,8.70626,15.64029Z"/><path class="a8bc0c2e-f8a8-42a5-b571-65e3480f6f16" d="M11.63205,14.27017a.2513.2513,0,0,1-.07715-.18652V8.33072a.25021.25021,0,0,1,.07715-.19336.2686.2686,0,0,1,.1875-.07129h.92382a.26417.26417,0,0,1,.19239.07129.261.261,0,0,1,.07129.19336v5.75293a.262.262,0,0,1-.07129.18652.24949.24949,0,0,1-.19239.07715h-.92382A.25346.25346,0,0,1,11.63205,14.27017Z"/><path class="a8bc0c2e-f8a8-42a5-b571-65e3480f6f16" d="M14.56857,14.27017a.25506.25506,0,0,1-.07715-.18652v-.69336a.25148.25148,0,0,1,.07715-.19238.266.266,0,0,1,.1875-.07129h1.584a1.58279,1.58279,0,0,0,1.18262-.40137,1.72633,1.72633,0,0,0,.42285-1.17187c.00782-.09571.01172-.21289.01172-.35254,0-.13867-.0039-.25293-.01172-.34082a1.43453,1.43453,0,0,0-1.60547-1.57227h-1.584a.26342.26342,0,0,1-.26465-.26465V8.33072a.25367.25367,0,0,1,.07715-.19336.27033.27033,0,0,1,.1875-.07129h1.63867a2.92392,2.92392,0,0,1,2.167.71485,2.994,2.994,0,0,1,.75879,2.05761c.00782.09473.01172.21582.01172.36231,0,.15429-.0039.27929-.01172.374a2.99029,2.99029,0,0,1-.75879,2.05762,2.924,2.924,0,0,1-2.167.71484H14.75607A.255.255,0,0,1,14.56857,14.27017Z"/><path class="a8bc0c2e-f8a8-42a5-b571-65e3480f6f16" d="M23.88693,14.27017a.26863.26863,0,0,1-.19824.07715H20.45431a.26341.26341,0,0,1-.26367-.26367v-.64941a.26341.26341,0,0,1,.26367-.26368h1.99121L22.31369,10.695a5.4681,5.4681,0,0,0-.1045-.85742.87029.87029,0,0,0-.26953-.47852.8865.8865,0,0,0-.59375-.1709h-.50683a.26339.26339,0,0,1-.26367-.26367v-.6377a.26338.26338,0,0,1,.26367-.26464h.52832A2.77924,2.77924,0,0,1,22.759,8.319a1.71361,1.71361,0,0,1,.74219.875,4.6676,4.6676,0,0,1,.27539,1.49024l.17578,3.39941A.21939.21939,0,0,1,23.88693,14.27017Z"/><path class="a8bc0c2e-f8a8-42a5-b571-65e3480f6f16" d="M33.11544,14.11588a.21468.21468,0,0,1-.07226.165.23008.23008,0,0,1-.15918.0664h-.92383a.34283.34283,0,0,1-.18164-.04394.50005.50005,0,0,1-.11523-.09375c-.0293-.03321-.04786-.05274-.05567-.06055L29.386,10.99185a1.54684,1.54684,0,0,0-.50586.71,2.789,2.789,0,0,0-.13183.874v1.49609a.28187.28187,0,0,1-.07129.19824.25021.25021,0,0,1-.19336.07715h-.74707a.25194.25194,0,0,1-.1875-.07715.26556.26556,0,0,1-.07715-.19824V12.56509a3.76365,3.76365,0,0,1,.25293-1.47363,2.61319,2.61319,0,0,1,.96875-1.08887L27.61544,8.4733a.37143.37143,0,0,1-.05566-.17578.22374.22374,0,0,1,.06641-.165.21075.21075,0,0,1,.15429-.06641h.89063a.43813.43813,0,0,1,.35156.209l2.04688,2.87109a1.22226,1.22226,0,0,0,.54394-.57715,2.33357,2.33357,0,0,0,.11524-.79785V8.34146a.2798.2798,0,0,1,.07226-.19824.25.25,0,0,1,.19238-.07715h.792a.24286.24286,0,0,1,.18652.083.27092.27092,0,0,1,.07715.19238V9.82584a2.91884,2.91884,0,0,1-.26367,1.27636,2.61764,2.61764,0,0,1-1.02344,1.02344L33.049,13.94009A.293.293,0,0,1,33.11544,14.11588Z"/><path class="a8bc0c2e-f8a8-42a5-b571-65e3480f6f16" d="M38.3508,8.737a3.11444,3.11444,0,0,1,.61621,2.14551,3.23664,3.23664,0,0,1-.75977,2.24414,4.12237,4.12237,0,0,1-1.93555,1.19824l-.45117.14356a.20025.20025,0,0,1-.19824-.044.2518.2518,0,0,1-.08789-.19824v-.80274a.29287.29287,0,0,1,.07129-.1875.43522.43522,0,0,1,.19238-.13183l.38574-.1543a2.20776,2.20776,0,0,0,.98438-.71484,2.21235,2.21235,0,0,0,.34668-1.3418,2.64494,2.64494,0,0,0-.1377-.95117.90328.90328,0,0,0-.46191-.501,2.13641,2.13641,0,0,0-.89649-.15332h-.34082L34.44552,9.276a.27917.27917,0,0,1-.19824-.07129.23968.23968,0,0,1-.07715-.18164V6.80142a.25887.25887,0,0,1,.07715-.1875.27023.27023,0,0,1,.19824-.07617h.80274a.24721.24721,0,0,1,.26465.26367V8.06607h.75878A2.72387,2.72387,0,0,1,38.3508,8.737Z"/></svg>