<svg preserveAspectRatio="none" id="b9cc2a7a-e148-4020-8492-941ad870a54b" data-name="Layer 1" xmlns="http://www.w3.org/2000/svg" viewBox="0 0 47.77657 23.64891"><defs><style>.bfad9053-3317-4861-b6be-d6d121e6a509{fill:#b9deee;}.a7b6603b-0baa-4ae8-a0ed-55cb75284a44{fill:none;stroke:#f37371;stroke-miterlimit:10;stroke-width:1.2792px;}.e0301f66-e94e-40f6-a3fb-77c938a1ed48{fill:#f37371;}</style></defs><title>Artboard 380 copy 4</title><path class="bfad9053-3317-4861-b6be-d6d121e6a509" d="M13.5123,2.31685,1.55979,12.9123l-.50818-.65673A102.11209,102.11209,0,0,1,22.57981.34468l.00268-.00122.0149-.00611a.89558.89558,0,0,1,.85986,1.55787Q21.07908,3.58895,18.749,5.3332c-1.551,1.16626-3.10523,2.32764-4.60352,3.55591A85.13969,85.13969,0,0,0,5.597,16.72871l-.46338-.61523,14.3999-6.95826,7.16309-3.55444Q30.282,3.83125,33.833,1.99189a.44664.44664,0,0,1,.51172.72168l-.0144.01343L23.65012,12.7646l-5.37048,4.98535c-.88721.83008-1.811,1.66455-2.657,2.48486a8.45373,8.45373,0,0,0-1.98986,2.59766L12.373,21.6291,29.1583,13.34663l8.42529-4.074,8.4513-4.02027.01916-.009a.98777.98777,0,0,1,1.11,1.603l-7.55372,7.28369-3.77685,3.64184c-.624.61866-1.29236,1.19336-1.78247,1.79224-.50635.61206-.78308,1.23511-.56482,1.70483l-.82861-.33032c4.124-1.52075,8.24218-3.05591,12.38549-4.52759l.00769-.00268a.301.301,0,0,1,.38245.3894l-1.96741,5.23462-.00317.0083a.09979.09979,0,0,1-.18909-.06347L44.87387,16.582l.3899.38648c-4.02771,1.76391-8.08057,3.46386-12.12757,5.17871a.6335.6335,0,0,1-.81372-.29981l-.01513-.03076a2.4057,2.4057,0,0,1-.10852-1.7605,4.51558,4.51558,0,0,1,.72717-1.36328,21.4226,21.4226,0,0,1,1.8313-2.00537l3.67053-3.749,7.34131-7.4978,1.12915,1.594-8.39282,4.14062-8.4187,4.08741-16.90284,8.04-.01953.00927a.92439.92439,0,0,1-1.24048-1.21289,10.13506,10.13506,0,0,1,2.45435-3.16577c.9314-.855,1.84436-1.63086,2.76355-2.44433L22.651,11.65742,33.73,2.06172l.49732.73486q-3.63007,1.67835-7.22559,3.427L19.80283,9.70479l-14.3241,7.113a.39177.39177,0,0,1-.46862-.60937l.00524-.00586a87.7665,87.7665,0,0,1,8.38489-8.19922c1.47852-1.27637,2.95337-2.55689,4.45557-3.80151L22.35654.4709l.87476,1.55151-.00269.00122A100.81444,100.81444,0,0,0,1.5289,12.936l-.01379.00952a.41529.41529,0,0,1-.49438-.66626L13.38266,2.16475a.09994.09994,0,0,1,.12964.1521Z"/><rect class="a7b6603b-0baa-4ae8-a0ed-55cb75284a44" x="0.71807" y="0.71807" width="46.34043" height="22.21277" rx="1.65003"/><path class="e0301f66-e94e-40f6-a3fb-77c938a1ed48" d="M8.70724,15.64006a.24739.24739,0,0,1-.07715-.19336V8.33146a.24739.24739,0,0,1,.07715-.19336.26943.26943,0,0,1,.1875-.07226h.87988A.26477.26477,0,0,1,9.967,8.1381a.258.258,0,0,1,.07129.19336V15.4467a.258.258,0,0,1-.07129.19336.26477.26477,0,0,1-.19239.07226H8.89474A.26943.26943,0,0,1,8.70724,15.64006Z"/><path class="e0301f66-e94e-40f6-a3fb-77c938a1ed48" d="M11.633,14.27091a.25194.25194,0,0,1-.07715-.1875v-5.752A.24739.24739,0,0,1,11.633,8.1381a.26943.26943,0,0,1,.1875-.07226h.92383a.26474.26474,0,0,1,.19238.07226.258.258,0,0,1,.07129.19336v5.752a.26263.26263,0,0,1-.07129.1875.25223.25223,0,0,1-.19238.07618h-.92383A.25636.25636,0,0,1,11.633,14.27091Z"/><path class="e0301f66-e94e-40f6-a3fb-77c938a1ed48" d="M14.56955,14.27091a.25564.25564,0,0,1-.07715-.1875v-.69335a.24927.24927,0,0,1,.07715-.19141.26252.26252,0,0,1,.1875-.07227h1.584a1.58252,1.58252,0,0,0,1.18262-.40039,1.72643,1.72643,0,0,0,.42285-1.17187c.00781-.09571.01172-.21289.01172-.35352q0-.208-.01172-.33984A1.4341,1.4341,0,0,0,16.341,9.28849h-1.584a.25974.25974,0,0,1-.1875-.07812.25564.25564,0,0,1-.07715-.1875V8.33146a.25073.25073,0,0,1,.07715-.19336.27113.27113,0,0,1,.1875-.07226h1.63867a2.924,2.924,0,0,1,2.167.71484,2.99844,2.99844,0,0,1,.75879,2.05859c.00781.09375.01172.21485.01172.36133q0,.23145-.01172.375a2.98953,2.98953,0,0,1-.75879,2.05664,2.924,2.924,0,0,1-2.167.71485H14.75705A.25791.25791,0,0,1,14.56955,14.27091Z"/><path class="e0301f66-e94e-40f6-a3fb-77c938a1ed48" d="M23.88791,14.27091a.27177.27177,0,0,1-.19825.07618H20.45529a.26176.26176,0,0,1-.26367-.26368V13.435a.26174.26174,0,0,1,.26367-.26367H22.4465l-.13184-2.47657a5.48545,5.48545,0,0,0-.10449-.85742.87026.87026,0,0,0-.26953-.47851.89182.89182,0,0,0-.59375-.16993h-.50684a.26507.26507,0,0,1-.26367-.26367V8.28654a.25814.25814,0,0,1,.07715-.1875.25418.25418,0,0,1,.18652-.07617h.52832A2.77926,2.77926,0,0,1,22.76,8.31974a1.70974,1.70974,0,0,1,.74218.875,4.66161,4.66161,0,0,1,.27539,1.49024l.17579,3.39843A.22032.22032,0,0,1,23.88791,14.27091Z"/><path class="e0301f66-e94e-40f6-a3fb-77c938a1ed48" d="M33.11642,14.11662a.2112.2112,0,0,1-.07226.16406.22586.22586,0,0,1-.15918.06641h-.92383a.34284.34284,0,0,1-.18164-.043.50033.50033,0,0,1-.11524-.09375c-.02929-.03321-.04785-.05274-.05566-.06055l-2.22168-3.1582a1.55428,1.55428,0,0,0-.50586.71094,2.7827,2.7827,0,0,0-.13184.873v1.4961a.28262.28262,0,0,1-.07129.19921.253.253,0,0,1-.19335.07618h-.74708a.25483.25483,0,0,1-.1875-.07618.26633.26633,0,0,1-.07714-.19921V12.56584a3.77211,3.77211,0,0,1,.25293-1.47461,2.61109,2.61109,0,0,1,.96875-1.08789L27.61642,8.474a.37131.37131,0,0,1-.05566-.17578.22758.22758,0,0,1,.0664-.166.2146.2146,0,0,1,.1543-.0664h.89063a.43815.43815,0,0,1,.35156.209l2.04687,2.87109a1.22071,1.22071,0,0,0,.544-.57617,2.33578,2.33578,0,0,0,.11523-.79883V8.34123A.27739.27739,0,0,1,31.802,8.144a.25066.25066,0,0,1,.19238-.07812h.792a.24054.24054,0,0,1,.18653.084.27035.27035,0,0,1,.07714.19141V9.8256a2.92631,2.92631,0,0,1-.26367,1.27735,2.62389,2.62389,0,0,1-1.02343,1.02343L33.05,13.94084A.29291.29291,0,0,1,33.11642,14.11662Z"/><path class="e0301f66-e94e-40f6-a3fb-77c938a1ed48" d="M38.35177,8.73771a3.11157,3.11157,0,0,1,.61621,2.14453,3.23663,3.23663,0,0,1-.75976,2.24414,4.12392,4.12392,0,0,1-1.93555,1.19922l-.45117.14258a.19986.19986,0,0,1-.19824-.043.25375.25375,0,0,1-.08789-.19922v-.80273a.29477.29477,0,0,1,.07129-.1875.43355.43355,0,0,1,.19238-.13086l.38574-.1543a2.20776,2.20776,0,0,0,.98438-.71484,2.21641,2.21641,0,0,0,.34668-1.3418,2.6413,2.6413,0,0,0-.1377-.95117.90205.90205,0,0,0-.46191-.502,2.15364,2.15364,0,0,0-.89649-.15235h-.34082L34.4465,9.27677a.27553.27553,0,0,1-.19824-.07226.23674.23674,0,0,1-.07715-.18164V6.80216a.25571.25571,0,0,1,.07715-.1875.2702.2702,0,0,1,.19824-.07617h.80273a.2459.2459,0,0,1,.26465.26367V8.06584h.75879A2.724,2.724,0,0,1,38.35177,8.73771Z"/></svg>