<svg id="b4cde64a-b99b-400b-aa04-f6181143a769" data-name="Layer 1" xmlns="http://www.w3.org/2000/svg" viewBox="0 0 16.65918 16.66016"><defs><style>.a918e8de-3bd4-40a5-8436-06b75b5f7ba4{fill:#537435;}</style></defs><title>Artboard 329</title><path class="a918e8de-3bd4-40a5-8436-06b75b5f7ba4" d="M.24414,14.41992a.84645.84645,0,0,1,0-1.18945L5.14453,8.36523.24414,3.43066A.98844.98844,0,0,1,0,2.835a.98831.98831,0,0,1,.24414-.59473L2.23926.24512a.84523.84523,0,0,1,1.19043,0L8.3291,5.18066,13.22949.28027a.77217.77217,0,0,1,1.19043,0l1.99414,1.99512a.74188.74188,0,0,1,.24512.59473.81219.81219,0,0,1-.24512.5957L11.51465,8.36523l4.89941,4.86524a.844.844,0,0,1,0,1.18945L14.41992,16.415a.84523.84523,0,0,1-1.19043,0L8.3291,11.51563,3.42969,16.415a.80938.80938,0,0,1-.59473.24512.80689.80689,0,0,1-.5957-.24512Z"/></svg>